<svg xmlns="http://www.w3.org/2000/svg" xmlns:xlink="http://www.w3.org/1999/xlink" width="3812" height="5408" viewBox="0 0 3812 5408">
  <defs>
    <clipPath id="clip-path">
      <rect id="Rectangle_2547" data-name="Rectangle 2547" width="3812" height="5408" transform="translate(14977 -8529)" fill="#423fbf"/>
    </clipPath>
    <clipPath id="clip-path-2">
      <rect id="Rectangle_2546" data-name="Rectangle 2546" width="3814" height="9438" transform="translate(0 1675)" fill="#423fbf"/>
    </clipPath>
    <clipPath id="clip-path-3">
      <rect id="Rectangle_2551" data-name="Rectangle 2551" width="3812" height="513.292" transform="translate(0 1657.708)" fill="#fff"/>
    </clipPath>
  </defs>
  <g id="Group_4980" data-name="Group 4980" transform="translate(-19105 12818)">
    <g id="Mask_Group_30" data-name="Mask Group 30" transform="translate(4128 -4289)" clip-path="url(#clip-path)">
      <rect id="Rectangle_2548" data-name="Rectangle 2548" width="3812" height="7168" transform="translate(14977 -6256)" fill="#423fbf"/>
      <rect id="Rectangle_2552" data-name="Rectangle 2552" width="3812" height="197" transform="translate(14977 -3318)" fill="#edfd27"/>
      <g id="Group_4478" data-name="Group 4478" transform="translate(9560.693 -15479)">
        <path id="mission-bg" d="M0,0H3812.384V2462.491H0Z" transform="translate(5416.307 6951.969)" fill="#423fbf"/>
        <path id="Path_10173" data-name="Path 10173" d="M0,0H3812.266l.119,173.344-81-10.344H215.741L0,183Z" transform="translate(5416.307 6950)" fill="#edfd27"/>
        <g id="Mask_Group_29" data-name="Mask Group 29" transform="translate(5416.307 5278)" clip-path="url(#clip-path-2)">
          <path id="Path_10174" data-name="Path 10174" d="M3820.626,8.125c8.382,0,18.659-5.618,26.264-5.6,16.676.032,32.831-1.393,48.013-1.3,80.431.466,84.976,4.115,164.466,6.068,56.475,1.388,65.447,5.683,120.487,7.77,46.753,1.772,87.009,12.874,131.7,15.062,32.546,1.594,63.927,8.841,94.823,10.589,54.7,3.094,108.947.083,164.726,3.947,42.157,2.92,116.192,9.542,159.3,12.969,35.018,2.784,68.637,3.665,102.513,7.194,40.9,4.26,81.881,11.254,123.389,15.362q56.885,5.629,113.106,11.746c19.8,2.153,40.423-8.709,60.369-6.434,10.705,1.221,24.137-1.277,35.04,0,21.084,2.469,29.908,6.5,49.871,8.957,12.365,1.524,33.409,7.458,46.335,9.1,56.875,7.215,110.337,13.881,163.985,21.592,27.884,4.008,52.608,12.247,80.321,16.471,29.356,4.475,57.8,2.588,87.328,7.364,4,.647,8.449.346,12.861,1.463,5.3,1.342,10.673,4.163,17.054,5.215,13.909,2.294,26.611,6.861,41.932,9.46,6.811,1.156,11.45,1.327,18.157,2.481,3.373.58,14.894,2,17.535,2.456C6819.824,363.889,7588.337,715.056,7588.337,1104.52c0,593.076-1698.707,1073.859-3794.168,1073.859S0,1697.6,0,1104.52C0,705.634,755.994,355.764,1894.461,170.935c11.967-1.943,22.175-8.264,31.913-9.656,10.262-1.467,15.246-6.382,28.278-8.389,8.1-1.247,21.813-5.043,30.6-6.372,11.213-1.7,20.42.625,31.513-1.01,10.01-1.475,20.6.189,30.253-1.2,8.85-1.275,18.393,1.278,27.452,0q36.2-5.109,72.847-10c5.454-.728,12.211-6.547,17.89-7.294,11.852-1.56,19.232-6.417,31.737-8.017,27.607-3.533,64.042-2.313,97-6.772,23.861-3.228,47.662-7.534,69.945-10.293,6.184-.766,12.5,1.06,18.58,0,41.825-7.292,65.672-15.436,108.545-20.986,53.134-6.878,107.935-5.872,161.734-11.763C2782.5,54.977,2913.291,46.254,3037.016,34.6c51.132-3.328,102.486-2.049,155.187-4.314,6.639-.286,40.913.255,47.046,0,65.163-2.712,129.3-10.4,193.74-10.25,76.395.183,151.936-6.91,229.739-3.833,9.2-5.7,23.011-14.192,38.534-15.922,8.859-.988,45.865.853,52.469,2.242C3780.467,8.146,3793.8,8.125,3820.626,8.125Z" transform="translate(-1888.168 1675.228)" fill="#c2f840"/>
          <ellipse id="Ellipse_329" data-name="Ellipse 329" cx="4106" cy="1162" rx="4106" ry="1162" transform="translate(-1948 1757)" fill="#93f45c"/>
          <ellipse id="Ellipse_330" data-name="Ellipse 330" cx="4429.5" cy="1254" rx="4429.5" ry="1254" transform="translate(-1790 1803)" fill="#0ce8ad"/>
          <ellipse id="Ellipse_331" data-name="Ellipse 331" cx="5020.5" cy="1421.5" rx="5020.5" ry="1421.5" transform="translate(-1790 1836)" fill="#423fbf"/>
        </g>
      </g>
      <g id="Mask_Group_31" data-name="Mask Group 31" transform="translate(18789 -1472.215) rotate(180)" clip-path="url(#clip-path-3)">
        <path id="Path_10411" data-name="Path 10411" d="M3820.626-22.826c8.382,0,18.659-5.617,26.264-5.6,16.676.032,32.831-1.393,48.013-1.3,80.431.466,84.976,4.115,164.466,6.068,56.475,1.388,65.447,5.683,120.487,7.77,46.753,1.772,87.009,12.874,131.7,15.062,32.546,1.594,63.927,8.841,94.823,10.589,54.7,3.094,108.947.083,164.726,3.947,42.157,2.921,116.192,9.542,159.3,12.97,35.018,2.784,68.637,3.665,102.513,7.194,40.9,4.26,81.881,11.254,123.389,15.362q56.885,5.63,113.106,11.746c19.8,2.153,40.423-8.71,60.369-6.434,10.705,1.221,24.137-1.277,35.04,0,21.084,2.469,29.908,6.5,49.871,8.957,12.365,1.524,33.409,7.458,46.335,9.1,56.875,7.215,110.337,13.881,163.985,21.592,27.884,4.008,52.608,12.247,80.321,16.471,29.356,4.475,57.8,2.588,87.328,7.364,4,.647,8.449.346,12.861,1.463,5.3,1.342,10.673,4.163,17.054,5.215,13.909,2.294,26.611,6.861,41.932,9.46,6.811,1.155,13.61,2.317,20.317,3.47,3.373.58,12.24,3.1,14.881,3.56C6819.331,335.031,7588.337,684.1,7588.337,1073.569c0,593.076-1698.707,1073.859-3794.168,1073.859S0,1666.645,0,1073.569C0,674.682,755.994,324.813,1894.461,139.983c11.967-1.943,22.175-8.264,31.913-9.656,10.262-1.467,15.246-6.382,28.278-8.389,8.1-1.247,21.813-5.043,30.6-6.372,11.213-1.7,20.42.625,31.513-1.01,10.01-1.475,20.6.189,30.253-1.2,8.85-1.275,18.393,1.278,27.452,0q36.2-5.109,72.847-10c5.454-.728,12.211-6.547,17.89-7.294,11.852-1.56,19.232-6.416,31.737-8.017,27.607-3.533,64.042-2.313,97-6.772,23.861-3.228,47.662-7.534,69.945-10.293,6.184-.766,12.5,1.06,18.58,0,41.825-7.291,65.672-15.436,108.545-20.986,53.134-6.878,107.935-5.872,161.734-11.763C2782.5,24.026,2913.291,15.3,3037.016,3.648,3088.148.32,3139.5,1.6,3192.2-.667c6.639-.285,40.913.255,47.046,0,65.163-2.712,129.3-10.4,193.74-10.25,76.395.183,151.936-6.91,229.739-3.833,9.2-5.7,23.011-14.192,38.534-15.922,8.859-.988,45.865.853,52.469,2.242C3780.467-22.806,3793.8-22.826,3820.626-22.826Z" transform="translate(-1888.168 1706.179)" fill="#c2f840"/>
        <ellipse id="Ellipse_332" data-name="Ellipse 332" cx="4106" cy="1162" rx="4106" ry="1162" transform="translate(-1948 1757)" fill="#93f45c"/>
        <ellipse id="Ellipse_333" data-name="Ellipse 333" cx="4429.5" cy="1254" rx="4429.5" ry="1254" transform="translate(-1790 1803)" fill="#0ce8ad"/>
        <ellipse id="Ellipse_334" data-name="Ellipse 334" cx="5020.5" cy="1421.5" rx="5020.5" ry="1421.5" transform="translate(-1790 1836)" fill="#423fbf"/>
      </g>
    </g>
    <path id="Path_10412" data-name="Path 10412" d="M19105-8556.845v779.862s1294.486,96.267,1664.777,60.442,1789.266-195.58,1857.709-227.221,288.873-44.069,288.873-44.069v-569.014Z" fill="#423fbf"/>
  </g>
</svg>
