<svg id="Group_4034" data-name="Group 4034" xmlns="http://www.w3.org/2000/svg" xmlns:xlink="http://www.w3.org/1999/xlink" width="297.974" height="75.51" viewBox="0 0 297.974 75.51">
  <defs>
    <clipPath id="clip-path">
      <path id="Path_7586" data-name="Path 7586" d="M-107.011,0H28.978V75.51H-130Z" transform="translate(130)" fill="#fff" stroke="#707070" stroke-width="1"/>
    </clipPath>
    <clipPath id="clip-path-2">
      <path id="Path_7581" data-name="Path 7581" d="M114.482,11.385a97,97,0,0,0-2.37,14.858c-2.37-.256-4.547.64-6.853.7,3.01-5.252,5.38-10.7,9.094-15.563ZM124.922-5.779l-2.178,2.626-.512-1.921-1.985,1.857-.7-2.946L116.6-2.64l-.833-3.074-1.089-.961A176.215,176.215,0,0,0,99.624,15.164a224.912,224.912,0,0,0-15.5,29.653l3.138-1.345v1.857l3.651-4.035.32,2.434,1.409-1.345.256,2.434,1.729-1.089h1.409c1.217-2.242,2.434-4.547,3.651-6.789,1.537-.128,3.074-.256,4.611-.512a39.241,39.241,0,0,1,5.508-.7,14.57,14.57,0,0,1,1.665.128c-.064,1.729-.128,3.394-.128,5.124,0,.9,0,1.857.064,2.754l2.178,1.665,1.153-2.946.9,3.715L117.3,43.92l.576-2.049,1.089,2.754.961-1.6,1.025,2.562,1.729-1.025c.128-16.524,2.178-32.983,3.587-49.379Zm29.333-1.473A18.284,18.284,0,0,0,150.219-3.6l-.256-2.178L148.3-4.434V-7.7l-3.2,4.291L144.9-5.843l-1.665.769a72.269,72.269,0,0,0-3.907,7.3c-1.857,3.779-3.587,7.621-5.252,11.464-4.035,9.287-8.518,19.918-11.272,29.653l3.33.576-.576,2.946c2.626.256,5.316.384,7.942.384a44.917,44.917,0,0,0,12.425-1.473l1.665-2.178-2.37-.448a9.313,9.313,0,0,1,2.5-2.754l-3.074-.512,1.345-1.153-1.729-.512,1.793-1.537a55.774,55.774,0,0,1-6.533.32h-2.37c3.074-8.646,6.533-17.164,10.119-25.554,2.5-5.828,4.931-11.72,7.878-17.356ZM179.04-6.8c-1.281.64-3.33,3.33-4.1,4.483l-.32-2.626-1.793,1.665-.192-3.779-3.2,3.779-.576-1.857-1.345.833c-3.587,5.956-6.725,14.41-9.222,20.943-1.857,4.867-3.651,9.8-5.252,14.73-1.217,3.715-2.434,7.493-3.33,11.336l1.345,1.729,2.882-3.587-.192,4.931a9.808,9.808,0,0,0,2.946-3.33l.128,2.946,1.409-1.345.256,2.69,1.985-.512c2.69-9.671,6.276-19.213,9.863-28.564,3.01-7.749,5.956-15.627,9.607-23.12ZM205.682-2.9,206.9-4.113l-.961-.7.833-1.6h-2.113a98.432,98.432,0,0,0-19.406,1.6l.576,1.857,2.242,1.089L183.587-.783,185,.562l-.32,1.345,2.562.512-1.985,1.089a79.021,79.021,0,0,0-5.636,11.144,200.773,200.773,0,0,0-10.375,28.18,9.054,9.054,0,0,1,2.882.7,15.377,15.377,0,0,0-.769,2.434,70.078,70.078,0,0,0,9.671.64,44.013,44.013,0,0,0,11.912-1.473l1.665-1.921-3.715-.64c.833-.576,2.626-2.113,2.882-3.138l-3.138-.32,1.729-1.153-.769-.833,1.025-1.217c-2.562.256-5.188.384-7.749.384a12.428,12.428,0,0,1-2.178-.128c1.345-3.971,3.01-7.813,4.675-11.656L198,23.81l1.409-1.6-1.857-1.345,1.537-.833L197.1,18.687l4.1-1.153L198,16.253l1.665-1.345-1.409-1.089-5.956-.384c1.409-3.138,3.138-6.212,4.419-9.415a31.647,31.647,0,0,1,9.479-1.281l.833-1.857L205.938-.783l2.562-.961Zm37.466-.961-.256-2.178-1.345,1.281-.512-2.178-2.946,3.843L237.833-5.2l-1.6,1.473-1.089-1.089A206.281,206.281,0,0,0,226.5,19.711l-.128.064L224.447-5.587,222.27-2.9l-.961-1.473L219.068-.719l-.32-6.084-3.715,4.419-1.025-2.049c-3.843,6.661-6.853,14.474-9.543,21.647a270.958,270.958,0,0,0-9.223,28.052l2.114-1.089.512,1.6,2.37-3.2.64,3.2,1.537-1.345.833,1.089,1.6-2.946.448,2.946,1.217-.769a114.416,114.416,0,0,1,3.651-11.208c1.857-5.252,3.843-10.439,5.892-15.563l.256-.064A188.575,188.575,0,0,0,219,44.753l1.793-.833,1.153-2.5.769,3.266,1.089-1.281.833,1.6,1.537-1.921.9.961.9-1.473,1.089,2.946c3.522-11.08,6.981-22.224,10.7-33.239,1.089-3.33,2.242-6.6,3.458-9.863,1.025-2.754,2.049-5.572,3.33-8.2Zm50.788.961,1.217-1.217-.961-.7.833-1.6h-2.113a98.432,98.432,0,0,0-19.406,1.6l.576,1.857,2.242,1.089L271.841-.783,273.25.562l-.32,1.345,2.562.512-1.985,1.089a79.014,79.014,0,0,0-5.636,11.144,200.765,200.765,0,0,0-10.375,28.18,9.054,9.054,0,0,1,2.882.7,15.381,15.381,0,0,0-.769,2.434,70.078,70.078,0,0,0,9.671.64,44.013,44.013,0,0,0,11.912-1.473l1.665-1.921-3.715-.64c.833-.576,2.626-2.113,2.882-3.138l-3.138-.32,1.729-1.153-.769-.833,1.025-1.217c-2.562.256-5.188.384-7.749.384a12.428,12.428,0,0,1-2.178-.128c1.345-3.971,3.01-7.813,4.675-11.656l10.631-.7,1.409-1.6L285.8,20.864l1.537-.833-1.985-1.345,4.1-1.153-3.2-1.281,1.665-1.345-1.409-1.089-5.956-.384c1.409-3.138,3.138-6.212,4.419-9.415a31.647,31.647,0,0,1,9.479-1.281l.833-1.857L294.192-.783l2.562-.961Zm32.983-2.69-.576-1.6-3.651,4.227-.256-2.562-1.281,1.089-.448-2.242-1.665,1.153L317.825-6.1a83.932,83.932,0,0,1-8.134,16.267,79.791,79.791,0,0,1-2.434-16.524L306.169-5.33l-1.153-1.345L303.8-4.113l-1.665-3.394a10.959,10.959,0,0,0-1.921,4.419l-1.921-2.818-1.153.833c.64,8.518,1.985,19.278,4.355,27.539A225.877,225.877,0,0,1,286.955,44.24l1.665-.064v1.729l3.138-3.074v2.049l1.857-1.089.128.961,2.818-2.178-.7,3.971.7,1.345c12.489-14.666,25.618-36.506,32.919-54.566ZM352.986-2.9,354.2-4.113l-.961-.7.833-1.6h-2.113a98.432,98.432,0,0,0-19.406,1.6l.576,1.857,2.242,1.089L330.89-.783,332.3.562l-.32,1.345,2.562.512-1.985,1.089a79.014,79.014,0,0,0-5.636,11.144,200.765,200.765,0,0,0-10.375,28.18,9.054,9.054,0,0,1,2.882.7,15.381,15.381,0,0,0-.769,2.434,70.078,70.078,0,0,0,9.671.64,44.013,44.013,0,0,0,11.912-1.473l1.665-1.921-3.715-.64c.833-.576,2.626-2.113,2.882-3.138l-3.138-.32,1.729-1.153-.768-.833,1.025-1.217c-2.562.256-5.188.384-7.749.384a12.428,12.428,0,0,1-2.178-.128c1.345-3.971,3.01-7.813,4.675-11.656l10.632-.7,1.409-1.6-1.857-1.345,1.537-.833L344.4,18.687l4.1-1.153-3.2-1.281,1.665-1.345-1.409-1.089-5.956-.384c1.409-3.138,3.138-6.212,4.419-9.415A31.647,31.647,0,0,1,353.5,2.739l.833-1.857L353.242-.783l2.562-.961Zm33.56-.64.512-1.729L384.5-5.394l1.089-1.729c-1.345-.064-2.626-.064-3.971-.064a139.991,139.991,0,0,0-20.046,1.409l.576,1.857,2.242,1.089L359.9-1.744,361.311-.4l-.32,1.345,2.562.576-2.434,2.434a64.99,64.99,0,0,1,9.351-.769c.769,0,1.537,0,2.306.064-2.882,4.355-5.828,8.71-9.03,12.873-4.163,5.444-8.39,10.824-12.745,16.139-2.434,2.946-4.867,6.02-7.429,8.838l1.6.192-.448,1.665,2.562-.576-.32,2.69a75.955,75.955,0,0,0,13.193,1.153,42.121,42.121,0,0,0,11.656-1.409L373.48,42.9l-3.715-.9L369,40.782l2.946-1.409-2.754-.64,1.473-1.473-1.089-.384,1.409-1.473a62.588,62.588,0,0,1-6.917.384,18.917,18.917,0,0,1-2.69-.128,202.11,202.11,0,0,0,27.475-39Z" transform="translate(-84.125 7.7)" fill="#0ce8ad"/>
    </clipPath>
    <clipPath id="clip-path-3">
      <path id="Path_7585" data-name="Path 7585" d="M0,0H181.437L156.68,75.51H0Z" fill="#fff" stroke="#707070" stroke-width="1"/>
    </clipPath>
  </defs>
  <g id="Mask_Group_21" data-name="Mask Group 21" transform="translate(138.996 0)" clip-path="url(#clip-path)">
    <g id="Group_3915" data-name="Group 3915" transform="translate(-158.436 0)">
      <g id="Group_3914" data-name="Group 3914" transform="translate(0 0)">
        <g id="Group_3910" data-name="Group 3910">
          <path id="Path_7580" data-name="Path 7580" d="M114.482,11.385a97,97,0,0,0-2.37,14.858c-2.37-.256-4.547.64-6.853.7,3.01-5.252,5.38-10.7,9.094-15.563ZM124.922-5.779l-2.178,2.626-.512-1.921-1.985,1.857-.7-2.946L116.6-2.64l-.833-3.074-1.089-.961A176.215,176.215,0,0,0,99.624,15.164a224.912,224.912,0,0,0-15.5,29.653l3.138-1.345v1.857l3.651-4.035.32,2.434,1.409-1.345.256,2.434,1.729-1.089h1.409c1.217-2.242,2.434-4.547,3.651-6.789,1.537-.128,3.074-.256,4.611-.512a39.241,39.241,0,0,1,5.508-.7,14.57,14.57,0,0,1,1.665.128c-.064,1.729-.128,3.394-.128,5.124,0,.9,0,1.857.064,2.754l2.178,1.665,1.153-2.946.9,3.715L117.3,43.92l.576-2.049,1.089,2.754.961-1.6,1.025,2.562,1.729-1.025c.128-16.524,2.178-32.983,3.587-49.379Zm29.333-1.473A18.284,18.284,0,0,0,150.219-3.6l-.256-2.178L148.3-4.434V-7.7l-3.2,4.291L144.9-5.843l-1.665.769a72.269,72.269,0,0,0-3.907,7.3c-1.857,3.779-3.587,7.621-5.252,11.464-4.035,9.287-8.518,19.918-11.272,29.653l3.33.576-.576,2.946c2.626.256,5.316.384,7.942.384a44.917,44.917,0,0,0,12.425-1.473l1.665-2.178-2.37-.448a9.313,9.313,0,0,1,2.5-2.754l-3.074-.512,1.345-1.153-1.729-.512,1.793-1.537a55.774,55.774,0,0,1-6.533.32h-2.37c3.074-8.646,6.533-17.164,10.119-25.554,2.5-5.828,4.931-11.72,7.878-17.356ZM179.04-6.8c-1.281.64-3.33,3.33-4.1,4.483l-.32-2.626-1.793,1.665-.192-3.779-3.2,3.779-.576-1.857-1.345.833c-3.587,5.956-6.725,14.41-9.222,20.943-1.857,4.867-3.651,9.8-5.252,14.73-1.217,3.715-2.434,7.493-3.33,11.336l1.345,1.729,2.882-3.587-.192,4.931a9.808,9.808,0,0,0,2.946-3.33l.128,2.946,1.409-1.345.256,2.69,1.985-.512c2.69-9.671,6.276-19.213,9.863-28.564,3.01-7.749,5.956-15.627,9.607-23.12ZM205.682-2.9,206.9-4.113l-.961-.7.833-1.6h-2.113a98.432,98.432,0,0,0-19.406,1.6l.576,1.857,2.242,1.089L183.587-.783,185,.562l-.32,1.345,2.562.512-1.985,1.089a79.021,79.021,0,0,0-5.636,11.144,200.773,200.773,0,0,0-10.375,28.18,9.054,9.054,0,0,1,2.882.7,15.377,15.377,0,0,0-.769,2.434,70.078,70.078,0,0,0,9.671.64,44.013,44.013,0,0,0,11.912-1.473l1.665-1.921-3.715-.64c.833-.576,2.626-2.113,2.882-3.138l-3.138-.32,1.729-1.153-.769-.833,1.025-1.217c-2.562.256-5.188.384-7.749.384a12.428,12.428,0,0,1-2.178-.128c1.345-3.971,3.01-7.813,4.675-11.656L198,23.81l1.409-1.6-1.857-1.345,1.537-.833L197.1,18.687l4.1-1.153L198,16.253l1.665-1.345-1.409-1.089-5.956-.384c1.409-3.138,3.138-6.212,4.419-9.415a31.647,31.647,0,0,1,9.479-1.281l.833-1.857L205.938-.783l2.562-.961Zm37.466-.961-.256-2.178-1.345,1.281-.512-2.178-2.946,3.843L237.833-5.2l-1.6,1.473-1.089-1.089A206.281,206.281,0,0,0,226.5,19.711l-.128.064L224.447-5.587,222.27-2.9l-.961-1.473L219.068-.719l-.32-6.084-3.715,4.419-1.025-2.049c-3.843,6.661-6.853,14.474-9.543,21.647a270.958,270.958,0,0,0-9.223,28.052l2.114-1.089.512,1.6,2.37-3.2.64,3.2,1.537-1.345.833,1.089,1.6-2.946.448,2.946,1.217-.769a114.416,114.416,0,0,1,3.651-11.208c1.857-5.252,3.843-10.439,5.892-15.563l.256-.064A188.575,188.575,0,0,0,219,44.753l1.793-.833,1.153-2.5.769,3.266,1.089-1.281.833,1.6,1.537-1.921.9.961.9-1.473,1.089,2.946c3.522-11.08,6.981-22.224,10.7-33.239,1.089-3.33,2.242-6.6,3.458-9.863,1.025-2.754,2.049-5.572,3.33-8.2Zm50.788.961,1.217-1.217-.961-.7.833-1.6h-2.113a98.432,98.432,0,0,0-19.406,1.6l.576,1.857,2.242,1.089L271.841-.783,273.25.562l-.32,1.345,2.562.512-1.985,1.089a79.014,79.014,0,0,0-5.636,11.144,200.765,200.765,0,0,0-10.375,28.18,9.054,9.054,0,0,1,2.882.7,15.381,15.381,0,0,0-.769,2.434,70.078,70.078,0,0,0,9.671.64,44.013,44.013,0,0,0,11.912-1.473l1.665-1.921-3.715-.64c.833-.576,2.626-2.113,2.882-3.138l-3.138-.32,1.729-1.153-.769-.833,1.025-1.217c-2.562.256-5.188.384-7.749.384a12.428,12.428,0,0,1-2.178-.128c1.345-3.971,3.01-7.813,4.675-11.656l10.631-.7,1.409-1.6L285.8,20.864l1.537-.833-1.985-1.345,4.1-1.153-3.2-1.281,1.665-1.345-1.409-1.089-5.956-.384c1.409-3.138,3.138-6.212,4.419-9.415a31.647,31.647,0,0,1,9.479-1.281l.833-1.857L294.192-.783l2.562-.961Zm32.983-2.69-.576-1.6-3.651,4.227-.256-2.562-1.281,1.089-.448-2.242-1.665,1.153L317.825-6.1a83.932,83.932,0,0,1-8.134,16.267,79.791,79.791,0,0,1-2.434-16.524L306.169-5.33l-1.153-1.345L303.8-4.113l-1.665-3.394a10.959,10.959,0,0,0-1.921,4.419l-1.921-2.818-1.153.833c.64,8.518,1.985,19.278,4.355,27.539A225.877,225.877,0,0,1,286.955,44.24l1.665-.064v1.729l3.138-3.074v2.049l1.857-1.089.128.961,2.818-2.178-.7,3.971.7,1.345c12.489-14.666,25.618-36.506,32.919-54.566ZM352.986-2.9,354.2-4.113l-.961-.7.833-1.6h-2.113a98.432,98.432,0,0,0-19.406,1.6l.576,1.857,2.242,1.089L330.89-.783,332.3.562l-.32,1.345,2.562.512-1.985,1.089a79.014,79.014,0,0,0-5.636,11.144,200.765,200.765,0,0,0-10.375,28.18,9.054,9.054,0,0,1,2.882.7,15.381,15.381,0,0,0-.769,2.434,70.078,70.078,0,0,0,9.671.64,44.013,44.013,0,0,0,11.912-1.473l1.665-1.921-3.715-.64c.833-.576,2.626-2.113,2.882-3.138l-3.138-.32,1.729-1.153-.768-.833,1.025-1.217c-2.562.256-5.188.384-7.749.384a12.428,12.428,0,0,1-2.178-.128c1.345-3.971,3.01-7.813,4.675-11.656l10.632-.7,1.409-1.6-1.857-1.345,1.537-.833L344.4,18.687l4.1-1.153-3.2-1.281,1.665-1.345-1.409-1.089-5.956-.384c1.409-3.138,3.138-6.212,4.419-9.415A31.647,31.647,0,0,1,353.5,2.739l.833-1.857L353.242-.783l2.562-.961Zm33.56-.64.512-1.729L384.5-5.394l1.089-1.729c-1.345-.064-2.626-.064-3.971-.064a139.991,139.991,0,0,0-20.046,1.409l.576,1.857,2.242,1.089L359.9-1.744,361.311-.4l-.32,1.345,2.562.576-2.434,2.434a64.99,64.99,0,0,1,9.351-.769c.769,0,1.537,0,2.306.064-2.882,4.355-5.828,8.71-9.03,12.873-4.163,5.444-8.39,10.824-12.745,16.139-2.434,2.946-4.867,6.02-7.429,8.838l1.6.192-.448,1.665,2.562-.576-.32,2.69a75.955,75.955,0,0,0,13.193,1.153,42.121,42.121,0,0,0,11.656-1.409L373.48,42.9l-3.715-.9L369,40.782l2.946-1.409-2.754-.64,1.473-1.473-1.089-.384,1.409-1.473a62.588,62.588,0,0,1-6.917.384,18.917,18.917,0,0,1-2.69-.128,202.11,202.11,0,0,0,27.475-39Z" transform="translate(-77.258 18.723)" fill="#edfd27"/>
          <path id="Path_7580_-_Outline" data-name="Path 7580 - Outline" d="M117.636-56.917l-3.2,4.291-.192-2.434-1.665.769a72.266,72.266,0,0,0-3.907,7.3c-1.857,3.779-3.587,7.621-5.252,11.464C99.383-26.239,94.9-15.608,92.146-5.873l3.33.576L94.9-2.351c2.626.256,5.316.384,7.942.384a44.916,44.916,0,0,0,12.425-1.473l1.665-2.178-2.37-.448a9.314,9.314,0,0,1,2.5-2.754l-3.074-.512,1.345-1.153L113.6-11l1.793-1.537a55.776,55.776,0,0,1-6.533.32h-2.37c3.074-8.646,6.533-17.164,10.119-25.554,2.5-5.828,4.931-11.72,7.877-17.356l-.9-1.345a18.283,18.283,0,0,0-4.035,3.651L119.3-55l-1.665,1.345v-3.266m153.836.192a10.959,10.959,0,0,0-1.921,4.419l-1.921-2.818-1.153.833c.64,8.518,1.985,19.278,4.355,27.539A225.878,225.878,0,0,1,256.293-4.977l1.665-.064v1.729L261.1-6.386v2.049l1.857-1.089.128.961L265.9-6.642l-.7,3.971.7,1.345c12.489-14.666,25.618-36.506,32.919-54.566L296.257-54.8l-.576-1.6-3.651,4.227-.256-2.562-1.281,1.089-.448-2.242-1.665,1.153-1.217-.576a83.932,83.932,0,0,1-8.134,16.267A79.8,79.8,0,0,1,276.6-55.572l-1.089,1.025-1.153-1.345-1.217,2.562-1.665-3.394m79.48.32A139.99,139.99,0,0,0,330.905-55l.576,1.857,2.242,1.089-4.483,1.089,1.409,1.345-.32,1.345,2.562.576-2.434,2.434a64.992,64.992,0,0,1,9.351-.769c.769,0,1.537,0,2.306.064-2.882,4.355-5.828,8.71-9.03,12.873-4.163,5.444-8.39,10.824-12.745,16.139-2.434,2.946-4.867,6.02-7.429,8.838l1.6.192-.448,1.665,2.562-.576-.32,2.69A75.955,75.955,0,0,0,329.5-2.991,42.122,42.122,0,0,0,341.152-4.4l1.665-1.921-3.715-.9-.769-1.217,2.946-1.409-2.754-.64L340-11.957l-1.089-.384,1.409-1.473a62.591,62.591,0,0,1-6.917.384,18.917,18.917,0,0,1-2.69-.128,202.106,202.106,0,0,0,27.475-39l-2.306-.192.512-1.729-2.562-.128,1.089-1.729c-1.345-.064-2.626-.064-3.971-.064m-208.979.128-3.2,3.779-.576-1.857-1.345.833c-3.587,5.956-6.725,14.41-9.222,20.943-1.857,4.867-3.651,9.8-5.252,14.73-1.217,3.715-2.434,7.493-3.33,11.336l1.345,1.729,2.882-3.587-.192,4.931a9.808,9.808,0,0,0,2.946-3.33l.128,2.946,1.409-1.345.256,2.69,1.985-.512c2.69-9.671,6.276-19.213,9.863-28.564,3.01-7.749,5.956-15.627,9.607-23.12l-.9-1.345c-1.281.64-3.33,3.33-4.1,4.483l-.32-2.626L142.165-52.5l-.192-3.779m68.4.128-2.946,3.843-.256-2.113-1.6,1.473-1.089-1.089a206.273,206.273,0,0,0-8.646,24.529l-.128.064L193.785-54.8l-2.178,2.69-.961-1.473-2.242,3.651-.32-6.084L184.37-51.6l-1.025-2.049C179.5-46.99,176.493-39.177,173.8-32a270.972,270.972,0,0,0-9.222,28.052l2.113-1.089.512,1.6,2.37-3.2.64,3.2,1.537-1.345.833,1.089,1.6-2.946.448,2.946,1.217-.769A114.421,114.421,0,0,1,179.5-15.672c1.857-5.252,3.843-10.439,5.892-15.563l.256-.064a188.577,188.577,0,0,0,2.69,26.835l1.793-.833,1.153-2.5.769,3.266,1.089-1.281.833,1.6,1.537-1.921.9.961.9-1.473L198.4-3.7c3.522-11.08,6.981-22.224,10.7-33.239,1.089-3.33,2.242-6.6,3.458-9.863,1.025-2.754,2.049-5.572,3.33-8.2l-3.394,1.921-.256-2.178-1.345,1.281-.512-2.178m-126.361.256A176.213,176.213,0,0,0,68.962-34.053,224.914,224.914,0,0,0,53.463-4.4L56.6-5.745v1.857l3.651-4.035.32,2.434,1.409-1.345L62.237-4.4l1.729-1.089h1.409c1.217-2.242,2.434-4.547,3.651-6.789,1.537-.128,3.074-.256,4.611-.512a39.242,39.242,0,0,1,5.508-.7,14.573,14.573,0,0,1,1.665.128c-.064,1.729-.128,3.394-.128,5.124,0,.9,0,1.857.064,2.754l2.178,1.665L84.076-6.77l.9,3.715L86.638-5.3l.576-2.049L88.3-4.592l.961-1.6,1.025,2.562,1.729-1.025C92.146-21.18,94.2-37.639,95.6-54.035L94.259-55,92.082-52.37l-.512-1.921-1.985,1.857-.7-2.946-2.946,3.522L85.1-54.932l-1.089-.961M81.45-22.973c-2.37-.256-4.547.64-6.853.7,3.01-5.252,5.38-10.7,9.094-15.563h.128a97,97,0,0,0-2.37,14.858M174-55.636a98.433,98.433,0,0,0-19.406,1.6l.576,1.857,2.242,1.089L152.924-50l1.409,1.345-.32,1.345,2.562.512-1.985,1.089a79.021,79.021,0,0,0-5.636,11.144,200.777,200.777,0,0,0-10.375,28.18,9.053,9.053,0,0,1,2.882.7,15.379,15.379,0,0,0-.768,2.434,70.08,70.08,0,0,0,9.671.64A44.013,44.013,0,0,0,162.275-4.08L163.94-6l-3.715-.64c.833-.576,2.626-2.113,2.882-3.138l-3.138-.32,1.729-1.153-.769-.833,1.025-1.217c-2.562.256-5.188.384-7.749.384a12.428,12.428,0,0,1-2.178-.128c1.345-3.971,3.01-7.813,4.675-11.656l10.631-.7,1.409-1.6-1.857-1.345,1.537-.833-1.985-1.345,4.1-1.153-3.2-1.281L169-34.309,167.591-35.4l-5.956-.384c1.409-3.138,3.138-6.212,4.419-9.415a31.647,31.647,0,0,1,9.479-1.281l.833-1.857L175.276-50l2.562-.961-2.818-1.153,1.217-1.217-.961-.7.833-1.6H174m88.254,0a98.432,98.432,0,0,0-19.406,1.6l.576,1.857,2.242,1.089L241.178-50l1.409,1.345-.32,1.345,2.562.512-1.985,1.089a79.019,79.019,0,0,0-5.636,11.144,200.781,200.781,0,0,0-10.375,28.18,9.054,9.054,0,0,1,2.882.7,15.376,15.376,0,0,0-.769,2.434,70.08,70.08,0,0,0,9.671.64A44.013,44.013,0,0,0,250.529-4.08L252.194-6l-3.715-.64c.833-.576,2.626-2.113,2.882-3.138l-3.138-.32,1.729-1.153-.769-.833,1.025-1.217c-2.562.256-5.188.384-7.749.384a12.428,12.428,0,0,1-2.178-.128c1.345-3.971,3.01-7.813,4.675-11.656l10.631-.7,1.409-1.6-1.857-1.345,1.537-.833-1.985-1.345,4.1-1.153-3.2-1.281,1.665-1.345L255.845-35.4l-5.956-.384c1.409-3.138,3.138-6.212,4.419-9.415a31.646,31.646,0,0,1,9.479-1.281l.833-1.857L263.53-50l2.562-.961-2.818-1.153,1.217-1.217-.961-.7.833-1.6h-2.113m59.049,0a98.432,98.432,0,0,0-19.406,1.6l.576,1.857,2.242,1.089L300.228-50l1.409,1.345-.32,1.345,2.562.512-1.985,1.089a79.014,79.014,0,0,0-5.636,11.144,200.765,200.765,0,0,0-10.375,28.18,9.054,9.054,0,0,1,2.882.7A15.382,15.382,0,0,0,288-3.247a70.08,70.08,0,0,0,9.671.64A44.013,44.013,0,0,0,309.578-4.08L311.243-6l-3.715-.64c.833-.576,2.626-2.113,2.882-3.138l-3.138-.32L309-11.253l-.768-.833,1.025-1.217c-2.562.256-5.188.384-7.749.384a12.427,12.427,0,0,1-2.178-.128c1.345-3.971,3.01-7.813,4.675-11.656l10.631-.7,1.409-1.6-1.857-1.345,1.537-.833-1.985-1.345,4.1-1.153-3.2-1.281,1.665-1.345L314.894-35.4l-5.956-.384c1.409-3.138,3.138-6.212,4.419-9.415a31.647,31.647,0,0,1,9.479-1.281l.833-1.857L322.579-50l2.562-.961-2.818-1.153,1.217-1.217-.961-.7.833-1.6H321.3m-200-12.3v6.629l.865-.7L122.4-60l2.354-1.33,3.985,5.978-1,1.921c-2.5,4.786-4.685,9.9-6.8,14.854l-.961,2.249c-3.267,7.643-5.936,14.252-8.234,20.4,1.182-.047,2.228-.127,3.226-.244l3.134-.369q.392-1.222.8-2.452c1.454-4.477,3.142-9.213,5.31-14.9l.471-1.234c2.452-6.427,5.5-14.425,9.035-20.291l.456-.758,6.118-3.787v0l4.869-5.745.263,5.18,1.3-1.208.28,2.3,2.627-1.313,2.334,3.5,1.9-.384A103.918,103.918,0,0,1,174-59.3h8.141l-2.166,4.165,0,0,.2-.352,3.4-5.894,1.577,3.154,6.1-7.256.35,6.655.324.5,4.812-5.944,1.254,16.557q1.5-3.955,3.123-7.762l2.127-4.976,2.433,2.433,4.27-3.928.036.293,2.186-2.852.818,3.478,2.024-1.928.468,3.98,8.862-5.016-5.17,10.6c-1.115,2.286-2.064,4.839-2.981,7.307l-.209.562c-1.269,3.406-2.384,6.586-3.41,9.724-2.892,8.578-5.668,17.355-8.352,25.844l-2.334,7.367L198.656,7.566,195.683-.481l-2.359,2.949-.915-1.76-2.256,2.654L189.17-.814,185.59.848l-.849-4.655c-.646-3.538-1.181-7.24-1.61-11.147l-.178.5-.8,2.246a82.81,82.81,0,0,0-2.74,8.586l-.345,1.452L174.275.86l-1.168,2.15-.728-.952-.52.328-.191-1.258-.447-.584-3.353,2.934-.261-1.306L165.9,4.481,164.526.193l-5.518,2.843L159.72.262a52.148,52.148,0,0,1-9.358.791A73.768,73.768,0,0,1,140.184.377l-3.957-.554.613-2.657-2.973-.2,1.18-4.319q.573-2.1,1.223-4.229c-1.062,3.185-2.051,6.37-2.941,9.569L132.764.025l-7.321,1.889-2.6,2.477-.138-3.185-3.566,2.377.149-3.818-.943-1.212L117.442-.26l-1.156.336a47.578,47.578,0,0,1-13.445,1.618c-2.774,0-5.566-.135-8.3-.4L90.535.9l.094-.479-1.653.98L87.626,3.649,86.558.948,83.249,5.4,81.956.044,77.213-3.583,77.1-5.228c-.07-.982-.073-2.033-.073-3.015,0-.469,0-.933.012-1.4-.4.061-.8.13-1.215.2-.56.1-1.115.191-1.665.27-.941.157-1.9.27-2.844.362q-.441.821-.882,1.647c-.612,1.144-1.224,2.288-1.837,3.416L67.552-1.829h-2.53l-5.81,3.658L59.121.956,57.884,2.136,57.655.4,52.941,5.612V-.195L46.6,2.525l3.492-8.338A227.852,227.852,0,0,1,65.835-35.954,179.372,179.372,0,0,1,81.207-58.243l2.411-2.877,3.044,2.686,4.082-4.881.935,3.909,1.852-1.732.37,1.389L99.429-55.8l-.179,2.079c-.35,4.071-.739,8.147-1.129,12.226-.364,3.808-.731,7.656-1.067,11.525,1.011-2.4,2.024-4.752,3.007-7.014,1.969-4.544,3.661-8.237,5.324-11.62a75.309,75.309,0,0,1,4.107-7.657l.577-.9,4.858-2.242Zm28.991,20.481-.215-.206c-2.122,4.844-4.05,9.828-5.931,14.693l-1.062,2.742-.207.541q1.284-3.085,2.737-6.36c1.174-2.663,2.462-5.587,4-8.411l-.03-.006Zm21.431,10.625c.77-2.011,1.551-4,2.359-5.958a28.726,28.726,0,0,0-5.345.656c-.462,1.038-.95,2.054-1.44,3.052l1.652.107Zm-7.045,19.582q.728-2.234,1.479-4.409l-6.977.462c-.661,1.535-1.3,3.046-1.907,4.558,1.45-.059,2.9-.161,4.322-.3Zm115.173-46.4.405,7.9c.094,1.827.264,3.956.518,6.143a73.684,73.684,0,0,0,2.955-6.95l1.374-3.777,2.938,1.392,4.506-3.12.321,1.6,1.859-1.58.1,1.035L297-63.535l1.386,3.849,7.137-3.033-1.878,4.644A110.6,110.6,0,0,1,321.3-59.3h8.142l-.459.882,1.4-.2a143.309,143.309,0,0,1,20.573-1.447c1.4,0,2.741,0,4.145.068l6.264.3-1.1,1.744.963.048-.557,1.878,3.379.282-2.636,4.914a203.7,203.7,0,0,1-22.627,33.494q.566-.052,1.129-.114l10.012-1.112-4.455,4.658,1.221.431-.919.919,6.5,1.512-4.5,2.154,1.751.423-6.313,7.284-1.042.3A44.967,44.967,0,0,1,329.5.669a79.833,79.833,0,0,1-13.838-1.21l-3.4-.608.06-.507-.694.8-1.052.3a47.625,47.625,0,0,1-12.91,1.612A73.769,73.769,0,0,1,287.488.377l-3.957-.554.613-2.657-2.973-.2,1.18-4.319a188.3,188.3,0,0,1,8.52-24,214.949,214.949,0,0,1-22.186,32.4l-3.514,4.126L262.7.455l-2.408,1.86-.24-1.8-1.928,1.13L254.3,5.4V-1.237l-1.438.055-.282.325-1.052.3a47.625,47.625,0,0,1-12.91,1.612A73.769,73.769,0,0,1,228.438.377l-3.957-.554.613-2.657-2.973-.2L223.3-7.35a200.975,200.975,0,0,1,10.56-28.7c1.174-2.663,2.462-5.587,4-8.411l-.03-.006.713-2.993-4.733-4.517,5.433-1.319-1.094-3.524,3.971-.8a103.916,103.916,0,0,1,20.13-1.674h4.906l1.379-1,.524.768,3.278-3.747.747,1.523.382-.8,2.325,2.712Zm-15.87,20.839h-.189a30.682,30.682,0,0,0-6.8.682c-.462,1.038-.95,2.054-1.44,3.052l1.652.107,5.96,4.605-.409.331L265.6-32.9C264.924-36.245,264.393-39.641,263.975-42.818Zm58.863,0h0a30.683,30.683,0,0,0-6.8.682c-.462,1.038-.95,2.054-1.44,3.052l1.652.107,5.96,4.605-.409.331,5.658,2.263q1.341-1.732,2.721-3.536c1.688-2.195,3.3-4.428,4.95-6.826-1.287.119-2.656.285-4.141.5l-10.917,1.592ZM316.2-17.674l1.321-1.61c2.838-3.464,5.729-7.087,8.753-10.968l-3.951,1.111.449.3-1.719.931.406.294-5.066,5.757-9.909.657c-.66,1.535-1.3,3.046-1.906,4.558,1.45-.059,2.9-.161,4.322-.3ZM266.89-27.282c-.233-.882-.454-1.782-.663-2.69l-2.958.832.449.3L262-27.905l.406.294-5.066,5.757-9.908.657c-.648,1.506-1.292,3.028-1.905,4.558,1.45-.059,2.895-.161,4.32-.3l8.971-.9L254.827-13.1l1.11.113-.556,2.224.168.182-.257.171-.25,1C259.127-14.956,263.1-20.95,266.89-27.282Z" transform="translate(-46.595 67.94)" fill="#423fbf"/>
          <path id="Path_7580_-_Outline-2" data-name="Path 7580 - Outline" d="M132.967-32.308l-3.2,4.291-.192-2.434-1.665.769a72.262,72.262,0,0,0-3.907,7.3c-1.857,3.779-3.587,7.621-5.252,11.464C114.714-1.631,110.231,9,107.477,18.735l3.33.576-.576,2.946c2.626.256,5.316.384,7.942.384A44.917,44.917,0,0,0,130.6,21.169l1.665-2.178-2.37-.448a9.314,9.314,0,0,1,2.5-2.754l-3.074-.512,1.345-1.153-1.729-.512,1.793-1.537a55.776,55.776,0,0,1-6.533.32h-2.37c3.074-8.646,6.533-17.164,10.119-25.554,2.5-5.828,4.931-11.72,7.878-17.356l-.9-1.345a18.283,18.283,0,0,0-4.035,3.651l-.256-2.178-1.665,1.345v-3.266m153.836.192a10.96,10.96,0,0,0-1.921,4.419l-1.921-2.818-1.153.833c.64,8.518,1.985,19.278,4.355,27.539a225.871,225.871,0,0,1-14.538,21.775l1.665-.064V21.3l3.138-3.074v2.049l1.857-1.089.128.961,2.818-2.178-.7,3.971.7,1.345C293.72,8.616,306.849-13.223,314.15-31.284l-2.562,1.089-.576-1.6-3.651,4.227-.256-2.562-1.281,1.089-.448-2.242-1.665,1.153-1.217-.576A83.932,83.932,0,0,1,294.36-14.44a79.793,79.793,0,0,1-2.434-16.524l-1.089,1.025-1.153-1.345-1.217,2.562L286.8-32.116m79.48.32a139.991,139.991,0,0,0-20.046,1.409l.576,1.857,2.242,1.089-4.483,1.089,1.409,1.345-.32,1.345,2.562.576-2.434,2.434a64.991,64.991,0,0,1,9.351-.769c.769,0,1.537,0,2.306.064-2.882,4.355-5.828,8.71-9.03,12.873-4.163,5.444-8.39,10.824-12.745,16.139-2.434,2.946-4.867,6.02-7.429,8.838l1.6.192-.448,1.665,2.562-.576-.32,2.69a75.954,75.954,0,0,0,13.193,1.153,42.121,42.121,0,0,0,11.656-1.409l1.665-1.921-3.715-.9-.769-1.217,2.946-1.409-2.754-.64,1.473-1.473-1.089-.384,1.409-1.473a62.589,62.589,0,0,1-6.917.384,18.919,18.919,0,0,1-2.69-.128,202.1,202.1,0,0,0,27.475-39l-2.306-.192.512-1.729L369.165-30l1.089-1.729c-1.345-.064-2.626-.064-3.971-.064M157.3-31.668l-3.2,3.779-.576-1.857-1.345.833c-3.587,5.956-6.725,14.41-9.222,20.943-1.857,4.867-3.651,9.8-5.252,14.73-1.217,3.715-2.434,7.493-3.33,11.336l1.345,1.729,2.882-3.587-.192,4.931a9.808,9.808,0,0,0,2.946-3.33l.128,2.946,1.409-1.345.256,2.69,1.985-.512C147.825,11.947,151.412,2.4,155-6.947c3.01-7.749,5.956-15.627,9.607-23.12l-.9-1.345c-1.281.64-3.33,3.33-4.1,4.483l-.32-2.626L157.5-27.889l-.192-3.779m68.4.128L222.758-27.7l-.256-2.113-1.6,1.473-1.089-1.089A206.267,206.267,0,0,0,211.166-4.9l-.128.064-1.921-25.362-2.178,2.69-.961-1.473-2.242,3.651-.32-6.084L199.7-26.993l-1.025-2.049c-3.843,6.661-6.853,14.474-9.543,21.647a270.962,270.962,0,0,0-9.222,28.052l2.113-1.089.512,1.6,2.37-3.2.64,3.2,1.537-1.345.833,1.089,1.6-2.946.448,2.946,1.217-.769a114.417,114.417,0,0,1,3.651-11.208c1.857-5.252,3.843-10.439,5.892-15.563l.256-.064a188.575,188.575,0,0,0,2.69,26.835l1.793-.833,1.153-2.5.769,3.266,1.089-1.281.833,1.6,1.537-1.921.9.961.9-1.473,1.089,2.946c3.522-11.08,6.981-22.224,10.7-33.239,1.089-3.33,2.242-6.6,3.458-9.863,1.025-2.754,2.049-5.572,3.33-8.2l-3.394,1.921-.256-2.178-1.345,1.281L225.7-31.54m-126.361.256A176.213,176.213,0,0,0,84.293-9.444a224.915,224.915,0,0,0-15.5,29.653l3.138-1.345v1.857l3.651-4.035.32,2.434,1.409-1.345.256,2.434L79.3,19.12h1.409c1.217-2.242,2.434-4.547,3.651-6.789,1.537-.128,3.074-.256,4.611-.512a39.241,39.241,0,0,1,5.508-.7,14.571,14.571,0,0,1,1.665.128c-.064,1.729-.128,3.394-.128,5.124,0,.9,0,1.857.064,2.754l2.178,1.665,1.153-2.946.9,3.715,1.665-2.242.576-2.049,1.089,2.754.961-1.6,1.025,2.562,1.729-1.025c.128-16.524,2.178-32.983,3.587-49.379l-1.345-.961-2.178,2.626-.512-1.921-1.985,1.857-.7-2.946-2.946,3.522-.833-3.074-1.089-.961M96.782,1.635c-2.37-.256-4.547.64-6.853.7,3.01-5.252,5.38-10.7,9.094-15.563h.128a97,97,0,0,0-2.37,14.858m92.545-32.663a98.432,98.432,0,0,0-19.406,1.6l.576,1.857,2.242,1.089-4.483,1.089,1.409,1.345-.32,1.345,2.562.512L169.921-21.1a79.02,79.02,0,0,0-5.636,11.144,200.779,200.779,0,0,0-10.375,28.18,9.054,9.054,0,0,1,2.882.7,15.375,15.375,0,0,0-.768,2.434,70.079,70.079,0,0,0,9.671.64,44.013,44.013,0,0,0,11.912-1.473l1.665-1.921-3.715-.64c.833-.576,2.626-2.113,2.882-3.138l-3.138-.32,1.729-1.153-.769-.833,1.025-1.217c-2.562.256-5.188.384-7.749.384a12.428,12.428,0,0,1-2.178-.128c1.345-3.971,3.01-7.813,4.675-11.656l10.631-.7,1.409-1.6-1.857-1.345,1.537-.833-1.985-1.345,4.1-1.153-3.2-1.281L184.331-9.7l-1.409-1.089-5.956-.384c1.409-3.138,3.138-6.212,4.419-9.415a31.647,31.647,0,0,1,9.479-1.281l.833-1.857-1.089-1.665,2.562-.961-2.818-1.153,1.217-1.217-.961-.7.833-1.6h-2.113m88.254,0a98.432,98.432,0,0,0-19.406,1.6l.576,1.857,2.242,1.089-4.483,1.089,1.409,1.345L257.6-22.7l2.562.512L258.175-21.1a79.03,79.03,0,0,0-5.636,11.144,200.78,200.78,0,0,0-10.375,28.18,9.054,9.054,0,0,1,2.882.7,15.38,15.38,0,0,0-.769,2.434,70.079,70.079,0,0,0,9.671.64,44.014,44.014,0,0,0,11.912-1.473l1.665-1.921-3.715-.64c.833-.576,2.626-2.113,2.882-3.138l-3.138-.32,1.729-1.153-.768-.833,1.025-1.217c-2.562.256-5.188.384-7.749.384a12.427,12.427,0,0,1-2.178-.128c1.345-3.971,3.01-7.813,4.675-11.656L270.92-.8l1.409-1.6-1.857-1.345,1.537-.833-1.985-1.345,4.1-1.153-3.2-1.281L272.585-9.7l-1.409-1.089-5.956-.384c1.409-3.138,3.138-6.212,4.419-9.415a31.646,31.646,0,0,1,9.479-1.281l.833-1.857-1.089-1.665,2.562-.961-2.818-1.153,1.217-1.217-.961-.7.833-1.6H277.58m59.049,0a98.432,98.432,0,0,0-19.406,1.6l.576,1.857,2.242,1.089-4.483,1.089,1.409,1.345-.32,1.345,2.562.512L317.224-21.1a79.011,79.011,0,0,0-5.636,11.144,200.769,200.769,0,0,0-10.375,28.18,9.054,9.054,0,0,1,2.882.7,15.378,15.378,0,0,0-.769,2.434A70.08,70.08,0,0,0,313,22a44.014,44.014,0,0,0,11.912-1.473l1.665-1.921-3.715-.64c.833-.576,2.626-2.113,2.882-3.138l-3.138-.32,1.729-1.153-.768-.833,1.025-1.217c-2.562.256-5.188.384-7.749.384a12.427,12.427,0,0,1-2.177-.128c1.345-3.971,3.01-7.813,4.675-11.656l10.631-.7,1.409-1.6-1.857-1.345,1.537-.833-1.985-1.345,4.1-1.153-3.2-1.281L331.634-9.7l-1.409-1.089-5.956-.384c1.409-3.138,3.138-6.212,4.419-9.415a31.646,31.646,0,0,1,9.479-1.281L339-23.726l-1.089-1.665,2.562-.961-2.818-1.153,1.217-1.217-.961-.7.833-1.6H336.63M134.8-37.82v4.948l1.265-1.022.2,1.7a11.384,11.384,0,0,1,1.761-1.258l1.48-.837,2.441,3.661-.5.961c-2.535,4.85-4.733,10-6.858,14.983l-.96,2.246c-3.73,8.725-6.683,16.11-9.2,23a52.249,52.249,0,0,0,6.084-.307l4.306-.507c.367-1.163.752-2.345,1.15-3.562,1.445-4.452,3.124-9.16,5.281-14.813l.471-1.235c2.426-6.359,5.445-14.273,8.893-20l.228-.379,3.731-2.31.289.931,4.036-4.762.228,4.479,1.547-1.437.229,1.875a8.106,8.106,0,0,1,1.99-1.588l1.445-.722,2.375,3.562-.46.943q-.676,1.388-1.324,2.8l3.717-.9-1.071-3.45,1.986-.4a102.182,102.182,0,0,1,19.768-1.637h5.127l-1.5,2.883,1.415,1.038-.779.779,2.048.838q.705-1.34,1.453-2.638l1.7-2.947,1.3,2.6L205-36.14l.255,4.842.677-1.1L207.1-30.61l3.495-4.317,1.561,20.6c1.807-5.451,3.807-10.745,5.976-15.82l1.063-2.488,1.761,1.761,2.936-2.7.146,1.2,2.566-3.347.665,2.828,1.684-1.6.362,3.079,6.128-3.469-2.585,5.3c-1.155,2.367-2.119,4.963-3.051,7.472l-.209.561c-1.277,3.428-2.4,6.632-3.434,9.793C223.27-3.18,220.491,5.606,217.8,14.1l-2.333,7.365-1.614,5.076-1.623-4.393-.184.3-1.1-1.177-1.97,2.463-.874-1.68-1.672,1.967-.667-2.836L202.3,22.8l-.425-2.328a171.606,171.606,0,0,1-2.306-19.1c-1.079,2.834-2.076,5.545-3.007,8.179l-.8,2.238a84.149,84.149,0,0,0-2.8,8.782l-.172.726-4.213,2.661-.051-.333-.35.645-1.359-1.777-2.445,2.14-.451-2.254-2.039,2.755-.942-2.944-3.816,1.966.44-1.713a46.541,46.541,0,0,1-11.872,1.394,71.938,71.938,0,0,1-9.924-.658l-1.979-.277.449-1.947q.1-.417.208-.82a6.291,6.291,0,0,0-.661-.081l-2.234-.149.59-2.159A199.213,199.213,0,0,1,162.612-10.7a88.866,88.866,0,0,1,5.177-10.448l-.664-.133.516-2.169L164.79-26.17c-2.568,5.618-4.828,11.464-7.025,17.146L156.7-6.284c-3.658,9.538-7.164,18.893-9.806,28.392l-.283,1.018-5.084,1.312-.1-1.07-1.6,1.525-.1-2.412q-.151.111-.3.211l-2.983,1.989.116-2.978-.861,1.072-2.029-2.609-1.983,2.593-.578.168a45.833,45.833,0,0,1-12.935,1.546c-2.715,0-5.447-.132-8.119-.393l-2-.2.491-2.51-3.825,2.267-.448-1.121-.97,1.617-.914-2.312-2.939,3.957-.528-2.189-4.6-3.52-.059-.822c-.067-.939-.069-1.945-.069-2.884,0-1.156.028-2.283.066-3.419a23.524,23.524,0,0,0-3.408.422c-.542.093-1.081.186-1.614.262-1.238.207-2.5.333-3.731.441-.45.834-.9,1.675-1.35,2.516-.61,1.141-1.221,2.281-1.831,3.406l-.519.957h-1.97l-3.769,2.373-.174-1.653-1.323,1.263-.274-2.084L70.1,25.471V21.638L65.36,23.671,67.106,19.5A226.07,226.07,0,0,1,82.729-10.4,177.759,177.759,0,0,1,97.941-32.459L99.147-33.9l2.908,2.566.059.216,3.03-3.623.82,3.428,1.918-1.795.386,1.448,1-1.207,3.579,2.557-.089,1.039c-.349,4.066-.738,8.135-1.127,12.208-.735,7.691-1.485,15.548-1.96,23.416,2.319-6.2,4.953-12.37,7.4-18,1.958-4.518,3.638-8.186,5.288-11.542a73.989,73.989,0,0,1,4.007-7.479l.289-.452,4.536-2.094.016.2Zm52.75,29.446c2.146-5.716,4.31-11.295,6.844-16.482l-1,.376.386.59-1.726,3.851h-1.185a30.993,30.993,0,0,0-8.12.957c-.711,1.676-1.521,3.312-2.307,4.9q-.335.677-.667,1.353l3.829.247,3.684,2.847-1.037.838ZM186.3-5.06l.1-.265-.346.1ZM95.119-.213c.143-1.418.3-2.782.486-4.1-.462.853-.919,1.717-1.383,2.594q-.46.87-.924,1.74A17.981,17.981,0,0,1,95.119-.213Zm90.6-3.256.041-.111-.111.06Zm-4.34,12.528c1.009-3.146,2.064-6.216,3.12-9.167L183.54.978l-10.271.681c-1.162,2.686-2.332,5.432-3.363,8.2,2.409-.012,4.829-.137,7.2-.374Zm-1.273,4.1q.563-1.878,1.154-3.728L178.7,12.467l.559.606Zm-46.317-.017q.248-.857.511-1.719l-1.622,1.39ZM287.235-35.389l1.206,2.459.8-1.683,1.739,2.028,2.572-2.421.2,3.949a93.451,93.451,0,0,0,1.363,11.833,79.706,79.706,0,0,0,5.657-12.109l.687-1.889,2.078.984,3.086-2.136.385,1.923,1.57-1.335.18,1.8,2.915-3.375.981,2.725L317.5-34.7l-1.474,3.645.832-.168a102.181,102.181,0,0,1,19.768-1.637h5.128l-1.5,2.883,1.415,1.038-.779.779,1.25.511,2.816-.684-1.1-3.56,2.118-.309a141.478,141.478,0,0,1,20.31-1.428c1.374,0,2.683,0,4.058.066l3.132.149-1.093,1.736,1.763.088-.534,1.8,2.842.237-1.318,2.457A203.245,203.245,0,0,1,349.981,9.335c1.821-.038,3.655-.159,5.468-.36l5.006-.556-2.932,3.065,1.155.408-1.2,1.2,4.627,1.076-4.441,2.124,3.834.925-3.989,4.6-.521.15a43.211,43.211,0,0,1-12.163,1.481,77.968,77.968,0,0,1-13.516-1.181l-1.7-.3.218-1.834-2.675.6-1.222,1.41-.526.149A45.812,45.812,0,0,1,313,23.831a71.938,71.938,0,0,1-9.925-.658l-1.978-.277.449-1.947q.1-.417.208-.82a6.288,6.288,0,0,0-.661-.081l-2.234-.149.59-2.159A199.21,199.21,0,0,1,309.916-10.7a88.851,88.851,0,0,1,5.177-10.448l-.664-.133.516-2.169-1.532-1.462C305.749-7.893,293.836,11.3,282.624,24.469l-1.757,2.063-2.227-4.251-1.622,1.253-.184-1.379L274.6,23.466v-.889l-3.138,3.074V21.469l-3.634.14,2.341-3.084A223.348,223.348,0,0,0,284.189-2.4a130.973,130.973,0,0,1-3.4-18.722l-.486,1.085h-1.185a30.993,30.993,0,0,0-8.12.957c-.711,1.675-1.52,3.312-2.307,4.9q-.335.677-.667,1.354l3.829.247,3.684,2.847-1.037.838,5.306,2.122-5.494,1.545,1.217.825-1.628.882,1.132.819L271.794.978l-10.271.681c-1.162,2.685-2.332,5.431-3.363,8.2,2.409-.012,4.829-.137,7.2-.374l4.485-.449-2.889,3.431.559.605,1.467.15-.512,2.05a4.471,4.471,0,0,1-.768,1.508l3.332.574-4.147,4.785-.526.149a45.812,45.812,0,0,1-12.411,1.542,71.938,71.938,0,0,1-9.924-.658l-1.979-.277.449-1.947q.1-.417.208-.82a6.288,6.288,0,0,0-.661-.081l-2.234-.149.59-2.159A199.211,199.211,0,0,1,250.866-10.7a88.879,88.879,0,0,1,5.177-10.448l-.664-.133.516-2.169-3.071-2.931,4.073-.989-1.071-3.45,1.986-.4a102.182,102.182,0,0,1,19.768-1.637h5.127l-.223.428.928-.67.952,1.4a8.09,8.09,0,0,1,1.061-1.618Zm28.712,8.021-.613-1.977q-.489,1.177-1.007,2.37Zm28.01,2.96-.974-.93-2.29.859.386.59-1.727,3.851h-1.185a30.993,30.993,0,0,0-8.12.957c-.711,1.676-1.521,3.312-2.307,4.9q-.335.677-.667,1.353l3.829.247,3.684,2.847-1.037.838,5.306,2.122-5.494,1.545,1.217.825-1.628.882,1.132.819L330.844.978l-10.271.681c-1.162,2.686-2.332,5.432-3.363,8.2,2.409-.012,4.829-.137,7.2-.374l4.485-.449L326,12.467l.559.606,1.467.15-.264,1.057c1.619-1.837,3.21-3.782,4.756-5.673l1.737-2.116c4.054-4.949,8.211-10.212,12.7-16.085,2.412-3.135,4.656-6.342,7.1-9.983a65.7,65.7,0,0,0-8.009.737l-5.459.8,3.985-3.985-1.127-.254Z" transform="translate(-61.926 43.332)" fill="#0f1015"/>
          <g id="Mask_Group_19" data-name="Mask Group 19" transform="translate(6.867 11.023)" opacity="0.397" clip-path="url(#clip-path-2)">
            <path id="Path_7582" data-name="Path 7582" d="M0-15.784s9.051,5.406,34.658,4.523,38.587-8.058,67.769-8.058,23.545,7.759,48.961,8.058,28.9-6.575,52.7-6.861,24.958,5.445,42.513,5.717,13.655-4.629,27.706-4.629,19.355,4.317,28.5,4.629,8.081-3.378,8.081-3.378V22.094H0Z" transform="translate(-14.845 42.445)" fill="#0ce8ad"/>
          </g>
        </g>
      </g>
    </g>
  </g>
  <g id="Mask_Group_20" data-name="Mask Group 20" transform="translate(0 0)" clip-path="url(#clip-path-3)">
    <g id="Group_3916" data-name="Group 3916" transform="translate(0.012 0)">
      <g id="Group_3914-2" data-name="Group 3914" transform="translate(0 0)">
        <g id="Group_3910-2" data-name="Group 3910">
          <path id="Path_7580-2" data-name="Path 7580" d="M114.482,11.385a97,97,0,0,0-2.37,14.858c-2.37-.256-4.547.64-6.853.7,3.01-5.252,5.38-10.7,9.094-15.563ZM124.922-5.779l-2.178,2.626-.512-1.921-1.985,1.857-.7-2.946L116.6-2.64l-.833-3.074-1.089-.961A176.215,176.215,0,0,0,99.624,15.164a224.912,224.912,0,0,0-15.5,29.653l3.138-1.345v1.857l3.651-4.035.32,2.434,1.409-1.345.256,2.434,1.729-1.089h1.409c1.217-2.242,2.434-4.547,3.651-6.789,1.537-.128,3.074-.256,4.611-.512a39.241,39.241,0,0,1,5.508-.7,14.57,14.57,0,0,1,1.665.128c-.064,1.729-.128,3.394-.128,5.124,0,.9,0,1.857.064,2.754l2.178,1.665,1.153-2.946.9,3.715L117.3,43.92l.576-2.049,1.089,2.754.961-1.6,1.025,2.562,1.729-1.025c.128-16.524,2.178-32.983,3.587-49.379Zm29.333-1.473A18.284,18.284,0,0,0,150.219-3.6l-.256-2.178L148.3-4.434V-7.7l-3.2,4.291L144.9-5.843l-1.665.769a72.269,72.269,0,0,0-3.907,7.3c-1.857,3.779-3.587,7.621-5.252,11.464-4.035,9.287-8.518,19.918-11.272,29.653l3.33.576-.576,2.946c2.626.256,5.316.384,7.942.384a44.917,44.917,0,0,0,12.425-1.473l1.665-2.178-2.37-.448a9.313,9.313,0,0,1,2.5-2.754l-3.074-.512,1.345-1.153-1.729-.512,1.793-1.537a55.774,55.774,0,0,1-6.533.32h-2.37c3.074-8.646,6.533-17.164,10.119-25.554,2.5-5.828,4.931-11.72,7.878-17.356ZM179.04-6.8c-1.281.64-3.33,3.33-4.1,4.483l-.32-2.626-1.793,1.665-.192-3.779-3.2,3.779-.576-1.857-1.345.833c-3.587,5.956-6.725,14.41-9.222,20.943-1.857,4.867-3.651,9.8-5.252,14.73-1.217,3.715-2.434,7.493-3.33,11.336l1.345,1.729,2.882-3.587-.192,4.931a9.808,9.808,0,0,0,2.946-3.33l.128,2.946,1.409-1.345.256,2.69,1.985-.512c2.69-9.671,6.276-19.213,9.863-28.564,3.01-7.749,5.956-15.627,9.607-23.12ZM205.682-2.9,206.9-4.113l-.961-.7.833-1.6h-2.113a98.432,98.432,0,0,0-19.406,1.6l.576,1.857,2.242,1.089L183.587-.783,185,.562l-.32,1.345,2.562.512-1.985,1.089a79.021,79.021,0,0,0-5.636,11.144,200.773,200.773,0,0,0-10.375,28.18,9.054,9.054,0,0,1,2.882.7,15.377,15.377,0,0,0-.769,2.434,70.078,70.078,0,0,0,9.671.64,44.013,44.013,0,0,0,11.912-1.473l1.665-1.921-3.715-.64c.833-.576,2.626-2.113,2.882-3.138l-3.138-.32,1.729-1.153-.769-.833,1.025-1.217c-2.562.256-5.188.384-7.749.384a12.428,12.428,0,0,1-2.178-.128c1.345-3.971,3.01-7.813,4.675-11.656L198,23.81l1.409-1.6-1.857-1.345,1.537-.833L197.1,18.687l4.1-1.153L198,16.253l1.665-1.345-1.409-1.089-5.956-.384c1.409-3.138,3.138-6.212,4.419-9.415a31.647,31.647,0,0,1,9.479-1.281l.833-1.857L205.938-.783l2.562-.961Zm37.466-.961-.256-2.178-1.345,1.281-.512-2.178-2.946,3.843L237.833-5.2l-1.6,1.473-1.089-1.089A206.281,206.281,0,0,0,226.5,19.711l-.128.064L224.447-5.587,222.27-2.9l-.961-1.473L219.068-.719l-.32-6.084-3.715,4.419-1.025-2.049c-3.843,6.661-6.853,14.474-9.543,21.647a270.958,270.958,0,0,0-9.223,28.052l2.114-1.089.512,1.6,2.37-3.2.64,3.2,1.537-1.345.833,1.089,1.6-2.946.448,2.946,1.217-.769a114.416,114.416,0,0,1,3.651-11.208c1.857-5.252,3.843-10.439,5.892-15.563l.256-.064A188.575,188.575,0,0,0,219,44.753l1.793-.833,1.153-2.5.769,3.266,1.089-1.281.833,1.6,1.537-1.921.9.961.9-1.473,1.089,2.946c3.522-11.08,6.981-22.224,10.7-33.239,1.089-3.33,2.242-6.6,3.458-9.863,1.025-2.754,2.049-5.572,3.33-8.2Zm50.788.961,1.217-1.217-.961-.7.833-1.6h-2.113a98.432,98.432,0,0,0-19.406,1.6l.576,1.857,2.242,1.089L271.841-.783,273.25.562l-.32,1.345,2.562.512-1.985,1.089a79.014,79.014,0,0,0-5.636,11.144,200.765,200.765,0,0,0-10.375,28.18,9.054,9.054,0,0,1,2.882.7,15.381,15.381,0,0,0-.769,2.434,70.078,70.078,0,0,0,9.671.64,44.013,44.013,0,0,0,11.912-1.473l1.665-1.921-3.715-.64c.833-.576,2.626-2.113,2.882-3.138l-3.138-.32,1.729-1.153-.769-.833,1.025-1.217c-2.562.256-5.188.384-7.749.384a12.428,12.428,0,0,1-2.178-.128c1.345-3.971,3.01-7.813,4.675-11.656l10.631-.7,1.409-1.6L285.8,20.864l1.537-.833-1.985-1.345,4.1-1.153-3.2-1.281,1.665-1.345-1.409-1.089-5.956-.384c1.409-3.138,3.138-6.212,4.419-9.415a31.647,31.647,0,0,1,9.479-1.281l.833-1.857L294.192-.783l2.562-.961Zm32.983-2.69-.576-1.6-3.651,4.227-.256-2.562-1.281,1.089-.448-2.242-1.665,1.153L317.825-6.1a83.932,83.932,0,0,1-8.134,16.267,79.791,79.791,0,0,1-2.434-16.524L306.169-5.33l-1.153-1.345L303.8-4.113l-1.665-3.394a10.959,10.959,0,0,0-1.921,4.419l-1.921-2.818-1.153.833c.64,8.518,1.985,19.278,4.355,27.539A225.877,225.877,0,0,1,286.955,44.24l1.665-.064v1.729l3.138-3.074v2.049l1.857-1.089.128.961,2.818-2.178-.7,3.971.7,1.345c12.489-14.666,25.618-36.506,32.919-54.566ZM352.986-2.9,354.2-4.113l-.961-.7.833-1.6h-2.113a98.432,98.432,0,0,0-19.406,1.6l.576,1.857,2.242,1.089L330.89-.783,332.3.562l-.32,1.345,2.562.512-1.985,1.089a79.014,79.014,0,0,0-5.636,11.144,200.765,200.765,0,0,0-10.375,28.18,9.054,9.054,0,0,1,2.882.7,15.381,15.381,0,0,0-.769,2.434,70.078,70.078,0,0,0,9.671.64,44.013,44.013,0,0,0,11.912-1.473l1.665-1.921-3.715-.64c.833-.576,2.626-2.113,2.882-3.138l-3.138-.32,1.729-1.153-.768-.833,1.025-1.217c-2.562.256-5.188.384-7.749.384a12.428,12.428,0,0,1-2.178-.128c1.345-3.971,3.01-7.813,4.675-11.656l10.632-.7,1.409-1.6-1.857-1.345,1.537-.833L344.4,18.687l4.1-1.153-3.2-1.281,1.665-1.345-1.409-1.089-5.956-.384c1.409-3.138,3.138-6.212,4.419-9.415A31.647,31.647,0,0,1,353.5,2.739l.833-1.857L353.242-.783l2.562-.961Zm33.56-.64.512-1.729L384.5-5.394l1.089-1.729c-1.345-.064-2.626-.064-3.971-.064a139.991,139.991,0,0,0-20.046,1.409l.576,1.857,2.242,1.089L359.9-1.744,361.311-.4l-.32,1.345,2.562.576-2.434,2.434a64.99,64.99,0,0,1,9.351-.769c.769,0,1.537,0,2.306.064-2.882,4.355-5.828,8.71-9.03,12.873-4.163,5.444-8.39,10.824-12.745,16.139-2.434,2.946-4.867,6.02-7.429,8.838l1.6.192-.448,1.665,2.562-.576-.32,2.69a75.955,75.955,0,0,0,13.193,1.153,42.121,42.121,0,0,0,11.656-1.409L373.48,42.9l-3.715-.9L369,40.782l2.946-1.409-2.754-.64,1.473-1.473-1.089-.384,1.409-1.473a62.588,62.588,0,0,1-6.917.384,18.917,18.917,0,0,1-2.69-.128,202.11,202.11,0,0,0,27.475-39Z" transform="translate(-77.258 18.723)" fill="#edfd27"/>
          <path id="Path_7580_-_Outline-3" data-name="Path 7580 - Outline" d="M117.636-56.917l-3.2,4.291-.192-2.434-1.665.769a72.266,72.266,0,0,0-3.907,7.3c-1.857,3.779-3.587,7.621-5.252,11.464C99.383-26.239,94.9-15.608,92.146-5.873l3.33.576L94.9-2.351c2.626.256,5.316.384,7.942.384a44.916,44.916,0,0,0,12.425-1.473l1.665-2.178-2.37-.448a9.314,9.314,0,0,1,2.5-2.754l-3.074-.512,1.345-1.153L113.6-11l1.793-1.537a55.776,55.776,0,0,1-6.533.32h-2.37c3.074-8.646,6.533-17.164,10.119-25.554,2.5-5.828,4.931-11.72,7.877-17.356l-.9-1.345a18.283,18.283,0,0,0-4.035,3.651L119.3-55l-1.665,1.345v-3.266m153.836.192a10.959,10.959,0,0,0-1.921,4.419l-1.921-2.818-1.153.833c.64,8.518,1.985,19.278,4.355,27.539A225.878,225.878,0,0,1,256.293-4.977l1.665-.064v1.729L261.1-6.386v2.049l1.857-1.089.128.961L265.9-6.642l-.7,3.971.7,1.345c12.489-14.666,25.618-36.506,32.919-54.566L296.257-54.8l-.576-1.6-3.651,4.227-.256-2.562-1.281,1.089-.448-2.242-1.665,1.153-1.217-.576a83.932,83.932,0,0,1-8.134,16.267A79.8,79.8,0,0,1,276.6-55.572l-1.089,1.025-1.153-1.345-1.217,2.562-1.665-3.394m79.48.32A139.99,139.99,0,0,0,330.905-55l.576,1.857,2.242,1.089-4.483,1.089,1.409,1.345-.32,1.345,2.562.576-2.434,2.434a64.992,64.992,0,0,1,9.351-.769c.769,0,1.537,0,2.306.064-2.882,4.355-5.828,8.71-9.03,12.873-4.163,5.444-8.39,10.824-12.745,16.139-2.434,2.946-4.867,6.02-7.429,8.838l1.6.192-.448,1.665,2.562-.576-.32,2.69A75.955,75.955,0,0,0,329.5-2.991,42.122,42.122,0,0,0,341.152-4.4l1.665-1.921-3.715-.9-.769-1.217,2.946-1.409-2.754-.64L340-11.957l-1.089-.384,1.409-1.473a62.591,62.591,0,0,1-6.917.384,18.917,18.917,0,0,1-2.69-.128,202.106,202.106,0,0,0,27.475-39l-2.306-.192.512-1.729-2.562-.128,1.089-1.729c-1.345-.064-2.626-.064-3.971-.064m-208.979.128-3.2,3.779-.576-1.857-1.345.833c-3.587,5.956-6.725,14.41-9.222,20.943-1.857,4.867-3.651,9.8-5.252,14.73-1.217,3.715-2.434,7.493-3.33,11.336l1.345,1.729,2.882-3.587-.192,4.931a9.808,9.808,0,0,0,2.946-3.33l.128,2.946,1.409-1.345.256,2.69,1.985-.512c2.69-9.671,6.276-19.213,9.863-28.564,3.01-7.749,5.956-15.627,9.607-23.12l-.9-1.345c-1.281.64-3.33,3.33-4.1,4.483l-.32-2.626L142.165-52.5l-.192-3.779m68.4.128-2.946,3.843-.256-2.113-1.6,1.473-1.089-1.089a206.273,206.273,0,0,0-8.646,24.529l-.128.064L193.785-54.8l-2.178,2.69-.961-1.473-2.242,3.651-.32-6.084L184.37-51.6l-1.025-2.049C179.5-46.99,176.493-39.177,173.8-32a270.972,270.972,0,0,0-9.222,28.052l2.113-1.089.512,1.6,2.37-3.2.64,3.2,1.537-1.345.833,1.089,1.6-2.946.448,2.946,1.217-.769A114.421,114.421,0,0,1,179.5-15.672c1.857-5.252,3.843-10.439,5.892-15.563l.256-.064a188.577,188.577,0,0,0,2.69,26.835l1.793-.833,1.153-2.5.769,3.266,1.089-1.281.833,1.6,1.537-1.921.9.961.9-1.473L198.4-3.7c3.522-11.08,6.981-22.224,10.7-33.239,1.089-3.33,2.242-6.6,3.458-9.863,1.025-2.754,2.049-5.572,3.33-8.2l-3.394,1.921-.256-2.178-1.345,1.281-.512-2.178m-126.361.256A176.213,176.213,0,0,0,68.962-34.053,224.914,224.914,0,0,0,53.463-4.4L56.6-5.745v1.857l3.651-4.035.32,2.434,1.409-1.345L62.237-4.4l1.729-1.089h1.409c1.217-2.242,2.434-4.547,3.651-6.789,1.537-.128,3.074-.256,4.611-.512a39.242,39.242,0,0,1,5.508-.7,14.573,14.573,0,0,1,1.665.128c-.064,1.729-.128,3.394-.128,5.124,0,.9,0,1.857.064,2.754l2.178,1.665L84.076-6.77l.9,3.715L86.638-5.3l.576-2.049L88.3-4.592l.961-1.6,1.025,2.562,1.729-1.025C92.146-21.18,94.2-37.639,95.6-54.035L94.259-55,92.082-52.37l-.512-1.921-1.985,1.857-.7-2.946-2.946,3.522L85.1-54.932l-1.089-.961M81.45-22.973c-2.37-.256-4.547.64-6.853.7,3.01-5.252,5.38-10.7,9.094-15.563h.128a97,97,0,0,0-2.37,14.858M174-55.636a98.433,98.433,0,0,0-19.406,1.6l.576,1.857,2.242,1.089L152.924-50l1.409,1.345-.32,1.345,2.562.512-1.985,1.089a79.021,79.021,0,0,0-5.636,11.144,200.777,200.777,0,0,0-10.375,28.18,9.053,9.053,0,0,1,2.882.7,15.379,15.379,0,0,0-.768,2.434,70.08,70.08,0,0,0,9.671.64A44.013,44.013,0,0,0,162.275-4.08L163.94-6l-3.715-.64c.833-.576,2.626-2.113,2.882-3.138l-3.138-.32,1.729-1.153-.769-.833,1.025-1.217c-2.562.256-5.188.384-7.749.384a12.428,12.428,0,0,1-2.178-.128c1.345-3.971,3.01-7.813,4.675-11.656l10.631-.7,1.409-1.6-1.857-1.345,1.537-.833-1.985-1.345,4.1-1.153-3.2-1.281L169-34.309,167.591-35.4l-5.956-.384c1.409-3.138,3.138-6.212,4.419-9.415a31.647,31.647,0,0,1,9.479-1.281l.833-1.857L175.276-50l2.562-.961-2.818-1.153,1.217-1.217-.961-.7.833-1.6H174m88.254,0a98.432,98.432,0,0,0-19.406,1.6l.576,1.857,2.242,1.089L241.178-50l1.409,1.345-.32,1.345,2.562.512-1.985,1.089a79.019,79.019,0,0,0-5.636,11.144,200.781,200.781,0,0,0-10.375,28.18,9.054,9.054,0,0,1,2.882.7,15.376,15.376,0,0,0-.769,2.434,70.08,70.08,0,0,0,9.671.64A44.013,44.013,0,0,0,250.529-4.08L252.194-6l-3.715-.64c.833-.576,2.626-2.113,2.882-3.138l-3.138-.32,1.729-1.153-.769-.833,1.025-1.217c-2.562.256-5.188.384-7.749.384a12.428,12.428,0,0,1-2.178-.128c1.345-3.971,3.01-7.813,4.675-11.656l10.631-.7,1.409-1.6-1.857-1.345,1.537-.833-1.985-1.345,4.1-1.153-3.2-1.281,1.665-1.345L255.845-35.4l-5.956-.384c1.409-3.138,3.138-6.212,4.419-9.415a31.646,31.646,0,0,1,9.479-1.281l.833-1.857L263.53-50l2.562-.961-2.818-1.153,1.217-1.217-.961-.7.833-1.6h-2.113m59.049,0a98.432,98.432,0,0,0-19.406,1.6l.576,1.857,2.242,1.089L300.228-50l1.409,1.345-.32,1.345,2.562.512-1.985,1.089a79.014,79.014,0,0,0-5.636,11.144,200.765,200.765,0,0,0-10.375,28.18,9.054,9.054,0,0,1,2.882.7A15.382,15.382,0,0,0,288-3.247a70.08,70.08,0,0,0,9.671.64A44.013,44.013,0,0,0,309.578-4.08L311.243-6l-3.715-.64c.833-.576,2.626-2.113,2.882-3.138l-3.138-.32L309-11.253l-.768-.833,1.025-1.217c-2.562.256-5.188.384-7.749.384a12.427,12.427,0,0,1-2.178-.128c1.345-3.971,3.01-7.813,4.675-11.656l10.631-.7,1.409-1.6-1.857-1.345,1.537-.833-1.985-1.345,4.1-1.153-3.2-1.281,1.665-1.345L314.894-35.4l-5.956-.384c1.409-3.138,3.138-6.212,4.419-9.415a31.647,31.647,0,0,1,9.479-1.281l.833-1.857L322.579-50l2.562-.961-2.818-1.153,1.217-1.217-.961-.7.833-1.6H321.3m-200-12.3v6.629l.865-.7L122.4-60l2.354-1.33,3.985,5.978-1,1.921c-2.5,4.786-4.685,9.9-6.8,14.854l-.961,2.249c-3.267,7.643-5.936,14.252-8.234,20.4,1.182-.047,2.228-.127,3.226-.244l3.134-.369q.392-1.222.8-2.452c1.454-4.477,3.142-9.213,5.31-14.9l.471-1.234c2.452-6.427,5.5-14.425,9.035-20.291l.456-.758,6.118-3.787v0l4.869-5.745.263,5.18,1.3-1.208.28,2.3,2.627-1.313,2.334,3.5,1.9-.384A103.918,103.918,0,0,1,174-59.3h8.141l-2.166,4.165,0,0,.2-.352,3.4-5.894,1.577,3.154,6.1-7.256.35,6.655.324.5,4.812-5.944,1.254,16.557q1.5-3.955,3.123-7.762l2.127-4.976,2.433,2.433,4.27-3.928.036.293,2.186-2.852.818,3.478,2.024-1.928.468,3.98,8.862-5.016-5.17,10.6c-1.115,2.286-2.064,4.839-2.981,7.307l-.209.562c-1.269,3.406-2.384,6.586-3.41,9.724-2.892,8.578-5.668,17.355-8.352,25.844l-2.334,7.367L198.656,7.566,195.683-.481l-2.359,2.949-.915-1.76-2.256,2.654L189.17-.814,185.59.848l-.849-4.655c-.646-3.538-1.181-7.24-1.61-11.147l-.178.5-.8,2.246a82.81,82.81,0,0,0-2.74,8.586l-.345,1.452L174.275.86l-1.168,2.15-.728-.952-.52.328-.191-1.258-.447-.584-3.353,2.934-.261-1.306L165.9,4.481,164.526.193l-5.518,2.843L159.72.262a52.148,52.148,0,0,1-9.358.791A73.768,73.768,0,0,1,140.184.377l-3.957-.554.613-2.657-2.973-.2,1.18-4.319q.573-2.1,1.223-4.229c-1.062,3.185-2.051,6.37-2.941,9.569L132.764.025l-7.321,1.889-2.6,2.477-.138-3.185-3.566,2.377.149-3.818-.943-1.212L117.442-.26l-1.156.336a47.578,47.578,0,0,1-13.445,1.618c-2.774,0-5.566-.135-8.3-.4L90.535.9l.094-.479-1.653.98L87.626,3.649,86.558.948,83.249,5.4,81.956.044,77.213-3.583,77.1-5.228c-.07-.982-.073-2.033-.073-3.015,0-.469,0-.933.012-1.4-.4.061-.8.13-1.215.2-.56.1-1.115.191-1.665.27-.941.157-1.9.27-2.844.362q-.441.821-.882,1.647c-.612,1.144-1.224,2.288-1.837,3.416L67.552-1.829h-2.53l-5.81,3.658L59.121.956,57.884,2.136,57.655.4,52.941,5.612V-.195L46.6,2.525l3.492-8.338A227.852,227.852,0,0,1,65.835-35.954,179.372,179.372,0,0,1,81.207-58.243l2.411-2.877,3.044,2.686,4.082-4.881.935,3.909,1.852-1.732.37,1.389L99.429-55.8l-.179,2.079c-.35,4.071-.739,8.147-1.129,12.226-.364,3.808-.731,7.656-1.067,11.525,1.011-2.4,2.024-4.752,3.007-7.014,1.969-4.544,3.661-8.237,5.324-11.62a75.309,75.309,0,0,1,4.107-7.657l.577-.9,4.858-2.242Zm28.991,20.481-.215-.206c-2.122,4.844-4.05,9.828-5.931,14.693l-1.062,2.742-.207.541q1.284-3.085,2.737-6.36c1.174-2.663,2.462-5.587,4-8.411l-.03-.006Zm21.431,10.625c.77-2.011,1.551-4,2.359-5.958a28.726,28.726,0,0,0-5.345.656c-.462,1.038-.95,2.054-1.44,3.052l1.652.107Zm-7.045,19.582q.728-2.234,1.479-4.409l-6.977.462c-.661,1.535-1.3,3.046-1.907,4.558,1.45-.059,2.9-.161,4.322-.3Zm115.173-46.4.405,7.9c.094,1.827.264,3.956.518,6.143a73.684,73.684,0,0,0,2.955-6.95l1.374-3.777,2.938,1.392,4.506-3.12.321,1.6,1.859-1.58.1,1.035L297-63.535l1.386,3.849,7.137-3.033-1.878,4.644A110.6,110.6,0,0,1,321.3-59.3h8.142l-.459.882,1.4-.2a143.309,143.309,0,0,1,20.573-1.447c1.4,0,2.741,0,4.145.068l6.264.3-1.1,1.744.963.048-.557,1.878,3.379.282-2.636,4.914a203.7,203.7,0,0,1-22.627,33.494q.566-.052,1.129-.114l10.012-1.112-4.455,4.658,1.221.431-.919.919,6.5,1.512-4.5,2.154,1.751.423-6.313,7.284-1.042.3A44.967,44.967,0,0,1,329.5.669a79.833,79.833,0,0,1-13.838-1.21l-3.4-.608.06-.507-.694.8-1.052.3a47.625,47.625,0,0,1-12.91,1.612A73.769,73.769,0,0,1,287.488.377l-3.957-.554.613-2.657-2.973-.2,1.18-4.319a188.3,188.3,0,0,1,8.52-24,214.949,214.949,0,0,1-22.186,32.4l-3.514,4.126L262.7.455l-2.408,1.86-.24-1.8-1.928,1.13L254.3,5.4V-1.237l-1.438.055-.282.325-1.052.3a47.625,47.625,0,0,1-12.91,1.612A73.769,73.769,0,0,1,228.438.377l-3.957-.554.613-2.657-2.973-.2L223.3-7.35a200.975,200.975,0,0,1,10.56-28.7c1.174-2.663,2.462-5.587,4-8.411l-.03-.006.713-2.993-4.733-4.517,5.433-1.319-1.094-3.524,3.971-.8a103.916,103.916,0,0,1,20.13-1.674h4.906l1.379-1,.524.768,3.278-3.747.747,1.523.382-.8,2.325,2.712Zm-15.87,20.839h-.189a30.682,30.682,0,0,0-6.8.682c-.462,1.038-.95,2.054-1.44,3.052l1.652.107,5.96,4.605-.409.331L265.6-32.9C264.924-36.245,264.393-39.641,263.975-42.818Zm58.863,0h0a30.683,30.683,0,0,0-6.8.682c-.462,1.038-.95,2.054-1.44,3.052l1.652.107,5.96,4.605-.409.331,5.658,2.263q1.341-1.732,2.721-3.536c1.688-2.195,3.3-4.428,4.95-6.826-1.287.119-2.656.285-4.141.5l-10.917,1.592ZM316.2-17.674l1.321-1.61c2.838-3.464,5.729-7.087,8.753-10.968l-3.951,1.111.449.3-1.719.931.406.294-5.066,5.757-9.909.657c-.66,1.535-1.3,3.046-1.906,4.558,1.45-.059,2.9-.161,4.322-.3ZM266.89-27.282c-.233-.882-.454-1.782-.663-2.69l-2.958.832.449.3L262-27.905l.406.294-5.066,5.757-9.908.657c-.648,1.506-1.292,3.028-1.905,4.558,1.45-.059,2.895-.161,4.32-.3l8.971-.9L254.827-13.1l1.11.113-.556,2.224.168.182-.257.171-.25,1C259.127-14.956,263.1-20.95,266.89-27.282Z" transform="translate(-46.595 67.94)" fill="#423fbf"/>
          <path id="Path_7580_-_Outline-4" data-name="Path 7580 - Outline" d="M132.967-32.308l-3.2,4.291-.192-2.434-1.665.769a72.262,72.262,0,0,0-3.907,7.3c-1.857,3.779-3.587,7.621-5.252,11.464C114.714-1.631,110.231,9,107.477,18.735l3.33.576-.576,2.946c2.626.256,5.316.384,7.942.384A44.917,44.917,0,0,0,130.6,21.169l1.665-2.178-2.37-.448a9.314,9.314,0,0,1,2.5-2.754l-3.074-.512,1.345-1.153-1.729-.512,1.793-1.537a55.776,55.776,0,0,1-6.533.32h-2.37c3.074-8.646,6.533-17.164,10.119-25.554,2.5-5.828,4.931-11.72,7.878-17.356l-.9-1.345a18.283,18.283,0,0,0-4.035,3.651l-.256-2.178-1.665,1.345v-3.266m153.836.192a10.96,10.96,0,0,0-1.921,4.419l-1.921-2.818-1.153.833c.64,8.518,1.985,19.278,4.355,27.539a225.871,225.871,0,0,1-14.538,21.775l1.665-.064V21.3l3.138-3.074v2.049l1.857-1.089.128.961,2.818-2.178-.7,3.971.7,1.345C293.72,8.616,306.849-13.223,314.15-31.284l-2.562,1.089-.576-1.6-3.651,4.227-.256-2.562-1.281,1.089-.448-2.242-1.665,1.153-1.217-.576A83.932,83.932,0,0,1,294.36-14.44a79.793,79.793,0,0,1-2.434-16.524l-1.089,1.025-1.153-1.345-1.217,2.562L286.8-32.116m79.48.32a139.991,139.991,0,0,0-20.046,1.409l.576,1.857,2.242,1.089-4.483,1.089,1.409,1.345-.32,1.345,2.562.576-2.434,2.434a64.991,64.991,0,0,1,9.351-.769c.769,0,1.537,0,2.306.064-2.882,4.355-5.828,8.71-9.03,12.873-4.163,5.444-8.39,10.824-12.745,16.139-2.434,2.946-4.867,6.02-7.429,8.838l1.6.192-.448,1.665,2.562-.576-.32,2.69a75.954,75.954,0,0,0,13.193,1.153,42.121,42.121,0,0,0,11.656-1.409l1.665-1.921-3.715-.9-.769-1.217,2.946-1.409-2.754-.64,1.473-1.473-1.089-.384,1.409-1.473a62.589,62.589,0,0,1-6.917.384,18.919,18.919,0,0,1-2.69-.128,202.1,202.1,0,0,0,27.475-39l-2.306-.192.512-1.729L369.165-30l1.089-1.729c-1.345-.064-2.626-.064-3.971-.064M157.3-31.668l-3.2,3.779-.576-1.857-1.345.833c-3.587,5.956-6.725,14.41-9.222,20.943-1.857,4.867-3.651,9.8-5.252,14.73-1.217,3.715-2.434,7.493-3.33,11.336l1.345,1.729,2.882-3.587-.192,4.931a9.808,9.808,0,0,0,2.946-3.33l.128,2.946,1.409-1.345.256,2.69,1.985-.512C147.825,11.947,151.412,2.4,155-6.947c3.01-7.749,5.956-15.627,9.607-23.12l-.9-1.345c-1.281.64-3.33,3.33-4.1,4.483l-.32-2.626L157.5-27.889l-.192-3.779m68.4.128L222.758-27.7l-.256-2.113-1.6,1.473-1.089-1.089A206.267,206.267,0,0,0,211.166-4.9l-.128.064-1.921-25.362-2.178,2.69-.961-1.473-2.242,3.651-.32-6.084L199.7-26.993l-1.025-2.049c-3.843,6.661-6.853,14.474-9.543,21.647a270.962,270.962,0,0,0-9.222,28.052l2.113-1.089.512,1.6,2.37-3.2.64,3.2,1.537-1.345.833,1.089,1.6-2.946.448,2.946,1.217-.769a114.417,114.417,0,0,1,3.651-11.208c1.857-5.252,3.843-10.439,5.892-15.563l.256-.064a188.575,188.575,0,0,0,2.69,26.835l1.793-.833,1.153-2.5.769,3.266,1.089-1.281.833,1.6,1.537-1.921.9.961.9-1.473,1.089,2.946c3.522-11.08,6.981-22.224,10.7-33.239,1.089-3.33,2.242-6.6,3.458-9.863,1.025-2.754,2.049-5.572,3.33-8.2l-3.394,1.921-.256-2.178-1.345,1.281L225.7-31.54m-126.361.256A176.213,176.213,0,0,0,84.293-9.444a224.915,224.915,0,0,0-15.5,29.653l3.138-1.345v1.857l3.651-4.035.32,2.434,1.409-1.345.256,2.434L79.3,19.12h1.409c1.217-2.242,2.434-4.547,3.651-6.789,1.537-.128,3.074-.256,4.611-.512a39.241,39.241,0,0,1,5.508-.7,14.571,14.571,0,0,1,1.665.128c-.064,1.729-.128,3.394-.128,5.124,0,.9,0,1.857.064,2.754l2.178,1.665,1.153-2.946.9,3.715,1.665-2.242.576-2.049,1.089,2.754.961-1.6,1.025,2.562,1.729-1.025c.128-16.524,2.178-32.983,3.587-49.379l-1.345-.961-2.178,2.626-.512-1.921-1.985,1.857-.7-2.946-2.946,3.522-.833-3.074-1.089-.961M96.782,1.635c-2.37-.256-4.547.64-6.853.7,3.01-5.252,5.38-10.7,9.094-15.563h.128a97,97,0,0,0-2.37,14.858m92.545-32.663a98.432,98.432,0,0,0-19.406,1.6l.576,1.857,2.242,1.089-4.483,1.089,1.409,1.345-.32,1.345,2.562.512L169.921-21.1a79.02,79.02,0,0,0-5.636,11.144,200.779,200.779,0,0,0-10.375,28.18,9.054,9.054,0,0,1,2.882.7,15.375,15.375,0,0,0-.768,2.434,70.079,70.079,0,0,0,9.671.64,44.013,44.013,0,0,0,11.912-1.473l1.665-1.921-3.715-.64c.833-.576,2.626-2.113,2.882-3.138l-3.138-.32,1.729-1.153-.769-.833,1.025-1.217c-2.562.256-5.188.384-7.749.384a12.428,12.428,0,0,1-2.178-.128c1.345-3.971,3.01-7.813,4.675-11.656l10.631-.7,1.409-1.6-1.857-1.345,1.537-.833-1.985-1.345,4.1-1.153-3.2-1.281L184.331-9.7l-1.409-1.089-5.956-.384c1.409-3.138,3.138-6.212,4.419-9.415a31.647,31.647,0,0,1,9.479-1.281l.833-1.857-1.089-1.665,2.562-.961-2.818-1.153,1.217-1.217-.961-.7.833-1.6h-2.113m88.254,0a98.432,98.432,0,0,0-19.406,1.6l.576,1.857,2.242,1.089-4.483,1.089,1.409,1.345L257.6-22.7l2.562.512L258.175-21.1a79.03,79.03,0,0,0-5.636,11.144,200.78,200.78,0,0,0-10.375,28.18,9.054,9.054,0,0,1,2.882.7,15.38,15.38,0,0,0-.769,2.434,70.079,70.079,0,0,0,9.671.64,44.014,44.014,0,0,0,11.912-1.473l1.665-1.921-3.715-.64c.833-.576,2.626-2.113,2.882-3.138l-3.138-.32,1.729-1.153-.768-.833,1.025-1.217c-2.562.256-5.188.384-7.749.384a12.427,12.427,0,0,1-2.178-.128c1.345-3.971,3.01-7.813,4.675-11.656L270.92-.8l1.409-1.6-1.857-1.345,1.537-.833-1.985-1.345,4.1-1.153-3.2-1.281L272.585-9.7l-1.409-1.089-5.956-.384c1.409-3.138,3.138-6.212,4.419-9.415a31.646,31.646,0,0,1,9.479-1.281l.833-1.857-1.089-1.665,2.562-.961-2.818-1.153,1.217-1.217-.961-.7.833-1.6H277.58m59.049,0a98.432,98.432,0,0,0-19.406,1.6l.576,1.857,2.242,1.089-4.483,1.089,1.409,1.345-.32,1.345,2.562.512L317.224-21.1a79.011,79.011,0,0,0-5.636,11.144,200.769,200.769,0,0,0-10.375,28.18,9.054,9.054,0,0,1,2.882.7,15.378,15.378,0,0,0-.769,2.434A70.08,70.08,0,0,0,313,22a44.014,44.014,0,0,0,11.912-1.473l1.665-1.921-3.715-.64c.833-.576,2.626-2.113,2.882-3.138l-3.138-.32,1.729-1.153-.768-.833,1.025-1.217c-2.562.256-5.188.384-7.749.384a12.427,12.427,0,0,1-2.177-.128c1.345-3.971,3.01-7.813,4.675-11.656l10.631-.7,1.409-1.6-1.857-1.345,1.537-.833-1.985-1.345,4.1-1.153-3.2-1.281L331.634-9.7l-1.409-1.089-5.956-.384c1.409-3.138,3.138-6.212,4.419-9.415a31.646,31.646,0,0,1,9.479-1.281L339-23.726l-1.089-1.665,2.562-.961-2.818-1.153,1.217-1.217-.961-.7.833-1.6H336.63M134.8-37.82v4.948l1.265-1.022.2,1.7a11.384,11.384,0,0,1,1.761-1.258l1.48-.837,2.441,3.661-.5.961c-2.535,4.85-4.733,10-6.858,14.983l-.96,2.246c-3.73,8.725-6.683,16.11-9.2,23a52.249,52.249,0,0,0,6.084-.307l4.306-.507c.367-1.163.752-2.345,1.15-3.562,1.445-4.452,3.124-9.16,5.281-14.813l.471-1.235c2.426-6.359,5.445-14.273,8.893-20l.228-.379,3.731-2.31.289.931,4.036-4.762.228,4.479,1.547-1.437.229,1.875a8.106,8.106,0,0,1,1.99-1.588l1.445-.722,2.375,3.562-.46.943q-.676,1.388-1.324,2.8l3.717-.9-1.071-3.45,1.986-.4a102.182,102.182,0,0,1,19.768-1.637h5.127l-1.5,2.883,1.415,1.038-.779.779,2.048.838q.705-1.34,1.453-2.638l1.7-2.947,1.3,2.6L205-36.14l.255,4.842.677-1.1L207.1-30.61l3.495-4.317,1.561,20.6c1.807-5.451,3.807-10.745,5.976-15.82l1.063-2.488,1.761,1.761,2.936-2.7.146,1.2,2.566-3.347.665,2.828,1.684-1.6.362,3.079,6.128-3.469-2.585,5.3c-1.155,2.367-2.119,4.963-3.051,7.472l-.209.561c-1.277,3.428-2.4,6.632-3.434,9.793C223.27-3.18,220.491,5.606,217.8,14.1l-2.333,7.365-1.614,5.076-1.623-4.393-.184.3-1.1-1.177-1.97,2.463-.874-1.68-1.672,1.967-.667-2.836L202.3,22.8l-.425-2.328a171.606,171.606,0,0,1-2.306-19.1c-1.079,2.834-2.076,5.545-3.007,8.179l-.8,2.238a84.149,84.149,0,0,0-2.8,8.782l-.172.726-4.213,2.661-.051-.333-.35.645-1.359-1.777-2.445,2.14-.451-2.254-2.039,2.755-.942-2.944-3.816,1.966.44-1.713a46.541,46.541,0,0,1-11.872,1.394,71.938,71.938,0,0,1-9.924-.658l-1.979-.277.449-1.947q.1-.417.208-.82a6.291,6.291,0,0,0-.661-.081l-2.234-.149.59-2.159A199.213,199.213,0,0,1,162.612-10.7a88.866,88.866,0,0,1,5.177-10.448l-.664-.133.516-2.169L164.79-26.17c-2.568,5.618-4.828,11.464-7.025,17.146L156.7-6.284c-3.658,9.538-7.164,18.893-9.806,28.392l-.283,1.018-5.084,1.312-.1-1.07-1.6,1.525-.1-2.412q-.151.111-.3.211l-2.983,1.989.116-2.978-.861,1.072-2.029-2.609-1.983,2.593-.578.168a45.833,45.833,0,0,1-12.935,1.546c-2.715,0-5.447-.132-8.119-.393l-2-.2.491-2.51-3.825,2.267-.448-1.121-.97,1.617-.914-2.312-2.939,3.957-.528-2.189-4.6-3.52-.059-.822c-.067-.939-.069-1.945-.069-2.884,0-1.156.028-2.283.066-3.419a23.524,23.524,0,0,0-3.408.422c-.542.093-1.081.186-1.614.262-1.238.207-2.5.333-3.731.441-.45.834-.9,1.675-1.35,2.516-.61,1.141-1.221,2.281-1.831,3.406l-.519.957h-1.97l-3.769,2.373-.174-1.653-1.323,1.263-.274-2.084L70.1,25.471V21.638L65.36,23.671,67.106,19.5A226.07,226.07,0,0,1,82.729-10.4,177.759,177.759,0,0,1,97.941-32.459L99.147-33.9l2.908,2.566.059.216,3.03-3.623.82,3.428,1.918-1.795.386,1.448,1-1.207,3.579,2.557-.089,1.039c-.349,4.066-.738,8.135-1.127,12.208-.735,7.691-1.485,15.548-1.96,23.416,2.319-6.2,4.953-12.37,7.4-18,1.958-4.518,3.638-8.186,5.288-11.542a73.989,73.989,0,0,1,4.007-7.479l.289-.452,4.536-2.094.016.2Zm52.75,29.446c2.146-5.716,4.31-11.295,6.844-16.482l-1,.376.386.59-1.726,3.851h-1.185a30.993,30.993,0,0,0-8.12.957c-.711,1.676-1.521,3.312-2.307,4.9q-.335.677-.667,1.353l3.829.247,3.684,2.847-1.037.838ZM186.3-5.06l.1-.265-.346.1ZM95.119-.213c.143-1.418.3-2.782.486-4.1-.462.853-.919,1.717-1.383,2.594q-.46.87-.924,1.74A17.981,17.981,0,0,1,95.119-.213Zm90.6-3.256.041-.111-.111.06Zm-4.34,12.528c1.009-3.146,2.064-6.216,3.12-9.167L183.54.978l-10.271.681c-1.162,2.686-2.332,5.432-3.363,8.2,2.409-.012,4.829-.137,7.2-.374Zm-1.273,4.1q.563-1.878,1.154-3.728L178.7,12.467l.559.606Zm-46.317-.017q.248-.857.511-1.719l-1.622,1.39ZM287.235-35.389l1.206,2.459.8-1.683,1.739,2.028,2.572-2.421.2,3.949a93.451,93.451,0,0,0,1.363,11.833,79.706,79.706,0,0,0,5.657-12.109l.687-1.889,2.078.984,3.086-2.136.385,1.923,1.57-1.335.18,1.8,2.915-3.375.981,2.725L317.5-34.7l-1.474,3.645.832-.168a102.181,102.181,0,0,1,19.768-1.637h5.128l-1.5,2.883,1.415,1.038-.779.779,1.25.511,2.816-.684-1.1-3.56,2.118-.309a141.478,141.478,0,0,1,20.31-1.428c1.374,0,2.683,0,4.058.066l3.132.149-1.093,1.736,1.763.088-.534,1.8,2.842.237-1.318,2.457A203.245,203.245,0,0,1,349.981,9.335c1.821-.038,3.655-.159,5.468-.36l5.006-.556-2.932,3.065,1.155.408-1.2,1.2,4.627,1.076-4.441,2.124,3.834.925-3.989,4.6-.521.15a43.211,43.211,0,0,1-12.163,1.481,77.968,77.968,0,0,1-13.516-1.181l-1.7-.3.218-1.834-2.675.6-1.222,1.41-.526.149A45.812,45.812,0,0,1,313,23.831a71.938,71.938,0,0,1-9.925-.658l-1.978-.277.449-1.947q.1-.417.208-.82a6.288,6.288,0,0,0-.661-.081l-2.234-.149.59-2.159A199.21,199.21,0,0,1,309.916-10.7a88.851,88.851,0,0,1,5.177-10.448l-.664-.133.516-2.169-1.532-1.462C305.749-7.893,293.836,11.3,282.624,24.469l-1.757,2.063-2.227-4.251-1.622,1.253-.184-1.379L274.6,23.466v-.889l-3.138,3.074V21.469l-3.634.14,2.341-3.084A223.348,223.348,0,0,0,284.189-2.4a130.973,130.973,0,0,1-3.4-18.722l-.486,1.085h-1.185a30.993,30.993,0,0,0-8.12.957c-.711,1.675-1.52,3.312-2.307,4.9q-.335.677-.667,1.354l3.829.247,3.684,2.847-1.037.838,5.306,2.122-5.494,1.545,1.217.825-1.628.882,1.132.819L271.794.978l-10.271.681c-1.162,2.685-2.332,5.431-3.363,8.2,2.409-.012,4.829-.137,7.2-.374l4.485-.449-2.889,3.431.559.605,1.467.15-.512,2.05a4.471,4.471,0,0,1-.768,1.508l3.332.574-4.147,4.785-.526.149a45.812,45.812,0,0,1-12.411,1.542,71.938,71.938,0,0,1-9.924-.658l-1.979-.277.449-1.947q.1-.417.208-.82a6.288,6.288,0,0,0-.661-.081l-2.234-.149.59-2.159A199.211,199.211,0,0,1,250.866-10.7a88.879,88.879,0,0,1,5.177-10.448l-.664-.133.516-2.169-3.071-2.931,4.073-.989-1.071-3.45,1.986-.4a102.182,102.182,0,0,1,19.768-1.637h5.127l-.223.428.928-.67.952,1.4a8.09,8.09,0,0,1,1.061-1.618Zm28.712,8.021-.613-1.977q-.489,1.177-1.007,2.37Zm28.01,2.96-.974-.93-2.29.859.386.59-1.727,3.851h-1.185a30.993,30.993,0,0,0-8.12.957c-.711,1.676-1.521,3.312-2.307,4.9q-.335.677-.667,1.353l3.829.247,3.684,2.847-1.037.838,5.306,2.122-5.494,1.545,1.217.825-1.628.882,1.132.819L330.844.978l-10.271.681c-1.162,2.686-2.332,5.432-3.363,8.2,2.409-.012,4.829-.137,7.2-.374l4.485-.449L326,12.467l.559.606,1.467.15-.264,1.057c1.619-1.837,3.21-3.782,4.756-5.673l1.737-2.116c4.054-4.949,8.211-10.212,12.7-16.085,2.412-3.135,4.656-6.342,7.1-9.983a65.7,65.7,0,0,0-8.009.737l-5.459.8,3.985-3.985-1.127-.254Z" transform="translate(-61.926 43.332)" fill="#0f1015"/>
          <g id="Mask_Group_19-2" data-name="Mask Group 19" transform="translate(6.867 11.023)" opacity="0.397" clip-path="url(#clip-path-2)">
            <path id="Path_7582-2" data-name="Path 7582" d="M0-15.784s9.051,5.406,34.658,4.523,38.587-8.058,67.769-8.058,23.545,7.759,48.961,8.058,28.9-6.575,52.7-6.861,24.958,5.445,42.513,5.717,13.655-4.629,27.706-4.629,19.355,4.317,28.5,4.629,8.081-3.378,8.081-3.378V22.094H0Z" transform="translate(-14.845 42.445)" fill="#0ce8ad"/>
          </g>
        </g>
      </g>
    </g>
  </g>
</svg>
