<svg id="epLqbzY9OFx1" xmlns="http://www.w3.org/2000/svg" xmlns:xlink="http://www.w3.org/1999/xlink" viewBox="0 0 403 532.148" shape-rendering="geometricPrecision" text-rendering="geometricPrecision"><style><![CDATA[#epLqbzY9OFx3_to {animation: epLqbzY9OFx3_to__to 3000ms linear infinite normal forwards}@keyframes epLqbzY9OFx3_to__to { 0% {transform: translate(-11211.5px,-16340.1px)} 33.333333% {transform: translate(-11211.5px,-16324.1px)} 66.666667% {transform: translate(-11211.5px,-16340.1px)} 100% {transform: translate(-11211.5px,-16340.1px)}} #epLqbzY9OFx4_to {animation: epLqbzY9OFx4_to__to 3000ms linear infinite normal forwards}@keyframes epLqbzY9OFx4_to__to { 0% {transform: translate(-11133px,-16229px)} 33.333333% {transform: translate(-11133px,-16213px)} 66.666667% {transform: translate(-11133px,-16229px)} 100% {transform: translate(-11133px,-16229px)}} #epLqbzY9OFx4 {animation: epLqbzY9OFx4_f_o 3000ms linear infinite normal forwards}@keyframes epLqbzY9OFx4_f_o { 0% {fill-opacity: 0} 16.666667% {fill-opacity: 1} 33.333333% {fill-opacity: 0} 50% {fill-opacity: 1} 66.666667% {fill-opacity: 0} 100% {fill-opacity: 0}} #epLqbzY9OFx5_to {animation: epLqbzY9OFx5_to__to 3000ms linear infinite normal forwards}@keyframes epLqbzY9OFx5_to__to { 0% {transform: translate(-11269.7px,-16267.008172px)} 66.666667% {transform: translate(-11207.403756px,-16348.355198px)} 100% {transform: translate(-11207.403756px,-16348.355198px)}} #epLqbzY9OFx5_ts {animation: epLqbzY9OFx5_ts__ts 3000ms linear infinite normal forwards}@keyframes epLqbzY9OFx5_ts__ts { 0% {transform: scale(1,1)} 66.666667% {transform: scale(0.765327,0.765327)} 100% {transform: scale(0.765327,0.765327)}} #epLqbzY9OFx5 {animation: epLqbzY9OFx5_c_o 3000ms linear infinite normal forwards}@keyframes epLqbzY9OFx5_c_o { 0% {opacity: 0} 13.333333% {opacity: 1} 53.333333% {opacity: 1} 66.666667% {opacity: 0} 100% {opacity: 0}}]]></style><g id="epLqbzY9OFx2" transform="matrix(1 0 0 1 11243 16340.1)"><g id="epLqbzY9OFx3_to" transform="translate(-11211.5,-16340.1)"><path id="epLqbzY9OFx3" d="M333.491,82.245C333.6,82.099,333.702,81.945,333.814,81.803C334.019,81.511,334.225,81.221,334.414,80.926C334.535,80.743,334.656,80.556,334.772,80.369C334.828,80.269,334.893,80.179,334.955,80.083C334.970102,80.050757,334.982479,80.017307,334.992,79.983C336.633372,77.288901,337.514558,74.200603,337.542,71.046C337.542,56.434,319.142,44.326,284.334,36.026C272.267465,33.223101,260.063761,31.047516,247.772,29.508C234.227,16.431,209.183,0,168.768,0C128.353,0,103.315,16.431,89.768,29.51C77.476197,31.049243,65.272479,33.224831,53.206,36.028C18.4,44.327,0,56.435,0,71.047C0.026437,74.201336,0.906588,77.289639,2.547,79.984C2.563,80.015,2.569,80.052,2.587,80.084C2.643,80.184,2.711,80.274,2.767,80.37C2.882,80.557,3,80.743,3.122,80.927C3.315,81.227,3.517,81.512,3.722,81.801C3.828,81.947,3.933,82.101,4.045,82.246Q4.493,82.846,4.987,83.425C5.021,83.462,5.052,83.503,5.087,83.543C5.46,83.978,5.858,84.407,6.272,84.837C6.372,84.943,6.483,85.048,6.586,85.151C6.897,85.465,7.214,85.776,7.544,86.084C7.696,86.224,7.844,86.364,8.004,86.504C8.304,86.775,8.613,87.045,8.931,87.313C9.102,87.456,9.27,87.599,9.444,87.742C9.771,88.013,10.109,88.28,10.455,88.542C10.62,88.669,10.782,88.8,10.955,88.928Q11.603,89.413,12.286,89.892C12.37,89.951,12.451,90.013,12.538,90.072C13.088,90.451,13.651,90.828,14.233,91.201C14.364,91.285,14.497,91.366,14.628,91.45Q15.309,91.879,16.015,92.305C16.192,92.411,16.373,92.51,16.55,92.616Q17.217,93.008,17.906,93.393L18.441,93.685C18.926,93.952,19.421,94.214,19.921,94.475L20.366,94.708Q21.224,95.146,22.114,95.582C22.189,95.616,22.26,95.654,22.335,95.688C31.393,100.076,42.796,103.854,55.75,107.01C55.658153,107.32853,55.612025,107.658494,55.613,107.99C55.613,109.996,57.113,111.809,62.267,113.478C62.743,115.493,66.393,118.752,94.358,121.501C114.244,123.457,140.672,124.53,168.773,124.53C196.874,124.53,223.308,123.457,243.191,121.501C271.158,118.752,274.803,115.493,275.282,113.475C280.441,111.808,281.94,109.995,281.94,107.99C281.938405,107.658465,281.891299,107.32872,281.8,107.01C294.761,103.854,306.16,100.073,315.221,95.685L315.421,95.585Q316.321,95.147,317.193,94.699C317.333,94.627,317.473,94.553,317.619,94.478C318.119,94.214,318.626,93.946,319.119,93.678L319.629,93.398C320.102,93.137,320.559,92.872,321.007,92.608C321.184,92.508,321.355,92.408,321.526,92.308C322.005,92.022,322.478,91.73,322.941,91.44C323.062,91.359,323.19,91.285,323.311,91.207C323.893,90.831,324.465,90.454,325.011,90.075C325.089,90.019,325.163,89.966,325.235,89.91C325.701,89.587,326.158,89.257,326.594,88.927C326.759,88.803,326.917,88.678,327.082,88.551C327.427,88.284,327.772,88.013,328.102,87.739Q328.358,87.529,328.602,87.319C328.922,87.045,329.233,86.775,329.538,86.498C329.687,86.361,329.846,86.224,329.992,86.088C330.328,85.777,330.648,85.463,330.959,85.146C331.059,85.046,331.164,84.946,331.267,84.846Q331.887,84.202,332.452,83.546C332.483,83.506,332.514,83.465,332.552,83.428C332.878,83.035,333.192,82.64,333.491,82.245ZM168.768,121.419C108.178,121.419,70.736,116.58,65.755,112.961C75.276,116.702,117.772,119.525,168.768,119.525C219.764,119.525,262.275,116.702,271.788,112.961C266.812,116.58,229.37,121.419,168.768,121.419ZM168.768,111.767C204.979,111.767,236.656,110.267,254.168,108.029C254.924,108.244,255.62,108.461,256.276,108.685C238.912,111.154,205.746,112.706,168.77,112.706C131.794,112.706,98.628,111.154,81.27,108.685C81.926,108.461,82.623,108.243,83.381,108.029C100.883,110.268,132.564,111.767,168.768,111.767ZM261.511,111.329C246.781,114.187,210.825,116.205,168.768,116.205C126.711,116.205,90.759,114.187,76.032,111.329C76.415129,110.973225,76.837516,110.662223,77.291,110.402C93.291,113.229,128.826,115.038,168.768,115.038C208.71,115.038,244.249,113.228,260.245,110.402C260.700048,110.662741,261.124662,110.97332,261.511,111.328ZM79.72,109.242C96.692,111.842,130.726,113.483,168.768,113.483C206.81,113.483,240.848,111.838,257.819,109.242C258.292,109.425,258.711,109.615,259.109,109.802C242.719,112.523,207.87,114.261,168.767,114.261C129.664,114.261,94.822,112.523,78.428,109.802C78.827,109.615,79.25,109.425,79.72,109.242ZM272.836,109.41C269.478,107.656,261.62,105.623,243.186,103.81C223.304,101.854,196.872,100.781,168.768,100.781C140.664,100.781,114.239,101.854,94.353,103.81C75.923,105.62,68.062,107.653,64.7,109.41C63.371102,109.090146,62.08504,108.613118,60.869,107.989C67.356,104.223,106.153,99.435,168.769,99.435C231.385,99.435,270.184,104.224,276.669,107.989C275.452407,108.61345,274.165643,109.090489,272.836,109.41ZM168.768,4.664C203.228,4.664,225.981,17.021,239.668,28.464C239.736,28.489,239.796,28.514,239.861,28.542C238.941,28.436,238.011,28.342,237.087,28.242C223.887,23.332,201.7,17.772,168.767,17.772C135.834,17.772,113.647,23.332,100.453,28.242C99.505,28.342,98.553,28.447,97.611,28.553C98.587,27.729,99.601,26.905,100.671,26.078C113.309,16.31,135.384,4.664,168.768,4.664ZM111.384,27.178L111.493,27.057C124.842,23.344,143.668,20.104,168.768,20.104C180.961329,20.052414,193.141397,20.914157,205.206,22.682C205.461,22.974,205.713,23.27,205.962,23.565C193.650992,21.72252,181.216994,20.825231,168.769,20.881C145.869,20.881,128.169,23.581,115.064,26.867C113.828,26.966,112.606,27.069,111.384,27.178ZM204.434,21.778C192.620159,20.097031,180.699737,19.277203,168.767,19.325C144.323,19.325,125.808,22.394,112.478,25.983C112.789,25.647,113.097,25.314,113.414,24.983C126.63,21.497,144.848,18.552,168.767,18.552C180.414667,18.50747,192.050836,19.288762,203.588,20.89C203.869,21.185,204.164,21.478,204.435,21.779ZM168.767,21.66C181.475821,21.597021,194.169927,22.533238,206.732,24.46C207.111,24.923,207.457,25.39,207.814,25.853C195.214,25.141,182.135,24.768,168.767,24.768C151.982,24.768,135.641,25.349,120.152,26.468C136.137409,23.122652,152.436982,21.511,168.768,21.661ZM54.293,40.567C84.393,33.387,125.048,29.435,168.768,29.435C212.488,29.435,253.146,33.387,283.246,40.567C307.134,46.261,323.008,53.736,329.519,62.16C321.519,54.26,306.16,47.495,283.967,42.206C253.636,34.973,212.727,30.993,168.767,30.993C124.807,30.993,83.9,34.973,53.568,42.206C31.379,47.5,16.024,54.265,8.016,62.163C14.534,53.736,30.405,46.261,54.293,40.567ZM168.768,32.547C190.106,32.547,211.509,33.547,231.506,35.51L231.506,37C211.987,35.1,190.761,34.1,168.768,34.1C124.814,34.1,83.902,38.083,53.568,45.313C44.263958,47.426725,35.154183,50.319254,26.335,53.96L26.335,52.536C56.818,39.348,113.023,32.548,168.768,32.548ZM253.758,38.197L253.758,39.674Q246.943,38.694,239.749,37.874L239.749,36.391Q246.91,37.207,253.758,38.2ZM324.982,75.07C321.929856,78.111454,318.695194,80.964075,315.296,83.612C311.746224,86.41575,308.043165,89.019776,304.204,91.412C296.57247,96.24139,288.392848,100.144552,279.838,103.039C288.279177,99.910048,296.318028,95.787732,303.785,90.759C307.523639,88.278944,311.120903,85.592096,314.56,82.711C317.793537,80.037483,320.864035,77.172687,323.755,74.132C317.001,69.011,306.811,64.446,293.794,60.574C291.69616,64.491303,289.25315,68.213713,286.494,71.697C283.629314,75.336426,280.548423,78.80034,277.268,82.07C270.665554,88.536667,263.429095,94.322484,255.668,99.34C263.258085,94.120897,270.304188,88.151877,276.7,81.523C279.859943,78.191525,282.817252,74.673543,285.556,70.988C288.109918,67.571046,290.36618,63.941421,292.3,60.139C280.435841,56.82278,268.371939,54.26791,256.182,52.49C254.493,56.39,252.587,60.133,250.547,63.824Q247.375,69.571,243.747,75.04C238.941648,82.339167,233.5037,89.201601,227.496,95.548C233.294985,89.042308,238.510735,82.039343,243.083,74.62Q246.539,69.083,249.514,63.276C251.367,59.676,253.109,55.981,254.614,52.253C241.582,50.316,227.281,48.829,211.96,47.862Q209.618,59.569,206.341,71.006C204.18955,78.808528,201.422538,86.428094,198.066,93.793C201.178194,86.339538,203.69474,78.651131,205.592,70.8C207.501,63.191,209.115,55.492,210.409,47.771C197.436,46.987,183.766,46.565,169.534,46.549L168.769,92.238L168.007,46.549C153.775,46.565,140.107,46.987,127.132,47.771C128.426,55.492,130.039,63.191,131.949,70.8C133.849794,78.650043,136.366936,86.337894,139.477,93.792C136.122603,86.426687,133.355002,78.808011,131.2,71.007Q127.935,59.556,125.584,47.863C110.266,48.83,95.962,50.316,82.93,52.254C84.435,55.982,86.173,59.673,88.03,63.277Q91.01,69.077,94.461,74.621C99.034016,82.039718,104.250433,89.042011,110.05,95.547C104.042619,89.200942,98.605003,82.338838,93.8,75.04Q90.165,69.583,87,63.824C84.963,60.133,83.057,56.389,81.365,52.49C69.176265,54.267275,57.113652,56.822155,45.251,60.139C47.179639,63.942395,49.433003,67.572203,51.986,70.988C54.721761,74.674205,57.677114,78.192244,60.836,81.523C67.236243,88.151603,74.286697,94.119949,81.881,99.338C74.118785,94.322038,66.882176,88.536101,60.281,82.068C56.999721,78.799149,53.918783,75.335181,51.055,71.695C48.29246,68.212689,45.847043,64.490181,43.748,60.572C30.728,64.443,20.548,69.008,13.784,74.13C16.677994,77.167628,19.748305,80.03225,22.979,82.709C26.420713,85.589426,30.019936,88.27624,33.76,90.757C41.223784,95.786385,49.260481,99.90813,57.7,103.035C49.144064,100.141326,40.963398,96.238481,33.331,91.409C29.493304,89.016011,25.791286,86.412012,22.242,83.609C18.843155,80.961799,15.609447,78.109137,12.559,75.067C10.86993,76.430213,9.338733,77.978181,7.994,79.682C7.794,79.421,7.562,79.163,7.378,78.901C21.794,58.561,86.078,44.988,168.767,44.988C251.456,44.988,315.743,58.561,330.167,78.901C329.977,79.162,329.747,79.42,329.548,79.682C328.201569,77.980881,326.670534,76.434419,324.983,75.071ZM168.768,35.657C190.106,35.657,211.509,36.657,231.506,38.624L231.506,40.113C211.987,38.213,190.761,37.213,168.768,37.213C124.814,37.213,83.902,41.193,53.568,48.426C44.263284,50.537568,35.153053,53.429466,26.334,57.071L26.334,55.649C56.818,42.458,113.023,35.657,168.768,35.657ZM332.8,72.288C331.304664,70.161652,329.529704,68.24643,327.523,66.594C327.489,66.194,327.452,65.77,327.408,65.378C329.621536,67.291661,331.453656,69.60624,332.808,72.2C332.802202,72.228964,332.79952,72.258465,332.8,72.288ZM26.335,58.764C56.815,45.574,113.017,38.77,168.768,38.77C190.106,38.77,211.509,39.77,231.506,41.736L231.506,43.266C211.894,41.341,190.59,40.324,168.768,40.324C129.476,40.324,91.831,43.614,62.768,49.584C47.009,52.824,35.196,56.534,26.33,60.34ZM253.758,44.423L253.758,45.956Q246.948,44.967,239.749,44.14L239.749,42.61Q246.91,43.431,253.758,44.423ZM253.758,42.787Q246.943,41.803,239.749,40.987L239.749,39.5Q246.909,40.321,253.758,41.31ZM8.9,67.564C7.336324,68.973412,5.94013,70.558182,4.739,72.287L4.723,72.2C5.841334,70.027955,7.312309,68.056517,9.076,66.366C9.008,66.775,8.946,67.173,8.9,67.564ZM8.766,69.8C8.772,70.074,8.8,70.347,8.825,70.624C7.721051,71.556991,6.675418,72.556872,5.694,73.618C6.581549,72.241322,7.611194,70.96164,8.766,69.8ZM327.794,69.859C327.763,69.495,327.741,69.128,327.716,68.774C329.295691,70.205963,330.685646,71.834186,331.852,73.619C330.592077,72.269146,329.235848,71.012511,327.794,69.859ZM332.701,69.038C331.131646,66.841208,329.268265,64.870156,327.163,63.18C327.107,62.742,327.054,62.312,326.998,61.893C329.303546,63.818806,331.225722,66.161648,332.664,68.799C332.682,68.88,332.688,68.961,332.7,69.038ZM9.637,63.8C7.825194,65.341257,6.212743,67.102524,4.837,69.043C4.853,68.965,4.856,68.884,4.871,68.804C6.213369,66.337144,7.986698,64.130644,10.107,62.289C9.947,62.717,9.789,63.233,9.637,63.8Z" transform="translate(0,0)" fill="rgb(12,232,173)" stroke="none" stroke-width="1"/></g><g id="epLqbzY9OFx4_to" transform="translate(-11133,-16229)"><path id="epLqbzY9OFx4" d="M0,-2C0,-2,46.435,-5.85,92.185,-5.85C137.935,-5.85,183,-2,183,-2L293,421L-110,421Z" transform="translate(0,0)" fill="rgb(237,253,39)" fill-opacity="0" stroke="none" stroke-width="1"/></g><g id="epLqbzY9OFx5_to" transform="translate(-11269.7,-16267.008172)"><g id="epLqbzY9OFx5_ts" transform="scale(1,1)"><path id="epLqbzY9OFx5" d="M271.9,334.453C270.841,330.324,253.689,311.797,253.689,311.797C247.579,305.036,250.089,307.425,242.679,301.316C233.235,286.845,217.934,280.795,204.831,282.629C202.185,283,200.702,285.753,200.702,285.753L197.446,284.086C197.296733,282.613783,196.641918,281.238779,195.593,280.195C194.985,279.666,191.306,279.825,191.306,279.825C191.148,279.314,191.088,278.766,190.562,278.766C190.420903,278.765958,190.285871,278.823365,190.188,278.925L188.637,280.535C182.965,281.635,180.914,283.311,181.737,290.411C182.372,295.917,189.43,295.987,189.43,295.987C189.004113,297.007614,188.508959,297.997922,187.948,298.951C187.031,300.503,188.954,317.725,188.742,324.024C188.53,330.323,191.733,345.489,191.733,345.489C190.346,351.373,190.66,351.813,190.964,354.021C191.088,354.779,191.369,354.682,191.601,354.594L191.866,356.685C192.024,357.761,192.836,357.867,192.866,356.923C192.722534,355.607743,192.776124,354.27844,193.025,352.979L193.343,353.032C193.272569,354.792557,193.369672,356.555823,193.633,358.298C193.748,359.56,194.948,359.665,194.904,358.456C194.649772,356.680007,194.685571,354.874519,195.01,353.11L195.248,353.269C195.120458,354.987166,195.227441,356.714698,195.566,358.404C195.76,359.736,196.73,359.842,196.836,358.669C196.636,354.448,196.761,358.993,196.995,350.093L197.55,351.285L197.524,352.741C197.524,353.985,198.524,353.985,198.768,352.82L198.953,351.471C198.442,348.259,198.626,347.549,196.342,344.333C196.342,344.333,196.13,324.006,196.271,322.733C196.412,321.46,197.189,306.287,198.177,306.852C199.165,307.417,204.567,308.171,204.567,308.171C203.694,315.9,210.096,328.917,210.096,328.917L210.519,328.759C211.064,331.159,209.778,330.559,211.498,335.244L211.233,337.705C211.215,338.896,211.939,338.949,212.106,338.261L212.635,335.852L213.218,336.62L213.456,339.638C213.561,340.661,214.285,340.644,214.409,339.982L214.436,336.62L214.912,336.647L216.685,340.67C217.038,341.508,217.796,341.278,217.717,340.537L216.393,336.25L218.669,339.823C219.154,340.644,220.018,340.256,219.701,339.506C217.322,335.225,217.943,336.531,216.842,333.629C218.183,335.12,217.385,334.653,218.88,336.779C219.38,337.432,220.018,336.902,219.595,336.011L218.934,334.396C217.146,331.016,218.081,332.38,214.834,328.415L214.729,327.144C214.623,325.873,211.235,308.934,213.776,308.828C216.317,308.722,227.433,314.439,227.433,314.439C228.069,318.145,232.303,325.767,232.303,325.767C231.88,328.097,235.479,351.176,235.479,351.176C227.645,360.917,224.469,383.255,224.469,383.255C224.469,383.255,221.293,383.784,219.811,385.478C218.329,387.172,221.611,392.889,222.458,396.911C223.305,400.933,227.434,408.769,228.387,407.811C229.34,406.853,229.869,405.376,229.446,402.305C229.023,399.234,230.081,393.205,230.081,393.205L231.67,392.888C231.988,389.606,242.57,361.762,245.115,357.738C247.66,353.714,248.291,329.471,248.291,329.471L261.239,338.046C255.131,342.176,252.632,362.291,250.727,362.82C248.822,363.349,246.492,366.949,247.233,367.69C247.974,368.431,250.514,374.99,251.15,377.959C251.786,380.928,256.443,385.899,257.608,385.053C258.773,384.207,258.561,381.664,257.82,378.488C257.079,375.312,258.254,370.124,258.254,370.124L259.619,370.124C259.619,370.124,261.419,365.36,262.266,362.29C263.113,359.22,270.523,343.021,271.366,341.857C272.209,340.693,272.956,338.581,271.9,334.453Z" transform="translate(0,0)" opacity="0" fill="rgb(15,16,21)" stroke="none" stroke-width="1"/></g></g></g></svg>