<svg id="evMEqU7noCb1" xmlns="http://www.w3.org/2000/svg" xmlns:xlink="http://www.w3.org/1999/xlink" viewBox="0 0 1276 865" shape-rendering="geometricPrecision" text-rendering="geometricPrecision"><style><![CDATA[#evMEqU7noCb12 {animation: evMEqU7noCb12_f_p 3000ms linear infinite normal forwards}@keyframes evMEqU7noCb12_f_p { 0% {fill: rgb(147,244,92)} 16.666667% {fill: rgb(237,253,39)} 33.333333% {fill: rgb(147,244,92)} 50% {fill: rgb(237,253,39)} 66.666667% {fill: rgb(147,244,92)} 83.333333% {fill: rgb(237,253,39)} 100% {fill: rgb(147,244,92)}} #evMEqU7noCb13_to {animation: evMEqU7noCb13_to__to 3000ms linear infinite normal forwards}@keyframes evMEqU7noCb13_to__to { 0% {transform: translate(-435.433px,-585.451px)} 16.666667% {transform: translate(-435.433px,-585.451px)} 50% {transform: translate(-435.433px,-580.451px)} 100% {transform: translate(-435.433px,-585.451px)}} #evMEqU7noCb14_to {animation: evMEqU7noCb14_to__to 3000ms linear infinite normal forwards}@keyframes evMEqU7noCb14_to__to { 0% {transform: translate(-554.875px,-580.928px)} 26.666667% {transform: translate(-554.875px,-584.928px)} 50% {transform: translate(-554.875px,-564.928px)} 100% {transform: translate(-554.875px,-580.928px)}} #evMEqU7noCb17_to {animation: evMEqU7noCb17_to__to 3000ms linear infinite normal forwards}@keyframes evMEqU7noCb17_to__to { 0% {transform: translate(-685.071px,-585.451px)} 20% {transform: translate(-685.071px,-587.451px)} 50% {transform: translate(-685.071px,-577.451px)} 100% {transform: translate(-685.071px,-585.451px)}} #evMEqU7noCb18_to {animation: evMEqU7noCb18_to__to 3000ms linear infinite normal forwards}@keyframes evMEqU7noCb18_to__to { 0% {transform: translate(-664.752px,-580.928px)} 26.666667% {transform: translate(-664.752px,-584.928px)} 50% {transform: translate(-664.752px,-564.928px)} 100% {transform: translate(-664.752px,-579.928px)}} #evMEqU7noCb22_to {animation: evMEqU7noCb22_to__to 3000ms linear infinite normal forwards}@keyframes evMEqU7noCb22_to__to { 0% {transform: translate(325.905426px,482.055634px)} 23.333333% {transform: translate(325.905426px,481.055634px)} 53.333333% {transform: translate(325.905426px,488.355634px)} 100% {transform: translate(325.905426px,482.055634px)}}]]></style><g id="evMEqU7noCb2" transform="matrix(1 0 0 1 951.903 -3665.13)"><g id="evMEqU7noCb3" transform="matrix(1 0 0 1 -951.903 3665.13)" opacity="0"><rect id="evMEqU7noCb4" width="1276" height="865" rx="0" ry="0" fill="rgb(255,255,255)" stroke="none" stroke-width="1"/><rect id="evMEqU7noCb5" width="1275" height="864" rx="0" ry="0" transform="matrix(1 0 0 1 0.5 0.5)" fill="none" stroke="rgb(112,112,112)" stroke-width="1"/></g><g id="evMEqU7noCb6" transform="matrix(1 0 0 1 10915.6 12442.9)"><g id="evMEqU7noCb7" transform="matrix(1 0 0 1 -11579.1 -8777.75)"><g id="evMEqU7noCb8"><path id="evMEqU7noCb9" d="M1066.044,439.776C1060.232,402.729,1041.693,367.776,1010.958,335.876C928.106,249.9,765.64,221.7,718.453,221.585L718.161,221.585C694.561,221.639,642.151,228.719,585.28,246.53C528.409,264.341,467.08,292.888,425.652,335.878C394.916,367.778,376.378,402.729,370.566,439.778C365.982,469.073,369.888,499.359,381.557,525.068C394.63,553.827,436.665,631.631,442.918,643.18L437.948,665.4L434.56,680.519L432.869,688.081C432.599,689.267,432.28,690.781,432.015,692.181C431.751,693.616,431.515,695.036,431.337,696.481C429.830945,708.043119,430.854546,719.794407,434.337,730.922L452.93,790.102L462.218,819.673L464.549,827.073L465.711,830.773C465.882,831.353,466.146,832.1,466.378,832.773L467.089,834.853C469.105236,840.364243,471.713499,845.640452,474.868,850.589C481.226235,860.588231,489.64755,869.113534,499.568,875.594C500.83,876.369,502.058,877.208,503.368,877.923C504.64,878.633,506.012,879.434,507.098,879.992L514.018,883.692L525.196,889.754L540.661,912.944L628.94,1045.281L629.24,1045.704C630.479,1047.362,660.097,1086.58,706.495,1086.58L730.118,1086.58C776.518,1086.58,806.134,1047.361,807.373,1045.704L807.673,1045.281L895.952,912.944L911.416,889.754L922.594,883.692L929.519,879.992C930.604,879.434,931.971,878.632,933.243,877.923C934.549,877.208,935.777,876.368,937.043,875.594C946.96345,869.113534,955.384765,860.588231,961.743,850.589C964.901742,845.642844,967.510241,840.36616,969.522,834.853L970.232,832.773C970.463,832.096,970.732,831.348,970.904,830.773L972.067,827.073L974.392,819.673L983.68,790.102L1002.273,730.922C1005.757983,719.794966,1006.784312,708.043701,1005.281,696.481C1005.094,695.035,1004.862,693.615,1004.598,692.181C1004.339,690.781,1004.02,689.267,1003.744,688.081L1002.053,680.519L998.662,665.4L993.693,643.179C999.946,631.63,1041.981,553.826,1055.054,525.067C1066.728,499.357,1070.628,469.071,1066.044,439.776ZM1036.025,516.7C1026.808,536.976,1001.89,583.99,986.773,612.228L985.137,604.928L983.451,597.377C982.9,594.896,982.244,592.16,981.903,590.216C981.167191,585.961359,981.085583,581.619285,981.661,577.34C981.957026,575.196872,982.407872,573.077997,983.01,571C983.567,569.1,984.547,566.5,985.379,564.088L990.536,549.462L1011.156,490.962L964.548,575.023C963.69183,580.982701,963.751181,587.038226,964.724,592.98C965.258,596.127,965.824,598.408,966.354,600.98L967.979,608.553L980.97,669.147L984.226,684.287L985.851,691.86C986.132,693.198,986.33,694.211,986.551,695.343C986.738,696.453,986.915,697.575,987.051,698.696C988.13588,707.697485,987.256346,716.827171,984.473,725.456L965.362,784.441L955.809,813.941L953.418,821.319L952.233,825.008C952.024,825.653,951.848,826.118,951.649,826.665L951.104,828.252C949.519664,832.456394,947.485871,836.477377,945.038,840.245C940.117414,847.830892,933.631362,854.276711,926.015,859.15L920.853,862.15L920.753,862.204L845.338,905.876L810.515,926.054L848.837,912.254L877.754,901.854L872.741,910.364L860.741,928.354L790.414,1033.78C788.714,1035.969,768.355,1061.304,738.451,1065.486C730.777,1064.798,725.521,1056.494,722.237,1048.736C721.574308,1047.122166,720.049934,1046.027007,718.309,1045.914L718.3,1045.914C717.476297,1045.973648,716.682921,1046.249605,716,1046.714C715.271338,1047.216848,714.704657,1047.92077,714.369,1048.74C711.091,1056.497,705.835,1064.802,698.155,1065.49C668.255,1061.308,647.895,1035.973,646.193,1033.784L575.876,928.371L563.876,910.381L558.863,901.871L587.775,912.271L626.102,926.071L591.273,905.893L515.863,862.221L515.763,862.167L510.596,859.167C502.979677,854.293662,496.493634,847.847853,491.573,840.262C489.125129,836.494377,487.091336,832.473394,485.507,828.269L484.962,826.682C484.762,826.135,484.587,825.669,484.378,825.025L483.193,821.336L480.802,813.958L471.249,784.458L452.143,725.473C449.35712,716.844696,448.477532,707.714454,449.565,698.713C449.697,697.592,449.865,696.47,450.055,695.36C450.275,694.228,450.474,693.215,450.76,691.877L452.38,684.304L455.641,669.164L468.626,608.57L470.251,600.997C470.785,598.424,471.351,596.143,471.887,592.997C472.860936,587.05521,472.918606,580.99926,472.058,575.04L425.45,490.979L446.076,549.479L451.227,564.105C452.065,566.521,453.04,569.121,453.596,571.017C454.200509,573.092084,454.651724,575.208783,454.946,577.35C455.520432,581.629183,455.440518,585.970854,454.709,590.226C454.367,592.171,453.709,594.906,453.161,597.387L451.47,604.938L449.834,612.238C434.725,583.987,409.8,536.973,400.59,516.7C391.527,496.771,367.662,425.846,440.779,349.971C482.924,306.245,546.687,280.011,592.755,265.71C648.475,248.424,698.294,242.11,718.304,242.081L718.452,242.081C738.552,242.146,788.27,248.468,843.852,265.71C889.925,280.01,953.689,306.245,995.828,349.971C1068.953,425.843,1045.082,496.768,1036.025,516.7Z" transform="matrix(1 0 0 0.986807 -368.695 -208.585)" fill="rgb(66,63,191)" stroke="none" stroke-width="1"/><path id="evMEqU7noCb10" d="M1027.255,428.807C1021.766,393.623,1004.255,360.424,975.233,330.132C896.989,248.476,743.56,221.693,699,221.585L698.725,221.585C676.441,221.636,626.943,228.361,573.235,245.276C519.527,262.191,461.608,289.3,422.483,330.132C393.457,360.424,375.95,393.623,370.461,428.807C366.132,456.629,369.821,485.393,380.841,509.807C393.187,537.12,432.884,611.013,438.789,621.981L434.096,643.081L430.896,657.44L429.296,664.622C429.041,665.749,428.739,667.184,428.489,668.517C428.239,669.88,428.021,671.228,427.849,672.602C426.427645,683.582337,427.395041,694.74014,430.685,705.312L448.244,761.518L457.016,789.603L459.216,796.631L460.316,800.145C460.477,800.695,460.727,801.405,460.946,802.045L461.617,804.02C463.519893,809.251857,465.982872,814.262642,468.963,818.965C474.958992,828.452355,482.912872,836.549091,492.292,842.713C493.484,843.448,494.644,844.246,495.877,844.925C497.077,845.599,498.377,846.36,499.399,846.89L505.934,850.404L516.49,856.161L531.1,878.2L614.469,1003.884L614.75,1004.284C615.921,1005.859,643.891,1043.106,687.708,1043.106L710.017,1043.106C753.835,1043.106,781.805,1005.859,782.975,1004.284L783.256,1003.884L866.621,878.2L881.221,856.176L891.777,850.419L898.317,846.905C899.342,846.375,900.632,845.614,901.834,844.94C903.067,844.261,904.227,843.463,905.419,842.728C914.798128,836.564091,922.752008,828.467355,928.748,818.98C931.732264,814.279961,934.195469,809.268715,936.094,804.035L936.765,802.06C936.984,801.417,937.233,800.707,937.4,800.16L938.5,796.646L940.7,789.618L949.472,761.533L967.031,705.327C970.322514,694.755482,971.291614,683.597699,969.872,672.617C969.695,671.243,969.472,669.895,969.227,668.532C968.983,667.199,968.681,665.764,968.421,664.637L966.821,657.455L963.621,643.096L958.928,621.996C964.833,611.028,1004.528,537.135,1016.876,509.822C1027.9,485.394,1031.584,456.63,1027.255,428.807ZM998.905,501.861C990.205,521.118,966.669,565.768,952.393,592.587L950.848,585.652L949.256,578.48C948.736,576.124,948.116,573.526,947.794,571.68C947.099024,567.638765,947.02181,563.515421,947.565,559.451C947.845292,557.418363,948.271391,555.408513,948.84,553.437C949.366,551.637,950.292,549.167,951.077,546.872L955.947,532.981L975.421,477.424L931.405,557.26C930.59645,562.920276,930.652422,568.670535,931.571,574.314C932.076,577.303,932.606,579.469,933.111,581.914L934.646,589.106L946.914,646.654L949.989,661.033L951.524,668.225C951.789,669.496,951.977,670.458,952.185,671.533C952.362,672.588,952.529,673.653,952.654,674.718C953.678198,683.266215,952.847668,691.934765,950.219,700.133L932.17,756.153L923.149,784.171L920.891,791.178L919.772,794.678C919.572,795.29,919.408,795.733,919.221,796.252L918.706,797.759C917.210256,801.750419,915.289543,805.569383,912.977,809.15C908.337305,816.347407,902.211989,822.469313,895.012,827.105L890.137,829.955L890.044,830.007L818.824,871.483L785.937,890.65L822.127,877.55L849.436,867.678L844.701,875.76L833.37,892.842L766.957,992.952C765.349,995.03,746.125,1019.092,717.885,1023.063C710.638,1022.41,705.674,1014.523,702.573,1007.156C701.951534,1005.626391,700.511383,1004.585786,698.864,1004.476L698.859,1004.476C698.079901,1004.531221,697.329386,1004.792089,696.684,1005.232C695.995143,1005.710629,695.460137,1006.379039,695.144,1007.156C692.044,1014.523,687.085,1022.41,679.832,1023.063C651.591,1019.091,632.367,995.03,630.76,992.952L564.352,892.842L553.02,875.756L548.286,867.674L575.586,877.546L611.786,890.646L578.894,871.482L507.678,830.01L507.584,829.958L502.704,827.108C495.504031,822.472289,489.378719,816.350387,484.739,809.153C482.426581,805.572466,480.506192,801.753479,479.011,797.762L478.496,796.255C478.309,795.735,478.142,795.293,477.944,794.681L476.825,791.181L474.567,784.174L465.546,756.156L447.5,700.133C444.868579,691.935331,444.037991,683.266181,445.065,674.718C445.19,673.653,445.351,672.588,445.528,671.533C445.736,670.458,445.928,669.496,446.194,668.225L447.724,661.033L450.804,646.654L463.067,589.106L464.602,581.914C465.102,579.47,465.637,577.304,466.147,574.314C467.066556,568.670508,467.120845,562.919847,466.308,557.26L422.3,477.424L441.779,532.981L446.644,546.872C447.435,549.167,448.356,551.636,448.881,553.437C449.451994,555.407916,449.87813,557.41794,450.156,559.451C450.698436,563.515306,450.622915,567.638285,449.932,571.68C449.609,573.527,448.985,576.125,448.47,578.48L446.87,585.652L445.325,592.587C431.054,565.768,407.517,521.117,398.818,501.861C390.259,482.934,367.718,415.574,436.772,343.513C476.572,301.985,536.79,277.069,580.295,263.488C632.915,247.071,679.964,241.078,698.86,241.047L699,241.047C717.985,241.109,764.935,247.113,817.425,263.488C860.935,277.07,921.152,301.988,960.948,343.513C1030,415.575,1007.459,482.934,998.906,501.862Z" transform="matrix(1 0 0 1 -349.248 -196.968)" fill="rgb(15,16,21)" stroke="none" stroke-width="1"/><path id="evMEqU7noCb11" d="M589.776,944.545L568.07,1039.957L618.191,1157.657L845.471,1191.306L970.976,1131.485L1005.535,1007.355L953.191,928.091Z" transform="matrix(1 0 0 1 -435.433 -541.452)" fill="rgb(255,255,255)" stroke="none" stroke-width="1"/><path id="evMEqU7noCb12" d="M998.2,456.924L984.74,382.582L945.356,332.23L861.6,283.373L763.39,249.679L684.123,240L584.415,260.939L495.675,297.332L431.862,346.687L395.742,413.987L385,482.289L424.385,565.545L453.3,603.434L443.828,656.279L443.828,694.9L476.268,794.37L502.656,829.235L533.067,850.206L605.355,970.852L651.22,1012.729L687.32,1012.729L724.449,1010.735L770.207,982.817L840.663,861.672L869.08,834.252L899.491,808.827L935.884,730.058L944.359,678.21L934.887,614.9L985.738,517.685ZM633.265,797.139C624.952451,802.535545,615.198119,805.282896,605.291,805.018C589.476,804.346,575.244,796.65,562.699,787.542C562.188,787.17,561.68,786.794,561.172,786.418C546.215479,781.437705,533.416813,771.483304,524.908,758.213C523.177018,755.422875,522.536106,752.09227,523.108,748.859C521.733109,747.376577,520.503797,745.765512,519.437,744.048C517.853835,741.244592,516.509423,738.312912,515.418,735.284C515.103,734.512,514.795,733.738,514.486,732.964C514.22,732.408,513.965,731.847,513.694,731.293C512.422408,728.773448,511.800898,725.975965,511.886,723.155C509.798,718.967,507.894,714.691,506.225,710.322C503.215062,702.124348,501.804278,693.425754,502.069,684.697C502.226,676.225,503.408,667.757,502.682,659.297C502.62,658.946,502.56,658.597,502.49,658.242C500.879,650.142,504.729,642.75,512.762,640.151C519.94,637.828,529.349,642.864,530.853,650.423C532.247181,658.08936,532.64414,665.903825,532.034,673.672C531.666,679.906,531.189,686.151,531.728,692.38C532.437819,696.173479,533.521781,699.887289,534.964,703.467L534.998,703.554C535.051,703.664,535.105,703.773,535.154,703.881Q535.84,705.399,536.571,706.897C537.633,709.077,538.757,711.226,539.924,713.352C544.375276,721.426887,549.34258,729.206358,554.795,736.642C555.452941,737.552729,555.954792,738.566568,556.28,739.642C556.515,739.922,556.745,740.207,556.98,740.486C560.730972,744.94969,564.709586,749.21702,568.9,753.271C570.872,755.16,572.9,756.988,575.017,758.719L575.341,758.979C575.467,759.073,575.578,759.156,575.649,759.207C576.64,759.925,577.649,760.607,578.68,761.273C580.73721,762.586982,582.467735,764.352733,583.74,766.436C586.281,768.101,588.878,769.677,591.558,771.107Q593.529,772.159,595.558,773.094C595.998,773.262,596.436,773.432,596.879,773.594C599.170495,774.413408,601.522255,775.053338,603.913,775.508C605.665624,775.645038,607.42584,775.655733,609.18,775.54C610.838744,775.194153,612.475063,774.74834,614.08,774.205C614.294,774.105,614.507,774.005,614.717,773.895C615.991,773.245,617.217,772.516,618.423,771.746C625.357,767.314,634.369,770.546,638.545,777.022C642.963,783.877,639.741,793,633.265,797.139ZM879.708,709.863C875.297,734.392,860.531,757.513,841.727,773.581C821.645,790.742,796.196,802.101,769.414,801.39C761.357008,801.234099,754.862901,794.739992,754.707,786.683C754.358,778.883,761.717,771.772,769.414,771.976C773.035706,772.069888,776.659653,771.923567,780.262,771.538C784.098632,770.923693,787.889542,770.051721,791.609,768.928Q794.836,767.95,797.985,766.728C798.285,766.613,798.585,766.492,798.885,766.373C799.602,766.052,800.319,765.731,801.029,765.393C804.704989,763.644026,808.271535,761.673744,811.709,759.493Q814.453,757.754,817.087,755.848C817.752,755.367,818.42,754.726,819.13,754.282L819.268,754.171C822.44487,751.563851,825.471706,748.779069,828.334,745.83Q830.48,743.62,832.498,741.292Q833.446,740.198,834.364,739.079C834.478,738.94,834.803,738.531,835.123,738.127C835.533,737.579,836.075,736.857,836.248,736.616Q837.089,735.446,837.898,734.253Q839.612,731.725,841.176,729.099C843.129334,725.755623,844.91293,722.315927,846.52,718.793C846.595,718.608,846.67,718.422,846.742,718.236Q847.257,716.919,847.73,715.587Q848.673,712.933,849.447,710.222C850.389278,706.891337,851.127977,703.506413,851.659,700.086C853.216,686.222,852.67,671.963,852.67,658.058C852.67,649.813,859.409,643.709,867.377,643.351C875.319,642.996,882.084,650.365,882.084,658.058C882.079,675.243,882.761,692.889,879.708,709.864Z" transform="matrix(1 0 0 1 -343.63 -195.97767)" fill="rgb(147,244,92)" stroke="none" stroke-width="1"/><g id="evMEqU7noCb13_to" transform="translate(-435.433,-585.451)"><path id="evMEqU7noCb13" d="M732,1087.828C672.554,993.979,568.071,1018.805,568.071,1018.805C583.904,1019.688,592.35,1026.089,592.35,1026.089C592.35,1026.089,570.604,1104.763,614.15,1157.075C657.696,1209.387,717.716,1197.227,717.716,1197.227C712.416,1209.735,699.385,1217.219,697.416,1218.29L710.637,1212.283C710.637,1212.283,791.46,1181.693,732,1087.828ZM708.03,1183.886C707.676998,1186.600992,705.367835,1188.634766,702.63,1188.642C702.39135,1188.645426,702.152836,1188.6287,701.917,1188.592C667.517,1184.126,641.145,1169.887,623.557,1146.292C590.997,1102.605,602.613,1099.972,632.351,1139.82C648.115,1160.92,671.99,1173.686,703.323,1177.764C704.760046,1177.949216,706.064185,1178.699047,706.947234,1179.847798C707.830283,1180.99655,708.219544,1182.449651,708.029,1183.886Z" transform="translate(0,0)" fill="rgb(15,16,21)" stroke="none" stroke-width="1"/></g><g id="evMEqU7noCb14_to" transform="translate(-554.875,-580.928)"><path id="evMEqU7noCb14" d="M893.48,1066.925C893.48,1066.925,883.503,1071.547,875.905,1067.857C866.684,1063.379,855.696,1049.6,841.526,1032.289C832.208538,1020.850956,820.045783,1012.065576,806.259,1006.815C819.316736,1014.419002,830.269289,1025.162912,838.123,1038.072C850.842,1059.296,862.814,1077.498,874.075,1079.192C885.336,1080.886,891.7,1073.313,893.48,1066.925Z" transform="translate(0,0)" fill="rgb(15,16,21)" stroke="none" stroke-width="1"/></g><path id="evMEqU7noCb15" d="M927.366,1445.424C927.366,1445.424,946.356,1443.512,955.351,1430.258C964.346,1417.004,955.494,1410.304,952.997,1409.55C950.309,1408.738,943.376,1408.75,941.515,1416.838C939.654,1424.926,940.688,1427.483,937.048,1434.789C933.8,1441.319,927.366,1445.424,927.366,1445.424Z" transform="matrix(1 0 0 1 -615.607 -782.712)" fill="rgb(15,16,21)" stroke="none" stroke-width="1"/><path id="evMEqU7noCb16" d="M999.741,422.391C994.482,388.291,977.706,356.125,949.892,326.771C874.918,247.644,727.9,221.69,685.2,221.585L684.936,221.585C663.584,221.635,616.153,228.151,564.689,244.543C513.225,260.935,457.728,287.208,420.238,326.772C392.424,356.126,375.649,388.297,370.389,422.392C366.241,449.353,369.776,477.226,380.335,500.887C392.165,527.354,430.204,598.959,435.862,609.587L431.362,630.037L428.3,643.951L426.769,650.91C426.525,652.002,426.235,653.393,425.996,654.684C425.757,656.005,425.547,657.311,425.383,658.642C424.020254,669.281569,424.9466,680.089509,428.1,690.342L444.926,744.808L453.331,772.023L455.44,778.833L456.492,782.233C456.646,782.767,456.886,783.455,457.092,784.078L457.735,785.993C463.265119,801.317806,473.568584,814.462662,487.129,823.493C488.271,824.206,489.382,824.978,490.564,825.637C491.716,826.29,492.957,827.028,493.939,827.537L500.201,830.942L510.316,836.521L524.31,857.863L604.2,979.656L604.469,980.045C605.591,981.571,632.392,1017.665,674.379,1017.665L695.756,1017.665C737.743,1017.665,764.544,981.571,765.666,980.045L765.935,979.656L845.821,857.863L859.815,836.521L869.93,830.942L876.196,827.537C877.178,827.024,878.415,826.286,879.566,825.637C880.747,824.979,881.859,824.206,883.001,823.493C892.006017,817.501282,899.627368,809.655252,905.355,800.48C908.216753,795.920651,910.576819,791.065064,912.394,785.998L913.037,784.083C913.247,783.46,913.486,782.772,913.645,782.238L914.697,778.838L916.797,772.028L925.202,744.813L942.028,690.347C945.182835,680.094823,946.110882,669.28693,944.75,658.647C944.58,657.316,944.371,656.01,944.132,654.689C943.898,653.398,943.609,652.007,943.359,650.915L941.829,643.956L938.763,630.042L934.263,609.592C939.921,598.963,977.963,527.358,989.79,500.892C1000.359,477.225,1003.889,449.352,999.741,422.391ZM972.576,493.183C964.235,511.843,941.686,555.111,928.007,581.1L926.526,574.38L925,567.431C924.5,565.148,923.908,562.631,923.6,560.84C922.934036,556.923251,922.860213,552.928682,923.381,548.99C923.649074,547.020801,924.057107,545.073204,924.602,543.162C925.102,541.417,925.993,539.024,926.746,536.8L931.413,523.34L950.073,469.503L907.9,546.866C907.124999,552.351873,907.178598,557.923053,908.059,563.393C908.543,566.293,909.051,568.393,909.535,570.756L911.006,577.726L922.761,633.492L925.707,647.426L927.178,654.395C927.432,655.626,927.612,656.559,927.811,657.601C927.98,658.623,928.14,659.655,928.26,660.687C929.241919,668.968839,928.446568,677.364856,925.927,685.315L908.629,739.6L899.984,766.751L897.82,773.541L896.748,776.941C896.559,777.534,896.399,777.963,896.22,778.466L895.726,779.927C891.399952,791.592381,883.442779,801.560581,873.026,808.364L868.354,811.126L868.264,811.176L800.019,851.368L768.5,869.934L803.178,857.234L829.346,847.667L824.809,855.499L813.951,872.055L750.313,969.065C748.772,971.079,730.351,994.395,703.291,998.244C696.346,997.611,691.591,989.968,688.619,982.829C688.032499,981.351305,686.650912,980.340577,685.065,980.229L685.06,980.229C683.471255,980.336684,682.086029,981.348366,681.5,982.829C678.534,989.968,673.778,997.611,666.828,998.244C639.768,994.395,621.346,971.079,619.806,969.065L556.173,872.055L545.319,855.5L540.782,847.668L566.945,857.235L601.628,869.935L570.111,851.364L501.871,811.172L501.781,811.122L497.105,808.36C486.688125,801.556687,478.730923,791.588451,474.405,779.923L473.911,778.462C473.732,777.962,473.572,777.53,473.382,776.937L472.31,773.537L470.146,766.747L461.5,739.6L444.211,685.314C441.689102,677.36433,440.893703,668.96781,441.878,660.686C441.997,659.654,442.152,658.622,442.322,657.6C442.522,656.558,442.701,655.626,442.96,654.394L444.426,647.425L447.377,633.491L459.128,577.725L460.599,570.755C461.083,568.387,461.591,566.288,462.08,563.392C462.961349,557.922045,463.013602,552.350523,462.235,546.865L420.057,469.5L438.722,523.337L443.383,536.797C444.141,539.021,445.023,541.414,445.527,543.159C446.074035,545.069674,446.482101,547.017426,446.748,548.987C447.268026,552.925569,447.195895,556.919776,446.534,560.837C446.225,562.627,445.627,565.144,445.134,567.428L443.603,574.378L442.122,581.098C428.447,555.109,405.893,511.841,397.558,493.181C389.358,474.84,367.758,409.566,433.926,339.736C472.064,299.494,529.765,275.35,571.452,262.188C621.874,246.28,666.952,240.472,685.064,240.442L685.199,240.442C703.391,240.502,748.379,246.32,798.676,262.188C840.369,275.352,898.07,299.5,936.2,339.738C1002.374,409.569,980.772,474.842,972.576,493.183Z" transform="matrix(1 0 0 1 -335.454 -187.165)" fill="rgb(237,253,39)" stroke="none" stroke-width="1"/><g id="evMEqU7noCb17_to" transform="translate(-685.071,-585.451)"><path id="evMEqU7noCb17" d="M1087.726,1087.828C1028.265,1181.693,1109.088,1212.283,1109.088,1212.283L1122.309,1218.29C1120.345,1217.219,1107.309,1209.735,1102.009,1197.227C1102.009,1197.227,1162.033,1209.386,1205.581,1157.075C1249.129,1104.764,1227.381,1026.089,1227.381,1026.089C1227.381,1026.089,1235.826,1019.689,1251.66,1018.805C1251.656,1018.805,1147.172,993.978,1087.726,1087.828ZM1196.169,1146.297C1178.581,1169.887,1152.218,1184.126,1117.813,1188.597C1117.575794,1188.633467,1117.335971,1188.650191,1117.096,1188.647C1114.218386,1188.643595,1111.83755,1186.407023,1111.654514,1183.535233C1111.471478,1180.663444,1113.549102,1178.142708,1116.403,1177.774C1147.74,1173.696,1171.611,1160.933,1187.375,1139.83C1217.112,1099.977,1228.729,1102.609,1196.169,1146.3Z" transform="translate(0,0)" fill="rgb(15,16,21)" stroke="none" stroke-width="1"/></g><g id="evMEqU7noCb18_to" transform="translate(-664.752,-580.928)"><path id="evMEqU7noCb18" d="M1080.728,1038.071C1088.581531,1025.162113,1099.533707,1014.418236,1112.591,1006.814C1098.804217,1012.064576,1086.641462,1020.849956,1077.324,1032.288C1063.154,1049.599,1052.167,1063.378,1042.945,1067.856C1035.345,1071.546,1025.37,1066.924,1025.37,1066.924C1027.151,1073.312,1033.515,1080.885,1044.776,1079.19C1056.037,1077.495,1068.009,1059.3,1080.728,1038.071Z" transform="translate(0,0)" fill="rgb(15,16,21)" stroke="none" stroke-width="1"/></g><path id="evMEqU7noCb19" d="M1021.468,1409.55C1018.968,1410.305,1010.119,1417.005,1019.114,1430.258C1028.109,1443.511,1047.099,1445.424,1047.099,1445.424C1047.099,1445.424,1040.67,1441.324,1037.417,1434.789C1033.777,1427.482,1034.81,1424.932,1032.95,1416.838C1031.09,1408.744,1024.155,1408.738,1021.468,1409.55Z" transform="matrix(1 0 0 1 -659.635 -782.712)" fill="rgb(15,16,21)" stroke="none" stroke-width="1"/><path id="evMEqU7noCb20" d="M1002.829,1543.509C1002.754149,1542.322959,1002.605865,1541.142696,1002.385,1539.975C1002.142605,1538.819933,1001.812652,1537.684988,1001.398,1536.58C999.892016,1532.18301,996.769418,1528.523772,992.664,1526.345L989.578,1528.845C990.234213,1532.103468,990.472132,1535.432328,990.286,1538.751C990.266,1538.94,990.236,1539.125,990.226,1539.324L989.388,1539.105C987.503,1538.631,985.599,1538.232,983.68,1537.838C979.851,1537.051,975.98,1536.447,972.039,1535.979C964.879716,1535.050918,957.611228,1536.436009,951.295,1539.932C949.316,1540.994,947.611,1542.106,946.095,1543.047C943.636445,1544.767998,940.934642,1546.112159,938.079,1547.035C936.598941,1547.504094,935.094367,1547.892005,933.572,1548.197C932.784,1548.347,932.002,1548.497,931.219,1548.626L929.056,1548.936L929,1548.936L926.836,1548.626C926.048,1548.497,925.266,1548.347,924.483,1548.197C922.960499,1547.892591,921.455893,1547.504672,919.976,1547.035C917.118425,1546.11232,914.41462,1544.768169,911.954,1543.047C910.434,1542.105,908.729,1540.994,906.754,1539.932C900.434441,1536.43526,893.162233,1535.051179,886,1535.982C882.061,1536.45,878.188,1537.054,874.359,1537.841C872.444,1538.235,870.535,1538.634,868.651,1539.108L867.818,1539.327C867.808,1539.127,867.778,1538.943,867.758,1538.754C867.566225,1535.435649,867.801483,1532.106408,868.458,1528.848L865.372,1526.348C861.267482,1528.528167,858.145001,1532.18685,856.637,1536.583C856.224156,1537.688163,855.895878,1538.823096,855.655,1539.978C855.430203,1541.145232,855.280231,1542.325638,855.206,1543.512C855.186,1544.095,855.166,1544.698,855.186,1545.297L855.186,1545.526C855.180537,1545.572507,855.180537,1545.619493,855.186,1545.666L855.226,1545.96C855.265576,1546.355439,855.335448,1546.747256,855.435,1547.132C855.630785,1547.921021,855.927215,1548.681591,856.317,1549.395C857.94539,1552.374739,861.033682,1554.265562,864.428,1554.361C864.848754,1554.37234,865.269811,1554.358983,865.689,1554.321L866.302,1554.241L866.802,1554.151L867.465,1554.031L868.796,1553.812L871.453,1553.418C873.233,1553.169,875.007,1552.9,876.797,1552.691C880.347,1552.276,883.897,1551.898,887.416,1551.678C888.209,1551.648,888.887,1551.619,889.61,1551.619C890.293164,1551.625858,890.975472,1551.669254,891.654,1551.749C892.940878,1551.854149,894.21093,1552.11024,895.438,1552.512C897.861,1553.23,900.303,1554.685,903.664,1556.694C905.534445,1557.815911,907.471349,1558.823101,909.464,1559.71C911.599817,1560.600987,913.807845,1561.307891,916.064,1561.823C918.203962,1562.30562,920.376467,1562.630493,922.564,1562.795C923.646,1562.895,924.718,1562.935,925.8,1562.945C926.348,1562.945,926.887,1562.945,927.44,1562.935L928.283,1562.896L929.016,1562.855L929.749,1562.896L930.592,1562.935C931.15,1562.945,931.683,1562.945,932.232,1562.945C933.314,1562.935,934.385,1562.895,935.467,1562.795C937.654533,1562.630493,939.827038,1562.30562,941.967,1561.823C944.223129,1561.307797,946.431149,1560.600896,948.567,1559.71C950.559582,1558.822959,952.496478,1557.815773,954.367,1556.694C957.732,1554.685,960.175,1553.229,962.593,1552.512C963.82006,1552.110204,965.090117,1551.854112,966.377,1551.749C967.055544,1551.66943,967.737843,1551.626035,968.421,1551.619C969.144,1551.619,969.821,1551.648,970.614,1551.678C974.129,1551.898,977.683,1552.278,981.238,1552.691C983.023,1552.9,984.797,1553.169,986.577,1553.418L989.234,1553.812L990.565,1554.031L991.233,1554.151L991.726,1554.241L992.345,1554.321C992.762512,1554.359078,993.181911,1554.372435,993.601,1554.361C996.995378,1554.265764,1000.083763,1552.374885,1001.712,1549.395C1002.106171,1548.683641,1002.402832,1547.922479,1002.594,1547.132C1002.693784,1546.747307,1002.763659,1546.355472,1002.803,1545.96L1002.843,1545.666C1002.848595,1545.619501,1002.848595,1545.572499,1002.843,1545.526L1002.843,1545.297C1002.869,1544.7,1002.848,1544.092,1002.829,1543.509ZM868.578,1544.128L868.568,1544.033C868.559201,1543.86462,868.53578,1543.697323,868.498,1543.533C868.45289,1543.363231,868.397794,1543.196274,868.333,1543.033C868.331889,1543.017915,868.328518,1543.003083,868.323,1542.989C868.32483,1542.968475,868.321388,1542.947822,868.313,1542.929C868.392669,1543.124429,868.459478,1543.324856,868.513,1543.529C868.550961,1543.69329,868.574385,1543.860602,868.583,1544.029L868.593,1544.149C868.582,1544.143,868.582,1544.133,868.577,1544.128ZM989.718,1542.992C989.718,1543.008,989.718,1543.022,989.708,1543.036C989.643265,1543.199295,989.58817,1543.366249,989.543,1543.536C989.505176,1543.700315,989.481753,1543.867615,989.473,1544.036L989.473,1544.131C989.463,1544.136,989.463,1544.146,989.453,1544.156L989.463,1544.036C989.471496,1543.867591,989.494921,1543.700268,989.533,1543.536C989.586793,1543.331936,989.653596,1543.131527,989.733,1542.936C989.723481,1542.952848,989.718004,1542.971675,989.717,1542.991Z" transform="matrix(1 0 0 1 -579.41 -841.453)" fill="rgb(15,16,21)" stroke="none" stroke-width="1"/><path id="evMEqU7noCb21" d="M1000.336,1628.088L953.112,1628.088C949.712,1628.088,950.112,1630.749,950.72,1633.647C951.389864,1636.03061,953.616864,1637.635958,956.09,1637.518L997.358,1637.518C999.831136,1637.635958,1002.058136,1636.03061,1002.728,1633.647C1003.334,1630.749,1003.741,1628.088,1000.336,1628.088Z" transform="matrix(1 0 0 1 -627.113 -892.473)" fill="rgb(15,16,21)" stroke="none" stroke-width="1"/><g id="evMEqU7noCb22_to" transform="translate(325.905426,482.055634)"><g id="evMEqU7noCb22" transform="translate(-325.905426,-482.055634)"><g id="evMEqU7noCb23" transform="matrix(0.544639 -0.838671 0.838671 0.544639 424.593 503.044)"><ellipse id="evMEqU7noCb24" rx="21.188" ry="13.959" transform="matrix(1 0 0 1 21.188 13.959)" fill="rgb(255,255,255)" stroke="none" stroke-width="1"/><ellipse id="evMEqU7noCb25" rx="20.688" ry="13.459" transform="matrix(1 0 0 1 21.188 13.959)" fill="none" stroke="rgb(112,112,112)" stroke-width="1"/></g><g id="evMEqU7noCb26" transform="matrix(0.951057 0.309017 -0.309017 0.951057 178.104 445.862)"><ellipse id="evMEqU7noCb27" rx="21.188" ry="13.959" transform="matrix(1 0 0 1 21.188 13.959)" fill="rgb(255,255,255)" stroke="none" stroke-width="1"/><ellipse id="evMEqU7noCb28" rx="20.688" ry="13.459" transform="matrix(1 0 0 1 21.188 13.959)" fill="none" stroke="rgb(112,112,112)" stroke-width="1"/></g><g id="evMEqU7noCb29" transform="matrix(0.951057 0.309017 -0.309017 0.951057 229.217 462.196)"><ellipse id="evMEqU7noCb30" rx="7.478" ry="5.982" transform="matrix(1 0 0 1 7.478 5.982)" fill="rgb(255,255,255)" stroke="none" stroke-width="1"/><ellipse id="evMEqU7noCb31" rx="6.978" ry="5.482" transform="matrix(1 0 0 1 7.478 5.982)" fill="none" stroke="rgb(112,112,112)" stroke-width="1"/></g><g id="evMEqU7noCb32" transform="matrix(0.97437 -0.224951 0.224951 0.97437 465.07 461.538)"><ellipse id="evMEqU7noCb33" rx="7.478" ry="5.982" transform="matrix(1 0 0 1 7.478 5.982)" fill="rgb(255,255,255)" stroke="none" stroke-width="1"/><ellipse id="evMEqU7noCb34" rx="6.978" ry="5.482" transform="matrix(1 0 0 1 7.478 5.982)" fill="none" stroke="rgb(112,112,112)" stroke-width="1"/></g></g></g></g></g></g></g></svg>