<svg xmlns="http://www.w3.org/2000/svg" width="369" height="395" viewBox="0 0 369 395">
  <g id="Group_4057" data-name="Group 4057" transform="translate(-16076 4049)">
    <g id="Rectangle_2544" data-name="Rectangle 2544" transform="translate(16076 -4049)" fill="#fff" stroke="#707070" stroke-width="1" opacity="0">
      <rect width="369" height="395" stroke="none"/>
      <rect x="0.5" y="0.5" width="368" height="394" fill="none"/>
    </g>
    <g id="Group_4054" data-name="Group 4054">
      <path id="Path_9952" data-name="Path 9952" d="M108.8-131c0-14.2-7.2-27.8-21.8-31a86.355,86.355,0,0,0-19-2c-13.2,0-28.6,2.8-39.6,10.6l4.2,4.6L27.4-144l7,4.4L30-135.2l5.2,4.2-5.6,7.2,12.2-.6c6.6-4.8,9.2-6,17.6-6,6.4,0,14,2.6,14,10.2,0,14.4-27,24.2-38.2,27.2l5.6,6.2-7.6,2.4,2.2,5.8-6,3.8c10.4,5,22.6,9.4,22.6,23,0,18-23.2,24.2-37.6,24.2a58.574,58.574,0,0,1-15.6-2L1-21.2l-13,1.8,6.2,6-6,3.6,4,5-6.4,2.6.6,3.2c11,2.2,22,4,33.2,4C42.4,5,61-2.6,75.4-20.8a54.834,54.834,0,0,0,11.8-34c0-8.4-2-17.8-7-24.8,12.4-8.8,18-16.2,24-30.4A54.335,54.335,0,0,0,108.8-131Zm99.1,95.16c0,6.44-4.48,23.1-12.6,23.1-3.22,0-4.06-2.52-4.06-5.32,0-6.3,6.58-22.26,13.86-22.26C207.62-40.32,207.9-37.8,207.9-35.84Zm18.76-.28c0-6.16-2.38-16.8-8.82-19.6l-.42,4.06-3.08-.42v4.48l-7.14-3.22,3.08-2.66-2.24-1.4,1.4-3.08c-18.48,0-29.54,13.58-35.56,29.68a36.08,36.08,0,0,0-2.24,12.18c0,12.46,7,22.4,20.16,22.4,17.64,0,28.14-14.84,32.9-30.24A39.614,39.614,0,0,0,226.66-36.12ZM153.02-95.76c0,6.44-4.48,22.96-12.6,22.96-3.22,0-4.06-2.38-4.06-5.18,0-6.3,6.58-22.26,13.86-22.26C152.74-100.24,153.02-97.72,153.02-95.76Zm74.2-11.2,2.52-3.78-5.74-.14-.42-4.9c-7.7,2.38-24.92,4.9-33.04,4.9-8.26,0-22.4-2.38-30.1-5.32a13.41,13.41,0,0,1-3.5,2.8l-3.78-1.4,1.4-3.08c-18.48,0-29.54,13.58-35.56,29.68a36.08,36.08,0,0,0-2.24,12.18c0,12.6,7,22.26,20.16,22.26,17.78,0,28-14.7,32.9-30.1a52.059,52.059,0,0,0,2.52-12.32,63.286,63.286,0,0,0,7.28.28h4.76c3.5,0,7-1.26,10.5-1.68-15.82,17.64-30.94,36.12-45.5,54.88-9.52,12.32-20.86,26.46-28.98,39.76l.28,4.06a49.9,49.9,0,0,0,8.68-3.22L128.1,4.48l8.54-5.74-.56,5.32,3.36-.7c14-20.58,31.08-41.3,47.18-60.34,8.68-10.22,17.5-20.3,26.6-30.24,5.74-6.3,11.62-12.6,17.92-18.34Z" transform="translate(16150 -3790)" fill="#0ce8ad"/>
      <path id="Path_9952_-_Outline" data-name="Path 9952 - Outline" d="M68-164c-13.2,0-28.6,2.8-39.6,10.6l4.2,4.6L27.4-144l7,4.4L30-135.2l5.2,4.2-5.6,7.2,12.2-.6c6.6-4.8,9.2-6,17.6-6,6.4,0,14,2.6,14,10.2,0,14.4-27,24.2-38.2,27.2l5.6,6.2-7.6,2.4,2.2,5.8-6,3.8c10.4,5,22.6,9.4,22.6,23,0,18-23.2,24.2-37.6,24.2a58.575,58.575,0,0,1-15.6-2L1-21.2l-13,1.8,6.2,6-6,3.6,4,5-6.4,2.6.6,3.2c11,2.2,22,4,33.2,4C42.4,5,61-2.6,75.4-20.8a54.833,54.833,0,0,0,11.8-34c0-8.4-2-17.8-7-24.8,12.4-8.8,18-16.2,24-30.4a54.335,54.335,0,0,0,4.6-21c0-14.2-7.2-27.8-21.8-31a86.355,86.355,0,0,0-19-2m86.56,46.12c-18.48,0-29.54,13.58-35.56,29.68a36.079,36.079,0,0,0-2.24,12.18c0,12.6,7,22.26,20.16,22.26,17.78,0,28-14.7,32.9-30.1a52.059,52.059,0,0,0,2.52-12.32,63.284,63.284,0,0,0,7.28.28h4.76c3.5,0,7-1.26,10.5-1.68-15.82,17.64-30.94,36.12-45.5,54.88-9.52,12.32-20.86,26.46-28.98,39.76l.28,4.06a49.9,49.9,0,0,0,8.68-3.22L128.1,4.48l8.54-5.74-.56,5.32,3.36-.7c14-20.58,31.08-41.3,47.18-60.34,8.68-10.22,17.5-20.3,26.6-30.24,5.74-6.3,11.62-12.6,17.92-18.34l-3.92-1.4,2.52-3.78-5.74-.14-.42-4.9c-7.7,2.38-24.92,4.9-33.04,4.9-8.26,0-22.4-2.38-30.1-5.32a13.41,13.41,0,0,1-3.5,2.8l-3.78-1.4,1.4-3.08M140.42-72.8c-3.22,0-4.06-2.38-4.06-5.18,0-6.3,6.58-22.26,13.86-22.26,2.52,0,2.8,2.52,2.8,4.48,0,6.44-4.48,22.96-12.6,22.96m69.02,14.84c-18.48,0-29.54,13.58-35.56,29.68a36.079,36.079,0,0,0-2.24,12.18c0,12.46,7,22.4,20.16,22.4,17.64,0,28.14-14.84,32.9-30.24a39.613,39.613,0,0,0,1.96-12.18c0-6.16-2.38-16.8-8.82-19.6l-.42,4.06-3.08-.42v4.48l-7.14-3.22,3.08-2.66-2.24-1.4,1.4-3.08M195.3-12.74c-3.22,0-4.06-2.52-4.06-5.32,0-6.3,6.58-22.26,13.86-22.26,2.52,0,2.8,2.52,2.8,4.48,0,6.44-4.48,23.1-12.6,23.1M68-170a92.535,92.535,0,0,1,20.322,2.147C104.392-164.33,114.8-149.862,114.8-131a59.82,59.82,0,0,1-5.076,23.343c-5.812,13.754-11.41,21.606-21.6,29.632C92.467-69.352,93.2-60.072,93.2-54.8A61.008,61.008,0,0,1,80.1-17.076C65.157,1.816,45.366,11,19.6,11,7.477,11-4.087,9.021-14.777,6.883l-3.974-.795-2.25-12,3.492-1.418-3.265-4.081,5.185-3.111-9.435-9.13,18.507-2.563L-9.654-38.2.418-35.378A52.736,52.736,0,0,0,14.4-33.6C26.617-33.6,46-38.541,46-51.8c0-8.171-6.217-11.5-16.361-16.251L26.8-69.393,17.05-74.08l11-6.969-2.716-7.16,4.749-1.5-5.915-6.549L33.648-98.8C50.239-103.24,67.4-112.461,67.4-120.2c0-4.082-7.181-4.2-8-4.2-6.9,0-8.322.671-14.071,4.852L43.882-118.5l-27.044,1.33,10.009-12.869-5.808-4.691,3.8-3.8-7.268-4.568,6.575-6.069-4.754-5.206,5.538-3.927C39.293-168.479,58.08-170,68-170Zm86.56,46.12h9.318l-.995,2.189c6.84,2.533,19.891,4.811,27.657,4.811,7.608,0,24.265-2.468,31.268-4.632l7.114-2.2.6,6.964,11.254.274-4.3,6.447,6.089,2.175-7.383,6.727c-6.383,5.816-12.393,12.313-17.526,17.946C211.718-76.693,205.7-69.934,199.436-62.7a39.483,39.483,0,0,1,10-1.255h3.22l.055-.531,1.221.531h4.822l-.8,1.751,2.27.987c9.83,4.274,12.428,18.289,12.428,25.1A45.781,45.781,0,0,1,230.412-22.1C223.662-.263,209.581,12.3,191.8,12.3c-15.647,0-26.16-11.413-26.16-28.4a38.982,38.982,0,0,1,.584-6.647C158.5-12.977,151.082-3.086,144.4,6.735l-1.364,2-13.785,2.872.077-.728L119.5,17.49l1.991-10.4-6.309,1.5-.9-13.032,1-1.632c7.189-11.774,16.853-24.209,25.379-35.179l3.974-5.123q1.092-1.407,2.178-2.8a34.726,34.726,0,0,1-9.89,1.407c-15.647,0-26.16-11.357-26.16-28.26a42.251,42.251,0,0,1,2.59-14.2C121.477-111.955,136.1-123.88,154.56-123.88ZM180.133-89.9h-.513c-.675,0-1.361,0-2.052-.008-.273,1.429-.593,2.792-.934,4.085Q178.39-87.882,180.133-89.9Zm-37.146,8.247a34.1,34.1,0,0,0,2.856-7.006A38.426,38.426,0,0,0,142.987-81.653ZM197.828-21.6a34.8,34.8,0,0,0,2.9-7.158A38.209,38.209,0,0,0,197.828-21.6Z" transform="translate(16150 -3790)" fill="#423fbf"/>
    </g>
    <path id="Path_9953" data-name="Path 9953" d="M21.9,45.868H10.235A84.262,84.262,0,0,1,14.611,33.4c2.321-5.7,4.907-11.272,7.426-16.842l-2.851,1.326-.8-2.122-2.652,3.249-.133-4.774-3.382,3.912L11.03,16.229C8.047,22.462,5.2,28.827,2.543,35.192a147.724,147.724,0,0,0-5.5,14.852l.995.53,3.382-2.122-.332,3.58,2.122.464L.753,55.548h20.09l1.392-1.79L19.783,52.3l1.326-1.591-3.05-1.459,5.3-1.591ZM46.172,18.881l-.862-2.055-2.785,2.055-.464-4.641-3.846,4.376L37.287,16.3C31.32,28.429,26.281,42.95,22.634,55.946l3.249-2.586,1.525,2.055,3.05-4.376-.066,5.437,1.857-1.061,1.326,1.79c1.989-6.7,4.509-13.261,7.028-19.759,2.652-6.829,5.371-13.593,8.354-20.289Zm20.289,9.15a30.808,30.808,0,0,1-1.79,8.421C63.61,39.7,61.157,45.6,56.914,45.6c-1.79,0-1.923-2.055-1.923-3.382a24.448,24.448,0,0,1,2.254-9.15c1.26-2.719,4.111-7.625,7.559-7.625C66.263,25.446,66.462,26.838,66.462,28.031Zm10.476-.265c0-3.382-.928-9.482-4.442-11.073L72.23,19.81l-1.989-.862V21.8L65.666,19.81l1.989-1.724-1.392-.8.862-1.989c-11.4,0-17.04,9.283-20.621,18.9a26.319,26.319,0,0,0-1.857,9.283c0,6.034,2.652,11.272,9.15,11.935.729.066,1.459.133,2.188.133.332,0,.729-.066,1.061-.066l2.387,5.039,1.591.2.663-1.591,2.254,1.459.332-3.713,3.382,3.713.663-2.321,2.055.2-2.851-7.492C72.959,45.6,76.938,35.391,76.938,27.766Zm35.937-8.156-1.127-1.989-3.183,5.039-.066-4.907-2.387,2.652-.663-2.254-.8-.729a200.417,200.417,0,0,0-8.023,19.1c-.862,2.188-1.658,4.31-2.52,6.432l-.8,1.923C92.718,45.8,91.26,46,90.265,46c-.862,0-2.055-.133-2.453-1.061,1.326-8.089,6.7-19.693,10.543-27.053l-2.719,1.061-.2-2.785-2.52,3.116-.995-1.459L89.005,22l-.464-5.636-1.658.464C82.507,25.446,77.2,40.1,75.744,49.581l2.785-.6L78.4,51.371l2.52-.928.6,1.591-1.658,1.127.53.928-1.392,1.127c2.785.995,8.553,1.193,11.537,1.193,7.691,0,11.139-1.724,13.659-9.216,3.249-9.747,6.631-19.892,10.94-29.174Zm17.571-.729-.862-2.055L126.8,18.881l-.464-4.641-3.846,4.376-.928-2.321c-5.967,12.134-11.007,26.655-14.653,39.651l3.249-2.586,1.525,2.055,3.05-4.376-.066,5.437,1.857-1.061,1.326,1.79c1.989-6.7,4.509-13.261,7.028-19.759,2.652-6.829,5.371-13.593,8.354-20.289Zm21.483,12.068a17.657,17.657,0,0,1-.8,4.907c-.862,2.984-3.846,9.349-7.625,9.349-1.392,0-2.719-.133-4.111-.133,1.525-6.034,3.581-12.731,6.5-18.168,1.26-.066,2.52-.066,3.779-.066C151.6,26.838,151.929,29.49,151.929,30.949ZM162.6,28.1c0-6.631-2.453-12.068-9.747-12.4-1.127-.066-2.254-.066-3.382-.066a30.4,30.4,0,0,0-7.36.6l.6,2.586h-2.321v2.917l-1.724.862-1.724-1.459c-4.177,8.023-8.686,20.754-10.078,29.7l2.586-.6.6,2.055h1.989l-2.254,2.586c2.387.663,7.758.663,10.344.663h2.254C155.841,55.15,162.6,39.834,162.6,28.1Zm20.82-9.216-.862-2.055-2.785,2.055-.464-4.641-3.846,4.376-.928-2.321c-5.967,12.134-11.007,26.655-14.653,39.651l3.249-2.586,1.525,2.055,3.05-4.376-.066,5.437,1.857-1.061,1.326,1.79c1.989-6.7,4.509-13.261,7.028-19.759,2.652-6.829,5.371-13.593,8.354-20.289Zm33.086.6,1.724-2.254H187.8l-.464,1.525,4.045,1.79-4.111.995,1.127,1.989-3.713,1.392,1.392,1.459-1.989,2.254h9.349c-3.647,8.62-6.233,17.637-9.15,26.522l.8.729,2.652-2.652.928,1.857,2.122-1.857.995,4.045,2.652-2.851,1.591,1.459c2.785-9.018,5.5-18.764,9.681-27.251h10.211l-.8-1.79,2.055-1.591-2.586-2.122L219.1,21Zm32.556-2.122-3.249,2.055-.729-2.055-4.31,3.846.2-3.249-2.453,1.127-1.194-2.453-7.492,8.62-2.122-8.819-1.591,1.459-2.055-1.326-.729,1.79L220.82,15.7l-.6,5.106-2.785-3.05-.6.995,4.244,19.56-6.233,17.5,2.984-1.724.8,1.923,3.183-4.177.6,3.315,1.459-1.061,1.525,2.652,6.5-17.5,17.173-19.825Z" transform="translate(16137.447 -3751.78)" fill="#423fbf"/>
  </g>
</svg>
