<svg xmlns="http://www.w3.org/2000/svg" width="369" height="395" viewBox="0 0 369 395">
  <g id="Group_4055" data-name="Group 4055" transform="translate(-15662 4049)">
    <g id="Rectangle_2543" data-name="Rectangle 2543" transform="translate(15662 -4049)" fill="#fff" stroke="#707070" stroke-width="1" opacity="0">
      <rect width="369" height="395" stroke="none"/>
      <rect x="0.5" y="0.5" width="368" height="394" fill="none"/>
    </g>
    <g id="Group_4049" data-name="Group 4049" transform="translate(-3.55)">
      <path id="Path_9925" data-name="Path 9925" d="M100.4-149l5.2-3.6-3-2.2,2.6-5c-6.4-.4-12.8-.4-19.2-.4-16.8,0-33.8.6-50.4,4l1.6,5.8,7.2,3.4-14.2,3.4,4.4,4.2-.8,4.2,7.8,1.6-6,3.4c-7.6,11.8-13,25.6-18.8,38.4h7.4l-3,5.4,4.8,2L21.8-79C34.8-77.6,46-69,46-55.2c0,13.4-11.4,25-24.8,25A27.59,27.59,0,0,1,8-33.6l1.8,4.2-6.2.8,3.6,8.4L-5.2-22.8l2.8,7L-7-14.6l1.8,6.8-8,.8,2.8,4.2c8.8,6,19.2,8.6,29.8,8.6,35.2,0,63-29.8,63-64.4,0-10-2.6-22-9.6-29.6-4.6-5-9.4-7.4-15-10.8,4.2-9.6,8.8-19,12.6-28.6a153.022,153.022,0,0,1,33-3.6l3.4-4.2-4.4-5.4,8.2-4.4ZM198.9-35.84c0,6.44-4.48,23.1-12.6,23.1-3.22,0-4.06-2.52-4.06-5.32,0-6.3,6.58-22.26,13.86-22.26C198.62-40.32,198.9-37.8,198.9-35.84Zm18.76-.28c0-6.16-2.38-16.8-8.82-19.6l-.42,4.06-3.08-.42v4.48l-7.14-3.22,3.08-2.66-2.24-1.4,1.4-3.08c-18.48,0-29.54,13.58-35.56,29.68a36.08,36.08,0,0,0-2.24,12.18c0,12.46,7,22.4,20.16,22.4,17.64,0,28.14-14.84,32.9-30.24A39.614,39.614,0,0,0,217.66-36.12ZM144.02-95.76c0,6.44-4.48,22.96-12.6,22.96-3.22,0-4.06-2.38-4.06-5.18,0-6.3,6.58-22.26,13.86-22.26C143.74-100.24,144.02-97.72,144.02-95.76Zm74.2-11.2,2.52-3.78-5.74-.14-.42-4.9c-7.7,2.38-24.92,4.9-33.04,4.9-8.26,0-22.4-2.38-30.1-5.32a13.41,13.41,0,0,1-3.5,2.8l-3.78-1.4,1.4-3.08c-18.48,0-29.54,13.58-35.56,29.68a36.08,36.08,0,0,0-2.24,12.18c0,12.6,7,22.26,20.16,22.26,17.78,0,28-14.7,32.9-30.1a52.059,52.059,0,0,0,2.52-12.32,63.286,63.286,0,0,0,7.28.28h4.76c3.5,0,7-1.26,10.5-1.68-15.82,17.64-30.94,36.12-45.5,54.88-9.52,12.32-20.86,26.46-28.98,39.76l.28,4.06a49.9,49.9,0,0,0,8.68-3.22L119.1,4.48l8.54-5.74-.56,5.32,3.36-.7c14-20.58,31.08-41.3,47.18-60.34,8.68-10.22,17.5-20.3,26.6-30.24,5.74-6.3,11.62-12.6,17.92-18.34Z" transform="translate(15745 -3790)" fill="#0ce8ad"/>
      <path id="Path_9925_-_Outline" data-name="Path 9925 - Outline" d="M86-160.2c-16.8,0-33.8.6-50.4,4l1.6,5.8,7.2,3.4-14.2,3.4,4.4,4.2-.8,4.2,7.8,1.6-6,3.4c-7.6,11.8-13,25.6-18.8,38.4h7.4l-3,5.4,4.8,2L21.8-79C34.8-77.6,46-69,46-55.2c0,13.4-11.4,25-24.8,25A27.59,27.59,0,0,1,8-33.6l1.8,4.2-6.2.8,3.6,8.4L-5.2-22.8l2.8,7L-7-14.6l1.8,6.8-8,.8,2.8,4.2c8.8,6,19.2,8.6,29.8,8.6,35.2,0,63-29.8,63-64.4,0-10-2.6-22-9.6-29.6-4.6-5-9.4-7.4-15-10.8,4.2-9.6,8.8-19,12.6-28.6a153.022,153.022,0,0,1,33-3.6l3.4-4.2-4.4-5.4,8.2-4.4L100.4-149l5.2-3.6-3-2.2,2.6-5c-6.4-.4-12.8-.4-19.2-.4m59.56,42.32c-18.48,0-29.54,13.58-35.56,29.68a36.079,36.079,0,0,0-2.24,12.18c0,12.6,7,22.26,20.16,22.26,17.78,0,28-14.7,32.9-30.1a52.059,52.059,0,0,0,2.52-12.32,63.286,63.286,0,0,0,7.28.28h4.76c3.5,0,7-1.26,10.5-1.68-15.82,17.64-30.94,36.12-45.5,54.88-9.52,12.32-20.86,26.46-28.98,39.76l.28,4.06a49.905,49.905,0,0,0,8.68-3.22L119.1,4.48l8.54-5.74-.56,5.32,3.36-.7c14-20.58,31.08-41.3,47.18-60.34,8.68-10.22,17.5-20.3,26.6-30.24,5.74-6.3,11.62-12.6,17.92-18.34l-3.92-1.4,2.52-3.78-5.74-.14-.42-4.9c-7.7,2.38-24.92,4.9-33.04,4.9-8.26,0-22.4-2.38-30.1-5.32a13.41,13.41,0,0,1-3.5,2.8l-3.78-1.4,1.4-3.08M131.42-72.8c-3.22,0-4.06-2.38-4.06-5.18,0-6.3,6.58-22.26,13.86-22.26,2.52,0,2.8,2.52,2.8,4.48,0,6.44-4.48,22.96-12.6,22.96m69.02,14.84c-18.48,0-29.54,13.58-35.56,29.68a36.079,36.079,0,0,0-2.24,12.18c0,12.46,7,22.4,20.16,22.4,17.64,0,28.14-14.84,32.9-30.24a39.613,39.613,0,0,0,1.96-12.18c0-6.16-2.38-16.8-8.82-19.6l-.42,4.06-3.08-.42v4.48l-7.14-3.22,3.08-2.66-2.24-1.4,1.4-3.08M186.3-12.74c-3.22,0-4.06-2.52-4.06-5.32,0-6.3,6.58-22.26,13.86-22.26,2.52,0,2.8,2.52,2.8,4.48,0,6.44-4.48,23.1-12.6,23.1M86-166.2c6.525,0,13.049,0,19.574.412l9.2.575L110.3-156.6l5.641,4.137-2.672,1.85,11.867,4.421-13.487,7.237,2.884,3.539L106.262-125.2H103.4a146.677,146.677,0,0,0-28.637,2.812c-2.173,5.259-4.546,10.472-6.929,15.7q-1.2,2.626-2.388,5.26a49.479,49.479,0,0,1,11.769,9.165C87.31-81.3,88.4-65.07,88.4-58.6c0,38.819-30.953,70.4-69,70.4C6.946,11.8-4.528,8.466-13.78,2.157l-.965-.658-8.984-13.477L-12.8-13.07l-1.54-5.816,3.844-1L-14.93-30.971-2.859-28.44l-2.184-5.095,6.2-.8L-4.381-47.257l15.272,8.4A21.453,21.453,0,0,0,21.2-36.2c10.015,0,18.8-8.879,18.8-19,0-10.918-9.464-16.824-18.842-17.835l-10.7-1.153,5.986-7.7-3.747-1.561L14-85.8H7.494l3.841-8.476C12.568-97,13.782-99.763,15-102.546c4.07-9.268,8.262-18.817,13.513-27.613l-1.718-.352,1.3-6.8-10.009-9.554,13.005-3.114L28.11-160.79l6.286-1.288C52.13-165.71,70.434-166.2,86-166.2Zm59.56,42.32h9.318l-.995,2.189c6.84,2.533,19.891,4.811,27.657,4.811,7.608,0,24.265-2.468,31.268-4.632l7.114-2.2.6,6.964,11.254.274-4.3,6.447,6.089,2.174-7.383,6.727c-6.383,5.816-12.393,12.313-17.526,17.946C202.718-76.693,196.7-69.934,190.436-62.7a39.483,39.483,0,0,1,10-1.255h3.22l.055-.531,1.221.531h4.822l-.8,1.751,2.27.987c9.83,4.274,12.428,18.289,12.428,25.1A45.782,45.782,0,0,1,221.412-22.1C214.662-.263,200.581,12.3,182.8,12.3c-15.647,0-26.16-11.413-26.16-28.4a38.982,38.982,0,0,1,.584-6.647C149.5-12.977,142.082-3.086,135.4,6.735l-1.364,2-13.785,2.872.077-.728L110.5,17.49l1.991-10.4-6.309,1.5-.9-13.032,1-1.632c7.189-11.774,16.853-24.209,25.379-35.179l3.974-5.123q1.092-1.407,2.178-2.8a34.726,34.726,0,0,1-9.89,1.407c-15.647,0-26.16-11.357-26.16-28.26a42.251,42.251,0,0,1,2.59-14.2C112.477-111.955,127.1-123.88,145.56-123.88ZM171.133-89.9h-.513c-.675,0-1.361,0-2.052-.008-.273,1.429-.593,2.792-.934,4.085Q169.39-87.882,171.133-89.9Zm-37.146,8.247a34.1,34.1,0,0,0,2.856-7.005A38.423,38.423,0,0,0,133.987-81.653ZM188.828-21.6a34.8,34.8,0,0,0,2.9-7.158A38.207,38.207,0,0,0,188.828-21.6Z" transform="translate(15745 -3790)" fill="#423fbf"/>
    </g>
    <g id="Group_4052" data-name="Group 4052">
      <path id="Path_9924" data-name="Path 9924" d="M45.64-39.06l-.91-1.54-2.87,3.22-.35-4.97-2.73,3.01-1.19-2.24A157.926,157.926,0,0,0,22.68-23.1c-1.26-5.11-1.96-12.53-2.38-17.85l-2.1,1.89-.91-1.54-1.68,5.25-1.33-6.23-2.03,2.87-1.54-2.24C7.98-34.37,5.6-27.65,3.36-20.86,1.05-13.86-1.26-6.72-3.01.42L.56-1.47,1.19.14l2.52-4.2.7,5.11L6.86-1.47,8.05.42c1.54-4.62,3.08-9.31,5.04-13.79h.21A92.769,92.769,0,0,0,14.91-1.75l2.1-1.61,1.4,1.96C21.7-5.53,24.43-10.01,28-13.93h.21L24.43.14l.91-.42,2.8-3.22L28.42.07,30.8-1.82l.98,3.92,2.1-3.08L35.77.42c1.68-7.56,3.78-15.05,6.16-22.47a167.754,167.754,0,0,1,6.72-18.27ZM62.93-14.98H58.17a86.962,86.962,0,0,1,6.79-11.9h.14ZM74.76-38.64l-2.1-2.1-4.62,5.53-1.05-5.11-2.87,1.89-1.54-3.22A156.324,156.324,0,0,0,49.56-22.26,226.918,226.918,0,0,0,38.08-.7l4.76-1.61L43.33.07l3.71-4.76L47.6-.28,49-1.61,50.82.56l3.36-6.37h8.47L61.74.21l2.66-2.1L65.8.21l2.03-4.76L69.86-.42l1.61-1.47L74.06-.35V-.91a162.3,162.3,0,0,1,1.12-16.45c.84-7.84,1.89-15.61,3.08-23.38Zm29.26,10.36c0,3.78-5.46,6.23-8.68,6.23l3.08-7.49a5.547,5.547,0,0,1,2.8-.7C102.69-30.24,104.02-30.1,104.02-28.28Zm13.23-2.24c0-7.21-5.6-11.48-12.46-11.48a57.308,57.308,0,0,0-10.92,1.19l.14,2.03-1.82.49.35,3.01-1.96-.07-.7,2.1-2.03-2.17a146.044,146.044,0,0,0-6.37,17.01A172.211,172.211,0,0,0,76.58-.84L77.63.49l2.59-4.48.49,3.92,1.61-1.19.91,4.2L85.96-.77l2.03,2.38A105.762,105.762,0,0,1,91.84-10.5l.84-.21L98.21,1.47l.91-2.59L101.99.91l.49-3.71,3.78,4.76.35-3.57,3.15,1.26L104.3-13.44C110.81-16.31,117.25-23.03,117.25-30.52Zm39.69-10.29-3.43,2.03-.49-1.68-5.11,3.92.98-4.76-3.22,1.89-1.05-2.24L132.93-28.21l4.76-11.2-1.4-1.19-2.03,2.03-1.05-2.03-3.22,4.76.49-6.65-2.73,2.87-1.4-1.47c-3.15,6.72-5.88,13.72-8.4,20.65-2.38,6.51-4.69,13.23-6.44,19.95l3.22-2.59.63,3.15,4.27-5.74V-.56l1.82-1.05L122.5.77l4.69-14,4.2,14.49,1.82-1.61,2.45,1.89,1.19-2.87,2.03,1.05.56-3.92,2.17,2.87,1.33.07-4.34-16.8,18.34-20.58Zm24.85,2.03,2.24-1.82c-3.01-.21-6.02-.28-9.03-.28a82.862,82.862,0,0,0-11.76.7l.91,1.82-3.01.28,1.05,3.29-2.45,1.54-1.47-1.47c-4.62,9.17-8.61,19.18-10.36,29.33l3.71-1.68-.28,2.94,2.52.98L151.62.07a58.146,58.146,0,0,0,10.43.77,39.813,39.813,0,0,0,9.59-.91l1.33-2.24L168.7-3.5l3.99-1.68-1.61-.98,2.45-3.29a63.46,63.46,0,0,1-7.28.42,29.442,29.442,0,0,1-5.53-.42l1.61-5.74,12.32.14.84-1.54-1.75-1.54,2.38-1.54-2.87-1.82,3.22-1.89-.77-1.54-10.22.07,2.73-4.83a54.841,54.841,0,0,1,7.56-.49,35.14,35.14,0,0,1,4.69.28l-1.12-2.52L182-33.67l-3.57-2.03,5.95-.98Zm33.95.77,1.82-2.38H185.43l-.49,1.61,4.27,1.89-4.34,1.05,1.19,2.1-3.92,1.47,1.47,1.54-2.1,2.38h9.87c-3.85,9.1-6.58,18.62-9.66,28l.84.77,2.8-2.8.98,1.96,2.24-1.96,1.05,4.27,2.8-3.01L194.11.42c2.94-9.52,5.81-19.81,10.22-28.77h10.78l-.84-1.89,2.17-1.68-2.73-2.24,4.76-2.24Zm17.36-.63-.91-2.17-2.94,2.17-.49-4.9-4.06,4.62-.98-2.45C217.42-28.56,212.1-13.23,208.25.49l3.43-2.73,1.61,2.17,3.22-4.62-.07,5.74L218.4-.07l1.4,1.89c2.1-7.07,4.76-14,7.42-20.86,2.8-7.21,5.67-14.35,8.82-21.42Zm38.01-2.52-1.82,1.61-.56-2.24-3.5,4.83-.07-4.55-2.1,1.19-1.75-1.26c-2.45,5.46-5.81,12.39-7.35,18.06h-.14l-1.89-18.34-1.12,1.4-1.33-2.38-1.47,5.46-1.68-3.85-1.4,1.54-1.33-1.89c-3.57,7.7-6.79,15.61-9.73,23.59A145.737,145.737,0,0,0,228.2-.21l2.17-1.4.84,2.52,3.78-5.46.14,3.78,2.24-.98L238.7.14c1.68-4.55,3.22-9.38,5.6-13.58l.14.07L248.5,1.05l.98-.63,1.33-3.57,1.12,2.73,1.33-1.47L254.66.7l1.4-2.1,1.33,1.19c1.82-6.65,4.13-13.16,6.51-19.6a175.757,175.757,0,0,1,8.54-20.16Zm33.53,3.22c-1.75-3.43-6.58-4.69-10.08-4.69-14.56,0-26.67,14.84-26.67,28.84,0,6.72,2.87,13.37,10.29,14.21a24.871,24.871,0,0,0,3.22.21c6.23,0,11.48-2.03,15.26-7.14a43.322,43.322,0,0,0,6.65-14.35,6.8,6.8,0,0,1-2.66-.35l1.05-2.8H287.35l-1.26,1.05,4.34,1.75-4.55,1.4,1.19,1.33-1.4,1.89,3.43.7c-1.05,2.45-3.22,4.97-6.16,4.97a3.164,3.164,0,0,1-3.43-3.43c0-4.9,6.09-16.87,11.41-17.64a19.775,19.775,0,0,1,2.03-.14c2.45,0,3.99,1.05,5.53,2.94v-2.17h2.17l-2.52-4.48,4.76,1.19-.21-2.59Z" transform="translate(15696 -3694)" fill="#423fbf"/>
    </g>
  </g>
</svg>
