<svg xmlns="http://www.w3.org/2000/svg" width="369" height="395" viewBox="0 0 369 395">
  <g id="Group_4058" data-name="Group 4058" transform="translate(-16485 4049)">
    <g id="Rectangle_2545" data-name="Rectangle 2545" transform="translate(16485 -4049)" fill="#fff" stroke="#707070" stroke-width="1" opacity="0">
      <rect width="369" height="395" stroke="none"/>
      <rect x="0.5" y="0.5" width="368" height="394" fill="none"/>
    </g>
    <g id="Path_9955" data-name="Path 9955" transform="translate(16571 -3790)" fill="#0ce8ad">
      <path d="M 90.99985504150391 10.98491477966309 L 92.35352325439453 3.915776252746582 L 92.56452178955078 2.813919544219971 C 91.25980377197266 3.291844606399536 89.91964721679688 3.718229055404663 88.57485961914062 4.03841495513916 L 85.13069152832031 4.858442783355713 L 84.88710784912109 1.326415181159973 L 84.60710906982422 -2.733584880828857 L 84.54132843017578 -3.687307119369507 L 85.03949737548828 -4.503251552581787 C 92.13999938964844 -16.13339042663574 101.7490234375 -28.49677848815918 110.2268829345703 -39.40477752685547 C 111.606803894043 -41.18022537231445 112.9101638793945 -42.85722351074219 114.2061386108398 -44.53433609008789 L 114.2080764770508 -44.53686141967773 L 114.2100219726562 -44.53936386108398 C 118.1261672973633 -49.58515930175781 121.9723358154297 -54.46831512451172 125.7590408325195 -59.20143127441406 C 123.1578369140625 -56.83624267578125 120.3283004760742 -54.94674682617188 117.3215255737305 -53.56988906860352 C 113.2498550415039 -51.70539093017578 108.808219909668 -50.76000213623047 104.1199951171875 -50.76000213623047 C 96.9554443359375 -50.76000213623047 90.97327423095703 -53.33994674682617 86.82015991210938 -58.22089004516602 C 84.88443756103516 -60.4958610534668 83.39852142333984 -63.21644592285156 82.40366363525391 -66.30702972412109 C 81.44571685791016 -69.28300476074219 80.95999908447266 -72.55091857910156 80.95999908447266 -76.02000427246094 C 80.95999908447266 -80.34513854980469 81.74988555908203 -84.65930938720703 83.37477111816406 -89.20899963378906 L 83.38224792480469 -89.22991943359375 L 83.38999938964844 -89.25069427490234 C 86.86608123779297 -98.54716491699219 91.53494262695312 -105.9577255249023 97.26691436767578 -111.2765884399414 C 104.1341934204102 -117.6489486694336 112.3748550415039 -120.8800048828125 121.7599945068359 -120.8800048828125 L 126.4189987182617 -120.8800048828125 L 125.0077819824219 -117.7752838134766 C 125.1394882202148 -117.9074325561523 125.2647094726562 -118.0411376953125 125.3822708129883 -118.1754989624023 L 126.7581329345703 -119.7479476928711 L 128.7101135253906 -119.0026702880859 C 132.1463012695312 -117.6906433105469 137.3527526855469 -116.375 142.9944152832031 -115.3930587768555 C 148.5191040039062 -114.4315032958984 153.8936614990234 -113.8800048828125 157.739990234375 -113.8800048828125 C 161.4390258789062 -113.8800048828125 167.5097961425781 -114.4502258300781 173.9793548583984 -115.4053344726562 C 180.4878234863281 -116.3661956787109 186.4372406005859 -117.5777206420898 189.8940734863281 -118.6461944580078 L 193.4510803222656 -119.7456436157227 L 193.7690277099609 -116.0361938476562 L 193.9595336914062 -113.813591003418 L 197.0131378173828 -113.7391128540039 L 202.4564361572266 -113.6063385009766 L 199.4361419677734 -109.0758895874023 L 199.0474853515625 -108.4929046630859 L 199.3489990234375 -108.3852233886719 L 204.0518341064453 -106.7056427001953 L 200.3604736328125 -103.342414855957 C 193.8820190429688 -97.43983459472656 187.8153839111328 -90.88249969482422 182.6375732421875 -85.19953155517578 L 182.6351623535156 -85.19689178466797 L 182.6327514648438 -85.19425201416016 C 174.1253967285156 -75.90155029296875 165.4504852294922 -66.03955841064453 156.1107940673828 -55.04293060302734 L 156.1108093261719 -55.04291915893555 C 155.7688598632812 -54.6385383605957 155.4252471923828 -54.23193359375 155.0827331542969 -53.82635498046875 C 161.3220062255859 -58.56315612792969 168.5563049316406 -60.96000289916992 176.6399993896484 -60.96000289916992 L 181.2989959716797 -60.96000289916992 L 179.3711090087891 -56.71858596801758 L 179.0586242675781 -56.03111267089844 L 179.0699920654297 -56.02400207519531 L 180.2557830810547 -55.28289413452148 L 181.9453582763672 -55.0525016784668 L 181.9548187255859 -55.05121231079102 L 182.0559387207031 -56.02872467041016 L 182.4776916503906 -60.1053352355957 L 186.2361907958984 -58.47122192382812 C 188.2307434082031 -57.60403060913086 190.0101013183594 -56.15216827392578 191.5248565673828 -54.15597534179688 C 192.7635498046875 -52.52358627319336 193.8244934082031 -50.52708435058594 194.6782531738281 -48.22194671630859 C 196.0443878173828 -44.53336334228516 196.8600006103516 -40.00928115844727 196.8600006103516 -36.12000274658203 C 196.8600006103516 -31.777099609375 196.1537933349609 -27.37553405761719 194.7609558105469 -23.03714561462402 C 191.9947052001953 -14.09495830535889 187.7349243164062 -6.462976932525635 182.4412231445312 -0.9643348455429077 C 179.3473815917969 2.249248504638672 175.8913879394531 4.748859405517578 172.1692199707031 6.464998245239258 C 168.0891571044922 8.346164703369141 163.6583862304688 9.29999828338623 159 9.29999828338623 C 155.3798828125 9.29999828338623 152.0384063720703 8.623248100280762 149.0684204101562 7.288581848144531 C 146.2026672363281 6.000748634338379 143.7194366455078 4.121081829071045 141.6876983642578 1.701831817626953 C 139.7596282958984 -0.5939182043075562 138.2776947021484 -3.328612565994263 137.2830200195312 -6.426251411437988 C 136.3255004882812 -9.408167839050293 135.8399963378906 -12.66289043426514 135.8399963378906 -16.10000228881836 C 135.8399963378906 -20.42514038085938 136.6298828125 -24.73930740356445 138.2547760009766 -29.28900146484375 L 138.2622528076172 -29.30991744995117 L 138.2699890136719 -29.33069610595703 C 139.5692901611328 -32.80552291870117 141.0350341796875 -36.01652908325195 142.6608276367188 -38.95364379882812 C 130.8111572265625 -24.56484031677246 119.1470184326172 -9.691651344299316 109.1204681396484 5.047387599945068 L 108.438606262207 6.04969310760498 L 107.2518539428711 6.296942710876465 L 103.8918609619141 6.99694299697876 L 99.86599731445312 7.835665225982666 L 100.1842803955078 4.81179141998291 L 96.97349548339844 6.969859600067139 L 90.99985504150391 10.98491477966309 Z M 171.9916229248047 -37.29714965820312 C 170.0859680175781 -37.02155303955078 167.4970397949219 -34.27309417724609 165.2854461669922 -30.13772392272949 C 162.7877502441406 -25.46733474731445 161.4400024414062 -20.42922401428223 161.4400024414062 -18.06000137329102 C 161.4400024414062 -16.67583465576172 161.6963043212891 -16.11630630493164 161.8065032958984 -15.94000148773193 C 161.8562774658203 -15.8603630065918 161.9315032958984 -15.7400016784668 162.5 -15.7400016784668 C 163.5327758789062 -15.7400016784668 164.6120758056641 -16.33144569396973 165.7079162597656 -17.49786186218262 C 166.9032440185547 -18.77019691467285 168.0722503662109 -20.69325065612793 169.0885772705078 -23.05911254882812 C 171.0445556640625 -27.61241912841797 172.0999908447266 -33.04250335693359 172.0999908447266 -35.84000015258789 C 172.0999908447266 -36.58432388305664 172.0458526611328 -37.03372955322266 171.9916229248047 -37.29714965820312 Z M 142.2294921875 -92.96623992919922 C 141.7188415527344 -89.21389007568359 140.7804870605469 -85.85566711425781 139.8851928710938 -82.97080993652344 L 139.8820190429688 -82.96058654785156 L 139.8787689208984 -82.95039367675781 C 138.5299682617188 -78.71125030517578 136.8712158203125 -74.76728057861328 134.9486694335938 -71.22800445556641 C 134.5189056396484 -70.43685913085938 134.0758514404297 -69.66593170166016 133.6198425292969 -68.91562652587891 C 140.5813598632812 -77.41786193847656 147.368896484375 -85.43465423583984 154.0585479736328 -93.05792236328125 C 153.2461395263672 -92.95978546142578 152.4206848144531 -92.90000152587891 151.5800018310547 -92.90000152587891 L 146.8199920654297 -92.90000152587891 C 145.312744140625 -92.90000152587891 143.7743530273438 -92.90000915527344 142.2294921875 -92.96623992919922 Z M 117.1116256713867 -97.21714782714844 C 115.2059631347656 -96.94155120849609 112.6170349121094 -94.19309234619141 110.4054412841797 -90.05772399902344 C 107.9077453613281 -85.38733673095703 106.5599975585938 -80.34922027587891 106.5599975585938 -77.98000335693359 C 106.5599975585938 -76.60319519042969 106.8201904296875 -76.0947265625 106.8999710083008 -75.97169494628906 C 106.9366607666016 -75.91505432128906 106.9519958496094 -75.90736389160156 106.9732437133789 -75.89669799804688 C 107.0184097290039 -75.87400054931641 107.1985778808594 -75.80000305175781 107.6199951171875 -75.80000305175781 C 108.6577758789062 -75.80000305175781 109.7398300170898 -76.38697052001953 110.836051940918 -77.54463958740234 C 112.0298614501953 -78.80530548095703 113.1971054077148 -80.71116638183594 114.2116088867188 -83.05616760253906 C 116.186637878418 -87.62139129638672 117.2199935913086 -92.90261077880859 117.2199935913086 -95.76000213623047 C 117.2199935913086 -96.50432586669922 117.1658630371094 -96.9537353515625 117.1116256713867 -97.21714782714844 Z M 20.94671821594238 9.382998466491699 L 20.61349678039551 5.884415149688721 L 20.24826622009277 2.049497604370117 L 17.26177406311035 3.708665132522583 L 16.30718803405762 -0.0036433688364923 L 16.30344200134277 0.002748474013060331 L 15.86210823059082 0.3521373569965363 L 11.06210803985596 4.152137279510498 L 6.113830089569092 8.069526672363281 L 6.200274467468262 1.758915185928345 L 6.274125099182129 -3.632172584533691 L 2.799996614456177 0.9999984502792358 L 0.2757744193077087 4.365637302398682 L -2.083753347396851 0.8825540542602539 L -6.283753395080566 -5.317445755004883 L -7.01222562789917 -6.392834663391113 L -6.726531028747559 -7.659890651702881 C -4.601253509521484 -17.08500099182129 -1.779142260551453 -27.08786201477051 1.901107788085938 -38.24013900756836 C 5.362585067749023 -48.72941207885742 9.247616767883301 -59.19784545898438 12.59161949157715 -68.05503845214844 C 18.79723930358887 -84.73247528076172 25.02576637268066 -100.9782943725586 32.7518310546875 -116.1476593017578 L 28.72541236877441 -117.0768356323242 L 25.01269149780273 -117.9336090087891 L 26.71671867370605 -121.3416366577148 L 26.79612922668457 -121.5004577636719 L 21.77616310119629 -121.2051696777344 L 14.67244148254395 -120.7873077392578 L 19.33294105529785 -126.1647796630859 L 24.71269416809082 -132.3721923828125 L 22.5430793762207 -133.5775299072266 L 18.49899673461914 -135.8242492675781 L 22.19999694824219 -138.6000061035156 C 28.85513496398926 -143.5913696289062 37.3675537109375 -148.7698974609375 47.50077438354492 -153.9917449951172 C 55.40121841430664 -158.0630035400391 64.14585876464844 -162.110107421875 74.23432922363281 -166.3642730712891 L 78.16329956054688 -168.0210876464844 L 78.39555358886719 -163.7633972167969 L 78.68828582763672 -158.3965911865234 L 81.58966064453125 -160.5922241210938 L 84.84141540527344 -163.0530090332031 L 86.22266387939453 -159.2161712646484 L 87.03041076660156 -156.9724273681641 L 89.65129852294922 -157.8460540771484 L 96.42658233642578 -160.1044769287109 L 93.29652404785156 -153.6851654052734 C 81.33144378662109 -129.1466064453125 70.95285797119141 -102.4588317871094 61.79602432250977 -78.91266632080078 L 61.79485702514648 -78.90972137451172 L 61.79372024536133 -78.90680694580078 C 55.30788421630859 -62.33186340332031 50.49193954467773 -49.49983596801758 46.17841339111328 -37.29994583129883 C 40.79038619995117 -22.06111335754395 36.37749481201172 -8.285696029663086 32.68760681152344 4.813415050506592 L 32.21991348266602 6.473803997039795 L 30.54963493347168 6.904831886291504 L 24.34963607788086 8.50483226776123 L 20.94671821594238 9.382998466491699 Z" stroke="none"/>
      <path d="M 75.39999389648438 -163.6000061035156 C 58.80000305175781 -156.6000061035156 38.39999389648438 -147 24 -136.1999969482422 L 29.39999389648438 -133.1999969482422 L 21.59999084472656 -124.1999969482422 L 31.80000305175781 -124.8000030517578 L 29.39999389648438 -120 L 37.19999694824219 -118.1999969482422 C 28.59999084472656 -102 21.80000305175781 -84.20000457763672 15.39999389648438 -67 C 8 -47.40000152587891 0.8000030517578125 -27.40000915527344 -3.800003051757812 -7 L 0.399993896484375 -0.8000030517578125 L 9.399993896484375 -12.80000305175781 L 9.199996948242188 1.800003051757812 L 14 -2 L 17.39999389648438 -7.800003051757812 L 19.19999694824219 -0.8000030517578125 L 22.80000305175781 -2.800003051757812 L 23.59999084472656 5.599990844726562 L 29.80000305175781 4 C 37.80000305175781 -24.40000915527344 48.19999694824219 -52.40000152587891 59 -80 C 68.79999542236328 -105.1999969482422 78.79999542236328 -130.8000030517578 90.59999847412109 -155 L 85.19999694824219 -153.1999969482422 L 83.39999389648438 -158.1999969482422 L 76 -152.6000061035156 L 75.39999389648438 -163.6000061035156 M 121.7599945068359 -117.8800048828125 C 103.2799987792969 -117.8800048828125 92.21999359130859 -104.3000030517578 86.19999694824219 -88.20000457763672 C 84.79999542236328 -84.27999877929688 83.95999908447266 -80.22000122070312 83.95999908447266 -76.02000427246094 C 83.95999908447266 -63.41999816894531 90.95999908447266 -53.76000213623047 104.1199951171875 -53.76000213623047 C 121.8999938964844 -53.76000213623047 132.1199951171875 -68.45999908447266 137.0199890136719 -83.86000061035156 C 138.2799987792969 -87.91999816894531 139.2599945068359 -91.84000396728516 139.5399932861328 -96.18000030517578 C 141.9199981689453 -95.90000152587891 144.4400024414062 -95.90000152587891 146.8199920654297 -95.90000152587891 L 151.5800018310547 -95.90000152587891 C 155.0800018310547 -95.90000152587891 158.5800018310547 -97.16000366210938 162.0800018310547 -97.58000183105469 C 146.2599945068359 -79.94000244140625 131.1399993896484 -61.45999908447266 116.5799942016602 -42.70000457763672 C 107.0599975585938 -30.3800048828125 95.71999359130859 -16.24000549316406 87.59999847412109 -2.94000244140625 L 87.87999725341797 1.1199951171875 C 90.81999969482422 0.4199981689453125 93.75999450683594 -0.839996337890625 96.55999755859375 -2.100006103515625 L 95.29999542236328 4.479995727539062 L 103.8399963378906 -1.259994506835938 L 103.2799987792969 4.05999755859375 L 106.6399993896484 3.360000610351562 C 120.6399993896484 -17.22000122070312 137.7200012207031 -37.94000244140625 153.8199920654297 -56.98000335693359 C 162.5 -67.20000457763672 171.3199920654297 -77.27999877929688 180.4199981689453 -87.22000122070312 C 186.1600036621094 -93.52000427246094 192.0399932861328 -99.81999969482422 198.3399963378906 -105.5599975585938 L 194.4199981689453 -106.9600067138672 L 196.9400024414062 -110.7400054931641 L 191.1999969482422 -110.8800048828125 L 190.7799987792969 -115.7799987792969 C 183.0800018310547 -113.4000015258789 165.8600006103516 -110.8800048828125 157.739990234375 -110.8800048828125 C 149.4799957275391 -110.8800048828125 135.3399963378906 -113.2600021362305 127.6399993896484 -116.1999969482422 C 126.6599960327148 -115.0800018310547 125.3999938964844 -114.1000061035156 124.1399993896484 -113.4000015258789 L 120.359992980957 -114.8000030517578 L 121.7599945068359 -117.8800048828125 M 107.6199951171875 -72.80000305175781 C 104.3999938964844 -72.80000305175781 103.5599975585938 -75.18000030517578 103.5599975585938 -77.98000335693359 C 103.5599975585938 -84.27999877929688 110.1399993896484 -100.2400054931641 117.4199981689453 -100.2400054931641 C 119.9399948120117 -100.2400054931641 120.2199935913086 -97.72000122070312 120.2199935913086 -95.76000213623047 C 120.2199935913086 -89.31999969482422 115.7399978637695 -72.80000305175781 107.6199951171875 -72.80000305175781 M 176.6399993896484 -57.95999908447266 C 158.1600036621094 -57.95999908447266 147.1000061035156 -44.3800048828125 141.0800018310547 -28.27999877929688 C 139.6799926757812 -24.36000061035156 138.8399963378906 -20.30000305175781 138.8399963378906 -16.10000610351562 C 138.8399963378906 -3.639999389648438 145.8399963378906 6.300003051757812 159 6.300003051757812 C 176.6399993896484 6.300003051757812 187.1399993896484 -8.540008544921875 191.8999938964844 -23.94000244140625 C 193.1600036621094 -27.86000061035156 193.8600006103516 -31.91999816894531 193.8600006103516 -36.12000274658203 C 193.8600006103516 -42.27999877929688 191.4799957275391 -52.91999816894531 185.0399932861328 -55.72000122070312 L 184.6199951171875 -51.66000366210938 L 181.5399932861328 -52.08000183105469 L 181.5399932861328 -47.59999847412109 L 174.3999938964844 -50.81999969482422 L 177.4799957275391 -53.48000335693359 L 175.239990234375 -54.8800048828125 L 176.6399993896484 -57.95999908447266 M 162.5 -12.74000549316406 C 159.2799987792969 -12.74000549316406 158.4400024414062 -15.25999450683594 158.4400024414062 -18.05999755859375 C 158.4400024414062 -24.36000061035156 165.0199890136719 -40.31999969482422 172.3000030517578 -40.31999969482422 C 174.8199920654297 -40.31999969482422 175.0999908447266 -37.80000305175781 175.0999908447266 -35.84000396728516 C 175.0999908447266 -29.40000152587891 170.6199951171875 -12.74000549316406 162.5 -12.74000549316406 M 80.92662048339844 -172.4421539306641 L 81.37656402587891 -164.1931457519531 L 86.28280639648438 -167.9059753417969 L 88.86080932617188 -160.7448272705078 L 102.2531814575195 -165.2089385986328 L 95.99302673339844 -152.3703460693359 C 84.08240509033203 -127.9434661865234 73.72774505615234 -101.3172149658203 64.59202575683594 -77.8253173828125 C 54.86468505859375 -52.96649932861328 43.81443786621094 -23.622314453125 35.57524108886719 5.626846313476562 L 34.63981628417969 8.947586059570312 L 18.29344177246094 13.16600036621094 L 17.69656372070312 6.899002075195312 L 15.32356262207031 8.21734619140625 L 14.55172729492188 5.215835571289062 L 3.02764892578125 14.33903503417969 L 3.14825439453125 5.53564453125 L 0.1515350341796875 9.531280517578125 L -10.22447204589844 -5.785659790039062 L -9.653030395507812 -8.319808959960938 C -4.843276977539062 -29.65000152587891 2.903305053710938 -50.88747406005859 9.7867431640625 -69.11928558349609 C 15.55378723144531 -84.61837005615234 21.34974670410156 -99.76905822753906 28.36575317382812 -114.0809860229492 L 20.62539672851562 -115.8672180175781 L 21.79225158691406 -118.200927734375 L 7.744903564453125 -117.374626159668 L 20.02536010742188 -131.5443878173828 L 12.99797058105469 -135.4484710693359 L 20.39999389648438 -141 C 32.53105163574219 -150.0983123779297 49.7591552734375 -159.2992553710938 73.06868743896484 -169.1285705566406 L 80.92662048339844 -172.4421539306641 Z M 121.7599945068359 -123.8800048828125 L 131.0780334472656 -123.8800048828125 L 130.0832061767578 -121.69140625 C 136.9234619140625 -119.1588897705078 149.9744567871094 -116.8800048828125 157.739990234375 -116.8800048828125 C 165.347900390625 -116.8800048828125 182.0047760009766 -119.3477478027344 189.0081481933594 -121.5124053955078 L 196.1221771240234 -123.7112884521484 L 196.7191162109375 -116.7471771240234 L 207.972900390625 -116.4726867675781 L 203.6749725341797 -110.0258178710938 L 209.7636566162109 -107.8512878417969 L 202.3809356689453 -101.1248168945312 C 195.9976501464844 -95.30897521972656 189.9875335693359 -88.81212615966797 184.8551788330078 -83.17906188964844 C 178.9176788330078 -76.69345855712891 172.9021759033203 -69.93425750732422 166.6356964111328 -62.70496368408203 C 169.8226470947266 -63.5369873046875 173.1632080078125 -63.95999908447266 176.6399993896484 -63.95999908447266 L 179.8603820800781 -63.95999908447266 L 179.915283203125 -64.49072265625 L 181.1359252929688 -63.95999908447266 L 185.9580230712891 -63.95999908447266 L 185.1622924804688 -62.20938873291016 L 187.4323425292969 -61.22240447998047 C 197.2625885009766 -56.94841003417969 199.8600006103516 -42.93350219726562 199.8600006103516 -36.12000274658203 C 199.8600006103516 -31.45999908447266 199.1037139892578 -26.74430847167969 197.6121520996094 -22.10394287109375 C 190.8617706298828 -0.263153076171875 176.7808074951172 12.30000305175781 159 12.30000305175781 C 143.3529052734375 12.30000305175781 132.8399963378906 0.88690185546875 132.8399963378906 -16.10000610351562 C 132.8399963378906 -18.28311157226562 133.0353393554688 -20.50335693359375 133.4235534667969 -22.74729919433594 C 125.702751159668 -12.97740173339844 118.2816009521484 -3.085784912109375 111.6009368896484 6.734786987304688 L 110.2372436523438 8.739410400390625 L 96.45196533203125 11.61134338378906 L 96.52857208251953 10.88359069824219 L 86.69974517822266 17.48983764648438 L 88.69026947021484 7.094802856445312 L 82.38140106201172 8.596908569335938 L 81.48265075683594 -4.43463134765625 L 82.47896575927734 -6.0665283203125 C 89.66755676269531 -17.8409423828125 99.33168792724609 -30.27522277832031 107.8581848144531 -41.24578094482422 L 111.832275390625 -46.36869049072266 C 112.5601577758789 -47.30652618408203 113.2870483398438 -48.2406005859375 114.0101165771484 -49.16724395751953 C 110.8662185668945 -48.23695373535156 107.560546875 -47.76000213623047 104.1199951171875 -47.76000213623047 C 88.472900390625 -47.76000213623047 77.95999908447266 -59.11681365966797 77.95999908447266 -76.02000427246094 C 77.95999908447266 -80.62987518310547 78.83124542236328 -85.40678405761719 80.549560546875 -90.21803283691406 C 88.67652893066406 -111.9548797607422 103.3012161254883 -123.8800048828125 121.7599945068359 -123.8800048828125 Z M 147.3325653076172 -89.90000152587891 L 146.8199920654297 -89.90000152587891 C 146.1445617675781 -89.90000152587891 145.4588012695312 -89.90094757080078 144.7681732177734 -89.90767669677734 C 144.4956207275391 -88.47834014892578 144.1751556396484 -87.11577606201172 143.8336944580078 -85.82284545898438 C 145.0043182373047 -87.19528961181641 146.1690673828125 -88.55255126953125 147.3325653076172 -89.90000152587891 Z M 110.1869125366211 -81.65293121337891 C 111.2336730957031 -83.49526214599609 112.2791366577148 -86.02817535400391 113.0433502197266 -88.65840911865234 C 111.8823013305664 -86.44497680664062 110.824821472168 -83.90128326416016 110.1869125366211 -81.65293121337891 Z M 165.0283355712891 -21.59547424316406 C 166.0917358398438 -23.47396850585938 167.1571350097656 -26.06903076171875 167.93115234375 -28.75328063964844 C 166.7435455322266 -26.49153137207031 165.6629791259766 -23.88180541992188 165.0283355712891 -21.59547424316406 Z" stroke="none" fill="#423fbf"/>
    </g>
    <path id="Path_9954" data-name="Path 9954" d="M24.99,27.72c0,3.78-5.46,6.23-8.68,6.23l3.08-7.49a5.547,5.547,0,0,1,2.8-.7C23.66,25.76,24.99,25.9,24.99,27.72Zm13.23-2.24c0-7.21-5.6-11.48-12.46-11.48a57.307,57.307,0,0,0-10.92,1.19l.14,2.03-1.82.49.35,3.01-1.96-.07-.7,2.1L8.82,20.58A146.044,146.044,0,0,0,2.45,37.59a172.212,172.212,0,0,0-4.9,17.57l1.05,1.33,2.59-4.48.49,3.92,1.61-1.19.91,4.2,2.73-3.71,2.03,2.38A105.761,105.761,0,0,1,12.81,45.5l.84-.21,5.53,12.18.91-2.59,2.87,2.03.49-3.71,3.78,4.76.35-3.57,3.15,1.26L25.27,42.56C31.78,39.69,38.22,32.97,38.22,25.48Zm30.8-8.26,2.24-1.82c-3.01-.21-6.02-.28-9.03-.28a82.862,82.862,0,0,0-11.76.7l.91,1.82-3.01.28,1.05,3.29-2.45,1.54L45.5,21.28c-4.62,9.17-8.61,19.18-10.36,29.33l3.71-1.68-.28,2.94,2.52.98-2.24,3.22a58.147,58.147,0,0,0,10.43.77,39.813,39.813,0,0,0,9.59-.91l1.33-2.24L55.93,52.5l3.99-1.68-1.61-.98,2.45-3.29a63.46,63.46,0,0,1-7.28.42,29.442,29.442,0,0,1-5.53-.42l1.61-5.74,12.32.14.84-1.54-1.75-1.54,2.38-1.54-2.87-1.82,3.22-1.89-.77-1.54-10.22.07,2.73-4.83A54.841,54.841,0,0,1,63,25.83a35.14,35.14,0,0,1,4.69.28l-1.12-2.52,2.66-1.26L65.66,20.3l5.95-.98Zm31.5.21,2.24-2.03H80.08l.91,1.82-3.01.28,2.1,2.52-2.17.28.35,1.68-2.94-1.54a189.876,189.876,0,0,0-7.91,20.09A110.959,110.959,0,0,0,63,56.21l3.57-3.01.56,3.36,2.52-1.68,1.12,1.19,3.01-4.41.21,4.06,1.54,1.19c1.47-5.32,2.66-10.57,4.62-15.75l12.32-.07.56-1.75-1.54-1.47,2.38-1.75-3.36-1.68,4.27-1.68-.49-1.68-11.06.07,2.24-4.9H98.21l1.33-1.54-1.89-1.33,2.87-1.54-2.94-1.89,5.32-.84ZM121.1,45.85H108.78a88.959,88.959,0,0,1,4.62-13.16c2.45-6.02,5.18-11.9,7.84-17.78l-3.01,1.4-.84-2.24-2.8,3.43-.14-5.04-3.57,4.13-1.26-2.03c-3.15,6.58-6.16,13.3-8.96,20.02a155.955,155.955,0,0,0-5.81,15.68l1.05.56,3.57-2.24-.35,3.78,2.24.49-2.59,3.22h21.21l1.47-1.89-2.59-1.54,1.4-1.68-3.22-1.54,5.6-1.68Zm36.75-28.63,2.24-1.82c-3.01-.21-6.02-.28-9.03-.28a82.862,82.862,0,0,0-11.76.7l.91,1.82-3.01.28,1.05,3.29-2.45,1.54-1.47-1.47c-4.62,9.17-8.61,19.18-10.36,29.33l3.71-1.68-.28,2.94,2.52.98-2.24,3.22a58.147,58.147,0,0,0,10.43.77,39.813,39.813,0,0,0,9.59-.91l1.33-2.24-4.27-1.19,3.99-1.68-1.61-.98,2.45-3.29a63.46,63.46,0,0,1-7.28.42,29.442,29.442,0,0,1-5.53-.42l1.61-5.74,12.32.14.84-1.54-1.75-1.54,2.38-1.54-2.87-1.82,3.22-1.89-.77-1.54-10.22.07,2.73-4.83a54.841,54.841,0,0,1,7.56-.49,35.14,35.14,0,0,1,4.69.28l-1.12-2.52,2.66-1.26-3.57-2.03,5.95-.98Zm29.05-.28a13.239,13.239,0,0,0-8.89-3.57c-5.88,0-11.34,3.99-15.19,8.19-4.9,5.32-7.63,14.21-7.63,21.35,0,7.7,3.08,14.42,11.76,14.42a19.47,19.47,0,0,0,10.15-3.15l-1.82-1.89,1.19-1.47-3.71-.7,3.71-2.59-2.52-.49,1.47-2.73a18.9,18.9,0,0,1-5.74,1.54c-2.73,0-3.01-2.45-3.01-4.62,0-5.32,3.85-16.38,10.43-16.38a5.125,5.125,0,0,1,2.8.91l.07-2.66,2.31-.07-1.33-3.71L185.5,21l-.84-3.22Zm31.43,1.05,1.82-2.38H188.02l-.49,1.61,4.27,1.89-4.34,1.05,1.19,2.1-3.92,1.47,1.47,1.54-2.1,2.38h9.87c-3.85,9.1-6.58,18.62-9.66,28l.84.77,2.8-2.8.98,1.96,2.24-1.96,1.05,4.27,2.8-3.01,1.68,1.54c2.94-9.52,5.81-19.81,10.22-28.77H217.7l-.84-1.89,2.17-1.68-2.73-2.24,4.76-2.24Zm17.36-.63-.91-2.17-2.94,2.17-.49-4.9-4.06,4.62-.98-2.45c-6.3,12.81-11.62,28.14-15.47,41.86l3.43-2.73,1.61,2.17,3.22-4.62-.07,5.74,1.96-1.12,1.4,1.89c2.1-7.07,4.76-14,7.42-20.86,2.8-7.21,5.67-14.35,8.82-21.42Zm21.07,10.99c0,4.69-3.78,18.06-9.66,18.06-2.31,0-2.73-2.24-2.73-4.13a23.766,23.766,0,0,1,2.38-9.24c1.26-2.66,4.48-8.05,7.91-8.05C256.48,24.99,256.76,26.95,256.76,28.35Zm10.85-.56c0-4.55-1.4-8.89-4.76-12.04l-.28,3.29-2.1-.91v3.01l-4.83-2.1,2.1-1.82-1.47-.84.91-2.1c-12.04,0-17.99,9.8-21.77,19.95a27.786,27.786,0,0,0-1.96,9.8c0,6.44,2.8,11.83,9.66,12.6.77.07,1.47.14,2.24.14,11.69,0,17.43-9.31,20.58-19.32A32.571,32.571,0,0,0,267.61,27.79ZM307.3,14.84l-1.82,1.61-.56-2.24-3.5,4.83-.07-4.55-2.1,1.19-1.75-1.26c-2.45,5.46-5.81,12.39-7.35,18.06h-.14l-1.89-18.34L287,15.54l-1.33-2.38-1.47,5.46-1.68-3.85-1.4,1.54-1.33-1.89c-3.57,7.7-6.79,15.61-9.73,23.59a145.739,145.739,0,0,0-5.67,17.78l2.17-1.4.84,2.52,3.78-5.46.14,3.78,2.24-.98,1.33,1.89c1.68-4.55,3.22-9.38,5.6-13.58l.14.07,4.06,14.42.98-.63L287,52.85l1.12,2.73,1.33-1.47,1.4,2.59,1.4-2.1,1.33,1.19c1.82-6.65,4.13-13.16,6.51-19.6a175.757,175.757,0,0,1,8.54-20.16Zm28.49,2.45a20.559,20.559,0,0,0-11.62-4.13,22.1,22.1,0,0,0-9.66,2.59c-3.85,1.89-6.3,7.42-6.3,11.55a8.833,8.833,0,0,0,2.8,6.79c2.03,1.89,6.72,5.74,6.72,8.82,0,1.47-1.33,3.64-2.94,3.64-2.03,0-5.46-3.15-6.93-4.41l-.63,2.73-2.45-.63,2.1,4.34-3.71-1.33.56,2.1-2.45.91c3.43,4.2,7.98,7.28,13.58,7.28,7.56,0,15.19-5.46,15.19-13.51a15.643,15.643,0,0,0-5.81-11.83c-1.33-1.12-3.15-2.73-3.15-4.62,0-1.96,2.24-3.15,3.99-3.15,2.17,0,4.13,1.61,5.6,3.01l1.19-.35-.98-2.52,2.17-.14-2.87-4.83,3.92.91-.14-2.1Z" transform="translate(16502.83 -3750)" fill="#423fbf"/>
  </g>
</svg>
