<svg xmlns="http://www.w3.org/2000/svg" width="469.818" height="130.578" viewBox="0 0 469.818 130.578">
  <g id="Group_4046" data-name="Group 4046" transform="translate(-16768.135 4614.02)">
    <path id="Path_9921" data-name="Path 9921" d="M38.3,27.6a151.46,151.46,0,0,0-3.7,23.2c-3.7-.4-7.1,1-10.7,1.1,4.7-8.2,8.4-16.7,14.2-24.3ZM54.6.8,51.2,4.9l-.8-3L47.3,4.8,46.2.2,41.6,5.7,40.3.9,38.6-.6C29.8,9.9,22.2,21.8,15.1,33.5,6.1,48.3-2.4,63.8-9.1,79.8l4.9-2.1v2.9l5.7-6.3L2,78.1,4.2,76l.4,3.8,2.7-1.7H9.5c1.9-3.5,3.8-7.1,5.7-10.6,2.4-.2,4.8-.4,7.2-.8A61.272,61.272,0,0,1,31,65.6a22.751,22.751,0,0,1,2.6.2c-.1,2.7-.2,5.3-.2,8,0,1.4,0,2.9.1,4.3l3.4,2.6,1.8-4.6,1.4,5.8,2.6-3.5.9-3.2,1.7,4.3L46.8,77l1.6,4,2.7-1.6c.2-25.8,3.4-51.5,5.6-77.1ZM92.8,56.2c0,6.1-7.6,9.4-12.8,9.4-2,0-4-.3-6-.3a124.269,124.269,0,0,1,5.3-14.4,28.354,28.354,0,0,0,9.8-2.5C91.1,50.5,92.8,53.2,92.8,56.2Zm8.5-36.4a8.513,8.513,0,0,1-1.6,4.6c-3.1,4.8-7.4,9.3-13.5,9.3,2.4-5.8,5.1-12.7,8.4-18.1a12.253,12.253,0,0,1,1.9-.2C99.3,15.4,101.3,16.9,101.3,19.8Zm17.1-3.4c0-7.7-3.9-16.1-12.3-17.4a44.8,44.8,0,0,0-7.3-.5A76.9,76.9,0,0,0,78,1.5L80.2,4,77.6,6.1l3.5,2.5L74,10.7l1.4,1.7-3.1,3.3L75.8,17l-3,1.5c-3.1,5.7-5.5,12.4-7.7,18.4-4.4,11.8-8.3,23.7-12,35.8l3.1,2.6L59.7,69l1.4,4.6,2.2-2.5,2.9,3.3-3.5,1.7,2.2,2.5-3.1,1.3.5,1.7a127.864,127.864,0,0,0,13.8.9c12.2,0,22.5-3.1,30.4-12.9a22.1,22.1,0,0,0,5.2-14.1,25.014,25.014,0,0,0-5.4-15.3c5.8-4.5,8.4-8.2,10.7-15.2A28.152,28.152,0,0,0,118.4,16.4Zm41.2,6.8a18.587,18.587,0,0,1-1.1,5.7c-2.5,7.5-7.1,21.4-11.4,27.6-1.8,2.6-5.2,7.5-8.7,7.5-4,0-4.9-3.8-4.9-7a40.473,40.473,0,0,1,.5-6c.9-5.7,7.4-19.9,10.2-25.4,1.9-3.8,5.5-9.2,10.3-9.2a7.789,7.789,0,0,1,2.1.4C158.7,17.8,159.6,21.1,159.6,23.2Zm17.8-6.1c0-9.3-3.2-15.8-12.9-17.7L161.2,1l3,2.9h-3.9l.8,2.6a34.629,34.629,0,0,0-7.9-.5l2.2-2.9-4.1-1.2L152-.4a27.087,27.087,0,0,0-14.4,7.9C125.8,20.4,119.3,37.4,116,54.3a38.084,38.084,0,0,0-.7,7.5c0,7.2,2,14.6,9.1,17.8A26.964,26.964,0,0,0,135.2,82c7.4,0,14.1-3.7,19.7-8.3,3.5-2.9,9.8-13,12-17.2C171.8,46.9,177.4,27.8,177.4,17.1ZM244.9.4l-4,3.8L240,2.3,236.5,6l-.2-4.1-.9-2.3-5,6.7.1-5.8-3.8,1.9c-2.4,5.8-4.4,11.8-6.5,17.7-2.9,8.5-5.9,16.9-9.1,25.3-1.7,4.3-3.4,8.6-5.4,12.7-1.5,3-3.5,7.1-7.4,7.1-4.5,0-5.7-3.2-5.7-7.2a34.3,34.3,0,0,1,.5-5.6,46.976,46.976,0,0,1,3.1-10.3c2.4-6.4,5.2-12.8,7.7-19.2,2.8-7.1,5.5-14.2,8.9-21l-2.7,1.4L209.3,0l-3.6,5.2-1.1-3-1.8,2-1.1-1.1L197.6,7l.7-6L196.4-.8c-7.3,14.9-19.7,41.7-21.4,57.7a50.68,50.68,0,0,0-.3,5.5c0,7.9,1.7,15.4,9.8,18.6A32.4,32.4,0,0,0,196,83.4c7.1,0,13.5-3.8,18.7-8.3,3.8-3.3,9.1-12.5,10.7-17.3,2-5.8,3.7-11.7,5.8-17.5,4.5-12.6,9.6-25,15.1-37.2Zm43.7,2.5,2.2-1.6L289-1.2c-12.8.3-25.7,1.2-38.4,2.5l.2,2.6,4.8,2.3L247.9,8l-1.1,2.1,5.3,2.1-5.8,3,.5,2.9,11.1-.4c-4.1,8.7-7.6,17.8-11,26.8-4,10.6-7.8,21.3-11.4,32l1.4,2.7,3.8-4.1v6.5l3.6-2.6,1.8-2.9.4,4.4,2.2-1.9.4,4.2,3.1-.8c3.7-13.2,8.1-26.3,13-39.1A288.369,288.369,0,0,1,276.5,16l11.5-.8-1.3-3.3,3.2-2.6-1.8-2.6,4.4-2.5ZM385.5.4l-4,3.8-.9-1.9L377.1,6l-.2-4.1L376-.4l-5,6.7.1-5.8-3.8,1.9c-2.4,5.8-4.4,11.8-6.5,17.7-2.9,8.5-5.9,16.9-9.1,25.3-1.7,4.3-3.4,8.6-5.4,12.7-1.5,3-3.5,7.1-7.4,7.1-4.5,0-5.7-3.2-5.7-7.2a34.3,34.3,0,0,1,.5-5.6,46.976,46.976,0,0,1,3.1-10.3c2.4-6.4,5.2-12.8,7.7-19.2,2.8-7.1,5.5-14.2,8.9-21l-2.7,1.4L349.9,0l-3.6,5.2-1.1-3-1.8,2-1.1-1.1L338.2,7l.7-6L337-.8c-7.3,14.9-19.7,41.7-21.4,57.7a50.676,50.676,0,0,0-.3,5.5c0,7.9,1.7,15.4,9.8,18.6a32.4,32.4,0,0,0,11.5,2.4c7.1,0,13.5-3.8,18.7-8.3,3.8-3.3,9.1-12.5,10.7-17.3,2-5.8,3.7-11.7,5.8-17.5,4.5-12.6,9.6-25,15.1-37.2Zm36.1,0a25.221,25.221,0,0,0-9-1.7c-7.7,0-15,4-20.1,9.7-3.8,4.3-5.5,10.4-5.5,16,0,6.4,2,12.1,5,17.6a20.2,20.2,0,0,1,2.8,9.6c0,6.7-4.5,12.6-11.5,12.6a15.285,15.285,0,0,1-7.2-2l.9,2.1-3.1.4,2.4,4.5-6.8-1.5,1.2,4.4-2.1.6.9,3.4-4,.4,1.4,2.1a26.184,26.184,0,0,0,14.9,4.3c15.5,0,30.5-12.5,30.5-28.5,0-6.5-2.1-12.7-4.4-18.7A30.3,30.3,0,0,1,405.5,25c0-5.9,3-10,9.2-10a20.257,20.257,0,0,1,4.2.6l-.8-3.4,3.2-2-6.2-3,5.6-1.7-1.3-2.6Z" transform="translate(16796 -4590)" fill="#edfd27"/>
    <path id="Path_9921_-_Outline" data-name="Path 9921 - Outline" d="M98.8-1.5A76.9,76.9,0,0,0,78,1.5L80.2,4,77.6,6.1l3.5,2.5L74,10.7l1.4,1.7-3.1,3.3L75.8,17l-3,1.5c-3.1,5.7-5.5,12.4-7.7,18.4-4.4,11.8-8.3,23.7-12,35.8l3.1,2.6L59.7,69l1.4,4.6,2.2-2.5,2.9,3.3-3.5,1.7,2.2,2.5-3.1,1.3.5,1.7a127.864,127.864,0,0,0,13.8.9c12.2,0,22.5-3.1,30.4-12.9a22.1,22.1,0,0,0,5.2-14.1,25.013,25.013,0,0,0-5.4-15.3c5.8-4.5,8.4-8.2,10.7-15.2a28.152,28.152,0,0,0,1.4-8.6c0-7.7-3.9-16.1-12.3-17.4a44.8,44.8,0,0,0-7.3-.5M86.2,33.7c2.4-5.8,5.1-12.7,8.4-18.1a12.252,12.252,0,0,1,1.9-.2c2.8,0,4.8,1.5,4.8,4.4a8.513,8.513,0,0,1-1.6,4.6c-3.1,4.8-7.4,9.3-13.5,9.3M80,65.6c-2,0-4-.3-6-.3a124.275,124.275,0,0,1,5.3-14.4,28.354,28.354,0,0,0,9.8-2.5c2,2.1,3.7,4.8,3.7,7.8,0,6.1-7.6,9.4-12.8,9.4M412.6-1.3c-7.7,0-15,4-20.1,9.7-3.8,4.3-5.5,10.4-5.5,16,0,6.4,2,12.1,5,17.6a20.2,20.2,0,0,1,2.8,9.6c0,6.7-4.5,12.6-11.5,12.6a15.285,15.285,0,0,1-7.2-2l.9,2.1-3.1.4,2.4,4.5-6.8-1.5,1.2,4.4-2.1.6.9,3.4-4,.4,1.4,2.1a26.184,26.184,0,0,0,14.9,4.3c15.5,0,30.5-12.5,30.5-28.5,0-6.5-2.1-12.7-4.4-18.7A30.3,30.3,0,0,1,405.5,25c0-5.9,3-10,9.2-10a20.258,20.258,0,0,1,4.2.6l-.8-3.4,3.2-2-6.2-3,5.6-1.7-1.3-2.6L421.6.4a25.221,25.221,0,0,0-9-1.7M289-1.2c-12.8.3-25.7,1.2-38.4,2.5l.2,2.6,4.8,2.3L247.9,8l-1.1,2.1,5.3,2.1-5.8,3,.5,2.9,11.1-.4c-4.1,8.7-7.6,17.8-11,26.8-4,10.6-7.8,21.3-11.4,32l1.4,2.7,3.8-4.1v6.5l3.6-2.6,1.8-2.9.4,4.4,2.2-1.9.4,4.2,3.1-.8c3.7-13.2,8.1-26.3,13-39.1A288.368,288.368,0,0,1,276.5,16l11.5-.8-1.3-3.3,3.2-2.6-1.8-2.6,4.4-2.5-3.9-1.3,2.2-1.6L289-1.2m-92.6.4c-7.3,14.9-19.7,41.7-21.4,57.7a50.68,50.68,0,0,0-.3,5.5c0,7.9,1.7,15.4,9.8,18.6A32.4,32.4,0,0,0,196,83.4c7.1,0,13.5-3.8,18.7-8.3,3.8-3.3,9.1-12.5,10.7-17.3,2-5.8,3.7-11.7,5.8-17.5,4.5-12.6,9.6-25,15.1-37.2L244.9.4l-4,3.8L240,2.3,236.5,6l-.2-4.1-.9-2.3-5,6.7.1-5.8-3.8,1.9c-2.4,5.8-4.4,11.8-6.5,17.7-2.9,8.5-5.9,16.9-9.1,25.3-1.7,4.3-3.4,8.6-5.4,12.7-1.5,3-3.5,7.1-7.4,7.1-4.5,0-5.7-3.2-5.7-7.2a34.3,34.3,0,0,1,.5-5.6,46.975,46.975,0,0,1,3.1-10.3c2.4-6.4,5.2-12.8,7.7-19.2,2.8-7.1,5.5-14.2,8.9-21l-2.7,1.4L209.3,0l-3.6,5.2-1.1-3-1.8,2-1.1-1.1L197.6,7l.7-6L196.4-.8M337-.8c-7.3,14.9-19.7,41.7-21.4,57.7a50.676,50.676,0,0,0-.3,5.5c0,7.9,1.7,15.4,9.8,18.6a32.4,32.4,0,0,0,11.5,2.4c7.1,0,13.5-3.8,18.7-8.3,3.8-3.3,9.1-12.5,10.7-17.3,2-5.8,3.7-11.7,5.8-17.5,4.5-12.6,9.6-25,15.1-37.2L385.5.4l-4,3.8-.9-1.9L377.1,6l-.2-4.1L376-.4l-5,6.7.1-5.8-3.8,1.9c-2.4,5.8-4.4,11.8-6.5,17.7-2.9,8.5-5.9,16.9-9.1,25.3-1.7,4.3-3.4,8.6-5.4,12.7-1.5,3-3.5,7.1-7.4,7.1-4.5,0-5.7-3.2-5.7-7.2a34.3,34.3,0,0,1,.5-5.6,46.976,46.976,0,0,1,3.1-10.3c2.4-6.4,5.2-12.8,7.7-19.2,2.8-7.1,5.5-14.2,8.9-21l-2.7,1.4L349.9,0l-3.6,5.2-1.1-3-1.8,2-1.1-1.1L338.2,7l.7-6L337-.8M38.6-.6C29.8,9.9,22.2,21.8,15.1,33.5,6.1,48.3-2.4,63.8-9.1,79.8l4.9-2.1v2.9l5.7-6.3L2,78.1,4.2,76l.4,3.8,2.7-1.7H9.5c1.9-3.5,3.8-7.1,5.7-10.6,2.4-.2,4.8-.4,7.2-.8A61.272,61.272,0,0,1,31,65.6a22.751,22.751,0,0,1,2.6.2c-.1,2.7-.2,5.3-.2,8,0,1.4,0,2.9.1,4.3l3.4,2.6,1.8-4.6,1.4,5.8,2.6-3.5.9-3.2,1.7,4.3L46.8,77l1.6,4,2.7-1.6c.2-25.8,3.4-51.5,5.6-77.1L54.6.8,51.2,4.9l-.8-3L47.3,4.8,46.2.2,41.6,5.7,40.3.9,38.6-.6m-4,51.4c-3.7-.4-7.1,1-10.7,1.1,4.7-8.2,8.4-16.7,14.2-24.3h.2a151.458,151.458,0,0,0-3.7,23.2M164.5-.6,161.2,1l3,2.9h-3.9l.8,2.6a34.63,34.63,0,0,0-7.9-.5l2.2-2.9-4.1-1.2L152-.4a27.087,27.087,0,0,0-14.4,7.9C125.8,20.4,119.3,37.4,116,54.3a38.084,38.084,0,0,0-.7,7.5c0,7.2,2,14.6,9.1,17.8A26.964,26.964,0,0,0,135.2,82c7.4,0,14.1-3.7,19.7-8.3,3.5-2.9,9.8-13,12-17.2,4.9-9.6,10.5-28.7,10.5-39.4,0-9.3-3.2-15.8-12.9-17.7M138.4,64c-4,0-4.9-3.8-4.9-7a40.475,40.475,0,0,1,.5-6c.9-5.7,7.4-19.9,10.2-25.4,1.9-3.8,5.5-9.2,10.3-9.2a7.789,7.789,0,0,1,2.1.4c2.1,1,3,4.3,3,6.4a18.587,18.587,0,0,1-1.1,5.7c-2.5,7.5-7.1,21.4-11.4,27.6-1.8,2.6-5.2,7.5-8.7,7.5m75.367-88.02,3.048,12.574L235.5-21.133l-5.3,10.606.456-.228,7.5-10.053,2.062,5.271.568-.284-.029,1.662.307.785,1.719-1.817,1.245,2.629,3.63-3.448,3.724,7.181c13.066-1.3,25.635-2.093,37.387-2.368l5.27-.123,5.2,7.226,17.712,5.9L302.544,9.995l.849,1.227-4.706,3.824,3.618,9.184L283.028,25.57c-3.258,7.15-6.07,14.43-8.461,20.83-4.974,12.995-9.251,25.855-12.739,38.3l-1.554,5.545-13.916,3.591-8.055,6.957-.437-4.81-7.166,5.176V88.967l-5.494-10.6a31.153,31.153,0,0,1-3.949,4.279C213.01,89.787,204.517,93.4,196,93.4a42.166,42.166,0,0,1-15.214-3.115A23.462,23.462,0,0,1,166.641,75.46a36.866,36.866,0,0,1-5.361,5.94C152.707,88.443,143.943,92,135.2,92a37.148,37.148,0,0,1-14.836-3.251,24.106,24.106,0,0,1-10.1-8.486C101.661,88.488,90.425,92.5,76.1,92.5a138.041,138.041,0,0,1-14.881-.959l-2.361-.257-2.1,2.388-.824-2.706-1.344-.146-.467-1.587-4.655,2.758L43.45,102.02l-2.028-5.13-6.031,8.119L31.58,89.22l-7.733-5.914-.321-4.494c-.05-.7-.08-1.424-.1-2.15-.636.1-1.286.191-1.947.272L15.45,88.1H10.186L-2.092,95.831l-3.252,3.1-.249-1.89-8.607,9.513V92.865l-13.665,5.856,9.541-22.784C-12.243,61.416-4.1,45.835,6.556,28.3c7.123-11.737,15.01-24.147,24.38-35.328l6.589-7.862,4.75,4.191L51.3-21.482l1.729,7.231,2.734-2.558,2.025,7.595L63.85-4.882,75.272-8.121A86.353,86.353,0,0,1,98.8-11.5a53.812,53.812,0,0,1,8.944.636c8.675,1.342,15.517,7.475,18.7,16.053q1.819-2.3,3.774-4.439a36.7,36.7,0,0,1,19.746-10.942l16.508-3.426-.923,3.034.87.17c5.352,1.048,13.18,4,17.605,12.257Q185.655-1.6,187.42-5.2L193.4-17.413l7.692,7.287.779-.741.544.543,5.855-6.506.178.487Zm140.6,0,3.048,12.574L376.1-21.133l-5.3,10.606.456-.228,7.5-10.053,2.062,5.271.568-.284-.029,1.662.307.785,1.718-1.816,1.245,2.629,3.63-3.449,5.4,10.42A34.428,34.428,0,0,1,425.147-8.95l13.5,5.12L431.661,4.1l10.292,4.98-12.478,7.8,2.778,11.805L416.8,25.378c-.4-.086-.889-.19-1.3-.267a22.271,22.271,0,0,0,1.74,7.018c2.446,6.382,5.059,13.9,5.059,22.271,0,20.869-18.547,38.5-40.5,38.5a36.214,36.214,0,0,1-20.533-6.038l-1.608-1.1-.572-.858c-7.373,5.64-14.921,8.492-22.487,8.492a42.166,42.166,0,0,1-15.214-3.115C310.725,86.073,305.3,76.686,305.3,62.4a60.844,60.844,0,0,1,.361-6.6c1.381-13,8.905-33.535,22.359-61L334-17.413l7.692,7.287.779-.741.544.543,5.855-6.506.178.487ZM383.3,54.2c1.483,0,1.5-2.574,1.5-2.6a10.711,10.711,0,0,0-1.623-4.894q-.968-1.775-1.784-3.533l-.175.49c-1.016,2.806-1.924,5.6-2.819,8.4l2.491,1.358A5.328,5.328,0,0,0,383.3,54.2Z" transform="translate(16796 -4590)" fill="#0ce8ad"/>
    <path id="Path_9921_-_Outline-2" data-name="Path 9921 - Outline" d="M98.8-1.5A76.9,76.9,0,0,0,78,1.5L80.2,4,77.6,6.1l3.5,2.5L74,10.7l1.4,1.7-3.1,3.3L75.8,17l-3,1.5c-3.1,5.7-5.5,12.4-7.7,18.4-4.4,11.8-8.3,23.7-12,35.8l3.1,2.6L59.7,69l1.4,4.6,2.2-2.5,2.9,3.3-3.5,1.7,2.2,2.5-3.1,1.3.5,1.7a127.864,127.864,0,0,0,13.8.9c12.2,0,22.5-3.1,30.4-12.9a22.1,22.1,0,0,0,5.2-14.1,25.013,25.013,0,0,0-5.4-15.3c5.8-4.5,8.4-8.2,10.7-15.2a28.152,28.152,0,0,0,1.4-8.6c0-7.7-3.9-16.1-12.3-17.4a44.8,44.8,0,0,0-7.3-.5M86.2,33.7c2.4-5.8,5.1-12.7,8.4-18.1a12.252,12.252,0,0,1,1.9-.2c2.8,0,4.8,1.5,4.8,4.4a8.513,8.513,0,0,1-1.6,4.6c-3.1,4.8-7.4,9.3-13.5,9.3M80,65.6c-2,0-4-.3-6-.3a124.275,124.275,0,0,1,5.3-14.4,28.354,28.354,0,0,0,9.8-2.5c2,2.1,3.7,4.8,3.7,7.8,0,6.1-7.6,9.4-12.8,9.4M412.6-1.3c-7.7,0-15,4-20.1,9.7-3.8,4.3-5.5,10.4-5.5,16,0,6.4,2,12.1,5,17.6a20.2,20.2,0,0,1,2.8,9.6c0,6.7-4.5,12.6-11.5,12.6a15.285,15.285,0,0,1-7.2-2l.9,2.1-3.1.4,2.4,4.5-6.8-1.5,1.2,4.4-2.1.6.9,3.4-4,.4,1.4,2.1a26.184,26.184,0,0,0,14.9,4.3c15.5,0,30.5-12.5,30.5-28.5,0-6.5-2.1-12.7-4.4-18.7A30.3,30.3,0,0,1,405.5,25c0-5.9,3-10,9.2-10a20.258,20.258,0,0,1,4.2.6l-.8-3.4,3.2-2-6.2-3,5.6-1.7-1.3-2.6L421.6.4a25.221,25.221,0,0,0-9-1.7M289-1.2c-12.8.3-25.7,1.2-38.4,2.5l.2,2.6,4.8,2.3L247.9,8l-1.1,2.1,5.3,2.1-5.8,3,.5,2.9,11.1-.4c-4.1,8.7-7.6,17.8-11,26.8-4,10.6-7.8,21.3-11.4,32l1.4,2.7,3.8-4.1v6.5l3.6-2.6,1.8-2.9.4,4.4,2.2-1.9.4,4.2,3.1-.8c3.7-13.2,8.1-26.3,13-39.1A288.368,288.368,0,0,1,276.5,16l11.5-.8-1.3-3.3,3.2-2.6-1.8-2.6,4.4-2.5-3.9-1.3,2.2-1.6L289-1.2m-92.6.4c-7.3,14.9-19.7,41.7-21.4,57.7a50.68,50.68,0,0,0-.3,5.5c0,7.9,1.7,15.4,9.8,18.6A32.4,32.4,0,0,0,196,83.4c7.1,0,13.5-3.8,18.7-8.3,3.8-3.3,9.1-12.5,10.7-17.3,2-5.8,3.7-11.7,5.8-17.5,4.5-12.6,9.6-25,15.1-37.2L244.9.4l-4,3.8L240,2.3,236.5,6l-.2-4.1-.9-2.3-5,6.7.1-5.8-3.8,1.9c-2.4,5.8-4.4,11.8-6.5,17.7-2.9,8.5-5.9,16.9-9.1,25.3-1.7,4.3-3.4,8.6-5.4,12.7-1.5,3-3.5,7.1-7.4,7.1-4.5,0-5.7-3.2-5.7-7.2a34.3,34.3,0,0,1,.5-5.6,46.975,46.975,0,0,1,3.1-10.3c2.4-6.4,5.2-12.8,7.7-19.2,2.8-7.1,5.5-14.2,8.9-21l-2.7,1.4L209.3,0l-3.6,5.2-1.1-3-1.8,2-1.1-1.1L197.6,7l.7-6L196.4-.8M337-.8c-7.3,14.9-19.7,41.7-21.4,57.7a50.676,50.676,0,0,0-.3,5.5c0,7.9,1.7,15.4,9.8,18.6a32.4,32.4,0,0,0,11.5,2.4c7.1,0,13.5-3.8,18.7-8.3,3.8-3.3,9.1-12.5,10.7-17.3,2-5.8,3.7-11.7,5.8-17.5,4.5-12.6,9.6-25,15.1-37.2L385.5.4l-4,3.8-.9-1.9L377.1,6l-.2-4.1L376-.4l-5,6.7.1-5.8-3.8,1.9c-2.4,5.8-4.4,11.8-6.5,17.7-2.9,8.5-5.9,16.9-9.1,25.3-1.7,4.3-3.4,8.6-5.4,12.7-1.5,3-3.5,7.1-7.4,7.1-4.5,0-5.7-3.2-5.7-7.2a34.3,34.3,0,0,1,.5-5.6,46.976,46.976,0,0,1,3.1-10.3c2.4-6.4,5.2-12.8,7.7-19.2,2.8-7.1,5.5-14.2,8.9-21l-2.7,1.4L349.9,0l-3.6,5.2-1.1-3-1.8,2-1.1-1.1L338.2,7l.7-6L337-.8M38.6-.6C29.8,9.9,22.2,21.8,15.1,33.5,6.1,48.3-2.4,63.8-9.1,79.8l4.9-2.1v2.9l5.7-6.3L2,78.1,4.2,76l.4,3.8,2.7-1.7H9.5c1.9-3.5,3.8-7.1,5.7-10.6,2.4-.2,4.8-.4,7.2-.8A61.272,61.272,0,0,1,31,65.6a22.751,22.751,0,0,1,2.6.2c-.1,2.7-.2,5.3-.2,8,0,1.4,0,2.9.1,4.3l3.4,2.6,1.8-4.6,1.4,5.8,2.6-3.5.9-3.2,1.7,4.3L46.8,77l1.6,4,2.7-1.6c.2-25.8,3.4-51.5,5.6-77.1L54.6.8,51.2,4.9l-.8-3L47.3,4.8,46.2.2,41.6,5.7,40.3.9,38.6-.6m-4,51.4c-3.7-.4-7.1,1-10.7,1.1,4.7-8.2,8.4-16.7,14.2-24.3h.2a151.458,151.458,0,0,0-3.7,23.2M164.5-.6,161.2,1l3,2.9h-3.9l.8,2.6a34.63,34.63,0,0,0-7.9-.5l2.2-2.9-4.1-1.2L152-.4a27.087,27.087,0,0,0-14.4,7.9C125.8,20.4,119.3,37.4,116,54.3a38.084,38.084,0,0,0-.7,7.5c0,7.2,2,14.6,9.1,17.8A26.964,26.964,0,0,0,135.2,82c7.4,0,14.1-3.7,19.7-8.3,3.5-2.9,9.8-13,12-17.2,4.9-9.6,10.5-28.7,10.5-39.4,0-9.3-3.2-15.8-12.9-17.7M138.4,64c-4,0-4.9-3.8-4.9-7a40.475,40.475,0,0,1,.5-6c.9-5.7,7.4-19.9,10.2-25.4,1.9-3.8,5.5-9.2,10.3-9.2a7.789,7.789,0,0,1,2.1.4c2.1,1,3,4.3,3,6.4a18.587,18.587,0,0,1-1.1,5.7c-2.5,7.5-7.1,21.4-11.4,27.6-1.8,2.6-5.2,7.5-8.7,7.5m73.58-78.412,2.149,8.864,12.289-6.372-8.252,16.5c-2.91,5.819-5.27,11.828-7.769,18.19l-.916,2.328c-1.077,2.757-2.216,5.532-3.356,8.307-1.478,3.6-2.958,7.2-4.308,10.8a42.692,42.692,0,0,0-2.775,9.019A29.146,29.146,0,0,0,198.6,58c0,.186,0,.355.01.509a25.6,25.6,0,0,0,1.666-2.979c1.963-4.023,3.6-8.181,5.243-12.336,3.148-8.264,6.124-16.6,9-25.031l1.414-4.011c1.652-4.71,3.315-9.439,5.221-14.046l.857-2.07L233.288-7.6l3.763-5.043,2.583,6.6,2.034-2.15,1.107,2.337,3.778-3.589,2.526,4.871.91-.093c13.608-1.393,26.685-2.244,38.87-2.53l3.162-.074,4.726,6.564L307.17,2.766l-10.4,5.911L298,10.453l-4.1,3.334,2.691,6.83-16.191,1.126c-3.739,7.95-6.913,16.142-9.571,23.256-5.007,13.079-9.322,26.058-12.843,38.619l-.933,3.327L244.453,90.2l-2.871,2.479-.368-4.045-6.514,4.7V87.992L229,77l.812-2.414c3.623-10.769,7.448-21.537,11.473-32.205,2.347-6.214,4.688-12.328,7.225-18.339l-4.745.171c-2.494,6.138-4.787,12.143-6.916,18.1-1.171,3.233-2.206,6.473-3.241,9.709-.827,2.584-1.653,5.166-2.537,7.729-1.723,5.172-7.443,15.537-12.438,19.874C211.14,86.115,203.528,89.4,196,89.4a38.084,38.084,0,0,1-13.728-2.829c-11.44-4.52-13.237-15.289-13.519-21.347-2.846,4.6-6.828,10.448-10.024,13.1C150.9,84.749,142.993,88,135.2,88a33.121,33.121,0,0,1-13.222-2.91,20.122,20.122,0,0,1-10.812-11.718C102.841,83.694,91.7,88.5,76.1,88.5a134.373,134.373,0,0,1-14.448-.935l-3.979-.432-1.08-3.672-.239-.2-9.8,5.806L44.19,93.012,42.5,88.733l-5.224,7.032L35.136,86.9l-7.428-5.68-.193-2.7c-.11-1.539-.115-3.188-.115-4.727q0-.931.014-1.849c-.521.085-1.041.177-1.558.266l-2.608.422c-1.4.233-2.836.406-4.3.55L13.07,84.1H9.032l-9.39,5.912L-.489,88.77-2.407,90.6l-.349-2.654L-10.2,96.175V86.8l-10.159,4.354,5.725-13.671c6-14.335,14.052-29.742,24.608-47.1C17.016,18.777,24.8,6.521,34-4.454l3.953-4.717,4.753,4.194,6.55-7.832L50.736-6.63l2.881-2.695.675,2.531,8.68,6.2-.293,3.408c-.546,6.358-1.154,12.722-1.763,19.092q-.573,6-1.138,12.081c1.82-4.967,3.638-9.865,5.76-14.4l-3.8-1.411,5.673-6.039L63.606,7.517,67.85,6.262l3.71-3L67.212-1.677l9.151-2.6A82.358,82.358,0,0,1,98.8-7.5a49.974,49.974,0,0,1,8.286.582c11.357,1.757,16.827,12.39,17.282,22.01a79.949,79.949,0,0,1,8.8-11.642,33.151,33.151,0,0,1,17.608-9.725l9.9-2.056-1.04,3.416,4.04-1.959,1.967.385c7.425,1.454,16.158,6.1,17.554,19.684q3.485-7.819,7.8-16.635l3.59-7.328,6.5,6.157.7-.669.766.766,4.233-4.7.547,1.492ZM139.5,56.6a40.894,40.894,0,0,0,2.664-3.516c3.751-5.409,8.331-19.151,10.532-25.756a13.868,13.868,0,0,0,.9-4.129,3.333,3.333,0,0,0-.054-.552,19.282,19.282,0,0,0-3.98,5.635c-3.5,6.879-8.981,19.479-9.64,23.652A35.373,35.373,0,0,0,139.5,56.6ZM82.363,59.268C84.68,58.657,86.8,57.314,86.8,56.2a2.373,2.373,0,0,0-.072-.555c-1.1.32-2.2.585-3.263.788Q82.905,57.814,82.363,59.268ZM352.58-14.412l2.149,8.864,12.289-6.372-8.252,16.5c-2.91,5.819-5.27,11.828-7.769,18.19l-.916,2.328c-1.077,2.757-2.216,5.532-3.356,8.307-1.478,3.6-2.958,7.2-4.308,10.8a42.691,42.691,0,0,0-2.775,9.019A29.146,29.146,0,0,0,339.2,58c0,.186,0,.355.01.509a25.6,25.6,0,0,0,1.666-2.979c1.963-4.023,3.6-8.181,5.243-12.336,3.148-8.264,6.124-16.6,9-25.031l1.414-4.011c1.652-4.71,3.315-9.439,5.221-14.046l.857-2.07L373.888-7.6l3.763-5.043,2.583,6.6,2.034-2.15,1.107,2.337,3.778-3.589L392.239.363A32.324,32.324,0,0,1,412.6-7.3a31.3,31.3,0,0,1,11.128,2.09l8.1,3.072-5.253,5.969,1.488,2.976,5.631,2.724-8.767,5.479,1.987,8.443-9.269-1.986A16.2,16.2,0,0,0,414.7,21c-1.5,0-3.2,0-3.2,4a24.949,24.949,0,0,0,2,8.557c2.319,6.05,4.8,13.154,4.8,20.843,0,18.7-16.715,34.5-36.5,34.5a32.236,32.236,0,0,1-18.28-5.343l-.965-.658-2.613-3.92q-.356.344-.708.65c-7.494,6.485-15.106,9.77-22.634,9.77a38.084,38.084,0,0,1-13.728-2.829C309.3,81.209,309.3,67.052,309.3,62.4a56.779,56.779,0,0,1,.337-6.163c1.333-12.55,8.728-32.638,21.975-59.677l3.59-7.328,6.5,6.157.7-.669.766.766,4.233-4.7.547,1.492ZM383.3,58.2c3.779,0,5.5-3.421,5.5-6.6a14.231,14.231,0,0,0-2.094-6.776,45.939,45.939,0,0,1-5.089-13.687q-2.187,5.637-4.166,11.181c-1.171,3.233-2.206,6.473-3.241,9.709q-.314.982-.629,1.964l5.393,2.942A9.42,9.42,0,0,0,383.3,58.2Z" transform="translate(16796 -4590)" fill="#423fbf"/>
  </g>
</svg>
