<svg xmlns="http://www.w3.org/2000/svg" width="540.219" height="143.991" viewBox="0 0 540.219 143.991">
  <g id="Group_4047" data-name="Group 4047" transform="translate(-16768.135 4480.32)">
    <path id="Path_9922" data-name="Path 9922" d="M38.3,27.6a151.46,151.46,0,0,0-3.7,23.2c-3.7-.4-7.1,1-10.7,1.1,4.7-8.2,8.4-16.7,14.2-24.3ZM54.6.8,51.2,4.9l-.8-3L47.3,4.8,46.2.2,41.6,5.7,40.3.9,38.6-.6C29.8,9.9,22.2,21.8,15.1,33.5,6.1,48.3-2.4,63.8-9.1,79.8l4.9-2.1v2.9l5.7-6.3L2,78.1,4.2,76l.4,3.8,2.7-1.7H9.5c1.9-3.5,3.8-7.1,5.7-10.6,2.4-.2,4.8-.4,7.2-.8A61.272,61.272,0,0,1,31,65.6a22.751,22.751,0,0,1,2.6.2c-.1,2.7-.2,5.3-.2,8,0,1.4,0,2.9.1,4.3l3.4,2.6,1.8-4.6,1.4,5.8,2.6-3.5.9-3.2,1.7,4.3L46.8,77l1.6,4,2.7-1.6c.2-25.8,3.4-51.5,5.6-77.1Zm45.8-2.3c-2.3,1.3-4.6,3.8-6.3,5.7L93.7.8,91.1,2.9V-2.2l-5,6.7L85.8.7,83.2,1.9a112.841,112.841,0,0,0-6.1,11.4c-2.9,5.9-5.6,11.9-8.2,17.9C62.6,45.7,55.6,62.3,51.3,77.5l5.2.9L55.6,83c4.1.4,8.3.6,12.4.6a70.133,70.133,0,0,0,19.4-2.3L90,77.9l-3.7-.7a14.541,14.541,0,0,1,3.9-4.3l-4.8-.8,2.1-1.8-2.7-.8,2.8-2.4a87.087,87.087,0,0,1-10.2.5H73.7c4.8-13.5,10.2-26.8,15.8-39.9C93.4,18.6,97.2,9.4,101.8.6Zm38.7.7c-2,1-5.2,5.2-6.4,7l-.5-4.1-2.8,2.6-.3-5.9-5,5.9-.9-2.9-2.1,1.3c-5.6,9.3-10.5,22.5-14.4,32.7-2.9,7.6-5.7,15.3-8.2,23-1.9,5.8-3.8,11.7-5.2,17.7l2.1,2.7,4.5-5.6-.3,7.7a15.314,15.314,0,0,0,4.6-5.2l.2,4.6,2.2-2.1.4,4.2,3.1-.8c4.2-15.1,9.8-30,15.4-44.6,4.7-12.1,9.3-24.4,15-36.1Zm41.6,6.1,1.9-1.9-1.5-1.1,1.3-2.5h-3.3c-10.1,0-20.4.5-30.3,2.5l.9,2.9,3.5,1.7-7,1.7,2.2,2.1-.5,2.1,4,.8-3.1,1.7c-3.5,5.4-6.2,11.5-8.8,17.4a313.483,313.483,0,0,0-16.2,44,14.137,14.137,0,0,1,4.5,1.1,24.01,24.01,0,0,0-1.2,3.8,109.421,109.421,0,0,0,15.1,1,68.723,68.723,0,0,0,18.6-2.3l2.6-3-5.8-1c1.3-.9,4.1-3.3,4.5-4.9l-4.9-.5,2.7-1.8-1.2-1.3,1.6-1.9c-4,.4-8.1.6-12.1.6a19.4,19.4,0,0,1-3.4-.2c2.1-6.2,4.7-12.2,7.3-18.2L168.7,47l2.2-2.5L168,42.4l2.4-1.3L167.3,39l6.4-1.8-5-2,2.6-2.1-2.2-1.7-9.3-.6c2.2-4.9,4.9-9.7,6.9-14.7a49.413,49.413,0,0,1,14.8-2l1.3-2.9-1.7-2.6,4-1.5Zm58.5-1.5L238.8.4l-2.1,2L235.9-1l-4.6,6-.4-3.3L228.4,4l-1.7-1.7a322.076,322.076,0,0,0-13.5,38.3l-.2.1L210,1.1l-3.4,4.2L205.1,3l-3.5,5.7-.5-9.5-5.8,6.9-1.6-3.2c-6,10.4-10.7,22.6-14.9,33.8-5.4,14.3-10.6,29-14.4,43.8l3.3-1.7.8,2.5,3.7-5,1,5,2.4-2.1,1.3,1.7,2.5-4.6.7,4.6,1.9-1.2c1.4-5.9,3.7-11.8,5.7-17.5,2.9-8.2,6-16.3,9.2-24.3l.4-.1a294.452,294.452,0,0,0,4.2,41.9l2.8-1.3,1.8-3.9,1.2,5.1,1.7-2,1.3,2.5,2.4-3,1.4,1.5,1.4-2.3,1.7,4.6c5.5-17.3,10.9-34.7,16.7-51.9,1.7-5.2,3.5-10.3,5.4-15.4,1.6-4.3,3.2-8.7,5.2-12.8Zm36.3,19.4a18.587,18.587,0,0,1-1.1,5.7c-2.5,7.5-7.1,21.4-11.4,27.6-1.8,2.6-5.2,7.5-8.7,7.5-4,0-4.9-3.8-4.9-7a40.473,40.473,0,0,1,.5-6c.9-5.7,7.4-19.9,10.2-25.4,1.9-3.8,5.5-9.2,10.3-9.2a7.789,7.789,0,0,1,2.1.4C274.6,17.8,275.5,21.1,275.5,23.2Zm17.8-6.1c0-9.3-3.2-15.8-12.9-17.7L277.1,1l3,2.9h-3.9l.8,2.6a34.629,34.629,0,0,0-7.9-.5l2.2-2.9-4.1-1.2.7-2.3a27.087,27.087,0,0,0-14.4,7.9c-11.8,12.9-18.3,29.9-21.6,46.8a38.084,38.084,0,0,0-.7,7.5c0,7.2,2,14.6,9.1,17.8A26.964,26.964,0,0,0,251.1,82c7.4,0,14.1-3.7,19.7-8.3,3.5-2.9,9.8-13,12-17.2C287.7,46.9,293.3,27.8,293.3,17.1ZM373.2,3.5l-1.4-2-3,2.6-.4-4.5-3.8,6-1.1-2.4-3.9,3.3-.3-2.7a161.943,161.943,0,0,0-13,13.2c-6.7,7.3-13,14.8-19.2,22.5l1.3-38.4L325,5.4,323.4,3l-4.1,7.4L318.2-.9l-4.7,7-1.9-3c-6.6,12.9-12,26.4-17.3,39.8-4.8,12.3-9.7,24.8-13.2,37.6l2.6-1.3,1.5,2.1,4.1-6.3.6,6.3,2.4-2.1.9,1.5,3-4.4.5,4.5,2.1-1.1c3.2-11.4,8.3-23.5,13.3-34.1h.2A239.309,239.309,0,0,0,314,80.5l1.8-.6c3-4.5,6.3-8.8,9.6-13.1,5.6-7.2,11.3-14.3,17.3-21.2h.1c-4.7,9.6-7.9,22.3-9.2,32.8l1.4,1.8,4.3-5.6.1,4.4,1.6-1.4,1.3,2.5,2.5-3,.4,5,2.5-3.2,1.5,2c5.9-17.6,11.6-35.1,17.7-52.6,1.8-5,3.5-10,5.4-15a103.244,103.244,0,0,1,5-11.9ZM406.9-.8c-2,1-5.2,5.2-6.4,7L400,2.1l-2.8,2.6-.3-5.9-5,5.9L391,1.8l-2.1,1.3c-5.6,9.3-10.5,22.5-14.4,32.7-2.9,7.6-5.7,15.3-8.2,23-1.9,5.8-3.8,11.7-5.2,17.7l2.1,2.7,4.5-5.6-.3,7.7a15.314,15.314,0,0,0,4.6-5.2l.2,4.6,2.2-2.1.4,4.2,3.1-.8c4.2-15.1,9.8-30,15.4-44.6,4.7-12.1,9.3-24.4,15-36.1Zm52.2,11.6c-4-7.5-10.4-12.4-19.1-12.4a28.764,28.764,0,0,0-7.7,1.2c-5.2,1.5-13.1,6.7-16.4,11.1C405,25,398.9,38.1,396.9,56a48.867,48.867,0,0,0-.3,5.4c0,7.7,2,15.7,9.9,18.7a29.385,29.385,0,0,0,10.2,2c7.9,0,14.7-4.3,20.6-9.1.7-1.2,1.4-2.5,2-3.8l-3.5,1,.7-3.2-2.1.5,1.2-4.7-5.5,3.3,1.5-4.3-2.7.7.7-2.2c-2.2,2.1-5.5,4.5-8.7,4.5-5.1,0-6.3-6.1-6.3-10.1,0-8.2,6.6-23.1,11.3-29.8,2.8-4,5.5-8.2,10.9-8.2,3.4,0,5.2,2.7,6.9,5.3l1.7-2.5,4.4.4-2.4-5.8,4.9,2.4.5-3,4.1.8-.7-3.1ZM492,.4a25.222,25.222,0,0,0-9-1.7c-7.7,0-15,4-20.1,9.7-3.8,4.3-5.5,10.4-5.5,16,0,6.4,2,12.1,5,17.6a20.2,20.2,0,0,1,2.8,9.6c0,6.7-4.5,12.6-11.5,12.6a15.285,15.285,0,0,1-7.2-2l.9,2.1-3.1.4,2.4,4.5-6.8-1.5,1.2,4.4-2.1.6.9,3.4-4,.4,1.4,2.1a26.184,26.184,0,0,0,14.9,4.3c15.5,0,30.5-12.5,30.5-28.5,0-6.5-2.1-12.7-4.4-18.7A30.3,30.3,0,0,1,475.9,25c0-5.9,3-10,9.2-10a20.257,20.257,0,0,1,4.2.6l-.8-3.4,3.2-2-6.2-3,5.6-1.7-1.3-2.6Z" transform="translate(16796 -4448)" fill="#0ce8ad"/>
    <path id="Path_9922_-_Outline" data-name="Path 9922 - Outline" d="M91.1-2.2l-5,6.7L85.8.7,83.2,1.9a112.842,112.842,0,0,0-6.1,11.4c-2.9,5.9-5.6,11.9-8.2,17.9C62.6,45.7,55.6,62.3,51.3,77.5l5.2.9L55.6,83c4.1.4,8.3.6,12.4.6a70.133,70.133,0,0,0,19.4-2.3L90,77.9l-3.7-.7a14.542,14.542,0,0,1,3.9-4.3l-4.8-.8,2.1-1.8-2.7-.8,2.8-2.4a87.088,87.088,0,0,1-10.2.5H73.7c4.8-13.5,10.2-26.8,15.8-39.9C93.4,18.6,97.2,9.4,101.8.6l-1.4-2.1c-2.3,1.3-4.6,3.8-6.3,5.7L93.7.8,91.1,2.9V-2.2M440-1.6a28.763,28.763,0,0,0-7.7,1.2c-5.2,1.5-13.1,6.7-16.4,11.1C405,25,398.9,38.1,396.9,56a48.867,48.867,0,0,0-.3,5.4c0,7.7,2,15.7,9.9,18.7a29.385,29.385,0,0,0,10.2,2c7.9,0,14.7-4.3,20.6-9.1.7-1.2,1.4-2.5,2-3.8l-3.5,1,.7-3.2-2.1.5,1.2-4.7-5.5,3.3,1.5-4.3-2.7.7.7-2.2c-2.2,2.1-5.5,4.5-8.7,4.5-5.1,0-6.3-6.1-6.3-10.1,0-8.2,6.6-23.1,11.3-29.8,2.8-4,5.5-8.2,10.9-8.2,3.4,0,5.2,2.7,6.9,5.3l1.7-2.5,4.4.4-2.4-5.8,4.9,2.4.5-3,4.1.8-.7-3.1,2.9-.4c-4-7.5-10.4-12.4-19.1-12.4m43,.3c-7.7,0-15,4-20.1,9.7-3.8,4.3-5.5,10.4-5.5,16,0,6.4,2,12.1,5,17.6a20.2,20.2,0,0,1,2.8,9.6c0,6.7-4.5,12.6-11.5,12.6a15.285,15.285,0,0,1-7.2-2l.9,2.1-3.1.4,2.4,4.5-6.8-1.5,1.2,4.4-2.1.6.9,3.4-4,.4,1.4,2.1a26.184,26.184,0,0,0,14.9,4.3c15.5,0,30.5-12.5,30.5-28.5,0-6.5-2.1-12.7-4.4-18.7A30.3,30.3,0,0,1,475.9,25c0-5.9,3-10,9.2-10a20.257,20.257,0,0,1,4.2.6l-.8-3.4,3.2-2-6.2-3,5.6-1.7-1.3-2.6L492,.4a25.221,25.221,0,0,0-9-1.7m-353.9.1-5,5.9-.9-2.9-2.1,1.3c-5.6,9.3-10.5,22.5-14.4,32.7-2.9,7.6-5.7,15.3-8.2,23-1.9,5.8-3.8,11.7-5.2,17.7l2.1,2.7,4.5-5.6-.3,7.7a15.314,15.314,0,0,0,4.6-5.2l.2,4.6,2.2-2.1.4,4.2,3.1-.8c4.2-15.1,9.8-30,15.4-44.6,4.7-12.1,9.3-24.4,15-36.1L139.1-.8c-2,1-5.2,5.2-6.4,7l-.5-4.1-2.8,2.6-.3-5.9m267.8,0-5,5.9L391,1.8l-2.1,1.3c-5.6,9.3-10.5,22.5-14.4,32.7-2.9,7.6-5.7,15.3-8.2,23-1.9,5.8-3.8,11.7-5.2,17.7l2.1,2.7,4.5-5.6-.3,7.7a15.314,15.314,0,0,0,4.6-5.2l.2,4.6,2.2-2.1.4,4.2,3.1-.8c4.2-15.1,9.8-30,15.4-44.6,4.7-12.1,9.3-24.4,15-36.1L406.9-.8c-2,1-5.2,5.2-6.4,7L400,2.1l-2.8,2.6-.3-5.9M235.9-1l-4.6,6-.4-3.3L228.4,4l-1.7-1.7a322.084,322.084,0,0,0-13.5,38.3l-.2.1L210,1.1l-3.4,4.2L205.1,3l-3.5,5.7-.5-9.5-5.8,6.9-1.6-3.2c-6,10.4-10.7,22.6-14.9,33.8-5.4,14.3-10.6,29-14.4,43.8l3.3-1.7.8,2.5,3.7-5,1,5,2.4-2.1,1.3,1.7,2.5-4.6.7,4.6,1.9-1.2c1.4-5.9,3.7-11.8,5.7-17.5,2.9-8.2,6-16.3,9.2-24.3l.4-.1a294.452,294.452,0,0,0,4.2,41.9l2.8-1.3,1.8-3.9,1.2,5.1,1.7-2,1.3,2.5,2.4-3,1.4,1.5,1.4-2.3,1.7,4.6c5.5-17.3,10.9-34.7,16.7-51.9,1.7-5.2,3.5-10.3,5.4-15.4,1.6-4.3,3.2-8.7,5.2-12.8l-5.3,3L238.8.4l-2.1,2L235.9-1m82.3.1-4.7,7-1.9-3c-6.6,12.9-12,26.4-17.3,39.8-4.8,12.3-9.7,24.8-13.2,37.6l2.6-1.3,1.5,2.1,4.1-6.3.6,6.3,2.4-2.1.9,1.5,3-4.4.5,4.5,2.1-1.1c3.2-11.4,8.3-23.5,13.3-34.1h.2A239.309,239.309,0,0,0,314,80.5l1.8-.6c3-4.5,6.3-8.8,9.6-13.1,5.6-7.2,11.3-14.3,17.3-21.2h.1c-4.7,9.6-7.9,22.3-9.2,32.8l1.4,1.8,4.3-5.6.1,4.4,1.6-1.4,1.3,2.5,2.5-3,.4,5,2.5-3.2,1.5,2c5.9-17.6,11.6-35.1,17.7-52.6,1.8-5,3.5-10,5.4-15a103.246,103.246,0,0,1,5-11.9l-4.1,2.1-1.4-2-3,2.6-.4-4.5-3.8,6-1.1-2.4-3.9,3.3-.3-2.7a161.947,161.947,0,0,0-13,13.2c-6.7,7.3-13,14.8-19.2,22.5l1.3-38.4L325,5.4,323.4,3l-4.1,7.4L318.2-.9M38.6-.6C29.8,9.9,22.2,21.8,15.1,33.5,6.1,48.3-2.4,63.8-9.1,79.8l4.9-2.1v2.9l5.7-6.3L2,78.1,4.2,76l.4,3.8,2.7-1.7H9.5c1.9-3.5,3.8-7.1,5.7-10.6,2.4-.2,4.8-.4,7.2-.8A61.271,61.271,0,0,1,31,65.6a22.753,22.753,0,0,1,2.6.2c-.1,2.7-.2,5.3-.2,8,0,1.4,0,2.9.1,4.3l3.4,2.6,1.8-4.6,1.4,5.8,2.6-3.5.9-3.2,1.7,4.3L46.8,77l1.6,4,2.7-1.6c.2-25.8,3.4-51.5,5.6-77.1L54.6.8,51.2,4.9l-.8-3L47.3,4.8,46.2.2,41.6,5.7,40.3.9,38.6-.6m-4,51.4c-3.7-.4-7.1,1-10.7,1.1,4.7-8.2,8.4-16.7,14.2-24.3h.2a151.458,151.458,0,0,0-3.7,23.2M280.4-.6,277.1,1l3,2.9h-3.9l.8,2.6a34.627,34.627,0,0,0-7.9-.5l2.2-2.9-4.1-1.2.7-2.3a27.087,27.087,0,0,0-14.4,7.9c-11.8,12.9-18.3,29.9-21.6,46.8a38.084,38.084,0,0,0-.7,7.5c0,7.2,2,14.6,9.1,17.8A26.964,26.964,0,0,0,251.1,82c7.4,0,14.1-3.7,19.7-8.3,3.5-2.9,9.8-13,12-17.2,4.9-9.6,10.5-28.7,10.5-39.4,0-9.3-3.2-15.8-12.9-17.7M254.3,64c-4,0-4.9-3.8-4.9-7a40.473,40.473,0,0,1,.5-6c.9-5.7,7.4-19.9,10.2-25.4,1.9-3.8,5.5-9.2,10.3-9.2a7.789,7.789,0,0,1,2.1.4c2.1,1,3,4.3,3,6.4a18.587,18.587,0,0,1-1.1,5.7c-2.5,7.5-7.1,21.4-11.4,27.6-1.8,2.6-5.2,7.5-8.7,7.5M179.1-.2c-10.1,0-20.4.5-30.3,2.5l.9,2.9,3.5,1.7-7,1.7,2.2,2.1-.5,2.1,4,.8-3.1,1.7c-3.5,5.4-6.2,11.5-8.8,17.4a313.482,313.482,0,0,0-16.2,44,14.137,14.137,0,0,1,4.5,1.1,24.009,24.009,0,0,0-1.2,3.8,109.422,109.422,0,0,0,15.1,1,68.723,68.723,0,0,0,18.6-2.3l2.6-3-5.8-1c1.3-.9,4.1-3.3,4.5-4.9l-4.9-.5,2.7-1.8-1.2-1.3,1.6-1.9c-4,.4-8.1.6-12.1.6a19.4,19.4,0,0,1-3.4-.2c2.1-6.2,4.7-12.2,7.3-18.2L168.7,47l2.2-2.5L168,42.4l2.4-1.3L167.3,39l6.4-1.8-5-2,2.6-2.1-2.2-1.7-9.3-.6c2.2-4.9,4.9-9.7,6.9-14.7a49.414,49.414,0,0,1,14.8-2l1.3-2.9-1.7-2.6,4-1.5-4.4-1.8,1.9-1.9-1.5-1.1,1.3-2.5h-3.3m-78-32.12v14.289l.414-.335.524,4.453,1.529-.864,8.736,13.1.23-.385L113.78-4.13l9.875-6.113,14.148-16.7.495,9.729,1.456-1.352.719,5.894,2.05-1.025,4.147,6.22.149-.03c11.971-2.418,24.156-2.7,32.28-2.7h10.613l4.617-8,3.109,6.217,12.316-14.652.6,11.406,7.715-9.531,1.4,18.526,3.843-8.991,5.373,5.373,4.746-4.367,7.367-9.609,1.636,6.955,3.956-3.767.979,8.324,20.241-11.457L260.2-8.569a39.75,39.75,0,0,1,5.671-1.623l16.508-3.426-.923,3.034.87.17C287.91-9.319,296.2-6.15,300.491,2.965q1.083-2.223,2.206-4.42l7.978-15.594,3.069,4.845L325.45-29.637,327.04-13.3l12.384-15.662-1.359,40.152q.435-.477.868-.95A169.958,169.958,0,0,1,352.738-3.746l13.23-11.5,9.778-15.439,1.841,20.707,23.279-11.924-.775,1.472,5.512-6.5.495,9.729,1.456-1.352.719,5.894,2.05-1.025L417-3.677a45.17,45.17,0,0,1,12.528-6.331A38.554,38.554,0,0,1,440-11.6a29.6,29.6,0,0,1,20.868,8.261A36.141,36.141,0,0,1,483-11.3a35.289,35.289,0,0,1,12.547,2.35l13.5,5.12L502.061,4.1l10.292,4.98-12.478,7.8,2.778,11.805L487.2,25.378c-.4-.086-.889-.19-1.3-.267a22.271,22.271,0,0,0,1.74,7.018c2.446,6.382,5.06,13.9,5.06,22.271,0,20.869-18.547,38.5-40.5,38.5a36.606,36.606,0,0,1-19.056-5.088A35.571,35.571,0,0,1,416.7,92.1a39.1,39.1,0,0,1-13.711-2.637,23.841,23.841,0,0,1-13.246-12.3q-1.159,3.755-2.208,7.515l-1.547,5.561L373.242,93.53l-10.076,9.618-.3-6.809-6.226,4.15.456-11.694-4.473,13.342-5.09-6.786-10.259,13.132-1.072-13.4-.079.069-1.077,1.4-.213-.274-4.949,4.331-.25-11.016-4.45-5.722q-.54.783-1.068,1.574l-1.9,2.855-16.564,5.521-.784-6.013L298,91.406l-5.341,7.834-2.3-3.832-1.986,1.04-.053-.481-1.713,1.5-1.026,1.577-.3-.418-3.49,3.054-.873-9.162-.394-.551-14.979,7.49,3.388-12.389A36.509,36.509,0,0,1,251.1,92a37.148,37.148,0,0,1-14.836-3.251,24.154,24.154,0,0,1-8.89-6.85l-9.463,29.771-6.339-17.152-3.058,3.822-1.525-2.933-4.889,5.752L199.827,91.5l-5.844,2.713-2.239-12.269-.015.063-.942,3.968-8.018,5.064-4.447,8.182L175.552,95.6l-3.038,1.919-.313-2.057-4.937,4.32-2.338,3.159L161.777,93.1l-12.6,6.493,1.9-7.4q-4.265.408-8.874.409a119.477,119.477,0,0,1-16.486-1.1l-8.052-1.127-12.22,3.153-10.076,9.618-.3-6.809-6.226,4.15.363-9.31A80.021,80.021,0,0,1,68,93.6c-4.421,0-8.95-.216-13.371-.647l-5.421-.529-5.758,9.6-2.028-5.13-6.031,8.119L31.58,89.22l-7.733-5.914-.321-4.494c-.05-.7-.08-1.424-.1-2.15-.636.1-1.286.191-1.947.272L15.45,88.1H10.186L-2.092,95.831l-3.252,3.1-.249-1.89-8.607,9.513V92.865l-13.665,5.856,9.541-22.784C-12.243,61.416-4.1,45.835,6.556,28.3c7.123-11.737,15.01-24.147,24.38-35.328l6.589-7.862,4.75,4.191L51.3-21.482l1.729,7.231,2.734-2.558,2.025,7.595,9.366,6.69-.488,5.68q-.464,5.4-.976,10.807,1.2-2.547,2.438-5.074A120.748,120.748,0,0,1,74.773-3.484L76.35-5.952l7.737-3.571ZM443.537,40.024,435.8,28.186c-.439.634-.944,1.359-1.353,1.945A65.813,65.813,0,0,0,428.6,41.043l12.481,6.808,10.1-6.058a47.374,47.374,0,0,1-2.853-8.806ZM453.7,54.2c1.483,0,1.5-2.574,1.5-2.6a10.712,10.712,0,0,0-1.624-4.894q-1.305-2.393-2.333-4.754L448.679,52l2.61,1.423A5.327,5.327,0,0,0,453.7,54.2Zm-22.621-2.6-3.488-8.139c-1.665,4.2-2.853,8.23-2.98,10.8l1.517.948-.229-.84.947.209-.456-1.76ZM88.6,56.914l.4-1.227q.45-1.386.913-2.773-.808,2.043-1.578,4.031Z" transform="translate(16796 -4448)" fill="#edfd27"/>
    <path id="Path_9922_-_Outline-2" data-name="Path 9922 - Outline" d="M91.1-2.2l-5,6.7L85.8.7,83.2,1.9a112.842,112.842,0,0,0-6.1,11.4c-2.9,5.9-5.6,11.9-8.2,17.9C62.6,45.7,55.6,62.3,51.3,77.5l5.2.9L55.6,83c4.1.4,8.3.6,12.4.6a70.133,70.133,0,0,0,19.4-2.3L90,77.9l-3.7-.7a14.542,14.542,0,0,1,3.9-4.3l-4.8-.8,2.1-1.8-2.7-.8,2.8-2.4a87.088,87.088,0,0,1-10.2.5H73.7c4.8-13.5,10.2-26.8,15.8-39.9C93.4,18.6,97.2,9.4,101.8.6l-1.4-2.1c-2.3,1.3-4.6,3.8-6.3,5.7L93.7.8,91.1,2.9V-2.2M440-1.6a28.763,28.763,0,0,0-7.7,1.2c-5.2,1.5-13.1,6.7-16.4,11.1C405,25,398.9,38.1,396.9,56a48.867,48.867,0,0,0-.3,5.4c0,7.7,2,15.7,9.9,18.7a29.385,29.385,0,0,0,10.2,2c7.9,0,14.7-4.3,20.6-9.1.7-1.2,1.4-2.5,2-3.8l-3.5,1,.7-3.2-2.1.5,1.2-4.7-5.5,3.3,1.5-4.3-2.7.7.7-2.2c-2.2,2.1-5.5,4.5-8.7,4.5-5.1,0-6.3-6.1-6.3-10.1,0-8.2,6.6-23.1,11.3-29.8,2.8-4,5.5-8.2,10.9-8.2,3.4,0,5.2,2.7,6.9,5.3l1.7-2.5,4.4.4-2.4-5.8,4.9,2.4.5-3,4.1.8-.7-3.1,2.9-.4c-4-7.5-10.4-12.4-19.1-12.4m43,.3c-7.7,0-15,4-20.1,9.7-3.8,4.3-5.5,10.4-5.5,16,0,6.4,2,12.1,5,17.6a20.2,20.2,0,0,1,2.8,9.6c0,6.7-4.5,12.6-11.5,12.6a15.285,15.285,0,0,1-7.2-2l.9,2.1-3.1.4,2.4,4.5-6.8-1.5,1.2,4.4-2.1.6.9,3.4-4,.4,1.4,2.1a26.184,26.184,0,0,0,14.9,4.3c15.5,0,30.5-12.5,30.5-28.5,0-6.5-2.1-12.7-4.4-18.7A30.3,30.3,0,0,1,475.9,25c0-5.9,3-10,9.2-10a20.257,20.257,0,0,1,4.2.6l-.8-3.4,3.2-2-6.2-3,5.6-1.7-1.3-2.6L492,.4a25.221,25.221,0,0,0-9-1.7m-353.9.1-5,5.9-.9-2.9-2.1,1.3c-5.6,9.3-10.5,22.5-14.4,32.7-2.9,7.6-5.7,15.3-8.2,23-1.9,5.8-3.8,11.7-5.2,17.7l2.1,2.7,4.5-5.6-.3,7.7a15.314,15.314,0,0,0,4.6-5.2l.2,4.6,2.2-2.1.4,4.2,3.1-.8c4.2-15.1,9.8-30,15.4-44.6,4.7-12.1,9.3-24.4,15-36.1L139.1-.8c-2,1-5.2,5.2-6.4,7l-.5-4.1-2.8,2.6-.3-5.9m267.8,0-5,5.9L391,1.8l-2.1,1.3c-5.6,9.3-10.5,22.5-14.4,32.7-2.9,7.6-5.7,15.3-8.2,23-1.9,5.8-3.8,11.7-5.2,17.7l2.1,2.7,4.5-5.6-.3,7.7a15.314,15.314,0,0,0,4.6-5.2l.2,4.6,2.2-2.1.4,4.2,3.1-.8c4.2-15.1,9.8-30,15.4-44.6,4.7-12.1,9.3-24.4,15-36.1L406.9-.8c-2,1-5.2,5.2-6.4,7L400,2.1l-2.8,2.6-.3-5.9M235.9-1l-4.6,6-.4-3.3L228.4,4l-1.7-1.7a322.084,322.084,0,0,0-13.5,38.3l-.2.1L210,1.1l-3.4,4.2L205.1,3l-3.5,5.7-.5-9.5-5.8,6.9-1.6-3.2c-6,10.4-10.7,22.6-14.9,33.8-5.4,14.3-10.6,29-14.4,43.8l3.3-1.7.8,2.5,3.7-5,1,5,2.4-2.1,1.3,1.7,2.5-4.6.7,4.6,1.9-1.2c1.4-5.9,3.7-11.8,5.7-17.5,2.9-8.2,6-16.3,9.2-24.3l.4-.1a294.452,294.452,0,0,0,4.2,41.9l2.8-1.3,1.8-3.9,1.2,5.1,1.7-2,1.3,2.5,2.4-3,1.4,1.5,1.4-2.3,1.7,4.6c5.5-17.3,10.9-34.7,16.7-51.9,1.7-5.2,3.5-10.3,5.4-15.4,1.6-4.3,3.2-8.7,5.2-12.8l-5.3,3L238.8.4l-2.1,2L235.9-1m82.3.1-4.7,7-1.9-3c-6.6,12.9-12,26.4-17.3,39.8-4.8,12.3-9.7,24.8-13.2,37.6l2.6-1.3,1.5,2.1,4.1-6.3.6,6.3,2.4-2.1.9,1.5,3-4.4.5,4.5,2.1-1.1c3.2-11.4,8.3-23.5,13.3-34.1h.2A239.309,239.309,0,0,0,314,80.5l1.8-.6c3-4.5,6.3-8.8,9.6-13.1,5.6-7.2,11.3-14.3,17.3-21.2h.1c-4.7,9.6-7.9,22.3-9.2,32.8l1.4,1.8,4.3-5.6.1,4.4,1.6-1.4,1.3,2.5,2.5-3,.4,5,2.5-3.2,1.5,2c5.9-17.6,11.6-35.1,17.7-52.6,1.8-5,3.5-10,5.4-15a103.246,103.246,0,0,1,5-11.9l-4.1,2.1-1.4-2-3,2.6-.4-4.5-3.8,6-1.1-2.4-3.9,3.3-.3-2.7a161.947,161.947,0,0,0-13,13.2c-6.7,7.3-13,14.8-19.2,22.5l1.3-38.4L325,5.4,323.4,3l-4.1,7.4L318.2-.9M38.6-.6C29.8,9.9,22.2,21.8,15.1,33.5,6.1,48.3-2.4,63.8-9.1,79.8l4.9-2.1v2.9l5.7-6.3L2,78.1,4.2,76l.4,3.8,2.7-1.7H9.5c1.9-3.5,3.8-7.1,5.7-10.6,2.4-.2,4.8-.4,7.2-.8A61.271,61.271,0,0,1,31,65.6a22.753,22.753,0,0,1,2.6.2c-.1,2.7-.2,5.3-.2,8,0,1.4,0,2.9.1,4.3l3.4,2.6,1.8-4.6,1.4,5.8,2.6-3.5.9-3.2,1.7,4.3L46.8,77l1.6,4,2.7-1.6c.2-25.8,3.4-51.5,5.6-77.1L54.6.8,51.2,4.9l-.8-3L47.3,4.8,46.2.2,41.6,5.7,40.3.9,38.6-.6m-4,51.4c-3.7-.4-7.1,1-10.7,1.1,4.7-8.2,8.4-16.7,14.2-24.3h.2a151.458,151.458,0,0,0-3.7,23.2M280.4-.6,277.1,1l3,2.9h-3.9l.8,2.6a34.627,34.627,0,0,0-7.9-.5l2.2-2.9-4.1-1.2.7-2.3a27.087,27.087,0,0,0-14.4,7.9c-11.8,12.9-18.3,29.9-21.6,46.8a38.084,38.084,0,0,0-.7,7.5c0,7.2,2,14.6,9.1,17.8A26.964,26.964,0,0,0,251.1,82c7.4,0,14.1-3.7,19.7-8.3,3.5-2.9,9.8-13,12-17.2,4.9-9.6,10.5-28.7,10.5-39.4,0-9.3-3.2-15.8-12.9-17.7M254.3,64c-4,0-4.9-3.8-4.9-7a40.473,40.473,0,0,1,.5-6c.9-5.7,7.4-19.9,10.2-25.4,1.9-3.8,5.5-9.2,10.3-9.2a7.789,7.789,0,0,1,2.1.4c2.1,1,3,4.3,3,6.4a18.587,18.587,0,0,1-1.1,5.7c-2.5,7.5-7.1,21.4-11.4,27.6-1.8,2.6-5.2,7.5-8.7,7.5M179.1-.2c-10.1,0-20.4.5-30.3,2.5l.9,2.9,3.5,1.7-7,1.7,2.2,2.1-.5,2.1,4,.8-3.1,1.7c-3.5,5.4-6.2,11.5-8.8,17.4a313.482,313.482,0,0,0-16.2,44,14.137,14.137,0,0,1,4.5,1.1,24.009,24.009,0,0,0-1.2,3.8,109.422,109.422,0,0,0,15.1,1,68.723,68.723,0,0,0,18.6-2.3l2.6-3-5.8-1c1.3-.9,4.1-3.3,4.5-4.9l-4.9-.5,2.7-1.8-1.2-1.3,1.6-1.9c-4,.4-8.1.6-12.1.6a19.4,19.4,0,0,1-3.4-.2c2.1-6.2,4.7-12.2,7.3-18.2L168.7,47l2.2-2.5L168,42.4l2.4-1.3L167.3,39l6.4-1.8-5-2,2.6-2.1-2.2-1.7-9.3-.6c2.2-4.9,4.9-9.7,6.9-14.7a49.414,49.414,0,0,1,14.8-2l1.3-2.9-1.7-2.6,4-1.5-4.4-1.8,1.9-1.9-1.5-1.1,1.3-2.5h-3.3m-82-20.072V-9.659L98.388-10.7l.38,3.23,3.532-2,6.464,9.7-1.647,3.15c-3.9,7.464-7.308,15.45-10.6,23.173l-1.5,3.511C89.987,41.826,85.866,52.02,82.314,61.5c1.528-.069,3.057-.182,4.585-.362l4.712-.554q.585-1.822,1.188-3.655c2.526-7.781,5.36-15.577,8.3-23.271l.736-1.927c3.832-10.045,8.6-22.547,14.13-31.729l.748-1.243,9.59-5.937,8.024-9.468.417,8.2,1.993-1.851.457,3.744,3.965-1.983,3.677,5.516,2.78-.562C159.231-5.929,171.148-6.2,179.1-6.2h12.923l2.055-3.561,2.505,5.01,9.71-11.551.581,11.037.25.383,7.719-9.535,1.916,25.293q2.129-5.562,4.425-10.935l3.487-8.158,3.9,3.9,6.875-6.325.038.315,3.354-4.375,1.3,5.533,3.213-3.06L244.1-5.87l14.264-8.074-7.69,15.764a33.863,33.863,0,0,1,16-8.094l9.9-2.056-1.04,3.416,4.04-1.959,1.967.385c7.77,1.522,16.972,6.538,17.7,21.634,2.2-4.962,4.529-9.939,7-14.779l4.787-9.356,2.6,4.107,8.9-13.26,1.032,10.6L325.413-4.8l9.6-12.142L333.69,22.167c2.795-3.248,5.5-6.293,8.189-9.225A166.974,166.974,0,0,1,355.363-.728L364-8.238l.32,2.884.248-.21,8.24-13.011,1.125,12.659,1.184,1.692,16.323-8.36L385.933-2.12,394.1-7.175l8.024-9.468.417,8.2,1.993-1.851.457,3.744,3.965-1.983L415.2.835l-1.507,3.093-.238.489c4.5-4.49,11.645-8.985,17.181-10.582A34.573,34.573,0,0,1,440-7.6a26.011,26.011,0,0,1,20.556,9.806A32.875,32.875,0,0,1,483-7.3a31.306,31.306,0,0,1,11.128,2.09l8.1,3.072-5.253,5.969,1.488,2.976,5.631,2.724-8.767,5.479,1.987,8.443-9.269-1.986A16.2,16.2,0,0,0,485.1,21c-1.5,0-3.2,0-3.2,4a24.95,24.95,0,0,0,2,8.557c2.319,6.05,4.8,13.154,4.8,20.843,0,18.7-16.715,34.5-36.5,34.5a32.236,32.236,0,0,1-18.28-5.343l-.584-.4A32.552,32.552,0,0,1,416.7,88.1a35.122,35.122,0,0,1-12.307-2.382c-6.241-2.37-13.641-8.423-13.791-23.838-2.548,7.237-4.9,14.462-6.922,21.728l-.928,3.336-11.519,2.972-4.454,4.252-.222-5.1-5.611,3.741.25-6.416-5.253-6.754-4.687,14L347.6,88.77l-7.156,9.159-.793-9.912-.453-.871-5.508,4.82-.086-3.784-6.267-8.057.3-2.462q.3-2.413.7-4.846c-2.6,3.4-5.175,6.84-7.555,10.411l-1.142,1.713-10.659,3.553-.941-7.218q-.52-3.989-.889-8.156-1.49,4.3-2.585,8.2l-.7,2.492-8.615,4.513-2.385,3.5-1.026-1.711-.145.076-.043-.389-.815-1.358-5.811,5.085-.234-2.46L281.8,86.859,271.77,91.873l3.543-12.956q.224-.821.457-1.641c-.389.386-.77.736-1.141,1.044C266.8,84.749,258.893,88,251.1,88a33.121,33.121,0,0,1-13.222-2.91A20.391,20.391,0,0,1,226.46,71.537l-8.834,27.825-4.756-12.87-3.642,4.552-1.435-2.76-3.613,4.251L202.6,85.806l-5.606,2.6L195.6,80.777c-.941-5.157-1.732-10.537-2.378-16.191l-1.113,3.123a129.083,129.083,0,0,0-4.269,13.376l-.565,2.381-7.52,4.749-2,3.678-1.246-1.629-.96.606-.354-2.324-.467-.611-5.378,4.706-.378-1.892-2.616,3.535-2.209-6.9-8.882,4.576,1.16-4.517A82.256,82.256,0,0,1,142.2,88.6a115.47,115.47,0,0,1-15.932-1.058l-6.487-.908.952-4.125-4.459-.3q-.2.7-.393,1.4l-.928,3.336-11.519,2.972L98.98,94.168l-.222-5.1-5.612,3.741L93.4,86.4l-1.181-1.518-1.248,1.633-1.895.55C83.109,88.794,76.413,89.6,68,89.6c-4.293,0-8.69-.21-12.983-.628l-6.574-.641.084-.432-1.97,1.168L44.19,93.012,42.5,88.733l-5.224,7.032L35.136,86.9l-7.428-5.68-.193-2.7c-.11-1.539-.115-3.188-.115-4.727q0-.931.014-1.849c-.521.085-1.041.177-1.558.266l-2.608.422c-1.4.234-2.836.406-4.3.55L13.07,84.1H9.032l-9.39,5.912L-.489,88.77-2.407,90.6l-.349-2.654L-10.2,96.175V86.8l-10.159,4.354,5.725-13.671c6-14.335,14.052-29.742,24.608-47.1C17.016,18.777,24.8,6.521,34-4.454l3.953-4.717,4.753,4.194,6.55-7.832L50.736-6.63l2.88-2.695.675,2.531,8.68,6.2-.293,3.408c-.546,6.358-1.154,12.722-1.763,19.092-.511,5.351-1.027,10.752-1.508,16.184,1.343-3.17,2.683-6.275,3.989-9.28,2.636-6.082,5.376-12.17,8.318-18.156A117.81,117.81,0,0,1,78.144-1.33l.946-1.481,7.6-3.506Zm43.559,37.579.973-4.088c-1.941,4.471-3.78,9.014-5.564,13.544C137.455,23.672,138.96,20.453,140.659,17.307ZM175.414,28.7c1.1-2.88,2.224-5.729,3.379-8.539a44.2,44.2,0,0,0-7.71.968c-.639,1.429-1.316,2.847-2.006,4.26l2.241.145ZM255.4,56.6a40.906,40.906,0,0,0,2.664-3.516c3.751-5.409,8.331-19.151,10.532-25.756a13.869,13.869,0,0,0,.9-4.129,3.333,3.333,0,0,0-.054-.552,19.284,19.284,0,0,0-3.98,5.635c-3.5,6.879-8.981,19.479-9.64,23.653A35.365,35.365,0,0,0,255.4,56.6ZM443.6,32.814l-4.924-7.531a12.521,12.521,0,0,0-2.027-2.633c-1.618.049-2.752,1.27-5.488,5.191C426.311,34.763,420.6,48.457,420.6,54.7a8.4,8.4,0,0,0,.888,4.388c.024-.288,1.8-1.059,3.969-3.128l2.085,1.3-.148-.57,9.2-2.384-2.432-5.674,7.014,3.826,3.85-2.31-.988,3.871,5.339,2.912A9.419,9.419,0,0,0,453.7,58.2c3.779,0,5.5-3.421,5.5-6.6a14.231,14.231,0,0,0-2.094-6.776c-3.564-6.534-5.392-12.551-5.669-18.75l-3.062-.278ZM164.33,59.467q1.042-3.192,2.114-6.3l-10.29.682c-.946,2.2-1.865,4.37-2.74,6.538,2.1-.094,4.211-.245,6.289-.453Z" transform="translate(16796 -4448)" fill="#423fbf"/>
  </g>
</svg>
