<svg xmlns="http://www.w3.org/2000/svg" width="522.109" height="147.422" viewBox="0 0 522.109 147.422">
  <g id="Group_4479" data-name="Group 4479" transform="translate(-16430.211 4483.73)">
    <path id="Path_10175" data-name="Path 10175" d="M52.47.44a27.744,27.744,0,0,0-9.9-1.87c-8.47,0-16.5,4.4-22.11,10.67-4.18,4.73-6.05,11.44-6.05,17.6,0,7.04,2.2,13.31,5.5,19.36a22.223,22.223,0,0,1,3.08,10.56c0,7.37-4.95,13.86-12.65,13.86a16.813,16.813,0,0,1-7.92-2.2l.99,2.31L0,71.17l2.64,4.95-7.48-1.65,1.32,4.84-2.31.66.99,3.74-4.4.44,1.54,2.31A28.8,28.8,0,0,0,8.69,91.19c17.05,0,33.55-13.75,33.55-31.35,0-7.15-2.31-13.97-4.84-20.57A33.324,33.324,0,0,1,34.76,27.5c0-6.49,3.3-11,10.12-11a22.283,22.283,0,0,1,4.62.66l-.88-3.74,3.52-2.2-6.82-3.3,6.16-1.87L50.05,3.19ZM96.25,19.25c0,2.2-1.1,4.51-2.09,6.38-3.96,7.59-6.93,9.68-15.51,9.68,2.64-6.38,5.61-13.97,9.24-19.91a13.916,13.916,0,0,1,3.08-.33C93.72,15.07,96.25,16.06,96.25,19.25Zm21.34-3.19c0-8.14-3.96-16.83-12.76-18.15a47.947,47.947,0,0,0-7.92-.55c-8.69,0-17.38,1.32-26.07,1.87l2.42,2.75L70.4,4.29l3.85,2.86-7.7,2.31,1.43,1.76-3.41,3.74,3.85,1.43L65.01,18.7c-3.52,7.59-6.71,15.29-9.79,22.99-5.61,14.08-10.67,28.6-14.96,43.12L41.8,86.9l5.17-6.71.99,4.73,2.42-2.42.66,7.15,3.3-3.96.99,6.05,2.42-1.43A241.652,241.652,0,0,1,70.4,55.66c6.16.22,14.19-.88,19.91-3.3,13.53-5.83,20.13-11.11,25.19-25.41A33.559,33.559,0,0,0,117.59,16.06Zm26.62,14.3a166.607,166.607,0,0,0-4.07,25.52c-4.07-.44-7.81,1.1-11.77,1.21,5.17-9.02,9.24-18.37,15.62-26.73ZM162.14.88,158.4,5.39l-.88-3.3-3.41,3.19L152.9.22l-5.06,6.05L146.41.99,144.54-.66c-9.68,11.55-18.04,24.64-25.85,37.51-9.9,16.28-19.25,33.33-26.62,50.93l5.39-2.31v3.19l6.27-6.93.55,4.18,2.42-2.31.44,4.18,2.97-1.87h2.42c2.09-3.85,4.18-7.81,6.27-11.66,2.64-.22,5.28-.44,7.92-.88,3.08-.44,6.27-1.21,9.46-1.21a25.028,25.028,0,0,1,2.86.22c-.11,2.97-.22,5.83-.22,8.8,0,1.54,0,3.19.11,4.73l3.74,2.86,1.98-5.06,1.54,6.38,2.86-3.85.99-3.52,1.87,4.73,1.65-2.75,1.76,4.4,2.97-1.76c.22-28.38,3.74-56.65,6.16-84.81Zm71.94,11c-4.4-8.25-11.44-13.64-21.01-13.64A31.64,31.64,0,0,0,204.6-.44c-5.72,1.65-14.41,7.37-18.04,12.21-11.99,15.73-18.7,30.14-20.9,49.83a53.748,53.748,0,0,0-.33,5.94c0,8.47,2.2,17.27,10.89,20.57a32.323,32.323,0,0,0,11.22,2.2c8.69,0,16.17-4.73,22.66-10.01.77-1.32,1.54-2.75,2.2-4.18l-3.85,1.1.77-3.52-2.31.55,1.32-5.17-6.05,3.63,1.65-4.73-2.97.77.77-2.42c-2.42,2.31-6.05,4.95-9.57,4.95-5.61,0-6.93-6.71-6.93-11.11,0-9.02,7.26-25.41,12.43-32.78,3.08-4.4,6.05-9.02,11.99-9.02,3.74,0,5.72,2.97,7.59,5.83l1.87-2.75,4.84.44-2.64-6.38,5.39,2.64.55-3.3,4.51.88-.77-3.41Zm41.36-6.05,2.09-2.09-1.65-1.21,1.43-2.75h-3.63c-11.11,0-22.44.55-33.33,2.75l.99,3.19,3.85,1.87-7.7,1.87,2.42,2.31-.55,2.31,4.4.88-3.41,1.87c-3.85,5.94-6.82,12.65-9.68,19.14-6.93,15.62-13.31,31.9-17.82,48.4a15.55,15.55,0,0,1,4.95,1.21,26.412,26.412,0,0,0-1.32,4.18,120.364,120.364,0,0,0,16.61,1.1,75.6,75.6,0,0,0,20.46-2.53l2.86-3.3-6.38-1.1c1.43-.99,4.51-3.63,4.95-5.39l-5.39-.55,2.97-1.98-1.32-1.43L253,72.49c-4.4.44-8.91.66-13.31.66a21.344,21.344,0,0,1-3.74-.22c2.31-6.82,5.17-13.42,8.03-20.02l18.26-1.21,2.42-2.75-3.19-2.31,2.64-1.43L260.7,42.9l7.04-1.98-5.5-2.2,2.86-2.31-2.42-1.87-10.23-.66c2.42-5.39,5.39-10.67,7.59-16.17a54.355,54.355,0,0,1,16.28-2.2l1.43-3.19-1.87-2.86,4.4-1.65ZM359.7,3.85l-1.54-2.2-3.3,2.86-.44-4.95-4.18,6.6-1.21-2.64-4.29,3.63-.33-2.97a178.134,178.134,0,0,0-14.3,14.52c-7.37,8.03-14.3,16.28-21.12,24.75l1.43-42.24-3.74,4.73L304.92,3.3l-4.51,8.14L299.2-.99l-5.17,7.7-2.09-3.3c-7.26,14.19-13.2,29.04-19.03,43.78-5.28,13.53-10.67,27.28-14.52,41.36l2.86-1.43,1.65,2.31,4.51-6.93.66,6.93,2.64-2.31.99,1.65,3.3-4.84.55,4.95,2.31-1.21c3.52-12.54,9.13-25.85,14.63-37.51h.22a263.242,263.242,0,0,0,1.87,38.39l1.98-.66c3.3-4.95,6.93-9.68,10.56-14.41,6.16-7.92,12.43-15.73,19.03-23.32h.11c-5.17,10.56-8.69,24.53-10.12,36.08l1.54,1.98,4.73-6.16.11,4.84,1.76-1.54,1.43,2.75,2.75-3.3.44,5.5,2.75-3.52,1.65,2.2c6.49-19.36,12.76-38.61,19.47-57.86,1.98-5.5,3.85-11,5.94-16.5a113.566,113.566,0,0,1,5.5-13.09Zm32.89,26.51a166.6,166.6,0,0,0-4.07,25.52c-4.07-.44-7.81,1.1-11.77,1.21,5.17-9.02,9.24-18.37,15.62-26.73ZM410.52.88l-3.74,4.51-.88-3.3-3.41,3.19L401.28.22l-5.06,6.05L394.79.99,392.92-.66c-9.68,11.55-18.04,24.64-25.85,37.51-9.9,16.28-19.25,33.33-26.62,50.93l5.39-2.31v3.19l6.27-6.93.55,4.18,2.42-2.31.44,4.18,2.97-1.87h2.42c2.09-3.85,4.18-7.81,6.27-11.66,2.64-.22,5.28-.44,7.92-.88,3.08-.44,6.27-1.21,9.46-1.21a25.027,25.027,0,0,1,2.86.22c-.11,2.97-.22,5.83-.22,8.8,0,1.54,0,3.19.11,4.73l3.74,2.86,1.98-5.06,1.54,6.38,2.86-3.85.99-3.52,1.87,4.73,1.65-2.75,1.76,4.4,2.97-1.76c.22-28.38,3.74-56.65,6.16-84.81Zm53.46,18.37c0,2.2-1.1,4.51-2.09,6.38-3.96,7.59-6.93,9.68-15.51,9.68,2.64-6.38,5.61-13.97,9.24-19.91a13.916,13.916,0,0,1,3.08-.33C461.45,15.07,463.98,16.06,463.98,19.25Zm21.34-3.19c0-8.14-3.96-16.83-12.76-18.15a47.946,47.946,0,0,0-7.92-.55c-8.69,0-17.38,1.32-26.07,1.87l2.42,2.75-2.86,2.31,3.85,2.86-7.7,2.31,1.43,1.76-3.41,3.74,3.85,1.43-3.41,2.31c-3.52,7.59-6.71,15.29-9.79,22.99-5.61,14.08-10.67,28.6-14.96,43.12l1.54,2.09,5.17-6.71.99,4.73,2.42-2.42.66,7.15,3.3-3.96.99,6.05,2.42-1.43a241.651,241.651,0,0,1,12.65-34.65c6.16.22,14.19-.88,19.91-3.3,13.53-5.83,20.13-11.11,25.19-25.41A33.559,33.559,0,0,0,485.32,16.06Z" transform="translate(16457 -4453)" fill="#edfd27"/>
    <path id="Path_10175_-_Outline" data-name="Path 10175 - Outline" d="M96.91-2.64c-8.69,0-17.38,1.32-26.07,1.87l2.42,2.75L70.4,4.29l3.85,2.86-7.7,2.31,1.43,1.76-3.41,3.74,3.85,1.43L65.01,18.7c-3.52,7.59-6.71,15.29-9.79,22.99-5.61,14.08-10.67,28.6-14.96,43.12L41.8,86.9l5.17-6.71.99,4.73,2.42-2.42.66,7.15,3.3-3.96.99,6.05,2.42-1.43A241.654,241.654,0,0,1,70.4,55.66c6.16.22,14.19-.88,19.91-3.3,13.53-5.83,20.13-11.11,25.19-25.41a33.559,33.559,0,0,0,2.09-10.89c0-8.14-3.96-16.83-12.76-18.15a47.947,47.947,0,0,0-7.92-.55M78.65,35.31c2.64-6.38,5.61-13.97,9.24-19.91a13.915,13.915,0,0,1,3.08-.33c2.75,0,5.28.99,5.28,4.18,0,2.2-1.1,4.51-2.09,6.38-3.96,7.59-6.93,9.68-15.51,9.68M464.64-2.64c-8.69,0-17.38,1.32-26.07,1.87l2.42,2.75-2.86,2.31,3.85,2.86-7.7,2.31,1.43,1.76-3.41,3.74,3.85,1.43-3.41,2.31c-3.52,7.59-6.71,15.29-9.79,22.99-5.61,14.08-10.67,28.6-14.96,43.12l1.54,2.09,5.17-6.71.99,4.73,2.42-2.42.66,7.15,3.3-3.96.99,6.05,2.42-1.43a241.654,241.654,0,0,1,12.65-34.65c6.16.22,14.19-.88,19.91-3.3,13.53-5.83,20.13-11.11,25.19-25.41a33.559,33.559,0,0,0,2.09-10.89c0-8.14-3.96-16.83-12.76-18.15a47.946,47.946,0,0,0-7.92-.55M446.38,35.31c2.64-6.38,5.61-13.97,9.24-19.91a13.915,13.915,0,0,1,3.08-.33c2.75,0,5.28.99,5.28,4.18,0,2.2-1.1,4.51-2.09,6.38-3.96,7.59-6.93,9.68-15.51,9.68M213.07-1.76A31.64,31.64,0,0,0,204.6-.44c-5.72,1.65-14.41,7.37-18.04,12.21-11.99,15.73-18.7,30.14-20.9,49.83a53.748,53.748,0,0,0-.33,5.94c0,8.47,2.2,17.27,10.89,20.57a32.323,32.323,0,0,0,11.22,2.2c8.69,0,16.17-4.73,22.66-10.01.77-1.32,1.54-2.75,2.2-4.18l-3.85,1.1.77-3.52-2.31.55,1.32-5.17-6.05,3.63,1.65-4.73-2.97.77.77-2.42c-2.42,2.31-6.05,4.95-9.57,4.95-5.61,0-6.93-6.71-6.93-11.11,0-9.02,7.26-25.41,12.43-32.78,3.08-4.4,6.05-9.02,11.99-9.02,3.74,0,5.72,2.97,7.59,5.83l1.87-2.75,4.84.44-2.64-6.38,5.39,2.64.55-3.3,4.51.88-.77-3.41,3.19-.44c-4.4-8.25-11.44-13.64-21.01-13.64m-170.5.33c-8.47,0-16.5,4.4-22.11,10.67-4.18,4.73-6.05,11.44-6.05,17.6,0,7.04,2.2,13.31,5.5,19.36a22.223,22.223,0,0,1,3.08,10.56c0,7.37-4.95,13.86-12.65,13.86a16.813,16.813,0,0,1-7.92-2.2l.99,2.31L0,71.17l2.64,4.95-7.48-1.65,1.32,4.84-2.31.66.99,3.74-4.4.44,1.54,2.31A28.8,28.8,0,0,0,8.69,91.19c17.05,0,33.55-13.75,33.55-31.35,0-7.15-2.31-13.97-4.84-20.57A33.324,33.324,0,0,1,34.76,27.5c0-6.49,3.3-11,10.12-11a22.283,22.283,0,0,1,4.62.66l-.88-3.74,3.52-2.2-6.82-3.3,6.16-1.87L50.05,3.19,52.47.44a27.743,27.743,0,0,0-9.9-1.87M299.2-.99l-5.17,7.7-2.09-3.3c-7.26,14.19-13.2,29.04-19.03,43.78-5.28,13.53-10.67,27.28-14.52,41.36l2.86-1.43,1.65,2.31,4.51-6.93.66,6.93,2.64-2.31.99,1.65,3.3-4.84.55,4.95,2.31-1.21c3.52-12.54,9.13-25.85,14.63-37.51h.22a263.234,263.234,0,0,0,1.87,38.39l1.98-.66c3.3-4.95,6.93-9.68,10.56-14.41,6.16-7.92,12.43-15.73,19.03-23.32h.11c-5.17,10.56-8.69,24.53-10.12,36.08l1.54,1.98,4.73-6.16.11,4.84,1.76-1.54,1.43,2.75,2.75-3.3.44,5.5,2.75-3.52,1.65,2.2c6.49-19.36,12.76-38.61,19.47-57.86,1.98-5.5,3.85-11,5.94-16.5a113.566,113.566,0,0,1,5.5-13.09L359.7,3.85l-1.54-2.2-3.3,2.86-.44-4.95-4.18,6.6-1.21-2.64-4.29,3.63-.33-2.97a178.134,178.134,0,0,0-14.3,14.52c-7.37,8.03-14.3,16.28-21.12,24.75l1.43-42.24-3.74,4.73L304.92,3.3l-4.51,8.14L299.2-.99M144.54-.66c-9.68,11.55-18.04,24.64-25.85,37.51-9.9,16.28-19.25,33.33-26.62,50.93l5.39-2.31v3.19l6.27-6.93.55,4.18,2.42-2.31.44,4.18,2.97-1.87h2.42c2.09-3.85,4.18-7.81,6.27-11.66,2.64-.22,5.28-.44,7.92-.88,3.08-.44,6.27-1.21,9.46-1.21a25.027,25.027,0,0,1,2.86.22c-.11,2.97-.22,5.83-.22,8.8,0,1.54,0,3.19.11,4.73l3.74,2.86,1.98-5.06,1.54,6.38,2.86-3.85.99-3.52,1.87,4.73,1.65-2.75,1.76,4.4,2.97-1.76c.22-28.38,3.74-56.65,6.16-84.81L162.14.88,158.4,5.39l-.88-3.3-3.41,3.19L152.9.22l-5.06,6.05L146.41.99,144.54-.66m-4.4,56.54c-4.07-.44-7.81,1.1-11.77,1.21,5.17-9.02,9.24-18.37,15.62-26.73h.22a166.6,166.6,0,0,0-4.07,25.52M392.92-.66c-9.68,11.55-18.04,24.64-25.85,37.51-9.9,16.28-19.25,33.33-26.62,50.93l5.39-2.31v3.19l6.27-6.93.55,4.18,2.42-2.31.44,4.18,2.97-1.87h2.42c2.09-3.85,4.18-7.81,6.27-11.66,2.64-.22,5.28-.44,7.92-.88,3.08-.44,6.27-1.21,9.46-1.21a25.028,25.028,0,0,1,2.86.22c-.11,2.97-.22,5.83-.22,8.8,0,1.54,0,3.19.11,4.73l3.74,2.86,1.98-5.06,1.54,6.38,2.86-3.85.99-3.52,1.87,4.73,1.65-2.75,1.76,4.4,2.97-1.76c.22-28.38,3.74-56.65,6.16-84.81L410.52.88l-3.74,4.51-.88-3.3-3.41,3.19L401.28.22l-5.06,6.05L394.79.99,392.92-.66m-4.4,56.54c-4.07-.44-7.81,1.1-11.77,1.21,5.17-9.02,9.24-18.37,15.62-26.73h.22a166.593,166.593,0,0,0-4.07,25.52M273.68-.22c-11.11,0-22.44.55-33.33,2.75l.99,3.19,3.85,1.87-7.7,1.87,2.42,2.31-.55,2.31,4.4.88-3.41,1.87c-3.85,5.94-6.82,12.65-9.68,19.14-6.93,15.62-13.31,31.9-17.82,48.4a15.55,15.55,0,0,1,4.95,1.21,26.408,26.408,0,0,0-1.32,4.18,120.364,120.364,0,0,0,16.61,1.1,75.6,75.6,0,0,0,20.46-2.53l2.86-3.3-6.38-1.1c1.43-.99,4.51-3.63,4.95-5.39l-5.39-.55,2.97-1.98-1.32-1.43L253,72.49c-4.4.44-8.91.66-13.31.66a21.344,21.344,0,0,1-3.74-.22c2.31-6.82,5.17-13.42,8.03-20.02l18.26-1.21,2.42-2.75-3.19-2.31,2.64-1.43L260.7,42.9l7.04-1.98-5.5-2.2,2.86-2.31-2.42-1.87-10.23-.66c2.42-5.39,5.39-10.67,7.59-16.17a54.355,54.355,0,0,1,16.28-2.2l1.43-3.19-1.87-2.86,4.4-1.65-4.84-1.98,2.09-2.09-1.65-1.21,1.43-2.75h-3.63m88.087-30.51,1.895,21.316,24.115-12.352L373.059,6.2a74.164,74.164,0,0,0-3.461,7.9A238.466,238.466,0,0,1,385.256-7.083l6.589-7.862,5.226,4.611,9.307-11.128,1.839,7.691,3.044-2.848,1.89,7.088,10.131,7.236-.407,4.735,2.592-.778,1.125-.909L417.6-9.463l20.339-1.287c3.094-.2,6.188-.494,9.281-.791,5.631-.54,11.453-1.1,17.42-1.1a56.672,56.672,0,0,1,9.564.686C486.571-10.1,495.32,1.43,495.32,16.06A42.763,42.763,0,0,1,492.687,30.2C486.323,48.186,477,55.081,462,61.544a57.625,57.625,0,0,1-17.29,3.942,246.576,246.576,0,0,0-9.622,27.607l-1.1,3.809-16.229,9.59-6.725,8.07-.916-9.921-.422.422-.327-1.561-.011.014-3.15-4.275-2.056,1.218-5.706,9.51-2.147-5.43-6.432,8.659-3.774-15.635-8.43-6.447-.321-4.494c-.08-1.126-.113-2.3-.127-3.465l-.695.112c-.993.166-2.017.306-3.06.428L366.86,95.91h-5.484l-13.836,8.711-2.225,2.124-.3-2.27-9.177,10.143v-5.574l-4.352-5.8-10.509,13.452-1.133-14.165-1.658,1.451-.457.595-.09-.116-4.632,4.053L312.774,98.2l-5.932-7.627q-1,1.42-1.962,2.863l-1.9,2.855-16.744,5.581-.891-6.833L276.3,99.777l-5.136,7.534-2.211-3.685-1.724.9-.109-.978-3.43,3-.4.621-.118-.165-3.2,2.8-.8-8.4-1.086-1.52-15.24,7.62,2-7.314a99.18,99.18,0,0,1-11.75.669,130.424,130.424,0,0,1-18-1.2L204.281,98.15l.524-2.27a37.7,37.7,0,0,1-17.365,4.43,42.012,42.012,0,0,1-14.731-2.837,25.6,25.6,0,0,1-6.189-3.386l-10.753,6.372-5.706,9.51-2.147-5.43-6.432,8.659-3.774-15.635-8.43-6.447-.321-4.494c-.08-1.126-.113-2.3-.127-3.465l-.695.112c-.993.166-2.017.306-3.06.428L118.48,95.91H113L99.16,104.621l-2.225,2.124-.3-2.27L87.46,114.618V100.635L73.305,106.7l9.541-22.784c2.948-7.039,6.337-14.306,10.211-21.886a59.219,59.219,0,0,1-16.08,3.454,246.582,246.582,0,0,0-9.622,27.607l-1.1,3.809-16.229,9.59-6.725,8.07-.916-9.921-.422.422-.327-1.561-.011.014-7.588-10.3A44.47,44.47,0,0,1,8.69,101.19a38.841,38.841,0,0,1-22.023-6.468l-1.608-1.1L-26.788,75.855l9.279-.928-.5-1.878,2.239-.64L-18.84,61.141l6.8,1.5,1.048-.135-7.156-16.7L7.208,59.641a7.1,7.1,0,0,0,3.132.979c2.62,0,2.65-3.7,2.65-3.86,0-1.6-.569-3.352-1.9-5.854-4.541-8.324-6.677-16-6.677-24.066,0-9.24,3.119-18.069,8.557-24.222,8-8.944,18.778-14.048,29.6-14.048A37.37,37.37,0,0,1,53.712-9.706l16.5-1.044c3.094-.2,6.188-.494,9.281-.791,5.631-.54,11.453-1.1,17.42-1.1a56.672,56.672,0,0,1,9.564.686c9.569,1.434,16.972,8.662,19.832,18.637,3.336-4.7,6.847-9.324,10.57-13.766l6.589-7.862,5.226,4.611L158-21.462l1.839,7.691,3.044-2.848,1.89,7.088L174.9-2.294l-.488,5.68q-.4,4.647-.832,9.3,2.343-3.458,5.026-6.975c4.759-6.345,15.2-13.441,23.221-15.756A41.415,41.415,0,0,1,213.07-11.76a31.641,31.641,0,0,1,18.649,5.832l6.65-1.344c13.08-2.642,26.417-2.948,35.31-2.948h14l3.335-6.519,3.259,5.145L306.45-29.727l1.719,17.661,13.274-16.788L319.959,15q1.4-1.553,2.784-3.065a186.217,186.217,0,0,1,15.106-15.3l14.394-12.517.018.163ZM422.52,10.844l-.35-.431-.083.907ZM270.014,27.569q.373-.9.75-1.812-1.382.13-2.669.329ZM50.2,27.537l-2.8-.6A18.124,18.124,0,0,0,44.88,26.5l-.054,0a6.852,6.852,0,0,0-.066,1,24.925,24.925,0,0,0,1.98,8.2l.053.139C47.823,33.283,48.966,30.481,50.2,27.537ZM216.977,42.224,208.77,29.673l-.228-.348c-.785.926-1.742,2.3-2.4,3.247-4.819,6.873-10.515,20.3-10.978,26.8l3.9,2.435-.709-2.734L210.9,55.817l1-.6c1.633-4.317,3.413-8.771,5.352-13.4Zm33.69,20.442q.671-.059,1.338-.126l4.134-.413-5.394.357Z" transform="translate(16457 -4453)" fill="#0ce8ad"/>
    <path id="Path_10175_-_Outline-2" data-name="Path 10175 - Outline" d="M96.91-2.64c-8.69,0-17.38,1.32-26.07,1.87l2.42,2.75L70.4,4.29l3.85,2.86-7.7,2.31,1.43,1.76-3.41,3.74,3.85,1.43L65.01,18.7c-3.52,7.59-6.71,15.29-9.79,22.99-5.61,14.08-10.67,28.6-14.96,43.12L41.8,86.9l5.17-6.71.99,4.73,2.42-2.42.66,7.15,3.3-3.96.99,6.05,2.42-1.43A241.654,241.654,0,0,1,70.4,55.66c6.16.22,14.19-.88,19.91-3.3,13.53-5.83,20.13-11.11,25.19-25.41a33.559,33.559,0,0,0,2.09-10.89c0-8.14-3.96-16.83-12.76-18.15a47.947,47.947,0,0,0-7.92-.55M78.65,35.31c2.64-6.38,5.61-13.97,9.24-19.91a13.915,13.915,0,0,1,3.08-.33c2.75,0,5.28.99,5.28,4.18,0,2.2-1.1,4.51-2.09,6.38-3.96,7.59-6.93,9.68-15.51,9.68M464.64-2.64c-8.69,0-17.38,1.32-26.07,1.87l2.42,2.75-2.86,2.31,3.85,2.86-7.7,2.31,1.43,1.76-3.41,3.74,3.85,1.43-3.41,2.31c-3.52,7.59-6.71,15.29-9.79,22.99-5.61,14.08-10.67,28.6-14.96,43.12l1.54,2.09,5.17-6.71.99,4.73,2.42-2.42.66,7.15,3.3-3.96.99,6.05,2.42-1.43a241.654,241.654,0,0,1,12.65-34.65c6.16.22,14.19-.88,19.91-3.3,13.53-5.83,20.13-11.11,25.19-25.41a33.559,33.559,0,0,0,2.09-10.89c0-8.14-3.96-16.83-12.76-18.15a47.946,47.946,0,0,0-7.92-.55M446.38,35.31c2.64-6.38,5.61-13.97,9.24-19.91a13.915,13.915,0,0,1,3.08-.33c2.75,0,5.28.99,5.28,4.18,0,2.2-1.1,4.51-2.09,6.38-3.96,7.59-6.93,9.68-15.51,9.68M213.07-1.76A31.64,31.64,0,0,0,204.6-.44c-5.72,1.65-14.41,7.37-18.04,12.21-11.99,15.73-18.7,30.14-20.9,49.83a53.748,53.748,0,0,0-.33,5.94c0,8.47,2.2,17.27,10.89,20.57a32.323,32.323,0,0,0,11.22,2.2c8.69,0,16.17-4.73,22.66-10.01.77-1.32,1.54-2.75,2.2-4.18l-3.85,1.1.77-3.52-2.31.55,1.32-5.17-6.05,3.63,1.65-4.73-2.97.77.77-2.42c-2.42,2.31-6.05,4.95-9.57,4.95-5.61,0-6.93-6.71-6.93-11.11,0-9.02,7.26-25.41,12.43-32.78,3.08-4.4,6.05-9.02,11.99-9.02,3.74,0,5.72,2.97,7.59,5.83l1.87-2.75,4.84.44-2.64-6.38,5.39,2.64.55-3.3,4.51.88-.77-3.41,3.19-.44c-4.4-8.25-11.44-13.64-21.01-13.64m-170.5.33c-8.47,0-16.5,4.4-22.11,10.67-4.18,4.73-6.05,11.44-6.05,17.6,0,7.04,2.2,13.31,5.5,19.36a22.223,22.223,0,0,1,3.08,10.56c0,7.37-4.95,13.86-12.65,13.86a16.813,16.813,0,0,1-7.92-2.2l.99,2.31L0,71.17l2.64,4.95-7.48-1.65,1.32,4.84-2.31.66.99,3.74-4.4.44,1.54,2.31A28.8,28.8,0,0,0,8.69,91.19c17.05,0,33.55-13.75,33.55-31.35,0-7.15-2.31-13.97-4.84-20.57A33.324,33.324,0,0,1,34.76,27.5c0-6.49,3.3-11,10.12-11a22.284,22.284,0,0,1,4.62.66l-.88-3.74,3.52-2.2-6.82-3.3,6.16-1.87L50.05,3.19,52.47.44a27.743,27.743,0,0,0-9.9-1.87M299.2-.99l-5.17,7.7-2.09-3.3c-7.26,14.19-13.2,29.04-19.03,43.78-5.28,13.53-10.67,27.28-14.52,41.36l2.86-1.43,1.65,2.31,4.51-6.93.66,6.93,2.64-2.31.99,1.65,3.3-4.84.55,4.95,2.31-1.21c3.52-12.54,9.13-25.85,14.63-37.51h.22a263.234,263.234,0,0,0,1.87,38.39l1.98-.66c3.3-4.95,6.93-9.68,10.56-14.41,6.16-7.92,12.43-15.73,19.03-23.32h.11c-5.17,10.56-8.69,24.53-10.12,36.08l1.54,1.98,4.73-6.16.11,4.84,1.76-1.54,1.43,2.75,2.75-3.3.44,5.5,2.75-3.52,1.65,2.2c6.49-19.36,12.76-38.61,19.47-57.86,1.98-5.5,3.85-11,5.94-16.5a113.566,113.566,0,0,1,5.5-13.09L359.7,3.85l-1.54-2.2-3.3,2.86-.44-4.95-4.18,6.6-1.21-2.64-4.29,3.63-.33-2.97a178.134,178.134,0,0,0-14.3,14.52c-7.37,8.03-14.3,16.28-21.12,24.75l1.43-42.24-3.74,4.73L304.92,3.3l-4.51,8.14L299.2-.99M144.54-.66c-9.68,11.55-18.04,24.64-25.85,37.51-9.9,16.28-19.25,33.33-26.62,50.93l5.39-2.31v3.19l6.27-6.93.55,4.18,2.42-2.31.44,4.18,2.97-1.87h2.42c2.09-3.85,4.18-7.81,6.27-11.66,2.64-.22,5.28-.44,7.92-.88,3.08-.44,6.27-1.21,9.46-1.21a25.027,25.027,0,0,1,2.86.22c-.11,2.97-.22,5.83-.22,8.8,0,1.54,0,3.19.11,4.73l3.74,2.86,1.98-5.06,1.54,6.38,2.86-3.85.99-3.52,1.87,4.73,1.65-2.75,1.76,4.4,2.97-1.76c.22-28.38,3.74-56.65,6.16-84.81L162.14.88,158.4,5.39l-.88-3.3-3.41,3.19L152.9.22l-5.06,6.05L146.41.99,144.54-.66m-4.4,56.54c-4.07-.44-7.81,1.1-11.77,1.21,5.17-9.02,9.24-18.37,15.62-26.73h.22a166.6,166.6,0,0,0-4.07,25.52M392.92-.66c-9.68,11.55-18.04,24.64-25.85,37.51-9.9,16.28-19.25,33.33-26.62,50.93l5.39-2.31v3.19l6.27-6.93.55,4.18,2.42-2.31.44,4.18,2.97-1.87h2.42c2.09-3.85,4.18-7.81,6.27-11.66,2.64-.22,5.28-.44,7.92-.88,3.08-.44,6.27-1.21,9.46-1.21a25.025,25.025,0,0,1,2.86.22c-.11,2.97-.22,5.83-.22,8.8,0,1.54,0,3.19.11,4.73l3.74,2.86,1.98-5.06,1.54,6.38,2.86-3.85.99-3.52,1.87,4.73,1.65-2.75,1.76,4.4,2.97-1.76c.22-28.38,3.74-56.65,6.16-84.81L410.52.88l-3.74,4.51-.88-3.3-3.41,3.19L401.28.22l-5.06,6.05L394.79.99,392.92-.66m-4.4,56.54c-4.07-.44-7.81,1.1-11.77,1.21,5.17-9.02,9.24-18.37,15.62-26.73h.22a166.593,166.593,0,0,0-4.07,25.52M273.68-.22c-11.11,0-22.44.55-33.33,2.75l.99,3.19,3.85,1.87-7.7,1.87,2.42,2.31-.55,2.31,4.4.88-3.41,1.87c-3.85,5.94-6.82,12.65-9.68,19.14-6.93,15.62-13.31,31.9-17.82,48.4a15.55,15.55,0,0,1,4.95,1.21,26.408,26.408,0,0,0-1.32,4.18,120.364,120.364,0,0,0,16.61,1.1,75.6,75.6,0,0,0,20.46-2.53l2.86-3.3-6.38-1.1c1.43-.99,4.51-3.63,4.95-5.39l-5.39-.55,2.97-1.98-1.32-1.43L253,72.49c-4.4.44-8.91.66-13.31.66a21.344,21.344,0,0,1-3.74-.22c2.31-6.82,5.17-13.42,8.03-20.02l18.26-1.21,2.42-2.75-3.19-2.31,2.64-1.43L260.7,42.9l7.04-1.98-5.5-2.2,2.86-2.31-2.42-1.87-10.23-.66c2.42-5.39,5.39-10.67,7.59-16.17a54.355,54.355,0,0,1,16.28-2.2l1.43-3.19-1.87-2.86,4.4-1.65-4.84-1.98,2.09-2.09-1.65-1.21,1.43-2.75h-3.63m85.148-18.394,1.1,12.32,1.694,2.42,16.733-8.57L369.52,4.334a102.47,102.47,0,0,0-4.905,11.638c-1.672,4.411-2.952,8.034-4.232,11.656l-1.967,5.533q-2.762,7.923-5.445,15.872,4.183-7.426,8.973-15.3c7.735-12.746,16.286-26.205,26.378-38.247l3.953-4.717L397.5-4.617l6.835-8.172,1.587,6.639,3.19-2.985.54,2.025L419.1-.364l-.293,3.408c-.6,6.992-1.269,13.99-1.938,21-.69,7.221-1.388,14.529-2.012,21.875q1.236-3.228,2.518-6.445c2.286-5.716,5.262-13.021,8.619-20.45l-4.12-1.53,5.921-6.494-3.824-4.706,4.834-1.45-.471-.35,4.015-3.243-6.363-7.231,12.2-.772c3.137-.2,6.274-.5,9.411-.8,5.537-.531,11.263-1.08,17.038-1.08a52.878,52.878,0,0,1,8.906.632C485.794-6.172,491.32,5.407,491.32,16.06A38.921,38.921,0,0,1,488.9,28.9c-5.894,16.658-14.217,22.82-28.49,28.97a54.917,54.917,0,0,1-18.4,3.771A243.93,243.93,0,0,0,431.243,91.98l-.662,2.285-12.025,7.106-.286-1.748-4.146,4.975-.813-8.813-1.221,1.221-.592-2.829-2.074,2.692-2.147-2.914-6.039,3.579-2.056,3.427-1.81-4.579-5.625,7.572-2.1-8.708-8.124-6.213-.193-2.7c-.12-1.679-.125-3.478-.125-5.158,0-.92.01-1.83.027-2.736-.813.121-1.623.265-2.427.4l-2.852.462c-1.632.273-3.314.469-5.017.633L364.48,91.91h-4.258l-9.66,6.082-.171-1.622-2.138,2.041-.4-3.034-8.014,8.858V94.569l-2.432,1.042-2.052,6.121-2.975-3.967-2.544,1.09-5.69,7.283-.759-9.489-.907-1.744-5.668,4.96-.07-3.078-6.863-8.823.3-2.462c.317-2.558.716-5.138,1.189-7.712-3.366,4.387-6.743,8.808-9.822,13.427l-1.142,1.713-10.839,3.613-.941-7.218c-.5-3.8-.9-7.7-1.2-11.73q-2.248,6.206-3.789,11.7l-.7,2.492-9.38,4.913-2.18,3.2-2.119-3.531-6.051,5.295-.162-1.7-3.7-5.177L249.06,99.923l1.272-4.652A87.738,87.738,0,0,1,233.09,96.86,126.42,126.42,0,0,1,215.648,95.7l-6.487-.908,1.058-4.586L207,89.994c-5.458,3.482-12,6.316-19.564,6.316a38.038,38.038,0,0,1-13.327-2.582A20.943,20.943,0,0,1,164.3,86.21c0,.393-.008.784-.011,1.177l-.026,3.388-11.407,6.76-2.057,3.428-1.81-4.579-5.625,7.572-2.1-8.708-8.125-6.213-.193-2.7c-.12-1.679-.125-3.478-.125-5.157,0-.92.01-1.83.027-2.736-.813.121-1.623.265-2.427.4l-2.852.462c-1.632.273-3.314.469-5.017.633L116.1,91.91h-4.258l-9.66,6.082-.171-1.622-2.138,2.041-.4-3.034-8.014,8.858V94.569L80.811,99.133l5.725-13.671a339.443,339.443,0,0,1,15.8-32.374,85,85,0,0,1-9.649,4.782,54.918,54.918,0,0,1-18.4,3.771A243.93,243.93,0,0,0,63.513,91.98l-.662,2.285-12.025,7.106-.286-1.748L46.394,104.6l-.814-8.813L44.36,97.006l-.592-2.829-2.074,2.692-6.842-9.285A40.6,40.6,0,0,1,8.69,97.19a34.863,34.863,0,0,1-19.77-5.773l-.965-.658-7.724-11.587,7.328-.733-.694-2.623,2.267-.648-2.372-8.7,4.46.984-.6-1.126,4.148-.535L-9.922,54.853l15.215,8.3A10.809,10.809,0,0,0,10.34,64.62c4.366,0,6.65-3.954,6.65-7.86,0-2.3-.71-4.616-2.374-7.736C10.39,41.277,8.41,34.213,8.41,26.84c0-8.278,2.753-16.141,7.554-21.573C23.193-2.812,32.881-7.43,42.57-7.43A33.838,33.838,0,0,1,54.6-5.17l6.571,2.492L58.258-5.986l12.2-.772c3.137-.2,6.274-.5,9.411-.8,5.537-.531,11.263-1.08,17.038-1.08a52.878,52.878,0,0,1,8.906.632C118.064-6.172,123.59,5.407,123.59,16.06q0,.887-.052,1.783a239.75,239.75,0,0,1,16.4-22.357l3.953-4.717,5.229,4.614,6.835-8.172,1.588,6.639,3.19-2.985.54,2.025,9.445,6.746-.293,3.408c-.6,6.992-1.269,13.99-1.938,21q-.316,3.313-.633,6.65A120.337,120.337,0,0,1,181.788,8.133c4.26-5.68,13.958-12.263,21.149-14.338A37.434,37.434,0,0,1,213.07-7.76,27.823,27.823,0,0,1,233.587.982l-.937-3.018,6.511-1.315c12.729-2.571,25.8-2.869,34.518-2.869h13.513L283.577.734l2.182,1.6q.418-.831.84-1.657l4.787-9.356,2.791,4.407,9.373-13.96.987,10.141,2.556,3.834,9.941-12.572-1.452,42.9c3.468-4.06,6.8-7.823,10.108-11.43A183.212,183.212,0,0,1,340.473-.348l8.636-7.51.35,3.154,1.2-1.018ZM64.621,1.245,62.187-1.52,57.223,4.121l.814,1.629,3.038-.911-.471-.35ZM58.266,19.019l-2.372-.881.955,4.058Q57.544,20.616,58.266,19.019ZM276.9,21.51h-.58a52.729,52.729,0,0,0-11.885,1.211c-.856,1.93-1.778,3.841-2.714,5.745l3.177.2,6.833,5.28C273.37,29.895,275.091,25.721,276.9,21.51ZM55.782,24.642l-7.539-1.616A18.12,18.12,0,0,0,44.88,22.5c-1.641,0-4.12,0-4.12,5A27.973,27.973,0,0,0,43,37.127a102.574,102.574,0,0,1,3.5,10.432q1.537-4.053,3.145-8.09C51.351,35.208,53.439,30.063,55.782,24.642Zm161.26,10.372-4.924-7.531c-.569-.87-1.9-2.909-2.47-3.107-2.448-.009-3.859,1.7-6.79,5.907-5.491,7.83-11.728,22.8-11.728,29.887,0,2.941.745,4.865,1.144,5.242a13.478,13.478,0,0,0,5.213-3.422L199.42,63.2l-.066-.256,13.108-3.4,2.693-1.616c2.851-7.629,6.166-15.681,10.03-24.391.754-1.71,1.535-3.483,2.356-5.286l-5.556-.505ZM259.4,65.82q1.473-4.084,3.01-8.118l-14.378.953c-1.194,2.774-2.382,5.582-3.507,8.4,2.633-.1,5.275-.279,7.877-.539Z" transform="translate(16457 -4453)" fill="#423fbf"/>
  </g>
</svg>
