<svg xmlns="http://www.w3.org/2000/svg" width="818.93" height="152.301" viewBox="0 0 818.93 152.301">
  <g id="Group_4983" data-name="Group 4983" transform="translate(-16565.234 5129.54)">
    <g id="Path_10415" data-name="Path 10415" transform="translate(16591 -5097)" fill="#edfd27">
      <path d="M 691.8153076171875 104.3752975463867 L 687.8060302734375 93.52651977539062 L 686.8011474609375 92.44992828369141 L 682.9769287109375 97.23019409179688 L 681.4342041015625 94.26350402832031 L 677.9698486328125 98.33929443359375 L 676.5037231445312 92.10839080810547 L 676.295654296875 92.20499420166016 L 670.4318237304688 94.92749786376953 L 669.271240234375 88.56759643554688 C 667.8628540039062 80.84963226318359 666.7621459960938 72.67647552490234 665.95361328125 63.8950309753418 C 665.185791015625 65.99081420898438 664.4434814453125 68.05242156982422 663.7239379882812 70.08709716796875 C 663.274169921875 71.36862945556641 662.8051147460938 72.67536926269531 662.3514404296875 73.93929290771484 C 660.5901489257812 78.84559631347656 658.7689208984375 83.91899871826172 657.6049194335938 88.82439422607422 L 657.1341552734375 90.80849456787109 L 655.4100341796875 91.89739990234375 L 653.3200073242188 93.21739959716797 L 649.0615234375 95.90702056884766 L 647.8416137695312 98.15159606933594 L 647.0814819335938 97.15757751464844 L 646.85693359375 97.29940032958984 L 646.7742309570312 96.75576782226562 L 644.9728393554688 94.40016174316406 L 639.851318359375 98.88150024414062 L 639.2693481445312 95.97161102294922 L 636.1028442382812 100.2506942749023 L 634.04833984375 93.83021545410156 L 625.7667236328125 98.09649658203125 L 626.7852783203125 94.12947082519531 C 621.401123046875 95.27896118164062 615.4252319335938 95.85999298095703 608.9598999023438 95.85999298095703 C 602.9208984375 95.85999298095703 597.0993041992188 95.47369384765625 591.6567993164062 94.71170043945312 L 586.2506103515625 93.95479583740234 L 587.3274536132812 89.28823089599609 L 582.2842407226562 88.95199584960938 L 583.8969116210938 83.05169677734375 C 586.0817260742188 75.05849456787109 588.7452392578125 66.8927001953125 592.03955078125 58.08789825439453 C 594.8721313476562 50.51723098754883 598.1187133789062 42.62276077270508 601.9646606445312 33.95352935791016 C 604.1876220703125 28.90897750854492 606.6469116210938 23.32801628112793 609.6344604492188 18.05989074707031 L 609.1650390625 17.96599578857422 L 610.2510986328125 13.40464305877686 L 609.9076538085938 13.07679653167725 L 608.0228271484375 11.27765560150146 C 604.0723266601562 20.14551162719727 600.5276489257812 29.3115234375 597.0740966796875 38.24199676513672 C 596.4796142578125 39.77939605712891 595.8649291992188 41.36896133422852 595.25830078125 42.93059539794922 L 595.25830078125 42.93059539794922 C 588.9867553710938 59.28179550170898 582.9832153320312 75.30349731445312 578.467041015625 91.53989410400391 L 577.6937255859375 94.32019805908203 L 574.8993530273438 95.04139709472656 L 571.4894409179688 95.92139434814453 L 565.8179321289062 97.38509368896484 L 565.7994384765625 97.19103240966797 L 562.8633422851562 99.99369812011719 L 562.6493530273438 95.07305908203125 L 556.722412109375 99.02429962158203 L 556.8980712890625 94.51596069335938 L 553.967041015625 90.74742889404297 L 552.65185546875 92.46730041503906 L 551.6530151367188 93.77330017089844 L 550.0740966796875 94.23169708251953 C 543.662841796875 96.09309387207031 536.4388427734375 96.95999908447266 527.3399047851562 96.95999908447266 C 522.6165161132812 96.95999908447266 517.864013671875 96.72999572753906 513.2145385742188 96.27639770507812 L 507.7361145019531 95.74189758300781 L 508.1763305664062 93.49198913574219 L 503.3060302734375 96.37799835205078 L 503.1212768554688 95.91615295410156 L 501.4450378417969 98.70989990234375 L 499.7188110351562 94.34359741210938 L 494.2954406738281 101.6443939208984 L 492.6114501953125 94.66785430908203 L 490.0927124023438 92.74179840087891 L 486.3527221679688 89.88179779052734 L 484.563232421875 88.51329803466797 L 484.4027404785156 86.26619720458984 C 484.280029296875 84.54829406738281 484.280029296875 82.75879669189453 484.280029296875 81.18000030517578 C 484.280029296875 79.86273193359375 484.3004150390625 78.58171844482422 484.3326721191406 77.30632019042969 C 483.1697387695312 77.43933868408203 481.9607849121094 77.64716339111328 480.7107238769531 77.86209869384766 C 479.8123779296875 78.01653289794922 478.884033203125 78.17613983154297 477.9482116699219 78.31092834472656 C 476.0638122558594 78.62305450439453 474.2033386230469 78.82965087890625 472.3777465820312 78.99893951416016 C 471.7584533691406 80.15032196044922 471.1397705078125 81.30635070800781 470.5333251953125 82.43939971923828 C 469.50244140625 84.36559295654297 468.4363403320312 86.35739898681641 467.3843383789062 88.29549407958984 L 465.9649353027344 90.90999603271484 L 462.9900207519531 90.90999603271484 L 462.0130920410156 90.90999603271484 L 460.2641296386719 92.01119995117188 L 453.4682312011719 96.29010009765625 L 453.2526550292969 94.24201202392578 L 451.067626953125 96.32769775390625 L 450.6432800292969 93.10265350341797 L 442.9200134277344 101.6387939453125 L 442.9200134277344 93.05267333984375 L 433.1476135253906 97.24089813232422 L 437.9180297851562 85.84869384765625 C 441.4865417480469 77.32709503173828 445.5928344726562 68.70229339599609 450.4718322753906 59.48149490356445 C 454.6918334960938 51.50609588623047 459.4041137695312 43.25339508056641 464.8779296875 34.25209808349609 C 472.5926208496094 21.5391960144043 481.1189270019531 8.118496894836426 491.1679382324219 -3.871703386306763 L 494.4623413085938 -7.80250358581543 L 498.3081359863281 -4.40920352935791 L 499.6921081542969 -3.188046932220459 L 505.9086303710938 -10.62080383300781 L 507.4332275390625 -4.24525785446167 L 510.6603393554688 -7.264103412628174 L 511.1950988769531 -5.258746147155762 L 511.7207336425781 -5.892603397369385 L 515.5062255859375 -3.188703298568726 L 517.8162231445312 -1.538703322410583 L 520.1357421875 0.1180966421961784 L 519.8916015625 2.958096742630005 C 519.2904052734375 9.954496383666992 518.6111450195312 17.06629753112793 517.9542236328125 23.94389724731445 C 517.072265625 33.17691421508789 516.1768798828125 42.55112457275391 515.4396362304688 51.96884536743164 C 518.1884155273438 45.19111251831055 521.0330200195312 38.5673942565918 523.7442016601562 32.32749557495117 C 527.1181030273438 24.54147148132324 530.0162353515625 18.21562194824219 532.8624877929688 12.42510986328125 C 534.9779052734375 8.082714080810547 537.1648559570312 3.595423460006714 539.8466186523438 -0.6020033359527588 L 540.635009765625 -1.836103320121765 L 541.9647216796875 -2.449803352355957 L 544.82470703125 -3.769803285598755 L 548.9337158203125 -5.6662278175354 L 557.75 -17.48000335693359 L 557.75 -7.275645732879639 L 559.5171508789062 -8.702903747558594 L 559.8795776367188 -5.621957302093506 C 560.0911865234375 -5.7540602684021 560.3045654296875 -5.881170272827148 560.5197143554688 -6.002803325653076 L 564.5635986328125 -8.288503646850586 L 567.1403198242188 -4.423503398895264 L 568.6802978515625 -2.113503456115723 L 570.3234252929688 0.3511966466903687 L 568.9511108398438 2.976296663284302 C 564.6299438476562 11.24269676208496 560.8700561523438 20.05739593505859 557.2338256835938 28.58189582824707 C 556.6945190429688 29.8462963104248 556.1368408203125 31.1537971496582 555.5857543945312 32.43959808349609 C 549.6470336914062 46.33205032348633 544.8568725585938 58.24036407470703 540.7542114257812 69.32924652099609 C 543.6364135742188 69.26756286621094 546.0457763671875 69.11126708984375 548.3157348632812 68.84420013427734 L 554.5203857421875 68.11423492431641 C 555.0407104492188 66.484130859375 555.5797729492188 64.82915496826172 556.1344604492188 63.1359977722168 L 556.1343994140625 63.1359977722168 C 558.6288452148438 55.45319747924805 561.521728515625 47.33819580078125 565.238525390625 37.59749603271484 C 565.505126953125 36.90029525756836 565.7747192382812 36.19369506835938 566.0484008789062 35.4761962890625 C 570.2409057617188 24.48589706420898 575.4586181640625 10.80819702148438 581.4666137695312 0.8306966423988342 L 582.09033203125 -0.2050033509731293 L 583.1182250976562 -0.8413033485412598 L 585.42822265625 -2.271303415298462 L 590.9207153320312 -5.671403408050537 L 591.125244140625 -5.012448310852051 L 598.902099609375 -14.1892032623291 L 599.3294067382812 -5.784994125366211 L 601.7369384765625 -8.020603179931641 L 602.1470336914062 -4.65850305557251 C 602.5443725585938 -4.93105411529541 602.93212890625 -5.161221981048584 603.3139038085938 -5.352103233337402 L 607.2619018554688 -7.326103210449219 L 609.7103271484375 -3.65350341796875 L 611.1189575195312 -1.540524959564209 L 615.2299194335938 -2.371003389358521 C 620.55615234375 -3.447003364562988 626.1836547851562 -4.194503307342529 632.4340209960938 -4.656403541564941 C 637.56640625 -5.035603523254395 643.1651000976562 -5.220003128051758 649.550048828125 -5.220003128051758 L 653.1800537109375 -5.220003128051758 L 661.4156494140625 -5.220003128051758 L 658.1639404296875 1.033337116241455 L 660.2286987304688 2.547544002532959 C 660.5745849609375 1.924627423286438 660.9244995117188 1.306125283241272 661.2791137695312 0.6913966536521912 L 665.9247436523438 -7.361003398895264 L 668.4390258789062 -2.332335472106934 L 669.922607421875 -4.09730339050293 L 678.0770263671875 -13.79820346832275 L 678.5255126953125 -5.277266979217529 L 680.2357788085938 -2.654885768890381 L 687.57470703125 -11.720703125 L 688.5257568359375 0.8322966694831848 L 689.9306030273438 19.37678146362305 C 692.240478515625 12.94729709625244 694.7054443359375 6.664206027984619 697.3124389648438 0.5648966431617737 L 700.218017578125 -6.233103275299072 L 703.9241943359375 -2.526835680007935 L 710.3204345703125 -8.411303520202637 L 710.4589233398438 -7.268592834472656 L 714.4808349609375 -12.51450347900391 L 715.779052734375 -6.997129440307617 L 719.016845703125 -10.08070373535156 L 719.7465209960938 -3.878546237945557 L 733.0468139648438 -11.40700340270996 L 729.4588623046875 -4.051701545715332 L 729.5693969726562 -4.067803382873535 C 740.833740234375 -5.708203315734863 752.66015625 -6.540003299713135 764.7200317382812 -6.540003299713135 C 767.1005249023438 -6.540003299713135 769.3489990234375 -6.540003299713135 771.77783203125 -6.424303531646729 L 780.3365478515625 -6.01680326461792 L 778.4541015625 -3.027041435241699 L 780.67041015625 -2.916203260421753 L 779.7300415039062 0.2576815187931061 L 785.1570434570312 0.7098966240882874 L 781.5562133789062 7.423296451568604 C 775.0859985351562 19.48639678955078 767.7049560546875 31.40349578857422 759.617919921875 42.84369659423828 C 753.8131103515625 51.05535888671875 747.5374755859375 59.17294311523438 740.8886108398438 67.07402038574219 C 742.5657958984375 66.97031402587891 744.2420043945312 66.82566833496094 745.9078369140625 66.64059448242188 L 759.5861206054688 65.12079620361328 L 753.0045166015625 72.00160217285156 L 755.0555419921875 72.72549438476562 L 753.28173828125 74.49931335449219 L 763.129150390625 76.78939819335938 L 755.437744140625 80.4678955078125 L 759.908447265625 81.5469970703125 L 754.5284423828125 87.75469970703125 L 751.66845703125 91.05469512939453 L 750.6981201171875 92.17429351806641 L 749.2744140625 92.58449554443359 C 743.08154296875 94.368896484375 736.2801513671875 95.19999694824219 727.8700561523438 95.19999694824219 C 719.9873046875 95.19999694824219 711.8468017578125 94.48819732666016 704.3285522460938 93.14169311523438 L 699.687744140625 92.31049346923828 L 699.959228515625 90.03015899658203 L 696.099853515625 90.8985595703125 L 691.8153076171875 104.3752975463867 Z M 717.668701171875 24.38118171691895 C 716.5807495117188 27.46270370483398 715.5582275390625 30.46907806396484 714.58251953125 33.45369720458984 L 714.5753173828125 33.4756965637207 L 714.5679321289062 33.49769592285156 C 710.5310668945312 45.46902465820312 706.6163940429688 57.70123291015625 702.8092041015625 69.71298217773438 C 703.6451416015625 68.69800567626953 704.474609375 67.68357849121094 705.2969360351562 66.67789459228516 C 706.2739868164062 65.48289489746094 707.2841796875 64.24747467041016 708.2804565429688 63.04139709472656 C 715.2365112304688 54.55061721801758 722.3599243164062 45.52980804443359 730.0582275390625 35.46269607543945 L 730.0625 35.45709609985352 L 730.0669555664062 35.45139694213867 C 733.4905395507812 31.00075721740723 736.7221069335938 26.45656776428223 740.1220703125 21.46439170837402 C 737.115478515625 21.66094207763672 733.8771362304688 22.01748085021973 730.2415161132812 22.54769706726074 L 717.668701171875 24.38118171691895 Z M 623.2267456054688 57.69724655151367 C 621.7486572265625 61.12439346313477 620.273193359375 64.60482025146484 618.9077758789062 68.10671997070312 C 622.0830078125 68.02477264404297 625.2538452148438 67.82667541503906 628.3724975585938 67.51479339599609 L 634.5010986328125 66.90193176269531 C 635.6203002929688 63.44572448730469 636.7693481445312 60.04763412475586 637.9286499023438 56.72302627563477 L 623.2267456054688 57.69724655151367 Z M 636.0303955078125 29.3670711517334 L 638.8719482421875 29.55039596557617 L 640.3975219726562 29.64879608154297 L 641.6072387695312 30.58359718322754 L 644.0272216796875 32.45359802246094 L 646.2224731445312 34.14988327026367 C 647.9803466796875 29.5242977142334 649.7631225585938 24.96414566040039 651.636474609375 20.51208877563477 C 647.120361328125 20.54627799987793 643.0813598632812 21.00000381469727 639.5897216796875 21.86421775817871 C 638.46826171875 24.4316234588623 637.2354736328125 26.93083190917969 636.0303955078125 29.3670711517334 Z M 722.850341796875 10.35076332092285 C 722.1502075195312 12.14426708221436 721.477783203125 13.95425033569336 720.814697265625 15.7389965057373 C 720.6951293945312 16.0608959197998 720.5756225585938 16.38259696960449 720.4561157226562 16.70369720458984 C 719.8800048828125 18.2502384185791 719.322265625 19.76967430114746 718.78076171875 21.26816749572754 L 723.7440795898438 16.30493354797363 L 723.263427734375 16.19679641723633 L 724.3211059570312 11.7546443939209 L 723.9776000976562 11.42679691314697 L 722.850341796875 10.35076332092285 Z M 611.425048828125 3.948744297027588 C 611.2723999023438 4.263381481170654 611.1199340820312 4.579612731933594 610.9686279296875 4.89540433883667 L 611.6661987304688 4.725981712341309 L 611.4446411132812 4.01189661026001 L 611.425048828125 3.948744297027588 Z M 198.7953338623047 104.3752975463867 L 194.7859954833984 93.52651977539062 L 193.7811737060547 92.44992828369141 L 189.9569244384766 97.23019409179688 L 188.4142303466797 94.26350402832031 L 184.9498291015625 98.33929443359375 L 183.4837036132812 92.10839080810547 L 183.2756195068359 92.20499420166016 L 177.4118194580078 94.92749786376953 L 176.251220703125 88.56759643554688 C 174.8428802490234 80.84963226318359 173.7421112060547 72.67647552490234 172.9336090087891 63.89502716064453 C 172.1658172607422 65.99081420898438 171.4235076904297 68.05242156982422 170.7039337158203 70.08709716796875 C 170.2541809082031 71.36862945556641 169.7851409912109 72.67536926269531 169.3314208984375 73.93929290771484 C 167.5701293945312 78.84559631347656 165.7489318847656 83.91899871826172 164.5849304199219 88.82439422607422 L 164.1141204833984 90.80849456787109 L 162.3900299072266 91.89739990234375 L 160.3000335693359 93.21739959716797 L 156.04150390625 95.90702056884766 L 154.8216247558594 98.15159606933594 L 154.0614776611328 97.15757751464844 L 153.8369293212891 97.29940032958984 L 153.7541961669922 96.75576782226562 L 151.9528045654297 94.40016174316406 L 146.8313293457031 98.88150024414062 L 146.2493438720703 95.97161102294922 L 143.0828247070312 100.2506942749023 L 141.0283203125 93.83021545410156 L 132.7467193603516 98.09649658203125 L 135.5171203613281 87.30649566650391 C 136.6326293945312 82.96186828613281 137.8522644042969 78.64182281494141 139.1382293701172 74.3834228515625 C 137.2245483398438 80.09168243408203 135.4431610107422 85.80177307128906 133.8471221923828 91.53989410400391 L 133.0738220214844 94.32029724121094 L 130.2794342041016 95.04139709472656 L 126.8694305419922 95.92139434814453 L 121.1979293823242 97.38499450683594 L 121.1794509887695 97.19102478027344 L 118.2433242797852 99.99369812011719 L 118.0293579101562 95.07305908203125 L 112.102424621582 99.02429962158203 L 112.2780838012695 94.51596069335938 L 108.9132232666016 90.189697265625 L 106.6032257080078 87.21969604492188 L 105.1388244628906 85.33679962158203 L 105.6808242797852 83.01389312744141 C 106.5427093505859 79.31999969482422 107.5730972290039 75.65361785888672 108.6947937011719 71.97644805908203 C 108.0606384277344 72.97577667236328 107.4114837646484 73.97257995605469 106.7695236206055 74.9302978515625 C 103.4890289306641 79.8240966796875 100.7639236450195 83.18519592285156 98.67012786865234 84.92009735107422 L 98.66192626953125 84.92689514160156 L 98.65372467041016 84.93359375 C 94.926025390625 87.99569702148438 91.15872955322266 90.40149688720703 87.45652770996094 92.08429718017578 C 82.90822601318359 94.15169525146484 78.31692504882812 95.19999694824219 73.81002807617188 95.19999694824219 C 69.26332855224609 95.19999694824219 64.45742797851562 94.13999938964844 59.91182708740234 92.13459777832031 L 59.89362716674805 92.12659454345703 L 59.87552642822266 92.11839294433594 C 57.40552520751953 91.00519561767578 55.23872756958008 89.47209930419922 53.43532562255859 87.56169891357422 C 51.79772567749023 85.82709503173828 50.44702529907227 83.76589965820312 49.42052841186523 81.43549346923828 C 47.76132583618164 77.66869354248047 46.92002868652344 73.14159393310547 46.92002868652344 67.97999572753906 C 46.92002868652344 67.20336151123047 46.935791015625 66.44212341308594 46.96753692626953 65.69375610351562 C 46.46932601928711 67.017333984375 45.9774284362793 68.32817077636719 45.49262619018555 69.62310028076172 C 44.44335174560547 72.44179534912109 40.67602157592773 81.98576354980469 36.03799819946289 87.0753173828125 C 33.04089736938477 90.38670349121094 29.16857147216797 92.89499664306641 24.52852630615234 94.53059387207031 C 20.63212776184082 95.90399932861328 16.18232727050781 96.62999725341797 11.66002655029297 96.62999725341797 C 7.852827072143555 96.62999725341797 4.172126770019531 96.18489837646484 0.7202268838882446 95.30699920654297 C -3.247273206710815 94.29799652099609 -6.774272918701172 92.74469757080078 -9.7625732421875 90.69019317626953 L -10.55607318878174 90.14469909667969 L -11.09027290344238 89.34349822998047 L -12.63027286529541 87.03349304199219 L -17.11787223815918 80.30209350585938 L -10.41067028045654 79.46366882324219 L -11.89737319946289 74.01249694824219 L -9.357526779174805 74.38877105712891 L -11.51367282867432 67.80049896240234 L -5.632562160491943 69.03361511230469 L -6.432173252105713 67.16790008544922 L -3.022122144699097 66.72785949707031 L -7.094973087310791 57.22449493408203 L 5.58432674407959 64.14049530029297 C 7.308026790618896 65.08079528808594 9.362226486206055 65.6199951171875 11.22002696990967 65.6199951171875 C 15.01197338104248 65.6199951171875 16.43598937988281 63.72629928588867 17.17239952087402 62.27458190917969 C 17.70747566223145 61.13113021850586 18.22783660888672 59.82168579101562 18.73132705688477 58.55469512939453 C 18.96614837646484 57.96376800537109 19.20887184143066 57.35299682617188 19.45210838317871 56.76157760620117 C 20.00510025024414 55.36120986938477 20.57570457458496 53.94709396362305 21.12772750854492 52.57899475097656 C 22.21932601928711 49.87379837036133 23.34802627563477 47.07649612426758 24.34832763671875 44.36149597167969 L 24.35672760009766 44.33849716186523 L 24.36542701721191 44.31569671630859 C 26.06072616577148 39.84919738769531 27.73052597045898 35.27319717407227 29.34532737731934 30.84789657592773 C 33.18392562866211 20.32839584350586 37.15322875976562 9.450797080993652 41.85662841796875 -1.053303360939026 L 42.51312637329102 -2.519503355026245 L 43.90062713623047 -3.328903436660767 L 47.86062622070312 -5.638903141021729 L 54.76212692260742 -9.664803504943848 L 54.80270385742188 -9.12920093536377 L 57.57362747192383 -13.37050342559814 L 60.34380722045898 -5.85143518447876 L 63.6041259765625 -9.519303321838379 L 64.41893768310547 -6.259999752044678 L 64.76192474365234 -6.60300350189209 L 68.19532775878906 -4.214503288269043 L 70.72532653808594 -2.454503297805786 L 74.16752624511719 -0.05990335717797279 L 72.40912628173828 3.746796607971191 C 71.92182159423828 4.801732063293457 71.43729400634766 5.858992099761963 70.95635986328125 6.916383743286133 C 71.54294586181641 6.229906558990479 72.13912200927734 5.555288314819336 72.74333190917969 4.894323348999023 C 75.09451293945312 2.290377140045166 77.99008941650391 0.05827813595533371 81.35012817382812 -1.74060332775116 C 84.4144287109375 -3.381103277206421 87.84602355957031 -4.624203205108643 91.27392578125 -5.335703372955322 L 99.52782440185547 -7.048703193664551 L 98.10349273681641 -2.368721008300781 L 100.228630065918 -3.399103403091431 L 103.8586273193359 -5.159103393554688 L 105.3618240356445 -5.887903213500977 L 107.0011291503906 -5.566803455352783 C 113.4333267211914 -4.306803226470947 118.2439270019531 -1.339503407478333 121.2991256713867 3.252996683120728 C 123.9442291259766 7.228796482086182 125.2300262451172 12.31749629974365 125.2300262451172 18.80999755859375 C 125.2300262451172 21.31572723388672 124.9855728149414 24.22726058959961 124.502067565918 27.49049949645996 C 128.0791931152344 18.35112190246582 132.2294464111328 8.49859619140625 136.8466339111328 0.8307966589927673 L 137.4703216552734 -0.2050033509731293 L 138.4982299804688 -0.8413033485412598 L 140.8082275390625 -2.271303415298462 L 146.3007202148438 -5.671403408050537 L 146.5052185058594 -5.012448310852051 L 154.2821197509766 -14.1892032623291 L 154.7094268798828 -5.784819602966309 L 157.1172332763672 -8.020603179931641 L 157.5272216796875 -4.658645629882812 C 157.9244689941406 -4.93110466003418 158.3122406005859 -5.161271572113037 158.6939239501953 -5.352103233337402 L 162.6419219970703 -7.326103210449219 L 165.09033203125 -3.65350341796875 L 166.6303253173828 -1.343503355979919 L 168.1329803466797 0.9105693101882935 C 168.175048828125 0.8373029232025146 168.2169189453125 0.7645451426506042 168.2591247558594 0.6913966536521912 L 172.9047241210938 -7.361003398895264 L 175.4190368652344 -2.332335472106934 L 176.9026336669922 -4.09730339050293 L 185.0570220947266 -13.79820346832275 L 185.5055084228516 -5.277266979217529 L 187.2157745361328 -2.654885768890381 L 194.5547332763672 -11.720703125 L 195.5057220458984 0.8322966694831848 L 196.9106140136719 19.37678337097168 C 199.2204437255859 12.94729995727539 201.6854400634766 6.664206027984619 204.2924194335938 0.5648966431617737 L 207.1980285644531 -6.233103275299072 L 210.9042205810547 -2.526835680007935 L 217.3004302978516 -8.411303520202637 L 217.4389343261719 -7.268592834472656 L 221.4608306884766 -12.51450347900391 L 222.759033203125 -6.997129440307617 L 225.996826171875 -10.08070373535156 L 226.7264862060547 -3.878546237945557 L 240.0268249511719 -11.40700340270996 L 232.9638214111328 3.072096586227417 C 231.0205230712891 7.055996417999268 229.3806304931641 11.47019672393799 227.7947235107422 15.7389965057373 C 227.6751251220703 16.0608959197998 227.5556335449219 16.38259696960449 227.4361267089844 16.70369720458984 C 225.2510223388672 22.5690975189209 223.3299255371094 28.04739570617676 221.5625305175781 33.45369720458984 L 221.5553283691406 33.4756965637207 L 221.5479278564453 33.49769592285156 C 216.5947265625 48.18639755249023 211.8254241943359 63.26799774169922 207.2130279541016 77.85299682617188 C 205.9013214111328 82.00119781494141 204.5448303222656 86.29059600830078 203.2050323486328 90.50489807128906 L 198.7953338623047 104.3752975463867 Z M 77.43204498291016 56.85957717895508 C 77.10095977783203 59.07109832763672 76.94002532958984 60.98172378540039 76.94002532958984 62.69999694824219 C 76.94002532958984 64.13353729248047 77.16533660888672 64.98685455322266 77.32430267333984 65.36793518066406 C 77.59370422363281 65.25137329101562 78.34304046630859 64.83838653564453 79.57772827148438 63.49639511108398 C 80.82563018798828 62.13999557495117 81.96042633056641 60.50079727172852 82.78902435302734 59.30399703979492 C 84.58412933349609 56.71579742431641 86.72512817382812 52.22269821166992 89.15512847900391 45.94619750976562 C 91.28742980957031 40.43829727172852 93.18872833251953 34.7333984375 94.57692718505859 30.56789588928223 L 94.68341827392578 30.24851989746094 C 95.31036376953125 28.25998687744141 95.6500244140625 26.91351127624512 95.6500244140625 25.51999664306641 C 95.6500244140625 24.61309814453125 95.34658813476562 23.58132362365723 95.06968688964844 23.05691719055176 C 95.02953338623047 23.05079460144043 94.99212646484375 23.04562759399414 94.95924377441406 23.0417537689209 C 93.06060028076172 23.12364196777344 90.35111236572266 26.05823135375977 88.18212890625 30.39609718322754 L 88.17402648925781 30.41229629516602 L 88.16582489013672 30.42839622497559 C 86.64852905273438 33.40879821777344 84.12992858886719 38.75819778442383 81.92332458496094 43.99039840698242 C 78.39731597900391 52.35161590576172 77.60799407958984 55.76471328735352 77.43204498291016 56.85957717895508 Z M 351.7420349121094 101.8831939697266 L 346.5328979492188 93.54859161376953 L 341.4227294921875 97.26499938964844 L 341.2152709960938 95.24224853515625 L 340.9272155761719 95.54949951171875 L 339.2855224609375 92.86309051513672 L 334.3012390136719 96.94109344482422 L 333.837158203125 93.22843170166016 L 330.6857299804688 91.50949859619141 L 328.2657165527344 90.18949890136719 L 324.9200134277344 88.36449432373047 L 325.7929382324219 84.65480041503906 C 327.2003173828125 78.67319488525391 328.7931213378906 72.94789886474609 330.5270385742188 67.63799285888672 L 330.53173828125 67.62339782714844 L 330.53662109375 67.60889434814453 C 331.296630859375 65.32889556884766 332.1000366210938 63.07969665527344 332.8770141601562 60.90449523925781 C 333.0356140136719 60.46055603027344 333.1929016113281 60.02016830444336 333.3487854003906 59.58261108398438 C 331.9729919433594 59.81127166748047 330.5806884765625 60.05752944946289 329.1620788574219 60.3093147277832 C 325.8612365722656 69.08748626708984 322.2879638671875 79.01963806152344 319.65283203125 88.95219421386719 L 319.1495361328125 90.84929656982422 L 317.4900207519531 91.89739990234375 L 315.4000244140625 93.21739959716797 L 309.0839233398438 97.20649719238281 L 308.8976440429688 96.13533782958984 L 306.3200073242188 92.84163665771484 L 299.6695251464844 99.03339385986328 L 299.5610656738281 97.86206817626953 L 298.6332397460938 99.36669921875 L 295.6710815429688 93.44242095947266 L 286.6581420898438 98.08539581298828 L 289.4051208496094 87.31439971923828 C 293.8381652832031 69.93225860595703 300.0981140136719 52.76345825195312 305.6376647949219 38.25981903076172 C 307.6396789550781 32.96879959106445 309.7590026855469 27.36817932128906 312.0856018066406 21.75391006469727 L 302.9854125976562 22.38696479797363 C 298.6726379394531 31.44833374023438 295.0339660644531 40.82989501953125 292.0038146972656 48.93999481201172 L 291.9967346191406 48.95879745483398 L 291.9895324707031 48.97759628295898 C 286.4833374023438 63.3610954284668 281.7209167480469 77.68439483642578 277.8344116210938 91.54949951171875 L 277.0573120117188 94.3218994140625 L 274.2694396972656 95.04139709472656 L 270.8594360351562 95.92139434814453 L 265.1879272460938 97.38499450683594 L 265.1105346679688 96.57247924804688 L 262.6517333984375 98.69599914550781 L 262.2749938964844 94.55188751220703 L 255.3700256347656 99.53879547119141 L 255.3700256347656 95.36028289794922 L 255.0241241455078 95.73349761962891 L 251.751220703125 89.42160034179688 L 250.2112274169922 86.45159912109375 L 249.2342224121094 84.56729888916016 L 249.9110260009766 82.55559539794922 C 253.9850311279297 70.4468994140625 258.2246398925781 58.5463981628418 262.5120239257812 47.18469619750977 C 265.3897705078125 39.56717300415039 268.2575988769531 32.08634567260742 271.4240112304688 24.75674629211426 L 267.2601318359375 24.90679740905762 L 262.8949279785156 25.06409645080566 L 262.1527404785156 20.75949668884277 L 261.6027221679688 17.56949615478516 L 261.0010375976562 14.07948398590088 L 260.0728149414062 13.71169662475586 L 262.6508178710938 8.789997100830078 L 263.86083984375 6.479996681213379 L 264.9230346679688 4.452296733856201 L 266.4502563476562 4.095311641693115 L 266.2747192382812 1.813496589660645 L 265.9008178710938 -3.047503471374512 L 270.7508239746094 -3.544003248214722 C 285.6776123046875 -5.071903228759766 300.0211181640625 -6.005503177642822 313.3828125 -6.318603515625 L 316.0177307128906 -6.380403518676758 L 317.5577392578125 -4.241503238677979 L 319.5377197265625 -1.491503357887268 L 321.025390625 0.574677586555481 L 322.1158142089844 0.9381495118141174 C 322.1668395996094 0.8500348925590515 322.2184143066406 0.761202335357666 322.2696228027344 0.6732966303825378 L 326.925537109375 -7.319403171539307 L 329.6712036132812 -1.827991604804993 L 332.1329345703125 -4.363203525543213 L 340.5819396972656 -13.06440353393555 L 340.670654296875 -5.254695892333984 L 341.7552185058594 -6.610403537750244 L 343.6299438476562 -1.767415285110474 L 343.6421203613281 -1.778103351593018 L 348.9565124511719 -6.441803455352783 L 351.5824279785156 0.1229966431856155 L 352.0224304199219 1.222996592521667 L 352.9214172363281 3.470696687698364 L 351.7159118652344 5.569896697998047 C 347.0032043457031 13.77660274505615 343.33740234375 22.80075454711914 339.9600524902344 31.80636787414551 C 340.8680114746094 31.64851760864258 341.7850036621094 31.50083923339844 342.7125244140625 31.36930274963379 C 346.9262390136719 19.53736686706543 350.6060485839844 10.40389251708984 354.5115356445312 2.060296535491943 L 358.9914245605469 -7.510303497314453 L 361.81689453125 -1.602576971054077 L 367.7135314941406 -7.118703365325928 L 367.7882385253906 -6.296745300292969 L 372.7649230957031 -12.96350288391113 L 373.9671020507812 -6.017712593078613 L 373.9708251953125 -6.021903514862061 L 376.0737915039062 -2.937520503997803 L 376.6719360351562 -3.454103469848633 L 383.7426147460938 -9.560603141784668 L 384.6935119628906 -1.95353102684021 L 386.7599182128906 -2.371003389358521 C 392.0861206054688 -3.447003364562988 397.713623046875 -4.194503307342529 403.9640197753906 -4.656403541564941 C 409.096435546875 -5.035603523254395 414.6951293945312 -5.220003128051758 421.0800170898438 -5.220003128051758 L 424.7100219726562 -5.220003128051758 L 432.9456176757812 -5.220003128051758 L 429.6939697265625 1.033231377601624 L 432.5866394042969 3.154496669769287 L 431.6920166015625 4.049072742462158 L 441.3802185058594 8.012396812438965 L 430.7781372070312 11.98815631866455 L 429.7125244140625 14.36529636383057 L 428.2825317382812 17.55529594421387 L 426.9580383300781 20.50999641418457 L 423.7200317382812 20.50999641418457 C 418.979736328125 20.50999641418457 414.7536010742188 20.96481132507324 411.1197509765625 21.86421585083008 C 409.9982604980469 24.43167114257812 408.7654724121094 26.93075942993164 407.5603637695312 29.36706924438477 L 410.4019165039062 29.55039596557617 L 411.9275207519531 29.64879608154297 L 413.1372375488281 30.58359718322754 L 415.5572204589844 32.45359802246094 L 420.5650329589844 36.32319641113281 L 419.4210205078125 37.24719619750977 L 430.6690368652344 41.74639511108398 L 419.8175964355469 44.79843521118164 L 421.12841796875 45.68639755249023 L 418.2392883300781 47.25137710571289 L 419.4461364746094 48.12529754638672 L 415.8136291503906 52.25309753417969 L 413.3936157226562 55.00309753417969 L 412.0301208496094 56.55259704589844 L 409.9706420898438 56.6890983581543 L 394.7567443847656 57.69724655151367 C 393.2786560058594 61.12439346313477 391.8031616210938 64.60482025146484 390.4377746582031 68.10671997070312 C 393.6130065917969 68.02477264404297 396.7838745117188 67.82667541503906 399.9025268554688 67.51479339599609 L 412.1584167480469 66.28919982910156 L 405.7821044921875 73.86117553710938 L 408.6309204101562 74.15189361572266 L 407.230712890625 79.75269317626953 C 407.1678466796875 80.00422668457031 407.0908508300781 80.25511169433594 406.9992370605469 80.50609588623047 L 413.3920288085938 81.60829925537109 L 407.5884399414062 88.30469512939453 L 404.7284240722656 91.60469818115234 L 403.7502136230469 92.7333984375 L 402.3130187988281 93.14059448242188 C 395.9444274902344 94.94509887695312 388.6021118164062 95.85999298095703 380.4900207519531 95.85999298095703 C 374.450927734375 95.85999298095703 368.6293334960938 95.47369384765625 363.1868286132812 94.71170043945312 L 357.7806396484375 93.95479583740234 L 358.8574523925781 89.28823089599609 L 354.7084045410156 89.01161193847656 C 354.6222839355469 89.37844848632812 354.5370483398438 89.74489593505859 354.4525146484375 90.11199951171875 L 351.7420349121094 101.8831939697266 Z M 369.3638305664062 41.26749801635742 C 367.4783935546875 46.59749221801758 365.5771789550781 52.06906890869141 363.7367553710938 57.64183807373047 C 366.5310363769531 50.20370101928711 369.7269287109375 42.44596099853516 373.4996337890625 33.94229507446289 C 375.7213745117188 28.90059661865234 378.1797180175781 23.32326507568359 381.1644897460938 18.05989265441895 L 380.6950378417969 17.96599578857422 L 381.7810974121094 13.40464305877686 L 381.4376220703125 13.07679653167725 L 380.4566955566406 12.14044094085693 C 376.5409851074219 21.12766075134277 373.1291809082031 30.70151329040527 369.8026123046875 40.03609848022461 L 369.36376953125 41.26747512817383 L 369.3638305664062 41.26749801635742 Z" stroke="none"/>
      <path d="M 552.75 -2.420005798339844 L 547.25 4.949996948242188 L 546.9200439453125 0.7699966430664062 L 544.06005859375 2.089996337890625 C 541.5299072265625 6.049995422363281 539.4400634765625 10.33999633789062 537.3499145507812 14.62999725341797 C 534.159912109375 21.1199951171875 531.1900634765625 27.71999740600586 528.3300170898438 34.31999588012695 C 521.39990234375 50.26999664306641 513.7000122070312 68.52999877929688 508.9700317382812 85.25 L 514.6900634765625 86.23999786376953 L 513.7000122070312 91.29999542236328 C 518.2098999023438 91.73999786376953 522.8300170898438 91.95999908447266 527.3399047851562 91.95999908447266 C 534.489990234375 91.95999908447266 541.8600463867188 91.40999603271484 548.6800537109375 89.43000030517578 L 551.5399169921875 85.68999481201172 L 547.4699096679688 84.91999816894531 C 548.4598999023438 83.15999603271484 550.1100463867188 81.39999389648438 551.760009765625 80.18999481201172 L 546.4800415039062 79.30999755859375 L 548.7899169921875 77.32999420166016 L 545.8200073242188 76.44999694824219 L 548.89990234375 73.80999755859375 C 545.159912109375 74.25 541.4200439453125 74.36000061035156 537.6800537109375 74.36000061035156 C 536.3600463867188 74.36000061035156 534.9300537109375 74.36000061035156 533.6100463867188 74.36000061035156 C 538.8900146484375 59.50999450683594 544.8300170898438 44.87999725341797 550.989990234375 30.46999740600586 C 555.2799072265625 20.45999908447266 559.4598999023438 10.33999633789062 564.52001953125 0.6599960327148438 L 562.9800415039062 -1.650001525878906 C 560.4500122070312 -0.220001220703125 557.9200439453125 2.529998779296875 556.050048828125 4.6199951171875 L 555.6100463867188 0.8799972534179688 L 552.75 3.189994812011719 L 552.75 -2.420005798339844 M 56.32000732421875 -2.310005187988281 L 50.9300537109375 5.939994812011719 L 50.3800048828125 -1.319999694824219 L 46.419921875 0.9899978637695312 C 39.82000732421875 15.72999572753906 34.760009765625 31.01999664306641 29.0399169921875 46.08999633789062 C 27.5 50.26999664306641 25.74005126953125 54.44999694824219 24.09002685546875 58.62999725341797 C 23.32000732421875 60.49999618530273 22.550048828125 62.58999633789062 21.669921875 64.45999908447266 C 19.58001708984375 68.63999938964844 15.84002685546875 70.6199951171875 11.21990966796875 70.6199951171875 C 8.46990966796875 70.6199951171875 5.61004638671875 69.84999847412109 3.19000244140625 68.52999877929688 L 4.1800537109375 70.83999633789062 L 0.77001953125 71.27999877929688 L 2.75 75.89999389648438 L -4.0699462890625 74.46999359130859 L -2.090087890625 80.51999664306641 L -5.05999755859375 80.07999420166016 L -4.0699462890625 83.70999908447266 L -8.469970703125 84.25999450683594 L -6.92999267578125 86.56999969482422 C -1.65008544921875 90.19999694824219 5.280029296875 91.62999725341797 11.659912109375 91.62999725341797 C 19.1400146484375 91.62999725341797 27.169921875 89.43000030517578 32.34002685546875 83.70999908447266 C 35.75 79.96999359130859 39.050048828125 72.59999847412109 40.80999755859375 67.8699951171875 C 49.169921875 45.53999710083008 57.86004638671875 23.31999969482422 67.87005615234375 1.649993896484375 L 65.33990478515625 -0.1100006103515625 L 61.71002197265625 3.519996643066406 L 61.050048828125 0.8799972534179688 L 57.530029296875 4.839996337890625 C 57.75 2.639999389648438 57.09002685546875 -0.220001220703125 56.32000732421875 -2.310005187988281 M 764.7199096679688 -1.540000915527344 C 753.2799072265625 -1.540000915527344 741.6200561523438 -0.7700042724609375 730.2899169921875 0.8799972534179688 L 731.2799072265625 4.069999694824219 L 735.1300048828125 5.939994812011719 L 727.4300537109375 7.80999755859375 L 729.8499145507812 10.1199951171875 L 729.300048828125 12.43000030517578 L 733.7000122070312 13.41999816894531 L 729.52001953125 17.59999847412109 C 734.800048828125 16.82999420166016 740.1900024414062 16.27999877929688 745.5800170898438 16.27999877929688 C 746.9000244140625 16.27999877929688 748.2199096679688 16.27999877929688 749.5399169921875 16.38999938964844 C 744.5899047851562 23.8699951171875 739.5299072265625 31.34999847412109 734.030029296875 38.49999618530273 C 726.8800048828125 47.84999847412109 719.6199951171875 57.08999633789062 712.1400146484375 66.22000122070312 C 707.9600219726562 71.27999877929688 703.7799072265625 76.55999755859375 699.3800048828125 81.39999389648438 L 702.1300048828125 81.72999572753906 L 701.3600463867188 84.58999633789062 L 705.760009765625 83.59999847412109 L 705.2100219726562 88.21999359130859 C 712.5800170898438 89.53999328613281 720.3900146484375 90.19999694824219 727.8699951171875 90.19999694824219 C 734.5800170898438 90.19999694824219 741.4000244140625 89.64999389648438 747.8900146484375 87.77999877929688 L 750.75 84.47999572753906 L 744.3700561523438 82.93999481201172 L 743.050048828125 80.84999847412109 L 748.1100463867188 78.42999267578125 L 743.3800048828125 77.32999420166016 L 745.909912109375 74.79999542236328 L 744.0399169921875 74.13999938964844 L 746.4600219726562 71.61000061035156 C 742.5 72.04999542236328 738.5399169921875 72.26999664306641 734.5800170898438 72.26999664306641 C 733.0399169921875 72.26999664306641 731.5 72.26999664306641 729.9600219726562 72.04999542236328 C 748.2199096679688 51.58999633789062 764.169921875 29.2599983215332 777.1500244140625 5.05999755859375 L 773.1900024414062 4.729995727539062 L 774.0700073242188 1.759994506835938 L 769.669921875 1.539993286132812 L 771.5399169921875 -1.430000305175781 C 769.2299194335938 -1.540000915527344 767.0299072265625 -1.540000915527344 764.7199096679688 -1.540000915527344 M 149.9300537109375 -1.319999694824219 L 144.4300537109375 5.169998168945312 L 143.4400024414062 1.979995727539062 L 141.1300048828125 3.409996032714844 C 134.9699096679688 13.63999938964844 129.5800170898438 28.15999603271484 125.2899169921875 39.37999725341797 C 122.0999145507812 47.73999786376953 119.02001953125 56.20999526977539 116.27001953125 64.67999267578125 C 114.1800537109375 71.05999755859375 112.0900268554688 77.54999542236328 110.550048828125 84.14999389648438 L 112.8600463867188 87.1199951171875 L 117.8099975585938 80.95999908447266 L 117.4799194335938 89.43000030517578 C 119.4600219726562 88.10999298095703 121.4400024414062 85.79999542236328 122.5399169921875 83.70999908447266 L 122.760009765625 88.76999664306641 L 125.1800537109375 86.45999908447266 L 125.6200561523438 91.07999420166016 L 129.030029296875 90.19999694824219 C 133.6500244140625 73.58999633789062 139.8099975585938 57.19999694824219 145.9699096679688 41.13999557495117 C 151.1400146484375 27.82999801635742 156.2000122070312 14.29999542236328 162.4699096679688 1.430000305175781 L 160.9300537109375 -0.8800048828125 C 158.7300415039062 0.2199935913085938 155.2100219726562 4.839996337890625 153.8900146484375 6.819999694824219 L 153.3399047851562 2.30999755859375 L 150.260009765625 5.169998168945312 L 149.9300537109375 -1.319999694824219 M 313.5000305175781 -1.319999694824219 C 299.4200134277344 -0.9900054931640625 285.2300415039062 0 271.2600402832031 1.430000305175781 L 271.4800415039062 4.289993286132812 L 276.7600402832031 6.819999694824219 L 268.2900390625 8.799995422363281 L 267.0800170898438 11.10999298095703 L 272.9100341796875 13.41999816894531 L 266.530029296875 16.71999359130859 L 267.0800170898438 19.90999603271484 L 279.2900390625 19.46999359130859 C 274.780029296875 29.03999710083008 270.9300231933594 39.04999542236328 267.1900329589844 48.94999694824219 C 262.7900390625 60.6099967956543 258.6100158691406 72.37999725341797 254.6500244140625 84.14999389648438 L 256.1900024414062 87.1199951171875 L 260.3700256347656 82.61000061035156 L 260.3700256347656 89.75999450683594 L 264.3300170898438 86.89999389648438 L 266.3100280761719 83.70999908447266 L 266.7500305175781 88.54999542236328 L 269.1700134277344 86.45999908447266 L 269.6100158691406 91.07999420166016 L 273.02001953125 90.19999694824219 C 277.0900268554688 75.67999267578125 281.9300231933594 61.26999664306641 287.3200378417969 47.18999481201172 C 291.0600280761719 37.17999649047852 295.02001953125 27.16999816894531 299.7500305175781 17.59999847412109 L 312.4000244140625 16.71999359130859 L 310.9700317382812 13.08999633789062 L 314.4900207519531 10.22999572753906 L 312.5100402832031 7.3699951171875 L 317.3500366210938 4.6199951171875 L 313.0600280761719 3.189994812011719 L 315.4800415039062 1.430000305175781 L 313.5000305175781 -1.319999694824219 M 594.550048828125 -1.319999694824219 L 589.050048828125 5.169998168945312 L 588.06005859375 1.979995727539062 L 585.75 3.409996032714844 C 579.5899047851562 13.63999938964844 574.2000122070312 28.15999603271484 569.909912109375 39.37999725341797 C 566.7199096679688 47.73999786376953 563.6400146484375 56.20999526977539 560.8900146484375 64.67999267578125 C 558.800048828125 71.05999755859375 556.7098999023438 77.54999542236328 555.1700439453125 84.14999389648438 L 557.4800415039062 87.1199951171875 L 562.4300537109375 80.95999908447266 L 562.0999145507812 89.43000030517578 C 564.0800170898438 88.10999298095703 566.06005859375 85.79999542236328 567.159912109375 83.70999908447266 L 567.3800048828125 88.76999664306641 L 569.800048828125 86.45999908447266 L 570.239990234375 91.07999420166016 L 573.64990234375 90.19999694824219 C 578.27001953125 73.58999633789062 584.4300537109375 57.19999694824219 590.5899047851562 41.13999557495117 C 595.760009765625 27.82999801635742 600.8200073242188 14.29999542236328 607.0899047851562 1.430000305175781 L 605.550048828125 -0.8800048828125 C 603.3499145507812 0.2199935913085938 599.8300170898438 4.839996337890625 598.510009765625 6.819999694824219 L 597.9598999023438 2.30999755859375 L 594.8800048828125 5.169998168945312 L 594.550048828125 -1.319999694824219 M 219.010009765625 -1.100006103515625 L 213.9500122070312 5.5 L 213.510009765625 1.8699951171875 L 210.760009765625 4.399993896484375 L 208.8900146484375 2.529998779296875 C 203.0599975585938 16.16999816894531 198.1100463867188 30.3599967956543 194.0400390625 44.65999603271484 L 193.8200073242188 44.76999664306641 L 190.52001953125 1.209999084472656 L 186.780029296875 5.829994201660156 L 185.1300048828125 3.299995422363281 L 181.280029296875 9.569999694824219 L 180.7300415039062 -0.8800048828125 L 174.3499145507812 6.709999084472656 L 172.5899047851562 3.189994812011719 C 165.9900512695312 14.62999725341797 160.8200073242188 28.04999542236328 156.2000122070312 40.3699951171875 C 150.260009765625 56.09999847412109 144.5400390625 72.26999664306641 140.3600463867188 88.54999542236328 L 143.9900512695312 86.68000030517578 L 144.8700561523438 89.43000030517578 L 148.9400024414062 83.92999267578125 L 150.0400390625 89.43000030517578 L 152.6800537109375 87.1199951171875 L 154.1100463867188 88.98999786376953 L 156.8600463867188 83.92999267578125 L 157.6300048828125 88.98999786376953 L 159.7199096679688 87.66999816894531 C 161.260009765625 81.17999267578125 163.7900390625 74.68999481201172 165.9900512695312 68.41999816894531 C 169.1800537109375 59.39999389648438 172.5899047851562 50.48999786376953 176.1100463867188 41.68999481201172 L 176.550048828125 41.57999801635742 C 177.0999145507812 56.8699951171875 178.4200439453125 72.59999847412109 181.1700439453125 87.66999816894531 L 184.25 86.23999786376953 L 186.2300415039062 81.94999694824219 L 187.550048828125 87.55999755859375 L 189.4200439453125 85.36000061035156 L 190.8499145507812 88.10999298095703 L 193.4900512695312 84.80999755859375 L 195.030029296875 86.45999908447266 L 196.5700073242188 83.92999267578125 L 198.4400024414062 88.98999786376953 C 204.4900512695312 69.95999908447266 210.4300537109375 50.81999588012695 216.8099975585938 31.89999771118164 C 218.6800537109375 26.17999649047852 220.6600341796875 20.56999969482422 222.75 14.95999908447266 C 224.510009765625 10.22999572753906 226.27001953125 5.389999389648438 228.4699096679688 0.8799972534179688 L 222.6400146484375 4.180000305175781 L 222.2000122070312 0.4399948120117188 L 219.8900146484375 2.639999389648438 L 219.010009765625 -1.100006103515625 M 712.030029296875 -1.100006103515625 L 706.9699096679688 5.5 L 706.530029296875 1.8699951171875 L 703.780029296875 4.399993896484375 L 701.9100341796875 2.529998779296875 C 696.0800170898438 16.16999816894531 691.1300048828125 30.3599967956543 687.06005859375 44.65999603271484 L 686.8400268554688 44.76999664306641 L 683.5400390625 1.209999084472656 L 679.800048828125 5.829994201660156 L 678.1500244140625 3.299995422363281 L 674.300048828125 9.569999694824219 L 673.75 -0.8800048828125 L 667.3699951171875 6.709999084472656 L 665.6100463867188 3.189994812011719 C 659.010009765625 14.62999725341797 653.8400268554688 28.04999542236328 649.2200317382812 40.3699951171875 C 643.280029296875 56.09999847412109 637.56005859375 72.26999664306641 633.3800048828125 88.54999542236328 L 637.010009765625 86.68000030517578 L 637.8900146484375 89.43000030517578 L 641.9600219726562 83.92999267578125 L 643.06005859375 89.43000030517578 L 645.7000122070312 87.1199951171875 L 647.1300048828125 88.98999786376953 L 649.8800048828125 83.92999267578125 L 650.6500244140625 88.98999786376953 L 652.7400512695312 87.66999816894531 C 654.280029296875 81.17999267578125 656.81005859375 74.68999481201172 659.010009765625 68.41999816894531 C 662.2000122070312 59.39999389648438 665.6100463867188 50.48999786376953 669.1300048828125 41.68999481201172 L 669.5700073242188 41.57999801635742 C 670.1199951171875 56.8699951171875 671.4400024414062 72.59999847412109 674.1900024414062 87.66999816894531 L 677.27001953125 86.23999786376953 L 679.25 81.94999694824219 L 680.5700073242188 87.55999755859375 L 682.4400024414062 85.36000061035156 L 683.8699951171875 88.10999298095703 L 686.510009765625 84.80999755859375 L 688.050048828125 86.45999908447266 L 689.5900268554688 83.92999267578125 L 691.4600219726562 88.98999786376953 C 697.510009765625 69.95999908447266 703.4500122070312 50.81999588012695 709.8300170898438 31.89999771118164 C 711.7000122070312 26.17999649047852 713.6800537109375 20.56999969482422 715.77001953125 14.95999908447266 C 717.530029296875 10.22999572753906 719.2900390625 5.389999389648438 721.4900512695312 0.8799972534179688 L 715.6600341796875 4.180000305175781 L 715.2200317382812 0.4399948120117188 L 712.9100341796875 2.639999389648438 L 712.030029296875 -1.100006103515625 M 335.7200317382812 -0.8800048828125 L 328.3500366210938 6.709999084472656 L 326.5900268554688 3.189994812011719 C 319.9900207519531 14.51999664306641 314.9300231933594 27.82999801635742 310.3100280761719 40.03999710083008 C 304.2600402832031 55.87999725341797 298.4300231933594 72.15999603271484 294.2500305175781 88.54999542236328 L 297.8800354003906 86.68000030517578 L 299.0900268554688 89.09999847412109 L 303.1600341796875 82.5 L 303.7100219726562 88.43999481201172 L 306.9000244140625 85.46999359130859 L 308.8800354003906 88 L 311.8500366210938 83.92999267578125 L 312.7300415039062 88.98999786376953 L 314.8200378417969 87.66999816894531 C 317.6800231933594 76.88999938964844 321.530029296875 66.32999420166016 325.4900207519531 55.87999725341797 C 330.5500183105469 54.99999618530273 335.6100158691406 54.0099983215332 340.6700134277344 53.56999588012695 C 339.02001953125 58.84999847412109 337.0400390625 63.90999603271484 335.280029296875 69.18999481201172 C 333.52001953125 74.57999420166016 331.9800415039062 80.18999481201172 330.6600341796875 85.79999542236328 L 333.0800170898438 87.1199951171875 L 337.4800415039062 82.05999755859375 L 338.1400146484375 87.33999633789062 L 340.5600280761719 85.36000061035156 L 341.77001953125 87.33999633789062 L 345.0700378417969 83.81999969482422 L 345.5100402832031 88.10999298095703 L 347.9300231933594 86.34999847412109 L 349.5800170898438 88.98999786376953 C 353.4300231933594 72.26999664306641 358.9300231933594 55.76999664306641 364.6500244140625 39.59999847412109 C 369.1600341796875 26.94999694824219 374.0000305175781 13.19999694824219 380.0500183105469 1.209999084472656 L 379.9400329589844 0.3299942016601562 L 375.1000366210938 4.509994506835938 L 373.4500122070312 2.089996337890625 L 370.8100280761719 5.05999755859375 L 369.8200378417969 -0.660003662109375 L 363.9900207519531 7.149993896484375 L 363.6600341796875 3.519996643066406 L 360.2500305175781 6.709999084472656 L 359.0400390625 4.180000305175781 C 354.2000122070312 14.51999664306641 350.1300354003906 25.29999542236328 346.3900146484375 35.96999740600586 C 341.5500183105469 36.40999603271484 336.9300231933594 37.5099983215332 332.2000122070312 38.38999557495117 C 336.6000366210938 26.39999771118164 341.0000305175781 14.18999481201172 347.3800354003906 3.079994201660156 L 346.9400329589844 1.979995727539062 L 341.5500183105469 6.709999084472656 L 340.2300415039062 3.299995422363281 L 335.8300170898438 8.799995422363281 L 335.7200317382812 -0.8800048828125 M 106.0399169921875 -0.660003662109375 L 102.409912109375 1.099998474121094 L 105.7100219726562 4.289993286132812 L 101.419921875 4.289993286132812 L 102.300048828125 7.149993896484375 C 99.550048828125 6.599998474121094 96.4698486328125 6.489982604980469 93.61004638671875 6.599998474121094 L 96.030029296875 3.409996032714844 L 91.52001953125 2.089996337890625 L 92.2899169921875 -0.44000244140625 C 86.46002197265625 0.7699966430664062 80.52001953125 3.739997863769531 76.45001220703125 8.25 C 63.46990966796875 22.43999481201172 56.32000732421875 41.13999557495117 52.69000244140625 59.72999572753906 C 52.1400146484375 62.47999572753906 51.919921875 65.22999572753906 51.919921875 67.97999572753906 C 51.919921875 75.89999389648438 54.12005615234375 84.03999328613281 61.9300537109375 87.55999755859375 C 65.669921875 89.20999908447266 69.74005126953125 90.19999694824219 73.80999755859375 90.19999694824219 C 81.95001220703125 90.19999694824219 89.32000732421875 86.12999725341797 95.47991943359375 81.06999969482422 C 99.33001708984375 77.87999725341797 106.260009765625 66.76999664306641 108.6800537109375 62.14999389648438 C 114.0700073242188 51.58999633789062 120.2299194335938 30.57999801635742 120.2299194335938 18.80999755859375 C 120.2299194335938 8.579994201660156 116.7098999023438 1.430000305175781 106.0399169921875 -0.660003662109375 M 77.33001708984375 70.39999389648438 C 72.9300537109375 70.39999389648438 71.94000244140625 66.22000122070312 71.94000244140625 62.69999694824219 C 71.94000244140625 60.49999618530273 72.159912109375 58.29999542236328 72.49005126953125 56.09999847412109 C 73.47991943359375 49.82999801635742 80.6300048828125 34.20999526977539 83.71002197265625 28.15999603271484 C 85.800048828125 23.97999572753906 89.760009765625 18.03999328613281 95.0399169921875 18.03999328613281 C 95.58990478515625 18.03999328613281 96.800048828125 18.25999450683594 97.34991455078125 18.47999572753906 C 99.6600341796875 19.57999420166016 100.6500244140625 23.20999908447266 100.6500244140625 25.51999664306641 C 100.6500244140625 27.71999740600586 100.0999145507812 29.69999694824219 99.44000244140625 31.78999710083008 C 96.69000244140625 40.03999710083008 91.6300048828125 55.32999801635742 86.9000244140625 62.14999389648438 C 84.919921875 65.00999450683594 81.1800537109375 70.39999389648438 77.33001708984375 70.39999389648438 M 495.0000305175781 -0.660003662109375 C 485.3200378417969 10.88999938964844 476.9600219726562 23.97999572753906 469.1500244140625 36.84999847412109 C 459.2500305175781 53.12999725341797 449.9000244140625 70.17999267578125 442.530029296875 87.77999877929688 L 447.9200134277344 85.46999359130859 L 447.9200134277344 88.65999603271484 L 454.1900329589844 81.72999572753906 L 454.7400207519531 85.90999603271484 L 457.1600341796875 83.59999847412109 L 457.6000366210938 87.77999877929688 L 460.5700378417969 85.90999603271484 L 462.9900207519531 85.90999603271484 C 465.0800170898438 82.05999755859375 467.1700134277344 78.09999847412109 469.2600402832031 74.25 C 471.9000244140625 74.02999877929688 474.5400390625 73.80999755859375 477.1800231933594 73.3699951171875 C 480.2600402832031 72.92999267578125 483.4500122070312 72.15999603271484 486.6400146484375 72.15999603271484 C 487.6300354003906 72.15999603271484 488.5100402832031 72.26999664306641 489.5000305175781 72.37999725341797 C 489.3900146484375 75.34999847412109 489.280029296875 78.20999908447266 489.280029296875 81.17999267578125 C 489.280029296875 82.71999359130859 489.280029296875 84.3699951171875 489.3900146484375 85.90999603271484 L 493.1300354003906 88.76999664306641 L 495.1100158691406 83.70999908447266 L 496.6500244140625 90.08999633789062 L 499.5100402832031 86.23999786376953 L 500.5000305175781 82.71999359130859 L 502.3700256347656 87.44999694824219 L 504.02001953125 84.69999694824219 L 505.780029296875 89.09999847412109 L 508.7500305175781 87.33999633789062 C 508.9700317382812 58.95999908447266 512.489990234375 30.68999481201172 514.9100341796875 2.529998779296875 L 512.6000366210938 0.8799972534179688 L 508.8600158691406 5.389999389648438 L 507.9800415039062 2.089996337890625 L 504.5700378417969 5.279998779296875 L 503.3600158691406 0.2199935913085938 L 498.3000183105469 6.269996643066406 L 496.8700256347656 0.9899978637695312 L 495.0000305175781 -0.660003662109375 M 490.6000366210938 55.87999725341797 C 486.530029296875 55.43999481201172 482.7900695800781 56.97999572753906 478.8300170898438 57.08999633789062 C 484.0000305175781 48.06999588012695 488.0700378417969 38.71999740600586 494.4500122070312 30.3599967956543 L 494.6700134277344 30.3599967956543 C 492.5800170898438 38.82999801635742 491.3700256347656 47.18999481201172 490.6000366210938 55.87999725341797 M 421.0800170898438 -0.220001220703125 C 409.9700317382812 -0.220001220703125 398.6400146484375 0.3299942016601562 387.7500305175781 2.529998779296875 L 388.7400207519531 5.719993591308594 L 392.5900268554688 7.589996337890625 L 384.8900146484375 9.459999084472656 L 387.3100280761719 11.76999664306641 L 386.7600402832031 14.07999420166016 L 391.1600341796875 14.95999908447266 L 387.7500305175781 16.82999420166016 C 383.9000244140625 22.76999664306641 380.9300231933594 29.47999572753906 378.0700378417969 35.96999740600586 C 371.1400146484375 51.58999633789062 364.7600402832031 67.8699951171875 360.2500305175781 84.3699951171875 C 361.9000244140625 84.47999572753906 363.6600341796875 84.91999816894531 365.2000122070312 85.57999420166016 C 364.6500244140625 86.89999389648438 364.2100219726562 88.32999420166016 363.8800354003906 89.75999450683594 C 369.3800354003906 90.52999877929688 374.9900207519531 90.85999298095703 380.4900207519531 90.85999298095703 C 387.3100280761719 90.85999298095703 394.3500366210938 90.19999694824219 400.9500122070312 88.32999420166016 L 403.8100280761719 85.02999877929688 L 397.4300231933594 83.92999267578125 C 398.8600158691406 82.93999481201172 401.9400329589844 80.29999542236328 402.3800354003906 78.53999328613281 L 396.9900207519531 77.98999786376953 L 399.9600219726562 76.00999450683594 L 398.6400146484375 74.57999420166016 L 400.4000244140625 72.48999786376953 C 396.0000305175781 72.92999267578125 391.4900207519531 73.14999389648438 387.0900268554688 73.14999389648438 C 385.8800354003906 73.14999389648438 384.5600280761719 73.14999389648438 383.3500366210938 72.92999267578125 C 385.6600341796875 66.11000061035156 388.52001953125 59.50999450683594 391.3800354003906 52.90999603271484 L 409.6400146484375 51.69999694824219 L 412.0600280761719 48.94999694824219 L 408.8700256347656 46.63999557495117 L 411.5100402832031 45.20999526977539 L 408.1000366210938 42.89999771118164 L 415.1400146484375 40.91999816894531 L 409.6400146484375 38.71999740600586 L 412.5000305175781 36.40999603271484 L 410.0800170898438 34.53999710083008 L 399.8500366210938 33.87999725341797 C 402.27001953125 28.48999786376953 405.2400207519531 23.20999908447266 407.4400329589844 17.70999908447266 C 412.6100158691406 16.05999755859375 418.3300170898438 15.50999450683594 423.7200317382812 15.50999450683594 L 425.1500244140625 12.31999969482422 L 423.280029296875 9.459999084472656 L 427.6800231933594 7.80999755859375 L 422.8400268554688 5.829994201660156 L 424.9300231933594 3.739997863769531 L 423.280029296875 2.529998779296875 L 424.7100219726562 -0.220001220703125 C 423.5000305175781 -0.220001220703125 422.2900390625 -0.220001220703125 421.0800170898438 -0.220001220703125 M 649.550048828125 -0.220001220703125 C 638.4400634765625 -0.220001220703125 627.1100463867188 0.3299942016601562 616.2199096679688 2.529998779296875 L 617.2098999023438 5.719993591308594 L 621.06005859375 7.589996337890625 L 613.3600463867188 9.459999084472656 L 615.7799072265625 11.76999664306641 L 615.2300415039062 14.07999420166016 L 619.6300048828125 14.95999908447266 L 616.2199096679688 16.82999420166016 C 612.3699951171875 22.76999664306641 609.39990234375 29.47999572753906 606.5399169921875 35.96999740600586 C 599.6100463867188 51.58999633789062 593.2300415039062 67.8699951171875 588.7199096679688 84.3699951171875 C 590.3699951171875 84.47999572753906 592.1300048828125 84.91999816894531 593.6700439453125 85.57999420166016 C 593.1199951171875 86.89999389648438 592.6800537109375 88.32999420166016 592.3499145507812 89.75999450683594 C 597.8499145507812 90.52999877929688 603.4598999023438 90.85999298095703 608.9598999023438 90.85999298095703 C 615.7799072265625 90.85999298095703 622.8200073242188 90.19999694824219 629.419921875 88.32999420166016 L 632.2799072265625 85.02999877929688 L 625.89990234375 83.92999267578125 C 627.3298950195312 82.93999481201172 630.409912109375 80.29999542236328 630.8499145507812 78.53999328613281 L 625.4598999023438 77.98999786376953 L 628.4300537109375 76.00999450683594 L 627.1100463867188 74.57999420166016 L 628.8699951171875 72.48999786376953 C 624.4699096679688 72.92999267578125 619.9598999023438 73.14999389648438 615.56005859375 73.14999389648438 C 614.3499145507812 73.14999389648438 613.0299072265625 73.14999389648438 611.8200073242188 72.92999267578125 C 614.1300048828125 66.11000061035156 616.989990234375 59.50999450683594 619.8499145507812 52.90999603271484 L 638.1100463867188 51.69999694824219 L 640.5299072265625 48.94999694824219 L 637.3399047851562 46.63999557495117 L 639.9799194335938 45.20999526977539 L 636.5700073242188 42.89999771118164 L 643.6100463867188 40.91999816894531 L 638.1100463867188 38.71999740600586 L 640.9699096679688 36.40999603271484 L 638.550048828125 34.53999710083008 L 628.3200073242188 33.87999725341797 C 630.739990234375 28.48999786376953 633.7098999023438 23.20999908447266 635.909912109375 17.70999908447266 C 641.0798950195312 16.05999755859375 646.800048828125 15.50999450683594 652.1900024414062 15.50999450683594 L 653.6199951171875 12.31999969482422 L 651.75 9.459999084472656 L 656.14990234375 7.80999755859375 L 651.31005859375 5.829994201660156 L 653.39990234375 3.739997863769531 L 651.75 2.529998779296875 L 653.1800537109375 -0.220001220703125 C 651.9699096679688 -0.220001220703125 650.760009765625 -0.220001220703125 649.550048828125 -0.220001220703125 M 562.75 -32.54000091552734 L 562.75 -17.74141693115234 L 563.4241333007812 -18.285888671875 L 563.9644775390625 -13.69326782226562 L 566.147216796875 -14.927001953125 L 576.1268310546875 0.042327880859375 L 576.0504760742188 0.1883163452148438 C 576.424560546875 -0.4695968627929688 576.8021850585938 -1.115707397460938 577.1832275390625 -1.748558044433594 L 578.4306030273438 -3.819999694824219 L 589.2219848632812 -10.50032806396484 L 603.2542724609375 -27.05833435058594 L 603.7789306640625 -16.74017333984375 L 605.5137939453125 -18.35122680664062 L 606.2391357421875 -12.40478515625 L 608.97412109375 -13.77222442626953 L 613.4179077148438 -7.105987548828125 L 614.2396850585938 -7.272003173828125 C 627.31982421875 -9.914451599121094 640.6563720703125 -10.22000122070312 649.550048828125 -10.22000122070312 L 661.8016357421875 -10.22000122070312 L 666.2393798828125 -17.91200256347656 L 669.5079956054688 -11.37467956542969 L 682.404052734375 -26.71644592285156 L 683.0680541992188 -14.10028076171875 L 691.6094970703125 -24.65145111083984 L 693.2721557617188 -2.704452514648438 L 698.5259399414062 -14.99622344970703 L 704.0685424804688 -9.453659057617188 L 710.0595703125 -14.96536254882812 L 716.9317016601562 -23.92877960205078 L 718.6480712890625 -16.63426971435547 L 722.8135986328125 -20.60144805908203 L 723.8329467773438 -11.93704223632812 L 744.6036987304688 -23.69411468505859 L 738.002685546875 -10.16201782226562 C 746.6925048828125 -11.07746887207031 755.6434936523438 -11.54000091552734 764.7199096679688 -11.54000091552734 C 767.1910400390625 -11.54000091552734 769.5444946289062 -11.53633880615234 772.0155639648438 -11.41867065429688 L 789.1329345703125 -10.60356140136719 L 787.238037109375 -7.594085693359375 L 787.2708129882812 -7.592445373535156 L 786.27001953125 -4.214637756347656 L 793.1641235351562 -3.640113830566406 L 785.9624633789062 9.786666870117188 C 776.5012817382812 27.42605972290039 765.2446899414062 44.54458618164062 752.3692016601562 60.891845703125 L 772.7132568359375 58.63143920898438 L 761.9691162109375 69.86342620849609 L 764.2005615234375 70.6510009765625 L 763.18310546875 71.66851043701172 L 778.1481323242188 75.14877319335938 L 767.767333984375 80.11351013183594 L 753.5061645507812 96.56866455078125 L 750.65869140625 97.38910675048828 C 744.0030517578125 99.30677795410156 736.7617797851562 100.1999969482422 727.8699951171875 100.1999969482422 C 719.6967163085938 100.1999969482422 711.2513427734375 99.46110534667969 703.447021484375 98.06333160400391 L 699.3045654296875 97.32140350341797 L 692.1707153320312 119.7605514526367 L 685.593505859375 101.963493347168 L 682.0839233398438 106.3504409790039 L 680.428466796875 103.1669998168945 L 675.3695678710938 109.1186676025391 L 673.0423583984375 99.22809600830078 L 666.673583984375 102.1849975585938 L 664.3524780273438 89.46521759033203 C 664.11767578125 88.17839813232422 663.8912353515625 86.87950897216797 663.6732177734375 85.56760406494141 C 663.2213134765625 87.05838012695312 662.8128051757812 88.53337097167969 662.4697875976562 89.97877502441406 L 661.5282592773438 93.94699859619141 L 652.8326416015625 99.43897247314453 L 648.5531616210938 107.3132171630859 L 645.886474609375 103.8260345458984 L 643.0637817382812 105.608772277832 L 642.6751098632812 103.0544967651367 L 636.642578125 108.3329925537109 L 636.57861328125 108.013298034668 L 634.315673828125 111.0713272094727 L 631.0866088867188 100.9803771972656 L 618.1534423828125 107.6428833007812 L 620.047119140625 100.2676696777344 C 616.5211791992188 100.6616744995117 612.8184814453125 100.8600006103516 608.9598999023438 100.8600006103516 C 602.689697265625 100.8600006103516 596.6348266601562 100.4574432373047 590.9635009765625 99.66343688964844 L 581.755859375 98.37434387207031 L 581.7374877929688 98.44044494628906 L 568.0242919921875 101.9794616699219 L 558.3470458984375 111.2168884277344 L 558.039794921875 104.1548919677734 L 551.344482421875 108.6182174682617 L 551.7208862304688 98.96006011962891 L 551.4681396484375 99.03343963623047 C 544.5909423828125 101.0301055908203 536.9240112304688 101.9599990844727 527.3399047851562 101.9599990844727 C 522.4550170898438 101.9599990844727 517.5392456054688 101.7220001220703 512.72900390625 101.2527770996094 L 506.1361694335938 100.6095428466797 L 500.52001953125 109.9697723388672 L 498.3732604980469 104.5396728515625 L 491.9407958984375 113.1987762451172 L 488.1667785644531 97.56336212158203 L 479.7364807128906 91.11666107177734 L 479.4154663085938 86.62244415283203 C 479.3350830078125 85.49677276611328 479.3021545410156 84.31991577148438 479.2888488769531 83.15702056884766 L 478.59423828125 83.26943969726562 C 477.6015014648438 83.43593597412109 476.5776672363281 83.57551574707031 475.5337829589844 83.69763946533203 L 468.9399108886719 95.90999603271484 L 463.4559631347656 95.90999603271484 L 449.6208801269531 104.6209716796875 L 447.3953552246094 106.7453308105469 L 447.0966491699219 104.4750823974609 L 437.9200134277344 114.6176605224609 L 437.9200134277344 100.6353912353516 L 423.76513671875 106.701774597168 L 433.30615234375 83.91744232177734 C 439.9755859375 67.99032592773438 448.9053649902344 50.8948860168457 460.6058044433594 31.65422058105469 C 468.4206848144531 18.77610778808594 477.0718078613281 5.163551330566406 487.3358154296875 -7.083335876464844 L 493.9246826171875 -14.94511413574219 L 499.1505126953125 -10.33403015136719 L 508.4572448730469 -21.461669921875 L 510.2964477539062 -13.77046966552734 L 513.340576171875 -16.61822509765625 L 515.2308349609375 -9.529861450195312 L 525.3614501953125 -2.293777465820312 L 524.8732299804688 3.386215209960938 C 524.3663940429688 9.284492492675781 523.8115234375 15.18808746337891 523.2486572265625 21.09600067138672 C 524.9029541015625 17.45033264160156 526.6064453125 13.81781768798828 528.37548828125 10.21877288818359 C 530.5408935546875 5.773994445800781 532.7935791015625 1.15032958984375 535.6331176757812 -3.294113159179688 L 537.2101440429688 -5.762222290039062 L 545.685791015625 -9.67401123046875 L 562.75 -32.54000091552734 Z M 550.7479248046875 63.52356719970703 C 550.959716796875 62.87239837646484 551.1729125976562 62.22018814086914 551.3869018554688 61.56688690185547 C 553.9002685546875 53.82577514648438 556.8199462890625 45.63488388061523 560.5670166015625 35.81488418579102 L 561.37744140625 33.69210815429688 C 564.407958984375 25.74814224243164 567.965087890625 16.42366027832031 572.0093994140625 7.974540710449219 C 568.3377685546875 15.29361724853516 565.0369262695312 23.03231811523438 561.8328247070312 30.54388427734375 L 560.1814575195312 34.40910720825195 C 555.5485229492188 45.2470703125 551.6201171875 54.86643600463867 548.1749267578125 63.82627105712891 L 550.7479248046875 63.52356719970703 Z M 715.7717895507812 45.72367858886719 C 719.2415771484375 41.31829071044922 722.6763916015625 36.8847770690918 726.0864868164062 32.42544174194336 C 727.287109375 30.86459350585938 728.4646606445312 29.29069519042969 729.6344604492188 27.68909454345703 L 721.3904418945312 28.8913459777832 C 720.6907348632812 30.91924667358398 720.005615234375 32.95595169067383 719.3350219726562 35.00733184814453 C 718.13134765625 38.57706832885742 716.9449462890625 42.14962005615234 715.7717895507812 45.72367858886719 Z M 630.7642822265625 62.25074768066406 C 630.76904296875 62.2364616394043 630.7738037109375 62.22202301025391 630.778564453125 62.20774078369141 L 626.6142578125 62.48368835449219 C 626.5883178710938 62.54451751708984 626.5626220703125 62.60504913330078 626.5367431640625 62.66584014892578 C 626.9839477539062 62.62621307373047 627.4299926757812 62.58416748046875 627.875 62.53966522216797 L 630.7642822265625 62.25074768066406 Z M 158.63427734375 -27.05833435058594 L 159.1588745117188 -16.74017333984375 L 160.893798828125 -18.35122680664062 L 161.619140625 -12.40487670898438 L 164.35400390625 -13.7723388671875 L 167.8260498046875 -8.563888549804688 L 173.2191162109375 -17.91211700439453 L 176.4879760742188 -11.37445831298828 L 189.384033203125 -26.71611785888672 L 190.0480346679688 -14.10026550292969 L 198.5894775390625 -24.65145111083984 L 200.2521362304688 -2.704452514648438 L 205.5059204101562 -14.99622344970703 L 211.0485229492188 -9.453666687011719 L 217.0391845703125 -14.96507263183594 L 223.9115600585938 -23.92900085449219 L 225.6279907226562 -16.63424682617188 L 229.7935791015625 -20.60144805908203 L 230.8129272460938 -11.93715667724609 L 251.5828247070312 -23.69389343261719 L 237.4577026367188 5.264106750488281 C 235.6220092773438 9.027328491210938 234.0966796875 13.13311004638672 232.4818115234375 17.47999572753906 L 232.1222534179688 18.44732666015625 C 230.078125 23.93410491943359 228.142578125 29.41688537597656 226.3150024414062 35.00733184814453 C 221.3375854492188 49.76921844482422 216.6557006835938 64.57621765136719 211.9803466796875 79.36066436767578 L 199.1506958007812 119.7605514526367 L 192.5733642578125 101.963134765625 L 189.063232421875 106.3505554199219 L 187.4081420898438 103.1674118041992 L 182.349609375 109.1186676025391 L 180.0223388671875 99.22809600830078 L 173.653564453125 102.1849975585938 L 171.3324584960938 89.46521759033203 C 171.09765625 88.17832183837891 170.8712768554688 86.87944793701172 170.6531982421875 85.56747436523438 C 170.2012939453125 87.0582275390625 169.792724609375 88.53351593017578 169.44970703125 89.9788818359375 L 168.508056640625 93.94688415527344 L 159.8125 99.43915557861328 L 155.5331420898438 107.3132171630859 L 152.8666381835938 103.8262557983398 L 150.0439453125 105.6091079711914 L 149.6551513671875 103.0544586181641 L 143.62255859375 108.3329925537109 L 143.5586547851562 108.013298034668 L 141.2957153320312 111.0713272094727 L 138.0665893554688 100.9803771972656 L 125.1334838867188 107.6428833007812 L 126.8134765625 101.0996246337891 L 123.4044189453125 101.979377746582 L 113.72705078125 111.2168884277344 L 113.4197998046875 104.1548919677734 L 106.7244873046875 108.6182174682617 L 107.2105712890625 96.14472961425781 L 101.6246948242188 88.96281433105469 C 92.45635986328125 96.42840576171875 83.1103515625 100.1999969482422 73.80999755859375 100.1999969482422 C 68.57366943359375 100.1999969482422 63.06982421875 98.99288940429688 57.89349365234375 96.7091064453125 C 53.89849853515625 94.90874481201172 48.15814208984375 91.08619689941406 44.7569580078125 83.22521209716797 C 43.2802734375 85.84996032714844 41.58428955078125 88.41329956054688 39.72955322265625 90.44755554199219 C 33.22216796875 97.647216796875 23.2431640625 101.629997253418 11.659912109375 101.629997253418 C 2.41522216796875 101.629997253418 -6.1988525390625 99.20810699462891 -12.5953369140625 94.81033325195312 L -14.18218994140625 93.71932983398438 L -25.7657470703125 76.34410858154297 L -16.75140380859375 75.21733856201172 L -18.7347412109375 67.94488525390625 L -16.6248779296875 68.25746917724609 L -18.95709228515625 61.13099670410156 L -11.2467041015625 62.74768829345703 L -10.224365234375 62.61576843261719 L -17.38006591796875 45.91910934448242 L 7.97857666015625 59.75099945068359 C 8.97613525390625 60.29510498046875 10.18780517578125 60.6199951171875 11.21990966796875 60.6199951171875 C 12.40960693359375 60.6199951171875 12.50860595703125 60.4219970703125 12.7255859375 59.98799896240234 C 13.14666748046875 59.08666229248047 13.61981201171875 57.87810516357422 14.08514404296875 56.70732879638672 L 16.4903564453125 50.70944213867188 C 17.57672119140625 48.01721954345703 18.66461181640625 45.325439453125 19.6563720703125 42.63310623168945 C 21.382568359375 38.0842170715332 23.01580810546875 33.60755157470703 24.6490478515625 29.13177490234375 C 28.517333984375 18.53099822998047 32.5174560546875 7.569107055664062 37.29302978515625 -3.0965576171875 L 38.60601806640625 -6.029006958007812 L 51.85321044921875 -13.75629425048828 L 58.8272705078125 -24.43089294433594 L 62.150634765625 -15.41026306152344 L 66.15814208984375 -19.91867065429688 L 68.63861083984375 -9.996879577636719 L 76.3817138671875 -4.610572814941406 C 80.51806640625 -7.243965148925781 85.28887939453125 -9.200019836425781 90.2576904296875 -10.23133850097656 L 106.7648315429688 -13.65744781494141 L 105.9177856445312 -10.87400054931641 L 107.962158203125 -10.47355651855469 C 114.3648681640625 -9.219398498535156 124.1080932617188 -5.390853881835938 128.2528076171875 6.199745178222656 C 129.6353149414062 3.405006408691406 131.0728759765625 0.7265625 132.563232421875 -1.748558044433594 L 133.8106079101562 -3.819999694824219 L 144.6019897460938 -10.50032806396484 L 158.63427734375 -27.05833435058594 Z M 375.7098083496094 -25.26711273193359 L 378.1245727539062 -11.31523132324219 L 387.5452575683594 -19.45122528076172 L 388.9920654296875 -7.876373291015625 C 401.0086975097656 -9.962654113769531 412.9159240722656 -10.22000122070312 421.0800170898438 -10.22000122070312 L 441.1812438964844 -10.22000122070312 L 436.1079406738281 -0.46356201171875 L 438.9359130859375 1.610282897949219 L 455.0804748535156 8.214881896972656 L 434.4872741699219 15.93732452392578 L 430.1960144042969 25.50999450683594 L 423.7200317382812 25.50999450683594 C 420.7240905761719 25.50999450683594 417.9742736816406 25.70320892333984 415.4948120117188 26.08645248413086 L 426.7767333984375 34.80433654785156 L 446.1981506347656 42.5728874206543 L 427.8447875976562 47.73479080200195 L 425.1798095703125 49.17830276489258 L 414.7743530273438 61.00270080566406 L 423.9168090820312 60.08843994140625 L 414.5071411132812 71.26242828369141 L 413.373291015625 75.79791259765625 L 414.1784057617188 76.67011260986328 L 422.9739074707031 78.18655395507812 L 406.5503540039062 97.13688659667969 L 403.676025390625 97.95121765136719 C 396.8639221191406 99.88133239746094 389.0630187988281 100.8600006103516 380.4900207519531 100.8600006103516 C 374.2198181152344 100.8600006103516 368.1649169921875 100.4574432373047 362.4935913085938 99.66343688964844 L 357.5435791015625 98.97042846679688 L 353.9040222167969 114.7764434814453 L 345.1357421875 100.7471466064453 L 337.3354797363281 106.4201049804688 L 336.81494140625 101.3447265625 L 330.4624633789062 106.5422210693359 L 329.1935729980469 96.39105224609375 L 323.6539306640625 93.36940765380859 L 323.4790344238281 94.02866363525391 L 311.2018737792969 101.7826156616211 L 309.1590270996094 104.5821075439453 L 308.3685607910156 103.5720825195312 L 305.4378051757812 105.4231109619141 L 304.7001342773438 101.1813583374023 L 301.6199035644531 104.0491561889648 L 298.1763610839844 109.6333312988281 L 297.3650207519531 108.0106201171875 L 295.6290283203125 109.6268844604492 L 295.05078125 103.3821487426758 L 293.4621276855469 100.2048187255859 L 279.0662536621094 107.6208877563477 L 284.1815795898438 87.56309509277344 C 283.65625 89.34932708740234 283.1455078125 91.12736511230469 282.64892578125 92.89899444580078 L 281.0946960449219 98.44388580322266 L 266.1182556152344 102.3087005615234 L 258.553466796875 108.8418884277344 L 258.0898742675781 103.7420959472656 L 250.3700561523438 109.3175506591797 L 250.3700561523438 97.61992645263672 L 243.818359375 84.98455047607422 L 245.172119140625 80.96110534667969 C 249.2652587890625 68.79544067382812 253.525390625 56.83744049072266 257.8340148925781 45.41944122314453 C 259.7943115234375 40.23040390014648 261.7503356933594 35.10377502441406 263.8020324707031 30.03463363647461 L 258.7096862792969 30.21810913085938 L 256.5504760742188 17.69425964355469 L 253.0656127929688 16.31343841552734 L 255.50830078125 11.64999389648438 L 255.43115234375 11.20233154296875 L 255.858642578125 10.981201171875 L 261.1832275390625 0.8160247802734375 L 260.5415954589844 -7.525115966796875 L 270.24169921875 -8.51800537109375 C 285.2982482910156 -10.05922698974609 299.7735900878906 -11.00100708007812 313.2656860351562 -11.31722259521484 L 318.5353698730469 -11.44078063964844 L 321.3017272949219 -7.598594665527344 L 327.2610168457031 -17.82878112792969 L 330.9923706054688 -10.36602020263672 L 345.4438171386719 -25.248779296875 L 345.6113586425781 -10.49940490722656 L 345.7098693847656 -10.24494934082031 L 350.9729309082031 -14.86355590820312 L 353.7098999023438 -8.021148681640625 L 358.9428100585938 -19.2005615234375 L 363.3837280273438 -9.915046691894531 L 366.254638671875 -12.60077667236328 L 375.7098083496094 -25.26711273193359 Z M 398.0668640136719 62.66583633422852 C 398.5140686035156 62.62620544433594 398.9599914550781 62.58416748046875 399.405029296875 62.53966522216797 L 403.5404663085938 62.1261100769043 L 398.1443176269531 62.48368835449219 C 398.1184387207031 62.54452514648438 398.0927124023438 62.60503387451172 398.0668640136719 62.66583633422852 Z" stroke="none" fill="#0ce8ad"/>
    </g>
    <path id="Path_10415_-_Outline" data-name="Path 10415 - Outline" d="M552.75-2.42l-5.5,7.37L546.92.77l-2.86,1.32a124.125,124.125,0,0,0-6.71,12.54c-3.19,6.49-6.16,13.09-9.02,19.69-6.93,15.95-14.63,34.21-19.36,50.93l5.72.99-.99,5.06c4.51.44,9.13.66,13.64.66a77.147,77.147,0,0,0,21.34-2.53l2.86-3.74-4.07-.77a16,16,0,0,1,4.29-4.73l-5.28-.88,2.31-1.98-2.97-.88,3.08-2.64a95.793,95.793,0,0,1-11.22.55h-4.07c5.28-14.85,11.22-29.48,17.38-43.89,4.29-10.01,8.47-20.13,13.53-29.81l-1.54-2.31c-2.53,1.43-5.06,4.18-6.93,6.27L555.61.88l-2.86,2.31V-2.42M56.32-2.31,50.93,5.94l-.55-7.26L46.42.99c-6.6,14.74-11.66,30.03-17.38,45.1-1.54,4.18-3.3,8.36-4.95,12.54-.77,1.87-1.54,3.96-2.42,5.83-2.09,4.18-5.83,6.16-10.45,6.16a17.123,17.123,0,0,1-8.03-2.09l.99,2.31-3.41.44L2.75,75.9l-6.82-1.43,1.98,6.05-2.97-.44.99,3.63-4.4.55,1.54,2.31c5.28,3.63,12.21,5.06,18.59,5.06,7.48,0,15.51-2.2,20.68-7.92,3.41-3.74,6.71-11.11,8.47-15.84C49.17,45.54,57.86,23.32,67.87,1.65L65.34-.11,61.71,3.52,61.05.88,57.53,4.84a17.812,17.812,0,0,0-1.21-7.15m708.4.77A240.443,240.443,0,0,0,730.29.88l.99,3.19,3.85,1.87-7.7,1.87,2.42,2.31-.55,2.31,4.4.99-4.18,4.18a111.624,111.624,0,0,1,16.06-1.32c1.32,0,2.64,0,3.96.11-4.95,7.48-10.01,14.96-15.51,22.11-7.15,9.35-14.41,18.59-21.89,27.72-4.18,5.06-8.36,10.34-12.76,15.18l2.75.33-.77,2.86,4.4-.99-.55,4.62a130.453,130.453,0,0,0,22.66,1.98,72.345,72.345,0,0,0,20.02-2.42l2.86-3.3-6.38-1.54-1.32-2.09,5.06-2.42-4.73-1.1,2.53-2.53-1.87-.66,2.42-2.53a107.5,107.5,0,0,1-11.88.66,32.49,32.49,0,0,1-4.62-.22A347.135,347.135,0,0,0,777.15,5.06l-3.96-.33.88-2.97-4.4-.22,1.87-2.97c-2.31-.11-4.51-.11-6.82-.11m-614.79.22-5.5,6.49-.99-3.19-2.31,1.43c-6.16,10.23-11.55,24.75-15.84,35.97-3.19,8.36-6.27,16.83-9.02,25.3-2.09,6.38-4.18,12.87-5.72,19.47l2.31,2.97,4.95-6.16-.33,8.47a16.843,16.843,0,0,0,5.06-5.72l.22,5.06,2.42-2.31.44,4.62,3.41-.88c4.62-16.61,10.78-33,16.94-49.06,5.17-13.31,10.23-26.84,16.5-39.71L160.93-.88c-2.2,1.1-5.72,5.72-7.04,7.7l-.55-4.51-3.08,2.86-.33-6.49m163.57,0C299.42-.99,285.23,0,271.26,1.43l.22,2.86,5.28,2.53L268.29,8.8l-1.21,2.31,5.83,2.31-6.38,3.3.55,3.19,12.21-.44c-4.51,9.57-8.36,19.58-12.1,29.48-4.4,11.66-8.58,23.43-12.54,35.2l1.54,2.97,4.18-4.51v7.15l3.96-2.86,1.98-3.19.44,4.84,2.42-2.09.44,4.62,3.41-.88c4.07-14.52,8.91-28.93,14.3-43.01A317.2,317.2,0,0,1,299.75,17.6l12.65-.88-1.43-3.63,3.52-2.86-1.98-2.86,4.84-2.75-4.29-1.43,2.42-1.76L313.5-1.32m281.05,0-5.5,6.49-.99-3.19-2.31,1.43c-6.16,10.23-11.55,24.75-15.84,35.97-3.19,8.36-6.27,16.83-9.02,25.3-2.09,6.38-4.18,12.87-5.72,19.47l2.31,2.97,4.95-6.16-.33,8.47a16.843,16.843,0,0,0,5.06-5.72l.22,5.06,2.42-2.31.44,4.62,3.41-.88c4.62-16.61,10.78-33,16.94-49.06,5.17-13.31,10.23-26.84,16.5-39.71L605.55-.88c-2.2,1.1-5.72,5.72-7.04,7.7l-.55-4.51-3.08,2.86-.33-6.49M219.01-1.1l-5.06,6.6-.44-3.63L210.76,4.4l-1.87-1.87a354.285,354.285,0,0,0-14.85,42.13l-.22.11-3.3-43.56-3.74,4.62L185.13,3.3l-3.85,6.27L180.73-.88l-6.38,7.59-1.76-3.52c-6.6,11.44-11.77,24.86-16.39,37.18-5.94,15.73-11.66,31.9-15.84,48.18l3.63-1.87.88,2.75,4.07-5.5,1.1,5.5,2.64-2.31,1.43,1.87,2.75-5.06.77,5.06,2.09-1.32c1.54-6.49,4.07-12.98,6.27-19.25,3.19-9.02,6.6-17.93,10.12-26.73l.44-.11a323.878,323.878,0,0,0,4.62,46.09l3.08-1.43,1.98-4.29,1.32,5.61,1.87-2.2,1.43,2.75,2.64-3.3,1.54,1.65,1.54-2.53,1.87,5.06c6.05-19.03,11.99-38.17,18.37-57.09,1.87-5.72,3.85-11.33,5.94-16.94,1.76-4.73,3.52-9.57,5.72-14.08l-5.83,3.3L222.2.44l-2.31,2.2-.88-3.74m493.02,0-5.06,6.6-.44-3.63L703.78,4.4l-1.87-1.87a354.274,354.274,0,0,0-14.85,42.13l-.22.11-3.3-43.56L679.8,5.83,678.15,3.3,674.3,9.57,673.75-.88l-6.38,7.59-1.76-3.52c-6.6,11.44-11.77,24.86-16.39,37.18-5.94,15.73-11.66,31.9-15.84,48.18l3.63-1.87.88,2.75,4.07-5.5,1.1,5.5,2.64-2.31,1.43,1.87,2.75-5.06.77,5.06,2.09-1.32c1.54-6.49,4.07-12.98,6.27-19.25,3.19-9.02,6.6-17.93,10.12-26.73l.44-.11a323.9,323.9,0,0,0,4.62,46.09l3.08-1.43,1.98-4.29,1.32,5.61,1.87-2.2,1.43,2.75,2.64-3.3,1.54,1.65,1.54-2.53,1.87,5.06c6.05-19.03,11.99-38.17,18.37-57.09,1.87-5.72,3.85-11.33,5.94-16.94,1.76-4.73,3.52-9.57,5.72-14.08l-5.83,3.3L715.22.44l-2.31,2.2-.88-3.74M335.72-.88l-7.37,7.59-1.76-3.52c-6.6,11.33-11.66,24.64-16.28,36.85-6.05,15.84-11.88,32.12-16.06,48.51l3.63-1.87,1.21,2.42,4.07-6.6.55,5.94,3.19-2.97L308.88,88l2.97-4.07.88,5.06,2.09-1.32a326.757,326.757,0,0,1,10.67-31.79c5.06-.88,10.12-1.87,15.18-2.31-1.65,5.28-3.63,10.34-5.39,15.62-1.76,5.39-3.3,11-4.62,16.61l2.42,1.32,4.4-5.06.66,5.28,2.42-1.98,1.21,1.98,3.3-3.52.44,4.29,2.42-1.76,1.65,2.64c3.85-16.72,9.35-33.22,15.07-49.39,4.51-12.65,9.35-26.4,15.4-38.39l-.11-.88L375.1,4.51l-1.65-2.42-2.64,2.97-.99-5.72-5.83,7.81-.33-3.63-3.41,3.19-1.21-2.53a341.283,341.283,0,0,0-12.65,31.79c-4.84.44-9.46,1.54-14.19,2.42,4.4-11.99,8.8-24.2,15.18-35.31l-.44-1.1-5.39,4.73L340.23,3.3l-4.4,5.5-.11-9.68M106.04-.66,102.41,1.1l3.3,3.19h-4.29l.88,2.86a38.092,38.092,0,0,0-8.69-.55l2.42-3.19L91.52,2.09l.77-2.53A29.8,29.8,0,0,0,76.45,8.25C63.47,22.44,56.32,41.14,52.69,59.73a41.893,41.893,0,0,0-.77,8.25c0,7.92,2.2,16.06,10.01,19.58A29.66,29.66,0,0,0,73.81,90.2c8.14,0,15.51-4.07,21.67-9.13,3.85-3.19,10.78-14.3,13.2-18.92,5.39-10.56,11.55-31.57,11.55-43.34,0-10.23-3.52-17.38-14.19-19.47M77.33,70.4c-4.4,0-5.39-4.18-5.39-7.7a44.5,44.5,0,0,1,.55-6.6c.99-6.27,8.14-21.89,11.22-27.94,2.09-4.18,6.05-10.12,11.33-10.12a8.567,8.567,0,0,1,2.31.44c2.31,1.1,3.3,4.73,3.3,7.04a20.449,20.449,0,0,1-1.21,6.27c-2.75,8.25-7.81,23.54-12.54,30.36-1.98,2.86-5.72,8.25-9.57,8.25M495-.66c-9.68,11.55-18.04,24.64-25.85,37.51-9.9,16.28-19.25,33.33-26.62,50.93l5.39-2.31v3.19l6.27-6.93.55,4.18,2.42-2.31.44,4.18,2.97-1.87h2.42c2.09-3.85,4.18-7.81,6.27-11.66,2.64-.22,5.28-.44,7.92-.88,3.08-.44,6.27-1.21,9.46-1.21a25.027,25.027,0,0,1,2.86.22c-.11,2.97-.22,5.83-.22,8.8,0,1.54,0,3.19.11,4.73l3.74,2.86,1.98-5.06,1.54,6.38,2.86-3.85.99-3.52,1.87,4.73,1.65-2.75,1.76,4.4,2.97-1.76c.22-28.38,3.74-56.65,6.16-84.81L512.6.88l-3.74,4.51-.88-3.3-3.41,3.19L503.36.22,498.3,6.27,496.87.99,495-.66m-4.4,56.54c-4.07-.44-7.81,1.1-11.77,1.21,5.17-9.02,9.24-18.37,15.62-26.73h.22a166.6,166.6,0,0,0-4.07,25.52M421.08-.22c-11.11,0-22.44.55-33.33,2.75l.99,3.19,3.85,1.87-7.7,1.87,2.42,2.31-.55,2.31,4.4.88-3.41,1.87c-3.85,5.94-6.82,12.65-9.68,19.14-6.93,15.62-13.31,31.9-17.82,48.4a15.55,15.55,0,0,1,4.95,1.21,26.411,26.411,0,0,0-1.32,4.18,120.363,120.363,0,0,0,16.61,1.1,75.6,75.6,0,0,0,20.46-2.53l2.86-3.3-6.38-1.1c1.43-.99,4.51-3.63,4.95-5.39l-5.39-.55,2.97-1.98-1.32-1.43,1.76-2.09c-4.4.44-8.91.66-13.31.66a21.344,21.344,0,0,1-3.74-.22c2.31-6.82,5.17-13.42,8.03-20.02l18.26-1.21,2.42-2.75-3.19-2.31,2.64-1.43L408.1,42.9l7.04-1.98-5.5-2.2,2.86-2.31-2.42-1.87-10.23-.66c2.42-5.39,5.39-10.67,7.59-16.17a54.355,54.355,0,0,1,16.28-2.2l1.43-3.19-1.87-2.86,4.4-1.65-4.84-1.98,2.09-2.09-1.65-1.21,1.43-2.75h-3.63m228.47,0c-11.11,0-22.44.55-33.33,2.75l.99,3.19,3.85,1.87-7.7,1.87,2.42,2.31-.55,2.31,4.4.88-3.41,1.87c-3.85,5.94-6.82,12.65-9.68,19.14-6.93,15.62-13.31,31.9-17.82,48.4a15.551,15.551,0,0,1,4.95,1.21,26.421,26.421,0,0,0-1.32,4.18,120.363,120.363,0,0,0,16.61,1.1,75.6,75.6,0,0,0,20.46-2.53l2.86-3.3-6.38-1.1c1.43-.99,4.51-3.63,4.95-5.39l-5.39-.55,2.97-1.98-1.32-1.43,1.76-2.09c-4.4.44-8.91.66-13.31.66a21.344,21.344,0,0,1-3.74-.22c2.31-6.82,5.17-13.42,8.03-20.02l18.26-1.21,2.42-2.75-3.19-2.31,2.64-1.43-3.41-2.31,7.04-1.98-5.5-2.2,2.86-2.31-2.42-1.87-10.23-.66c2.42-5.39,5.39-10.67,7.59-16.17a54.355,54.355,0,0,1,16.28-2.2l1.43-3.19-1.87-2.86,4.4-1.65-4.84-1.98,2.09-2.09-1.65-1.21,1.43-2.75h-3.63m-90.8-20.272V-9.369L560.3-10.62l.4,3.369,4.186-2.366,6.6,9.906-1.647,3.15c-4.3,8.232-8.055,17.028-11.684,25.535L556.5,32.833c-5.685,13.3-10.316,24.776-14.3,35.455,2-.07,3.994-.2,5.992-.438l5.566-.655q.7-2.185,1.423-4.384c2.5-7.685,5.394-15.816,9.116-25.571l.811-2.123c4.207-11.027,9.442-24.75,15.5-34.8l.748-1.243L591.493-7.2l.047.153,8.232-9.714.447,8.787,2.273-2.111.463,3.8L607.6-8.615l3.974,5.962,3.453-.7c12.729-2.571,25.8-2.869,34.518-2.869h13.513L659.447.734l.462.339q.25-.442.5-.881l5.575-9.663,2.665,5.33,10.29-12.241L679.51-5.6l.813,1.247,8.059-9.955,2.2,29.009q2.773-7.414,5.813-14.53l3.487-8.158,4.074,4.074,7.126-6.556.078.645,3.814-4.975,1.382,5.873,3.423-3.26.788,6.695,14.795-8.374-4.175,8.558A247.029,247.029,0,0,1,764.72-7.54c2.407,0,4.7,0,7.105.117l10.27.489L780.211-3.94l1.78.089-.953,3.215,5.721.477L782.438,7.9A349.8,349.8,0,0,1,743.17,65.9q1.314-.112,2.628-.258l16.415-1.824L754.8,71.574l2.087.737-1.622,1.623,10.871,2.528-7.726,3.695,3.333.8L751.26,93.053l-1.708.492A76.959,76.959,0,0,1,727.87,96.2a136.829,136.829,0,0,1-23.718-2.074l-5.569-1,.216-1.812-1.92.432-4.993,15.7-5.027-13.474L682.8,99.054l-1.565-3.01L677.45,100.5l-1.638-6.963-6.131,2.847-1.393-7.632c-1.176-6.444-2.138-13.2-2.9-20.365q-.364,1.018-.725,2.039l-1.374,3.857a142.426,142.426,0,0,0-4.715,14.778l-.565,2.381-8.2,5.177-1.832,3.371-1.141-1.493-.744.47-.274-1.8-1-1.3-5.618,4.916-.478-2.392-2.986,4.035-2.289-7.155-9.212,4.746,1.176-4.582A88.717,88.717,0,0,1,608.96,96.86,126.4,126.4,0,0,1,591.518,95.7l-6.488-.908,1.059-4.586L581,89.868l1.935-7.08c4.081-14.931,9.84-30.581,18.123-49.251,2.061-4.676,4.327-9.82,7.037-14.765l-.141-.028,1.193-5.012-.784-.748c-3.712,8.442-7.074,17.136-10.354,25.619l-1.824,4.71c-6.253,16.3-12.248,32.3-16.752,48.5l-.928,3.336-12.486,3.222-4.056,3.871-.233-5.349-6.081,4.054.238-6.1-1.911-2.457-1.726,2.257-1.895.55c-6.5,1.888-13.817,2.768-23.013,2.768-4.756,0-9.541-.232-14.223-.688l-6.574-.641.223-1.14-3.45,2.044-2.057,3.428-1.81-4.579-5.625,7.572-2.1-8.708L483.6,89.034l-.193-2.7c-.12-1.679-.125-3.478-.125-5.157,0-.92.01-1.83.027-2.736-.813.121-1.623.265-2.427.4l-2.852.462c-1.632.273-3.314.469-5.017.633L466.56,91.91H462.3l-9.66,6.082-.171-1.622-2.138,2.041-.4-3.034-8.014,8.858V94.569l-10.649,4.564L437,85.462c6.591-15.741,15.432-32.662,27.028-51.73C471.758,20.987,480.309,7.528,490.4-4.514l3.953-4.717,5.229,4.614,6.835-8.172,1.587,6.639,3.19-2.985.54,2.025,9.445,6.746-.293,3.408c-.6,6.992-1.269,13.99-1.938,21-.682,7.135-1.371,14.355-1.989,21.612,1.968-4.712,3.951-9.313,5.867-13.722,2.9-6.682,5.906-13.37,9.138-19.946A129.14,129.14,0,0,1,539-1.14l.946-1.481,8.334-3.847ZM722.173,16.462l.978-4.109c-.475,1.247-.939,2.5-1.4,3.734l-.359.965-.112.3Zm-76.4,16.073c1.42-3.716,2.86-7.388,4.356-10.995a49.976,49.976,0,0,0-9.819,1.181c-.856,1.93-1.778,3.841-2.714,5.745l3.177.2Zm59.57,32.516,2.176-2.652c7.422-9.059,14.64-18.247,21.75-27.543,3.02-3.926,5.889-7.923,8.856-12.236-2.391.207-4.944.511-7.734.917l-11.975,1.746q-1.481,4.213-2.878,8.481C712.026,44.166,708.66,54.606,705.338,65.051Zm-71.586.921q1.346-4.135,2.737-8.151l-12.586.834c-1.194,2.774-2.382,5.582-3.507,8.4,2.633-.1,5.275-.279,7.877-.539Zm-478.6-82.735.447,8.787,2.273-2.111.463,3.8,4.649-2.325,5.087,7.631,4.9-8.487,2.665,5.33,10.29-12.241L186.49-5.6l.813,1.247,8.059-9.955,2.2,29.009q2.773-7.414,5.813-14.53l3.487-8.158,4.074,4.074,7.125-6.555.078.645,3.814-4.975,1.382,5.873,3.423-3.26.788,6.695,14.794-8.374L233.863,3.51c-1.922,3.94-3.553,8.33-5.13,12.577l-.359.965c-2.062,5.536-4.016,11.07-5.86,16.712-4.974,14.751-9.664,29.582-14.346,44.39l-9.3,29.3-5.027-13.475-4.061,5.077-1.565-3.01L184.43,100.5l-1.638-6.963-6.131,2.847-1.393-7.632c-1.176-6.444-2.138-13.2-2.9-20.365q-.365,1.018-.725,2.039l-1.374,3.857a142.458,142.458,0,0,0-4.715,14.778l-.565,2.381-8.2,5.177-1.832,3.37-1.141-1.493-.744.47-.274-1.8-1-1.3-5.618,4.916-.478-2.392-2.986,4.035-2.289-7.155-9.212,4.746,1.148-4.472L121.4,98.367l-4.056,3.871-.233-5.349-6.081,4.054.238-6.1-7.208-9.267.65-2.788q.574-2.46,1.24-4.9a43.7,43.7,0,0,1-6.639,7.808c-8.5,6.979-17.068,10.51-25.5,10.51a35.828,35.828,0,0,1-14.3-3.151c-5.8-2.614-12.592-8.531-13.489-22-1.442,3.706-4.968,12.011-9.246,16.7C31.023,94.115,22.1,97.63,11.66,97.63c-8.444,0-16.253-2.172-21.989-6.116l-.952-.655L-18.847,79.51l7.169-.9L-13.265,72.8l2.454.364L-13,66.467l5.693,1.194-.564-1.315,3.41-.44L-9.152,54.963l15.215,8.3A11.14,11.14,0,0,0,11.22,64.62c3.246,0,4.422-1.519,5.083-2.843.5-1.059,1-2.345,1.5-3.592l2.4-5.978c1.1-2.73,2.2-5.46,3.21-8.19,1.719-4.528,3.358-9.021,5-13.513,3.844-10.535,7.82-21.429,12.537-31.965l.788-1.759,12.953-7.556,3.139-4.805,2.881,7.819,3.41-3.836L65.122-7.57,75.427-.4,74.373,1.879a36.855,36.855,0,0,1,16.7-8.194l9.9-2.056-1.249,4.1,5.5-2.667,1.967.385C119.825-4.074,126.23,4.458,126.23,18.81q0,.863-.039,1.781A154.958,154.958,0,0,1,135.99.315l.748-1.243L146.873-7.2l.047.153ZM77.984,63.7a31.524,31.524,0,0,0,3.983-4.968c4.175-6.02,9.231-21.192,11.661-28.483A15.735,15.735,0,0,0,94.65,25.52a5.006,5.006,0,0,0-.2-1.3c-1.258.552-3.319,2.524-5.37,6.626-3.961,7.78-9.915,21.475-10.66,26.192A38.33,38.33,0,0,0,77.94,62.7C77.94,63.083,77.957,63.416,77.984,63.7Zm263.57-79.2.085,7.436.422-.527,1.986,5.13,5.314-4.663L353.422,2.03l.184-.393,5.376-11.485,3.149,6.583,6.394-5.981.024.261,4.806-6.438,1.559,9.01,1.355,1.988,8.235-7.112,1.049,8.392,1.01-.2c12.729-2.571,25.8-2.869,34.518-2.869h13.513L430.977.734l3.141,2.3-.655.656,10.658,4.36-12.6,4.725-3.914,8.732H423.72a52.727,52.727,0,0,0-11.885,1.211c-.856,1.93-1.778,3.841-2.714,5.745l3.177.2,9.881,7.635-.8.647,12.4,4.959-11.614,3.266.891.6-2.939,1.592.81.587-8.415,9.563-17.075,1.131c-1.194,2.774-2.382,5.582-3.507,8.4,2.633-.1,5.275-.279,7.877-.539l14.707-1.471-6.745,8.009,2.116.216-.912,3.649.167.181-.254.169-.609,2.437,7.036,1.213-11,12.69-1.725.489a81.518,81.518,0,0,1-22.1,2.757A126.4,126.4,0,0,1,363.048,95.7l-6.487-.908,1.058-4.586-2.13-.142-.062.27-3.253,14.126-5.921-9.474L340.605,99.1l-.266-2.59-1.309-2.142-5.5,4.5-.625-5-9.136-4.983,1.047-4.452c1.414-6.009,3.014-11.762,4.757-17.1.735-2.206,1.5-4.344,2.257-6.474q-.968.168-1.935.34c-3.236,8.623-6.708,18.325-9.278,28.014l-.6,2.277L308.355,98.85l-.4-2.3L306.2,94.316l-7.343,6.836-.02-.218-.3.486-3.313-6.625-10.09,5.2,3.3-12.925C292.882,69.635,299.155,52.43,304.7,37.9c1.826-4.826,3.751-9.912,5.843-15.036l-6.909.481c-4.188,8.864-7.734,18.014-10.7,25.946-5.512,14.4-10.265,28.694-14.143,42.529l-.933,3.327-13.561,3.5,0-.051-2.466,2.13-.394-4.335-7.068,5.1v-4.85l-6.219-11.994.812-2.414c4.078-12.12,8.321-24.032,12.613-35.4,2.693-7.127,5.377-14.137,8.307-21.019l-7.825.282L260.111,14.8l-1.44-.57L264.25,3.583l1.138-.266-.558-7.26,5.82-.6C285.6-6.069,299.972-7,313.359-7.318l3.162-.074L321.66-.268l5.332-9.153,2.943,5.886Zm38.069,34.273-.141-.028.96-4.033c-1.59,3.76-3.1,7.611-4.558,11.495C377.041,23.733,378.277,21.227,379.623,18.771Zm-37.651,11.7c1.668-4.669,3.255-8.919,4.807-12.868-1.892,4.239-3.621,8.585-5.272,12.939Z" transform="translate(16591 -5097)" fill="#423fbf"/>
  </g>
</svg>
