<svg xmlns="http://www.w3.org/2000/svg" width="640" height="428" viewBox="0 0 640 428">
  <g id="Group_4570" data-name="Group 4570" transform="translate(-20691 4750)">
    <rect id="Rectangle_2549" data-name="Rectangle 2549" width="640" height="428" transform="translate(20691 -4750)" fill="#423fbf" opacity="0"/>
    <g id="Group_4480" data-name="Group 4480" transform="translate(20668.094 -5131.944) rotate(11)">
      <g id="Group_4485" data-name="Group 4485" transform="translate(176.628 354.843)">
        <g id="Group_4484" data-name="Group 4484">
          <path id="Path_10178" data-name="Path 10178" d="M343.319,354.843c-104.374,0-166.691,51.455-166.691,137.647a151.461,151.461,0,0,0,7.68,47.675,74.836,74.836,0,0,0-1.957,16.683c0,52.666,40.034,102.795,68.737,115.542,9.939,4.419,19.633,12.756,29.9,21.586,17.384,14.957,37.093,31.91,62.33,31.91s44.942-16.953,62.334-31.91c10.263-8.83,19.957-17.167,29.9-21.586,28.7-12.747,68.737-62.876,68.737-115.542a74.536,74.536,0,0,0-1.957-16.683,151.332,151.332,0,0,0,7.68-47.675C510.01,406.3,447.7,354.843,343.319,354.843ZM190.414,546.3a56.714,56.714,0,0,0,7.552,11.19c-.044.133-.1.262-.142.4a63.53,63.53,0,0,0-2.782,14.766,57.147,57.147,0,0,1,.958-14.6,62.448,62.448,0,0,0-2.649,20.357,136.827,136.827,0,0,1-3.039-24.9c-.306,3.062-.5,6.136-.6,9.22-.12-1.957-.2-3.913-.2-5.874A65.953,65.953,0,0,1,190.414,546.3Zm311.88-41.179c.133-15.773-2.325-34.8-9.885-56.7-23.56-68.284-96.814-76.71-96.814-76.71s65.99,16.918,84.093,80.117c15.25,53.23,2.693,78.4-1.646,85.025a50,50,0,0,0-12.379-8.75,37.57,37.57,0,0,0-4.091-1.766c-.967-.342-1.477-.523-1.477-.523s.422.337,1.229.972c.808.608,1.952,1.553,3.354,2.791A63.866,63.866,0,0,1,474.8,540.848a57.724,57.724,0,0,1,8.763,18.67,65.6,65.6,0,0,1,1.877,11.425,78.811,78.811,0,0,1-.049,12.064,97.967,97.967,0,0,1-1.682,12.068c-.2.95-.439,1.872-.652,2.809-1.362,3.5-2.871,7.019-4.614,10.449a79.879,79.879,0,0,1-6.673,10.822,67.115,67.115,0,0,1-18.16,16.869,71.16,71.16,0,0,1-20.277,8.652,100,100,0,0,1-15.929,2.738c-3.953.364-6.26.492-6.26.492a55.926,55.926,0,0,0,6.207,1.278,69.043,69.043,0,0,0,16.865.572,62.349,62.349,0,0,0,9.712-1.677,60.241,60.241,0,0,1-18.892,5.178,61.472,61.472,0,0,0,17.384-1.828l-6.287,4.459,8.568-2.738c-7.143,7.942-14.256,14.2-21.488,17.419-.107.049-.217.107-.324.155.364-.772.683-1.491.945-2.138a31.512,31.512,0,0,0,1.358-3.922s-1.038,1.083-2.84,2.951c-1.8,1.846-4.4,4.375-7.645,7.232-3.217,2.862-7.1,6.092-11.248,9.526-2.085,1.69-4.237,3.443-6.425,5.213-2.205,1.748-4.441,3.523-6.727,5.24-1.779,1.38-3.585,2.72-5.382,4.047l4.362-8.617-5.222,5.768c.967-2.3,1.69-4.34,2.236-6.008,1.047-3.186,1.473-5.058,1.473-5.058s-1.118,1.557-3.061,4.251-4.65,6.535-8.222,10.693a54.864,54.864,0,0,1-13.528,11.807,31.4,31.4,0,0,1-8.759,3.554,35.5,35.5,0,0,1-9.841.652,76.744,76.744,0,0,1-10.409-1.366,65.516,65.516,0,0,1-9.735-2.716,44.336,44.336,0,0,1-15.148-9.22,41.14,41.14,0,0,1-8.013-10.3c-.763-1.429-1.313-2.609-1.664-3.425l-.537-1.26s.013.479.04,1.375a28.723,28.723,0,0,0,.492,3.9c.027.129.067.275.089.408l-8.767-10.072,6.158,12c-.182-.146-.364-.279-.546-.417-2.281-1.717-4.517-3.492-6.726-5.24-2.183-1.77-4.339-3.523-6.425-5.213-4.144-3.434-8.031-6.664-11.248-9.531-3.239-2.853-5.839-5.382-7.645-7.228l-2.84-2.951a31.18,31.18,0,0,0,1.362,3.922c.351.865.825,1.886,1.358,2.968a70.616,70.616,0,0,0-10.174-5.7c-9.77-4.335-21.177-13.732-31.662-26.338a122.017,122.017,0,0,0,12.184,7,119.588,119.588,0,0,1-9.5-8.035,69.674,69.674,0,0,0,14.868,6.376,89.4,89.4,0,0,0,17.162,2.959,115.493,115.493,0,0,0,12.246.027c1.469-.111,2.622-.2,3.408-.293l1.2-.111s-.417-.027-1.207-.067-1.939-.111-3.4-.222a115.267,115.267,0,0,1-12.024-1.322,87.023,87.023,0,0,1-16.461-3.927,64.88,64.88,0,0,1-17.162-8.461,53.515,53.515,0,0,1-13.768-13.107,48.857,48.857,0,0,1-3.6-5.5c-.936-2.374-1.837-4.836-2.667-7.392a93.943,93.943,0,0,1-5.045-24.23,65.939,65.939,0,0,1,2.21-24.4,53.158,53.158,0,0,1,9.859-18.981,54.958,54.958,0,0,1,11.026-10.7c1.491-1.131,2.72-1.961,3.576-2.493l1.309-.821s-.484.235-1.4.665-2.236,1.114-3.873,2.072a56.292,56.292,0,0,0-12.17,9.979,56.977,56.977,0,0,0-6.154,8.333l0,0,1.446-2.618c-5.1-9.925-19.119-50.075.98-108.323,4.739-13.732,13.843-25.832,21.6-35.14a107.8,107.8,0,0,0-31.764,47.076A176.432,176.432,0,0,0,185.79,491.8c-.621,3.958-1.171,7.955-1.562,11.984q-.439-5.63-.448-11.3c0-40.518,14.726-73.835,42.577-96.352,27.633-22.34,68.076-34.147,116.962-34.147s89.329,11.807,116.966,34.147c27.851,22.517,42.572,55.834,42.572,96.352C502.857,496.718,502.658,500.933,502.294,505.122Z" transform="translate(-176.628 -354.843)" fill="#edfd27"/>
        </g>
      </g>
      <g id="Group_4489" data-name="Group 4489" transform="translate(318.255 675.747)">
        <g id="Group_4488" data-name="Group 4488">
          <path id="Path_10180" data-name="Path 10180" d="M241.2,427.17c-5.968-.08-4.091,3.022-7.587,3.022s-1.62-3.1-7.587-3.022-17.477,14.855-17.477,14.855,11.168-7.658,15.516-9.056,4.091,1.628,9.548,1.628,5.2-3.017,9.548-1.628,15.516,9.056,15.516,9.056S247.167,427.246,241.2,427.17Z" transform="translate(-208.548 -427.169)" fill="#edfd27"/>
        </g>
      </g>
      <g id="Group_4491" data-name="Group 4491" transform="translate(323.796 688.505)">
        <g id="Group_4490" data-name="Group 4490">
          <path id="Path_10181" data-name="Path 10181" d="M239.081,430.056c-4.814.231-5.839.537-9.761.537s-4.943-.306-9.761-.537-9.761,3.013-9.761,3.013c4.947-1.389,12.787,1.473,19.523,1.473s14.58-2.862,19.522-1.473C248.842,433.069,243.9,429.821,239.081,430.056Z" transform="translate(-209.797 -430.044)" fill="#edfd27"/>
        </g>
      </g>
      <g id="Group_4493" data-name="Group 4493" transform="translate(369.789 533.42)">
        <g id="Group_4492" data-name="Group 4492">
          <path id="Path_10182" data-name="Path 10182" d="M281.512,395.455a68.882,68.882,0,0,0-23.1,6.886,74.833,74.833,0,0,0-19.163,14.58,77.23,77.23,0,0,0-17.694,30.615c-.546,1.682-.794,3.057-1.043,3.971-.231.914-.346,1.4-.346,1.4s.182-.466.524-1.349c.368-.874.785-2.187,1.544-3.776a90.234,90.234,0,0,1,19.318-28.609,71.3,71.3,0,0,1,18.56-13.524,65.357,65.357,0,0,1,21.807-6.993,67.736,67.736,0,0,1,20.144-.106,64.157,64.157,0,0,1,14.021,3.341c1.682.506,2.942,1.074,3.829,1.4.879.351,1.345.533,1.345.533s-.439-.24-1.265-.7c-.83-.439-2.019-1.176-3.634-1.9a65.589,65.589,0,0,0-13.936-4.734A70.3,70.3,0,0,0,281.512,395.455Z" transform="translate(-220.163 -395.091)" fill="#edfd27"/>
        </g>
      </g>
      <g id="Group_4495" data-name="Group 4495" transform="translate(215.757 533.42)">
        <g id="Group_4494" data-name="Group 4494">
          <path id="Path_10183" data-name="Path 10183" d="M190.62,401.893a64.154,64.154,0,0,1,14.021-3.341,67.737,67.737,0,0,1,20.144.106,65.325,65.325,0,0,1,21.807,6.993,71.231,71.231,0,0,1,18.56,13.524,90.162,90.162,0,0,1,19.323,28.609c.754,1.588,1.171,2.9,1.54,3.776.342.883.528,1.349.528,1.349s-.12-.488-.346-1.4c-.253-.914-.5-2.289-1.047-3.971a77.081,77.081,0,0,0-17.694-30.615,74.758,74.758,0,0,0-19.163-14.58,68.918,68.918,0,0,0-23.1-6.886,70.337,70.337,0,0,0-20.911,1.034,65.534,65.534,0,0,0-13.932,4.734c-1.615.728-2.8,1.464-3.638,1.9-.825.462-1.264.7-1.264.7s.466-.182,1.349-.533C187.679,402.967,188.939,402.4,190.62,401.893Z" transform="translate(-185.447 -395.091)" fill="#edfd27"/>
        </g>
      </g>
      <g id="Group_4497" data-name="Group 4497" transform="translate(375.877 609.31)">
        <g id="Group_4496" data-name="Group 4496">
          <path id="Path_10184" data-name="Path 10184" d="M282.969,438.848c-.719-.071-1.477-.142-2.281-.222q-1.2-.18-2.5-.386a82,82,0,0,1-11.753-2.329,90.2,90.2,0,0,1-12.965-4.308,96.835,96.835,0,0,1-12.348-5.857,90.833,90.833,0,0,1-10.147-6.393c-1.491-.954-2.782-1.939-3.927-2.809-1.162-.856-2.156-1.628-2.937-2.316-1.637-1.3-2.573-2.032-2.573-2.032l2.077,2.551c.67.807,1.531,1.739,2.56,2.778,1.012,1.061,2.152,2.254,3.5,3.461a92.437,92.437,0,0,0,9.792,7.521,98.38,98.38,0,0,0,12.619,6.545,93.279,93.279,0,0,0,13.639,4.006,83.558,83.558,0,0,0,12.3,1.269l2.591-.013c.821-.049,1.6-.1,2.329-.142,1.464-.084,2.729-.164,3.771-.315,2.068-.324,3.248-.5,3.248-.5s-1.189-.08-3.27-.226C285.653,439.118,284.4,439,282.969,438.848Z" transform="translate(-221.535 -412.195)" fill="#edfd27"/>
        </g>
      </g>
      <g id="Group_4499" data-name="Group 4499" transform="translate(242.334 609.31)">
        <g id="Group_4498" data-name="Group 4498">
          <path id="Path_10185" data-name="Path 10185" d="M254.353,416.543c-1.145.87-2.436,1.855-3.927,2.809a89.819,89.819,0,0,1-10.147,6.389,95.753,95.753,0,0,1-12.352,5.861,89.96,89.96,0,0,1-12.96,4.308,81.953,81.953,0,0,1-11.749,2.329c-.87.138-1.708.266-2.507.386-.8.08-1.562.151-2.276.222-1.433.151-2.689.271-3.723.28-2.085.146-3.274.226-3.274.226s1.185.178,3.252.5c1.038.151,2.307.231,3.767.315q1.1.067,2.329.142l2.591.013a83.5,83.5,0,0,0,12.3-1.269,93.494,93.494,0,0,0,13.644-4.006,98.911,98.911,0,0,0,12.614-6.545,92.446,92.446,0,0,0,9.792-7.521c1.349-1.207,2.494-2.4,3.5-3.461,1.029-1.038,1.89-1.97,2.565-2.778,1.318-1.624,2.072-2.551,2.072-2.551s-.936.736-2.578,2.032C256.509,414.915,255.52,415.687,254.353,416.543Z" transform="translate(-191.437 -412.195)" fill="#edfd27"/>
        </g>
      </g>
      <g id="Group_4501" data-name="Group 4501" transform="translate(355.779 531.708)">
        <g id="Group_4500" data-name="Group 4500">
          <path id="Path_10186" data-name="Path 10186" d="M227.4,478.86c2.414,9.131,4.5,15.13,4.5,15.13s-.257-6.345-1.371-15.729c-.271-2.347-.564-4.889-.949-7.56s-.737-5.506-1.22-8.417-.9-5.923-1.46-8.963c-.541-3.039-1.087-6.127-1.633-9.211-.581-3.07-1.163-6.136-1.646-9.153s-1.025-5.977-1.415-8.856c-.812-5.75-1.362-11.128-1.615-15.773-.226-4.637-.213-8.541-.1-11.288.133-2.755.213-4.335.213-4.335s-.124.377-.359,1.078c-.217.71-.6,1.744-.95,3.093a66.263,66.263,0,0,0-2.005,11.385,96.137,96.137,0,0,0-.067,16.368c.257,2.977.492,6.061.976,9.149.435,3.1.958,6.216,1.482,9.331.617,3.093,1.229,6.176,1.832,9.216s1.309,6,1.935,8.883,1.318,5.639,1.957,8.27C226.122,474.1,226.783,476.575,227.4,478.86Z" transform="translate(-217.005 -394.705)" fill="#edfd27"/>
        </g>
      </g>
      <g id="Group_4503" data-name="Group 4503" transform="translate(315.965 531.708)">
        <g id="Group_4502" data-name="Group 4502">
          <path id="Path_10187" data-name="Path 10187" d="M208.032,493.99l1.162-4.175c.674-2.671,1.642-6.482,2.8-11.061,1.047-4.6,2.267-9.961,3.567-15.711,1.176-5.772,2.427-11.935,3.678-18.1,1.038-6.216,1.979-12.477,2.533-18.4a126.02,126.02,0,0,0,.217-16.266,88.513,88.513,0,0,0-1.637-11.376c-.3-1.344-.639-2.387-.821-3.1s-.3-1.092-.3-1.092.04.4.115,1.127.217,1.806.288,3.181a86.58,86.58,0,0,1,.266,11.305,125.736,125.736,0,0,1-1.335,15.875c-.7,5.79-1.788,11.94-2.986,18.085-1.083,6.181-2.165,12.366-3.181,18.165-.9,5.826-1.735,11.261-2.454,15.92-.6,4.685-1.1,8.585-1.455,11.314C208.2,492.419,208.032,493.99,208.032,493.99Z" transform="translate(-208.032 -394.705)" fill="#edfd27"/>
        </g>
      </g>
      <g id="Group_4505" data-name="Group 4505" transform="translate(275.847 488.536)">
        <g id="Group_4504" data-name="Group 4504">
          <path id="Path_10188" data-name="Path 10188" d="M220.141,385.312a71.862,71.862,0,0,0-15.449.945c-1.832.342-3.261.635-4.224.9l-1.477.373,1.522-.075c.989-.071,2.44-.1,4.273-.142a99.562,99.562,0,0,1,15.068,1.051c3.075.479,6.371,1.14,9.819,1.974a109.682,109.682,0,0,1,10.644,3.292c3.66,1.3,7.192,2.942,11.039,4.659,3.825,1.664,8.168,3.456,13.036,3.563,4.783.053,9.229-1.34,13.173-2.8s7.632-2.968,11.345-4.268a190.624,190.624,0,0,1,20.405-6.185,90.773,90.773,0,0,1,14.93-2.223c1.832-.1,3.279-.138,4.268-.12.994,0,1.522,0,1.522,0s-.519-.111-1.491-.306-2.418-.439-4.273-.639a67.256,67.256,0,0,0-15.485.248,126.367,126.367,0,0,0-21.359,4.739c-3.789,1.176-7.791,2.462-11.62,3.882-3.82,1.362-7.618,2.418-11.314,2.312-3.634,0-7.33-1.371-11.092-2.955a114.748,114.748,0,0,0-11.58-4.375,82.074,82.074,0,0,0-11.327-2.724A80.655,80.655,0,0,0,220.141,385.312Z" transform="translate(-198.99 -384.975)" fill="#edfd27"/>
        </g>
      </g>
      <g id="Group_4507" data-name="Group 4507" transform="translate(366.923 513.081)">
        <g id="Group_4506" data-name="Group 4506">
          <path id="Path_10189" data-name="Path 10189" d="M307.688,396.848c-.657-.319-1.38-.679-2.17-1.065q-1.231-.473-2.658-1.016c-.954-.355-1.979-.732-3.048-1.132s-2.258-.63-3.474-.963c-1.216-.306-2.489-.67-3.82-.949q-2.023-.313-4.175-.635c-.719-.1-1.446-.226-2.187-.306-.745-.04-1.5-.075-2.258-.115-1.522-.053-3.088-.186-4.676-.155-1.588.08-3.2.164-4.836.249a39.61,39.61,0,0,0-4.934.652c-.821.129-1.655.266-2.485.4-.825.173-1.633.408-2.458.6-1.633.457-3.314.768-4.912,1.344l-4.774,1.775c-1.566.634-3.066,1.424-4.583,2.125-.745.368-1.513.688-2.232,1.1-.705.435-1.411.861-2.108,1.282-1.38.883-2.813,1.633-4.078,2.6q-1.9,1.417-3.749,2.786c-1.247.874-2.267,1.979-3.363,2.915-1.065.985-2.156,1.872-3.07,2.88s-1.793,1.974-2.64,2.911a54.341,54.341,0,0,0-4.268,5.342c-.595.825-1.18,1.571-1.659,2.307-.457.745-.874,1.438-1.251,2.059l-2.3,3.936s1.109-1.229,3.044-3.381c.475-.537.994-1.131,1.566-1.784.586-.634,1.278-1.273,1.974-1.979,1.433-1.389,2.915-3.07,4.805-4.614.91-.8,1.864-1.637,2.849-2.5s2.108-1.619,3.181-2.489c1.127-.808,2.179-1.775,3.434-2.511,1.211-.79,2.454-1.6,3.709-2.427,1.229-.865,2.636-1.486,3.976-2.249.679-.368,1.353-.741,2.037-1.118s1.424-.652,2.125-.994c1.438-.63,2.849-1.353,4.33-1.926l4.5-1.584c1.491-.568,3.057-.874,4.583-1.331.763-.2,1.526-.43,2.294-.612l2.321-.408c1.553-.218,3.066-.661,4.6-.759,1.535-.16,3.053-.315,4.539-.475,1.5-.106,2.968-.067,4.415-.12.723-.018,1.438-.031,2.148-.049.705.018,1.406.084,2.09.124l4.029.222c1.3.138,2.538.351,3.745.5,1.194.186,2.369.271,3.452.506s2.121.457,3.093.67,1.886.391,2.733.568l2.276.661,4.384,1.216Z" transform="translate(-219.517 -390.507)" fill="#edfd27"/>
        </g>
      </g>
      <g id="Group_4509" data-name="Group 4509" transform="translate(227.493 513.081)">
        <g id="Group_4508" data-name="Group 4508">
          <path id="Path_10190" data-name="Path 10190" d="M273.729,420.638c.7.705,1.389,1.345,1.974,1.979q.859.978,1.566,1.784c1.935,2.152,3.044,3.381,3.044,3.381l-2.3-3.936c-.377-.621-.794-1.313-1.251-2.059-.479-.737-1.065-1.482-1.659-2.307a53.7,53.7,0,0,0-4.268-5.342c-.843-.936-1.726-1.908-2.636-2.911s-2.01-1.895-3.07-2.88c-1.1-.936-2.121-2.041-3.372-2.915q-1.837-1.371-3.74-2.786c-1.269-.963-2.7-1.713-4.078-2.6q-1.052-.632-2.112-1.282c-.714-.417-1.482-.736-2.232-1.1-1.517-.7-3.013-1.491-4.583-2.125q-2.376-.885-4.77-1.775c-1.6-.577-3.288-.887-4.916-1.344-.821-.2-1.633-.43-2.458-.6-.834-.138-1.664-.275-2.489-.4a39.252,39.252,0,0,0-4.925-.652c-1.633-.084-3.252-.169-4.841-.249-1.588-.031-3.15.1-4.677.155-.759.04-1.513.075-2.258.115-.741.08-1.469.2-2.187.306q-2.15.32-4.171.635c-1.336.279-2.6.643-3.825.949-1.211.333-2.4.572-3.474.963l-3.048,1.132q-1.424.545-2.658,1.016c-.79.386-1.513.745-2.17,1.065-2.573,1.327-4.051,2.09-4.051,2.09l4.379-1.216,2.281-.661c.843-.177,1.757-.364,2.733-.568s2-.43,3.088-.67,2.258-.319,3.456-.506c1.2-.151,2.445-.364,3.74-.5l4.029-.222c.688-.04,1.384-.107,2.09-.124.71.018,1.424.031,2.147.049,1.446.053,2.924.013,4.415.12,1.491.16,3,.315,4.535.475,1.54.1,3.048.541,4.6.759l2.325.408c.768.182,1.526.413,2.294.612,1.517.457,3.088.763,4.579,1.331,1.5.528,3,1.056,4.5,1.584,1.482.572,2.893,1.3,4.33,1.926.705.342,1.442.626,2.125.994s1.362.75,2.037,1.118c1.34.763,2.746,1.384,3.98,2.249q1.884,1.238,3.7,2.427c1.256.737,2.307,1.7,3.434,2.511,1.074.87,2.21,1.619,3.181,2.489s1.935,1.7,2.853,2.5C270.818,417.568,272.3,419.25,273.729,420.638Z" transform="translate(-188.092 -390.507)" fill="#edfd27"/>
        </g>
      </g>
      <g id="Group_4513" data-name="Group 4513" transform="translate(328.065 617.527)">
        <g id="Group_4512" data-name="Group 4512">
          <path id="Path_10192" data-name="Path 10192" d="M221.5,428.911c-.075.843-.12,1.318-.12,1.318s.173-.448.475-1.238a27.991,27.991,0,0,0,.932-3.385,30.57,30.57,0,0,0,.617-4.947,10.642,10.642,0,0,0-.275-2.977,4.9,4.9,0,0,0-1.895-2.84,5.848,5.848,0,0,0-6.26.253,8.858,8.858,0,0,0-3.164,4.149,16.426,16.426,0,0,0-.878,3.43l-.173,1.318.519-1.216a26.558,26.558,0,0,1,1.473-3.079,8.673,8.673,0,0,1,3.075-3.23,4.122,4.122,0,0,1,4.375-.075c1.242.723,1.58,2.565,1.588,4.264.022,1.748.067,3.408-.04,4.819S221.607,428.085,221.5,428.911Z" transform="translate(-210.759 -414.047)" fill="#edfd27"/>
        </g>
      </g>
      <g id="Group_4515" data-name="Group 4515" transform="translate(346.722 617.205)">
        <g id="Group_4514" data-name="Group 4514">
          <path id="Path_10193" data-name="Path 10193" d="M217.8,416.125a1.608,1.608,0,0,1,1.553-.462,7.991,7.991,0,0,1,3.368,2.107,16.662,16.662,0,0,1,2.028,2.312c.453.612.679.994.679.994s-.1-.43-.359-1.162a11.562,11.562,0,0,0-1.562-2.84,14.935,14.935,0,0,0-1.486-1.633,5.434,5.434,0,0,0-2.3-1.349,3.3,3.3,0,0,0-3.1.763,5.169,5.169,0,0,0-1.5,2.693,18.823,18.823,0,0,0,.115,5.369,25.42,25.42,0,0,0,1.069,4.419,21.78,21.78,0,0,0,1.242,2.951c.377.674.594,1.061.594,1.061s-.093-.43-.253-1.18c-.182-.741-.346-1.815-.572-3.079s-.346-2.76-.479-4.344a17.659,17.659,0,0,1,.1-4.8A3.448,3.448,0,0,1,217.8,416.125Z" transform="translate(-214.964 -413.974)" fill="#edfd27"/>
        </g>
      </g>
      <g id="Group_4525" data-name="Group 4525" transform="translate(416.253 389.629)">
        <g id="Group_4524" data-name="Group 4524">
          <path id="Path_10198" data-name="Path 10198" d="M233.444,384.61a97.088,97.088,0,0,0,6.678,21.909,80.678,80.678,0,0,0,6.243,11.443c1.2,1.855,2.476,3.7,3.811,5.484.688.9,1.3,1.775,2.054,2.7.785.972,1.566,1.792,2.32,2.6a74.247,74.247,0,0,1,8.173,9.757,119.926,119.926,0,0,1,6.567,10.547c1.926,3.572,3.736,7.072,5.369,10.445,1.566,3.4,3.1,6.607,4.4,9.628,1.353,2.995,2.493,5.786,3.545,8.248,1.074,2.458,1.957,4.619,2.684,6.4,1.5,3.554,2.36,5.59,2.36,5.59s-.51-2.147-1.407-5.905c-.453-1.881-1.025-4.153-1.793-6.735-.745-2.587-1.579-5.515-2.667-8.656-1.007-3.159-2.249-6.545-3.643-10.1-1.429-3.536-3-7.263-4.876-11a98.1,98.1,0,0,0-6.487-11.265,78.766,78.766,0,0,0-8.519-10.467c-.75-.79-1.5-1.553-2.1-2.285-.648-.768-1.309-1.686-1.961-2.516q-1.957-2.563-3.723-5.2a94.834,94.834,0,0,1-6.287-10.658,122.758,122.758,0,0,1-7.9-20.663c-1.828-6.291-3.172-11.629-4.135-15.361s-1.522-5.874-1.522-5.874.146,2.2.524,6.052C231.553,372.577,232.175,378.066,233.444,384.61Z" transform="translate(-230.635 -362.683)" fill="#edfd27"/>
        </g>
      </g>
      <g id="Group_4527" data-name="Group 4527" transform="translate(213.37 389.629)">
        <g id="Group_4526" data-name="Group 4526">
          <path id="Path_10199" data-name="Path 10199" d="M209.836,438.51a74.291,74.291,0,0,1,8.177-9.757c.75-.812,1.531-1.633,2.316-2.6.754-.927,1.367-1.8,2.054-2.7,1.336-1.788,2.609-3.63,3.816-5.484a80.151,80.151,0,0,0,6.234-11.443,97.136,97.136,0,0,0,6.686-21.909c1.264-6.544,1.886-12.033,2.281-15.875.377-3.847.524-6.052.524-6.052s-.55,2.139-1.522,5.874-2.307,9.069-4.135,15.361a122.756,122.756,0,0,1-7.9,20.663,94.2,94.2,0,0,1-6.292,10.658c-1.176,1.757-2.409,3.492-3.718,5.2-.652.83-1.318,1.748-1.961,2.516-.6.732-1.349,1.5-2.1,2.285a79.475,79.475,0,0,0-8.519,10.467,98.762,98.762,0,0,0-6.487,11.265c-1.877,3.74-3.443,7.467-4.876,11-1.393,3.554-2.631,6.939-3.643,10.1-1.087,3.141-1.921,6.07-2.667,8.656-.763,2.582-1.34,4.854-1.793,6.735-.9,3.758-1.407,5.905-1.407,5.905s.861-2.036,2.36-5.59c.728-1.784,1.611-3.945,2.684-6.4,1.052-2.462,2.192-5.253,3.55-8.248,1.3-3.021,2.831-6.225,4.4-9.628,1.637-3.372,3.443-6.873,5.369-10.445A121.01,121.01,0,0,1,209.836,438.51Z" transform="translate(-184.909 -362.683)" fill="#edfd27"/>
        </g>
      </g>
      <g id="Group_4533" data-name="Group 4533" transform="translate(314.159 641.646)">
        <g id="Group_4532" data-name="Group 4532">
          <path id="Path_10202" data-name="Path 10202" d="M212.967,422.678c.457-1.908.719-3.195.719-3.195s-.5,1.216-1.176,3.057c-.324.927-.7,2.01-1.1,3.168-.373,1.163-.768,2.409-1.167,3.656-.359,1.251-.719,2.507-1.056,3.687-.311,1.185-.6,2.294-.847,3.239-.457,1.908-.719,3.195-.719,3.195s.5-1.211,1.176-3.052c.32-.927.692-2.01,1.1-3.168.373-1.167.768-2.409,1.162-3.651.364-1.26.723-2.516,1.06-3.7C212.43,424.736,212.719,423.627,212.967,422.678Z" transform="translate(-207.625 -419.483)" fill="#edfd27"/>
        </g>
      </g>
      <g id="Group_4535" data-name="Group 4535" transform="translate(365.969 636.965)">
        <g id="Group_4534" data-name="Group 4534">
          <path id="Path_10203" data-name="Path 10203" d="M225.509,434.459c-.488-1.393-1-2.88-1.522-4.361-.555-1.469-1.109-2.942-1.628-4.317-.546-1.371-1.06-2.649-1.5-3.74-.914-2.178-1.562-3.612-1.562-3.612s.417,1.517,1.114,3.771c.364,1.122.79,2.431,1.247,3.833.488,1.389,1.007,2.871,1.522,4.357.555,1.469,1.109,2.942,1.628,4.321.546,1.367,1.056,2.644,1.5,3.736.91,2.183,1.562,3.616,1.562,3.616s-.417-1.522-1.114-3.776C226.392,437.165,225.966,435.856,225.509,434.459Z" transform="translate(-219.302 -418.428)" fill="#edfd27"/>
        </g>
      </g>
      <g id="Group_4537" data-name="Group 4537" transform="translate(321.369 543.448)">
        <g id="Group_4536" data-name="Group 4536">
          <path id="Path_10204" data-name="Path 10204" d="M212.928,414.619c.235-2.152.421-4.308.55-6.331.084-2.028.138-3.918.133-5.542-.031-3.239-.209-5.4-.209-5.4s-.106,2.156-.271,5.382c-.071,1.619-.213,3.492-.395,5.506-.16,2.005-.386,4.144-.657,6.278-.244,2.134-.541,4.264-.865,6.256-.306,1.992-.621,3.847-.936,5.431-.617,3.172-1.029,5.293-1.029,5.293s.688-2.05,1.5-5.191c.395-1.575.794-3.425,1.2-5.409C212.3,418.9,212.64,416.763,212.928,414.619Z" transform="translate(-209.25 -397.351)" fill="#edfd27"/>
        </g>
      </g>
      <g id="Group_4539" data-name="Group 4539" transform="translate(360.893 528.535)">
        <g id="Group_4538" data-name="Group 4538">
          <path id="Path_10205" data-name="Path 10205" d="M219.147,402.82c.067-1.633.155-3.164.28-4.464l.373-4.366s-.426,1.708-.847,4.308c-.2,1.3-.382,2.835-.546,4.472-.12,1.646-.209,3.4-.248,5.16.013,1.761.071,3.518.164,5.164.142,1.642.293,3.177.475,4.481.377,2.609.776,4.317.776,4.317l-.3-4.366c-.1-1.309-.169-2.835-.209-4.468-.062-1.633-.08-3.381-.053-5.12C219.014,406.2,219.059,404.452,219.147,402.82Z" transform="translate(-218.158 -393.99)" fill="#edfd27"/>
        </g>
      </g>
      <g id="Group_4541" data-name="Group 4541" transform="translate(382.932 481.881)">
        <g id="Group_4540" data-name="Group 4540">
          <path id="Path_10206" data-name="Path 10206" d="M223.125,384.828s2.755-.315,6.9-.5c2.068-.129,4.481-.151,7.068-.115s5.342.182,8.084.43,5.48.586,8.026,1.016,4.929.874,6.939,1.371c4.042.918,6.7,1.721,6.7,1.721s-2.573-1.034-6.58-2.183c-2-.572-4.366-1.118-6.922-1.637-2.569-.47-5.32-.856-8.089-1.136-2.773-.217-5.546-.324-8.155-.319-2.6.053-5.031.169-7.1.373C225.845,384.265,223.125,384.828,223.125,384.828Z" transform="translate(-223.125 -383.475)" fill="#edfd27"/>
        </g>
      </g>
      <g id="Group_4543" data-name="Group 4543" transform="translate(251.621 479.111)">
        <g id="Group_4542" data-name="Group 4542">
          <path id="Path_10207" data-name="Path 10207" d="M201.942,389.477c-2.569.914-4.668,1.779-6.127,2.409l-2.285,1,2.343-.856c1.491-.546,3.625-1.3,6.225-2.1,2.573-.852,5.63-1.7,8.923-2.511s6.837-1.548,10.4-2.152,7.152-1.069,10.529-1.375,6.54-.51,9.255-.55c2.715-.1,4.983-.089,6.567-.062s2.494.044,2.494.044l-2.485-.2c-1.584-.115-3.851-.253-6.58-.271-2.724-.035-5.906.089-9.313.3-3.4.271-7.01.705-10.609,1.273-3.581.643-7.139,1.415-10.44,2.276C207.551,387.622,204.507,388.549,201.942,389.477Z" transform="translate(-193.53 -382.851)" fill="#edfd27"/>
        </g>
      </g>
      <g id="Group_4545" data-name="Group 4545" transform="translate(408.107 518.99)">
        <g id="Group_4544" data-name="Group 4544">
          <path id="Path_10208" data-name="Path 10208" d="M261.93,393.144a57.835,57.835,0,0,1,7.8,1.478c1.136.257,2.161.563,3.062.852.905.271,1.7.51,2.329.763,1.282.457,2.01.723,2.01.723l-1.957-.87c-.617-.293-1.389-.586-2.29-.91-.883-.342-1.895-.705-3.026-1.025a59.54,59.54,0,0,0-7.827-1.744,66.306,66.306,0,0,0-9.18-.572,65.47,65.47,0,0,0-9.153.967,58.6,58.6,0,0,0-7.747,2.076c-1.109.368-2.1.768-2.982,1.149-.883.364-1.642.692-2.245,1.012l-1.921.95s.719-.3,1.983-.812c.621-.275,1.4-.555,2.3-.861.883-.328,1.895-.674,3.013-.985a59.159,59.159,0,0,1,7.734-1.806,65.464,65.464,0,0,1,9.038-.839A66.381,66.381,0,0,1,261.93,393.144Z" transform="translate(-228.799 -391.839)" fill="#edfd27"/>
        </g>
      </g>
      <g id="Group_4547" data-name="Group 4547" transform="translate(236.278 519.968)">
        <g id="Group_4546" data-name="Group 4546">
          <path id="Path_10209" data-name="Path 10209" d="M230.075,396.6c1.078.35,2.041.728,2.893,1.078s1.6.643,2.2.927c1.207.546,1.895.861,1.895.861l-1.828-1c-.577-.328-1.3-.683-2.139-1.065-.834-.408-1.784-.843-2.849-1.256a62.539,62.539,0,0,0-7.405-2.409,70.384,70.384,0,0,0-8.816-1.486,69.376,69.376,0,0,0-8.936-.093,62.876,62.876,0,0,0-7.72,1.056c-1.118.217-2.13.475-3.017.728-.9.231-1.673.452-2.3.674l-1.979.657,2.019-.51c.639-.178,1.424-.346,2.325-.524.9-.2,1.917-.395,3.039-.55a59.918,59.918,0,0,1,7.667-.794,68.055,68.055,0,0,1,8.825.2,69.237,69.237,0,0,1,8.719,1.358A61.033,61.033,0,0,1,230.075,396.6Z" transform="translate(-190.072 -392.059)" fill="#edfd27"/>
        </g>
      </g>
      <g id="Group_4549" data-name="Group 4549" transform="translate(206.999 592.263)">
        <g id="Group_4548" data-name="Group 4548">
          <path id="Path_10210" data-name="Path 10210" d="M207.441,445.086a31.676,31.676,0,0,1-2.591-1.85,51.9,51.9,0,0,1-5.985-5.218,56.807,56.807,0,0,1-10.511-14.757,52.537,52.537,0,0,1-2.977-7.365c-.386-1.1-.67-2.13-.9-3.053-.248-.914-.457-1.717-.572-2.387-.275-1.34-.43-2.1-.43-2.1s.1.772.279,2.13a24.3,24.3,0,0,0,.426,2.431,31.672,31.672,0,0,0,.741,3.119,53.219,53.219,0,0,0,2.764,7.543,49.931,49.931,0,0,0,10.662,14.966,52.85,52.85,0,0,0,6.225,5.085,30.188,30.188,0,0,0,2.7,1.717,23.055,23.055,0,0,0,2.161,1.2c1.225.612,1.921.963,1.921.963l-1.846-1.1C208.914,446.076,208.222,445.623,207.441,445.086Z" transform="translate(-183.473 -408.353)" fill="#edfd27"/>
        </g>
      </g>
      <g id="Group_4551" data-name="Group 4551" transform="translate(457.33 582.014)">
        <g id="Group_4550" data-name="Group 4550">
          <path id="Path_10211" data-name="Path 10211" d="M263.054,410.884c-.111.994-.266,2.107-.519,3.319a55.461,55.461,0,0,1-2.076,8.124,62.306,62.306,0,0,1-3.763,8.829,63.445,63.445,0,0,1-5.125,8.12,54.984,54.984,0,0,1-5.5,6.331c-.847.892-1.682,1.655-2.436,2.312-.745.679-1.393,1.256-1.974,1.686-1.127.9-1.766,1.42-1.766,1.42s.674-.475,1.859-1.3a26.034,26.034,0,0,0,2.076-1.575,32.914,32.914,0,0,0,2.569-2.2,55.961,55.961,0,0,0,5.764-6.225,53.292,53.292,0,0,0,9-17.171,57.087,57.087,0,0,0,1.85-8.279c.186-1.225.288-2.36.346-3.363.075-1.007.129-1.881.111-2.6,0-1.446.009-2.267.009-2.267s-.062.816-.16,2.258C263.289,409.02,263.191,409.89,263.054,410.884Z" transform="translate(-239.893 -406.043)" fill="#edfd27"/>
        </g>
      </g>
      <g id="Group_4553" data-name="Group 4553" transform="translate(259.346 531.752)">
        <g id="Group_4552" data-name="Group 4552">
          <path id="Path_10212" data-name="Path 10212" d="M201.021,395.749c1.185.244,2.507.55,3.927.985a67.235,67.235,0,0,1,9.513,3.4,72.084,72.084,0,0,1,19.305,12.61,68.129,68.129,0,0,1,6.935,7.343c.967,1.131,1.784,2.219,2.476,3.2.723.967,1.336,1.819,1.788,2.56l1.478,2.294s-.492-.861-1.349-2.369a31.133,31.133,0,0,0-1.664-2.662c-.652-1.016-1.424-2.148-2.352-3.319a67.983,67.983,0,0,0-6.811-7.587,76.674,76.674,0,0,0-9.18-7.254,76.518,76.518,0,0,0-10.334-5.488,67.928,67.928,0,0,0-9.686-3.19,40.093,40.093,0,0,0-3.984-.816c-1.194-.222-2.232-.386-3.1-.457l-2.711-.28s.976.155,2.689.435C198.821,395.261,199.85,395.478,201.021,395.749Z" transform="translate(-195.271 -394.715)" fill="#edfd27"/>
        </g>
      </g>
      <g id="Group_4555" data-name="Group 4555" transform="translate(379.915 530.909)">
        <g id="Group_4554" data-name="Group 4554">
          <path id="Path_10213" data-name="Path 10213" d="M263.211,396.189a77.639,77.639,0,0,0-9.091,2.951,72.069,72.069,0,0,0-18.826,11.128,76.359,76.359,0,0,0-6.97,6.536c-.972,1.007-1.806,1.984-2.52,2.862-.732.87-1.358,1.633-1.832,2.3l-1.526,2.054s.6-.71,1.646-1.961c.506-.63,1.171-1.362,1.943-2.188.754-.843,1.628-1.77,2.636-2.733a74.941,74.941,0,0,1,7.086-6.292A82.16,82.16,0,0,1,254.4,399.827a76.493,76.493,0,0,1,8.932-3.172c1.331-.417,2.56-.732,3.66-.989,1.1-.275,2.059-.506,2.862-.643,1.593-.315,2.5-.5,2.5-.5s-.918.129-2.529.342c-.816.1-1.784.275-2.893.5C265.82,395.568,264.56,395.825,263.211,396.189Z" transform="translate(-222.445 -394.525)" fill="#edfd27"/>
        </g>
      </g>
      <g id="Group_4557" data-name="Group 4557" transform="translate(198.984 417.98)">
        <g id="Group_4556" data-name="Group 4556">
          <path id="Path_10214" data-name="Path 10214" d="M199.483,369.073l-2.019,4.41c-.666,1.4-1.389,3.124-2.2,5.12-.4.994-.839,2.05-1.3,3.168-.417,1.131-.856,2.325-1.313,3.563-1.855,4.965-3.629,10.888-5.342,17.291-1.6,6.429-2.959,13.369-3.98,20.366-.9,7.01-1.455,14.061-1.65,20.68-.071,6.624.04,12.805.492,18.085.107,1.322.209,2.587.306,3.785q.206,1.8.395,3.408c.24,2.134.47,3.993.732,5.515.484,3.053.759,4.792.759,4.792s-.217-1.748-.6-4.81c-.222-1.531-.4-3.39-.581-5.533-.1-1.065-.2-2.205-.315-3.4-.067-1.2-.138-2.467-.213-3.785-.377-5.271-.4-11.438-.231-18.032.226-6.6.821-13.617,1.753-20.592.98-6.966,2.3-13.888,3.856-20.3,1.611-6.4,3.3-12.335,5.076-17.308.426-1.247.839-2.445,1.229-3.581.426-1.127.834-2.192,1.216-3.2.75-2.01,1.424-3.758,2.045-5.169Z" transform="translate(-181.667 -369.073)" fill="#edfd27"/>
        </g>
      </g>
      <g id="Group_4559" data-name="Group 4559" transform="translate(203.329 443.559)">
        <g id="Group_4558" data-name="Group 4558">
          <path id="Path_10215" data-name="Path 10215" d="M188.535,384.1c-.914,2.818-1.81,6.158-2.684,9.761-.812,3.616-1.526,7.507-2.094,11.425-.492,3.922-.834,7.867-1.016,11.567-.111,3.7-.138,7.165,0,10.125.111,2.959.328,5.417.506,7.135s.3,2.7.3,2.7-.053-.989-.146-2.711-.182-4.184-.177-7.135c-.058-2.955.058-6.4.262-10.081s.595-7.6,1.123-11.492,1.2-7.769,1.97-11.376c.785-3.6,1.588-6.948,2.427-9.783.781-2.849,1.526-5.2,2.068-6.833l.856-2.569s-.364.914-1,2.516S189.431,381.28,188.535,384.1Z" transform="translate(-182.646 -374.838)" fill="#edfd27"/>
        </g>
      </g>
      <g id="Group_4561" data-name="Group 4561" transform="translate(449.858 409.111)">
        <g id="Group_4560" data-name="Group 4560">
          <path id="Path_10216" data-name="Path 10216" d="M241.2,370.167a78.208,78.208,0,0,1,7.059,8.856,96.612,96.612,0,0,1,7.915,13.888,120.928,120.928,0,0,1,6.474,17.144,176.933,176.933,0,0,1,4.295,17.845c1.114,5.759,1.939,11.177,2.6,15.827,1.264,9.309,2.1,15.52,2.1,15.52s-.151-1.562-.417-4.29-.657-6.624-1.211-11.292c-.581-4.668-1.318-10.107-2.347-15.9a175.822,175.822,0,0,0-4.206-17.956,121.784,121.784,0,0,0-6.62-17.215,97.365,97.365,0,0,0-8.191-13.848,74.235,74.235,0,0,0-7.339-8.683c-.945-1-1.757-1.713-2.281-2.219l-.821-.772s.275.28.79.8S240.294,369.142,241.2,370.167Z" transform="translate(-238.209 -367.074)" fill="#edfd27"/>
        </g>
      </g>
      <g id="Group_4563" data-name="Group 4563" transform="translate(457.268 424.871)">
        <g id="Group_4562" data-name="Group 4562">
          <path id="Path_10217" data-name="Path 10217" d="M257.707,415.869c-.426-2.689-1.087-5.795-1.863-9.109-.848-3.3-1.881-6.78-3.044-10.223-1.229-3.421-2.591-6.788-3.975-9.894-1.451-3.079-2.871-5.928-4.206-8.3s-2.52-4.3-3.376-5.631-1.362-2.09-1.362-2.09l1.229,2.165c.781,1.38,1.872,3.359,3.092,5.781,1.26,2.4,2.591,5.267,3.944,8.372s2.662,6.465,3.847,9.872,2.258,6.86,3.128,10.125,1.615,6.349,2.116,9.011c.555,2.653.936,4.885,1.18,6.451s.386,2.458.386,2.458-.084-.905-.235-2.48S258.155,418.554,257.707,415.869Z" transform="translate(-239.879 -370.626)" fill="#edfd27"/>
        </g>
      </g>
      <g id="Group_4565" data-name="Group 4565" transform="translate(324.058 620.309)">
        <g id="Group_4564" data-name="Group 4564">
          <path id="Path_10218" data-name="Path 10218" d="M216.565,439.117l-.413.945s.253-.28.692-.772a21.267,21.267,0,0,0,1.624-2.205,26.336,26.336,0,0,0,1.868-3.4,26.652,26.652,0,0,0,2.334-8.581c.067-.55.084-1.069.1-1.589,1.1-4.388,1.016-8-1.074-8.741-2.316-.816-4.787,3.407-6.647,8.656-.2.448-.382.905-.555,1.38-.594,1.6-1.2,3.31-1.784,5.036-.5,1.744-.976,3.5-1.393,5.151s-.661,3.226-.918,4.561-.333,2.484-.439,3.27c-.067.794-.107,1.251-.107,1.251l.426-1.18c.244-.754.652-1.819,1.047-3.11.235-.728.493-1.539.768-2.383-.053,2.831.648,4.157,2.44,2.25a30.938,30.938,0,0,0,4.348-6.3c-.453,1.189-.825,2.343-1.265,3.283C217.186,437.652,216.853,438.531,216.565,439.117Z" transform="translate(-209.856 -414.674)" fill="#edfd27"/>
        </g>
      </g>
      <g id="Group_4567" data-name="Group 4567" transform="translate(348.971 620.31)">
        <g id="Group_4566" data-name="Group 4566">
          <path id="Path_10219" data-name="Path 10219" d="M228.613,440.811l.453,1.371s-.049-.523-.133-1.438c-.129-.9-.244-2.218-.55-3.758s-.63-3.35-1.154-5.245-1.123-3.9-1.779-5.9c-.728-1.966-1.509-3.918-2.285-5.719a11.087,11.087,0,0,0-3.155-4.6,2.811,2.811,0,0,0-.985-.452,1.99,1.99,0,0,0-1.788-.3c-2.183.767-2.165,4.681-.91,9.326.036.271.049.528.1.8a41.732,41.732,0,0,0,1.1,4.419c.528,1.46,1.118,2.88,1.713,4.193s1.291,2.462,1.837,3.474,1.118,1.788,1.469,2.356c.382.555.6.874.6.874s-.111-.368-.3-1.016c-.226-.63-.488-1.557-.9-2.618l-.067-.186a25.348,25.348,0,0,0,2.52,3.257c2.316,2.467,2.809-.47,2.205-5.085.315.936.608,1.823.852,2.644C227.935,438.7,228.334,439.946,228.613,440.811Z" transform="translate(-215.471 -414.674)" fill="#edfd27"/>
        </g>
      </g>
      <g id="Group_4569" data-name="Group 4569" transform="translate(333.083 694.321)">
        <g id="Group_4568" data-name="Group 4568">
          <path id="Path_10220" data-name="Path 10220" d="M229.123,431.519c-.958.053-2.081-.009-3.27.04s-2.463.031-3.727-.013c-1.269.022-2.538.009-3.727-.04-1.189-.071-2.316-.027-3.27-.093-.963-.022-1.775-.044-2.338-.058h-.9s.3.12.839.328a22.241,22.241,0,0,0,2.267.674,30.337,30.337,0,0,0,3.292.617c1.211.129,2.516.222,3.825.275,1.309-.036,2.613-.107,3.834-.218a28.438,28.438,0,0,0,3.3-.564,22.5,22.5,0,0,0,2.276-.639c.537-.2.843-.311.843-.311s-.324-.009-.9-.018S230.086,431.51,229.123,431.519Z" transform="translate(-211.89 -431.355)" fill="#edfd27"/>
        </g>
      </g>
    </g>
  </g>
</svg>
