<svg xmlns="http://www.w3.org/2000/svg" width="640" height="450" viewBox="0 0 640 450">
  <g id="Group_4732" data-name="Group 4732" transform="translate(-20691 4299)">
    <rect id="Rectangle_2550" data-name="Rectangle 2550" width="640" height="450" transform="translate(20691 -4299)" fill="#423fbf"/>
    <g id="Group_4731" data-name="Group 4731" transform="matrix(0.951, -0.309, 0.309, 0.951, 20445.863, -4202.676)">
      <g id="Group_4710" data-name="Group 4710" transform="translate(375.348 212.436)">
        <g id="Group_4709" data-name="Group 4709">
          <path id="Path_10290" data-name="Path 10290" d="M763.229,271.38a14.79,14.79,0,0,0-11.593,5.614l-23.63-.83a226.19,226.19,0,0,0-2.5-28.848c-2.631-16.024-6.114-18.077-8.858-18.077s-6.218,2.052-8.858,18.077a222.845,222.845,0,0,0-2.47,28.048l-15.759-.556c-.7-20.568-3.566-61.609-15.389-61.609-7.9,0-11.793,18.307-13.724,36.592-10.267-11.449-35.84-24-98.58-24a271.19,271.19,0,0,0-46.311,4.509c-7.679-8.149-22.268-17.864-48.242-17.864-42.576,0-68.667,13.254-69.754,13.819a2.794,2.794,0,0,0,.161,5.04c.239.109,20.52,9.2,26.491,24.43-2.818,1.031-5.514,2.035-8.062,3l-.031.017c-16.307,6.2-26.652,10.832-26.8,10.9a2.778,2.778,0,0,0-1.648,2.548v.07c-6.066,2.135-9.936,3.64-10.532,3.875a2.788,2.788,0,0,0-1.783,2.6v14.894a2.794,2.794,0,0,0,1.783,2.6c.6.235,4.466,1.735,10.532,3.87v.074a2.783,2.783,0,0,0,1.648,2.548c.152.07,10.5,4.7,26.8,10.9l.031.022q3.992,1.507,8.427,3.135l.017,0c4.475,1.631,9.267,3.327,14.32,5.044v0l.448.148c1.039.352,2.092.709,3.153,1.061.322.109.652.222.987.331.992.326,2,.661,3.005.991.278.087.552.178.831.27h.008v0c7.058,2.3,14.872,4.679,23.16,7.01.335.818.709,1.8,1.087,2.787,1.531,30.492-11.71,67.61-19.99,87.531a14.288,14.288,0,0,0,10.232,19.46l33.823,7.166a20.046,20.046,0,0,0,4.2.444,19.8,19.8,0,0,0,13.167-5.031,19.392,19.392,0,0,0,6.558-16.311l-.035-.383a31.572,31.572,0,0,0-1.931-8.158,28.764,28.764,0,0,1,1.431-23.23c1.552-3.066,3.148-6.392,4.7-9.9l43.194,6.479a23.275,23.275,0,0,0,3.422.252,22.942,22.942,0,0,0,21.6-15.146,87.454,87.454,0,0,0,4.831-32.583c37.906-3.7,55.548-13.415,63.649-22.447,1.931,18.285,5.827,36.593,13.724,36.593,11.824,0,14.694-41.045,15.389-61.609l15.759-.557a222.766,222.766,0,0,0,2.47,28.043c2.64,16.024,6.123,18.081,8.858,18.081s6.227-2.057,8.858-18.081a226.042,226.042,0,0,0,2.5-28.844l23.63-.831a14.8,14.8,0,1,0,11.593-24Zm0,24.025a9.219,9.219,0,1,1,9.215-9.219A9.233,9.233,0,0,1,763.229,295.405Zm-46.585-4.388v-9.662l32.257,1.139a14.357,14.357,0,0,0,0,7.384Zm-42.476,1.5V279.855l31.009,1.091q-.039,2.6-.039,5.24t.039,5.236Zm-92.292,90.279c-.1.087-.2.174-.291.257-.3.243-.591.478-.909.7-.065.052-.126.1-.2.152a17.571,17.571,0,0,1-3.783,2.052c-.065.026-.135.044-.2.07-.378.144-.752.274-1.143.387-.113.035-.222.065-.331.1-.348.091-.687.183-1.039.252-.135.03-.278.061-.413.087-.335.061-.665.113-1,.157-.152.022-.3.039-.465.056-.326.03-.648.052-.97.07-.161.009-.331.017-.491.022-.1,0-.2.009-.309.009s-.187-.017-.27-.017a17.608,17.608,0,0,1-2.292-.174L526,380.714c.122-.3.248-.591.365-.887l41.55,6.227a15.715,15.715,0,0,0,2.426.183,16.435,16.435,0,0,0,15.485-10.815,79.533,79.533,0,0,0,4.44-23.473l.935-.091a80.687,80.687,0,0,1-4.492,23.873c-.17.461-.357.909-.552,1.348-.052.113-.117.226-.17.344-.161.313-.313.626-.483.931-.078.135-.161.265-.248.4q-.241.411-.509.809c-.1.135-.2.27-.287.4-.187.252-.374.5-.57.744-.1.126-.2.248-.313.37-.2.239-.417.478-.648.709-.1.1-.2.217-.313.322C582.375,382.344,582.127,382.57,581.875,382.792Zm-72.559,57.026a14.2,14.2,0,0,1-12.5,3.3L463,435.957a8.691,8.691,0,0,1-5.9-4.444,13.155,13.155,0,0,0,6.61,3.609l30.526,6.471a18.979,18.979,0,0,0,3.844.4,18.127,18.127,0,0,0,12.063-4.605,18.324,18.324,0,0,0,3.261-3.844A14.044,14.044,0,0,1,509.316,439.818Zm-128.38-159.15c1.452-.544,3.761-1.4,6.727-2.448v15.929c-2.966-1.048-5.275-1.9-6.727-2.444Zm82.782-64.8ZM420.4,222.129Zm.435,1.779,13.85,14.215v0l-12.006-14.68a182.08,182.08,0,0,1,41.937-5.375l9.1,9-7.11-9.027c.239,0,.465-.013.7-.013,21.268,0,34.1,6.914,41.506,13.515-.67.126-1.326.27-2,.4-3.5-2.64-8.4-5.544-8.4-5.544a402.6,402.6,0,0,0-39.958,8.927,328.857,328.857,0,0,0-31.614,10.558c1.37,1.609,3.153,5.679,3.9,7.488l-1.274.452c-4.74-12.324-16.959-20.807-24.13-24.882A139.5,139.5,0,0,1,420.837,223.907ZM659.113,305.35c-6.7,5.853-20.146,11.019-42.128,14.2-.7-8.127-1.335-18.246-1.47-29.252h43.076C658.643,293.77,658.787,299.127,659.113,305.35Zm-84.23,17.4-3.4-25.547h0l-.678,25.617c-2.914.048-5.871.078-8.936.078a376.63,376.63,0,0,1-52.8-4.227l-3.035-17.511-.574,16.981c-19.586-2.957-38.758-6.949-55.665-10.967-.3-4.862-.552-10.628-.631-16.872h17.25a18.264,18.264,0,0,0,35.6,0h13.2a10.38,10.38,0,0,0,19.059,0h67.28c.13,11.632.783,22.33,1.513,30.887C594.655,321.966,585.3,322.5,574.883,322.748Zm-132.49-5.64a290.932,290.932,0,0,1,0-61.848q1.285-.431,2.6-.87c-.552,6.14-1.453,18.177-1.453,31.8s.9,25.656,1.453,31.8Q443.678,317.545,442.393,317.108Zm65.5-75.446Zm-2.753.974.892,28.578,4.657-29.374-.052,0a373.62,373.62,0,0,1,51.23-4.018c2.974,0,5.862.03,8.688.07l.926,37.284L576.109,238c10.384.265,19.729.826,28.1,1.631-1.039,9.106-2.466,24.682-2.661,42.437h-67.28a10.38,10.38,0,0,0-19.059,0h-13.2a18.264,18.264,0,0,0-35.6,0h-17.25c.169-12.967,1.078-23.925,1.548-28.73C467.3,249.407,486.013,245.532,505.137,242.636Zm68.2-4.931Zm-48.607,53.273a4.792,4.792,0,1,1,4.792-4.8A4.8,4.8,0,0,1,524.731,290.978Zm-75.607-4.792c0-.757.009-1.5.017-2.253h16.937a16.756,16.756,0,0,0,0,4.505H449.142C449.133,287.691,449.124,286.943,449.124,286.186Zm22.39,0A12.693,12.693,0,1,1,484.2,298.875,12.7,12.7,0,0,1,471.515,286.182Zm30.822-2.248H514.6a10.181,10.181,0,0,0,0,4.505H502.337a16.742,16.742,0,0,0,0-4.505Zm32.527,0h66.662c-.009.748-.009,1.5-.009,2.248s0,1.509.009,2.257H534.855a9.884,9.884,0,0,0,.257-2.257A10.388,10.388,0,0,0,534.864,283.934ZM393.251,290.3h19.312c.087,2.4.239,4.87.418,7.232-9.284-2.657-16.155-4.8-19.729-5.936Zm0-6.366h19.264c-.017.765-.026,1.513-.026,2.248s.009,1.492.026,2.257H393.251Zm24.826,2.248a220.116,220.116,0,0,1,1.639-22.83c.839-.313,1.687-.635,2.566-.961-.561,5.675-1.413,15.65-1.413,23.795s.852,18.12,1.413,23.791c-.878-.322-1.726-.639-2.566-.961A220.026,220.026,0,0,1,418.076,286.182Zm9.071,15.263c-.265-3.535-.509-7.432-.622-11.145h8.662c.078,4.849.265,9.388.5,13.385Q431.257,302.55,427.147,301.445Zm-.661-13.006c-.017-.765-.026-1.518-.026-2.253s.009-1.487.026-2.253h8.684c0,.748-.013,1.491-.013,2.248s.009,1.509.013,2.257Zm.039-6.371c.257-8.51,1.191-18.007,1.591-21.812,2.7-.983,5.536-1.983,8.449-3-.491,5.127-1.218,14.25-1.378,24.808ZM390.455,283Zm0,6.366Zm216.655-3.187a417.142,417.142,0,0,1,3.309-51.4q1.442.235,2.861.483a385.415,385.415,0,0,0,0,101.846c-.948.165-1.9.335-2.861.487A417.256,417.256,0,0,1,607.109,286.182Zm8.388,2.257c0-.748-.009-1.5-.009-2.253s.009-1.5.009-2.253h43.072c-.017,1.191-.017,1.992-.017,2.253s0,1.061.017,2.253Zm.017-6.371a401.56,401.56,0,0,1,2.635-40.741c18.242,2.74,30.461,6.866,37.723,11.61a22.8,22.8,0,0,1,3.8,5.257c-.752,9.858-1.009,18.846-1.087,23.873Zm3.04-44.037c.078-.622.156-1.179.222-1.683a115.52,115.52,0,0,1,21.173,6.353,54.727,54.727,0,0,1,12.411,7.084C644.963,245.028,633.922,240.914,618.555,238.031Zm-13.663-4.048q-.117.848-.248,1.931a359.038,359.038,0,0,0-42.78-2.292c-36.34,0-77.955,9.458-111.108,19.155l.026-.278c30.348-9.767,73.646-21.121,111.082-21.121A323.842,323.842,0,0,1,604.891,233.983ZM412.562,282.068H393.251v-8.049c3.092-1.348,10.393-4.462,20.577-8.41C413.38,269.766,412.775,276.1,412.562,282.068Zm97.984,140.547.026.3a12.137,12.137,0,0,1-1.648,7.258c-.883.644-1.766,1.291-2.657,1.939-1.9-2.609-3.84-5.244-5.792-7.919,2.657-1.979,5.318-3.953,7.94-5.91.639.852,1.248,1.678,1.87,2.518C510.395,421.4,510.49,422.011,510.547,422.616ZM464,407.718c1.666-1.222,3.331-2.444,5.014-3.67,1.918,2.618,3.853,5.266,5.8,7.919-2.644,1.961-5.275,3.922-7.884,5.857q-2.25-3.026-4.475-6.023C462.961,410.483,463.479,409.118,464,407.718Zm16.937-66.388c1.292,1.787,2.614,3.622,3.992,5.536q-2.485,1.807-5.027,3.666c-.765.561-1.548,1.135-2.331,1.7a108.866,108.866,0,0,0,.383-11.667Q479.275,340.914,480.933,341.329Zm34.005,7.336c.826,1.117,1.674,2.279,2.5,3.422-2.548,1.844-5.266,3.8-8.1,5.84-.822-1.109-1.657-2.231-2.461-3.318-1.266-1.7-2.5-3.348-3.731-4.988,1.218-.918,2.4-1.818,3.579-2.7,2.57.474,5.231.935,7.94,1.37Zm-.143,34c-.339.248-.661.478-1.009.731q-3.033-4.083-6.031-8.114c2.735-2.052,5.349-4.027,7.9-5.953.978,1.326,1.961,2.674,2.939,4.014C517.413,376.556,516.122,379.683,514.8,382.666Zm-7.406,19.8c-1.818,1.326-3.627,2.653-5.47,4.005q-1.467-2-2.931-3.992c-.983-1.331-1.97-2.653-2.944-3.979q3.973-2.962,7.862-5.849c.987,1.339,1.961,2.683,2.948,4.027.418.557.831,1.118,1.248,1.674A31.048,31.048,0,0,0,507.39,402.469Zm-10.354-19.194q2.929,3.992,5.9,8.045-3.913,2.87-7.927,5.8c-1.978-2.661-3.948-5.318-5.9-7.945C491.779,387.18,494.431,385.214,497.036,383.275Zm-8.966,4.514q-2.994-4.038-5.905-7.949l8-5.953,5.9,8.049Q492.109,384.825,488.069,387.789ZM491.5,372.9c1.052-.787,2.122-1.583,3.157-2.352,1.648-1.222,3.244-2.422,4.831-3.614q2.948,4.018,5.966,8.14-2.4,1.735-4.853,3.531c-1.035.757-2.1,1.539-3.148,2.309Q494.433,376.854,491.5,372.9Zm9.314-6.958c2.761-2.066,5.392-4.057,7.966-6.005q3.007,4.109,6.1,8.327-3.888,2.8-8.036,5.792Q503.787,369.951,500.815,365.946Zm-.9-1.218c-.8-1.074-1.613-2.161-2.4-3.218-1.231-1.661-2.444-3.274-3.648-4.883,2.783-2.1,5.457-4.114,8.058-6.079q1.8,2.479,3.653,5.014c.8,1.091,1.622,2.213,2.427,3.322C505.4,360.763,502.693,362.711,499.915,364.729Zm-3.692-2.261c.77,1.061,1.57,2.152,2.361,3.227q-2.413,1.748-4.879,3.557c-1.052.765-2.131,1.552-3.192,2.331-.783-1.057-1.578-2.126-2.352-3.166-1.222-1.648-2.422-3.248-3.618-4.84,1.07-.791,2.157-1.6,3.209-2.387,1.665-1.231,3.27-2.435,4.883-3.64Q494.4,359.982,496.223,362.467Zm-9.362,6.9c.765,1.048,1.557,2.127,2.327,3.187q-3.972,2.909-8.058,5.9c-.774-1.044-1.566-2.1-2.326-3.131-1.218-1.639-2.4-3.227-3.588-4.805l8.1-6.023Q485.054,366.907,486.861,369.368Zm-.187,19.438q-3.959,2.9-7.993,5.849c-1.97-2.665-3.922-5.283-5.849-7.879q4.024-2.994,8-5.949Q483.725,384.766,486.674,388.806Zm-2.513,16.25q-1.977,1.454-3.957,2.9c-1.318.978-2.622,1.957-3.94,2.927-1.961-2.631-3.918-5.262-5.853-7.862,1.335-.978,2.657-1.953,3.992-2.922,1.326-.987,2.648-1.965,3.966-2.953C480.286,399.769,482.225,402.408,484.16,405.056Zm-4.392-8.945q3.992-2.968,7.936-5.905,2.9,3.966,5.84,7.979-3.933,2.89-7.923,5.8Q482.679,400.027,479.768,396.112Zm14.807,3.479c.974,1.331,1.944,2.661,2.922,4s1.961,2.644,2.944,3.966c-2.613,1.918-5.257,3.848-7.905,5.792q-1.454-1.983-2.9-3.966-1.467-1.963-2.922-3.935Q490.661,402.5,494.575,399.59Zm3.862-17.359c1.039-.77,2.1-1.561,3.126-2.322,1.631-1.213,3.218-2.4,4.8-3.588,1.97,2.692,3.966,5.409,5.962,8.14-1.587,1.152-3.2,2.313-4.818,3.509-1.018.748-2.079,1.518-3.118,2.279Q501.4,386.219,498.436,382.231Zm20.877-10.9c-.765-1.018-1.522-2.039-2.274-3.053q2.192-1.657,4.288-3.24C520.714,367.155,520.035,369.255,519.313,371.33Zm5.036-21.634a68.7,68.7,0,0,1-1.087,7.466c-1.292-1.748-2.6-3.5-3.879-5.223,1.126-.857,2.2-1.661,3.253-2.47C523.205,349.552,523.784,349.622,524.349,349.7Zm-1.561,9.688c-.287,1.292-.6,2.587-.952,3.879-1.8,1.292-3.635,2.618-5.553,4-2.091-2.809-4.144-5.579-6.184-8.314,2.779-2.1,5.462-4.127,7.967-6.01C519.618,355.053,521.2,357.219,522.788,359.384ZM502.393,348.6c-.752-1-1.483-1.965-2.213-2.94,1.613.322,3.261.648,4.957.965C504.228,347.278,503.328,347.93,502.393,348.6Zm-4.314-3.366q1.507,2.094,3.074,4.257-3.959,2.857-8.193,5.914c-2.1-2.792-4.122-5.466-6.092-8.071,1.587-1.2,3.135-2.357,4.662-3.5C493.588,344.291,495.779,344.76,498.079,345.234ZM491.727,356.3c-1.622,1.183-3.261,2.374-4.922,3.6-1.065.774-2.157,1.578-3.24,2.37-2.07-2.761-4.066-5.405-6.01-7.975,1.1-.822,2.213-1.648,3.3-2.457,1.692-1.257,3.331-2.487,4.97-3.714Q488.663,352.077,491.727,356.3Zm-14.537-.278q2.492,3.477,5.144,7.14c-2.309,1.692-4.662,3.418-7.031,5.149C476.094,364.22,476.72,360.11,477.19,356.019Zm-2.67,16.168c.987,1.348,1.974,2.709,2.983,4.088.757,1.031,1.535,2.1,2.3,3.148q-4,2.929-8.049,5.9c-.122-.152-.231-.3-.344-.457C472.55,380.731,473.6,376.487,474.52,372.186Zm-3.014,15.576q2.85,3.907,5.783,7.91c-1.326.978-2.657,1.948-3.992,2.927l-3.974,2.957c-.722-.974-1.426-1.926-2.139-2.879,1.078-3.227,2.139-6.584,3.157-10.049C470.723,388.341,471.115,388.05,471.506,387.763Zm-3.566,14.82c-.952.709-1.9,1.409-2.848,2.118.478-1.322.944-2.674,1.422-4.061C466.988,401.286,467.453,401.93,467.94,402.582Zm7.94,10.845c.965,1.322,1.926,2.644,2.9,3.961l2.931,3.944q-3.966,2.935-7.875,5.844-1.454-1.989-2.914-3.992-1.474-1.977-2.957-3.966C470.589,417.306,473.232,415.367,475.881,413.427Zm4.392,2.857c-.97-1.309-1.948-2.622-2.922-3.935,1.318-.961,2.631-1.926,3.957-2.892s2.622-1.952,3.931-2.926c.97,1.317,1.931,2.635,2.9,3.953s1.953,2.626,2.922,3.94q-1.976,1.442-3.948,2.9c-1.318.97-2.626,1.948-3.94,2.922C482.208,418.924,481.238,417.606,480.272,416.284Zm7.94,2.526c1.313-.974,2.622-1.948,3.94-2.922,1.952,2.635,3.909,5.262,5.844,7.867-1.326.974-2.661,1.944-3.992,2.918s-2.644,1.966-3.966,2.953q-2.87-3.933-5.792-7.91C485.569,420.75,486.887,419.78,488.213,418.811Zm5.392-4q3.959-2.948,7.875-5.857,2.968,3.985,5.9,7.936c-2.64,1.931-5.31,3.888-7.975,5.84Q496.529,418.791,493.605,414.806Zm9.332-6.94c1.444-1.07,2.857-2.118,4.275-3.179a30.36,30.36,0,0,0,1.657,11.115l-.087.057Q505.879,411.886,502.937,407.866Zm5.81-11.75c-.135-.178-.261-.361-.4-.539l-2.983-4.009c1.035-.765,2.083-1.548,3.1-2.3,1.622-1.2,3.192-2.379,4.766-3.557.031.052.074.1.109.152q-1.35,2.889-2.692,5.527A32.2,32.2,0,0,0,508.746,396.116Zm40.08-40.51a16.789,16.789,0,0,1-2.309,3.514c-1.548,2.044-3.014,3.97-3.44,5.962a22.322,22.322,0,0,0,.3,6.936L529.937,370c.57-1.757,1.113-3.531,1.609-5.314l9.2.1-8.632-2.183q1.05-4.025,1.77-8.053l11.819.452-11.463-2.57c.109-.744.2-1.483.3-2.222l15.381,1C549.54,352.883,549.174,354.418,548.826,355.605Zm-30.048-4.479c-.613-.826-1.231-1.657-1.844-2.479,1.452.222,2.922.435,4.4.644C520.5,349.887,519.652,350.5,518.779,351.126Zm-32.827-5.005c-1.122-1.487-2.226-2.944-3.3-4.366,2.066.5,4.435,1.07,7.044,1.661C488.465,344.308,487.217,345.2,485.952,346.121ZM459.43,419.337c.722-1.722,1.474-3.622,2.257-5.6,1.265,1.722,2.522,3.44,3.787,5.166l-6.444,4.788A7.481,7.481,0,0,1,459.43,419.337Zm.287,6.423c-.061-.122-.091-.261-.152-.391,2.292-1.67,4.588-3.357,6.932-5.07q1.461,2,2.918,4,1.481,1.989,2.957,3.97c-1.052.787-2.078,1.548-3.118,2.318l-4.388-.926A7.584,7.584,0,0,1,459.717,425.76Zm13.68,3.9q.809,1.076,1.6,2.144l-3.509-.744C472.128,430.586,472.754,430.13,473.4,429.656Zm4.231,2.7c-.926-1.261-1.835-2.513-2.761-3.779,2.618-1.918,5.266-3.853,7.919-5.8q2.942,3.966,5.857,7.884c-1.418,1.048-2.809,2.087-4.218,3.135Zm12.093-.243c.835,1.126,1.648,2.222,2.474,3.327l-5.444-1.152C487.743,433.565,488.73,432.848,489.722,432.117Zm5.666,4.005-.7-.148c-1.178-1.622-2.361-3.227-3.566-4.875,1.331-.978,2.666-1.953,3.992-2.927s2.648-1.97,3.974-2.953q2.968,3.985,5.849,7.871l-4.022,2.94-.043.035A12.647,12.647,0,0,1,495.388,436.122Zm80.786-64.153a6.209,6.209,0,0,1-6.744,3.953l-20.221-3.031c-.535-2.927-.874-5.7-.669-6.632a16.713,16.713,0,0,1,2.435-3.761,18.41,18.41,0,0,0,3.231-5.344c.77-2.687,1.648-6.823,2.392-10.667,1.761.044,3.527.1,5.266.1,6.458,0,12.5-.139,18.194-.391A70.552,70.552,0,0,1,576.174,371.969Zm-48.433,4.3c.109-.3.226-.591.339-.891l40.528,6.079h0a12.813,12.813,0,0,0,1.9.117c.278,0,.548-.043.822-.065.365-.03.731-.057,1.1-.122.287-.052.57-.126.857-.2.33-.083.656-.174.978-.287.278-.1.552-.209.813-.326.317-.139.622-.283.927-.448.248-.135.491-.283.739-.435a9.6,9.6,0,0,0,.857-.613c.213-.165.435-.331.639-.509a10.77,10.77,0,0,0,.8-.809c.174-.183.352-.361.5-.556a10.669,10.669,0,0,0,.739-1.057c.109-.174.235-.335.339-.517a11.793,11.793,0,0,0,.822-1.774,75.2,75.2,0,0,0,4.114-21.434l.939-.1a75.715,75.715,0,0,1-4.179,21.842,12.676,12.676,0,0,1-11.95,8.349,13.189,13.189,0,0,1-1.891-.139Zm34.122-35.275c-37.445,0-80.751-11.354-111.082-21.121l-.026-.265c33.144,9.688,74.785,19.146,111.108,19.146a359.16,359.16,0,0,0,42.78-2.292c.087.722.17,1.365.248,1.926A323.127,323.127,0,0,1,561.863,340.99Zm56.913-4.97c-.065-.5-.143-1.057-.222-1.674,15.315-2.879,26.339-6.971,33.735-11.71a54.678,54.678,0,0,1-12.341,7.031A115.18,115.18,0,0,1,618.776,336.02Zm62.1,13.872a18.7,18.7,0,0,1-1.792,3.657,7.721,7.721,0,0,1-1.461,1.7,3.8,3.8,0,0,1-2.5.974,4.145,4.145,0,0,1-2.478-1.039,9.6,9.6,0,0,1-1.47-1.7,21.048,21.048,0,0,1-1.87-3.64,76.811,76.811,0,0,1-3.983-15.12c-.9-5.092-1.552-10.21-2.087-15.337-1-10.258-1.452-20.547-1.54-30.839-.017-10.289.292-20.581,1.14-30.848.443-5.136,1.009-10.258,1.765-15.367a112.483,112.483,0,0,1,3.188-15.211,35.921,35.921,0,0,1,2.953-7.392,7.271,7.271,0,0,1,3.153-3.222,3.275,3.275,0,0,1,2.752.048,5.7,5.7,0,0,1,1.818,1.531,23.088,23.088,0,0,1,3.327,7.314,73.387,73.387,0,0,1,1.792,7.562,207.876,207.876,0,0,1,2.848,30.67c-1.013-10.193-2.148-20.4-4.453-30.335-.574-2.474-1.187-4.94-1.987-7.327a21.5,21.5,0,0,0-3.157-6.531,3.728,3.728,0,0,0-1.1-.913,1.055,1.055,0,0,0-.961.035,5.317,5.317,0,0,0-1.979,2.326,33.616,33.616,0,0,0-2.522,6.936c-2.422,9.775-3.518,19.977-4.257,30.126q-1.1,15.25-.948,30.579c.035,10.206.456,20.412,1.348,30.561.444,5.075,1.013,10.136,1.818,15.146a84.461,84.461,0,0,0,3.483,14.654,18.014,18.014,0,0,0,1.539,3.231c.583.987,1.409,1.735,1.944,1.748.526.083,1.409-.639,2.044-1.574a17.623,17.623,0,0,0,1.674-3.2,77.679,77.679,0,0,0,3.927-14.615,284.824,284.824,0,0,0,3.844-30.439,240.076,240.076,0,0,1-2.214,30.713A78.685,78.685,0,0,1,680.877,349.892Zm43.189-26.748a64.383,64.383,0,0,1-2.5,11.528,15.8,15.8,0,0,1-1.248,2.8,6.1,6.1,0,0,1-1.039,1.339,2.649,2.649,0,0,1-1.918.792,2.945,2.945,0,0,1-1.844-.9,7.67,7.67,0,0,1-1.018-1.335,16.9,16.9,0,0,1-1.3-2.8,61.439,61.439,0,0,1-2.77-11.519c-.617-3.875-1.07-7.762-1.435-11.654-.7-7.788-1.052-15.6-1.122-23.408,0-7.805.248-15.62.844-23.412.652-7.784,1.391-15.594,3.422-23.247a29.947,29.947,0,0,1,2.057-5.662,5.89,5.89,0,0,1,2.2-2.57,2.264,2.264,0,0,1,2.135-.022,4.092,4.092,0,0,1,1.33,1.222,18.5,18.5,0,0,1,2.335,5.614c.522,1.909.918,3.831,1.257,5.762a171.123,171.123,0,0,1,1.974,23.3,197.687,197.687,0,0,0-3.161-23.073c-.409-1.892-.839-3.77-1.4-5.6a17.51,17.51,0,0,0-2.244-5.062,2.706,2.706,0,0,0-.8-.731.626.626,0,0,0-.665.048,4.615,4.615,0,0,0-1.418,1.892,27.873,27.873,0,0,0-1.757,5.353,152.722,152.722,0,0,0-3.018,22.938c-.517,7.727-.687,15.485-.609,23.243.008,7.749.269,15.5.891,23.221.687,7.679,1.526,15.489,3.753,22.725a13.926,13.926,0,0,0,1.078,2.518c.4.757,1.035,1.439,1.391,1.431.326.1,1-.513,1.453-1.252a14.719,14.719,0,0,0,1.191-2.483,66.11,66.11,0,0,0,2.77-11.184c1.383-7.623,2.1-15.385,2.718-23.138A195.059,195.059,0,0,1,724.066,323.144Z" transform="translate(-375.348 -212.436)" fill="#edfd27"/>
        </g>
      </g>
      <g id="Group_4712" data-name="Group 4712" transform="translate(756.084 279.524)">
        <g id="Group_4711" data-name="Group 4711">
          <path id="Path_10291" data-name="Path 10291" d="M472.8,227.864a6.169,6.169,0,0,1-9.9,7.353,7.194,7.194,0,1,0,9.9-7.353Z" transform="translate(-462.904 -227.864)" fill="#edfd27"/>
        </g>
      </g>
      <g id="Group_4722" data-name="Group 4722" transform="translate(473.876 277.833)">
        <g id="Group_4721" data-name="Group 4721">
          <path id="Path_10296" data-name="Path 10296" d="M404.972,241.738a10.829,10.829,0,0,1-6.966-2.527A10.873,10.873,0,1,0,415.3,227.475a10.869,10.869,0,0,1-10.328,14.263Z" transform="translate(-398.006 -227.475)" fill="#edfd27"/>
        </g>
      </g>
      <g id="Group_4730" data-name="Group 4730" transform="translate(521.318 283.19)">
        <g id="Group_4729" data-name="Group 4729">
          <path id="Path_10300" data-name="Path 10300" d="M415.83,231.7a3.47,3.47,0,0,0-1.726-2.992,3.128,3.128,0,0,1,.1.761,3.479,3.479,0,0,1-5.283,2.992,3.5,3.5,0,0,0,6.914-.761Z" transform="translate(-408.916 -228.707)" fill="#edfd27"/>
        </g>
      </g>
    </g>
  </g>
</svg>
