<svg xmlns="http://www.w3.org/2000/svg" width="640" height="450" viewBox="0 0 640 450">
  <g id="Group_4733" data-name="Group 4733" transform="translate(-20691 4299)">
    <rect id="Rectangle_2550" data-name="Rectangle 2550" width="640" height="450" transform="translate(20691 -4299)" fill="#423fbf"/>
    <g id="Group_4740" data-name="Group 4740" transform="translate(20821.74 -4405.957) rotate(45)">
      <g id="Group_4246" data-name="Group 4246" transform="translate(219.465 234.08)">
        <path id="Path_10049" data-name="Path 10049" d="M141.769,128.139A101.558,101.558,0,0,0,195.727,150.4a98.744,98.744,0,0,0,34.983-2.56,99.364,99.364,0,0,1-23.616,2.86,100.029,100.029,0,0,1-77.1-36.478q-1.021.194-2.036.381A101.351,101.351,0,0,0,141.769,128.139Z" transform="translate(-127.957 -114.225)" fill="#edfd27"/>
      </g>
      <g id="Group_4247" data-name="Group 4247" transform="translate(248.032 209.197)">
        <path id="Path_10050" data-name="Path 10050" d="M262.447,107.1c-31.5,18.248-80.458,40.6-126.31,42.95,12.307,4.966,26.445,6.346,40.4,6.342a99.276,99.276,0,0,0,27.436-3.877C230.449,144.916,250.793,128.522,262.447,107.1Z" transform="translate(-136.137 -107.1)" fill="#edfd27"/>
      </g>
      <g id="Group_4248" data-name="Group 4248" transform="translate(196.65 69.214)">
        <path id="Path_10051" data-name="Path 10051" d="M130.535,210.595q1.158-.089,2.34-.192c-.451-.985-.88-1.977-1.3-2.979-.115-.265-.224-.531-.335-.8-.119-.293-.248-.58-.367-.873l.052.087a98.906,98.906,0,0,1,46.5-125.58,100.767,100.767,0,0,1,141.481,61.557,99.752,99.752,0,0,1,2.982,14.064l.024-.014c-.429-3.381-1.02-6.74-1.739-10.076a110.775,110.775,0,0,0-4.3-14.029,101.438,101.438,0,0,0-62.056-59.318A101.206,101.206,0,0,0,130.535,210.595Z" transform="translate(-121.424 -67.018)" fill="#edfd27"/>
      </g>
      <g id="Group_4249" data-name="Group 4249" transform="translate(201.941 128.868)">
        <path id="Path_10052" data-name="Path 10052" d="M123.259,134.2a104.026,104.026,0,0,0,2.2,14.018c.416,1.711.884,3.409,1.38,5.1q3.484.084,6.964.084c1.128-12.272,6.538-18.929,10.3-16.449a11.645,11.645,0,0,1,2.766,2.661,27.8,27.8,0,0,1,2.162,3.178c.925,1.558,1.753,3.171,2.56,4.8l-.045-.066A15.163,15.163,0,0,0,149.389,145a7.923,7.923,0,0,0-3.1-1.813,6.234,6.234,0,0,0-3.726.133,8.849,8.849,0,0,0-1.648.747A6.231,6.231,0,0,0,139.5,145.3a14.615,14.615,0,0,0-2.7,6.038,32.19,32.19,0,0,0-.8,6.262,45.853,45.853,0,0,0,.639,9.468c.475-.052.953-.108,1.435-.164a50.77,50.77,0,0,1-.115-9.185,36.065,36.065,0,0,1,.964-5.85,12.643,12.643,0,0,1,2.354-5,4.16,4.16,0,0,1,2.036-1.264,3.836,3.836,0,0,1,2.305-.073c1.495.447,2.825,1.872,3.943,3.412,3.094,4.554,5.218,9.971,7.781,15.192a622.421,622.421,0,0,0,68.367-15.876c32.287-9.3,59.682-19.526,80.646-29.221a104.383,104.383,0,0,0-.943-12.81c-5.563,4.03-11.267,7.875-17.12,11.48A268.977,268.977,0,0,1,257.5,134.051a270.4,270.4,0,0,1-32.7,12.168l-8.406,2.382-8.5,2.008c-2.822.726-5.7,1.184-8.563,1.739-2.867.513-5.724,1.139-8.619,1.47l-8.668,1.2c-2.9.307-5.811.527-8.717.793l-4.366.381-4.38.161c-2.35.08-4.7.182-7.051.255-.691-1.334-1.407-2.661-2.109-3.992a321.707,321.707,0,0,0,68.7-12.9c2.927-.828,5.79-1.865,8.686-2.787l4.327-1.425c1.432-.5,2.853-1.044,4.275-1.568,2.846-1.062,5.7-2.085,8.525-3.182l8.4-3.468c2.815-1.114,5.553-2.4,8.3-3.663s5.514-2.48,8.221-3.817l8.078-4.083c1.338-.691,2.7-1.334,4.02-2.068l3.953-2.19q7.13-3.918,14.06-8.144a114.275,114.275,0,0,0-2.986-13.3c-.587-2.033-1.254-3.992-1.952-5.916q-9.047,4.893-18.321,9.269L277.843,95.2c-1.282.611-2.609,1.132-3.912,1.7l-7.837,3.356c-2.619,1.1-5.294,2.057-7.935,3.091s-5.281,2.064-7.98,2.934l-8.036,2.741c-2.7.852-5.417,1.631-8.116,2.452-1.355.4-2.7.824-4.062,1.208l-4.1,1.062c-2.738.681-5.441,1.481-8.2,2.071a293.666,293.666,0,0,1-66.583,7.854,260.89,260.89,0,0,1-28.047-1.568A93.8,93.8,0,0,0,123.259,134.2Z" transform="translate(-122.939 -84.099)" fill="#edfd27"/>
      </g>
      <g id="Group_4250" data-name="Group 4250" transform="translate(323.206 267.233)">
        <path id="Path_10053" data-name="Path 10053" d="M157.662,123.935c.272-.07.545-.143.817-.217C158.207,123.788,157.934,123.868,157.662,123.935Z" transform="translate(-157.662 -123.718)" fill="#edfd27"/>
      </g>
      <g id="Group_4251" data-name="Group 4251" transform="translate(227.277 189.042)">
        <path id="Path_10054" data-name="Path 10054" d="M147.279,141.677q-8.7,1.907-17.085,3.566c1.585,3.957,3.363,7.432,5.5,9.751a18.434,18.434,0,0,0,3.7,3.1c-.189-.084-.367-.171-.552-.258.6.433,1.2.87,1.823,1.278,1.463.957,2.976,1.826,4.519,2.644a12.534,12.534,0,0,0,3.244-.112,8.229,8.229,0,0,0,3.981-1.813c.552-.475,1.016-1,1.526-1.5a17.184,17.184,0,0,0,1.107-1.722,334.161,334.161,0,0,0,61.994-15.227,366.123,366.123,0,0,0,65.126-30.555,90.807,90.807,0,0,0,3.066-9.5c-22.442,8.319-46.725,16.289-71.964,23.56-21.6,6.227-42.513,11.56-62.29,15.971.276.485.552.971.814,1.46a35.525,35.525,0,0,1,1.9,6.3,11.236,11.236,0,0,1-.538,6.9,13.181,13.181,0,0,1-.9,1.425l-.028.031C152.985,153.684,150.638,148.19,147.279,141.677Z" transform="translate(-130.194 -101.329)" fill="#edfd27"/>
      </g>
      <g id="Group_4252" data-name="Group 4252" transform="translate(220.264 195.55)">
        <path id="Path_10055" data-name="Path 10055" d="M133.376,103.892c-3.119-2.811-6.524,2.982-4.659,14.965q6.218-.8,12.981-1.893C138.559,110.863,135.842,105.876,133.376,103.892Z" transform="translate(-128.186 -103.193)" fill="#edfd27"/>
      </g>
      <g id="Group_4253" data-name="Group 4253" transform="translate(206.421 200.047)">
        <path id="Path_10056" data-name="Path 10056" d="M127.627,113.672c1.055.119,2.1.251,3.157.36a58.135,58.135,0,0,1-.335-9c-2.078-.157-4.152-.349-6.227-.555q1.027,3.285,2.27,6.5C126.859,111.88,127.239,112.774,127.627,113.672Z" transform="translate(-124.222 -104.48)" fill="#edfd27"/>
      </g>
      <g id="Group_4254" data-name="Group 4254" transform="translate(219.828 100.81)">
        <path id="Path_10057" data-name="Path 10057" d="M139.582,90.293c.726-4.03,3.206-9.028,7.736-14.228l-2.364.388-5.5.559a96.859,96.859,0,0,0-11.389,13.362c1.334.014,2.672.01,4.006.038l3.849.035C137.145,90.45,138.36,90.349,139.582,90.293Z" transform="translate(-128.061 -76.065)" fill="#edfd27"/>
      </g>
      <g id="Group_4255" data-name="Group 4255" transform="translate(202.076 74.297)">
        <path id="Path_10058" data-name="Path 10058" d="M179.918,120.764l-3.056,1.037c-1.02.356-2.04.7-3.084.978l-6.224,1.781c-1.034.318-2.081.576-3.14.81l-3.161.733c-2.113.465-4.208,1.062-6.353,1.393a215.445,215.445,0,0,1-25.687,3.367,96.8,96.8,0,0,0-6.237,29.444,279.64,279.64,0,0,0,36.785.891l3.643-.136,3.632-.29,7.275-.594,7.254-.9,3.629-.454,3.608-.611a230.969,230.969,0,0,0,28.61-6.475A220.738,220.738,0,0,0,245.1,141.662a225.459,225.459,0,0,0,26.266-13.624,219.893,219.893,0,0,0,23.465-16.411,85.582,85.582,0,0,0-12.286-17.294c-.192.182-.381.367-.576.548a200.26,200.26,0,0,1-21.2,16.624,206.972,206.972,0,0,1-23.375,13.732,203.212,203.212,0,0,1-25.068,10.652,214.276,214.276,0,0,1-26.34,7.442l-3.353.751-3.381.6-6.772,1.212-6.828.915-3.416.461-3.436.307c-2.424.23-4.851.423-7.285.59q3.243-.267,6.478-.618c2.385-.185,4.739-.636,7.114-.957l3.559-.534c1.187-.164,2.371-.356,3.545-.608l7.069-1.414c1.184-.217,2.35-.506,3.517-.807l3.5-.877c4.7-1.083,9.286-2.612,13.917-4,4.554-1.613,9.15-3.157,13.613-5.06A210.606,210.606,0,0,0,264.2,104.049c5.242-4.1,10.282-8.466,15.147-13.051a102.9,102.9,0,0,0-11.9-10.086,97.932,97.932,0,0,0-14.476-6.636q-3.028,3.122-6.2,6.119a16.644,16.644,0,0,0-1.345-1.331c-.042-.035-.084-.066-.126-.1,1.732-1.826,3.436-3.684,5.088-5.588a95.934,95.934,0,0,0-20.34-4.39,99.842,99.842,0,0,0-27.579,1.048q-2.017,1.079-4.076,2.078a66.962,66.962,0,0,0-15.827,6.108c-3.2.919-6.458,1.687-9.747,2.333a95.077,95.077,0,0,0-15.6,10.743c.269,0,.538,0,.807.01l2.693.024c.9,0,1.785-.08,2.682-.115l.217-.014a77.971,77.971,0,0,1,17.944-12.436h0a73.88,73.88,0,0,1,20.961-5.888,70.878,70.878,0,0,1,21.538.468,61.207,61.207,0,0,1,7.149,1.764,33.426,33.426,0,0,0-5.218-.416c-9.115,0-20.94,5.092-31.959,9.789-24.251,10.337-28.645,22.753-20.9,23.368,7.914,1.006,24.719-4.607,42.88-8.406,14.644-3.332,27.573-6.23,30.712-10.9a8.024,8.024,0,0,1-.091,1.194c-.423,2.948-3.01,5.308-5.955,7.023a48.743,48.743,0,0,1-9.283,4.023q-2.986.623-6.007,1.135c-5.539.918-11.109,1.739-16.683,2.71-2.783.5-5.567,1.023-8.347,1.641-1.39.318-2.784.632-4.166,1.023s-2.755.835-4.072,1.194c-2.7.779-5.4,1.537-8.1,2.232a73.458,73.458,0,0,1-8.043,1.746,21.589,21.589,0,0,1-7.687-.007,7.082,7.082,0,0,1-5.113-4.09c-.8-1.659-.185-4.271.985-6.541a31.879,31.879,0,0,1,4.617-6.527,51.025,51.025,0,0,1,5.93-5.682,59.728,59.728,0,0,1,6.712-4.851,50.425,50.425,0,0,1,15.325-6.552,42.965,42.965,0,0,0-16.278,4.861,54.9,54.9,0,0,0-13.928,10.135,32.612,32.612,0,0,0-5.371,7.044,16.35,16.35,0,0,0-1.7,4.39,8.378,8.378,0,0,0,.433,5.235,14.681,14.681,0,0,0,1.261,2.137,10.166,10.166,0,0,0,1.76,1.854,11.117,11.117,0,0,0,4.495,2.186,18.749,18.749,0,0,0,5.686.423c-1.9.471-3.8.9-5.724,1.257-.9.164-1.792.328-2.7.426a26.066,26.066,0,0,1-2.71.262,20.214,20.214,0,0,1-5.445-.262h0a5.274,5.274,0,0,1-4.037-3.548l-.465.056c-1.823.182-3.643.458-5.476.573-3.286.227-6.59.318-9.9.3q-.864,1.451-1.68,2.934c-1.072,1.924-2.068,3.887-3,5.878a150.645,150.645,0,0,0,15.08.43c1.97-.035,3.936-.234,5.909-.342l2.962-.2c.985-.073,1.963-.234,2.944-.353l5.892-.775,5.846-1.125a134.142,134.142,0,0,0,22.795-6.946c2.693-1.107,5.343-2.326,7.963-3.6.527-.119,1.051-.234,1.575-.346-3.583,1.854-7.289,3.447-10.977,5.113C187.978,117.757,184.025,119.472,179.918,120.764Z" transform="translate(-122.978 -68.473)" fill="#edfd27"/>
      </g>
      <g id="Group_4256" data-name="Group 4256" transform="translate(93.577 100.187)">
        <path id="Path_10059" data-name="Path 10059" d="M501.095,87.64c-3.021-10.484-28.725-14-68.992-10.365,34.177-2.2,54.4,1.868,57.212,11.626,3.014,10.46-14.382,26.032-48.981,43.847-34.351,17.685-81.628,35.6-133.123,50.441S206.155,208.023,167.661,211.33c-38.776,3.332-61.791-.59-64.8-11.053-2.811-9.758,12.143-23.965,42.248-40.288C109.083,178.341,89.191,195,92.212,205.48c6.171,21.4,105,12.506,215.82-19.432,54.841-15.8,105.17-34.879,141.721-53.7C485.292,114.035,504.007,97.743,501.095,87.64Z" transform="translate(-91.911 -75.887)" fill="#edfd27"/>
      </g>
      <g id="Group_4257" data-name="Group 4257" transform="translate(119.922 106.175)">
        <path id="Path_10060" data-name="Path 10060" d="M454.351,88.368c-2.623-9.1-24.038-12.667-58.756-9.8-9.87.817-20.542,2.123-31.809,3.866.238.339.468.688.7,1.03,7.261-.974,14.235-1.746,20.8-2.263,32.933-2.6,52.533,1.037,55.187,10.25s-12,22.722-41.266,38.046c-29.029,15.2-69.027,30.489-112.633,43.058s-85.609,20.905-118.27,23.49c-32.933,2.6-52.533-1.041-55.187-10.254s12-22.722,41.27-38.046c5.832-3.056,12.15-6.112,18.814-9.154.014-.416.028-.831.045-1.247-10.467,4.523-20.2,9.094-28.987,13.659-30.922,16.044-47.151,30.464-44.532,39.562s24.038,12.67,58.756,9.8c35.5-2.941,81.2-12.094,128.677-25.777s91.04-30.251,122.66-46.658C440.744,111.889,456.973,97.469,454.351,88.368Z" transform="translate(-99.454 -77.601)" fill="#edfd27"/>
      </g>
      <g id="Group_4258" data-name="Group 4258" transform="translate(134.461 110.148)">
        <path id="Path_10061" data-name="Path 10061" d="M144.558,145.958c-28.3,14.818-43.124,28.187-40.679,36.677s22.114,11.916,53.961,9.4c32.584-2.574,74.5-10.9,118.033-23.444s83.454-27.807,112.41-42.971c28.3-14.815,43.128-28.184,40.683-36.67S406.851,77.032,375,79.546c-6.374.5-13.131,1.247-20.165,2.179.258.391.52.779.772,1.173,33.932-3.548,56.633-.716,59.469,9.133,5.109,17.72-56.3,50.448-139.794,74.514s-152.9,29.032-158.01,11.312c-2.839-9.845,14.874-24.328,45.489-39.38,0-.471.021-.936.028-1.4C156.341,140.024,150.222,142.992,144.558,145.958Z" transform="translate(-103.617 -78.739)" fill="#edfd27"/>
      </g>
      <g id="Group_4259" data-name="Group 4259" transform="translate(148.999 114.113)">
        <path id="Path_10062" data-name="Path 10062" d="M120.014,172.471c-2.749-9.545,16-21.779,32.514-30.482-.087-1.638-.122-3.276-.133-4.91-2.584,1.282-5.116,2.56-7.537,3.838-25.68,13.592-39.1,25.907-36.831,33.785s20.19,11.162,49.166,9C186.858,181.5,225,174,264.585,162.587s75.865-25.355,102.16-39.276c25.68-13.592,39.1-25.907,36.834-33.785s-20.19-11.162-49.166-9c-2.727.206-5.553.468-8.42.765.859,1.387,1.7,2.79,2.5,4.222,18.618-1.421,41-1.041,43.746,8.5,5.015,17.4-61.194,47.741-128.1,67.023S125.032,189.867,120.014,172.471Z" transform="translate(-107.78 -79.874)" fill="#edfd27"/>
      </g>
      <g id="Group_4260" data-name="Group 4260" transform="translate(105.386 102.199)">
        <path id="Path_10063" data-name="Path 10063" d="M431.358,130.246c33.544-17.27,51.174-32.741,48.377-42.45S453.775,74.371,416.187,77.6c-13.271,1.138-27.869,3.087-43.4,5.745.2.279.4.562.6.845,11.514-1.8,22.414-3.133,32.486-3.967,35.853-2.965,57.157.817,59.992,10.652s-13.187,24.38-45.122,40.948c-31.69,16.442-75.328,33.045-122.88,46.749s-93.331,22.872-128.908,25.816c-35.853,2.965-57.16-.817-60-10.655s13.191-24.377,45.122-40.945c8.972-4.655,18.911-9.321,29.616-13.931.021-.346.035-.692.059-1.034-14.563,6.014-27.96,12.136-39.8,18.234-33.544,17.266-51.174,32.741-48.377,42.45s25.959,13.425,63.548,10.194c38.42-3.3,87.9-13.282,139.322-28.1S397.073,147.9,431.358,130.246Z" transform="translate(-95.292 -76.463)" fill="#edfd27"/>
      </g>
      <g id="Group_4261" data-name="Group 4261" transform="translate(91.242 66.137)">
        <path id="Path_10064" data-name="Path 10064" d="M381.529,106.524c-.321-.4-.629-.81-.957-1.208a110.085,110.085,0,0,0-10.648-11.193,108.64,108.64,0,0,0-12.164-9.478c-.4-.258-.81-.506-1.215-.761a104.73,104.73,0,0,0-162.435,76.6c-53.28,21.356-107.985,50.86-102.484,69.949,2.619,9.091,18.705,13.47,44.2,13.467,21,0,48.394-2.979,79.882-8.738a108.568,108.568,0,0,0,70.962,40.082c1.278.15,2.553.391,3.842.468l3.866.206,3.87.206c1.292.028,2.584.01,3.877-.014a103.064,103.064,0,0,0,15.422-1.572q3.819-.681,7.582-1.638c2.515-.618,4.97-1.439,7.449-2.19a112.513,112.513,0,0,0,14.333-5.993,104.949,104.949,0,0,0,56.73-83.908c18.024-7.254,34.5-14.682,48.852-22.075,17.888-9.216,31.536-17.885,40.568-25.767,9.653-8.424,13.673-15.712,11.954-21.674C499.531,92.261,437.865,96.315,381.529,106.524Zm69.89,50.123c-36.551,18.824-86.88,37.9-141.721,53.7-110.817,31.938-209.649,40.837-215.82,19.432-3.021-10.484,16.872-27.139,52.892-45.492-30.1,16.323-45.059,30.531-42.248,40.288,3.014,10.463,26.029,14.385,64.805,11.053,38.493-3.307,88.05-13.3,139.549-28.142S407.649,174.734,442,157.048C476.6,139.233,494,123.661,490.981,113.2c-2.815-9.758-23.036-13.826-57.212-11.626,40.267-3.632,65.971-.119,68.992,10.365C505.674,122.044,486.958,138.336,451.419,156.646ZM249.332,244.662a13.183,13.183,0,0,0,.9-1.425,11.236,11.236,0,0,0,.538-6.9,35.533,35.533,0,0,0-1.9-6.3c-.262-.489-.538-.974-.814-1.46,19.778-4.411,40.686-9.744,62.29-15.971,25.24-7.271,49.522-15.241,71.964-23.56a90.815,90.815,0,0,1-3.066,9.5A366.122,366.122,0,0,1,314.119,229.1a334.164,334.164,0,0,1-61.994,15.227,17.2,17.2,0,0,1-1.107,1.722c-.51.5-.974,1.023-1.526,1.5a8.23,8.23,0,0,1-3.981,1.813,12.537,12.537,0,0,1-3.244.112c-1.544-.817-3.056-1.687-4.519-2.644-.618-.409-1.219-.845-1.823-1.278.185.087.363.175.552.258a18.43,18.43,0,0,1-3.7-3.1c-2.134-2.319-3.912-5.794-5.5-9.751q8.376-1.661,17.085-3.566c3.36,6.513,5.707,12.007,4.942,15.3Zm39.1,13.826c-13.959,0-28.1-1.376-40.4-6.342,45.852-2.347,94.808-24.7,126.31-42.95-11.654,21.422-32,37.816-58.47,45.415A99.277,99.277,0,0,1,288.436,258.488Zm10.166,12.07a99.365,99.365,0,0,0,23.616-2.86,98.744,98.744,0,0,1-34.983,2.56,102.332,102.332,0,0,1-67.77-35.8q1.016-.189,2.036-.381A100.028,100.028,0,0,0,298.6,270.558Zm25.421-3.325c-.272.073-.545.147-.817.217C323.479,267.383,323.751,267.3,324.024,267.233ZM280.47,117.27c-2.619,1.271-5.27,2.49-7.963,3.6a134.143,134.143,0,0,1-22.795,6.946l-5.846,1.125-5.892.775c-.981.119-1.959.279-2.944.353l-2.962.2c-1.973.108-3.939.307-5.909.342a150.636,150.636,0,0,1-15.08-.43c.936-1.991,1.931-3.953,3-5.878q.812-1.483,1.68-2.934c3.307.014,6.611-.077,9.9-.3,1.834-.115,3.653-.391,5.476-.573l.465-.056a5.274,5.274,0,0,0,4.037,3.548h0a20.214,20.214,0,0,0,5.445.262,26.07,26.07,0,0,0,2.71-.262c.9-.1,1.8-.262,2.7-.426,1.921-.356,3.828-.786,5.724-1.257a18.748,18.748,0,0,1-5.686-.423,11.116,11.116,0,0,1-4.495-2.186,10.166,10.166,0,0,1-1.76-1.854,14.686,14.686,0,0,1-1.261-2.137,8.378,8.378,0,0,1-.433-5.235,16.35,16.35,0,0,1,1.7-4.39,32.612,32.612,0,0,1,5.371-7.044A54.906,54.906,0,0,1,259.575,88.9a42.966,42.966,0,0,1,16.278-4.861,50.424,50.424,0,0,0-15.325,6.552,59.722,59.722,0,0,0-6.712,4.851,51.03,51.03,0,0,0-5.93,5.682,31.88,31.88,0,0,0-4.617,6.527c-1.17,2.27-1.785,4.882-.985,6.541a7.082,7.082,0,0,0,5.113,4.09,21.589,21.589,0,0,0,7.687.007,73.459,73.459,0,0,0,8.043-1.746c2.693-.695,5.392-1.453,8.1-2.232,1.317-.36,2.675-.817,4.072-1.194s2.776-.705,4.166-1.023c2.78-.618,5.563-1.145,8.347-1.641,5.574-.971,11.144-1.792,16.683-2.71q3.017-.508,6.007-1.135a48.741,48.741,0,0,0,9.283-4.023c2.944-1.715,5.532-4.076,5.955-7.023a8.032,8.032,0,0,0,.091-1.194c-3.14,4.669-16.069,7.568-30.712,10.9-18.16,3.8-34.966,9.412-42.88,8.406-7.75-.615-3.356-13.03,20.9-23.368,11.019-4.7,22.844-9.793,31.959-9.789a33.427,33.427,0,0,1,5.218.416,61.208,61.208,0,0,0-7.149-1.764,70.879,70.879,0,0,0-21.538-.468,73.879,73.879,0,0,0-20.961,5.888h0a77.972,77.972,0,0,0-17.944,12.436l-.216.014c-.9.035-1.785.119-2.682.115l-2.693-.024c-.269-.007-.538-.007-.807-.01a95.077,95.077,0,0,1,15.6-10.743c3.29-.646,6.548-1.414,9.747-2.333a66.963,66.963,0,0,1,15.828-6.108q2.059-1,4.076-2.078a99.841,99.841,0,0,1,27.579-1.048,95.935,95.935,0,0,1,20.34,4.39c-1.652,1.9-3.356,3.761-5.088,5.588.042.038.084.07.126.1a16.654,16.654,0,0,1,1.345,1.331q3.175-2.991,6.2-6.119a97.933,97.933,0,0,1,14.476,6.636,102.9,102.9,0,0,1,11.9,10.086c-4.865,4.586-9.9,8.955-15.147,13.051a210.607,210.607,0,0,1-50.367,29.249c-4.463,1.9-9.059,3.447-13.613,5.061-4.631,1.386-9.213,2.916-13.917,4l-3.5.877c-1.166.3-2.333.59-3.517.807l-7.069,1.414c-1.173.251-2.357.444-3.545.608l-3.559.534c-2.375.321-4.729.772-7.114.957q-3.237.356-6.478.618c2.434-.168,4.861-.36,7.285-.59l3.436-.307,3.416-.461,6.828-.915,6.772-1.212,3.381-.6,3.353-.751a214.288,214.288,0,0,0,26.34-7.442,203.207,203.207,0,0,0,25.068-10.652,206.968,206.968,0,0,0,23.375-13.732,200.259,200.259,0,0,0,21.2-16.624c.2-.182.384-.367.576-.548a85.582,85.582,0,0,1,12.286,17.294,219.886,219.886,0,0,1-23.465,16.411A225.458,225.458,0,0,1,324.2,147.486a220.74,220.74,0,0,1-27.688,10.079,230.968,230.968,0,0,1-28.61,6.475l-3.608.611-3.629.454-7.254.9-7.275.594-3.632.29-3.643.136a279.628,279.628,0,0,1-36.786-.891,96.8,96.8,0,0,1,6.237-29.444A215.438,215.438,0,0,0,234,133.321c2.144-.332,4.24-.929,6.353-1.393l3.161-.733c1.058-.234,2.106-.492,3.14-.81l6.223-1.781c1.044-.276,2.064-.622,3.084-.978l3.056-1.037c4.107-1.292,8.06-3.007,12.052-4.551,3.688-1.666,7.393-3.258,10.977-5.113C281.521,117.036,281,117.151,280.47,117.27Zm-60.642-2.151a96.857,96.857,0,0,1,11.389-13.362l5.5-.559,2.364-.388c-4.53,5.2-7.009,10.2-7.736,14.228-1.222.056-2.438.157-3.667.154l-3.849-.035C222.5,115.129,221.162,115.132,219.828,115.118Zm88.717,91.218c-51.426,14.822-100.9,24.8-139.322,28.1-37.589,3.23-60.75-.485-63.548-10.194s14.832-25.184,48.377-42.45c11.839-6.1,25.236-12.22,39.8-18.234-.024.342-.038.688-.059,1.034-10.7,4.61-20.644,9.276-29.616,13.931-31.931,16.568-47.954,31.11-45.122,40.945s24.143,13.62,60,10.655c35.577-2.944,81.359-12.112,128.908-25.816s91.19-30.307,122.88-46.749c31.934-16.568,47.958-31.11,45.122-40.948S451.821,103,415.968,105.961c-10.072.835-20.972,2.172-32.486,3.967-.2-.283-.4-.566-.6-.845,15.531-2.658,30.129-4.606,43.4-5.745,37.589-3.23,60.75.485,63.548,10.194s-14.832,25.18-48.377,42.45C407.167,173.634,359.967,191.515,308.545,206.336ZM225.454,196.25c2.466,1.984,5.183,6.971,8.322,13.072q-6.758,1.095-12.981,1.893C218.93,199.233,222.335,193.439,225.454,196.25Zm79.9-.974c66.907-19.282,133.116-49.624,128.1-67.023-2.748-9.545-25.128-9.925-43.746-8.5-.8-1.432-1.641-2.836-2.5-4.222,2.867-.3,5.693-.559,8.42-.765,28.976-2.158,46.9,1.125,49.166,9s-11.155,20.193-36.834,33.785c-26.294,13.921-62.573,27.866-102.16,39.275s-77.727,18.908-107.391,21.119c-28.976,2.158-46.9-1.125-49.166-9s11.151-20.193,36.831-33.785c2.42-1.278,4.952-2.556,7.537-3.838.01,1.634.045,3.272.133,4.91-16.519,8.7-35.263,20.937-32.514,30.482C166.251,224.106,238.453,214.561,305.357,195.276Zm2.274,7.889C260.151,216.848,214.453,226,178.953,228.943c-34.718,2.871-56.133-.7-58.756-9.8s13.61-23.518,44.532-39.562c8.79-4.565,18.52-9.136,28.987-13.659-.017.416-.031.831-.045,1.247-6.664,3.042-12.981,6.1-18.814,9.154-29.266,15.325-43.924,28.837-41.27,38.046s22.254,12.852,55.187,10.254c32.661-2.584,74.664-10.924,118.27-23.49s83.6-27.859,112.633-43.058c29.263-15.325,43.92-28.837,41.266-38.046s-22.254-12.852-55.187-10.25c-6.566.517-13.54,1.289-20.8,2.263-.234-.342-.464-.691-.7-1.03,11.266-1.743,21.939-3.049,31.809-3.866,34.718-2.871,56.133.7,58.756,9.8s-13.606,23.521-44.528,39.565C398.67,172.914,355.109,189.482,307.63,203.165ZM193.607,169.886c-30.614,15.052-48.328,29.535-45.489,39.38,5.106,17.72,74.514,12.751,158.01-11.312s144.9-56.793,139.794-74.514c-2.836-9.849-25.536-12.681-59.468-9.133-.251-.395-.513-.782-.772-1.173,7.034-.932,13.791-1.676,20.165-2.179,31.847-2.515,51.513.908,53.961,9.4s-12.381,21.855-40.683,36.67C390.17,172.191,350.248,187.449,306.715,200s-85.449,20.871-118.033,23.444c-31.847,2.518-51.513-.911-53.961-9.4S147.1,192.185,175.4,177.367c5.665-2.965,11.783-5.934,18.234-8.885C193.628,168.95,193.61,169.415,193.607,169.886Zm209.2-14.825a105.464,105.464,0,0,0-11.109-33.1c33.115-2.291,38.675,4.051,39.506,6.943C432.885,134.735,422.59,144.231,402.809,155.061Zm-172.72,13.383a293.665,293.665,0,0,0,66.583-7.854c2.759-.59,5.462-1.39,8.2-2.071l4.1-1.062c1.359-.384,2.707-.807,4.062-1.208,2.7-.821,5.42-1.6,8.116-2.452l8.036-2.742c2.7-.87,5.333-1.914,7.98-2.934s5.315-1.991,7.935-3.091l7.837-3.356c1.3-.573,2.63-1.093,3.911-1.7l3.859-1.833q9.278-4.359,18.321-9.269c.7,1.924,1.365,3.884,1.952,5.916a114.25,114.25,0,0,1,2.986,13.3q-6.941,4.212-14.06,8.144l-3.953,2.19c-1.317.733-2.682,1.376-4.02,2.068l-8.078,4.083c-2.707,1.338-5.48,2.542-8.221,3.817s-5.487,2.549-8.3,3.663l-8.4,3.468c-2.825,1.1-5.679,2.12-8.525,3.182-1.421.524-2.843,1.065-4.275,1.568l-4.327,1.425c-2.9.922-5.759,1.959-8.686,2.787a321.708,321.708,0,0,1-68.7,12.9c.7,1.331,1.418,2.658,2.109,3.992,2.354-.073,4.7-.175,7.051-.255l4.38-.161,4.366-.381c2.906-.265,5.815-.485,8.717-.793l8.668-1.2c2.9-.332,5.752-.957,8.619-1.47,2.86-.555,5.741-1.013,8.563-1.739l8.5-2.008,8.406-2.382a270.4,270.4,0,0,0,32.7-12.168,268.964,268.964,0,0,0,30.793-16.348c5.853-3.6,11.556-7.449,17.12-11.48a104.366,104.366,0,0,1,.943,12.81c-20.965,9.695-48.359,19.917-80.646,29.221A622.418,622.418,0,0,1,236.34,208.9c-2.563-5.221-4.687-10.638-7.781-15.192-1.118-1.54-2.448-2.965-3.943-3.412a3.836,3.836,0,0,0-2.305.073,4.16,4.16,0,0,0-2.036,1.264,12.642,12.642,0,0,0-2.354,5,36.055,36.055,0,0,0-.964,5.85,50.781,50.781,0,0,0,.115,9.185c-.482.056-.96.112-1.435.164a45.859,45.859,0,0,1-.639-9.468,32.188,32.188,0,0,1,.8-6.262,14.615,14.615,0,0,1,2.7-6.038,6.234,6.234,0,0,1,1.418-1.229,8.855,8.855,0,0,1,1.648-.747,6.233,6.233,0,0,1,3.726-.133,7.923,7.923,0,0,1,3.1,1.813,15.164,15.164,0,0,1,2.158,2.522l.045.066c-.807-1.627-1.634-3.241-2.56-4.8a27.807,27.807,0,0,0-2.162-3.178,11.645,11.645,0,0,0-2.766-2.661c-3.765-2.48-9.174,4.177-10.3,16.449q-3.484,0-6.964-.084c-.5-1.69-.964-3.388-1.38-5.1a104.023,104.023,0,0,1-2.2-14.018,93.814,93.814,0,0,1-.22-12.094A260.88,260.88,0,0,0,230.089,168.444ZM212.647,200.6a58.135,58.135,0,0,0,.335,9c-1.055-.108-2.1-.241-3.157-.36-.388-.9-.768-1.792-1.135-2.7q-1.247-3.211-2.27-6.5C208.5,200.253,210.57,200.445,212.647,200.6ZM202.5,213.024c-23.134,1.505-37.306-1.044-39.014-6.964-.838-2.916.531-11.347,30.426-27.262a104.839,104.839,0,0,0,8.588,34.226Zm6.873-91.323a98.619,98.619,0,0,1,119.678-47.06,101.439,101.439,0,0,1,62.056,59.318,110.77,110.77,0,0,1,4.3,14.029c.719,3.335,1.31,6.695,1.739,10.076l-.024.014a99.757,99.757,0,0,0-2.983-14.064,99.666,99.666,0,0,0-183.023-21.349,99.331,99.331,0,0,0-4.963,85.372l-.052-.087c.119.293.248.58.367.873.112.265.22.531.335.8.419,1,.849,1.994,1.3,2.979q-1.184.1-2.34.192a101.491,101.491,0,0,1,3.611-91.089Z" transform="translate(-91.242 -66.137)" fill="#423fbf"/>
      </g>
    </g>
  </g>
</svg>
