<svg xmlns="http://www.w3.org/2000/svg" width="640" height="450" viewBox="0 0 640 450">
  <g id="Group_4734" data-name="Group 4734" transform="translate(-20691 4299)">
    <rect id="Rectangle_2550" data-name="Rectangle 2550" width="640" height="450" transform="translate(20691 -4299)" fill="#423fbf"/>
    <g id="Group_4825" data-name="Group 4825" transform="translate(21222.961 -4541.538) rotate(30)">
      <g id="Group_4808" data-name="Group 4808" transform="translate(82.189 264.776)">
        <g id="Group_4807" data-name="Group 4807">
          <path id="Path_10334" data-name="Path 10334" d="M219.142,542.555h0a27.063,27.063,0,0,0-13.727.54,87.636,87.636,0,0,0,2.939-18.9c.277-14.163-6.934-23.223-19.9-25.237,3.541-44.462,6.283-85.828,5-147.411-.721-34.543-12.893-86.769-29.593-86.769s-28.874,52.227-29.6,86.769c-1.417,67.971,2.07,111.317,6.121,161.376a1.5,1.5,0,0,0-.359.8c-1.046,8.24-8.8,15.168-16.423,20.092-5.378-3.472-12.118-4.653-19.927-3.308-8.157,1.4-14.1,5.178-17.671,11.209-5.235,8.846-5.075,22.552.45,38.6,7.31,21.225,11.6,29.973,11.775,30.334a1.523,1.523,0,0,0,.344.453c.211.19,4.924,4.3,15.712,4.3.9,0,1.855-.028,2.847-.092,12.88-.813,18.98-8.874,19.232-9.218a1.508,1.508,0,0,0,.282-.7c.073-.553.862-6.725,1.342-15.153l12.387-3.477c3.2,8.208,7.4,10.9,13.484,10.9,5.212,0,9.038-1.976,12.041-7.7,3.118,4.779,6.4,9.83,9.28,14.3.12,7.54.45,11.068.474,11.309a1.583,1.583,0,0,0,.16.544c.143.273,3.6,6.729,15.864,10.511a29.655,29.655,0,0,0,8.77,1.357,24.433,24.433,0,0,0,12.481-3.163,1.529,1.529,0,0,0,.51-.553c.587-1.1,14.444-27.085,17.616-47.13C244.01,558.436,236.024,545.831,219.142,542.555Zm-55.285,52.1c-3.607,0-6.448-1.408-8.787-5.163a14.2,14.2,0,0,0,2.92,2.813s-6.057-17.006-4.86-43.9a15.111,15.111,0,0,1-4.548-1.133l-.1-.849a54.215,54.215,0,0,0,15.379,1.9,66.389,66.389,0,0,0,9.113-.587c-.019.352-.038.709-.058,1.057a94.218,94.218,0,0,1-17.353.484,94.977,94.977,0,0,0,17.285.753c-1.477,26.228-2.753,37.616-5.954,43.2a8.855,8.855,0,0,0,5.743-3.718C170.3,593.253,167.46,594.658,163.857,594.658ZM103.29,610.4c-.143-.414-.3-.869-.48-1.4a35.589,35.589,0,0,0,10.372,1.406q1.473,0,3.09-.1a31.449,31.449,0,0,0,10.635-2.516c.038.664.073,1.281.1,1.842a25.81,25.81,0,0,1-10.071,2.681C110.277,612.73,105.845,611.5,103.29,610.4Zm-14.7-67.149c3.1-5.237,8.347-8.526,15.595-9.775,15.352-2.644,25.752,5.246,29.286,22.222,2.239,10.746,2.064,24.663,1.456,34.969a25.209,25.209,0,0,1-1.912,1.774c.271-10.246.083-24.317-2.181-35.262-3.308-15.983-11.267-22.821-20.655-23.447,4.108,2.851,7.713,8.784,10.24,18.623a55.966,55.966,0,0,1-26.778,4.439,56.77,56.77,0,0,0,27.177-2.83c.179.768.354,1.554.523,2.367,2.147,10.413,3.63,25.054,4.572,36.933a47.851,47.851,0,0,1-24.053,2.723,48.741,48.741,0,0,0,24.189-.958c.043.563.085,1.123.126,1.673a32.562,32.562,0,0,1-11.422,2.783,38.4,38.4,0,0,1-15.623-1.857c-1.34-4.324-2.939-9.632-4.8-16.079-4.125-14.34-6.211-29.173-3.389-38.918-5.76,9.209-4.254,24.153.431,38.566,2,6.14,3.741,11.213,5.216,15.332-.534-.271-.973-.521-1.319-.736C93.6,591.456,91.6,586.01,89.3,579.336,84.065,564.136,83.813,551.32,88.589,543.246ZM158.921,270.03a71.663,71.663,0,0,0-4.789,21.554,70.765,70.765,0,0,1,7.521-23.334,5.794,5.794,0,0,1,2.2-.465c6.277,0,12.989,11.661,18.1,28.586-.367.083-.8.173-1.319.269-4.241-15.191-9.771-26.257-15.646-27.54,3.2,5.118,6.125,15.576,8.43,28.428-.169.013-.327.028-.5.041a160.029,160.029,0,0,0-4.463-18.2,158.758,158.758,0,0,1,2.672,18.305c-2.115.115-4.527.188-7.276.188a99.686,99.686,0,0,1-15.629-1.027c.668-3.692,1.383-7.186,2.143-10.4-1.148,3.112-2.237,6.541-3.25,10.21-.538-.1-.99-.192-1.366-.277C149.543,283.835,154.206,274.192,158.921,270.03Zm27.44,217.092c-.341.167-.753.352-1.244.555,2.484-36.419,4.277-71.823,3.786-119.944.685-.267,1.278-.525,1.778-.756C191.19,415.051,189.146,450.734,186.361,487.122Zm18.982,37.014c-.126,6.4-1.673,13.881-3.46,20.482q-.56.307-1.106.647a104.5,104.5,0,0,0,3.071-16.668c1.174-13.958-3.78-21.56-11.454-24.42,2.134,2.64,3.547,6.759,3.908,12.609a59.031,59.031,0,0,1-6,1.031c-1.127.137-2.26.222-3.4.29.128-1.586.256-3.174.384-4.744.312-3.835.617-7.628.92-11.4C203.362,504.405,205.49,516.726,205.342,524.136Zm17.37,94.939-.073.032c.726-1.682,1.6-3.75,2.546-6.1.179-.066.363-.13.534-.194C224.57,615.291,223.537,617.419,222.713,619.075Zm-7.167,2a28.958,28.958,0,0,1-12.163-1.059,35.28,35.28,0,0,1-11.915-5.916c.041-1.739.1-3.874.2-6.43a42.675,42.675,0,0,0,13.288,5.931,35.572,35.572,0,0,0,9.382,1.287c1.061,0,2.072-.056,3.043-.145C216.718,617.065,216.1,619.2,215.546,621.071Zm-74.013-131.6c.314.134.657.271,1.031.414q.109,1.62.22,3.24-.56-.224-1-.423Q141.657,491.087,141.533,489.472Zm1.3-120.424a73.285,73.285,0,0,0,16.077,2.331V490.829a57.952,57.952,0,0,1-13.495-2.175C143.727,452.39,142.526,416.761,142.833,369.048ZM137.1,361.5c.506.23,1.1.487,1.793.751-.015,1.095-.028,2.173-.041,3.255-.758-.316-1.351-.6-1.795-.826C137.068,363.625,137.085,362.558,137.1,361.5Zm36.685-61.918a354.45,354.45,0,0,1,4.725,52.406c.049,3.675.085,7.261.115,10.795A87.8,87.8,0,0,1,164.89,363.9V299.925C168.382,299.9,171.331,299.769,173.784,299.577Zm16.873,65.107c-.44.228-1.029.51-1.78.824-.013-1.082-.026-2.173-.041-3.265.683-.265,1.274-.516,1.778-.747C190.629,362.56,190.644,363.629,190.657,364.684ZM175.884,490.1c-2.015.318-4.328.572-6.947.721V371.372a84.029,84.029,0,0,0,9.741-.986C178.938,418.044,177.644,453.5,175.884,490.1Zm-.263,5.425a76.22,76.22,0,0,1-10.731.817v-3.321a78.9,78.9,0,0,0,10.893-.815C175.73,493.312,175.677,494.421,175.621,495.527Zm9.339-5.568c.45-.166.854-.329,1.221-.487q-.128,1.62-.254,3.24c-.341.156-.741.324-1.193.506Q184.846,491.585,184.961,489.959ZM162.824,371.481V490.957q-1.511-.016-2.911-.079V371.419C160.85,371.453,161.823,371.475,162.824,371.481Zm2.066,119.476V371.481q1.572-.01,3.043-.066V490.874C166.96,490.917,165.947,490.947,164.89,490.957Zm0-121.54v-3.451a90.671,90.671,0,0,0,13.753-1.089c.009,1.148.015,2.275.023,3.408A87.648,87.648,0,0,1,164.89,369.417Zm23.916-9.4q-.048-3.189-.107-6.45a244.126,244.126,0,0,0-7.51-54.924c.531-.1.977-.2,1.355-.284a216.331,216.331,0,0,1,7.9,53.245c.053,2.572.1,5.1.139,7.6C190.134,359.438,189.547,359.715,188.806,360.02Zm-25.982,3.88a74.739,74.739,0,0,1-19.932-2.521c.028-2.794.058-5.615.094-8.5a362.311,362.311,0,0,1,4.887-54,99.52,99.52,0,0,0,14.95,1.044Zm-23.809-9.408c-.034,1.863-.062,3.7-.092,5.523-.747-.307-1.34-.585-1.789-.813.038-2.5.083-5.026.137-7.6a216.329,216.329,0,0,1,7.9-53.245c.391.09.856.188,1.409.292A250.261,250.261,0,0,0,139.015,354.493Zm3.861,9.053a78.3,78.3,0,0,0,19.949,2.42v3.449a74.81,74.81,0,0,1-19.979-2.533C142.854,365.781,142.865,364.656,142.876,363.546Zm19.949,129.477v3.321a63.4,63.4,0,0,1-17.151-2.226q-.077-1.633-.156-3.263A66.411,66.411,0,0,0,162.824,493.023Zm-19.885,2.39c.446,6.5.911,13.051,1.387,19.729l-.835-1.11c-.026-.3-.049-.6-.075-.9-.5-6.115-.98-12.125-1.451-18.094Q142.418,495.223,142.94,495.414Zm5.222,48.483c-.209-3.8-.418-7.82-.63-12.09-.211-4.318-.425-8.556-.634-12.752l0-.066c-.384-7.7-.76-15.219-1.118-22.674a66.928,66.928,0,0,0,17.046,2.1v47.828a49.209,49.209,0,0,1-14.63-2.079ZM164.89,498.41a79.7,79.7,0,0,0,10.628-.775c-.5,10.067-1.024,20.292-1.556,30.944-.312,6.245-.6,11.9-.877,17.044a61.984,61.984,0,0,1-8.2.615Zm31.318,50.643a58.92,58.92,0,0,1-7.532-9.756,59.778,59.778,0,0,0,6.381,11.064c-.239.292-.48.578-.713.886a37.027,37.027,0,0,1-5.389-6.232,37.749,37.749,0,0,0,4.371,7.653q-.563.842-1.088,1.746a110.458,110.458,0,0,1-11.67-21.2,44.438,44.438,0,0,1,6.072-.446s-2.23-4.926-3.965-9.98a143.146,143.146,0,0,0,14.131,25.645C196.6,548.637,196.4,548.844,196.208,549.053Zm-.068-23.528c-.344,4.032-1,8.716-1.812,13.552a140.673,140.673,0,0,1-7.886-15.149c.139-1.739.277-3.474.416-5.193,1.17.041,2.341.062,3.513.03,2-.043,4-.2,6-.448A63.27,63.27,0,0,1,196.14,525.526Zm-11.845-12.4c-.126,1.552-.252,3.12-.378,4.689-.344-.9-.6-1.626-.783-2.151.493-6.844.977-13.544,1.443-20.175.423-.152.813-.3,1.17-.444C185.276,501,184.79,507.011,184.295,513.121ZM137.032,366.978c.5.233,1.1.489,1.791.756-.519,48.1,1.184,83.647,3.588,119.854-.408-.171-.762-.331-1.059-.474C138.567,450.727,136.522,415.043,137.032,366.978Zm5.244,150.44,1.522,2.023-.988,5.28a1.23,1.23,0,0,0,0,.126c-2.13,5.895-7.357,10.936-12.91,14.871-.139-.181-.28-.365-.423-.544a49,49,0,0,0,8.874-9.51,48.161,48.161,0,0,1-9.89,8.311c-.175-.194-.348-.393-.525-.578a32.665,32.665,0,0,0,5.918-5.647,31.85,31.85,0,0,1-7.013,4.576c-.211-.2-.427-.388-.645-.576C133.062,531.158,139.9,524.943,142.276,517.418Zm-8.116,83.052c-.4.41-.916.894-1.554,1.432.109-1.816.228-4.14.324-6.823.679-.5,1.276-.99,1.806-1.456C134.546,596.292,134.341,598.621,134.159,600.469ZM96.407,598.7c.354.167.738.333,1.148.5.975,2.663,1.8,4.834,2.476,6.548-.354-.175-.664-.341-.933-.5C98.392,603.6,97.489,601.43,96.407,598.7Zm3.47,1.317a39.364,39.364,0,0,0,11.57,1.584q1.636,0,3.432-.113a34.879,34.879,0,0,0,11.45-2.649c.177,2.495.324,4.781.448,6.772a29.005,29.005,0,0,1-10.633,2.691A34.157,34.157,0,0,1,102,606.588Q101.118,603.934,99.877,600.012Zm1.223,8.4c.177.429.333.8.465,1.116-.356-.209-.623-.388-.783-.506-.094-.2-.235-.5-.418-.9C100.6,608.214,100.846,608.31,101.1,608.409ZM132.32,606c.017-.2.056-.677.107-1.381.508-.373.99-.745,1.411-1.1-.051.45-.094.813-.124,1.061A17.489,17.489,0,0,1,132.32,606Zm55.883-1.187c.45.442.973.92,1.577,1.417.023,2.646.073,4.813.128,6.518a17.836,17.836,0,0,1-1.513-1.618C188.32,609.521,188.249,607.427,188.2,604.817Zm.365,9.455c.423.4.911.824,1.449,1.257.026.482.047.884.066,1.2a12.344,12.344,0,0,1-1.464-1.78C188.606,614.788,188.587,614.559,188.567,614.271Zm2.853,2.318a38.962,38.962,0,0,0,11.384,5.342,31.843,31.843,0,0,0,9.226,1.394c1.009,0,1.974-.049,2.888-.139q-.224.749-.427,1.419a25.593,25.593,0,0,1-11.928-.854,30.994,30.994,0,0,1-11.16-5.779C191.408,617.571,191.412,617.11,191.421,616.589Zm46.661-39.923c-1.727,10.912-6.874,23.955-11.109,33.39-.233.113-.482.23-.753.35,3.711-9.47,8.146-22.337,9.692-33.11,2.32-16.169-2.93-25.361-11.672-29.213,2.9,4.044,4.309,10.725,3.436,20.593a55.954,55.954,0,0,1-25.084-2.469,56.724,56.724,0,0,0,24.926,4.012c-.107.967-.224,1.953-.371,2.975-1.509,10.462-5.071,24.614-8.227,36.062a47.851,47.851,0,0,1-24.034-4.753A48.752,48.752,0,0,0,218.436,611c-.154.551-.307,1.1-.459,1.633a32.41,32.41,0,0,1-12.494-.969,39.018,39.018,0,0,1-13.715-6.435c.2-4.689.506-10.56.975-17.733.975-14.905,4.066-29.568,10.095-37.742-8.65,6.65-12.329,21.214-12.8,36.384-.216,7.041-.284,12.795-.275,17.375a18.107,18.107,0,0,1-1.6-1.735c-.043-4.823,0-11,.235-18.651.493-16.069,4.8-28.142,12.127-34,4.755-3.8,10.823-5.015,18.045-3.617h0C233.86,548.475,240.79,559.541,238.082,576.666Z" transform="translate(-82.189 -264.776)" fill="#edfd27"/>
        </g>
      </g>
    </g>
  </g>
</svg>
