<svg xmlns="http://www.w3.org/2000/svg" width="640" height="450" viewBox="0 0 640 450">
  <g id="Group_4736" data-name="Group 4736" transform="translate(-20691 4299)">
    <rect id="Rectangle_2550" data-name="Rectangle 2550" width="640" height="450" transform="translate(20691 -4299)" fill="#423fbf"/>
    <g id="Group_4893" data-name="Group 4893" transform="translate(20580.801 -4498.264)">
      <g id="Group_4264" data-name="Group 4264" transform="translate(156.895 260.193)">
        <g id="Group_4263" data-name="Group 4263">
          <path id="Path_10066" data-name="Path 10066" d="M455.46,331.259a97.8,97.8,0,0,0-14.476-20.874c-9.147-10.3-20.574-19.434-28.339-21.121A162.342,162.342,0,0,0,341.53,262.72a86.953,86.953,0,0,0-41.617,0,17.665,17.665,0,0,0-1.8.391c-.111.045-.234.095-.35.136a162.332,162.332,0,0,0-57.837,20.187c-4.6,1.016-10.279,4.02-15.311,7.818a47.194,47.194,0,0,0-10.727,10.9,163.228,163.228,0,0,0-54.755,105.359q-1.771,3.79-2.148,11.361c-.407,8.353.564,19.142,2.724,30.388.486,2.51,1.029,5.016,1.613,7.481a163.112,163.112,0,0,0,40.366,79.053,70.858,70.858,0,0,0,10.847,12.332c5.362,4.913,11.386,9.168,16.447,11.34a162.5,162.5,0,0,0,92.64,28.869c90.11,0,163.419-73.3,163.419-163.414A162.518,162.518,0,0,0,455.46,331.259Zm-26.643,91.192c-.115-18.1,7.423-32.811,16.834-32.865a10.027,10.027,0,0,1,5.74,1.864c-2.831-3.876-6.287-6.156-10.007-6.135a9.532,9.532,0,0,0-4.283,1.119,9.85,9.85,0,0,1,6-2.3h.049c9.361,0,17.356,15.83,17.471,34.618.066,9.448-1.786,18.323-5.193,24.977-3.247,6.329-7.464,9.83-11.892,9.859h-.053c-3.934,0-7.736-2.765-10.863-7.81a16.565,16.565,0,0,0,3.432,3.2C431.73,443.05,428.883,433.388,428.817,422.451Zm35.634-3.777c-.049-.926-.074-1.457-.074-1.457s.074.527.193,1.444.251,2.243.3,3.839a47.126,47.126,0,0,1-.222,5.448,52.078,52.078,0,0,1-1.128,6.156,52.871,52.871,0,0,1-2.033,5.921,45.3,45.3,0,0,1-2.477,4.86,37.734,37.734,0,0,1-2.136,3.2L456,449.251s.276-.453.769-1.234,1.156-1.926,1.856-3.345a47.555,47.555,0,0,0,2.23-4.9,52.512,52.512,0,0,0,1.9-5.859,51.174,51.174,0,0,0,1.21-6.045,46.735,46.735,0,0,0,.461-5.362C464.512,420.921,464.484,419.6,464.451,418.674Zm-17,92.389s-.309,1.119-.934,2.753c-.329.807-.77,1.728-1.267,2.7-.539.955-1.156,1.95-1.811,2.913-.7.942-1.432,1.843-2.156,2.667-.757.794-1.477,1.514-2.136,2.09-1.333,1.127-2.288,1.786-2.288,1.786s.844-.8,1.983-2.1c.6-.621,1.247-1.391,1.922-2.222s1.383-1.741,2.033-2.674c.671-.93,1.3-1.88,1.856-2.8s1.078-1.778,1.465-2.547C446.975,512.125,447.453,511.063,447.453,511.063Zm-26.738,24.4c4.526,1.527,14-4.267,22.343-13.978,7.818-9.1,12.093-18.652,10.8-23.318a1.222,1.222,0,0,1,.6.255c2.9,2.489-.909,13.48-10.345,24.458A56.76,56.76,0,0,1,430,535.1c-3.954,2.238-7.139,2.872-8.518,1.683A2.017,2.017,0,0,1,420.715,535.46Zm11.67-25.948c1.3-1.317,2.666-2.576,3.991-3.7,1.358-1.086,2.654-2.061,3.8-2.831,2.333-1.51,3.971-2.358,3.971-2.358s-1.551,1-3.707,2.716c-1.107.819-2.337,1.852-3.621,2.991s-2.6,2.4-3.872,3.72-2.485,2.679-3.572,4.016-2.074,2.588-2.847,3.728c-1.63,2.222-2.572,3.81-2.572,3.81s.782-1.671,2.206-4.057c.724-1.181,1.646-2.51,2.679-3.909C429.911,512.273,431.117,510.866,432.384,509.512ZM317.4,567.633a59.611,59.611,0,0,0,8.847-1.872c2.983-.794,5.958-1.691,8.8-2.37a45.877,45.877,0,0,1,7.892-1.177,26.589,26.589,0,0,1,5.629.362,18.956,18.956,0,0,1,2.078.469,19.774,19.774,0,0,0-2.094-.35,26.538,26.538,0,0,0-5.58-.041,45.409,45.409,0,0,0-7.76,1.4c-2.806.7-5.761,1.629-8.756,2.469a60.925,60.925,0,0,1-8.97,1.79c-2.9.313-5.6.494-7.9.8a34.832,34.832,0,0,0-5.5,1.02c-.65.181-1.156.342-1.5.469l-.527.185s.181-.074.514-.214.831-.333,1.477-.559a36.3,36.3,0,0,1,5.473-1.341C311.829,568.3,314.537,568.036,317.4,567.633Zm7.481,14.348c-1.856-.136-3.58-.317-5.045-.572a48.394,48.394,0,0,1-4.814-1.115,48.234,48.234,0,0,0,4.876.675c1.461.185,3.177.288,5.012.333s3.79,0,5.744-.136a57.331,57.331,0,0,0,5.707-.671c1.811-.3,3.494-.638,4.917-1.025a48.5,48.5,0,0,0,4.728-1.354s-1.79.831-4.609,1.782c-1.411.457-3.1.872-4.913,1.271-1.827.341-3.8.613-5.777.782A57.465,57.465,0,0,1,324.885,581.982Zm-31.178-5.288a2.143,2.143,0,0,1,1.132-1.757,3.328,3.328,0,0,0-.017.5c.309,5.806,16.044,9.69,35.148,8.682s34.346-6.538,34.038-12.344c-.091-1.761-1.416-3.551-3.769-5.061a18.223,18.223,0,0,1,4.3,2.238c1.662,1.234,2.613,2.6,2.679,3.851.222,4.209-13.447,10.818-36.222,12.023C308.249,586.035,293.934,580.9,293.708,576.694Zm165.55-233.448a15.566,15.566,0,0,1-.247,1.749,8.56,8.56,0,0,1-.72,1.93,6.013,6.013,0,0,1-1.378,1.588,4.991,4.991,0,0,1-1.629.815,3.479,3.479,0,0,1-1.271.062,3.788,3.788,0,0,1-.461-.086,3.471,3.471,0,0,0,1.584-.391,4.448,4.448,0,0,0,1.337-.918,5.429,5.429,0,0,0,1.132-1.453,8.338,8.338,0,0,0,.753-1.732,15.353,15.353,0,0,0,.461-1.634c.28-.971.436-1.638.436-1.638S459.274,342.217,459.258,343.246Zm-242.27-34.568a2.185,2.185,0,0,0,.457.457c.918-3.6,5.115-8.8,11.135-13.34,6.6-4.979,13.357-7.633,16.891-6.929-.654,3.1-4.58,8.748-11.9,14.262-9.3,7.024-17.336,8.731-18.772,6.818-.033-.045-.045-.1-.074-.148.041-.782.091-1.547.152-2.263,0-.148,0-.28,0-.424A23.622,23.622,0,0,1,219.9,299.7C216.893,303.481,215.642,306.9,216.988,308.678Zm131.681-37.934c0,3.316-19.944,5.1-30.659,6.057l-1.909.169c-7.44.671-13.015.07-16.838-1.066a1.381,1.381,0,0,1-.074-.362c0-3.559,11.871-6.452,26.512-6.452a78.768,78.768,0,0,1,20.039,2.234c-1.119-3.308-12.5-5.913-26.4-5.913-14.155,0-25.68,2.7-26.442,6.094a2.564,2.564,0,0,1-.128-.761c0-.025.016-.053.016-.078.095-.111.189-.239.284-.354a17.156,17.156,0,0,1,1.629-1.967c3.831-2.514,13.176-5,26.022-5,13.69,0,23.393,2.823,26.7,5.493.177.156.35.325.523.49A2.188,2.188,0,0,1,348.669,270.743Zm89.957,41.732c14.365,16.163,19.039,29.762,16.072,32.4v0c-2.971,2.642-15.928-3.6-30.285-19.763-8.707-9.8-13.834-18.644-15.875-24.685,4.5-2.926,17.208,5,28.939,18.208,6.654,7.489,11.579,15.085,13.982,21.022,1.485-5.263-4.773-17.537-15.406-29.5a101.1,101.1,0,0,0-8.822-8.81A106.539,106.539,0,0,1,438.626,312.475ZM214.667,545.8c-8.933-8.193-13.71-16.023-13.809-19.525a2.763,2.763,0,0,1,.049-.547c.362,3.251,6.222,10.365,14.5,17.336,9.76,8.213,19.241,13.167,21.175,11.057a.949.949,0,0,0,.045-.091c.041.189.086.383.115.568.255,1.617.029,2.539-.247,2.839C235.311,558.729,227.065,557.174,214.667,545.8Zm-38.893-98.471c.708,8.732,1.905,16.475,2.868,22.7,1.325,8.567,2.576,16.657.469,17.064-.852.173-1.983-.588-3.28-2.185a2.776,2.776,0,0,0,1.959.428,1.984,1.984,0,0,0,.967-.523c-4.683-2.992-10.476-17.7-13.838-36.008-3.572-19.475-3.148-36.231.769-39.56a2.483,2.483,0,0,0-1.971-.568c-1.1.222-1.992,1.3-2.675,3.061.8-3.411,1.909-4.674,2.638-4.818a1.59,1.59,0,0,1,1.132.42C168.861,410.42,174.07,426.216,175.774,447.329ZM237.553,561.2a4.162,4.162,0,0,0,1.214-1.922,8.527,8.527,0,0,0,.337-3.21,21.612,21.612,0,0,0-.424-3.749,22.314,22.314,0,0,0-.963-3.654,21.98,21.98,0,0,0-1.276-3.053c-.058-.128-.115-.239-.169-.35a35.6,35.6,0,0,0-3.02-4.139,9.788,9.788,0,0,1,3.078-3.444,11.322,11.322,0,0,0-5.024,1.3,35.161,35.161,0,0,0-7.567-5.827c-2.2-1.251-4.551-2.724-6.831-4.156-1.876-1.177-3.658-2.292-5.333-3.284l.033-4.469-3.061,2.765c-3.559-1.868-6.468-2.794-8.489-1.905-.136-1.185-.288-2.378-.5-3.518a20.423,20.423,0,0,0-1.407-3.872,10.93,10.93,0,0,0-1.811-2.3,8.948,8.948,0,0,0-.872-.658,9.113,9.113,0,0,1,.37,1,9.961,9.961,0,0,1,.654,2.568,18.043,18.043,0,0,1,.362,3.65c.045.457.066.946.086,1.436a157.291,157.291,0,0,1-16.221-26.034c.058.049.119.1.177.148a20.907,20.907,0,0,1,2.79,2.341,11.077,11.077,0,0,1,1.8,1.917,9.078,9.078,0,0,1,.654.823,9.978,9.978,0,0,0-.095-1.074,12.594,12.594,0,0,0-.938-2.72,23.4,23.4,0,0,0-2.341-3.279c-.815-.839-1.7-1.666-2.568-2.485,4.5-1.374,3.386-8.666,1.555-20.5-.716-4.637-1.564-10.127-2.234-16.216.1.584.214,1.173.321,1.753.77,3.712,1.469,7.184,2.024,10.168l1.551,7.2c.411,1.732.65,2.724.65,2.724s-.016-1.02-.041-2.8c-.1-1.782-.239-4.321-.4-7.366-.28-3.041-.658-6.575-1.086-10.365-.3-2.1-.634-4.271-.979-6.477a6.189,6.189,0,0,1,5.633-.078,8.026,8.026,0,0,0-6.213-3.522c-.095-.576-.189-1.144-.284-1.72-.819-3.983-1.679-7.958-2.531-11.67-.963-3.687-1.885-7.123-2.716-10.057-.185-.564-.354-1.09-.523-1.613a9.545,9.545,0,0,0,3.983-6.382,7.755,7.755,0,0,1-5.069,3.037c-.243-.761-.477-1.469-.667-2.057-.617-1.679-.967-2.633-.967-2.633s.136,1.008.374,2.777c.045.3.1.646.156.988-1.835-5.1-3.9-8.8-6.016-10.4a5.725,5.725,0,0,0-.856-.539l.016-.1a38.248,38.248,0,0,0,2.477-3.3,16.572,16.572,0,0,0,1.5-3.617,9.294,9.294,0,0,0,.1-2.777,6.714,6.714,0,0,0-.259-1,6.656,6.656,0,0,1-.35.938,8.172,8.172,0,0,1-1.132,2.185,14,14,0,0,1-1.5,2.008,156.9,156.9,0,0,1,44.588-85.468c-.045.337-.078.687-.136,1.008a14.628,14.628,0,0,1-.477,2.921,8.84,8.84,0,0,1-.6,2.09,7.279,7.279,0,0,1-.3.831,8.187,8.187,0,0,0,.786-.457,10.161,10.161,0,0,0,1.716-1.712,16.789,16.789,0,0,0,1.531-3.045c.144-.481.263-.983.379-1.49a5.964,5.964,0,0,0,.963.3l1.572,2.02,1.547-1.88a25.049,25.049,0,0,0,7.773-2.366c-.506.329-1,.646-1.477.934-1.473,1.033-2.745,1.844-3.646,2.387-.885.6-1.391.946-1.391.946l1.638-.387c1.02-.3,2.481-.745,4.205-1.374,1.7-.7,3.625-1.613,5.674-2.654,1.983-1.16,4.045-2.481,6.053-3.892,1.909-1.539,3.749-3.156,5.407-4.74,1.568-1.687,2.983-3.288,4.115-4.728,1.078-1.485,1.913-2.761,2.481-3.666.518-.934.819-1.469.819-1.469l-1.292,1.074c-.774.716-1.9,1.72-3.3,2.851-.593.543-1.251,1.119-1.95,1.712a27.935,27.935,0,0,0,4.139-5.958l2.58-.354-1.6-2.284a7.336,7.336,0,0,0,.214-1.983c.284.091.572.173.856.259a23.951,23.951,0,0,0,3.568.531,10.24,10.24,0,0,0,2.584-.42c.58-.267.876-.428.876-.428s-.354-.053-.926-.177a9.456,9.456,0,0,1-2.214-.712,21.791,21.791,0,0,1-2.971-1.362c-.214-.091-.453-.193-.679-.288a155.7,155.7,0,0,1,38.835-13.9c-.21.317-.424.658-.634.946a10.423,10.423,0,0,1-2.345,2.835,5.986,5.986,0,0,1-2.238,1.436,4.43,4.43,0,0,1-1.045.329,4.671,4.671,0,0,0,1.123.28,7.237,7.237,0,0,0,3.086-.539,12.594,12.594,0,0,0,3.555-2.646c.091-.1.169-.214.255-.317a7.9,7.9,0,0,0,1.6,2.037c3.152,2.88,8.954,4.493,16.406,4.7.025.436.062.868.119,1.292-.72-.049-1.457-.07-2.156-.14a63.739,63.739,0,0,1-7.736-1.189,51.3,51.3,0,0,1-5.362-1.481c-1.284-.412-2.008-.691-2.008-.691s.671.374,1.893.975a37.509,37.509,0,0,0,5.25,2.053,48.819,48.819,0,0,0,7.81,1.687c.831.1,1.708.156,2.568.23a14.967,14.967,0,0,0,1.276,3.58,13.913,13.913,0,0,1,.745-3.407c1.5.078,3.033.115,4.559.107,3.115-.1,6.217-.374,9.106-.728s5.555-.889,7.835-1.309c2.28-.436,4.156-.914,5.477-1.2,1.317-.325,2.066-.514,2.066-.514s-.77.074-2.115.21c-1.341.152-3.263.37-5.567.63-2.292.292-4.979.535-7.847.827s-5.925.481-8.983.51c-1.317.041-2.625.029-3.921,0a13.291,13.291,0,0,1,.811-1.448c1.35-.045,2.72-.119,4.148-.247l1.905-.169c11.55-1.033,20.607-1.938,26.384-3.547l4.024,3.839-.617-5.049a6.63,6.63,0,0,0,3.325-2.794l.251.222a15.144,15.144,0,0,0,3.386,1.876,8.39,8.39,0,0,0,2.736.354,5.578,5.578,0,0,0,1-.218,5.069,5.069,0,0,1-.905-.387,7.172,7.172,0,0,1-2.012-1.308,12.369,12.369,0,0,1-1.856-1.761,155.52,155.52,0,0,1,26.948,8.283c-2.527-.346-4.909-.5-6.975-.642-2.419-.156-4.436-.148-5.847-.189-1.411,0-2.218,0-2.218,0l2.2.309c1.395.185,3.391.444,5.781.765,2.391.3,5.168.741,8.11,1.284,1.65.3,3.354.679,5.061,1.127a157.11,157.11,0,0,1,16.159,8.6c-.44.07-.885.136-1.329.189-.934.247-1.88.461-2.773.63-.881.263-1.72.494-2.452.658-.724.267-1.346.465-1.786.6-.44.185-.7.3-.7.3s.251.111.687.317c.444.144,1.078.346,1.86.555.778.115,1.691.21,2.683.288.979-.045,2.024-.132,3.07-.251q1.068-.29,2.082-.621a10.7,10.7,0,0,0-.095,3.674l-1.308,2.094,1.786.35c2.029,7.839,9.011,18.615,17.105,27.721,6.493,7.312,14.13,14.019,20.792,17.908l-.284,6.571,3.572-4.835c.782.358,1.531.646,2.263.9.473,1.35.934,2.7,1.362,4.074-.2.383-.4.765-.576,1.14-.387,1.07-.708,2.07-.934,2.938-.148.905-.235,1.658-.28,2.181.008.543.012.852.012.852s.2-.226.555-.634c.309-.416.757-1,1.325-1.675.267-.42.592-.868.934-1.329a159.289,159.289,0,0,1,6.04,34.07c.527.876,1.041,1.777,1.518,2.7a49.728,49.728,0,0,1,2.115,5.156,44.04,44.04,0,0,1,1.222,4.7c.259,1.391.391,2.572.469,3.391s.111,1.292.111,1.292-.082-.465-.23-1.276-.4-1.958-.782-3.312a43.591,43.591,0,0,0-1.436-4.571,47.887,47.887,0,0,0-2.173-5.032,48.514,48.514,0,0,0-2.527-4.477,19.678,19.678,0,0,0-5.843-5.288,25.44,25.44,0,0,0-3.057-2.214,28.7,28.7,0,0,0-5.522-2.168c-1.79-.424-3.407-.761-4.757-1.169a16.765,16.765,0,0,1-3.255-1.045c-.4-.148-.7-.284-.909-.383s-.321-.152-.321-.152l.222.276c.144.185.366.444.671.77a18,18,0,0,0,2.926,2.173c1.321.7,2.926,1.378,4.547,2.111q.488.185.975.383c-4.222.856-8,4-10.987,8.756l-3.247-.292,1.839,2.773a39.8,39.8,0,0,0-1.671,3.674,11.009,11.009,0,0,1-8.374-3.226,12.89,12.89,0,0,0,7.127,6.826,64.887,64.887,0,0,0-2.633,19.249,67.218,67.218,0,0,0,1.839,15.348l-3.86,3.3,4.687-.259a45.6,45.6,0,0,0,3.21,7.966c3.049,5.781,6.942,9.5,11.209,10.83-2.049.486-4.214.8-6.287,1.2a26.9,26.9,0,0,0-6,2.111,13.615,13.615,0,0,0-3.51,2.843,9.432,9.432,0,0,0-.934,1.407,9.356,9.356,0,0,1,1.337-.951,12.513,12.513,0,0,1,3.8-1.675,24.447,24.447,0,0,1,5.757-1.041c2.16-.3,4.559-.469,7.024-.934a21.991,21.991,0,0,0,5.86-2.341,160.2,160.2,0,0,1-13.25,27.071c.527-.218,1.049-.436,1.572-.662a38.145,38.145,0,0,0,3.868-1.81,22.39,22.39,0,0,0,3.152-1.963,16.739,16.739,0,0,0,2.02-1.7l.691-.732-.6.815a16.444,16.444,0,0,1-1.835,1.963A22.676,22.676,0,0,1,439.511,482a38.571,38.571,0,0,1-3.9,1.938c-1.366.56-2.749,1.07-4.041,1.547-1.3.457-2.514.881-3.555,1.243-.086.033-.173.058-.259.086-1.053.44-2.041.872-2.946,1.292a32.192,32.192,0,0,0-4.181,2.325c-.951.65-1.465,1.049-1.465,1.049s.576-.313,1.617-.782c1.02-.506,2.543-1.1,4.366-1.778,1.819-.7,4.008-1.321,6.333-2.107l.539-.185q-1.123,1.747-2.288,3.461a65.851,65.851,0,0,1-9.279,7.547,28.261,28.261,0,0,1-7.814,3.642,23.759,23.759,0,0,1-8.3.7c-5.452-.42-10.484-1.782-14.941-1.905a20.593,20.593,0,0,0-10.415,2.012,12.975,12.975,0,0,0-2.465,1.7c-.5.481-.761.732-.761.732s.276-.243.786-.7a13.519,13.519,0,0,1,2.5-1.6,20.607,20.607,0,0,1,10.336-1.7c4.386.181,9.365,1.621,14.9,2.144a24.433,24.433,0,0,0,8.551-.679,28.973,28.973,0,0,0,8.048-3.687,57.181,57.181,0,0,0,6.942-5.456A160.3,160.3,0,0,1,238.755,549.6a18.522,18.522,0,0,1,1.033,6.464,9.052,9.052,0,0,1-.609,3.383,4.47,4.47,0,0,1-1.555,1.856,2.846,2.846,0,0,1-.819.391A2.985,2.985,0,0,0,237.553,561.2Z" transform="translate(-156.895 -260.193)" fill="#edfd27"/>
        </g>
      </g>
      <g id="Group_4270" data-name="Group 4270" transform="translate(200.857 525.728)">
        <g id="Group_4269" data-name="Group 4269">
          <path id="Path_10069" data-name="Path 10069" d="M203.464,353.594c-.029-.185-.074-.379-.115-.568a.956.956,0,0,1-.045.091c-1.934,2.111-11.414-2.843-21.175-11.057-8.279-6.97-14.138-14.085-14.5-17.336a2.762,2.762,0,0,0-.049.547c.1,3.5,4.876,11.332,13.809,19.525,12.4,11.373,20.644,12.929,21.829,11.637C203.493,356.133,203.72,355.211,203.464,353.594Z" transform="translate(-167.579 -324.725)" fill="#edfd27"/>
        </g>
      </g>
      <g id="Group_4274" data-name="Group 4274" transform="translate(293.706 566.712)">
        <g id="Group_4273" data-name="Group 4273">
          <path id="Path_10071" data-name="Path 10071" d="M263.66,340.775c-.066-1.251-1.016-2.617-2.679-3.851a18.224,18.224,0,0,0-4.3-2.238c2.354,1.51,3.679,3.3,3.769,5.061.309,5.806-14.929,11.332-34.038,12.344s-34.84-2.876-35.148-8.682a3.332,3.332,0,0,1,.017-.5,2.143,2.143,0,0,0-1.132,1.757c.226,4.21,14.542,9.341,37.292,8.131C250.213,351.593,263.882,344.984,263.66,340.775Z" transform="translate(-190.144 -334.685)" fill="#edfd27"/>
        </g>
      </g>
      <g id="Group_4276" data-name="Group 4276" transform="translate(420.715 498.163)">
        <g id="Group_4275" data-name="Group 4275">
          <path id="Path_10072" data-name="Path 10072" d="M230.293,354.96A56.76,56.76,0,0,0,244.4,342.74c9.435-10.978,13.245-21.969,10.345-24.458a1.223,1.223,0,0,0-.6-.255c1.3,4.666-2.979,14.221-10.8,23.318-8.345,9.711-17.817,15.5-22.343,13.978a2.017,2.017,0,0,0,.765,1.321C223.154,357.832,226.339,357.2,230.293,354.96Z" transform="translate(-221.01 -318.026)" fill="#edfd27"/>
        </g>
      </g>
      <g id="Group_4286" data-name="Group 4286" transform="translate(211.297 458.394)">
        <g id="Group_4285" data-name="Group 4285">
          <path id="Path_10077" data-name="Path 10077" d="M202.663,369.7c.86-.078,1.712-.193,2.551-.333,1.732-.424,3.391-.9,4.925-1.259a24.99,24.99,0,0,1,4.168-.951,13.993,13.993,0,0,1,3.053-.308,11.155,11.155,0,0,1,1.218,0,11.721,11.721,0,0,0-1.094-.6,14.932,14.932,0,0,0-3.2-.86,26.966,26.966,0,0,0-4.633.033c2.65-3.213,4.086-7.834,4.46-12.982l2.329-2.716-2.226-1.123a46.3,46.3,0,0,0-3.485-16.323,32.5,32.5,0,0,0-8.394-11.884,7.493,7.493,0,0,1,1.868-4.193,9.236,9.236,0,0,0-4.629,2.057c-.49-.333-.979-.667-1.485-.959-5.576-3.238-11.484-3.839-16.636-1.687a16.419,16.419,0,0,0-4.341,2.712c.123-.432.255-.872.358-1.3a25.812,25.812,0,0,0,.387-4.448,14.891,14.891,0,0,0-.588-3.111,11.168,11.168,0,0,0-.465-1.1s-.025.436-.14,1.165a14.237,14.237,0,0,1-.576,2.88,22.831,22.831,0,0,1-1.251,3.868c-.469,1.415-1.078,2.909-1.724,4.419-.518,1.572-1.049,3.177-1.465,4.728-.148.732-.263,1.449-.358,2.144-.107.354-.234.7-.329,1.066a31.007,31.007,0,0,0,1.773,19.517c4.7,11.254,17.043,21.825,27.244,21.825A13.191,13.191,0,0,0,202.663,369.7Zm-28.651-40.28c1.362-5.267,4.436-9.139,8.658-10.9.214-.091.432-.156.65-.239-4.44,2.489-7.184,7.386-7.83,13.2a14.587,14.587,0,0,1,7.748-8.209c8.719-3.642,19.689,2.728,24.5,14.237a39.907,39.907,0,0,1,2.954,16.776c-.782,5.617-3.033,10.18-7,11.834-8.3,3.469-22.7-6.394-28.046-19.183A27.888,27.888,0,0,1,174.012,329.416Z" transform="translate(-170.116 -308.361)" fill="#edfd27"/>
        </g>
      </g>
      <g id="Group_4294" data-name="Group 4294" transform="translate(284.095 483.935)">
        <g id="Group_4293" data-name="Group 4293">
          <path id="Path_10081" data-name="Path 10081" d="M260.554,363.233c2.559-4.193,2.407-11.184,2.3-15.813-.313-14.4-11.46-26.3-26.4-29.709.465.041.934.058,1.391.107a57.54,57.54,0,0,1,11.649,2.2,53.994,53.994,0,0,1,7.987,2.852c.963.375,1.687.741,2.2.963s.774.354.774.354l-.7-.49c-.453-.317-1.107-.819-1.987-1.37a54.965,54.965,0,0,0-7.695-3.983,59.814,59.814,0,0,0-11.9-3.234,57.065,57.065,0,0,0-14.208-.185,57.325,57.325,0,0,0-13.7,3.757,60.026,60.026,0,0,0-10.7,6.135,54.74,54.74,0,0,0-6.44,5.789c-.716.753-1.222,1.407-1.584,1.823s-.551.65-.551.65.235-.185.662-.539,1.045-.88,1.885-1.485a52.75,52.75,0,0,1,5.526-3.876c-7.012,5.934-11.435,13.768-11.262,21.87.173,7.925,4.292,15.262,11.6,20.66a37.416,37.416,0,0,0,4.119,2.6c-2.889-.753-5.287-1.522-6.95-2.115-1.724-.551-2.707-.905-2.707-.905s.881.551,2.461,1.465c1.6.868,3.934,2.041,6.822,3.28a88.991,88.991,0,0,0,10.225,3.283,88.524,88.524,0,0,0,12.209,1.864,66.342,66.342,0,0,0,12.4-.485,43.084,43.084,0,0,0,10.415-3.074,33.856,33.856,0,0,0,6.473-4.045,26.46,26.46,0,0,0,2.1-1.967,26.148,26.148,0,0,1-2.444,1.461,32.564,32.564,0,0,1-6.777,2.9,38.365,38.365,0,0,1-5.641,1.428C250.67,373.034,257.114,368.87,260.554,363.233ZM225.9,374.454c-9.242.2-18-2.387-24.623-7.283-6.5-4.806-10.168-11.266-10.316-18.191-.136-6.143,2.917-12.213,7.892-17.208-4.012,4.81-6.4,10.46-6.283,16.175a21.985,21.985,0,0,0,.35,3.423c2.457-13.2,17.459-25.026,33.848-25.4,17.677-.4,30.392,12.661,31.256,27.042.144-2.333.111-4.674.074-6.567a27.823,27.823,0,0,0-6.724-17.3,27.116,27.116,0,0,1,8.328,18.348c.09,4,.234,10.7-1.844,14.11C253.081,369.43,241.432,374.116,225.9,374.454Z" transform="translate(-187.808 -314.568)" fill="#edfd27"/>
        </g>
      </g>
      <g id="Group_4298" data-name="Group 4298" transform="translate(353.129 434.199)">
        <g id="Group_4297" data-name="Group 4297">
          <path id="Path_10083" data-name="Path 10083" d="M246.428,316.122a35.918,35.918,0,0,0-3.3-3.909c-1.259-1.132-2.5-2.206-3.543-3.263a18.269,18.269,0,0,1-2.761-2.967,11.244,11.244,0,0,1-1.609-2.448,8.4,8.4,0,0,1-.51-1.053,9.172,9.172,0,0,0-.082,1.2,12.162,12.162,0,0,0,.658,3.156,20.023,20.023,0,0,0,1.987,3.518,18.7,18.7,0,0,0-13.974,1.761c.461-.35.918-.675,1.358-.971a29.06,29.06,0,0,1,4.152-2.58c1.041-.6,1.667-.9,1.667-.9s-.687.086-1.884.325a30.785,30.785,0,0,0-4.81,1.613,33.858,33.858,0,0,0-6.131,3.88c-.259.226-.514.477-.769.716l-4.88-2.029,2.457,4.522a25.025,25.025,0,0,0-5.736,10.756,33.534,33.534,0,0,0-.955,7.188,31.083,31.083,0,0,0,.547,5.045c.288,1.189.494,1.847.494,1.847s.012-.7.115-1.889a29.365,29.365,0,0,1,.6-4.851,31.168,31.168,0,0,1,1.667-6.164c-1.691,7.361-.263,14.9,3.658,19.9-.584-.165-1.169-.333-1.732-.457a31.1,31.1,0,0,0-4.341-.358,29.1,29.1,0,0,0-3.053.342l-1.132.288,1.115.317c.7.161,1.7.42,2.847.8a29.244,29.244,0,0,1,3.86,1.247,30.142,30.142,0,0,1,4.263,1.712c1.506.56,3.082,1.185,4.674,1.609a13.984,13.984,0,0,0,4.139.226c.366.025.732.058,1.107.058,8.032,0,16.862-5.81,21.183-14.842a22.991,22.991,0,0,0,.119-20.3A16.691,16.691,0,0,0,246.428,316.122Zm-24.882,33.947a13.307,13.307,0,0,1-6.341-7.143,24.721,24.721,0,0,1,1.51-11.377c-.078.378-.144.745-.2,1.1a15.8,15.8,0,0,0-.041,3.959c.115.942.234,1.469.234,1.469s-.008-.543.07-1.477a20.916,20.916,0,0,1,.6-3.786,21.32,21.32,0,0,1,1.971-4.95,19.113,19.113,0,0,1,8.719-8.106,24.614,24.614,0,0,1,3.444-1.238,14.929,14.929,0,0,1,9.225,1.14,14.51,14.51,0,0,1,4.51,3.391,15.18,15.18,0,0,0-7.472-8.131,15.63,15.63,0,0,0-13.608.3,16.656,16.656,0,0,1,8.394-2.391,13.879,13.879,0,0,1,6.024,1.35c7.979,3.814,10.822,14.55,6.341,23.932C240.219,347.966,229.08,353.673,221.546,350.068Z" transform="translate(-204.585 -302.481)" fill="#edfd27"/>
        </g>
      </g>
      <g id="Group_4300" data-name="Group 4300" transform="translate(298.761 307.074)">
        <g id="Group_4299" data-name="Group 4299">
          <path id="Path_10084" data-name="Path 10084" d="M202.062,282.065a47.255,47.255,0,0,1-3.629,3.156,19.5,19.5,0,0,1-3.316,2.428,11.366,11.366,0,0,1-2.642,1.358,10.153,10.153,0,0,1-1.1.432,11.092,11.092,0,0,0,1.2.173,12.768,12.768,0,0,0,3.226-.329,21.75,21.75,0,0,0,3.419-1.436,24.689,24.689,0,0,0-2.185,8.505,6.145,6.145,0,0,1-3.082,1.547,7.4,7.4,0,0,0,3.012.938,28,28,0,0,0,4.172,13.821,28.46,28.46,0,0,1-3.535-5.02c-.469-.728-.741-1.35-.963-1.757s-.325-.634-.325-.634.062.234.177.683.255,1.132.555,1.954a29.616,29.616,0,0,0,3.263,6.526,36.308,36.308,0,0,0,6.423,6.814l-.284,3.148L209.177,323a37.248,37.248,0,0,0,9.094,4.325,40.644,40.644,0,0,0,8.518,1.35,10.29,10.29,0,0,0,3.724,5.481,8.57,8.57,0,0,1-.4-5.423h.053a46.8,46.8,0,0,0,10.209-1.745,48.113,48.113,0,0,0,6.715-2.745c1.539-.827,2.378-1.354,2.378-1.354s-.942.325-2.609.782c-.7.222-1.559.461-2.514.7,6.855-2.67,11.846-6.616,14.694-11.5.021.757.049,1.481.086,2.136.165,1.136.342,2.082.49,2.732.206.646.325,1.012.325,1.012s.1-.37.284-1.016c.136-.642.354-1.543.667-2.617.21-1.078.5-2.329.819-3.683.214-1.366.444-2.843.625-4.353a37.245,37.245,0,0,0-.148-4.522c-.128-.732-.284-1.428-.461-2.086-.037-.469-.07-.934-.136-1.411-1.646-11.748-11.381-22.162-24.22-25.919-13.056-3.819-24.619-.2-31.9,6.312C204.325,280.28,203.182,281.173,202.062,282.065Zm34.42-5.9c11.674,3.415,20.508,12.793,21.989,23.331,1.391,9.929-4.5,18.056-16.151,22.29-10.011,3.637-24.113,4.3-33.655-4.749a27.191,27.191,0,0,1-7.937-13.867,20.954,20.954,0,0,1,.128-2.584c.058.391.111.794.189,1.173a17.212,17.212,0,0,0,1.21,3.461,13.408,13.408,0,0,0,1.3,2.222l.588.77s-.115-.329-.321-.909c-.226-.564-.461-1.4-.741-2.391a28.243,28.243,0,0,1-.7-3.407,23.669,23.669,0,0,1-.251-3.938,24.08,24.08,0,0,1,.132-2.629c4.728-11.7,19.212-17.739,33.507-13.554,9.456,2.769,16.578,9.345,19.644,17.076-1.613-9.736-9.6-18.591-20.994-21.924a31.7,31.7,0,0,0-15.348-.671,33.765,33.765,0,0,1,8.127-.992A33.288,33.288,0,0,1,236.482,276.165Z" transform="translate(-191.372 -271.586)" fill="#edfd27"/>
        </g>
      </g>
      <g id="Group_4302" data-name="Group 4302" transform="translate(399.256 299.008)">
        <g id="Group_4301" data-name="Group 4301">
          <path id="Path_10085" data-name="Path 10085" d="M217.239,275.395a38.075,38.075,0,0,0,1.313,3.917,68.312,68.312,0,0,0,4.341,9.41,69.005,69.005,0,0,0,14.92,18.422,67.915,67.915,0,0,0,8.3,6.2,37.413,37.413,0,0,0,3.559,2.1c1.074.592,2.024,1.086,2.831,1.453,1.6.732,2.514,1.156,2.514,1.156l-2.37-1.424c-.774-.42-1.662-1-2.671-1.691-1.025-.667-2.164-1.432-3.366-2.325a84.267,84.267,0,0,1-7.884-6.481,84.688,84.688,0,0,1-14.661-18.093,84.43,84.43,0,0,1-4.7-9.061c-.625-1.362-1.144-2.629-1.576-3.773-.461-1.127-.848-2.119-1.1-2.959-.572-1.666-.9-2.617-.9-2.617s.222.983.609,2.7C216.593,273.189,216.881,274.218,217.239,275.395Z" transform="translate(-215.795 -269.626)" fill="#edfd27"/>
        </g>
      </g>
      <g id="Group_4304" data-name="Group 4304" transform="translate(406.017 306.645)">
        <g id="Group_4303" data-name="Group 4303">
          <path id="Path_10086" data-name="Path 10086" d="M219.882,277.2a60.587,60.587,0,0,0,3.152,5.559c1.292,1.946,2.761,3.975,4.312,5.934,1.625,1.9,3.333,3.72,5,5.362a60.76,60.76,0,0,0,4.847,4.156c1.465,1.165,2.79,2,3.691,2.592.926.572,1.457.9,1.457.9s-.461-.416-1.271-1.14c-.827-.7-1.946-1.769-3.3-3.024-1.378-1.23-2.847-2.81-4.46-4.448-1.592-1.654-3.214-3.493-4.757-5.4-1.576-1.872-3.074-3.819-4.395-5.7-1.3-1.9-2.568-3.638-3.514-5.222-.979-1.568-1.81-2.876-2.337-3.818l-.876-1.465.6,1.6C218.454,274.083,219.018,275.543,219.882,277.2Z" transform="translate(-217.438 -271.482)" fill="#edfd27"/>
        </g>
      </g>
      <g id="Group_4306" data-name="Group 4306" transform="translate(246.499 382.386)">
        <g id="Group_4305" data-name="Group 4305">
          <path id="Path_10087" data-name="Path 10087" d="M222.547,361.618c.876-.1,1.551-.264,2.016-.346l.708-.132s-.251-.012-.724-.029-1.152-.016-2.02-.107a38.424,38.424,0,0,1-6.633-.9c.457.021.905.053,1.362.053a34.894,34.894,0,0,0,4.93-.354A32.316,32.316,0,0,0,244,346.677c.662-.914,1.288-1.868,1.868-2.843-.56,1.49-1.16,2.88-1.769,4.119a42.7,42.7,0,0,1-2.839,5.316c-.732,1.272-1.2,1.979-1.2,1.979s.634-.556,1.687-1.609a43.936,43.936,0,0,0,3.889-4.81,47.4,47.4,0,0,0,4.041-7.835c.095-.255.173-.527.263-.79l4.835-.477-3.926-2.506a36.53,36.53,0,0,0,.967-16.262c-.07-.42-.16-.823-.243-1.23A31.153,31.153,0,0,0,246,303.781l.309-1.683-1.6-.025c-.235-.28-.5-.527-.745-.8l1.778-4.674-4.172,2.37c-.572-.494-1.132-.992-1.749-1.432-7.316-5.267-17.183-6.822-26.639-5.234l-1.926-2.415-.979,3.028c-8.666,2.074-16.714,6.794-21.759,13.8a32.312,32.312,0,0,0-5.6,24.417,36.935,36.935,0,0,1-1.136-3.823c-.251-.835-.374-1.506-.486-1.963s-.16-.7-.16-.7v.72c.012.469-.021,1.164.045,2.045a39.453,39.453,0,0,0,1.222,7.234c.049.169.119.35.173.523l-3.913,3.79,5.18-.346a34.558,34.558,0,0,0,7.345,11.46l-1.169,3.461,3.481-1.148c.35.321.683.658,1.045.975a42.407,42.407,0,0,0,4.728,3.226l-.815,5.3,4.242-3.489c.77.362,1.539.708,2.3,1.012a43.332,43.332,0,0,0,10.2,2.366A39.526,39.526,0,0,0,222.547,361.618Zm-29.326-55.673c-.193.251-.416.481-.6.741a29.63,29.63,0,0,0-2.827,29.408,29.266,29.266,0,0,1,5.036-22.129,31.167,31.167,0,0,1,10.661-9.028c-.716.494-1.407,1-2.062,1.531a32.718,32.718,0,0,0-5.728,6.123,29.013,29.013,0,0,0-2.917,5.127c-.564,1.3-.823,2.07-.823,2.07s.362-.728,1.095-1.93a36.57,36.57,0,0,1,3.345-4.728,37.111,37.111,0,0,1,5.876-5.592,33.977,33.977,0,0,1,17-6.74,37.292,37.292,0,0,1,8.11.053c.453.058.881.128,1.3.193a27.767,27.767,0,0,1,10.719,4.555,24.023,24.023,0,0,1,4.44,4.152,29.922,29.922,0,0,1,2.683,11.262,38.454,38.454,0,0,1-7.086,23.825,29.193,29.193,0,0,1-19.714,11.85,31.858,31.858,0,0,1-35.646-25.676,29.194,29.194,0,0,1,5-22.454A28.242,28.242,0,0,1,193.221,305.945Z" transform="translate(-178.671 -289.889)" fill="#edfd27"/>
        </g>
      </g>
      <g id="Group_4308" data-name="Group 4308" transform="translate(194.043 327.671)">
        <g id="Group_4307" data-name="Group 4307">
          <path id="Path_10088" data-name="Path 10088" d="M185.671,363l1.025-3.551a26.507,26.507,0,0,0,6.2-2.115,38.5,38.5,0,0,0,16.278-15.62c-.572,1.378-1.148,2.7-1.716,3.9a75.394,75.394,0,0,1-3.979,7.493c-1.062,1.769-1.671,2.782-1.671,2.782s.786-.885,2.168-2.432a76,76,0,0,0,5.037-7,82.594,82.594,0,0,0,4.588-9.291l6.3,1.556-5.028-4.987a76.689,76.689,0,0,0,2.872-12,75.49,75.49,0,0,0,.412-14.1c-.1-1-.222-1.971-.358-2.926v-.148a20.489,20.489,0,0,0,7.769-.745,18.393,18.393,0,0,1-7.942-3.58c-.736-7.954-3.67-13.11-8.818-15.373a14.023,14.023,0,0,0-2.214-.753c.531-.2,1.07-.383,1.584-.6a23.63,23.63,0,0,0,4.518-2.8,14.4,14.4,0,0,0,2.44-2.86,11.055,11.055,0,0,0,.613-1.263,11.37,11.37,0,0,1-1.066.86,13.031,13.031,0,0,1-2.971,1.79,21.118,21.118,0,0,1-4.5,1.72c-1.679.568-3.559,1.025-5.485,1.514a48.458,48.458,0,0,0-5.584,2.152,21.764,21.764,0,0,0-2.411,1.535c-8.3,4.25-16.591,13.706-22.158,26.372-7.892,17.953-7.341,35.564.625,43.3.309.432.613.86.918,1.28a48.868,48.868,0,0,1,3.177,4.008,17.576,17.576,0,0,1,2.292,3.687,11.4,11.4,0,0,1,1.132,2.926,9.3,9.3,0,0,1,.292,1.222,9.913,9.913,0,0,0,.321-1.251,12.759,12.759,0,0,0-.066-3.44,19.9,19.9,0,0,0-1.654-4.588c-.058-.1-.132-.2-.189-.3a16.051,16.051,0,0,0,4.168.547c.342,0,.7-.049,1.053-.07Zm-8.049-7.205c-10-4.395-11.419-23.232-3.173-41.987,6.366-14.484,16.661-24.722,25.623-26.631-8.238,2.5-17.22,11.678-22.845,24.466a58.785,58.785,0,0,0-4.4,15.081,61.664,61.664,0,0,1,3.156-9.04c7.769-17.677,21.977-28.528,31.729-24.236,4.1,1.8,6.209,5.921,6.95,11.427-.074,7.773-1.893,16.936-4.045,25.1-2.889,10.978-10.028,20.15-19.1,24.52C186.415,356.962,181.35,357.431,177.622,355.793Z" transform="translate(-165.923 -276.592)" fill="#edfd27"/>
        </g>
      </g>
      <g id="Group_4310" data-name="Group 4310" transform="translate(164.22 421.369)">
        <g id="Group_4309" data-name="Group 4309">
          <path id="Path_10089" data-name="Path 10089" d="M159.276,301.462c-.062-1.333-.1-2.1-.1-2.1s-.074.761-.206,2.094c-.095,1.333-.276,3.242-.284,5.543-.029,2.292-.021,4.983.181,7.851s.547,5.917.975,8.958c.523,3.024,1.144,6.032,1.815,8.822.7,2.794,1.506,5.353,2.238,7.53.716,2.181,1.469,3.95,1.967,5.189.531,1.23.835,1.93.835,1.93l-.547-2.029c-.379-1.28-.835-3.131-1.407-5.341-.6-2.2-1.127-4.81-1.753-7.584-.6-2.782-1.144-5.765-1.592-8.764-.494-2.991-.889-6-1.173-8.826-.247-2.835-.555-5.481-.65-7.756C159.444,304.7,159.309,302.795,159.276,301.462Z" transform="translate(-158.675 -299.363)" fill="#edfd27"/>
        </g>
      </g>
      <g id="Group_4312" data-name="Group 4312" transform="translate(166.838 432.273)">
        <g id="Group_4311" data-name="Group 4311">
          <path id="Path_10090" data-name="Path 10090" d="M160.005,315.374c.292,1.646.617,3.288.955,4.823s.79,2.934,1.144,4.131.769,2.177,1.016,2.864c.284.679.444,1.066.444,1.066l-.148-1.148c-.111-.716-.263-1.753-.453-2.983s-.424-2.662-.667-4.2c-.263-1.527-.518-3.156-.737-4.8-.284-1.625-.531-3.263-.737-4.8-.226-1.535-.444-2.971-.625-4.2s-.354-2.263-.469-2.983-.2-1.136-.2-1.136l-.1,1.152c-.033.728-.132,1.778-.111,3.029s.008,2.724.152,4.288S159.787,313.707,160.005,315.374Z" transform="translate(-159.311 -302.013)" fill="#edfd27"/>
        </g>
      </g>
      <g id="Group_4314" data-name="Group 4314" transform="translate(207.573 347.056)">
        <g id="Group_4313" data-name="Group 4313">
          <path id="Path_10091" data-name="Path 10091" d="M171.68,298.544a34.767,34.767,0,0,1,3.415-5.082A32.625,32.625,0,0,1,185.9,284.8a35.3,35.3,0,0,1,5.7-2.226,36.121,36.121,0,0,1,4.267-.963c1.049-.181,1.662-.247,1.662-.247s-.609-.045-1.683-.058a24.406,24.406,0,0,0-4.448.4,28.2,28.2,0,0,0-6.082,1.847,27.183,27.183,0,0,0-11.312,9.077,28.5,28.5,0,0,0-3.123,5.526,24.528,24.528,0,0,0-1.362,4.255c-.226,1.053-.313,1.658-.313,1.658s.2-.584.6-1.568A35.359,35.359,0,0,1,171.68,298.544Z" transform="translate(-169.211 -281.303)" fill="#edfd27"/>
        </g>
      </g>
      <g id="Group_4316" data-name="Group 4316" transform="translate(223.119 351.274)">
        <g id="Group_4315" data-name="Group 4315">
          <path id="Path_10092" data-name="Path 10092" d="M181.346,282.591a27.136,27.136,0,0,0-3.345.967,16.963,16.963,0,0,0-2.7,1.362,11.567,11.567,0,0,0-1.72,1.259c-.379.346-.592.539-.592.539l.749-.284c.461-.206,1.152-.424,1.946-.72.782-.325,1.753-.543,2.749-.864a41.63,41.63,0,0,1,6.431-1.156c1.037-.049,2.024-.181,2.872-.152.848,0,1.576-.033,2.078,0h.8s-.272-.107-.749-.3a12.179,12.179,0,0,0-2.049-.58,16.665,16.665,0,0,0-3-.333A27.493,27.493,0,0,0,181.346,282.591Z" transform="translate(-172.989 -282.328)" fill="#edfd27"/>
        </g>
      </g>
      <g id="Group_4318" data-name="Group 4318" transform="translate(223.678 291.404)">
        <g id="Group_4317" data-name="Group 4317">
          <path id="Path_10093" data-name="Path 10093" d="M173.125,279.723l.6-.625c.362-.407.938-.942,1.58-1.6.625-.679,1.461-1.366,2.284-2.156a34.907,34.907,0,0,1,2.757-2.267,33.538,33.538,0,0,1,2.9-2.082c.975-.593,1.847-1.23,2.666-1.662.806-.448,1.469-.872,1.954-1.115l.757-.432-.86.144a16.23,16.23,0,0,0-2.218.6,21.217,21.217,0,0,0-3,1.288,35.627,35.627,0,0,0-3.16,2.02,33.592,33.592,0,0,0-2.753,2.543,20.791,20.791,0,0,0-2.012,2.563,15.886,15.886,0,0,0-1.148,1.992C173.253,279.431,173.125,279.723,173.125,279.723Z" transform="translate(-173.125 -267.778)" fill="#edfd27"/>
        </g>
      </g>
      <g id="Group_4320" data-name="Group 4320" transform="translate(305.056 269.231)">
        <g id="Group_4319" data-name="Group 4319">
          <path id="Path_10094" data-name="Path 10094" d="M217.714,262.63c-1.4-.119-3.049-.259-4.814-.239s-3.65.132-5.53.3c-1.868.247-3.728.568-5.456.918-1.728.37-3.3.864-4.65,1.288s-2.424.9-3.185,1.206l-1.177.531s.461-.091,1.267-.243c.794-.181,1.954-.366,3.317-.638,1.362-.3,2.975-.5,4.678-.8s3.543-.522,5.378-.7c1.831-.23,3.674-.4,5.4-.494,1.728-.074,3.349-.234,4.74-.243,1.391-.029,2.559-.1,3.378-.1l1.292-.045s-.461-.1-1.267-.263C220.278,262.976,219.121,262.741,217.714,262.63Z" transform="translate(-192.902 -262.39)" fill="#edfd27"/>
        </g>
      </g>
      <g id="Group_4322" data-name="Group 4322" transform="translate(313.13 317.115)">
        <g id="Group_4321" data-name="Group 4321">
          <path id="Path_10095" data-name="Path 10095" d="M209.928,276.053a38.938,38.938,0,0,1,6.489-.658c2.09-.037,4.065-.066,5.757,0l4.106.1,1.564.012-1.535-.321c-.975-.16-2.37-.469-4.065-.671a51.175,51.175,0,0,0-5.835-.485,40.715,40.715,0,0,0-6.757.473,27.93,27.93,0,0,0-6.485,2.115,20.339,20.339,0,0,0-4.909,3.345,15.082,15.082,0,0,0-2.646,3.226,15.644,15.644,0,0,0-.749,1.383,15.152,15.152,0,0,1,.992-1.2,18.733,18.733,0,0,1,2.971-2.732,23.58,23.58,0,0,1,4.909-2.777A26.134,26.134,0,0,1,209.928,276.053Z" transform="translate(-194.864 -274.027)" fill="#edfd27"/>
        </g>
      </g>
      <g id="Group_4324" data-name="Group 4324" transform="translate(415.156 302.719)">
        <g id="Group_4323" data-name="Group 4323">
          <path id="Path_10096" data-name="Path 10096" d="M247.792,297.282c.691.889,1.086,1.4,1.086,1.4s-.3-.572-.827-1.564c-.556-.975-1.325-2.4-2.42-3.991a65.133,65.133,0,0,0-3.93-5.316c-1.568-1.843-3.321-3.745-5.152-5.576-1.893-1.757-3.86-3.436-5.765-4.93a64.812,64.812,0,0,0-5.456-3.736c-1.629-1.033-3.082-1.749-4.078-2.267-1.012-.49-1.592-.774-1.592-.774s.523.378,1.436,1.033c.926.63,2.206,1.6,3.736,2.736,1.559,1.115,3.251,2.568,5.1,4.07,1.831,1.522,3.716,3.226,5.526,5,1.843,1.749,3.613,3.572,5.205,5.341,1.564,1.8,3.082,3.432,4.251,4.942C246.113,295.143,247.133,296.377,247.792,297.282Z" transform="translate(-219.659 -270.528)" fill="#edfd27"/>
        </g>
      </g>
      <g id="Group_4326" data-name="Group 4326" transform="translate(423.928 313.027)">
        <g id="Group_4325" data-name="Group 4325">
          <path id="Path_10097" data-name="Path 10097" d="M236.522,288.484c-.634-1.008-1.358-2.21-2.259-3.4s-1.889-2.444-2.909-3.67c-1.078-1.173-2.185-2.321-3.251-3.37s-2.156-1.922-3.074-2.683-1.761-1.313-2.321-1.72c-.588-.383-.918-.6-.918-.6l.716.831c.461.514,1.123,1.255,1.918,2.136.819.852,1.691,1.926,2.7,2.991,1,1.082,2.033,2.255,3.045,3.457,1.053,1.156,2.082,2.345,3.02,3.477s1.876,2.148,2.6,3.074c.774.9,1.415,1.654,1.864,2.181l.732.819s-.177-.354-.473-.988C237.588,290.4,237.156,289.488,236.522,288.484Z" transform="translate(-221.791 -273.033)" fill="#edfd27"/>
        </g>
      </g>
      <g id="Group_4328" data-name="Group 4328" transform="translate(443.552 402.425)">
        <g id="Group_4327" data-name="Group 4327">
          <path id="Path_10098" data-name="Path 10098" d="M228.827,344.3a15.042,15.042,0,0,0,5.024-3.934,25.36,25.36,0,0,0,4.366-7.929,65.931,65.931,0,0,0,2.609-9.987,63.283,63.283,0,0,0,.8-10.283,58.583,58.583,0,0,0-.769-8.946,55.631,55.631,0,0,0-1.395-6.176c-.465-1.453-.728-2.284-.728-2.284s.16.856.432,2.354c.255,1.494.572,3.642.815,6.222a75.791,75.791,0,0,1,.284,8.818,62.261,62.261,0,0,1-.988,10.04,64.543,64.543,0,0,1-2.35,9.8,27.408,27.408,0,0,1-3.765,7.822,16.053,16.053,0,0,1-4.477,4.214,10.719,10.719,0,0,1-2.123,1.062A10.875,10.875,0,0,0,228.827,344.3Z" transform="translate(-226.56 -294.759)" fill="#edfd27"/>
        </g>
      </g>
      <g id="Group_4330" data-name="Group 4330" transform="translate(449.806 410.63)">
        <g id="Group_4329" data-name="Group 4329">
          <path id="Path_10099" data-name="Path 10099" d="M230.38,324.1a49.156,49.156,0,0,0,1.782-4.983c.523-1.868,1-3.884,1.387-5.917.3-2.053.51-4.111.63-6.049a48.259,48.259,0,0,0-.053-5.3c-.074-1.543-.292-2.823-.416-3.711-.156-.889-.247-1.395-.247-1.395s-.021.514-.062,1.415c0,.893-.095,2.173-.169,3.7-.041,1.527-.263,3.3-.42,5.189-.177,1.893-.457,3.9-.819,5.892-.309,2-.7,3.983-1.148,5.827-.469,1.839-.844,3.584-1.3,5.041-.432,1.461-.765,2.7-1.053,3.551-.259.86-.411,1.354-.411,1.354s.255-.449.691-1.234C229.183,326.676,229.8,325.544,230.38,324.1Z" transform="translate(-228.08 -296.753)" fill="#edfd27"/>
        </g>
      </g>
      <g id="Group_4332" data-name="Group 4332" transform="translate(372.819 462.974)">
        <g id="Group_4331" data-name="Group 4331">
          <path id="Path_10100" data-name="Path 10100" d="M228.923,310.7a24.6,24.6,0,0,1-1.033,3.123,23.671,23.671,0,0,1-2.16,4.037,21.108,21.108,0,0,1-7.645,6.872,23.34,23.34,0,0,1-4.242,1.712,24.029,24.029,0,0,1-3.218.691c-.794.128-1.255.165-1.255.165s.453.074,1.267.14a15.774,15.774,0,0,0,3.391-.136,18.137,18.137,0,0,0,4.65-1.35,17.412,17.412,0,0,0,8.213-7.374,18.06,18.06,0,0,0,1.839-4.477,15.425,15.425,0,0,0,.494-3.358c.021-.815,0-1.276,0-1.276S229.133,309.931,228.923,310.7Z" transform="translate(-209.37 -309.474)" fill="#edfd27"/>
        </g>
      </g>
      <g id="Group_4334" data-name="Group 4334" transform="translate(292.346 527.321)">
        <g id="Group_4333" data-name="Group 4333">
          <path id="Path_10101" data-name="Path 10101" d="M239.524,332.737a55.116,55.116,0,0,1-9.666,3.366,43.258,43.258,0,0,1-11.571,1.333,39.408,39.408,0,0,1-11.493-1.72,37.225,37.225,0,0,1-9.254-4.21,39.823,39.823,0,0,1-5.757-4.436c-1.292-1.2-1.971-1.959-1.971-1.959s.592.827,1.757,2.173a33.785,33.785,0,0,0,5.473,4.954,34.8,34.8,0,0,0,9.336,4.781,41.021,41.021,0,0,0,11.888,1.992,44.663,44.663,0,0,0,11.937-1.588,47.75,47.75,0,0,0,9.711-3.893,50.185,50.185,0,0,0,6.238-3.921c1.428-1.062,2.2-1.716,2.2-1.716s-.839.568-2.366,1.457A65.456,65.456,0,0,1,239.524,332.737Z" transform="translate(-189.813 -325.112)" fill="#edfd27"/>
        </g>
      </g>
      <g id="Group_4336" data-name="Group 4336" transform="translate(302.875 530.427)">
        <g id="Group_4335" data-name="Group 4335">
          <path id="Path_10102" data-name="Path 10102" d="M195.207,327.719a18.842,18.842,0,0,0,2.078,1.1,35.92,35.92,0,0,0,5.526,2.119,47.869,47.869,0,0,0,6.678,1.276,47.4,47.4,0,0,0,6.8-.008,34.862,34.862,0,0,0,5.822-1.053,18.374,18.374,0,0,0,2.251-.691c.663-.23,1.23-.449,1.691-.65.913-.411,1.436-.642,1.436-.642s-.556.127-1.531.354c-.477.136-1.074.247-1.753.37s-1.44.271-2.28.391a49.746,49.746,0,0,1-5.724.556,45.4,45.4,0,0,1-6.567-.193,46.446,46.446,0,0,1-6.481-1.033,51.635,51.635,0,0,1-5.526-1.609c-.8-.28-1.522-.555-2.16-.819a16.136,16.136,0,0,1-1.654-.691c-.918-.395-1.44-.629-1.44-.629s.469.329,1.292.9C194.08,327.048,194.6,327.369,195.207,327.719Z" transform="translate(-192.372 -325.867)" fill="#edfd27"/>
        </g>
      </g>
      <g id="Group_4338" data-name="Group 4338" transform="translate(218.457 493.049)">
        <g id="Group_4337" data-name="Group 4337">
          <path id="Path_10103" data-name="Path 10103" d="M172.621,319.8a15.336,15.336,0,0,0,.753,2.029,28.284,28.284,0,0,0,2.584,4.781,28.789,28.789,0,0,0,8.983,8.6,27.886,27.886,0,0,0,4.9,2.366,14.906,14.906,0,0,0,2.057.662c.621.173,1.165.3,1.621.383l1.42.247-1.333-.543a12.789,12.789,0,0,1-1.506-.646c-.58-.255-1.218-.555-1.905-.913a39.289,39.289,0,0,1-4.5-2.7,35.841,35.841,0,0,1-4.621-3.8,35.36,35.36,0,0,1-4-4.452,39.045,39.045,0,0,1-2.9-4.374c-.387-.671-.716-1.3-1-1.864a13.8,13.8,0,0,1-.716-1.477c-.379-.835-.6-1.309-.6-1.309s.115.514.309,1.411C172.267,318.643,172.424,319.182,172.621,319.8Z" transform="translate(-171.856 -316.783)" fill="#edfd27"/>
        </g>
      </g>
      <g id="Group_4340" data-name="Group 4340" transform="translate(224.826 498.554)">
        <g id="Group_4339" data-name="Group 4339">
          <path id="Path_10104" data-name="Path 10104" d="M174.893,320.866a21.21,21.21,0,0,0,1.975,2.531,21.429,21.429,0,0,0,5.781,4.551,20.983,20.983,0,0,0,2.93,1.325,15.871,15.871,0,0,0,2.173.634l.843.165-.732-.449c-.473-.255-1.119-.687-1.9-1.148-.794-.444-1.646-1.09-2.6-1.691-.938-.621-1.905-1.337-2.831-2.094-.959-.724-1.88-1.494-2.708-2.259-.811-.782-1.634-1.457-2.251-2.127-.638-.65-1.21-1.173-1.568-1.572-.387-.387-.6-.609-.6-.609s.128.284.354.782A16.615,16.615,0,0,0,174.893,320.866Z" transform="translate(-173.404 -318.121)" fill="#edfd27"/>
        </g>
      </g>
      <g id="Group_4342" data-name="Group 4342" transform="translate(270.986 419.731)">
        <g id="Group_4341" data-name="Group 4341">
          <path id="Path_10105" data-name="Path 10105" d="M193.185,325.83a31.845,31.845,0,0,0,9.332.444,28.7,28.7,0,0,0,10.3-3.16A24.827,24.827,0,0,0,220.931,316a32.934,32.934,0,0,0,4.205-8.341c.922-2.559,1.432-4.761,1.835-6.283.358-1.535.56-2.411.56-2.411s-.309.844-.852,2.321c-.523,1.486-1.333,3.58-2.366,6.053a36.644,36.644,0,0,1-4.477,7.843,23.37,23.37,0,0,1-7.773,6.551,27.279,27.279,0,0,1-9.711,3.189,34.591,34.591,0,0,1-9.032.037,44.165,44.165,0,0,1-6.333-1.28c-1.514-.424-2.366-.724-2.366-.724s.807.4,2.267,1.008A34.573,34.573,0,0,0,193.185,325.83Z" transform="translate(-184.622 -298.965)" fill="#edfd27"/>
        </g>
      </g>
      <g id="Group_4344" data-name="Group 4344" transform="translate(278.964 428.862)">
        <g id="Group_4343" data-name="Group 4343">
          <path id="Path_10106" data-name="Path 10106" d="M191.988,316.1a26.629,26.629,0,0,0,5.637-.531,30.5,30.5,0,0,0,6.185-2.066,30.142,30.142,0,0,0,5.473-3.551,26.28,26.28,0,0,0,3.93-4.074,22.92,22.92,0,0,0,2.16-3.337c.44-.852.662-1.354.662-1.354s-.321.449-.918,1.185a37.708,37.708,0,0,1-2.576,2.926,35.651,35.651,0,0,1-4.107,3.584,33.1,33.1,0,0,1-11.122,5.357,35.633,35.633,0,0,1-5.362.979,37.711,37.711,0,0,1-3.9.189c-.951.008-1.494-.021-1.494-.021s.523.136,1.465.321A22.657,22.657,0,0,0,191.988,316.1Z" transform="translate(-186.561 -301.184)" fill="#edfd27"/>
        </g>
      </g>
      <g id="Group_4346" data-name="Group 4346" transform="translate(183.329 293.126)">
        <g id="Group_4345" data-name="Group 4345">
          <path id="Path_10107" data-name="Path 10107" d="M169.578,330.8a58.832,58.832,0,0,1,5.534-8.7c2.325-2.987,5.5-5.551,8.888-8.345a69.021,69.021,0,0,0,9.7-9.851,15.23,15.23,0,0,1,1.16-1.3,7.614,7.614,0,0,1,1.276-1.119,10.873,10.873,0,0,1,1.444-.988,17.817,17.817,0,0,1,1.547-.893,51.252,51.252,0,0,1,6.724-2.905c4.666-1.7,9.554-3.024,14.463-4.312l3.683-1,1.852-.535c.592-.161,1.169-.337,1.778-.461,2.415-.543,4.913-.844,7.386-1.152s4.95-.56,7.394-.914a28.657,28.657,0,0,0,7.2-1.753c8.974-3.728,15.8-9.711,22.422-13.336a32.351,32.351,0,0,1,17.4-4.678c1.1.058,2.094.115,2.954.156.852.132,1.576.247,2.16.333l1.806.284s-.621-.128-1.79-.358c-.584-.119-1.309-.263-2.156-.432-.864-.082-1.852-.185-2.963-.292s-2.354,0-3.7-.021c-.675,0-1.366.144-2.094.214a16.3,16.3,0,0,0-2.234.35,34.594,34.594,0,0,0-9.806,3.662c-6.8,3.584-13.78,9.291-22.52,12.851a27.1,27.1,0,0,1-6.872,1.617c-2.411.329-4.876.58-7.366.86s-5.012.576-7.546,1.123c-.634.123-1.267.313-1.9.481l-1.81.51-3.675.967c-4.913,1.321-9.834,2.7-14.566,4.456a51.951,51.951,0,0,0-6.888,3.033,17.8,17.8,0,0,0-1.621.955,11.516,11.516,0,0,0-1.551,1.078,8.584,8.584,0,0,0-1.42,1.267,15.7,15.7,0,0,0-1.222,1.387,75.068,75.068,0,0,1-9.394,9.843c-3.28,2.819-6.51,5.567-8.834,8.662a54.185,54.185,0,0,0-5.362,8.983q-.969,2.117-1.815,3.954c-.514,1.234-.992,2.374-1.42,3.4-.848,2.057-1.42,3.708-1.856,4.818-.42,1.115-.646,1.712-.646,1.712s.251-.588.72-1.683,1.127-2.716,2.061-4.728c.461-1.012.975-2.127,1.535-3.341Q168.537,332.862,169.578,330.8Z" transform="translate(-163.319 -268.197)" fill="#edfd27"/>
        </g>
      </g>
      <g id="Group_4348" data-name="Group 4348" transform="translate(378.271 308.743)">
        <g id="Group_4347" data-name="Group 4347">
          <path id="Path_10108" data-name="Path 10108" d="M217.846,287.748a69.952,69.952,0,0,0,4.559,7.09c1.741,2.44,3.95,4.757,6.02,7.164a19.256,19.256,0,0,1,2.638,3.954,24.44,24.44,0,0,1,1.6,4.625,73.577,73.577,0,0,1,1.506,10.077,126.7,126.7,0,0,1,.555,20.154c-.354,6.431-1.057,12.422-1.815,17.545s-1.321,9.423-1.522,12.447c-.066,1.518-.111,2.7-.07,3.514l.025,1.243s.021-.428.058-1.239c.008-.81.128-1.991.292-3.489.329-3,1.185-7.226,2.09-12.332a159.482,159.482,0,0,0,2.3-17.611,128.638,128.638,0,0,0-.35-20.389,75.391,75.391,0,0,0-1.654-10.283,25.632,25.632,0,0,0-1.749-4.889,20.513,20.513,0,0,0-2.86-4.205c-2.177-2.481-4.362-4.646-6.156-6.987a65.843,65.843,0,0,1-4.7-6.835c-2.609-4.448-4.6-8.283-5.876-11.019-1.3-2.732-2.041-4.292-2.041-4.292s.642,1.609,1.765,4.415A111.909,111.909,0,0,0,217.846,287.748Z" transform="translate(-210.695 -271.992)" fill="#edfd27"/>
        </g>
      </g>
      <g id="Group_4350" data-name="Group 4350" transform="translate(296.711 372.889)">
        <g id="Group_4349" data-name="Group 4349">
          <path id="Path_10109" data-name="Path 10109" d="M254.484,303.633c-1.136,1.37-2.222,2.864-3.382,4.362-.494.811-.992,1.629-1.5,2.465a21.577,21.577,0,0,0-1.432,2.588c-.411.905-.827,1.827-1.247,2.753a29.6,29.6,0,0,0-1.029,2.905,47.644,47.644,0,0,0-2.2,12.542c-.095,2.169-.119,4.345-.111,6.514-.021,1.074.012,2.172-.049,3.226l-.078,1.6-.226,1.527a32.493,32.493,0,0,1-4.584,11.735c-2.325,3.465-5.962,5.6-9.394,7.822a54.6,54.6,0,0,0-4.946,3.535c-1.559,1.259-2.979,2.465-4.477,3.584A73.241,73.241,0,0,1,211,376.419a90.358,90.358,0,0,1-14.41,6.275c-3.6,1.222-5.72,1.765-5.72,1.765s2.136-.432,5.81-1.473a82.537,82.537,0,0,0,14.735-5.786,77.059,77.059,0,0,0,9.09-5.481c1.531-1.082,3.074-2.329,4.6-3.51,1.523-1.2,3.173-2.3,4.884-3.395s3.506-2.168,5.23-3.457a20.572,20.572,0,0,0,4.625-4.666,33.871,33.871,0,0,0,4.93-12.27l.239-1.712.07-1.666c.053-1.115.012-2.193.021-3.292-.025-2.164-.012-4.316.062-6.431a46.141,46.141,0,0,1,2.033-12.2c.333-.946.547-1.93.963-2.827.395-.9.782-1.8,1.169-2.687a20.415,20.415,0,0,1,1.337-2.539c.469-.819.934-1.634,1.391-2.436,1.1-1.486,2.115-2.971,3.193-4.341q1.759-1.944,3.4-3.74a80.676,80.676,0,0,1,12.274-9.777l5.069-3.189s-1.9,1.07-5.23,2.93a74.806,74.806,0,0,0-12.731,9.406C256.892,301.106,255.707,302.353,254.484,303.633Z" transform="translate(-190.874 -287.581)" fill="#edfd27"/>
        </g>
      </g>
      <g id="Group_4352" data-name="Group 4352" transform="translate(197.578 429.068)">
        <g id="Group_4351" data-name="Group 4351">
          <path id="Path_10110" data-name="Path 10110" d="M176.23,365a53.14,53.14,0,0,0-5.316-11.686c-1.148-2-2.675-4.02-2.44-6.147.284-2.3.918-4.765,1.448-7.176a145.491,145.491,0,0,0,2.592-14.451,38.628,38.628,0,0,0-.868-12.838,37.013,37.013,0,0,0-3.148-8.5c-1.02-1.938-1.716-2.971-1.716-2.971s.6,1.1,1.44,3.1a41.381,41.381,0,0,1,2.559,8.555,40.452,40.452,0,0,1,.374,12.509c-.56,4.58-1.667,9.419-2.769,14.262-.5,2.452-1.095,4.831-1.374,7.386a6.984,6.984,0,0,0,.9,3.876c.572,1.123,1.226,2.127,1.835,3.111a58.628,58.628,0,0,1,5.641,11.27c1.288,3.469,2.181,6.448,2.736,8.551s.868,3.308.868,3.308-.206-1.226-.572-3.378A73.45,73.45,0,0,0,176.23,365Z" transform="translate(-166.782 -301.234)" fill="#edfd27"/>
        </g>
      </g>
      <g id="Group_4354" data-name="Group 4354" transform="translate(255.115 320.285)">
        <g id="Group_4353" data-name="Group 4353">
          <path id="Path_10111" data-name="Path 10111" d="M182.456,275.385a18.212,18.212,0,0,1,4.074,2.3,17.9,17.9,0,0,1,4.448,4.806,17.286,17.286,0,0,1,2.539,7.007c.411,2.543.465,5.156.634,7.608a28.463,28.463,0,0,0,1.173,6.633,13.376,13.376,0,0,0,2.214,4.21,9.446,9.446,0,0,0,1.239,1.313,9.885,9.885,0,0,1-1.127-1.395,13.8,13.8,0,0,1-1.9-4.255,27.871,27.871,0,0,1-.913-6.551c-.14-2.432-.152-5.061-.539-7.682a18.1,18.1,0,0,0-2.744-7.263,18.37,18.37,0,0,0-4.765-4.794,17.155,17.155,0,0,0-4.283-2.078,11.946,11.946,0,0,0-1.284-.35l-.453-.1s.152.045.444.144A12.621,12.621,0,0,1,182.456,275.385Z" transform="translate(-180.765 -274.797)" fill="#edfd27"/>
        </g>
      </g>
      <g id="Group_4356" data-name="Group 4356" transform="translate(217.177 412.033)">
        <g id="Group_4355" data-name="Group 4355">
          <path id="Path_10112" data-name="Path 10112" d="M172.549,307.62a10.839,10.839,0,0,0,.5-1.626,17.079,17.079,0,0,0,.243-1.74,19.438,19.438,0,0,0-.021-2.012c-.091-.683-.21-1.358-.358-1.987-.185-.617-.374-1.185-.568-1.658a10.434,10.434,0,0,0-.8-1.5s.177.658.379,1.638a15.744,15.744,0,0,1,.321,1.662,17.667,17.667,0,0,1,.243,1.917,18.481,18.481,0,0,1,.123,1.93,15.487,15.487,0,0,1,0,1.7C172.594,306.937,172.549,307.62,172.549,307.62Z" transform="translate(-171.545 -297.094)" fill="#edfd27"/>
        </g>
      </g>
      <g id="Group_4358" data-name="Group 4358" transform="translate(210.984 414.139)">
        <g id="Group_4357" data-name="Group 4357">
          <path id="Path_10113" data-name="Path 10113" d="M171.221,308.449c.119-.926.218-1.922.288-2.917.025-1,.021-2-.012-2.934-.066-.934-.144-1.8-.243-2.547a23.915,23.915,0,0,0-.477-2.444s.016,1,.037,2.481c.025.741.021,1.6,0,2.522,0,.922-.033,1.905-.091,2.885-.033.983-.095,1.963-.177,2.88s-.144,1.778-.243,2.514c-.156,1.473-.263,2.465-.263,2.465s.342-.938.7-2.395C170.908,310.234,171.069,309.374,171.221,308.449Z" transform="translate(-170.04 -297.606)" fill="#edfd27"/>
        </g>
      </g>
      <g id="Group_4360" data-name="Group 4360" transform="translate(226.501 407.502)">
        <g id="Group_4359" data-name="Group 4359">
          <path id="Path_10114" data-name="Path 10114" d="M174.98,299.3c.259.593.535,1.23.811,1.86.309.617.617,1.239.905,1.815.313.568.6,1.1.856,1.551.535.893.93,1.469.93,1.469s-.185-.671-.527-1.658l-.638-1.65c-.259-.6-.539-1.226-.815-1.86-.3-.613-.617-1.234-.9-1.815l-.86-1.551c-.535-.889-.93-1.469-.93-1.469s.189.675.531,1.654C174.527,298.137,174.749,298.7,174.98,299.3Z" transform="translate(-173.811 -295.993)" fill="#edfd27"/>
        </g>
      </g>
      <g id="Group_4362" data-name="Group 4362" transform="translate(249.478 378.036)">
        <g id="Group_4361" data-name="Group 4361">
          <path id="Path_10115" data-name="Path 10115" d="M181.65,289.844c.7.259,1.527.514,2.428.769.9.218,1.88.411,2.864.572.988.115,1.975.185,2.909.222.934,0,1.8-.029,2.543-.09a21.06,21.06,0,0,0,2.444-.366s-.983-.029-2.457-.078c-.732-.008-1.584-.07-2.5-.148s-1.876-.173-2.839-.317c-.963-.123-1.922-.28-2.819-.461-.9-.165-1.736-.342-2.444-.527-1.432-.329-2.387-.588-2.387-.588A21.358,21.358,0,0,0,181.65,289.844Z" transform="translate(-179.395 -288.832)" fill="#edfd27"/>
        </g>
      </g>
      <g id="Group_4364" data-name="Group 4364" transform="translate(250.227 354.311)">
        <g id="Group_4363" data-name="Group 4363">
          <path id="Path_10116" data-name="Path 10116" d="M179.577,288.588a13.842,13.842,0,0,0,2.58.247,19.267,19.267,0,0,0,2.671-.218,22.059,22.059,0,0,0,2.971-.782,21.616,21.616,0,0,0,2.773-1.337,19.727,19.727,0,0,0,2.168-1.564,13.715,13.715,0,0,0,1.806-1.868,22.544,22.544,0,0,1-2.074,1.51,18.335,18.335,0,0,1-2.234,1.329,24.663,24.663,0,0,1-5.547,2.045,18.273,18.273,0,0,1-2.559.44A23,23,0,0,1,179.577,288.588Z" transform="translate(-179.577 -283.066)" fill="#edfd27"/>
        </g>
      </g>
      <g id="Group_4366" data-name="Group 4366" transform="translate(242.322 328.589)">
        <g id="Group_4365" data-name="Group 4365">
          <path id="Path_10117" data-name="Path 10117" d="M181.643,280.749c-.453.465-.926.905-1.391,1.3s-.893.774-1.288,1.066l-1.308,1.012a10.264,10.264,0,0,0,1.547-.646,16.61,16.61,0,0,0,1.469-.893c.506-.383,1.025-.815,1.522-1.276a19.4,19.4,0,0,0,1.292-1.5c.358-.523.675-1.016.918-1.457a10.117,10.117,0,0,0,.667-1.539s-.416.518-1.033,1.3c-.3.391-.671.823-1.082,1.267C182.557,279.839,182.108,280.309,181.643,280.749Z" transform="translate(-177.656 -276.815)" fill="#edfd27"/>
        </g>
      </g>
      <g id="Group_4368" data-name="Group 4368" transform="translate(331.527 366.379)">
        <g id="Group_4367" data-name="Group 4367">
          <path id="Path_10118" data-name="Path 10118" d="M199.816,291.2c.123.638.251,1.276.366,1.876.148.588.28,1.144.4,1.617.267.947.49,1.568.49,1.568s0-.658-.053-1.638c-.049-.49-.1-1.053-.16-1.667-.082-.6-.177-1.243-.267-1.889-.128-.638-.251-1.276-.37-1.876-.144-.593-.28-1.148-.4-1.621-.267-.946-.49-1.568-.49-1.568s0,.662.053,1.642c.045.49.1,1.053.16,1.662C199.631,289.908,199.726,290.55,199.816,291.2Z" transform="translate(-199.335 -285.999)" fill="#edfd27"/>
        </g>
      </g>
      <g id="Group_4370" data-name="Group 4370" transform="translate(363.396 355.603)">
        <g id="Group_4369" data-name="Group 4369">
          <path id="Path_10119" data-name="Path 10119" d="M209.265,292.05a13.65,13.65,0,0,0,1.411,1.609,9.815,9.815,0,0,0,1.65,1.251,18.6,18.6,0,0,1-1.321-1.547,13.11,13.11,0,0,1-1.173-1.691,17.727,17.727,0,0,1-1.868-4.267,13.651,13.651,0,0,1-.444-2,16.546,16.546,0,0,1-.235-2.02,9.736,9.736,0,0,0-.206,2.057,13.657,13.657,0,0,0,.222,2.127,15.772,15.772,0,0,0,.737,2.354A15.5,15.5,0,0,0,209.265,292.05Z" transform="translate(-207.08 -283.38)" fill="#edfd27"/>
        </g>
      </g>
      <g id="Group_4372" data-name="Group 4372" transform="translate(288.803 327.663)">
        <g id="Group_4371" data-name="Group 4371">
          <path id="Path_10120" data-name="Path 10120" d="M196.778,277.709c-.654.2-1.358.383-2.07.535-.7.181-1.411.333-2.082.449-.671.136-1.3.247-1.848.317-1.095.16-1.827.271-1.827.271a13.975,13.975,0,0,0,1.856.165c.564,0,1.214-.029,1.913-.074.7-.091,1.436-.21,2.173-.362.72-.193,1.436-.416,2.1-.65.646-.267,1.247-.531,1.745-.786a13.919,13.919,0,0,0,1.584-.983l-1.757.572C198.05,277.347,197.433,277.532,196.778,277.709Z" transform="translate(-188.952 -276.59)" fill="#edfd27"/>
        </g>
      </g>
      <g id="Group_4374" data-name="Group 4374" transform="translate(294.642 331.708)">
        <g id="Group_4373" data-name="Group 4373">
          <path id="Path_10121" data-name="Path 10121" d="M193.412,278.211c-.391.148-.782.292-1.144.424-.358.16-.691.313-.979.44-.56.292-.918.527-.918.527a9.688,9.688,0,0,0,1.053-.107c.309-.062.667-.132,1.049-.21.379-.1.778-.21,1.177-.321l1.148-.424c.358-.156.691-.313.975-.44.56-.288.922-.527.922-.527s-.432.016-1.058.107c-.309.058-.667.132-1.049.21C194.214,277.993,193.815,278.1,193.412,278.211Z" transform="translate(-190.371 -277.573)" fill="#edfd27"/>
        </g>
      </g>
      <g id="Group_4376" data-name="Group 4376" transform="translate(221.411 448.305)">
        <g id="Group_4375" data-name="Group 4375">
          <path id="Path_10122" data-name="Path 10122" d="M173.38,319.7a16.377,16.377,0,0,0,.58-2.127c.123-.65.226-1.42.309-2.247.049-.827.058-1.716.033-2.6-.074-.885-.189-1.761-.333-2.58-.181-.811-.366-1.564-.568-2.193a16.434,16.434,0,0,0-.827-2.041s.185.864.4,2.152c.132.634.235,1.391.325,2.193.107.8.181,1.658.222,2.518.062.86.086,1.72.074,2.527,0,.815-.012,1.572-.066,2.218C173.463,318.821,173.38,319.7,173.38,319.7Z" transform="translate(-172.574 -305.909)" fill="#edfd27"/>
        </g>
      </g>
      <g id="Group_4378" data-name="Group 4378" transform="translate(225.769 453.806)">
        <g id="Group_4377" data-name="Group 4377">
          <path id="Path_10123" data-name="Path 10123" d="M173.962,308.073c-.054.251-.115.539-.185.852-.037.313-.082.646-.123.988,0,.333-.012.675-.021.992.021.317.041.613.058.868a8,8,0,0,0,.16.86,8.688,8.688,0,0,0,.28-.831c.053-.247.115-.535.181-.852.041-.313.086-.65.128-.983.008-.337.016-.675.021-.992-.021-.317-.037-.613-.058-.868a7.517,7.517,0,0,0-.156-.86A8.049,8.049,0,0,0,173.962,308.073Z" transform="translate(-173.633 -307.246)" fill="#edfd27"/>
        </g>
      </g>
      <g id="Group_4380" data-name="Group 4380" transform="translate(247.034 461.929)">
        <g id="Group_4379" data-name="Group 4379">
          <path id="Path_10124" data-name="Path 10124" d="M181.632,312.508c-.428.506-.839,1.02-1.214,1.522-.346.522-.658,1.008-.905,1.436a13.332,13.332,0,0,0-.712,1.5l1.074-1.247c.3-.383.675-.815,1.082-1.267.387-.465.815-.946,1.259-1.42.42-.49.856-.967,1.28-1.4.407-.457.8-.868,1.148-1.21l1.127-1.2a13.458,13.458,0,0,0-1.415.864c-.4.292-.856.658-1.333,1.053C182.566,311.561,182.093,312.022,181.632,312.508Z" transform="translate(-178.801 -309.22)" fill="#edfd27"/>
        </g>
      </g>
      <g id="Group_4382" data-name="Group 4382" transform="translate(259.53 495.814)">
        <g id="Group_4381" data-name="Group 4381">
          <path id="Path_10125" data-name="Path 10125" d="M183.616,318.319c.325-.012.671-.025,1.016-.041.342-.045.687-.095,1.008-.144.317-.074.617-.14.872-.2a7.821,7.821,0,0,0,.839-.3,7.156,7.156,0,0,0-.881-.14c-.263-.012-.568-.025-.893-.041-.325.012-.675.029-1.016.041-.346.045-.687.1-1.012.144-.317.07-.617.14-.872.2a8.507,8.507,0,0,0-.839.3,7.143,7.143,0,0,0,.881.14C182.982,318.29,183.286,318.307,183.616,318.319Z" transform="translate(-181.838 -317.455)" fill="#edfd27"/>
        </g>
      </g>
      <g id="Group_4384" data-name="Group 4384" transform="translate(257.16 513.17)">
        <g id="Group_4383" data-name="Group 4383">
          <path id="Path_10126" data-name="Path 10126" d="M191.417,325.792a25.672,25.672,0,0,0-2.469-1.683,26.175,26.175,0,0,0-2.7-1.28,25.3,25.3,0,0,0-2.485-.77,16.1,16.1,0,0,0-2.5-.387s.971.28,2.366.811c.708.243,1.51.584,2.354.971a25.671,25.671,0,0,1,2.576,1.337,26.477,26.477,0,0,1,2.452,1.547,22.365,22.365,0,0,1,2.029,1.535c1.165.934,1.9,1.629,1.9,1.629a16.942,16.942,0,0,0-1.6-1.958A24.19,24.19,0,0,0,191.417,325.792Z" transform="translate(-181.262 -321.673)" fill="#edfd27"/>
        </g>
      </g>
      <g id="Group_4386" data-name="Group 4386" transform="translate(239.298 546.635)">
        <g id="Group_4385" data-name="Group 4385">
          <path id="Path_10127" data-name="Path 10127" d="M183.521,329.847c-.568.041-1.177.09-1.786.136-.6.078-1.21.16-1.778.235-.564.107-1.09.2-1.539.284-.9.2-1.5.374-1.5.374s.621.053,1.539.062c.461-.012,1-.025,1.568-.041.572-.045,1.181-.086,1.79-.132.6-.078,1.21-.16,1.774-.239.568-.1,1.094-.2,1.543-.28.9-.2,1.494-.378,1.494-.378s-.617-.053-1.539-.062C184.628,329.814,184.1,329.835,183.521,329.847Z" transform="translate(-176.921 -329.806)" fill="#edfd27"/>
        </g>
      </g>
      <g id="Group_4388" data-name="Group 4388" transform="translate(198.101 504.994)">
        <g id="Group_4387" data-name="Group 4387">
          <path id="Path_10128" data-name="Path 10128" d="M169.88,326.266a24.006,24.006,0,0,0-.761-2.568,22.312,22.312,0,0,0-.975-2.119,14.886,14.886,0,0,0-1.234-1.893s.374.827.835,2.078c.251.621.494,1.358.728,2.156a24.873,24.873,0,0,1,.638,2.51,23.512,23.512,0,0,1,.44,2.551,22.7,22.7,0,0,1,.21,2.263c.09,1.333.082,2.243.082,2.243a14.659,14.659,0,0,0,.358-2.238,22.4,22.4,0,0,0,.029-2.325A23.933,23.933,0,0,0,169.88,326.266Z" transform="translate(-166.909 -319.686)" fill="#edfd27"/>
        </g>
      </g>
      <g id="Group_4390" data-name="Group 4390" transform="translate(202.693 511.833)">
        <g id="Group_4389" data-name="Group 4389">
          <path id="Path_10129" data-name="Path 10129" d="M168.692,322.336a9.9,9.9,0,0,0-.2-.988s-.124.387-.243.979c-.045.292-.095.634-.148,1-.025.371-.053.765-.078,1.156.008.395.017.79.021,1.156.037.37.07.716.1,1.016.091.589.2.988.2.988s.119-.391.243-.979c.041-.3.091-.638.144-1.008.029-.366.053-.761.082-1.156-.008-.391-.016-.786-.025-1.156C168.753,322.977,168.72,322.632,168.692,322.336Z" transform="translate(-168.025 -321.348)" fill="#edfd27"/>
        </g>
      </g>
      <g id="Group_4392" data-name="Group 4392" transform="translate(185.061 491.917)">
        <g id="Group_4391" data-name="Group 4391">
          <path id="Path_10130" data-name="Path 10130" d="M168.332,323.968c-.218-.728-.494-1.5-.8-2.251-.354-.732-.741-1.448-1.136-2.1-.428-.634-.844-1.206-1.234-1.675a13.042,13.042,0,0,0-1.42-1.436s.453.671,1.062,1.7a19.916,19.916,0,0,1,1,1.761c.358.646.7,1.354,1.008,2.074.329.712.63,1.44.872,2.136.259.691.482,1.35.638,1.926.354,1.136.551,1.922.551,1.922a12.854,12.854,0,0,0-.119-2.02C168.665,325.4,168.513,324.709,168.332,323.968Z" transform="translate(-163.74 -316.508)" fill="#edfd27"/>
        </g>
      </g>
      <g id="Group_4394" data-name="Group 4394" transform="translate(183.95 451.674)">
        <g id="Group_4393" data-name="Group 4393">
          <path id="Path_10131" data-name="Path 10131" d="M168.3,307.592c-.4-.123-.831-.247-1.263-.375-.44-.09-.876-.181-1.288-.271-.42-.058-.806-.111-1.14-.16-.679-.062-1.14-.058-1.14-.058s.4.218,1.033.49c.313.115.687.247,1.082.391.4.119.831.247,1.263.37.436.095.876.185,1.288.271l1.14.165c.679.058,1.14.053,1.14.053s-.4-.218-1.029-.486C169.07,307.868,168.7,307.736,168.3,307.592Z" transform="translate(-163.47 -306.728)" fill="#edfd27"/>
        </g>
      </g>
      <g id="Group_4396" data-name="Group 4396" transform="translate(170.416 388.031)">
        <g id="Group_4395" data-name="Group 4395">
          <path id="Path_10132" data-name="Path 10132" d="M164.164,293.656a24.087,24.087,0,0,1-.42,2.411,27.144,27.144,0,0,1-.683,2.708c-.259.914-.56,1.815-.885,2.646s-.63,1.613-.946,2.259c-.592,1.313-1.049,2.173-1.049,2.173a17.226,17.226,0,0,0,1.436-1.963c.387-.621.786-1.378,1.189-2.2A28.293,28.293,0,0,0,163.814,299a27.618,27.618,0,0,0,.6-2.815c.107-.914.177-1.765.189-2.5a17.065,17.065,0,0,0-.152-2.424S164.378,292.232,164.164,293.656Z" transform="translate(-160.181 -291.261)" fill="#edfd27"/>
        </g>
      </g>
      <g id="Group_4398" data-name="Group 4398" transform="translate(286.737 476.606)">
        <g id="Group_4397" data-name="Group 4397">
          <path id="Path_10133" data-name="Path 10133" d="M193.647,318.593c-.514-.839-1.07-1.65-1.629-2.386-.592-.708-1.16-1.346-1.687-1.86a16.5,16.5,0,0,0-1.88-1.56s.658.724,1.551,1.86a24.347,24.347,0,0,1,1.469,1.971,35.824,35.824,0,0,1,2.8,4.851c.387.811.728,1.576.971,2.255.535,1.341.831,2.275.831,2.275a16.726,16.726,0,0,0-.412-2.407c-.177-.712-.448-1.527-.761-2.395A28.753,28.753,0,0,0,193.647,318.593Z" transform="translate(-188.45 -312.787)" fill="#edfd27"/>
        </g>
      </g>
      <g id="Group_4400" data-name="Group 4400" transform="translate(323.218 471.664)">
        <g id="Group_4399" data-name="Group 4399">
          <path id="Path_10134" data-name="Path 10134" d="M197.9,319.972c.008-.469.045-1.02.1-1.6.029-.58.086-1.2.169-1.815.053-.621.128-1.239.222-1.815.074-.58.156-1.123.251-1.584.152-.938.255-1.568.255-1.568a11.977,11.977,0,0,0-.683,1.448c-.165.457-.329.992-.494,1.572-.128.588-.243,1.222-.333,1.86-.049.642-.074,1.284-.07,1.885.033.6.078,1.169.144,1.642a11.482,11.482,0,0,0,.358,1.564S197.851,320.918,197.9,319.972Z" transform="translate(-197.316 -311.586)" fill="#edfd27"/>
        </g>
      </g>
      <g id="Group_4402" data-name="Group 4402" transform="translate(327.663 470.607)">
        <g id="Group_4401" data-name="Group 4401">
          <path id="Path_10135" data-name="Path 10135" d="M199.824,314.987c.115-.453.226-.9.333-1.321.082-.424.156-.827.222-1.168.095-.7.115-1.169.115-1.169s-.239.411-.539,1.045c-.132.321-.288.7-.453,1.1-.14.411-.284.852-.432,1.288-.115.449-.23.9-.337,1.317-.082.428-.156.827-.222,1.169-.095.7-.115,1.173-.115,1.173s.243-.411.539-1.045c.132-.321.288-.7.453-1.1C199.528,315.863,199.676,315.423,199.824,314.987Z" transform="translate(-198.396 -311.329)" fill="#edfd27"/>
        </g>
      </g>
      <g id="Group_4404" data-name="Group 4404" transform="translate(360.972 502.381)">
        <g id="Group_4403" data-name="Group 4403">
          <path id="Path_10136" data-name="Path 10136" d="M214.527,319.153c-.51.082-1.1.21-1.728.366-.617.193-1.267.428-1.905.691-.621.3-1.226.638-1.782.979-.531.366-1.016.724-1.411,1.057a11.349,11.349,0,0,0-1.21,1.222l1.465-.86c.428-.272.942-.551,1.5-.831.547-.3,1.148-.588,1.761-.848.6-.288,1.21-.547,1.8-.765s1.132-.436,1.613-.576c.967-.325,1.613-.535,1.613-.535A10.866,10.866,0,0,0,214.527,319.153Z" transform="translate(-206.491 -319.051)" fill="#edfd27"/>
        </g>
      </g>
      <g id="Group_4406" data-name="Group 4406" transform="translate(358.388 535.938)">
        <g id="Group_4405" data-name="Group 4405">
          <path id="Path_10137" data-name="Path 10137" d="M212.175,329.851a13.841,13.841,0,0,0-1.465-1.193,14.769,14.769,0,0,0-1.683-.86,13.489,13.489,0,0,0-1.576-.457,7.541,7.541,0,0,0-1.588-.132s.609.193,1.461.555a11.434,11.434,0,0,1,1.42.658,12.535,12.535,0,0,1,1.535.9,12.308,12.308,0,0,1,1.444,1.037A11.382,11.382,0,0,1,212.9,331.4c.675.629,1.1,1.1,1.1,1.1a7.548,7.548,0,0,0-.761-1.395A11.99,11.99,0,0,0,212.175,329.851Z" transform="translate(-205.863 -327.206)" fill="#edfd27"/>
        </g>
      </g>
      <g id="Group_4408" data-name="Group 4408" transform="translate(282.507 536.826)">
        <g id="Group_4407" data-name="Group 4407">
          <path id="Path_10138" data-name="Path 10138" d="M189.94,329.9a12.645,12.645,0,0,0-1.913,3.654,17.873,17.873,0,0,0-.444,1.745,10.594,10.594,0,0,0-.161,1.741s.218-.667.588-1.625a16.445,16.445,0,0,1,.654-1.613,31.039,31.039,0,0,1,1.839-3.518,16.626,16.626,0,0,1,.955-1.457c.572-.848,1-1.407,1-1.407a10.622,10.622,0,0,0-1.337,1.123A16.956,16.956,0,0,0,189.94,329.9Z" transform="translate(-187.422 -327.422)" fill="#edfd27"/>
        </g>
      </g>
      <g id="Group_4410" data-name="Group 4410" transform="translate(351.261 441.223)">
        <g id="Group_4409" data-name="Group 4409">
          <path id="Path_10139" data-name="Path 10139" d="M205.448,306.32l.872,1.14c.325.366.65.732.959,1.078l.889.893c.551.5.95.8.95.8s-.222-.448-.609-1.086c-.206-.3-.449-.658-.708-1.037-.276-.366-.576-.757-.872-1.148-.325-.366-.65-.732-.955-1.074-.325-.325-.634-.63-.893-.889-.547-.5-.951-.807-.951-.807s.222.453.609,1.086Z" transform="translate(-204.131 -304.188)" fill="#edfd27"/>
        </g>
      </g>
      <g id="Group_4412" data-name="Group 4412" transform="translate(377.02 421.731)">
        <g id="Group_4411" data-name="Group 4411">
          <path id="Path_10140" data-name="Path 10140" d="M211.761,301.644a19.069,19.069,0,0,1,.658-2.193,11.208,11.208,0,0,0-1.082,2.057,15.656,15.656,0,0,0-.687,2.3,17.908,17.908,0,0,0-.259,2.753,17.72,17.72,0,0,0,.313,2.745,15.671,15.671,0,0,0,.728,2.288,11.2,11.2,0,0,0,1.119,2.037,18.877,18.877,0,0,1-.7-2.181,15.056,15.056,0,0,1-.477-2.267,17.072,17.072,0,0,1-.2-2.629,17.285,17.285,0,0,1,.148-2.638A15.123,15.123,0,0,1,211.761,301.644Z" transform="translate(-210.391 -299.451)" fill="#edfd27"/>
        </g>
      </g>
      <g id="Group_4414" data-name="Group 4414" transform="translate(346.797 476.096)">
        <g id="Group_4413" data-name="Group 4413">
          <path id="Path_10141" data-name="Path 10141" d="M204.593,314.807c-.934.366-1.547.654-1.547.654s.671-.062,1.662-.222c.49-.095,1.062-.214,1.675-.333l1.9-.461,1.868-.568,1.617-.564c.934-.366,1.543-.65,1.543-.65s-.671.066-1.662.226c-.49.095-1.062.214-1.675.333-.6.144-1.251.3-1.9.461-.638.193-1.276.383-1.872.564C205.614,314.453,205.066,314.646,204.593,314.807Z" transform="translate(-203.046 -312.663)" fill="#edfd27"/>
        </g>
      </g>
      <g id="Group_4416" data-name="Group 4416" transform="translate(386.327 486.811)">
        <g id="Group_4415" data-name="Group 4415">
          <path id="Path_10142" data-name="Path 10142" d="M215.093,318.505c-.173-.3-.354-.629-.535-.95-.214-.3-.424-.6-.621-.889-.222-.267-.428-.518-.6-.732a8.52,8.52,0,0,0-.679-.667s.1.374.3.9c.119.255.255.551.4.864.169.308.35.629.531.951.21.3.424.6.621.889.222.267.424.523.6.732a8.765,8.765,0,0,0,.679.662,8.346,8.346,0,0,0-.3-.893C215.373,319.114,215.237,318.818,215.093,318.505Z" transform="translate(-212.653 -315.267)" fill="#edfd27"/>
        </g>
      </g>
      <g id="Group_4418" data-name="Group 4418" transform="translate(415.863 456.406)">
        <g id="Group_4417" data-name="Group 4417">
          <path id="Path_10143" data-name="Path 10143" d="M224.423,311.7c-.675.621-1.325,1.263-1.909,1.893-.555.65-1.062,1.268-1.469,1.819a18.733,18.733,0,0,0-1.214,1.926l1.551-1.646c.457-.5,1.016-1.053,1.625-1.625.6-.592,1.255-1.193,1.93-1.774.667-.6,1.35-1.173,2.012-1.687.65-.531,1.276-1.012,1.827-1.4,1.094-.794,1.827-1.329,1.827-1.329a19.718,19.718,0,0,0-2.066.955c-.6.329-1.276.753-1.992,1.222C225.847,310.553,225.123,311.112,224.423,311.7Z" transform="translate(-219.831 -307.878)" fill="#edfd27"/>
        </g>
      </g>
      <g id="Group_4420" data-name="Group 4420" transform="translate(416.822 452.403)">
        <g id="Group_4419" data-name="Group 4419">
          <path id="Path_10144" data-name="Path 10144" d="M220.99,312.028c-.572.671-.926,1.148-.926,1.148s.506-.313,1.222-.819l1.181-.914c.416-.354.852-.737,1.3-1.115.411-.4.831-.807,1.222-1.189l1.02-1.09c.568-.667.918-1.144.918-1.144s-.506.3-1.218.815c-.346.272-.753.58-1.181.918-.416.354-.856.732-1.3,1.115-.416.4-.831.807-1.222,1.189Z" transform="translate(-220.064 -306.905)" fill="#edfd27"/>
        </g>
      </g>
      <g id="Group_4422" data-name="Group 4422" transform="translate(411.971 397.861)">
        <g id="Group_4421" data-name="Group 4421">
          <path id="Path_10145" data-name="Path 10145" d="M222.444,296.633a11.194,11.194,0,0,1-1.395-.946,10.34,10.34,0,0,1-1.123-.975,13.633,13.633,0,0,1-1.041-1.062,6.674,6.674,0,0,0,.7,1.346A10.615,10.615,0,0,0,220.6,296.2a12.324,12.324,0,0,0,1.432,1.107,11.737,11.737,0,0,0,1.646.757,10.554,10.554,0,0,0,1.535.342,6.824,6.824,0,0,0,1.522,0s-.6-.144-1.424-.436a9.444,9.444,0,0,1-1.383-.543A10.6,10.6,0,0,1,222.444,296.633Z" transform="translate(-218.885 -293.65)" fill="#edfd27"/>
        </g>
      </g>
      <g id="Group_4424" data-name="Group 4424" transform="translate(423.862 371.753)">
        <g id="Group_4423" data-name="Group 4423">
          <path id="Path_10146" data-name="Path 10146" d="M226.873,292.839c-.4-.506-.831-1.045-1.259-1.576l-1.337-1.518c-.453-.461-.868-.893-1.226-1.267-.745-.72-1.276-1.173-1.276-1.173s.354.6.938,1.457c.3.42.662.905,1.041,1.428.4.5.827,1.041,1.259,1.576.453.518.909,1.033,1.337,1.514.449.465.868.9,1.222,1.268.745.724,1.276,1.173,1.276,1.173s-.354-.6-.934-1.457Z" transform="translate(-221.775 -287.305)" fill="#edfd27"/>
        </g>
      </g>
      <g id="Group_4426" data-name="Group 4426" transform="translate(430.943 363.507)">
        <g id="Group_4425" data-name="Group 4425">
          <path id="Path_10147" data-name="Path 10147" d="M227.4,292.6a16.062,16.062,0,0,1-1.345-1.765,16.493,16.493,0,0,1-1.132-1.913,15.228,15.228,0,0,1-.794-1.786c-.42-1.074-.63-1.831-.63-1.831a9.478,9.478,0,0,0,.21,1.955,14.477,14.477,0,0,0,.593,1.946,16.5,16.5,0,0,0,1.1,2.066,16.294,16.294,0,0,0,1.5,1.8,14.159,14.159,0,0,0,1.576,1.288,9.316,9.316,0,0,0,1.736.926,18.855,18.855,0,0,1-1.461-1.272A14.111,14.111,0,0,1,227.4,292.6Z" transform="translate(-223.496 -285.301)" fill="#edfd27"/>
        </g>
      </g>
      <g id="Group_4428" data-name="Group 4428" transform="translate(265.307 456.016)">
        <g id="Group_4427" data-name="Group 4427">
          <path id="Path_10148" data-name="Path 10148" d="M185.592,311.63c.234-.469.469-.934.691-1.366.2-.453.379-.872.535-1.23.284-.737.432-1.251.432-1.251s-.35.4-.819,1.037l-.749,1.115c-.247.42-.514.868-.778,1.317-.239.465-.473.93-.691,1.366-.2.448-.383.868-.539,1.23-.284.733-.432,1.247-.432,1.247s.35-.4.819-1.037c.222-.325.477-.7.749-1.111Z" transform="translate(-183.242 -307.783)" fill="#edfd27"/>
        </g>
      </g>
      <g id="Group_4430" data-name="Group 4430" transform="translate(238.129 425.978)">
        <g id="Group_4429" data-name="Group 4429">
          <path id="Path_10149" data-name="Path 10149" d="M184.867,301.076c-.432.189-.955.37-1.514.551s-1.152.371-1.761.523a17.7,17.7,0,0,1-1.782.428c-.576.123-1.119.226-1.588.28-.951.144-1.584.234-1.584.234a10.15,10.15,0,0,0,1.609.21c.485.017,1.053-.008,1.666-.049.6-.078,1.247-.2,1.885-.346a18.655,18.655,0,0,0,1.806-.646c.547-.268,1.049-.535,1.465-.79a9.512,9.512,0,0,0,1.288-.987S185.76,300.722,184.867,301.076Z" transform="translate(-176.637 -300.483)" fill="#edfd27"/>
        </g>
      </g>
      <g id="Group_4432" data-name="Group 4432" transform="translate(284.47 372.407)">
        <g id="Group_4431" data-name="Group 4431">
          <path id="Path_10150" data-name="Path 10150" d="M188.294,296.13s.111-.543.218-1.354c.037-.407.078-.88.123-1.391.016-.506.033-1.049.049-1.588-.016-.539-.033-1.082-.049-1.588-.045-.51-.086-.983-.119-1.391-.107-.811-.222-1.354-.222-1.354s-.115.543-.222,1.354c-.037.407-.078.88-.119,1.391-.017.506-.033,1.049-.054,1.588.021.539.037,1.082.054,1.588.045.51.086.983.119,1.391C188.179,295.587,188.294,296.13,188.294,296.13Z" transform="translate(-187.899 -287.464)" fill="#edfd27"/>
        </g>
      </g>
      <g id="Group_4434" data-name="Group 4434" transform="translate(315.047 387.653)">
        <g id="Group_4433" data-name="Group 4433">
          <path id="Path_10151" data-name="Path 10151" d="M201.79,293.037c-.58.387-1.2.794-1.819,1.206-.6.436-1.2.876-1.757,1.288-.543.436-1.053.839-1.489,1.185-.852.728-1.395,1.247-1.395,1.247s.675-.333,1.646-.885c.477-.288,1.033-.625,1.629-.988.58-.383,1.2-.794,1.819-1.206.6-.436,1.2-.876,1.757-1.288.547-.432,1.053-.835,1.49-1.185.852-.724,1.395-1.243,1.395-1.243s-.671.329-1.646.88C202.942,292.338,202.387,292.675,201.79,293.037Z" transform="translate(-195.33 -291.169)" fill="#edfd27"/>
        </g>
      </g>
      <g id="Group_4436" data-name="Group 4436" transform="translate(318.734 434.841)">
        <g id="Group_4435" data-name="Group 4435">
          <path id="Path_10152" data-name="Path 10152" d="M199.008,302.67c-.514-.012-.992-.02-1.4-.033-.827.016-1.383.066-1.383.066s.527.173,1.329.37c.4.082.876.177,1.379.276.506.074,1.045.156,1.584.231.543.045,1.09.09,1.6.128.51.012.992.025,1.4.037.823-.012,1.378-.066,1.378-.066s-.531-.173-1.333-.375c-.4-.082-.872-.173-1.374-.276-.506-.07-1.045-.152-1.584-.226Z" transform="translate(-196.226 -302.637)" fill="#edfd27"/>
        </g>
      </g>
      <g id="Group_4438" data-name="Group 4438" transform="translate(309.669 308.328)">
        <g id="Group_4437" data-name="Group 4437">
          <path id="Path_10153" data-name="Path 10153" d="M198.887,272.924a12.491,12.491,0,0,1-1.794-.218,12.286,12.286,0,0,1-1.551-.354c-.909-.239-1.518-.461-1.518-.461a7.7,7.7,0,0,0,1.362.872,12.612,12.612,0,0,0,1.551.609,14.06,14.06,0,0,0,1.893.342,13.348,13.348,0,0,0,1.918-.066,11.036,11.036,0,0,0,1.629-.37,7.638,7.638,0,0,0,1.473-.667s-.638.136-1.572.239a11.927,11.927,0,0,1-1.584.119A12.746,12.746,0,0,1,198.887,272.924Z" transform="translate(-194.023 -271.891)" fill="#edfd27"/>
        </g>
      </g>
      <g id="Group_4440" data-name="Group 4440" transform="translate(343.497 279.681)">
        <g id="Group_4439" data-name="Group 4439">
          <path id="Path_10154" data-name="Path 10154" d="M203.923,267.67a11.315,11.315,0,0,0,1.469,1.206,11.149,11.149,0,0,0,1.712.815,10.119,10.119,0,0,0,1.6.37,6.606,6.606,0,0,0,1.592-.012,13.378,13.378,0,0,1-1.5-.424,9.782,9.782,0,0,1-1.444-.564,14.545,14.545,0,0,1-2.967-1.889,9.557,9.557,0,0,1-1.132-1.066,13.057,13.057,0,0,1-1.016-1.177,6.652,6.652,0,0,0,.667,1.44A9.873,9.873,0,0,0,203.923,267.67Z" transform="translate(-202.244 -264.929)" fill="#edfd27"/>
        </g>
      </g>
      <g id="Group_4442" data-name="Group 4442" transform="translate(277.784 277.627)">
        <g id="Group_4441" data-name="Group 4441">
          <path id="Path_10155" data-name="Path 10155" d="M188.06,269.154a17.606,17.606,0,0,0,1.8-.37,18.572,18.572,0,0,0,1.979-.745,19.377,19.377,0,0,0,1.823-1.078,17.9,17.9,0,0,0,1.415-1.177,10.382,10.382,0,0,0,1.169-1.354s-.572.432-1.448,1.008a16.441,16.441,0,0,1-1.506.946,19.352,19.352,0,0,1-1.794.946,18.505,18.505,0,0,1-1.856.806,16.993,16.993,0,0,1-1.679.588c-1,.321-1.691.5-1.691.5A11,11,0,0,0,188.06,269.154Z" transform="translate(-186.274 -264.43)" fill="#edfd27"/>
        </g>
      </g>
      <g id="Group_4444" data-name="Group 4444" transform="translate(253.708 290.597)">
        <g id="Group_4443" data-name="Group 4443">
          <path id="Path_10156" data-name="Path 10156" d="M183.966,269.516a15.343,15.343,0,0,0,2.2.086,14.916,14.916,0,0,0,2.169-.366,13.637,13.637,0,0,0,1.786-.675,9.042,9.042,0,0,0,1.568-.979s-.687.276-1.728.568a13.039,13.039,0,0,1-1.778.42,15.046,15.046,0,0,1-2.07.251,15.257,15.257,0,0,1-2.078.016,13.323,13.323,0,0,1-1.823-.193,17.46,17.46,0,0,1-1.786-.342,8.848,8.848,0,0,0,1.683.77A13.324,13.324,0,0,0,183.966,269.516Z" transform="translate(-180.423 -267.582)" fill="#edfd27"/>
        </g>
      </g>
      <g id="Group_4446" data-name="Group 4446" transform="translate(210.28 315.965)">
        <g id="Group_4445" data-name="Group 4445">
          <path id="Path_10157" data-name="Path 10157" d="M172.572,281.186a12.506,12.506,0,0,0,2.033-3.8,17.381,17.381,0,0,0,.449-1.823,10.437,10.437,0,0,0,.14-1.819s-.2.7-.568,1.708a15.575,15.575,0,0,1-.662,1.691,17.5,17.5,0,0,1-.9,1.86,18.681,18.681,0,0,1-1.045,1.786,16.081,16.081,0,0,1-1.041,1.485c-.634.864-1.107,1.42-1.107,1.42a10.553,10.553,0,0,0,1.436-1.123A18.494,18.494,0,0,0,172.572,281.186Z" transform="translate(-169.869 -273.747)" fill="#edfd27"/>
        </g>
      </g>
      <g id="Group_4448" data-name="Group 4448" transform="translate(382.554 293.091)">
        <g id="Group_4447" data-name="Group 4447">
          <path id="Path_10158" data-name="Path 10158" d="M215.571,270.554c.77.329,1.613.642,2.465.918.868.235,1.741.428,2.568.568.835.1,1.613.177,2.284.2a15.467,15.467,0,0,0,2.222-.107s-.885-.107-2.181-.337c-.65-.091-1.4-.243-2.2-.428s-1.642-.391-2.473-.65c-.835-.235-1.666-.506-2.428-.8-.769-.276-1.481-.556-2.078-.835-1.214-.51-2.016-.9-2.016-.9a16.376,16.376,0,0,0,1.81,1.292C214.123,269.826,214.814,270.184,215.571,270.554Z" transform="translate(-211.736 -268.188)" fill="#edfd27"/>
        </g>
      </g>
      <g id="Group_4450" data-name="Group 4450" transform="translate(442.98 352.932)">
        <g id="Group_4449" data-name="Group 4449">
          <path id="Path_10159" data-name="Path 10159" d="M226.939,296.688s-.008-.9.041-2.23c0-.662.049-1.436.119-2.259s.152-1.7.288-2.564c.111-.872.259-1.741.428-2.543s.325-1.568.506-2.205c.313-1.292.568-2.156.568-2.156a17.264,17.264,0,0,0-.988,2.02c-.251.625-.5,1.374-.745,2.181-.214.819-.4,1.7-.547,2.6-.107.893-.169,1.8-.189,2.642.012.848.049,1.638.115,2.308A16.191,16.191,0,0,0,226.939,296.688Z" transform="translate(-226.421 -282.731)" fill="#edfd27"/>
        </g>
      </g>
      <g id="Group_4452" data-name="Group 4452" transform="translate(284.059 403.657)">
        <g id="Group_4451" data-name="Group 4451">
          <path id="Path_10160" data-name="Path 10160" d="M191.358,295.777a13.366,13.366,0,0,1,3.72,0,13.109,13.109,0,0,1,7.505,3.637,14.222,14.222,0,0,1,3.448,5.325c.222.609.321.971.321.971s-.041-.37-.181-1.012a11.987,11.987,0,0,0-.893-2.576,14.136,14.136,0,0,0-2.21-3.189,12.169,12.169,0,0,0-7.917-3.835,14.078,14.078,0,0,0-3.872.247,11.6,11.6,0,0,0-2.576.9,9.792,9.792,0,0,0-.905.481s.342-.148.959-.354A13.338,13.338,0,0,1,191.358,295.777Z" transform="translate(-187.799 -295.059)" fill="#edfd27"/>
        </g>
      </g>
      <g id="Group_4454" data-name="Group 4454" transform="translate(205.359 368.971)">
        <g id="Group_4453" data-name="Group 4453">
          <path id="Path_10161" data-name="Path 10161" d="M189.531,299.628a39.657,39.657,0,0,0,2.173-6.448,36.1,36.1,0,0,0,.778-4.74l.128-1.81s-.1.65-.267,1.79a43.193,43.193,0,0,1-1.066,4.646A41.215,41.215,0,0,1,185,305.94a26.778,26.778,0,0,1-5.16,5.6,8.683,8.683,0,0,1-6.061,2.082,6.369,6.369,0,0,1-4.156-1.905,4.644,4.644,0,0,1-.757-1.082c-.128-.28-.193-.436-.193-.436s.053.156.156.453a4.882,4.882,0,0,0,.683,1.16,6.5,6.5,0,0,0,4.222,2.251,9.244,9.244,0,0,0,6.51-1.971,27.33,27.33,0,0,0,5.39-5.691A38.873,38.873,0,0,0,189.531,299.628Z" transform="translate(-168.673 -286.629)" fill="#edfd27"/>
        </g>
      </g>
      <g id="Group_4456" data-name="Group 4456" transform="translate(320.734 343.912)">
        <g id="Group_4455" data-name="Group 4455">
          <path id="Path_10162" data-name="Path 10162" d="M223.014,281.489a19.177,19.177,0,0,1-7.147,4.259,17.8,17.8,0,0,1-10.982.09,19.09,19.09,0,0,1-7.217-4.148c-.625-.568-.955-.926-.955-.926s.288.391.856,1.029a16.245,16.245,0,0,0,2.629,2.378,18.93,18.93,0,0,0,4.473,2.313,16.672,16.672,0,0,0,11.419-.091,18.908,18.908,0,0,0,4.436-2.387,16.382,16.382,0,0,0,2.592-2.419c.56-.646.839-1.049.839-1.049S223.627,280.905,223.014,281.489Z" transform="translate(-196.712 -280.539)" fill="#edfd27"/>
        </g>
      </g>
      <g id="Group_4458" data-name="Group 4458" transform="translate(435.19 401.894)">
        <g id="Group_4457" data-name="Group 4457">
          <path id="Path_10163" data-name="Path 10163" d="M225.359,323.639c-.07-.444-.119-.988-.169-1.609s-.107-1.321-.111-2.09a33.812,33.812,0,0,1,.222-5.214,37.223,37.223,0,0,1,3.242-11.452,33.059,33.059,0,0,1,2.555-4.551c.4-.654.811-1.226,1.189-1.724.362-.506.691-.946.988-1.28.572-.7.9-1.09.9-1.09s-.366.362-1,1a16.221,16.221,0,0,0-1.111,1.2,19.971,19.971,0,0,0-1.329,1.646,33.778,33.778,0,0,0-2.8,4.506,38.764,38.764,0,0,0-2.226,5.682,38.237,38.237,0,0,0-1.082,6,33.327,33.327,0,0,0,.021,5.308,18.686,18.686,0,0,0,.267,2.1,15.4,15.4,0,0,0,.313,1.592c.214.877.333,1.378.333,1.378S225.491,324.528,225.359,323.639Z" transform="translate(-224.528 -294.63)" fill="#edfd27"/>
        </g>
      </g>
      <g id="Group_4460" data-name="Group 4460" transform="translate(225.83 483.153)">
        <g id="Group_4459" data-name="Group 4459">
          <path id="Path_10164" data-name="Path 10164" d="M177.763,314.818a10.6,10.6,0,0,1,4.156,1.173,14.242,14.242,0,0,1,4.024,2.888,15.713,15.713,0,0,1,2.954,3.991,15.51,15.51,0,0,1,1.518,4.09,15.935,15.935,0,0,1,.4,3.094c-.012.761-.021,1.193-.021,1.193l.16-1.189a14.032,14.032,0,0,0-.107-3.177,16.155,16.155,0,0,0-1.345-4.321,16.444,16.444,0,0,0-3.008-4.242,15.063,15.063,0,0,0-4.292-2.95,11.231,11.231,0,0,0-4.427-.992,7.022,7.022,0,0,0-3.115.691,5.492,5.492,0,0,0-1.016.642,5.6,5.6,0,0,1,1.07-.51A7.135,7.135,0,0,1,177.763,314.818Z" transform="translate(-173.648 -314.378)" fill="#edfd27"/>
        </g>
      </g>
      <g id="Group_4462" data-name="Group 4462" transform="translate(306.208 506.683)">
        <g id="Group_4461" data-name="Group 4461">
          <path id="Path_10165" data-name="Path 10165" d="M197.889,322.493a26.257,26.257,0,0,1,5.127-1.317,26.453,26.453,0,0,1,11.966.889,26.3,26.3,0,0,1,4.88,2.049,27.45,27.45,0,0,1,3.185,2.008c.741.535,1.144.868,1.144.868s-.366-.37-1.053-.979a23.483,23.483,0,0,0-3.057-2.28,26.646,26.646,0,0,0-4.884-2.317,23.72,23.72,0,0,0-12.295-.909,26.724,26.724,0,0,0-5.172,1.576,23.009,23.009,0,0,0-3.358,1.8c-.774.5-1.189.815-1.189.815s.449-.272,1.259-.691A26.419,26.419,0,0,1,197.889,322.493Z" transform="translate(-193.182 -320.096)" fill="#edfd27"/>
        </g>
      </g>
      <g id="Group_4464" data-name="Group 4464" transform="translate(372.437 455.444)">
        <g id="Group_4463" data-name="Group 4463">
          <path id="Path_10166" data-name="Path 10166" d="M209.5,318.194a10.337,10.337,0,0,1,.267-2.095,10.461,10.461,0,0,1,1.029-2.749,10.006,10.006,0,0,1,4.8-4.448,10.291,10.291,0,0,1,2.823-.815,10.566,10.566,0,0,1,2.1-.111c.514.025.811.066.811.066a8.108,8.108,0,0,0-.79-.206,9.152,9.152,0,0,0-2.164-.189,10.6,10.6,0,0,0-3.041.626,10.262,10.262,0,0,0-3.049,1.872,10.138,10.138,0,0,0-2.1,2.9,10.608,10.608,0,0,0-.856,2.983,8.763,8.763,0,0,0,.021,2.168,7.51,7.51,0,0,0,.144.8S209.482,318.7,209.5,318.194Z" transform="translate(-209.277 -307.644)" fill="#edfd27"/>
        </g>
      </g>
      <g id="Group_4466" data-name="Group 4466" transform="translate(436.861 511.063)">
        <g id="Group_4465" data-name="Group 4465">
          <path id="Path_10167" data-name="Path 10167" d="M230.872,329.074c-.65.934-1.346,1.847-2.033,2.674s-1.325,1.6-1.922,2.222c-1.14,1.3-1.983,2.1-1.983,2.1s.955-.658,2.288-1.786c.658-.576,1.378-1.3,2.136-2.09.724-.823,1.457-1.724,2.156-2.666.654-.963,1.271-1.959,1.811-2.913.5-.971.938-1.893,1.267-2.7.625-1.633.934-2.753.934-2.753s-.477,1.062-1.333,2.563c-.387.77-.9,1.638-1.465,2.547S231.542,328.144,230.872,329.074Z" transform="translate(-224.934 -321.161)" fill="#edfd27"/>
        </g>
      </g>
      <g id="Group_4468" data-name="Group 4468" transform="translate(423.957 500.628)">
        <g id="Group_4467" data-name="Group 4467">
          <path id="Path_10168" data-name="Path 10168" d="M221.8,339.606s.942-1.588,2.572-3.81c.774-1.14,1.765-2.4,2.847-3.728s2.3-2.7,3.572-4.016,2.584-2.588,3.872-3.72,2.514-2.173,3.621-2.991c2.156-1.712,3.707-2.716,3.707-2.716s-1.638.848-3.971,2.358c-1.148.77-2.444,1.745-3.8,2.831-1.325,1.119-2.687,2.378-3.991,3.7-1.267,1.354-2.473,2.761-3.543,4.131-1.033,1.4-1.955,2.728-2.679,3.909C222.58,337.936,221.8,339.606,221.8,339.606Z" transform="translate(-221.798 -318.625)" fill="#edfd27"/>
        </g>
      </g>
      <g id="Group_4470" data-name="Group 4470" transform="translate(302.065 562.194)">
        <g id="Group_4469" data-name="Group 4469">
          <path id="Path_10169" data-name="Path 10169" d="M194.167,341.409c-.646.226-1.144.411-1.477.559s-.514.214-.514.214L192.7,342c.342-.128.848-.288,1.5-.469a34.836,34.836,0,0,1,5.5-1.02c2.3-.309,5-.49,7.9-.8a60.929,60.929,0,0,0,8.97-1.79c3-.84,5.95-1.765,8.756-2.469a45.412,45.412,0,0,1,7.76-1.4,26.54,26.54,0,0,1,5.58.041,19.78,19.78,0,0,1,2.094.35,18.943,18.943,0,0,0-2.078-.469,26.583,26.583,0,0,0-5.629-.362,45.88,45.88,0,0,0-7.892,1.177c-2.839.679-5.814,1.576-8.8,2.37a59.618,59.618,0,0,1-8.847,1.872c-2.868.4-5.576.662-7.876,1.041A36.315,36.315,0,0,0,194.167,341.409Z" transform="translate(-192.175 -333.587)" fill="#edfd27"/>
        </g>
      </g>
      <g id="Group_4472" data-name="Group 4472" transform="translate(315.026 578.118)">
        <g id="Group_4471" data-name="Group 4471">
          <path id="Path_10170" data-name="Path 10170" d="M211.011,341.292c1.979-.169,3.95-.44,5.777-.782,1.815-.4,3.5-.815,4.913-1.271,2.819-.951,4.609-1.782,4.609-1.782a48.5,48.5,0,0,1-4.728,1.354c-1.424.387-3.107.724-4.917,1.025a57.332,57.332,0,0,1-5.707.671c-1.954.14-3.909.185-5.744.136s-3.551-.148-5.012-.333a48.228,48.228,0,0,1-4.876-.675,48.39,48.39,0,0,0,4.814,1.115c1.465.255,3.189.436,5.045.572A57.447,57.447,0,0,0,211.011,341.292Z" transform="translate(-195.325 -337.457)" fill="#edfd27"/>
        </g>
      </g>
    </g>
  </g>
</svg>
