<svg xmlns="http://www.w3.org/2000/svg" width="640" height="450" viewBox="0 0 640 450">
  <g id="Group_4735" data-name="Group 4735" transform="translate(-20695 4299)">
    <rect id="Rectangle_2550" data-name="Rectangle 2550" width="640" height="450" transform="translate(20695 -4299)" fill="#423fbf"/>
    <g id="Group_4892" data-name="Group 4892" transform="translate(20791.152 -4303.048)">
      <g id="Group_4827" data-name="Group 4827" transform="translate(433.195 300.134)">
        <g id="Group_4826" data-name="Group 4826">
          <path id="Path_10335" data-name="Path 10335" d="M362.251,162.31c-.337.8-.686,1.485-1.007,2.111-.215.426-.42.823-.6,1.216q.1-.139.169-.244c.242-.349.441-.639.577-.815a1.415,1.415,0,0,1,.98-.575C362.327,163.443,362.288,162.879,362.251,162.31Z" transform="translate(-360.646 -162.31)" fill="#edfd27"/>
        </g>
      </g>
      <g id="Group_4833" data-name="Group 4833" transform="translate(283.177 15.139)">
        <g id="Group_4832" data-name="Group 4832">
          <path id="Path_10338" data-name="Path 10338" d="M434.225,270.612c-1.154-5.488-2.243-10.67-4.32-13.811-1.077-2.171-8.385-38.414-9.421-46.726-.329-2.643-.608-5.316-.9-8.145-.984-9.5-2-19.328-5.087-28.038-2.837-8-3.389-20.993-3.83-31.433-.159-3.739-.306-7.27-.546-10.093-.4-4.814-7.473-15.11-17.413-29.129-3.215-4.537-6.315-8.912-8.354-12.111a12.418,12.418,0,0,1,4.7-3.718c8.8-3.61,13.077-13.124,13.077-29.08,0-28.658-12.171-43.189-36.176-43.189S329.779,29.67,329.779,58.328c0,15.957,4.278,25.471,13.079,29.08a12.636,12.636,0,0,1,4.864,3.918c-1.476,1.141-3.124,2.394-4.857,3.708-3.559,2.707-7.051,5.387-10.368,8.007-.563.364-1.127.724-1.663,1.108-.666.432-1.255.947-1.853,1.4a30.315,30.315,0,0,0-2.769,2.572c-10.612,8.825-18.275,16.7-18.528,22.316-.325,7.1-2.175,12.827-3.805,17.878a58.472,58.472,0,0,0-2.461,9.241c-.134.893-.269,1.853-.413,2.862-.943,6.594-2.233,15.622-3.941,20.244l-.329.875c-2.084,5.56-7.622,20.331-8.606,37.029-.457,7.831-.188,15.6.07,23.11.321,9.285.6,17.306-.6,23.122-2.171,10.534-4.63,25.4-4.409,32.61.223,7.351,5.033,14.965,6.462,16.266a1.394,1.394,0,0,0,1.772.211c.033-.023.068-.045.1-.07,1.7,6.243,2.785,8.821,4.754,8.644a1.7,1.7,0,0,0,1.241-.709c1.044-1.421.511-4.863-1.516-13.838-.484-2.14-.9-3.985-1.079-5.13-.676-4.345-.428-14.659,1.127-18.226.968-2.223,2.308-2.816,2.955-2.816h.008c.176,0,.323.052.354.12.1.238.341.852.686,1.718.941,2.386,2.7,6.822,4.293,10.583,3.1,7.291,3.672,7.878,5,7.409,3.156-1.115.453-9.644-.451-12.231-.6-1.712-1.127-3.522-1.64-5.275a39.607,39.607,0,0,0-2.177-6.309,87.344,87.344,0,0,1-5.048-11.727c-.658-2.792.178-26.923,4.262-38.846,3.253-9.5,3.832-17,4.392-24.255.128-1.694.265-3.447.43-5.17.523-5.376,3.782-11.387,7.237-17.748,2.9-5.36,5.912-10.9,7.428-16.419a140.84,140.84,0,0,1,5-14.646c-.614,6.429-1.245,14.857-.794,18.538a114.42,114.42,0,0,0,3.251,14.965c1.832,6.958,3.722,14.154,3.859,21.307a86.446,86.446,0,0,1-1.931,19.458,37.016,37.016,0,0,0-.972,7.213c.17,10.726.556,22.212.961,34.373.209,6.164.424,12.612.629,19.427a127.777,127.777,0,0,0,4.7,30.25,25.917,25.917,0,0,1,1.106,5.176c-.11.6-.726,2.49-1.441,4.675-2.21,6.739-5.9,18.019-6.249,25.637-.17,3.741.56,8.755,1.4,14.559,1.553,10.687,3.486,23.987,1.607,38.8a51.473,51.473,0,0,1-1.214,5.943c-.722,2.943-1.352,5.486-.92,7.889a7.775,7.775,0,0,1-.5,4.086c-.124.378-.238.722-.318,1.036a8.175,8.175,0,0,0-.263,3.381,3.237,3.237,0,0,1-.254,1.869,18.674,18.674,0,0,1-3.865,6.3c-.213.25-.416.49-.61.724a3.3,3.3,0,0,0-.858,2.98,2.619,2.619,0,0,0,1.838,1.731c1.332.438,2.723-.509,4.076-1.509a4.279,4.279,0,0,0-.31,3.464,3.44,3.44,0,0,0,2.912,1.735c1.8,0,2.959-1.787,3.73-3.5a4.448,4.448,0,0,0,1.793,2.818,3.256,3.256,0,0,0,2.893.176c4.171-1.479,3.362-3.906,2.647-6.048a11.612,11.612,0,0,1-.306-7.978c2.151-6.919,1.8-9.562,1.083-14.826-.19-1.4-.4-2.982-.606-4.905-.972-9.229,2.126-36.8,5.639-45.056,2.171-5.1,1.809-12.787,1.487-19.566-.242-5.06-.469-9.839.412-12.409.256-.751.521-1.5.786-2.246,2.035-5.738,4.138-11.673,3.972-21.629l-.012-.486c-.178-10.329-.631-36.8,6.024-51.156a87.266,87.266,0,0,1,4.229,32.622c-.769,12.3.744,18.981,1.849,23.863.794,3.511,1.369,6.048.949,9.326-.273,2.155-.658,4.405-1.063,6.785-1.16,6.8-2.477,14.5-1.532,22.485a79.171,79.171,0,0,0,1.948,9.861,67.112,67.112,0,0,1,2.322,22.5L372.7,386.3c-.283,4.806-.631,10.786-.587,15.316a13.748,13.748,0,0,1-.407,4.049,7.85,7.85,0,0,0-.163,3.581,8.061,8.061,0,0,1-.587,4.586,6.91,6.91,0,0,0-.618,3.329c.546,5.49,3.094,7.752,9.752,8.648,1.946.261,3.974,2.3,6.119,4.452a28,28,0,0,0,5.5,4.665,5.192,5.192,0,0,1,.616,1.412,4.678,4.678,0,0,0,1.172,2.184,6.1,6.1,0,0,0,3.681,1.634c1.429.046,3.42-.06,4.148-1.555a2.339,2.339,0,0,0,.225-1.216,6.929,6.929,0,0,0,4.049.815,2.253,2.253,0,0,0,1.772-1.145,3.5,3.5,0,0,0-.077-3.18,5.263,5.263,0,0,0-.457-.788l.087.037c1.679.707,3.182.629,4.024-.207a2.151,2.151,0,0,0,.381-2.43,8.572,8.572,0,0,0-3.811-3.888,12.671,12.671,0,0,0-2.651-1.03,15.667,15.667,0,0,1-2.444-.891l-.194-.091c-1.648-.771-3.4-1.592-5.128-2.477.223.046.349.07.349.07s-3.765-2.217-6.193-3.681a17.8,17.8,0,0,1-2.754-2.12,11.186,11.186,0,0,1-2.508-3.55c-1.683-4.032.316-27.434,1.17-37.427.114-1.342.215-2.533.294-3.53.225-2.7.715-6.464,1.237-10.447,1.321-10.132,2.969-22.74,1.743-29.2-1.727-9.119-.35-21.292,1.662-28.741,2.223-8.244,4.111-38.691.961-53.16-1.162-5.333-2.273-11.8-3.17-18.573.3-11.894,1.813-41.514,2.727-51.158a97.046,97.046,0,0,0,2.119-10.875c.159-1.218.292-2.436.4-3.643.465,2,.947,4.01,1.416,5.97,1.838,7.694,3.573,14.961,3.282,17.688-.8,7.583,2.254,16.059,6.123,26.787.44,1.224.893,2.477,1.35,3.761,5.546,15.554,11.452,36.375,12.4,43.681a9.952,9.952,0,0,1-.689,6.055c-.759,1.882-1.543,3.828-.544,8.987.631,3.249,1.052,7.423,1.421,11.106.868,8.612,1.282,11.456,2.909,12.159a1.75,1.75,0,0,0,1.793-.261c2.61-2,2.122-5.411,1.309-11.069l-.087-.6c-.639-4.475-.511-7.091-.23-8.033,3.759,1.766,8.794,6.166,8.17,11.691a18.177,18.177,0,0,1-2.2,7.1A12,12,0,0,0,430,305.637c-.06.595-.223,2.173,1.044,2.639,1.143.418,2.115-.484,3.362-2.175.054.585.1,1.2.149,1.741a53.3,53.3,0,0,0,.755,6.4c.436,1.96,1.361,2.279,2.082,2.206,2.98-.318,3.065-9.849,3.065-9.948,0-.693.016-1.418.027-2.173.1-5.765.215-12.94-2.9-21.007A83.417,83.417,0,0,1,434.225,270.612Zm3.743,33.679c-.013.761-.025,1.5-.029,2.2a27.868,27.868,0,0,1-.5,5.143c-.155-1.257-.269-2.68-.374-4-.077-.914-.137-1.679-.2-2.332a26.61,26.61,0,0,0,.064-2.889c-.033-1.129-.008-2.3-.052-3.5s-.068-2.424-.132-3.658c-.091-1.23-.205-2.467-.4-3.7a14.019,14.019,0,0,0-.407-1.851,9.186,9.186,0,0,0-.73-1.791,12.692,12.692,0,0,0-1.361-2.037,19.788,19.788,0,0,0-7.645-6.053,2,2,0,0,0-2.06.209c-.523.4-2.107,1.611-.817,10.662l.087.6c.6,4.183.908,6.631.258,7.963a79.922,79.922,0,0,1-1.272-9.4c-.374-3.737-.8-7.973-1.452-11.332-.858-4.429-.246-5.953.4-7.568a12.436,12.436,0,0,0,.852-7.32c-.507-3.949-2.341-11.447-4.785-19.981.8,1.64,1.328,2.6,1.328,2.6s-.575-2.577-1.661-6.348c-.536-1.89-1.191-4.082-1.933-6.416-.378-1.164-.738-2.378-1.16-3.594s-.833-2.455-1.253-3.693c-.441-1.23-.885-2.459-1.321-3.67s-.906-2.388-1.342-3.536-.893-2.242-1.325-3.282-.85-2.018-1.247-2.918c-.329-.746-.643-1.433-.935-2.06l-.068-.192c-.068-.263-.136-.519-.207-.786-.283-1.052-.531-2.153-.84-3.259s-.6-2.237-.9-3.366c-.329-1.129-.666-2.237-.951-3.323s-.564-2.148-.734-3.184a22.3,22.3,0,0,1-.329-2.992,16.155,16.155,0,0,1,.163-2.676,11.916,11.916,0,0,1,1.28-3.859,10.821,10.821,0,0,1,.631-.993l.25-.341s-.118.089-.341.254a8.481,8.481,0,0,0-.893.823,9.382,9.382,0,0,0-1.255,1.735c-.134-3.393-1.483-9.218-3.079-15.9.192.341.381.664.56.959.314.523.6.972.85,1.33.5.722.794,1.121.794,1.121s-.136-.486-.4-1.313c-.139-.411-.29-.914-.469-1.489s-.389-1.214-.6-1.919-.443-1.464-.686-2.268-.449-1.662-.718-2.529l-.7-2.719c-.091-.335-.17-.678-.25-1.019-.072-.689-.143-1.4-.209-2.138-.091-.9-.12-1.836-.2-2.781-.068-.947-.118-1.911-.147-2.876-.054-.966-.091-1.933-.118-2.887s-.06-1.9-.087-2.808c-.012-.912-.06-1.8-.087-2.636s-.06-1.634-.1-2.37c-.13-2.942-.387-4.923-.387-4.923s-.263,1.053-.56,2.781a60.49,60.49,0,0,0-2.31-13.47,77.414,77.414,0,0,0-1.987,8c-.358-2.086-.736-3.406-.736-3.406s-.254,1.756-.387,4.365c-.033.653-.079,1.359-.093,2.1s-.066,1.532-.062,2.343-.033,1.652-.017,2.5c0,.209,0,.424,0,.635-.242,2.359-.4,4.859-.424,7.432-.05,6.933-1.964,15.521-3.828,26.222-.207.409-.43.811-.651,1.218-.258.473-.5.955-.782,1.408s-.527.916-.779,1.356c-.281.422-.5.868-.761,1.263s-.48.784-.7,1.139c-.44.715-.806,1.317-1.067,1.743s-.4.693-.4.693.261-.128.7-.381a11.59,11.59,0,0,0,1.718-1.22,10.926,10.926,0,0,0,1.036-.949c.257-.252.515-.533.767-.823-.562,3.577-1.088,7.376-1.52,11.4-.151.368-.31.73-.461,1.092-.275.558-.488,1.143-.759,1.671s-.515,1.059-.753,1.555c-.269.476-.484.959-.722,1.381-.473.858-.871,1.576-1.15,2.082s-.449.813-.449.813.287-.176.775-.521a13.653,13.653,0,0,0,1.845-1.623,14.441,14.441,0,0,0,1.09-1.237c.033-.045.072-.093.1-.139-.283,3.453-.488,7.055-.575,10.829-.048,2.082-.068,4.016-.06,5.848-.4.718-.738,1.33-.98,1.774-.29.505-.449.813-.449.813s.287-.178.775-.521c.194-.141.42-.32.662-.521a109.257,109.257,0,0,0,1.21,16.063l-4.587,4.971,3.571-2.419a67.6,67.6,0,0,1-8.563,8.987,68.292,68.292,0,0,0,7.084-5.283c-2.167,2.878-4.706,5.685-7.024,6.789-5.186,2.469-12.1,2.345-16.17.618s-21.108-13.207-18.885-10.12,22.709,12.959,19.926,21.882c-1.865,4.183-3.6,9.969-4.744,19.526-2.024,16.84.833,21.292,0,31.2a39.189,39.189,0,0,1-2.454,11.328,4.094,4.094,0,0,1-3.1,1.725c-2.87.277-5.79-4.125-5.79-3.242a8.653,8.653,0,0,0,2.841,5.252c1.239.939,2.953,6.679,3.664,11.727A69.818,69.818,0,0,0,349.4,351c.924,12.151-3.333,10.645-4.444,24.808s-2.024,23.37-2.024,33.83c0,6.952,1.021,6.917,1.146,11.021a31.238,31.238,0,0,1-.912,6.125c-.029.176-.052.331-.079.5-.041.136-.079.261-.12.4a14.1,14.1,0,0,0,.321,9.522c.7,2.1.742,2.223-1.1,2.876a1,1,0,0,1-.74.046c-.626-.38-.889-2.324-1.015-3.257-.019-.128-.033-.252-.052-.376-.015-.726.016-1.487.076-2.272,0-.939.029-1.9,0-2.814-.091-.928-.25-1.758-.374-2.457-.178-.7-.316-1.272-.395-1.681-.1-.413-.159-.647-.159-.647s-.045.238-.128.656c-.052.418-.1,1.024-.151,1.745,0,.713,0,1.538-.079,2.388-.027.86-.118,1.793-.19,2.748,0,.043,0,.083,0,.126a1.3,1.3,0,0,0-.132-.029,1.44,1.44,0,0,0-.31.019c-.012-.35-.027-.684-.058-.98-.087-.482-.184-.877-.26-1.15-.1-.267-.159-.422-.159-.422s-.046.157-.13.43c-.056.273-.143.656-.283,1.106-.083.449-.213.968-.372,1.512-.1.476-.227.976-.374,1.472-.064.168-.13.341-.2.523-.393,1.061-1.433,3.863-2.242,3.648a1.912,1.912,0,0,1-.254-.093c.046-.134.095-.275.149-.418.176-.649.418-1.394.7-2.188.227-.8.511-1.656.794-2.512.227-.877.453-1.754.666-2.577.163-.839.306-1.629.422-2.306.07-.687.118-1.261.145-1.663,0-.409.008-.641.008-.641s-.107.207-.289.571c-.155.37-.385.893-.67,1.516-.242.635-.529,1.373-.85,2.159-.23.682-.472,1.4-.718,2.126a1.594,1.594,0,0,0-.734-.29c.2-.3.4-.6.567-.9a12.558,12.558,0,0,0,.575-1.514c.1-.467.147-.858.178-1.131v-.438l-.273.337a9.641,9.641,0,0,1-.658.877,11.774,11.774,0,0,1-.908,1.179,12.188,12.188,0,0,1-1.065,1.28,13.384,13.384,0,0,1-1.1,1.255c-.215.248-.422.478-.631.691a7.093,7.093,0,0,1-1.861,1.123.994.994,0,0,1-.124-.058,1.66,1.66,0,0,1,.366-.637c.186-.228.381-.457.583-.7a20.933,20.933,0,0,0,4.318-7.087,5.667,5.667,0,0,0,.383-3.015,5.747,5.747,0,0,1,.211-2.475c.06-.256.155-.534.258-.842a10.128,10.128,0,0,0,.593-5.327c-.335-1.875.232-4.175.889-6.84a53.863,53.863,0,0,0,1.265-6.232,106.721,106.721,0,0,0,.668-18.375c.039-.407.074-.815.106-1.234.058-1.125.167-2.287.174-3.47.039-1.183.035-2.384.045-3.586-.037-1.2-.064-2.405-.128-3.584-.039-1.183-.17-2.343-.254-3.466-.106-1.121-.234-2.2-.381-3.226-.13-1.022-.289-1.987-.453-2.874-.308-1.776-.651-3.242-.912-4.26s-.436-1.6-.436-1.6-.012.6,0,1.654.043,2.546.083,4.332c.012.42.023.86.035,1.311-.054-.368-.11-.74-.159-1.1-.829-5.676-1.54-10.579-1.381-14.084.333-7.271,3.956-18.348,6.123-24.967.837-2.55,1.388-4.237,1.528-5.016.2-1.123-.277-2.945-1.146-6.255a125.461,125.461,0,0,1-4.622-29.688c-.2-6.816-.422-13.269-.627-19.435-.409-12.15-.79-23.625-.96-34.33a35.324,35.324,0,0,1,.924-6.694c.5-2.568,1.1-5.662,1.509-9.417.107.25.215.5.321.747a13.086,13.086,0,0,0,.56,1.189,20.783,20.783,0,0,0,1.305,2.188,21.114,21.114,0,0,0,1.433,1.875c.469.585.964,1.084,1.412,1.553.9.922,1.706,1.632,2.279,2.12s.916.749.916.749-.2-.383-.583-1.032-.937-1.561-1.619-2.626c-.327-.536-.684-1.115-1.061-1.727s-.726-1.268-1.113-1.931c-.362-.678-.707-1.387-1.04-2.111a10.974,10.974,0,0,1-.484-1.1c-.143-.378-.314-.744-.428-1.135l-.414-1.141q-.171-.584-.341-1.162c-.209-.773-.416-1.539-.595-2.291-.037-.174-.072-.341-.108-.513.041-1.34.056-2.742.029-4.22a56.665,56.665,0,0,0-.707-7.587c.019.035.035.068.052.1.424.672.852,1.338,1.3,1.975.424.655.931,1.234,1.377,1.822.469.575.943,1.112,1.416,1.6a18.813,18.813,0,0,0,1.358,1.346,21.434,21.434,0,0,0,2.2,1.82c.565.4.9.614.9.614s-.2-.345-.581-.918-.916-1.377-1.559-2.343c-.318-.478-.666-1-1.028-1.545s-.722-1.141-1.131-1.723c-.379-.6-.773-1.224-1.17-1.857s-.794-1.276-1.175-1.931-.788-1.292-1.143-1.946-.726-1.29-1.075-1.909c-.4-.744-.782-1.456-1.139-2.13-.472-2.026-.986-4.034-1.509-6.026-.178-1.441-.349-2.909-.515-4.39.046.074.087.145.134.219.258.389.544.757.813,1.135s.548.746.842,1.1.579.709.885,1.038l.92.96a23.8,23.8,0,0,0,1.869,1.685,19.16,19.16,0,0,0,1.818,1.326,14.927,14.927,0,0,0,1.631.966,12.366,12.366,0,0,0,1.317.625c.748.3,1.179.455,1.179.455s-.345-.316-.949-.825c-.31-.244-.655-.583-1.059-.951s-.848-.79-1.321-1.261c-.488-.449-.953-1.007-1.485-1.541-.507-.562-1.026-1.17-1.555-1.8-.258-.32-.523-.645-.786-.974s-.511-.682-.773-1.024-.521-.689-.759-1.053-.5-.715-.734-1.086c-.48-.732-.964-1.462-1.385-2.217-.409-.687-.782-1.379-1.154-2.051-.23-2.419-.428-4.795-.571-7.039.035-.949.07-1.95.107-2.99.052-.984.11-2,.167-3.033.041-1.032.136-2.08.211-3.126s.151-2.093.265-3.122.2-2.043.294-3.023c.11-.98.221-1.929.321-2.829s.213-1.753.312-2.541c.2-1.578.362-2.9.476-3.825s.167-1.468.167-1.468-.228.488-.591,1.357c-.254.618-.571,1.439-.9,2.415.075-.5.147-.98.238-1.449.167-.955.329-1.857.476-2.69.314-1.671.575-3.067.757-4.047s.279-1.551.279-1.551-.263.509-.7,1.417c-.219.453-.465,1.011-.726,1.658-.023.05-.046.108-.068.161.589-5.316,1.146-8.954,1.146-8.954a128.321,128.321,0,0,0-13.455,29.222c-.548,1.76-1.088,3.354-1.627,4.826-.207.455-.418.908-.627,1.365-.43.887-.835,1.787-1.305,2.639-.441.864-.9,1.706-1.342,2.519-.484.788-.9,1.592-1.354,2.312s-.864,1.423-1.274,2.047-.78,1.212-1.121,1.72-.627.966-.883,1.326c-.5.732-.777,1.168-.777,1.168s.409-.306,1.1-.875c.352-.279.757-.641,1.206-1.071.126-.114.258-.246.387-.37a91.2,91.2,0,0,0-7.074,13.991c-3.544,9.179-2.874,17.486-3.555,25.023-.176.778-.366,1.574-.581,2.4-.273,1.075-.618,2.173-.928,3.3s-.666,2.27-1.017,3.414c-.329,1.156-.658,2.31-.984,3.449s-.6,2.27-.9,3.358-.536,2.149-.782,3.155-.455,1.962-.643,2.845c-.777,3.532-1.106,5.943-1.106,5.943s1.044-2.2,2.324-5.581c.192-.5.393-1.036.6-1.588-.484,4.758-.73,10-1.115,15.885-.06.79-.114,1.563-.159,2.324-.122,1.681-.254,3.406-.409,5.194v.246s.079-.639.215-1.7a52.2,52.2,0,0,0,.163,9.4,86.2,86.2,0,0,0,5.273,12.324,39.628,39.628,0,0,1,1.985,5.84c.523,1.784,1.063,3.627,1.685,5.4a35.224,35.224,0,0,1,1.667,6.483c-1.09-2.386-2.878-6.633-5.79-14-.353-.889-.6-1.518-.7-1.76a2.8,2.8,0,0,0-2.659-1.667l-.025,0c-1.638,0-3.873,1.135-5.265,4.328-1.884,4.328-1.975,15.314-1.305,19.617.19,1.23.616,3.116,1.108,5.3.591,2.612,1.539,6.809,1.873,9.5-.771-2.126-1.615-5.351-2.148-7.4-.631-2.411-1.226-4.686-1.762-6.063a33.119,33.119,0,0,1-1.3-7.07c-.4-3.507-.6-4.954-1.528-5.575a1.515,1.515,0,0,0-1.261-.2c-.854.24-1.361,1.129-1.644,2.3.4-7.322,2.322-19.09,4.291-28.656,1.257-6.112.976-14.272.651-23.72-.256-7.454-.525-15.159-.072-22.874a101.158,101.158,0,0,1,1.849-13.929c.068-.252.134-.5.2-.759.215-.777.434-1.58.662-2.394s.453-1.642.7-2.461c.223-.829.465-1.652.715-2.459s.484-1.605.718-2.376a19.481,19.481,0,0,1,1.532-3.954,6.909,6.909,0,0,1,1.96-2.2,5.186,5.186,0,0,1,.749-.442c.188-.085.29-.13.29-.13l-.321.008a4.509,4.509,0,0,0-.908.165,5.723,5.723,0,0,0-2.012,1.1c.916-2.74,1.745-4.944,2.308-6.454l.331-.885c1.8-4.872,3.118-14.057,4.074-20.761.143-1.007.279-1.964.409-2.85a56.875,56.875,0,0,1,2.368-8.834,79.44,79.44,0,0,0,3.468-13.726,8.107,8.107,0,0,0,.771,1.383,7.252,7.252,0,0,0,.525.684c.13.151.2.232.2.232l-.087-.292c-.048-.192-.163-.451-.238-.806a13.9,13.9,0,0,1-.449-2.862,16.755,16.755,0,0,1,.033-1.88,15.487,15.487,0,0,1,.349-2.035,13.378,13.378,0,0,1,.7-2.066,9.877,9.877,0,0,1,1.075-1.946,11.317,11.317,0,0,1,1.406-1.751,17.414,17.414,0,0,1,1.634-1.5,25.049,25.049,0,0,1,3.377-2.227c1.059-.577,1.987-1.024,2.645-1.33l1.04-.492s-.42,0-1.154.066a15.92,15.92,0,0,0-3.019.577c-.366.107-.751.238-1.148.387.112-.118.223-.232.339-.351,1.317-1.069,2.754-2.275,4.26-3.583.933-.821,1.921-1.644,2.878-2.527.964-.868,1.948-1.749,2.928-2.63s1.948-1.747,2.938-2.556,1.96-1.6,2.951-2.289,1.958-1.336,2.922-1.878a31.085,31.085,0,0,1,2.788-1.39,22.447,22.447,0,0,1,4.485-1.41c.567-.11,1.019-.184,1.328-.219l.472-.062s-.163-.023-.476-.062a12.609,12.609,0,0,0-1.361-.093,15.841,15.841,0,0,0-2.769.192l.318-.176c1.032-.569,1.9-1.046,2.512-1.381s.957-.552.957-.552-.4.037-1.1.137c-.536.079-1.253.211-2.08.416.933-.713,1.842-1.4,2.7-2.058q1.987-1.51,3.7-2.821a100.673,100.673,0,0,0,3.453,20.283,99.307,99.307,0,0,1-.465-18.362c.091.141.182.283.277.426,1.929,3.023,3.9,6.094,6.489,8.267a82.48,82.48,0,0,0,3.613,9.2q-.964-3.852-1.54-7.748a11.714,11.714,0,0,0,3.317,1.261,33.565,33.565,0,0,0,5.2,2.364q-.561,3.558-1.445,7.084,1.51-3.245,2.734-6.644A41.552,41.552,0,0,0,377.635,112c-.116,1.824-.275,3.646-.492,5.467.5-1.776.935-3.569,1.332-5.376a54.936,54.936,0,0,0,14.311-.61c3.313,3.251,6.683,6.559,9.2,10.631a6.833,6.833,0,0,0-2.469-.352,4.688,4.688,0,0,0-.786.089l-.273.05.269.074a7.251,7.251,0,0,1,.73.221,9.2,9.2,0,0,1,2.318,1.168,12.548,12.548,0,0,1,1.3,1.069,13.108,13.108,0,0,1,1.23,1.387,13.754,13.754,0,0,1,1.044,1.66,10.146,10.146,0,0,1,.747,1.857,12.754,12.754,0,0,1,.451,1.991c.076.674.163,1.344.17,2a25.562,25.562,0,0,1-.213,3.666c-.151,1.086-.314,2.01-.442,2.659s-.2,1.032-.2,1.032.242-.3.606-.869c.093-.143.192-.3.294-.482.98,10.573.54,15.356,1.388,25.416.988,11.725,4.318,10.738,5.552,19.748.041.3.083.631.128.947a9.041,9.041,0,0,0-1.946-1.954,7.11,7.11,0,0,0-.951-.581l-.354-.167.283.267a8.855,8.855,0,0,1,.722.8,11.433,11.433,0,0,1,1.8,3.257,17.8,17.8,0,0,1,.658,2.38c.182.864.294,1.793.42,2.763s.188,2,.318,3.048.246,2.109.366,3.172c.151,1.059.3,2.119.447,3.162.132,1.044.327,2.062.484,3.054.048.281.093.554.143.829.6,5.227,1.21,10.533,1.8,15.308.686,5.517,5.84,23.819,8.133,31.729a32.008,32.008,0,0,0,1.611,5.627c1.845,2.792,2.885,7.748,3.985,12.994a86.039,86.039,0,0,0,3.472,13.1C438.177,291.842,438.059,298.745,437.968,304.291Zm-4.028-1.89c-.136.176-.335.467-.577.815q-.07.1-.169.244c.178-.393.383-.79.6-1.216.321-.625.67-1.309,1.007-2.111.037.569.076,1.133.12,1.693A1.415,1.415,0,0,0,433.94,302.4ZM401.357,426.956a18.31,18.31,0,0,0,2.8,1.024,10.026,10.026,0,0,1,2.169.835,6.41,6.41,0,0,1,2.477,2.248,3.61,3.61,0,0,1-.9-.259c-.651-.275-1.615-.784-2.552-1.28-2.645-1.4-3.443-1.789-4.233-1.481l-.587.252-.17.469c-.331-.228-.664-.457-.986-.672-.809-.478-1.57-.912-2.229-1.274l-1.66-.759-.651-.242s.182.176.5.486c.325.29.79.709,1.35,1.208.579.467,1.245,1.019,1.944,1.625.73.564,1.5,1.175,2.258,1.8.666.49,1.338.97,1.909,1.458.432.4.885.844,1.28,1.272a3.781,3.781,0,0,1,.465.788,3.138,3.138,0,0,1,.354,1.249c-1.8.01-3.1-1.086-4.278-2.074a8.227,8.227,0,0,0-1.675-1.2,2.741,2.741,0,0,0-1.146-.306c-.025-.039-.052-.077-.079-.118-.666-.794-1.313-1.605-2.008-2.366a11.631,11.631,0,0,0-2.291-1.722,6.614,6.614,0,0,0-1.956-.56,4.4,4.4,0,0,0-.761.025,4.3,4.3,0,0,1,.624.385,5.783,5.783,0,0,1,1.367,1.168,10.007,10.007,0,0,1,1.541,1.942c.554.732,1.123,1.6,1.71,2.463.662.794,1.325,1.59,1.944,2.337l.035.039a11.931,11.931,0,0,1,.759,1.042.881.881,0,0,1,.087.536.711.711,0,0,1-.064.259,6.283,6.283,0,0,1-1.441.081,3.742,3.742,0,0,1-2.111-1.013,5.684,5.684,0,0,1-.44-1.092,4.689,4.689,0,0,0-1.724-2.775A26.4,26.4,0,0,1,388,428.48c-2.456-2.465-4.773-4.795-7.57-5.17-6.061-.817-7.2-2.554-7.579-6.4a4.615,4.615,0,0,1,.467-2.188,10.488,10.488,0,0,0,.726-5.831,5.506,5.506,0,0,1,.108-2.62,16.21,16.21,0,0,0,.484-4.682c-.045-4.442.3-10.376.583-15.143l.155-2.715c.1-1.727.137-3.327.137-4.839.052-.827.108-1.665.116-2.523.035-1.183.035-2.384.045-3.586-.041-1.2-.064-2.405-.128-3.584-.039-1.183-.17-2.343-.258-3.466-.1-1.121-.234-2.2-.378-3.226s-.292-1.987-.453-2.874c-.312-1.776-.651-3.242-.916-4.262s-.436-1.6-.436-1.6-.012.6,0,1.654.039,2.545.079,4.332c.016.552.031,1.139.046,1.743-.083-.339-.167-.676-.246-1.011a75.756,75.756,0,0,1-1.9-9.558c-.9-7.62.382-15.134,1.514-21.764.411-2.407.8-4.682,1.081-6.89.473-3.72-.174-6.58-.992-10.2-1.131-5-2.537-11.216-1.8-23.151a90.592,90.592,0,0,0-1.9-24.791c1.241,4.26,2.254,8.36,2.254,8.36s-1.6-10.86-1.111-16.29,9.384-7.283,14.32-6.913a3.111,3.111,0,0,1,.43.062l1.472,2.4-.076-1.574,2.1,6.208-.36-4.16c.221.839.432,1.7.625,2.616,2.409,11.23,1.853,35.056-.738,44.961a96.09,96.09,0,0,0-2.523,21.735,3.816,3.816,0,0,1-3.4,2.3c-2.87.277-5.678-1.359-6.9-2.192-.73-.5-.281,1.667,2.775,3.979,2.637,2,7.547,8.135,9.016,13.29a55.005,55.005,0,0,1-.726,11.983c-1.576,9.256-3.24,32.862-3.981,42.4s-1.479,18.7,0,21.013a13.789,13.789,0,0,0,5.072,4.328c3.73,3.453,9.225,6.03,13.918,8.224ZM346.948,87.095l5.068.306-3.381-.962c.653,0,1.29,0,1.878-.014,1.753-.056,3.2-.155,4.222-.242s1.6-.155,1.6-.155-.579-.091-1.592-.209-2.463-.269-4.187-.457a57.016,57.016,0,0,1-5.792-.813,14.385,14.385,0,0,1-3-.947,9.452,9.452,0,0,1-2.61-1.737,21.324,21.324,0,0,1-2.136-2.506c-.651-.848-1.268-1.683-1.824-2.514-1.731-3.7-2.75-8.466-3.067-14.33.05-.633.11-1.272.223-1.906a9.239,9.239,0,0,1,.242-1.092,5.376,5.376,0,0,1,.432-.988,14.02,14.02,0,0,1,2.405-2.856c.455-.376.945-.757,1.468-1.135s1.052-.751,1.6-1.123A15.575,15.575,0,0,1,340.18,52.4a13.465,13.465,0,0,1,1.785-.8c.614-.205,1.222-.409,1.83-.548s1.2-.267,1.774-.372c.571-.085,1.117-.184,1.621-.244l3.395-.422-.941-.1a24.666,24.666,0,0,0-2.5-.11c-.519-.006-1.082.021-1.679.06a18.4,18.4,0,0,0-1.873.236,14.859,14.859,0,0,0-1.981.492,14.3,14.3,0,0,0-1.948.833c-.079.041-.149.087-.223.13.132-.186.271-.366.4-.552q1.217-1.757,2.248-3.608-1.409,1.58-2.947,3c-.2.186-.409.36-.612.542.1-.3.2-.606.279-.912a15.012,15.012,0,0,0,.432-2.608c.072-.842.11-1.669.139-2.481.091-3.249-.041-6.216.155-8.732a23.222,23.222,0,0,1,.507-3.391c.128-.492.258-.955.4-1.377.159-.411.285-.8.436-1.141s.3-.635.422-.9.265-.465.36-.641c.2-.349.306-.536.306-.536s-.136.167-.393.476c-.124.159-.29.347-.461.583s-.352.531-.56.846-.382.7-.606,1.108c-.2.414-.389.875-.579,1.373a21.1,21.1,0,0,0-.891,3.464c-.436,2.585-.5,5.62-.726,8.776a25.688,25.688,0,0,1-.666,4.7,10.313,10.313,0,0,1-.873,2.15c-.039.064-.083.122-.122.186a18.52,18.52,0,0,0,.472-4.619,18.132,18.132,0,0,1-2.37,6.272l.993-3.217L332.7,54.81a24.527,24.527,0,0,1,.484-2.616c-.409.711-.775,1.45-1.115,2.208.211-5.534,1.115-14.446,5.068-21.849C342.505,22.471,352.2,17.36,365.956,17.36c11.21,0,19.723,3.4,25.4,10.112,3.948,6.172,2.988,12.366,3.091,15.031A46.088,46.088,0,0,0,395,50.036c-.052-.163-.12-.318-.167-.484a25.685,25.685,0,0,1-.666-4.7c-.219-3.156-.287-6.191-.726-8.776a20.9,20.9,0,0,0-.889-3.464c-.192-.5-.385-.959-.583-1.373-.219-.407-.4-.788-.6-1.108l-.556-.846c-.174-.236-.341-.424-.465-.583-.254-.31-.393-.476-.393-.476s.1.188.306.536c.1.176.227.385.362.641s.261.56.42.9.277.73.44,1.141c.136.422.267.885.393,1.377a23.449,23.449,0,0,1,.509,3.391c.194,2.515.062,5.482.151,8.732.031.811.07,1.638.145,2.481a15.008,15.008,0,0,0,.43,2.608c.07.285.155.565.254.846a20.817,20.817,0,0,1-1.747-1.572,20.252,20.252,0,0,0,1.373,2.546c-.238-.147-.48-.292-.73-.424a14.348,14.348,0,0,0-1.952-.833,14.74,14.74,0,0,0-1.977-.492,18.541,18.541,0,0,0-1.876-.236c-.595-.039-1.158-.066-1.675-.06a24.694,24.694,0,0,0-2.5.11l-.943.1,3.4.422c.507.06,1.048.159,1.623.244.567.1,1.166.227,1.77.372s1.218.343,1.83.548a13.137,13.137,0,0,1,1.785.8,15.63,15.63,0,0,1,1.694,1.017c.542.372,1.079.746,1.594,1.123s1,.747,1.448,1.115A14.345,14.345,0,0,1,398.9,58.53a3.2,3.2,0,0,1,.176.356,17.208,17.208,0,0,1-.021,3.168c-.265,3.155.184,5.507-.178,8.048q-.209,1.034-.465,2a14.662,14.662,0,0,1-1.725,3.5c-3.079,4.717-4.952,7.144-8.809,9.012-.2.041-.389.081-.587.116-2.08.383-4.125.521-5.866.682s-3.211.294-4.231.414-1.607.205-1.607.205.585.072,1.611.159c.926.083,2.223.18,3.763.259-.931.24-1.857.5-2.773.782,1.483-.085,2.963-.1,4.436-.074l-1.445.736,1.286.019c-2.02,2.167-3.162,5.116-5.064,8.6-.223.411-.457.806-.7,1.2l.052-1.146-.682,1.35c.058-.471.087-.883.107-1.2.027-.505.027-.794.027-.794s-.364,1.106-.889,2.717c-.139.4-.3.823-.488,1.261a10.5,10.5,0,0,1-.511,1.024,14.8,14.8,0,0,1-4.723,3.637c-.147.05-.3.1-.447.147a24.247,24.247,0,0,1-2.541.577c-.314.006-.62,0-.92-.006-.167,0-.321-.01-.48-.014a24.029,24.029,0,0,1-2.436-.558,15.689,15.689,0,0,1-1.481-.536c-.221-.093-.44-.2-.654-.308-.047-.023-.087-.048-.136-.072-.213-.116-.424-.236-.626-.368a5.722,5.722,0,0,1-1.2-.988,7.364,7.364,0,0,1-.916-1.224,10.985,10.985,0,0,1-.664-1.313c-.186-.438-.353-.862-.492-1.261-.527-1.611-.885-2.717-.885-2.717s0,.289.025.794a16.85,16.85,0,0,0,.232,2.086c.006.041.017.087.025.13-.294-.5-.577-1.015-.842-1.541.029.372.072.744.116,1.113-.691-1-1.365-2.057-2.045-3.122a40.831,40.831,0,0,0-5.321-7.148c.513.07,1.024.126,1.536.153A18.652,18.652,0,0,1,346.948,87.095Z" transform="translate(-283.177 -15.139)" fill="#edfd27"/>
        </g>
      </g>
      <g id="Group_4837" data-name="Group 4837" transform="translate(357.805 92.824)">
        <g id="Group_4836" data-name="Group 4836">
          <path id="Path_10340" data-name="Path 10340" d="M333.762,55.276c-1.9-.174-2.241.848-3.9.86-1.658-.012-1.993-1.034-3.892-.86a14.04,14.04,0,0,0-4.258,1.466c.019.023,3.472-.591,4.7-.7,1.247-.087.831,1.015,3.453,1.04,2.624-.025,2.206-1.127,3.453-1.04,1.226.1,4.682.718,4.7.7A14.11,14.11,0,0,0,333.762,55.276Z" transform="translate(-321.715 -55.256)" fill="#edfd27"/>
        </g>
      </g>
      <g id="Group_4839" data-name="Group 4839" transform="translate(360.817 94.943)">
        <g id="Group_4838" data-name="Group 4838">
          <path id="Path_10341" data-name="Path 10341" d="M324.9,56.414c-1.191-.2-1.627.13-1.629.134,3.255.31,2.318,1.671,5.139,1.739,2.825-.068,1.886-1.429,5.139-1.739,0,0-.438-.333-1.627-.134a9.616,9.616,0,0,1-7.024,0Z" transform="translate(-323.27 -56.35)" fill="#edfd27"/>
        </g>
      </g>
      <g id="Group_4841" data-name="Group 4841" transform="translate(372.105 58.818)">
        <g id="Group_4840" data-name="Group 4840">
          <path id="Path_10342" data-name="Path 10342" d="M349.443,38.474a10.289,10.289,0,0,0-2.1-.6,12.333,12.333,0,0,0-2.237-.18,14.522,14.522,0,0,0-2.2.2,16.028,16.028,0,0,0-2.066.492,20.863,20.863,0,0,0-3.414,1.412c-.951.494-1.71.959-2.237,1.3s-.817.55-.817.55.356-.066.961-.215L337.8,40.8c.207-.056.43-.114.651-.172-.492.3-.961.6-1.4.908a28.748,28.748,0,0,0-4.274,3.621,20.265,20.265,0,0,0-1.4,1.584s.583-.5,1.646-1.311a37.868,37.868,0,0,1,4.591-2.986,23.631,23.631,0,0,1,6.634-2.593c-5.718,1.572-12.572,7.465-14.332,11.923,0-.079-.01-.168-.01-.246a9.547,9.547,0,0,1,.124-1.385c.056-.339.095-.538.095-.538a3.944,3.944,0,0,0-.3.465,5.36,5.36,0,0,0-.546,1.373,6.336,6.336,0,0,0-.159.99,6.125,6.125,0,0,0,.008,1.129,6.966,6.966,0,0,0,.223,1.193,6.282,6.282,0,0,0,1.166,2.231,6.562,6.562,0,0,0,.85.868,6.35,6.35,0,0,0,1.828,1.084,5.294,5.294,0,0,0,1.437.335,4.271,4.271,0,0,0,.556.019l-.5-.23a9.848,9.848,0,0,1-1.206-.691,9.111,9.111,0,0,1-1.448-1.228c-.023-.023-.045-.052-.068-.077,3.218,1.594,8.869,1.369,13.445-.728a26.324,26.324,0,0,1-4.584,2.4c-.612.265-1.111.432-1.448.558l-.513.19.54-.089c.356-.06.881-.141,1.532-.31a21.453,21.453,0,0,0,5.254-1.987,15.538,15.538,0,0,0,2.076-1.319c-.778.918-1.58,1.739-2.306,2.45-.893.858-1.65,1.578-2.182,2.091s-.829.811-.829.811.385-.174,1.04-.515a28.1,28.1,0,0,0,2.643-1.563,19.865,19.865,0,0,0,3.377-2.823,14.942,14.942,0,0,0,1.582-1.987A13.311,13.311,0,0,0,352.84,51.9a11.263,11.263,0,0,0,.713-2.589,9.408,9.408,0,0,0,.037-2.626,7.34,7.34,0,0,0-.155-.837v-.081c-.027-.407-.087-.809-.132-1.216a10.351,10.351,0,0,0-.591-2.415c-.012-.031-.031-.064-.043-.095a9.126,9.126,0,0,1,1.055,1.057c.19.236.341.428.436.565l.151.209s-.019-.089-.056-.254a5.338,5.338,0,0,0-.213-.7,7.025,7.025,0,0,0-1.421-2.262A8.8,8.8,0,0,0,349.443,38.474ZM339.422,43.6a2.222,2.222,0,0,1,2.541,1.774,2.5,2.5,0,0,1-4.859.287A2.224,2.224,0,0,1,339.422,43.6Zm-3.083,4.915a.859.859,0,1,1,.873.608A.764.764,0,0,1,336.339,48.512Zm3.737,8.321a18.78,18.78,0,0,1-2.289.064l-.862-.046.862-.025c.552-.015,1.334-.077,2.266-.2a19.412,19.412,0,0,0,3.12-.693,14.232,14.232,0,0,0,3.313-1.512,11.8,11.8,0,0,0,2.758-2.361,11.33,11.33,0,0,0,1.71-2.674,9.169,9.169,0,0,0,.674-2.155,6.126,6.126,0,0,0,.1-.631c.019-.145.027-.225.027-.225s0,.079-.008.227-.008.366-.045.639a8.654,8.654,0,0,1-.554,2.225,10.676,10.676,0,0,1-1.66,2.8,12.111,12.111,0,0,1-2.8,2.467,14.468,14.468,0,0,1-3.416,1.507A17.273,17.273,0,0,1,340.076,56.833Z" transform="translate(-329.099 -37.695)" fill="#edfd27"/>
        </g>
      </g>
      <g id="Group_4843" data-name="Group 4843" transform="translate(370.547 64.701)">
        <g id="Group_4842" data-name="Group 4842">
          <path id="Path_10343" data-name="Path 10343" d="M337.935,59.13l-.275-.012a6.627,6.627,0,0,1-.765-.07,7.333,7.333,0,0,1-2.5-.92,9.556,9.556,0,0,1-2.75-2.485,11.913,11.913,0,0,1-1.088-1.785,11.387,11.387,0,0,1-.769-2.022,11.14,11.14,0,0,1-.4-2.124,11.866,11.866,0,0,1-.016-2.1,12.294,12.294,0,0,1,.885-3.644,13.236,13.236,0,0,1,1.278-2.392c.374-.546.616-.846.616-.846a8.55,8.55,0,0,0-.786.709,10.329,10.329,0,0,0-1.679,2.254,10.474,10.474,0,0,0-.776,1.733,10.235,10.235,0,0,0-.5,2.076,10.864,10.864,0,0,0-.083,2.295,11.714,11.714,0,0,0,.4,2.339,12.285,12.285,0,0,0,.877,2.2,10.456,10.456,0,0,0,1.282,1.911,8.88,8.88,0,0,0,3.226,2.442,6.514,6.514,0,0,0,2.771.571,5.608,5.608,0,0,0,.78-.087Z" transform="translate(-328.295 -40.733)" fill="#edfd27"/>
        </g>
      </g>
      <g id="Group_4845" data-name="Group 4845" transform="translate(380.706 57.085)">
        <g id="Group_4844" data-name="Group 4844">
          <path id="Path_10344" data-name="Path 10344" d="M338.276,37.011a15.429,15.429,0,0,0-2.512.734,13.909,13.909,0,0,0-1.64.831c-.38.234-.583.38-.583.38s.23-.1.643-.252a13.982,13.982,0,0,1,1.714-.567,14.768,14.768,0,0,1,2.477-.494,16.546,16.546,0,0,1,5.715.3,14.707,14.707,0,0,1,2.413.749,13.611,13.611,0,0,1,1.646.742c.393.194.612.318.612.318s-.188-.167-.536-.44a14.1,14.1,0,0,0-1.547-1,15.353,15.353,0,0,0-2.421-.991,12.642,12.642,0,0,0-5.98-.312Z" transform="translate(-333.541 -36.8)" fill="#edfd27"/>
        </g>
      </g>
      <g id="Group_4847" data-name="Group 4847" transform="translate(334.597 58.818)">
        <g id="Group_4846" data-name="Group 4846">
          <path id="Path_10345" data-name="Path 10345" d="M332.069,57.06c-.023.025-.043.054-.064.077a9.483,9.483,0,0,1-1.45,1.228,10,10,0,0,1-1.206.691l-.5.23a4.239,4.239,0,0,0,.554-.019,5.31,5.31,0,0,0,1.437-.335,6.316,6.316,0,0,0,1.826-1.084,6.458,6.458,0,0,0,.852-.868,6.236,6.236,0,0,0,1.164-2.231,6.622,6.622,0,0,0,.227-1.193,5.8,5.8,0,0,0,0-1.129,5.362,5.362,0,0,0-.159-.99,5.227,5.227,0,0,0-.544-1.373,4,4,0,0,0-.3-.465s.033.2.095.538a9.9,9.9,0,0,1,.12,1.385c0,.077-.008.167-.008.246-1.762-4.458-8.615-10.352-14.334-11.923a23.6,23.6,0,0,1,6.638,2.593,38.5,38.5,0,0,1,4.591,2.986c1.059.808,1.64,1.311,1.64,1.311a18.935,18.935,0,0,0-1.4-1.584,28.678,28.678,0,0,0-4.27-3.621q-.665-.459-1.4-.908l.655.172,2.473.639c.606.149.961.215.961.215s-.29-.215-.815-.55-1.284-.8-2.237-1.3a20.817,20.817,0,0,0-3.416-1.412,15.859,15.859,0,0,0-2.06-.492,14.575,14.575,0,0,0-2.21-.2,12.327,12.327,0,0,0-2.235.18,10.376,10.376,0,0,0-2.107.6,8.79,8.79,0,0,0-3.172,2.175A7.06,7.06,0,0,0,310,42.91a5.917,5.917,0,0,0-.211.7c-.035.165-.054.254-.054.254l.153-.209c.089-.137.246-.329.434-.565a9.444,9.444,0,0,1,1.055-1.057l-.045.095a10.548,10.548,0,0,0-.591,2.415c-.045.407-.1.809-.132,1.216v.081c-.062.273-.118.55-.155.837a9.559,9.559,0,0,0,.037,2.626A11.461,11.461,0,0,0,311.2,51.9a13.726,13.726,0,0,0,1.249,2.341,14.324,14.324,0,0,0,1.58,1.987,19.567,19.567,0,0,0,3.377,2.823,28.358,28.358,0,0,0,2.641,1.563c.654.341,1.044.515,1.044.515s-.3-.3-.833-.811-1.286-1.234-2.182-2.091c-.722-.711-1.524-1.532-2.3-2.45a15.142,15.142,0,0,0,2.072,1.319,21.451,21.451,0,0,0,5.254,1.987c.655.168,1.175.25,1.532.31l.544.089-.517-.19c-.337-.126-.833-.292-1.447-.558a26.191,26.191,0,0,1-4.584-2.4C323.2,58.429,328.851,58.654,332.069,57.06ZM313.8,47.25a.677.677,0,1,1-.6.877A.76.76,0,0,1,313.8,47.25Zm-.548-2.078a2.5,2.5,0,0,1,4.648-1.448,2.5,2.5,0,0,1-4.648,1.448Zm8.567,11.305a15.364,15.364,0,0,1-2.543-.887,9.256,9.256,0,0,1-.96-.476c-.281-.151-.523-.289-.711-.416-.385-.248-.6-.391-.6-.391l.635.329a7.578,7.578,0,0,0,.742.354c.285.134.614.275.976.409a17.618,17.618,0,0,0,2.535.767,18.76,18.76,0,0,0,3,.407,18.547,18.547,0,0,0,3.025-.095,18.2,18.2,0,0,0,2.6-.5c.378-.1.718-.2,1.017-.308a7.158,7.158,0,0,0,.773-.275c.426-.165.668-.261.668-.261l-.639.329c-.2.107-.457.217-.751.339a8.959,8.959,0,0,1-1.007.374,15.213,15.213,0,0,1-2.616.62,15.662,15.662,0,0,1-6.139-.318Z" transform="translate(-309.73 -37.695)" fill="#edfd27"/>
        </g>
      </g>
      <g id="Group_4849" data-name="Group 4849" transform="translate(351.723 64.701)">
        <g id="Group_4848" data-name="Group 4848">
          <path id="Path_10346" data-name="Path 10346" d="M325.625,56.254a10.361,10.361,0,0,0,1.282-1.911,12.317,12.317,0,0,0,.881-2.2,12.454,12.454,0,0,0,.4-2.339,10.989,10.989,0,0,0-.083-2.295,10.78,10.78,0,0,0-.5-2.076,10.467,10.467,0,0,0-.779-1.733,10.2,10.2,0,0,0-1.679-2.254,8.106,8.106,0,0,0-.784-.709s.242.3.618.846a13.743,13.743,0,0,1,1.278,2.392,13.951,13.951,0,0,1,.556,1.7,11.8,11.8,0,0,1,.31,4.045,10.7,10.7,0,0,1-.4,2.124,11.236,11.236,0,0,1-.767,2.022,11.614,11.614,0,0,1-1.09,1.785,9.531,9.531,0,0,1-2.75,2.485,7.319,7.319,0,0,1-2.5.92,6.6,6.6,0,0,1-.763.07l-.277.012.273.05a5.646,5.646,0,0,0,.782.087A6.532,6.532,0,0,0,322.4,58.7,8.87,8.87,0,0,0,325.625,56.254Z" transform="translate(-318.574 -40.733)" fill="#edfd27"/>
        </g>
      </g>
      <g id="Group_4851" data-name="Group 4851" transform="translate(335.985 57.085)">
        <g id="Group_4850" data-name="Group 4850">
          <path id="Path_10347" data-name="Path 10347" d="M312.709,38.692a14.654,14.654,0,0,1,2.409-.749,16.56,16.56,0,0,1,5.716-.3,14.806,14.806,0,0,1,2.477.494,13.979,13.979,0,0,1,1.714.567c.412.151.643.252.643.252s-.205-.145-.579-.38a14.074,14.074,0,0,0-1.646-.831,15.2,15.2,0,0,0-2.512-.734,12.626,12.626,0,0,0-5.976.312,15.559,15.559,0,0,0-2.424.991,14.423,14.423,0,0,0-1.545,1c-.349.273-.538.44-.538.44s.221-.124.618-.318A13.424,13.424,0,0,1,312.709,38.692Z" transform="translate(-310.447 -36.8)" fill="#edfd27"/>
        </g>
      </g>
      <g id="Group_4853" data-name="Group 4853" transform="translate(341.988 52.004)">
        <g id="Group_4852" data-name="Group 4852">
          <path id="Path_10348" data-name="Path 10348" d="M318.905,34.956c.618.019,1.265.056,1.931.1s1.35.124,2.037.225a18.282,18.282,0,0,1,2.055.412,13.719,13.719,0,0,1,1.973.66,11.961,11.961,0,0,1,1.793.906,14.162,14.162,0,0,1,2.777,2.273,17.621,17.621,0,0,1,1.63,2.008c.362.519.556.829.556.829s-.118-.345-.383-.926a12.1,12.1,0,0,0-1.369-2.279,11.707,11.707,0,0,0-2.734-2.637,10.6,10.6,0,0,0-1.886-1.055,14.679,14.679,0,0,0-2.107-.742,19.46,19.46,0,0,0-2.175-.4,19.7,19.7,0,0,0-2.126-.147c-.687-.021-1.35.006-1.977.035s-1.218.085-1.76.141c-2.171.238-3.592.55-3.592.55s1.46.019,3.619.017Z" transform="translate(-313.547 -34.176)" fill="#edfd27"/>
        </g>
      </g>
      <g id="Group_4855" data-name="Group 4855" transform="translate(369.818 52.004)">
        <g id="Group_4854" data-name="Group 4854">
          <path id="Path_10349" data-name="Path 10349" d="M336.394,34.73a14.631,14.631,0,0,0-2.1.742,10.572,10.572,0,0,0-1.89,1.055,11.831,11.831,0,0,0-2.736,2.637,12.469,12.469,0,0,0-1.365,2.279c-.267.581-.381.926-.381.926s.19-.31.552-.829a18.053,18.053,0,0,1,1.631-2.008,14.061,14.061,0,0,1,2.779-2.273,12.1,12.1,0,0,1,1.789-.906,13.906,13.906,0,0,1,1.975-.66,18.312,18.312,0,0,1,2.056-.412c.689-.1,1.369-.174,2.035-.225s1.313-.079,1.929-.1l1.741-.029c2.163,0,3.619-.017,3.619-.017s-1.423-.312-3.59-.55c-.544-.056-1.135-.11-1.758-.141s-1.294-.056-1.981-.035a19.417,19.417,0,0,0-4.3.546Z" transform="translate(-327.918 -34.176)" fill="#edfd27"/>
        </g>
      </g>
      <g id="Group_4857" data-name="Group 4857" transform="translate(361.856 80.947)">
        <g id="Group_4856" data-name="Group 4856">
          <path id="Path_10350" data-name="Path 10350" d="M325.141,52.286c.079-1.656,1.679-2.976,1.108-3.1-2.655-.587-2.275,3.329-2.43,4.34S325.058,53.94,325.141,52.286Z" transform="translate(-323.807 -49.122)" fill="#edfd27"/>
        </g>
      </g>
      <g id="Group_4859" data-name="Group 4859" transform="translate(367.489 80.947)">
        <g id="Group_4858" data-name="Group 4858">
          <path id="Path_10351" data-name="Path 10351" d="M329.274,53.521c-.155-1.011.219-4.926-2.436-4.34-.571.128,1.03,1.449,1.114,3.1S329.429,54.532,329.274,53.521Z" transform="translate(-326.716 -49.122)" fill="#edfd27"/>
        </g>
      </g>
      <g id="Group_4861" data-name="Group 4861" transform="translate(338.053 63.598)">
        <g id="Group_4860" data-name="Group 4860">
          <path id="Path_10352" data-name="Path 10352" d="M316.233,41.412a2.5,2.5,0,1,0-1.754,2.556A2.224,2.224,0,0,0,316.233,41.412Z" transform="translate(-311.515 -40.163)" fill="#423fbf"/>
        </g>
      </g>
      <g id="Group_4863" data-name="Group 4863" transform="translate(338.045 68.325)">
        <g id="Group_4862" data-name="Group 4862">
          <path id="Path_10353" data-name="Path 10353" d="M312.526,43.909a.677.677,0,1,0-.991-.38A.761.761,0,0,0,312.526,43.909Z" transform="translate(-311.511 -42.604)" fill="#423fbf"/>
        </g>
      </g>
      <g id="Group_4865" data-name="Group 4865" transform="translate(380.107 64.716)">
        <g id="Group_4864" data-name="Group 4864">
          <path id="Path_10354" data-name="Path 10354" d="M335.775,44.58a2.224,2.224,0,0,0,2.318-2.06,2.5,2.5,0,0,0-4.859.287A2.225,2.225,0,0,0,335.775,44.58Z" transform="translate(-333.232 -40.74)" fill="#423fbf"/>
        </g>
      </g>
      <g id="Group_4867" data-name="Group 4867" transform="translate(379.344 68.927)">
        <g id="Group_4866" data-name="Group 4866">
          <path id="Path_10355" data-name="Path 10355" d="M334.506,43.525a.859.859,0,1,0-.794.707A.764.764,0,0,0,334.506,43.525Z" transform="translate(-332.837 -42.915)" fill="#423fbf"/>
        </g>
      </g>
      <g id="Group_4869" data-name="Group 4869" transform="translate(341.874 75.43)">
        <g id="Group_4868" data-name="Group 4868">
          <path id="Path_10356" data-name="Path 10356" d="M327.059,48.142a8.957,8.957,0,0,0,1.007-.374c.294-.122.548-.232.751-.339l.639-.329s-.242.1-.668.261a7.158,7.158,0,0,1-.773.275c-.3.1-.639.211-1.017.308a18.2,18.2,0,0,1-2.6.5,18.546,18.546,0,0,1-3.025.095,18.759,18.759,0,0,1-3-.407,17.619,17.619,0,0,1-2.535-.767c-.362-.134-.691-.275-.976-.409a7.572,7.572,0,0,1-.742-.354l-.635-.329s.217.143.6.391c.188.128.43.265.711.416a9.26,9.26,0,0,0,.96.476,15.364,15.364,0,0,0,2.543.887,15.661,15.661,0,0,0,6.139.318A15.212,15.212,0,0,0,327.059,48.142Z" transform="translate(-313.488 -46.273)" fill="#edfd27"/>
        </g>
      </g>
      <g id="Group_4871" data-name="Group 4871" transform="translate(379.932 67.5)">
        <g id="Group_4870" data-name="Group 4870">
          <path id="Path_10357" data-name="Path 10357" d="M345.7,48.069a10.675,10.675,0,0,0,1.66-2.8,8.652,8.652,0,0,0,.554-2.225c.037-.273.033-.492.045-.639s.008-.227.008-.227-.008.079-.027.225a6.143,6.143,0,0,1-.1.631,9.169,9.169,0,0,1-.674,2.155,11.33,11.33,0,0,1-1.71,2.674,11.8,11.8,0,0,1-2.758,2.361,14.232,14.232,0,0,1-3.313,1.512,19.414,19.414,0,0,1-3.12.693c-.932.12-1.714.182-2.266.2l-.862.025L334,52.7a18.78,18.78,0,0,0,2.289-.064,17.273,17.273,0,0,0,3.191-.593,14.469,14.469,0,0,0,3.416-1.507A12.111,12.111,0,0,0,345.7,48.069Z" transform="translate(-333.141 -42.178)" fill="#edfd27"/>
        </g>
      </g>
      <g id="Group_4873" data-name="Group 4873" transform="translate(362.591 97.167)">
        <g id="Group_4872" data-name="Group 4872">
          <path id="Path_10358" data-name="Path 10358" d="M329.734,58.04a3.463,3.463,0,0,1-1,.269,5.488,5.488,0,0,1-1.2.081,6.432,6.432,0,0,1-1.214-.058,6.611,6.611,0,0,1-1.067-.167,7.142,7.142,0,0,1-.767-.17l-.3-.07s.083.072.234.2.393.267.691.434a7.416,7.416,0,0,0,1.09.4,7.023,7.023,0,0,0,1.334.167,6.215,6.215,0,0,0,1.34-.2,3.831,3.831,0,0,0,1.069-.536,2.879,2.879,0,0,0,.563-.62,1.7,1.7,0,0,0,.139-.279,2.044,2.044,0,0,1-.246.18A2.731,2.731,0,0,1,329.734,58.04Z" transform="translate(-324.186 -57.498)" fill="#edfd27"/>
        </g>
      </g>
      <g id="Group_4875" data-name="Group 4875" transform="translate(362.095 90.274)">
        <g id="Group_4874" data-name="Group 4874">
          <path id="Path_10359" data-name="Path 10359" d="M330.078,54.129a3.243,3.243,0,0,0-1.3.089,2.625,2.625,0,0,1-1.189.229,8.062,8.062,0,0,1-1.243-.422,3.324,3.324,0,0,0-1.309-.039,3.23,3.23,0,0,0-.84.325,2.906,2.906,0,0,0-.267.2,4.121,4.121,0,0,1,1.143-.11,2.746,2.746,0,0,1,1.077.234,7.545,7.545,0,0,0,1.344.546,3.16,3.16,0,0,0,1.493-.356,2.759,2.759,0,0,1,1.071-.279,2.842,2.842,0,0,1,.825.023,2.717,2.717,0,0,1,.322.056,2.442,2.442,0,0,0-.277-.192A3.047,3.047,0,0,0,330.078,54.129Z" transform="translate(-323.93 -53.939)" fill="#edfd27"/>
        </g>
      </g>
      <g id="Group_4877" data-name="Group 4877" transform="translate(360.884 52.835)">
        <g id="Group_4876" data-name="Group 4876">
          <path id="Path_10360" data-name="Path 10360" d="M324.544,36.024c.393.4.852.875,1.34,1.383a5.162,5.162,0,0,0,1.909,1.354,2.924,2.924,0,0,0,2.376-.447,5.679,5.679,0,0,0,1.35-1.489c.3-.484.54-.879.738-1.141a4.245,4.245,0,0,1,.306-.414,4.63,4.63,0,0,0-.416.32c-.246.221-.575.571-.957.982a5.115,5.115,0,0,1-1.361,1.2,2.234,2.234,0,0,1-1.828.283,4.572,4.572,0,0,1-1.687-1.119c-.544-.443-1.052-.86-1.489-1.214s-.829-.622-1.09-.819-.43-.3-.43-.3l.333.4Z" transform="translate(-323.305 -34.605)" fill="#edfd27"/>
        </g>
      </g>
      <g id="Group_4879" data-name="Group 4879" transform="translate(342.377 22.372)">
        <g id="Group_4878" data-name="Group 4878">
          <path id="Path_10361" data-name="Path 10361" d="M319.24,20.359a22.6,22.6,0,0,0-1.679,1.8,24.428,24.428,0,0,0-1.6,2.335,23.54,23.54,0,0,0-1.2,2.564,22.01,22.01,0,0,0-.7,2.363c-.147.7-.227,1.3-.277,1.712-.029.418-.048.656-.048.656s.068-.229.19-.627.283-.968.533-1.629a21.92,21.92,0,0,1,.889-2.233,29.436,29.436,0,0,1,2.711-4.756,21.422,21.422,0,0,1,1.468-1.9c.443-.554.844-.99,1.131-1.288s.443-.484.443-.484-.2.137-.538.378S319.77,19.875,319.24,20.359Z" transform="translate(-313.748 -18.874)" fill="#edfd27"/>
        </g>
      </g>
      <g id="Group_4881" data-name="Group 4881" transform="translate(379.024 21.014)">
        <g id="Group_4880" data-name="Group 4880">
          <path id="Path_10362" data-name="Path 10362" d="M334.887,19.693a20.979,20.979,0,0,1,2.1,1.749,22.5,22.5,0,0,1,2.161,2.244,24.614,24.614,0,0,1,1.921,2.459,24.186,24.186,0,0,1,1.464,2.308c.413.689.73,1.284.933,1.708.221.42.345.66.345.66s-.076-.259-.211-.715-.38-1.09-.7-1.842a24.674,24.674,0,0,0-1.3-2.473,25.349,25.349,0,0,0-1.9-2.589,23.383,23.383,0,0,0-2.3-2.244,21.392,21.392,0,0,0-2.283-1.609,18.115,18.115,0,0,0-1.756-.9c-.438-.178-.691-.279-.691-.279l.624.4A18.509,18.509,0,0,1,334.887,19.693Z" transform="translate(-332.672 -18.173)" fill="#edfd27"/>
        </g>
      </g>
      <g id="Group_4883" data-name="Group 4883" transform="translate(370.166 45.377)">
        <g id="Group_4882" data-name="Group 4882" transform="translate(0 0)">
          <path id="Path_10363" data-name="Path 10363" d="M330.106,33.4c.593-.234,1.3-.467,2.06-.7.757-.244,1.574-.469,2.4-.66.819-.215,1.644-.393,2.426-.531s1.514-.275,2.15-.345c.631-.1,1.164-.161,1.539-.2l.585-.074-.589-.07c-.376-.031-.916-.066-1.563-.076-.651.006-1.406.054-2.215.128-.806.107-1.662.259-2.508.445-.84.23-1.669.494-2.428.773-.753.314-1.445.622-2.02.92s-1.032.593-1.35.794-.492.337-.492.337.2-.076.556-.209S329.5,33.6,330.106,33.4Z" transform="translate(-328.098 -30.754)" fill="#edfd27"/>
        </g>
      </g>
      <g id="Group_4885" data-name="Group 4885" transform="translate(349.893 45.627)">
        <g id="Group_4884" data-name="Group 4884" transform="translate(0 0)">
          <path id="Path_10364" data-name="Path 10364" d="M321.2,31.648a14.875,14.875,0,0,1,1.973.612,15.18,15.18,0,0,1,1.9.811,13.624,13.624,0,0,1,1.584.885,11.6,11.6,0,0,1,1.086.713l.412.283-.316-.387a11.317,11.317,0,0,0-.937-.941,14.4,14.4,0,0,0-1.52-1.112,11.116,11.116,0,0,0-4.055-1.491,14.253,14.253,0,0,0-1.88-.137,11.927,11.927,0,0,0-1.323.11l-.492.093.5.052a11.432,11.432,0,0,1,1.29.159A13.772,13.772,0,0,1,321.2,31.648Z" transform="translate(-317.629 -30.883)" fill="#edfd27"/>
        </g>
      </g>
      <g id="Group_4887" data-name="Group 4887" transform="translate(362.889 133.935)">
        <g id="Group_4886" data-name="Group 4886">
          <path id="Path_10365" data-name="Path 10365" d="M332.154,108.985c-.139-1.069-.3-2.314-.393-3.65-.155-1.326-.265-2.744-.289-4.163-.1-1.418-.12-2.841-.1-4.181,0-.1,0-.2,0-.3.159-2.44.178-4.876.1-7.157-.124-2.438-.339-4.7-.544-6.634-.254-1.929-.488-3.53-.655-4.651-.192-1.119-.3-1.758-.3-1.758s.008.649.019,1.784c.033,1.131.083,2.75.108,4.686.074,1.935.134,4.189.091,6.6a71.664,71.664,0,0,1-.329,7.51,51.39,51.39,0,0,1-1.081,7.407,41.848,41.848,0,0,1-1.789,6.288,33.039,33.039,0,0,1-1.83,4.276c-.238.513-.463.9-.6,1.168s-.219.411-.219.411.1-.128.283-.37.467-.591.784-1.063a33.232,33.232,0,0,0,2.357-4.1,43.354,43.354,0,0,0,2.264-6.311c.079-.31.149-.633.221-.953.076.575.151,1.148.242,1.7.26,1.348.577,2.583.85,3.639.333,1.044.616,1.906.833,2.5.234.594.366.933.366.933s-.029-.362-.087-1C332.365,110.96,332.268,110.062,332.154,108.985Z" transform="translate(-324.34 -76.485)" fill="#edfd27"/>
        </g>
      </g>
      <g id="Group_4889" data-name="Group 4889" transform="translate(364.417 179.181)">
        <g id="Group_4888" data-name="Group 4888">
          <path id="Path_10366" data-name="Path 10366" d="M327.387,119.091a6.366,6.366,0,0,1-.852-1.851,6.267,6.267,0,0,1-.041-1.973c.37-2.792.817-5.5,1.146-7.771.3-2.291.548-4.2.722-5.538.151-1.34.234-2.107.234-2.107s-.19.747-.515,2.057c-.306,1.313-.738,3.189-1.259,5.442-.465,2.277-1.048,4.857-1.6,7.759a7.413,7.413,0,0,0,.015,2.4,7.607,7.607,0,0,0,.945,2.252,8.617,8.617,0,0,1,1.013,4.1c.079,1.466-.041,3-.108,4.514s-.147,3-.221,4.442c-.093,2.885-.176,5.579-.252,7.885-.027,2.312-.05,4.237-.066,5.587.012,1.348.015,2.119.015,2.119s.1-.763.273-2.1c.147-1.34.354-3.253.608-5.55.205-2.3.447-4.985.7-7.86.1-1.439.207-2.926.318-4.436s.256-3.048.207-4.661A10.062,10.062,0,0,0,327.387,119.091Z" transform="translate(-325.129 -99.85)" fill="#edfd27"/>
        </g>
      </g>
      <g id="Group_4891" data-name="Group 4891" transform="translate(361.231 121.929)">
        <g id="Group_4890" data-name="Group 4890">
          <path id="Path_10367" data-name="Path 10367" d="M333.864,72.314c-.583.368-1.282.769-2,1.249a5.489,5.489,0,0,1-1.052.629,1.428,1.428,0,0,1-1.055-.18,10.222,10.222,0,0,1-1.127-.678c-.38-.246-.753-.488-1.117-.72-.718-.469-1.425-.862-2.012-1.222s-1.1-.616-1.456-.815l-.563-.292s.178.149.484.411.753.629,1.305,1.044,1.181.914,1.888,1.406c.351.248.715.5,1.084.761a10.664,10.664,0,0,0,1.193.773,2.129,2.129,0,0,0,1.592.168,5.731,5.731,0,0,0,1.2-.755c.7-.5,1.321-1.019,1.869-1.435s.972-.808,1.286-1.061.476-.418.476-.418-.205.108-.56.3S334.446,71.948,333.864,72.314Z" transform="translate(-323.484 -70.285)" fill="#edfd27"/>
        </g>
      </g>
    </g>
  </g>
</svg>
