<svg xmlns="http://www.w3.org/2000/svg" width="640" height="450" viewBox="0 0 640 450">
  <g id="Group_4738" data-name="Group 4738" transform="translate(-20691 4299)">
    <rect id="Rectangle_2550" data-name="Rectangle 2550" width="640" height="450" transform="translate(20691 -4299)" fill="#423fbf"/>
    <path id="Path_10368" data-name="Path 10368" d="M396.874,96.041c.144-.218.288-.439.424-.661.066-.114.144-.225.218-.34a.759.759,0,0,0,.044-.118,20.732,20.732,0,0,0,3.026-10.606c0-17.341-21.839-31.711-63.145-41.561a425.458,425.458,0,0,0-43.391-7.735C277.975,19.5,248.253,0,200.29,0s-77.678,19.5-93.753,35.021a425.275,425.275,0,0,0-43.391,7.735C21.836,52.606,0,66.976,0,84.317A20.729,20.729,0,0,0,3.022,94.923c.018.037.026.081.048.118.066.114.148.225.214.34.137.221.277.443.421.661.229.351.469.694.716,1.037.125.173.251.354.384.528q.531.708,1.118,1.4c.041.044.077.092.114.14.443.517.915,1.026,1.406,1.535.118.125.251.251.373.373.369.373.745.742,1.137,1.107.181.166.362.332.546.5.358.321.723.642,1.1.96.2.17.4.34.609.509.388.321.79.638,1.2.952.2.151.388.306.59.458q.77.576,1.58,1.144c.1.07.2.144.3.214.653.45,1.321.9,2.011,1.34.155.1.314.2.469.3q.808.509,1.646,1.015c.21.125.424.244.635.369q.792.465,1.609.923l.635.347c.576.317,1.162.627,1.757.937l.528.277q1.019.52,2.074,1.037c.089.041.173.085.262.125C37.25,118.766,50.783,123.25,66.157,127a4.153,4.153,0,0,0-.162,1.162c0,2.38,1.779,4.532,7.9,6.513.565,2.391,4.9,6.259,38.084,9.521,23.6,2.321,54.964,3.594,88.314,3.594s64.721-1.273,88.317-3.594c33.191-3.262,37.516-7.13,38.084-9.525,6.122-1.978,7.9-4.13,7.9-6.51a4.3,4.3,0,0,0-.166-1.162c15.381-3.746,28.91-8.233,39.664-13.44l.24-.114q1.068-.52,2.1-1.052c.166-.085.332-.173.505-.262.6-.314,1.2-.631,1.779-.952l.605-.332c.561-.31,1.1-.624,1.635-.937.21-.122.413-.24.616-.362.568-.34,1.129-.686,1.679-1.03.144-.1.3-.185.439-.277.69-.447,1.369-.893,2.019-1.343.092-.066.181-.129.266-.2.554-.384,1.1-.775,1.613-1.166.2-.148.384-.3.579-.447.41-.317.819-.638,1.21-.963q.3-.249.6-.5c.38-.325.749-.646,1.111-.974.177-.162.365-.325.539-.487.4-.369.779-.742,1.148-1.118.122-.118.244-.24.365-.362q.736-.764,1.406-1.539c.037-.048.074-.1.114-.14C395.051,98.543,396.649,96.392,396.874,96.041ZM200.29,144.1c-71.906,0-116.342-5.742-122.254-10.038,11.3,4.439,61.732,7.79,122.254,7.79s110.972-3.351,122.261-7.79C316.646,138.355,272.211,144.1,200.29,144.1Zm0-11.455c42.974,0,80.568-1.779,101.348-4.436.9.255,1.723.513,2.5.779-20.607,2.93-59.968,4.772-103.85,4.772s-83.243-1.841-103.846-4.772c.779-.266,1.605-.524,2.506-.779C119.726,130.863,157.323,132.642,200.29,132.642Zm110.065-.52c-17.481,3.391-60.153,5.786-110.065,5.786s-92.58-2.4-110.057-5.786a8.176,8.176,0,0,1,1.495-1.1c18.987,3.354,61.16,5.5,108.563,5.5s89.579-2.148,108.563-5.5A8.389,8.389,0,0,1,310.354,132.122ZM94.609,129.645c20.142,3.081,60.533,5.034,105.68,5.034s85.542-1.952,105.684-5.034c.561.218,1.059.443,1.532.664-19.452,3.229-60.81,5.292-107.216,5.292s-87.756-2.063-107.212-5.292C93.55,130.088,94.052,129.863,94.609,129.645Zm229.185.2c-3.986-2.081-13.311-4.495-35.187-6.643-23.6-2.321-54.964-3.594-88.317-3.594s-64.714,1.273-88.314,3.594c-21.873,2.148-31.2,4.561-35.191,6.643a20.425,20.425,0,0,1-4.547-1.686c7.7-4.469,53.742-10.152,128.051-10.152s120.357,5.683,128.055,10.152A20.4,20.4,0,0,1,323.795,129.845ZM200.29,5.536c40.9,0,67.9,14.665,84.144,28.25.081.029.151.059.229.092-1.092-.125-2.2-.24-3.292-.362-15.662-5.827-42-12.425-81.081-12.425s-65.415,6.6-81.073,12.425c-1.126.122-2.255.244-3.373.369,1.159-.978,2.362-1.956,3.631-2.938C134.472,19.356,160.67,5.536,200.29,5.536Zm-68.1,26.718.129-.144C148.16,27.7,170.5,23.858,200.29,23.858a289.805,289.805,0,0,1,43.243,3.059c.3.347.6.7.9,1.048a289.456,289.456,0,0,0-44.14-3.185c-27.179,0-48.181,3.2-63.736,7.1C135.089,32,133.638,32.124,132.188,32.254Zm110.43-6.406a292.175,292.175,0,0,0-42.328-2.912c-29.01,0-50.982,3.642-66.8,7.9.369-.4.734-.793,1.111-1.192,15.684-4.137,37.306-7.632,65.692-7.632a292.47,292.47,0,0,1,41.324,2.775C241.946,25.142,242.3,25.489,242.618,25.847Zm-42.328-.14a287.784,287.784,0,0,1,45.055,3.325c.45.55.86,1.1,1.284,1.653-14.95-.845-30.475-1.288-46.34-1.288-19.921,0-39.313.69-57.695,2.019C157.39,28.176,176.443,25.707,200.29,25.707ZM64.433,48.144c35.722-8.521,83.97-13.211,135.856-13.211s100.137,4.69,135.86,13.211C364.5,54.9,383.338,63.773,391.066,73.77c-9.5-9.37-27.722-17.4-54.06-23.681-36-8.584-84.546-13.307-136.716-13.307S99.573,41.505,63.574,50.089C37.239,56.366,19.016,64.4,9.514,73.774,17.249,63.773,36.084,54.9,64.433,48.144ZM200.29,38.627c25.323,0,50.724,1.185,74.456,3.517v1.768c-23.164-2.255-48.355-3.439-74.456-3.439-52.163,0-100.717,4.727-136.716,13.307a201.939,201.939,0,0,0-32.32,10.259v-1.69C67.43,46.7,134.133,38.627,200.29,38.627Zm100.864,6.705v1.753q-8.087-1.162-16.625-2.137v-1.76Q293.026,44.157,301.154,45.332Zm84.527,43.76a125.86,125.86,0,0,1-11.5,10.137,144.7,144.7,0,0,1-13.164,9.252,134.968,134.968,0,0,1-28.917,13.8,134.672,134.672,0,0,0,28.419-14.573,143.055,143.055,0,0,0,12.787-9.551,124.7,124.7,0,0,0,10.912-10.182c-8.015-6.078-20.109-11.5-35.557-16.09A88.7,88.7,0,0,1,340,85.085,137.152,137.152,0,0,1,329.05,97.4a163.48,163.48,0,0,1-25.637,20.5A163.088,163.088,0,0,0,328.385,96.75a136.3,136.3,0,0,0,10.51-12.5,88.573,88.573,0,0,0,7.993-12.876,343.258,343.258,0,0,0-42.863-9.078c-2,4.628-4.266,9.071-6.687,13.451q-3.764,6.82-8.074,13.311a176.9,176.9,0,0,1-19.286,24.338,176.448,176.448,0,0,0,18.507-24.836q4.1-6.571,7.632-13.462c2.2-4.277,4.266-8.658,6.048-13.082-15.466-2.3-32.438-4.063-50.62-5.211q-2.779,13.894-6.668,27.467a181.63,181.63,0,0,1-9.82,27.043,181.413,181.413,0,0,0,8.934-27.286c2.266-9.03,4.181-18.168,5.716-27.331-15.4-.93-31.619-1.432-48.51-1.45l-.908,54.222-.9-54.222c-16.891.018-33.113.52-48.51,1.45,1.535,9.163,3.45,18.3,5.716,27.331a182.248,182.248,0,0,0,8.934,27.286A182.461,182.461,0,0,1,155.7,84.269q-3.875-13.59-6.665-27.467c-18.179,1.148-35.154,2.912-50.62,5.211,1.786,4.425,3.849,8.805,6.049,13.082Q108,81.975,112.1,88.557A176.454,176.454,0,0,0,130.6,113.393a176.875,176.875,0,0,1-19.282-24.338q-4.318-6.476-8.078-13.311c-2.417-4.38-4.679-8.824-6.687-13.451A342.9,342.9,0,0,0,53.7,71.371a87.935,87.935,0,0,0,7.993,12.876,135.641,135.641,0,0,0,10.5,12.5,163.149,163.149,0,0,0,24.98,21.142A163.145,163.145,0,0,1,71.537,97.4,136.572,136.572,0,0,1,60.588,85.085a88.435,88.435,0,0,1-8.672-13.2C36.464,76.479,24.378,81.9,16.356,87.974A126.869,126.869,0,0,0,27.268,98.156a143.675,143.675,0,0,0,12.794,9.551A134.4,134.4,0,0,0,68.482,122.28a134.938,134.938,0,0,1-28.925-13.8A145.161,145.161,0,0,1,26.4,99.23,125.354,125.354,0,0,1,14.905,89.092a34.524,34.524,0,0,0-5.417,5.477c-.24-.31-.513-.616-.731-.926C25.866,69.5,102.16,53.4,200.29,53.4S374.718,69.5,391.83,93.642c-.225.31-.5.616-.734.926A34.8,34.8,0,0,0,385.682,89.092ZM200.29,42.317c25.323,0,50.724,1.185,74.456,3.521v1.768c-23.164-2.258-48.355-3.439-74.456-3.439-52.163,0-100.717,4.724-136.716,13.307a201.561,201.561,0,0,0-32.32,10.259v-1.69C67.43,50.388,134.133,42.317,200.29,42.317ZM394.963,85.789a34.351,34.351,0,0,0-6.263-6.757c-.041-.48-.085-.978-.136-1.443a27.573,27.573,0,0,1,6.414,8.1A.49.49,0,0,0,394.963,85.789ZM31.254,69.74C67.426,54.086,134.126,46.011,200.29,46.011c25.323,0,50.724,1.185,74.456,3.521v1.816c-23.275-2.284-48.558-3.491-74.456-3.491-46.631,0-91.306,3.9-125.793,10.99-18.7,3.845-32.722,8.248-43.243,12.765Zm269.9-17.02V54.54q-8.082-1.174-16.625-2.155V50.569Q293.026,51.543,301.154,52.72Zm0-1.941q-8.087-1.168-16.625-2.137V46.878q8.5.974,16.625,2.148Zm-290.6,29.4A32.546,32.546,0,0,0,5.62,85.789l-.015-.1a26.21,26.21,0,0,1,5.166-6.923C10.691,79.246,10.617,79.719,10.558,80.184ZM10.4,82.837c.007.325.041.649.07.978a41.916,41.916,0,0,0-3.716,3.554A27.768,27.768,0,0,1,10.4,82.837Zm378.615.07c-.037-.432-.063-.867-.092-1.288a29.661,29.661,0,0,1,4.908,5.75A45.3,45.3,0,0,0,389.018,82.907Zm5.823-.974a35.024,35.024,0,0,0-6.572-6.953c-.066-.52-.129-1.03-.2-1.528a28.389,28.389,0,0,1,6.724,8.2C394.819,81.745,394.826,81.841,394.841,81.933Zm-383.4-6.222a33.947,33.947,0,0,0-5.694,6.222c.018-.092.022-.188.041-.284A27.913,27.913,0,0,1,12,73.918C11.805,74.431,11.617,75.043,11.436,75.711Z" transform="translate(20703.85 -4099.917) rotate(-19)" fill="#edfd27"/>
  </g>
</svg>
