<svg xmlns="http://www.w3.org/2000/svg" width="640" height="450" viewBox="0 0 640 450">
  <g id="Group_4737" data-name="Group 4737" transform="translate(-20691 4299)">
    <rect id="Rectangle_2550" data-name="Rectangle 2550" width="640" height="450" transform="translate(20691 -4299)" fill="#423fbf"/>
    <g id="Group_4894" data-name="Group 4894" transform="translate(20628.18 -4490.21)">
      <g id="Group_4060" data-name="Group 4060" transform="translate(561.959 546.856)">
        <g id="Group_4059" data-name="Group 4059">
          <path id="Path_9956" data-name="Path 9956" d="M453.506,361.311q-3.237.835-6.526,1.51Q450.273,362.141,453.506,361.311Z" transform="translate(-446.98 -361.311)" fill="none"/>
        </g>
      </g>
      <g id="Group_4062" data-name="Group 4062" transform="translate(568.485 541.751)">
        <g id="Group_4061" data-name="Group 4061">
          <path id="Path_9957" data-name="Path 9957" d="M449.055,364.793a134.164,134.164,0,0,0,15.751-5.1A134.164,134.164,0,0,1,449.055,364.793Z" transform="translate(-449.055 -359.688)" fill="none"/>
        </g>
      </g>
      <g id="Group_4066" data-name="Group 4066" transform="translate(587.282 534.822)">
        <g id="Group_4065" data-name="Group 4065">
          <path id="Path_9959" data-name="Path 9959" d="M466.819,357.485q-5.732,3.114-11.788,5.683Q461.079,360.607,466.819,357.485Z" transform="translate(-455.031 -357.485)" fill="#edfd27"/>
        </g>
      </g>
      <g id="Group_4068" data-name="Group 4068" transform="translate(393.383 274.82)">
        <g id="Group_4067" data-name="Group 4067">
          <path id="Path_9960" data-name="Path 9960" d="M534.772,274.82c-77.961,0-141.389,63.427-141.389,141.392S456.81,557.6,534.772,557.6s141.395-63.427,141.395-141.388S612.733,274.82,534.772,274.82ZM540.7,529.369c-.057-.252.239-.532.657-.626s.8.035.852.283-.233.531-.651.626S540.754,529.617,540.7,529.369Zm4.589-16.711a2.044,2.044,0,0,0,.465-.239c.141-.063.3-.142.475-.223a5.9,5.9,0,0,1,.6-.192,2.361,2.361,0,0,1,.7.038,1.682,1.682,0,0,1,.544.289.9.9,0,0,1,.249.528.723.723,0,0,0-.437-.208,1.173,1.173,0,0,0-.443-.041,1.627,1.627,0,0,0-.5.047,5.121,5.121,0,0,0-.56.091c-.2.016-.387.025-.544.035A2.046,2.046,0,0,1,545.289,512.658Zm9.747-9.4a3.644,3.644,0,0,0-.575-.148,3.569,3.569,0,0,0-.645-.1,3.13,3.13,0,0,0-.657-.05,3.024,3.024,0,0,0-.591.013,2.623,2.623,0,0,0-.62.057,2.809,2.809,0,0,1,.51-.412,3.654,3.654,0,0,1,.645-.227,3.79,3.79,0,0,1,.786-.041,4.292,4.292,0,0,1,.755.214,3.413,3.413,0,0,1,.579.371,2.606,2.606,0,0,1,.406.516A2.779,2.779,0,0,0,555.036,503.256Zm.481,23.841s-.129.22-.359.535c-.123.138-.28.3-.453.459-.192.141-.393.286-.6.425-.229.113-.462.214-.676.3-.236.066-.45.12-.635.157-.387.031-.638.031-.638.031s.217-.142.5-.374c.161-.094.34-.211.522-.336.192-.107.393-.227.591-.355.214-.1.418-.217.613-.327.2-.094.387-.186.547-.277C555.285,527.2,555.518,527.1,555.518,527.1Zm12.968,19.758a134.163,134.163,0,0,0,15.751-5.1,134.163,134.163,0,0,1-15.751,5.1q-3.236.835-6.526,1.51Q565.252,547.686,568.485,546.856ZM563.01,517.52c.45-.151.887-.057.978.211s-.2.607-.645.761-.878.057-.972-.211S562.569,517.674,563.01,517.52Zm7.5,20.715c-.031-.283.321-.55.793-.607s.874.129.9.409-.318.554-.786.607S570.549,538.515,570.511,538.235Zm3.73-13.163a4.42,4.42,0,0,0,.428-.893.3.3,0,0,1,.126.4A1.881,1.881,0,0,1,574.241,525.072Zm24.829,9.75q-5.732,3.114-11.789,5.683Q593.33,537.944,599.07,534.822Zm-9.269-3.372c-.06-.277.258-.585.72-.686s.884.035.943.311-.264.582-.717.689S589.864,531.727,589.8,531.451Zm16.352-60.172a22.6,22.6,0,0,0,2.441-3.309,1.209,1.209,0,0,1,0,1.657A8.428,8.428,0,0,1,606.153,471.279Zm.346,24.59c-.245.4-.645.6-.887.453s-.233-.591.019-.991.645-.607.884-.456S606.751,495.472,606.5,495.868Zm-4.929-27.9a5.186,5.186,0,0,1-.576-2.491c.17-.984,1.387-2.148,3.476-2.494s2.261.462,2.261.462C604.121,463.387,601.4,465.882,601.57,467.97ZM584.9,500.357a2.4,2.4,0,0,1-.176.535,2.991,2.991,0,0,1-.393.522,3.78,3.78,0,0,1-.554.349,2.617,2.617,0,0,1-.554.129,2.127,2.127,0,0,1-.541-.075,1.92,1.92,0,0,0,.431-.28,2.111,2.111,0,0,0,.381-.274,2.737,2.737,0,0,0,.387-.336,2.477,2.477,0,0,0,.368-.359,1.734,1.734,0,0,0,.308-.355,1.95,1.95,0,0,0,.315-.4A2.169,2.169,0,0,1,584.9,500.357Zm19.818,31.22a134.822,134.822,0,0,0,64.947-115.365,148.652,148.652,0,0,0-1.777-19.749,140.8,140.8,0,0,0-4.557-19.249,137.768,137.768,0,0,0-7.328-18.337l-.069-.126c-4.7,2.359-13.131,2.595-5.52,6.734,1.607.852,3.6,1.761,5.712,2.686-4.023,7.781,3.353,5.674,1.463,9.577-5.872.126-7.555.138-5.464,3.859,2.944,5.171-10.766-1.271-14.311,7.417a7.563,7.563,0,0,0-.56,2.532,3.676,3.676,0,0,0-.038,1.7,3.62,3.62,0,0,1,.05.818,10.306,10.306,0,0,1-1.236-5.114c-.981-6.366-.006-2.082,2.365-6.706,2.661-5.926-4.724-2.73-2.535-5.941,2.038-3.3,9.637-3.366,6.209-5.111-3.648-1.614-1.2-1.648-2.155-6.168-.972-3.394-3.344-2.239-5.658-1.139a4.076,4.076,0,0,1,.453.9c1.365,4.208-1.18,4.381,2.742,5.684,3.69,1.44-4.174,1.956-6.017,5.177-2,3.148,5.388-.293,3.126,5.416-2.063,4.463-3.45.525-1.871,6.4.9,6.171,3.538,4.23,2.148,8.184-.922,2.18.154,1.84.824,1.793-3.189,3.529-10.03,6.684-10.829,13.3-1.585,1.541-3.428,3.306-3.73,4.888-.258,1.283.252,2.356-.89,3.384-3.982,3.535-2.972,5.438-7.347,7.731-1.72.884-3.385,1.629-4.866,2.227a54.755,54.755,0,0,0,7.533-.594c1.871-1.736,2.224-3.548,5.375-6.256,1.2-1.044.846-2.236,1.233-3.608a9.966,9.966,0,0,1,2.79-3.815c.362,3.142,1.025,6.067-.639,7.53-5.9,5.193-4.768,11.059-7.986,14.669a5.9,5.9,0,0,0-3.526,2.287c-.321.116-.645.226-1,.324a76.266,76.266,0,0,1-10.442,2.092c2.9,1.283,5.866,2.428,8.863,3.479-1.6,3.655-4.611,7.722-14.2,10.59-15.434,5.171-4.155-7.2-20.309,8.64-.481-.764-1.114-1.607-2.06-1.437-2.173.251.289,3.56-3.636,4.963-3.063.89-.412-2.107-4.378,2.025-4.186,3.825-2.827,4.636-5.536,5.724-2.777.918.459,2.082-2.765,2.208a8.729,8.729,0,0,1-2.843-.547c-.818-.267-1.727-1.721-2.551-.8-1.076,1.142-3.63-1.126-5.658.022-.878.491-1.6,1.4-2.315,1.142-2.469-.912-3.749.767-5.382-1.063a16.7,16.7,0,0,1-1.591-2.2,31.1,31.1,0,0,0,.528,4.881c1.211.39,2.444-.3,4.337.466.73.289,1.535-.573,2.475-1.016,2.18-1.044,4.68,1.33,5.86.242.909-.884,1.752.6,2.582.909a9.132,9.132,0,0,0,2.887.676c3.321.016.066-1.293,2.979-2.085,2.85-.969,1.51-1.837,6.033-5.495,4.312-3.972,1.418-1.085,4.6-1.843l-.075.085c.044.009.088.013.135.022a20.9,20.9,0,0,0,6.9.072,20.969,20.969,0,0,1,9.225,1.566c2.667.987,4.117,1.683,5.916,1.51s4.932,1.566,6.438,2.84,3.771,3.655,3.771,3.655-3.655-2.318-6.615-4.177-3.768-1.51-7.134-1.972-6.382-1.739-10.266-2.261c-3.2-.428-4.592-.157-8.863-.686-12.207,14.3-8.256,17.2-14.456,23.328a17.722,17.722,0,0,0-7.74,1.167c-2.438.962-5.08-1.409-8.407-2.318-7.992-2.164-15.4,6.75-19.781,4.881-3.68-1.516-5.366,3.57-7.674,5.378a53.143,53.143,0,0,1-8.263,5.661c-9.785,5.168-1.6-3.381-11.3-.431a17.281,17.281,0,0,1-4.866,1.066,27.292,27.292,0,0,1,3.136,4.385c1.45,2.45,2.129,3.906,3.636,4.907s2.831,4.328,3.192,6.269.623,5.215.623,5.215-1.371-4.1-2.494-7.413-1.966-3.551-4.281-6.036c-2.1-2.255-3.57-4.844-5.825-7.439-2.551-.374-4.922-1.462-11.348-1.057-2.824-.513-4.982.1-6.284-1.5-1.96-2.384,5.96-2.309.236-3.617-5.768-1.7-3.356-1.192-9.492-6.108-4.755-4.211-5.91-4.168-7.218-3.711.437.428.915.9,1.437,1.425,6.1,5.756,3.737,5.026,9.48,7.278,5.737,1.85-2.132,1.167-.079,3.875,1.626,2.139,4.366,1.01,8.187,2.714-1.308.164-2.727.368-4.312.645-19.34,4.117-6.457,1.777-15.327,8.9a132.133,132.133,0,0,0,10.933,8.3,140.556,140.556,0,0,0,17.031,9.93,137.3,137.3,0,0,0,18.337,7.328,140.18,140.18,0,0,0,19.246,4.557,148.724,148.724,0,0,0,19.749,1.774,134.224,134.224,0,0,1-75.518-21.872A136.14,136.14,0,1,1,647.8,340.694a134.205,134.205,0,0,1,21.872,75.511v.006A134.822,134.822,0,0,1,604.722,531.576Zm27.637-84.287c.063-.138.141-.3.223-.469a4.746,4.746,0,0,1,.349-.531,2.072,2.072,0,0,1,.56-.412,1.574,1.574,0,0,1,.607-.119.916.916,0,0,1,.528.251.7.7,0,0,0-.472.117,1.163,1.163,0,0,0-.371.245,1.58,1.58,0,0,0-.355.355,4.933,4.933,0,0,0-.381.425c-.148.135-.283.264-.4.371a2.329,2.329,0,0,1-.5.248A2.3,2.3,0,0,0,632.359,447.29Zm2.132-16.748a3.281,3.281,0,0,1-.044-.682,4.67,4.67,0,0,1,.192-.764,4.279,4.279,0,0,1,.425-.664,3.36,3.36,0,0,1,.516-.447,2.927,2.927,0,0,1,.607-.242,2.727,2.727,0,0,0-.349.513,3.091,3.091,0,0,0-.308.51,3.812,3.812,0,0,0-.283.591,3.758,3.758,0,0,0-.233.613,3,3,0,0,0-.154.572,2.909,2.909,0,0,0-.129.607A2.766,2.766,0,0,1,634.492,430.541Zm.83,57.681c.286-.368.7-.528.928-.352s.164.616-.123.984-.708.528-.928.356S635.033,488.593,635.322,488.222Zm-9.609,17.2c.2.195.1.632-.227.969s-.755.453-.959.255-.1-.632.226-.966S625.512,505.229,625.713,505.427Zm14.792-90.206c-.3.368-.7.528-.934.352s-.163-.613.129-.985.708-.528.928-.355S640.795,414.85,640.506,415.221Zm.308,11.858a2.733,2.733,0,0,1,.459.327,3.187,3.187,0,0,1,.387.525,3.44,3.44,0,0,1,.179.629,2.638,2.638,0,0,1-.038.566,2.142,2.142,0,0,1-.22.494,2.194,2.194,0,0,0-.148-.487,2.119,2.119,0,0,0-.16-.444,2.467,2.467,0,0,0-.208-.468,2.982,2.982,0,0,0-.239-.456,2.1,2.1,0,0,0-.251-.4,2.039,2.039,0,0,0-.3-.418A2.284,2.284,0,0,1,640.814,427.079Zm-.714,35.327c.2.16.148.56-.116.9s-.645.481-.846.324-.148-.563.116-.9S639.9,462.246,640.1,462.406Zm7.693-6.3s.079-.245.157-.61c.063-.17.123-.374.192-.588s.16-.428.233-.651c.1-.211.192-.431.264-.639.1-.2.185-.393.251-.56.192-.324.3-.557.3-.557s.038.255.066.642c-.009.186-.035.406-.066.642-.057.23-.123.472-.2.711-.1.23-.214.456-.33.661a6.386,6.386,0,0,1-.387.519C647.988,455.949,647.793,456.109,647.793,456.109ZM662.2,438.147a.3.3,0,0,1,.349.233,1.9,1.9,0,0,1-.123.73A4.454,4.454,0,0,0,662.2,438.147ZM504.929,521.279a5.184,5.184,0,0,1,1.123-2.3c.755-.654,2.434-.786,4.274.261s1.456,1.79,1.456,1.79C509.8,519.335,506.109,519.549,504.929,521.279Zm4.4,5.715a8.354,8.354,0,0,1-2.935-.258,22.344,22.344,0,0,0,3.979-1.022A1.2,1.2,0,0,1,509.326,526.994Z" transform="translate(-393.383 -274.82)" fill="#edfd27"/>
        </g>
      </g>
      <g id="Group_4070" data-name="Group 4070" transform="translate(613.491 361.397)">
        <g id="Group_4069" data-name="Group 4069">
          <path id="Path_9961" data-name="Path 9961" d="M476.838,305.868c-3.727-6.539-12.943-3.01-13.433,2.771s3.74,1.334,4.762,3.5,4.306,2.736,6.313,1.657C476.177,312.882,478.382,308.57,476.838,305.868Z" transform="translate(-463.364 -302.346)" fill="#edfd27"/>
        </g>
      </g>
      <g id="Group_4072" data-name="Group 4072" transform="translate(545.406 389.545)">
        <g id="Group_4071" data-name="Group 4071">
          <path id="Path_9962" data-name="Path 9962" d="M442.151,324.066c-2.3,9.857,5.224,1.236,6.161,4.6S454,332.1,457.27,329.75c2.784-1.994,7.231-9.838,5.658-13.965C459.138,305.8,444.444,314.216,442.151,324.066Z" transform="translate(-441.717 -311.295)" fill="#edfd27"/>
        </g>
      </g>
      <g id="Group_4074" data-name="Group 4074" transform="translate(483.11 320.638)">
        <g id="Group_4073" data-name="Group 4073">
          <path id="Path_9963" data-name="Path 9963" d="M448.772,295.381a8.089,8.089,0,0,0-4.318-4.856,5.078,5.078,0,0,1,.591.1,5.338,5.338,0,0,1,1.837.739,3.337,3.337,0,0,1,.62.488,3.261,3.261,0,0,0-.45-.679,4.6,4.6,0,0,0-1.786-1.258,8,8,0,0,0-3.048-.522,25.353,25.353,0,0,0-3.45.305,25.049,25.049,0,0,0-3.331.953,18.819,18.819,0,0,0-2.708,1.305,16.44,16.44,0,0,0-1.752,1.2l-.607.519s.271-.107.742-.3,1.135-.44,1.928-.742a23.329,23.329,0,0,0-8.948,10.48,13.707,13.707,0,0,1,.4-1.387c.23-.664.393-1.249.553-1.635.135-.4.217-.632.217-.632l-.443.506a10.682,10.682,0,0,0-1.006,1.46,13.491,13.491,0,0,0-1.063,2.283,21.547,21.547,0,0,0-.708,2.815,21.141,21.141,0,0,0-.116,2.9,13.354,13.354,0,0,0,.374,2.494,10.4,10.4,0,0,0,.547,1.686l.283.61s-.013-.242-.031-.67c-.044-.415-.038-1.022-.066-1.724a11.211,11.211,0,0,1,0-1.123c.928,2.12,4.293-.384,6.331-.532a5.791,5.791,0,0,0,1.683,1.51c1.482,3.608,6.954,3.579,10.795.824C445.246,310.051,450.69,300.439,448.772,295.381Z" transform="translate(-421.911 -289.387)" fill="#edfd27"/>
        </g>
      </g>
      <g id="Group_4076" data-name="Group 4076" transform="translate(622.071 389.71)">
        <g id="Group_4075" data-name="Group 4075">
          <path id="Path_9964" data-name="Path 9964" d="M471.294,311.99a3.641,3.641,0,0,0-4.686.434c-1,1.246-.5,3.063,1.094,4.067a3.651,3.651,0,0,0,4.693-.434C473.383,314.811,472.892,312.993,471.294,311.99Z" transform="translate(-466.092 -311.348)" fill="#edfd27"/>
        </g>
      </g>
      <g id="Group_4078" data-name="Group 4078" transform="translate(610.098 399.583)">
        <g id="Group_4077" data-name="Group 4077">
          <path id="Path_9965" data-name="Path 9965" d="M468.232,315.244c-1.893-1.186-4.375-.953-5.548.516s.437,2.334,2.328,3.519,3.343,2.246,4.516.777S470.122,316.43,468.232,315.244Z" transform="translate(-462.285 -314.487)" fill="#edfd27"/>
        </g>
      </g>
      <g id="Group_4080" data-name="Group 4080" transform="translate(590.068 376.01)">
        <g id="Group_4079" data-name="Group 4079">
          <path id="Path_9966" data-name="Path 9966" d="M457.008,307.306a2.257,2.257,0,0,0-.591,3.372,2.932,2.932,0,0,0,3.7.959,2.258,2.258,0,0,0,.588-3.375A2.933,2.933,0,0,0,457.008,307.306Z" transform="translate(-455.917 -306.992)" fill="#edfd27"/>
        </g>
      </g>
      <g id="Group_4082" data-name="Group 4082" transform="translate(584.324 409.018)">
        <g id="Group_4081" data-name="Group 4081">
          <path id="Path_9967" data-name="Path 9967" d="M457.029,320.737a1.57,1.57,0,0,0,.412-2.359,2.046,2.046,0,0,0-2.585-.67,1.575,1.575,0,0,0-.412,2.362A2.049,2.049,0,0,0,457.029,320.737Z" transform="translate(-454.091 -317.487)" fill="#edfd27"/>
        </g>
      </g>
      <g id="Group_4084" data-name="Group 4084" transform="translate(583.995 424.19)">
        <g id="Group_4083" data-name="Group 4083">
          <path id="Path_9968" data-name="Path 9968" d="M456.729,322.428a2.045,2.045,0,0,0-2.667,1.6,2.663,2.663,0,0,0,1.547,3.114,2.05,2.05,0,0,0,2.667-1.607A2.659,2.659,0,0,0,456.729,322.428Z" transform="translate(-453.986 -322.311)" fill="#edfd27"/>
        </g>
      </g>
      <g id="Group_4086" data-name="Group 4086" transform="translate(525.507 311.163)">
        <g id="Group_4085" data-name="Group 4085">
          <path id="Path_9969" data-name="Path 9969" d="M436.263,287.243c-2.139,1.318.063,5.419,2.211,6.366s4.246,1.368,5.976-1.859,5.388-.138,5.388-.138C448.366,285.277,438.4,285.925,436.263,287.243Z" transform="translate(-435.391 -286.375)" fill="#edfd27"/>
        </g>
      </g>
      <g id="Group_4088" data-name="Group 4088" transform="translate(526.116 318.162)">
        <g id="Group_4087" data-name="Group 4087">
          <path id="Path_9970" data-name="Path 9970" d="M438.987,291.456a8.837,8.837,0,0,0,1.645.336,7.809,7.809,0,0,0,1.45-.06,5.162,5.162,0,0,0,1.346-.412,9.146,9.146,0,0,1-1.368.035,6.823,6.823,0,0,1-1.359-.135,8.193,8.193,0,0,1-1.5-.39,8.331,8.331,0,0,1-1.419-.62,7.452,7.452,0,0,1-1.148-.733,9.516,9.516,0,0,1-1.051-.878,5.061,5.061,0,0,0,.805,1.154,7.816,7.816,0,0,0,1.1.95A9.427,9.427,0,0,0,438.987,291.456Z" transform="translate(-435.584 -288.6)" fill="#edfd27"/>
        </g>
      </g>
      <g id="Group_4090" data-name="Group 4090" transform="translate(535.09 288.649)">
        <g id="Group_4089" data-name="Group 4089">
          <path id="Path_9971" data-name="Path 9971" d="M438.439,280.309c.041.522.786.887,1.658.811s1.541-.557,1.5-1.082-.786-.887-1.657-.811S438.4,279.783,438.439,280.309Z" transform="translate(-438.437 -279.217)" fill="#edfd27"/>
        </g>
      </g>
      <g id="Group_4092" data-name="Group 4092" transform="translate(499.937 286.715)">
        <g id="Group_4091" data-name="Group 4091">
          <path id="Path_9972" data-name="Path 9972" d="M432.6,284.587c2.721-.362,4.749-1.981,4.532-3.614s-2.6-2.661-5.319-2.3-4.756,1.982-4.532,3.614S429.875,284.949,432.6,284.587Z" transform="translate(-427.261 -278.602)" fill="#edfd27"/>
        </g>
      </g>
      <g id="Group_4094" data-name="Group 4094" transform="translate(626.125 328.776)">
        <g id="Group_4093" data-name="Group 4093">
          <path id="Path_9973" data-name="Path 9973" d="M470.435,293.155c-1.28-1.013-2.6-1.456-2.963-1s.381,1.642,1.654,2.651,2.6,1.456,2.96,1S471.706,294.162,470.435,293.155Z" transform="translate(-467.381 -291.975)" fill="#edfd27"/>
        </g>
      </g>
      <g id="Group_4096" data-name="Group 4096" transform="translate(598.217 312.705)">
        <g id="Group_4095" data-name="Group 4095">
          <path id="Path_9974" data-name="Path 9974" d="M460.8,287.61c-.89-.708-1.871-.956-2.192-.55s.129,1.312,1.019,2.019,1.875.956,2.2.55S461.695,288.321,460.8,287.61Z" transform="translate(-458.508 -286.865)" fill="#edfd27"/>
        </g>
      </g>
      <g id="Group_4098" data-name="Group 4098" transform="translate(563.215 310.25)">
        <g id="Group_4097" data-name="Group 4097">
          <path id="Path_9975" data-name="Path 9975" d="M449.558,289.338c1.425.4,2.777.025,3.01-.83s-.717-1.865-2.142-2.264-2.771-.025-3.01.827S448.14,288.939,449.558,289.338Z" transform="translate(-447.379 -286.085)" fill="#edfd27"/>
        </g>
      </g>
      <g id="Group_4100" data-name="Group 4100" transform="translate(576.356 297.526)">
        <g id="Group_4099" data-name="Group 4099">
          <path id="Path_9976" data-name="Path 9976" d="M458.686,283.162c-3.3-1.434-6.451-1.5-7.033-.154s1.61,3.6,4.907,5.036,6.445,1.51,7.036.16S461.979,284.6,458.686,283.162Z" transform="translate(-451.557 -282.039)" fill="#edfd27"/>
        </g>
      </g>
      <g id="Group_4102" data-name="Group 4102" transform="translate(607.052 342.926)">
        <g id="Group_4101" data-name="Group 4101">
          <path id="Path_9977" data-name="Path 9977" d="M466.1,299.4c.3-.532-.522-1.548-1.831-2.271s-2.6-.874-2.894-.34.528,1.547,1.831,2.271S465.805,299.938,466.1,299.4Z" transform="translate(-461.317 -296.474)" fill="#edfd27"/>
        </g>
      </g>
      <g id="Group_4104" data-name="Group 4104" transform="translate(563.294 343.135)">
        <g id="Group_4103" data-name="Group 4103">
          <path id="Path_9978" data-name="Path 9978" d="M448.535,297.266c-3.139,2.585.928,7.5,4.054,4.929S451.674,294.684,448.535,297.266Z" transform="translate(-447.404 -296.54)" fill="#edfd27"/>
        </g>
      </g>
      <g id="Group_4106" data-name="Group 4106" transform="translate(569.108 349.69)">
        <g id="Group_4105" data-name="Group 4105">
          <path id="Path_9979" data-name="Path 9979" d="M451.4,299.794c-6.243,4.334,2.535,13.109,8.779,8.775S457.635,295.463,451.4,299.794Z" transform="translate(-449.253 -298.624)" fill="#edfd27"/>
        </g>
      </g>
      <g id="Group_4108" data-name="Group 4108" transform="translate(485.212 466.724)">
        <g id="Group_4107" data-name="Group 4107">
          <path id="Path_9980" data-name="Path 9980" d="M423.277,345.968c3.4,6.794,13.336-.651,9.933-7.448S419.88,339.171,423.277,345.968Z" transform="translate(-422.579 -335.834)" fill="#edfd27"/>
        </g>
      </g>
      <g id="Group_4110" data-name="Group 4110" transform="translate(428.172 336.919)">
        <g id="Group_4109" data-name="Group 4109">
          <path id="Path_9981" data-name="Path 9981" d="M406.869,297.713c.582-1.516.613-2.912.072-3.123s-1.456.855-2.038,2.368-.613,2.916-.075,3.123S406.284,299.232,406.869,297.713Z" transform="translate(-404.444 -294.564)" fill="#edfd27"/>
        </g>
      </g>
      <g id="Group_4112" data-name="Group 4112" transform="translate(421.151 369.987)">
        <g id="Group_4111" data-name="Group 4111">
          <path id="Path_9982" data-name="Path 9982" d="M404.236,307.366c.412-1.057.358-2.073-.129-2.258s-1.208.519-1.62,1.579-.355,2.07.129,2.258S403.827,308.426,404.236,307.366Z" transform="translate(-402.212 -305.077)" fill="#edfd27"/>
        </g>
      </g>
      <g id="Group_4114" data-name="Group 4114" transform="translate(403.004 393.103)">
        <g id="Group_4113" data-name="Group 4113">
          <path id="Path_9983" data-name="Path 9983" d="M399.88,312.433c-1.463-.16-2.96,2.611-3.347,6.187s.484,6.6,1.947,6.762,2.96-2.614,3.347-6.19S401.343,312.588,399.88,312.433Z" transform="translate(-396.442 -312.427)" fill="#edfd27"/>
        </g>
      </g>
      <g id="Group_4116" data-name="Group 4116" transform="translate(446.148 345.397)">
        <g id="Group_4115" data-name="Group 4115">
          <path id="Path_9984" data-name="Path 9984" d="M414.254,297.315c-.959-.381-2.482,1.211-3.409,3.551s-.909,4.545.05,4.925,2.482-1.211,3.409-3.551S415.213,297.693,414.254,297.315Z" transform="translate(-410.159 -297.259)" fill="#edfd27"/>
        </g>
      </g>
      <g id="Group_4118" data-name="Group 4118" transform="translate(443.488 373.298)">
        <g id="Group_4117" data-name="Group 4117">
          <path id="Path_9985" data-name="Path 9985" d="M414.967,306.969c-2.96-3.095-7.677,3.139-4.712,6.234S417.936,310.071,414.967,306.969Z" transform="translate(-409.313 -306.13)" fill="#edfd27"/>
        </g>
      </g>
      <g id="Group_4120" data-name="Group 4120" transform="translate(541.33 288.611)">
        <g id="Group_4119" data-name="Group 4119">
          <path id="Path_9986" data-name="Path 9986" d="M446.239,281.5c.16-.959-1.006-1.956-2.61-2.23s-3.026.289-3.193,1.252,1.006,1.96,2.611,2.23S446.076,282.464,446.239,281.5Z" transform="translate(-440.421 -279.205)" fill="#edfd27"/>
        </g>
      </g>
      <g id="Group_4122" data-name="Group 4122" transform="translate(453.762 471.562)">
        <g id="Group_4121" data-name="Group 4121">
          <path id="Path_9987" data-name="Path 9987" d="M419.484,344.42c.05-.966-1.724-3.708-2.768-4.284-2.28-1.258.724-1.529-.236-2.18a2.529,2.529,0,0,0-2.359-.453c-1.592.626-2.019,3.312-.962,5.992s3.2,4.35,4.79,3.724A2.966,2.966,0,0,0,419.484,344.42Z" transform="translate(-412.58 -337.372)" fill="#edfd27"/>
        </g>
      </g>
      <g id="Group_4124" data-name="Group 4124" transform="translate(458.807 476.047)">
        <g id="Group_4123" data-name="Group 4123">
          <path id="Path_9988" data-name="Path 9988" d="M416.467,338.8a4,4,0,0,1,.484,1.151,3.9,3.9,0,0,1,.16,1.23,4.043,4.043,0,0,1-.922,2.592,4.668,4.668,0,0,1-2.007,1.434,3.164,3.164,0,0,0,1.245-.346,4.505,4.505,0,0,0,1.088-.8,4.336,4.336,0,0,0,.827-1.337,3.832,3.832,0,0,0-.135-2.868A3.136,3.136,0,0,0,416.467,338.8Z" transform="translate(-414.184 -338.798)" fill="#edfd27"/>
        </g>
      </g>
      <g id="Group_4126" data-name="Group 4126" transform="translate(455.98 470.461)">
        <g id="Group_4125" data-name="Group 4125">
          <path id="Path_9989" data-name="Path 9989" d="M415.908,337.94a5.637,5.637,0,0,1,.843.528,4.611,4.611,0,0,1,.664.576,5.772,5.772,0,0,1,.6.651,3.359,3.359,0,0,0-.38-.827,5.171,5.171,0,0,0-.607-.727,5.427,5.427,0,0,0-.887-.639,5.339,5.339,0,0,0-1.019-.377,4.844,4.844,0,0,0-.941-.1,3.274,3.274,0,0,0-.9.141,6.646,6.646,0,0,1,.874.138,4.732,4.732,0,0,1,.84.233A5.538,5.538,0,0,1,415.908,337.94Z" transform="translate(-413.285 -337.022)" fill="#edfd27"/>
        </g>
      </g>
      <g id="Group_4128" data-name="Group 4128" transform="translate(525.441 363.228)">
        <g id="Group_4127" data-name="Group 4127">
          <path id="Path_9990" data-name="Path 9990" d="M437.34,305.226c-2.384,2.5-2.642,6-.573,7.829a4.955,4.955,0,0,0,4.658.855c1.217-.337,3.082-3.8,2.925-5.413-.352-3.507,2.45.321,2.456-1.2a4.262,4.262,0,0,0-1.4-3.287C443.341,302.182,439.731,302.729,437.34,305.226Z" transform="translate(-435.369 -302.928)" fill="#edfd27"/>
        </g>
      </g>
      <g id="Group_4130" data-name="Group 4130" transform="translate(525.298 373.361)">
        <g id="Group_4129" data-name="Group 4129">
          <path id="Path_9991" data-name="Path 9991" d="M443.986,307.6a4.107,4.107,0,0,1-1.359.727,4.852,4.852,0,0,1-1.865.258,6.453,6.453,0,0,1-2.041-.4,8.059,8.059,0,0,1-1.774-.837,8.914,8.914,0,0,1-1.623-1.2,6.853,6.853,0,0,0,1.444,1.494,9.606,9.606,0,0,0,1.875,1.091,7.58,7.58,0,0,0,2.3.535,5.1,5.1,0,0,0,2.054-.384,4.162,4.162,0,0,0,1.321-.978,3,3,0,0,0,.664-1.419A3.635,3.635,0,0,1,443.986,307.6Z" transform="translate(-435.324 -306.15)" fill="#edfd27"/>
        </g>
      </g>
      <g id="Group_4132" data-name="Group 4132" transform="translate(537.357 364.743)">
        <g id="Group_4131" data-name="Group 4131">
          <path id="Path_9992" data-name="Path 9992" d="M440.724,305.8a9,9,0,0,0-.651-1.271,6.5,6.5,0,0,0-.915-1.123,10.029,10.029,0,0,1,.554,1.2,7.249,7.249,0,0,1,.412,1.208,7.363,7.363,0,0,1,.258,1.356,6.743,6.743,0,0,1,.044,1.321,4.535,4.535,0,0,1-.148,1.11,5.905,5.905,0,0,1-.3,1.057,2.925,2.925,0,0,0,.689-.846,4.782,4.782,0,0,0,.387-1.091,7.268,7.268,0,0,0,.047-1.425A8.543,8.543,0,0,0,440.724,305.8Z" transform="translate(-439.158 -303.41)" fill="#edfd27"/>
        </g>
      </g>
      <g id="Group_4134" data-name="Group 4134" transform="translate(432.499 477.608)">
        <g id="Group_4133" data-name="Group 4133">
          <path id="Path_9993" data-name="Path 9993" d="M406.5,345.467c1.856,5.617,5.633,6.259,6.224,6.259,0,0,1.529-2.044.8-3.309a8.7,8.7,0,0,1-1.334-3.636c-.258-1.67-1.488-2.73-1.566-4.108S403.685,336.931,406.5,345.467Z" transform="translate(-405.82 -339.294)" fill="#edfd27"/>
        </g>
      </g>
      <g id="Group_4136" data-name="Group 4136" transform="translate(434.259 475.165)">
        <g id="Group_4135" data-name="Group 4135">
          <path id="Path_9994" data-name="Path 9994" d="M416.589,345.149c-.966-1.2-2.6-1.34-3.592-3.617a4.867,4.867,0,0,0-4.517-2.991,3.481,3.481,0,0,0-2.1,1.271c3.636-1.805,7.193,4.007,7.36,7.407s-.019,5.215-1.547,6.674c0,0,1.173.006,2.529-2.51S417.548,346.353,416.589,345.149Z" transform="translate(-406.379 -338.518)" fill="#edfd27"/>
        </g>
      </g>
      <g id="Group_4138" data-name="Group 4138" transform="translate(428.634 414.12)">
        <g id="Group_4137" data-name="Group 4137">
          <path id="Path_9995" data-name="Path 9995" d="M417.358,337.82c1.186-3.784,1.507-7.382-4.237-9.694s-1.242-9.017-1.242-9.017c-10.364,3.658-7.407,20.284-4.8,23.618S416.173,341.607,417.358,337.82Z" transform="translate(-404.591 -319.109)" fill="#edfd27"/>
        </g>
      </g>
      <g id="Group_4140" data-name="Group 4140" transform="translate(441.471 423.351)">
        <g id="Group_4139" data-name="Group 4139">
          <path id="Path_9996" data-name="Path 9996" d="M413.094,326.652a12.887,12.887,0,0,0-.381-2.434,8.776,8.776,0,0,0-.94-2.173,15.542,15.542,0,0,1,.321,2.287,12.141,12.141,0,0,1,.025,2.309,16.821,16.821,0,0,1-1.151,5.086,12.327,12.327,0,0,1-1.019,2.07,15.283,15.283,0,0,1-1.277,1.925,8.494,8.494,0,0,0,1.786-1.557,12.63,12.63,0,0,0,1.39-2.029,14.369,14.369,0,0,0,.981-2.661A14.9,14.9,0,0,0,413.094,326.652Z" transform="translate(-408.672 -322.044)" fill="#edfd27"/>
        </g>
      </g>
      <g id="Group_4142" data-name="Group 4142" transform="translate(488.039 433.209)">
        <g id="Group_4141" data-name="Group 4141">
          <path id="Path_9997" data-name="Path 9997" d="M433.062,329.012a4.005,4.005,0,0,0-4.416-3.809c-1.752.214-5.3,3.346-5.165,6.372.33,7.316,9.225,7.454,12,2.362S433,331.355,433.062,329.012Z" transform="translate(-423.478 -325.178)" fill="#edfd27"/>
        </g>
      </g>
      <g id="Group_4144" data-name="Group 4144" transform="translate(405.74 435.452)">
        <g id="Group_4143" data-name="Group 4143">
          <path id="Path_9998" data-name="Path 9998" d="M397.982,325.9c-.51.1-.793.881-.62,1.739s.727,1.469,1.242,1.368.793-.884.62-1.739S398.5,325.8,397.982,325.9Z" transform="translate(-397.312 -325.891)" fill="#edfd27"/>
        </g>
      </g>
      <g id="Group_4146" data-name="Group 4146" transform="translate(420.92 483.239)">
        <g id="Group_4145" data-name="Group 4145">
          <path id="Path_9999" data-name="Path 9999" d="M402.811,341.1c-.516.1-.793.881-.623,1.739s.727,1.469,1.243,1.365.792-.878.62-1.739S403.327,340.995,402.811,341.1Z" transform="translate(-402.138 -341.084)" fill="#edfd27"/>
        </g>
      </g>
      <g id="Group_4148" data-name="Group 4148" transform="translate(448.522 449.186)">
        <g id="Group_4147" data-name="Group 4147">
          <path id="Path_10000" data-name="Path 10000" d="M411.65,330.271c-.563.113-.871.966-.679,1.909s.8,1.617,1.362,1.5.874-.969.682-1.912S412.216,330.154,411.65,330.271Z" transform="translate(-410.914 -330.258)" fill="#edfd27"/>
        </g>
      </g>
      <g id="Group_4150" data-name="Group 4150" transform="translate(466.994 450.784)">
        <g id="Group_4149" data-name="Group 4149">
          <path id="Path_10001" data-name="Path 10001" d="M417.523,330.778c-.563.117-.871.972-.68,1.912s.8,1.617,1.362,1.5.874-.966.682-1.909S418.089,330.665,417.523,330.778Z" transform="translate(-416.787 -330.766)" fill="#edfd27"/>
        </g>
      </g>
      <g id="Group_4152" data-name="Group 4152" transform="translate(442.934 506.755)">
        <g id="Group_4151" data-name="Group 4151">
          <path id="Path_10002" data-name="Path 10002" d="M411.212,351.7c.5-.28.541-1.186.079-2.032s-1.245-1.3-1.749-1.022-.541,1.186-.082,2.026S410.709,351.97,411.212,351.7Z" transform="translate(-409.137 -348.561)" fill="#edfd27"/>
        </g>
      </g>
      <g id="Group_4154" data-name="Group 4154" transform="translate(411.938 454.185)">
        <g id="Group_4153" data-name="Group 4153">
          <path id="Path_10003" data-name="Path 10003" d="M402.4,339.373c1.242-.248,1.912-2.129,1.5-4.2s-1.758-3.548-3-3.3-1.919,2.129-1.5,4.2S401.165,339.621,402.4,339.373Z" transform="translate(-399.282 -331.847)" fill="#edfd27"/>
        </g>
      </g>
      <g id="Group_4156" data-name="Group 4156" transform="translate(433.407 382.632)">
        <g id="Group_4155" data-name="Group 4155">
          <path id="Path_10004" data-name="Path 10004" d="M408.017,310.822c.142-.865-.167-1.632-.683-1.717s-1.051.547-1.192,1.412.167,1.629.682,1.717S407.875,311.687,408.017,310.822Z" transform="translate(-406.108 -309.098)" fill="#edfd27"/>
        </g>
      </g>
      <g id="Group_4158" data-name="Group 4158" transform="translate(497.754 411.856)">
        <g id="Group_4157" data-name="Group 4157">
          <path id="Path_10005" data-name="Path 10005" d="M427.832,318.728a3.171,3.171,0,1,0,3.976,1.311A2.972,2.972,0,0,0,427.832,318.728Z" transform="translate(-426.567 -318.389)" fill="#edfd27"/>
        </g>
      </g>
      <g id="Group_4160" data-name="Group 4160" transform="translate(510.843 406.146)">
        <g id="Group_4159" data-name="Group 4159">
          <path id="Path_10006" data-name="Path 10006" d="M432.228,316.851A3.749,3.749,0,0,0,436,323.258c1.554-.915.6-2.283-.434-4.057S433.782,315.936,432.228,316.851Z" transform="translate(-430.728 -316.574)" fill="#edfd27"/>
        </g>
      </g>
      <g id="Group_4162" data-name="Group 4162" transform="translate(519.048 437.139)">
        <g id="Group_4161" data-name="Group 4161">
          <path id="Path_10007" data-name="Path 10007" d="M435.231,326.447a2.59,2.59,0,1,0,2.595,2.224A2.429,2.429,0,0,0,435.231,326.447Z" transform="translate(-433.337 -326.428)" fill="#edfd27"/>
        </g>
      </g>
      <g id="Group_4164" data-name="Group 4164" transform="translate(474.847 425.259)">
        <g id="Group_4163" data-name="Group 4163">
          <path id="Path_10008" data-name="Path 10008" d="M421.911,327.748a2.585,2.585,0,1,0-2.6-2.217A2.423,2.423,0,0,0,421.911,327.748Z" transform="translate(-419.284 -322.65)" fill="#edfd27"/>
        </g>
      </g>
      <g id="Group_4166" data-name="Group 4166" transform="translate(464.523 389.524)">
        <g id="Group_4165" data-name="Group 4165">
          <path id="Path_10009" data-name="Path 10009" d="M416.95,316.752c2.916,2.834,7.354-1.752,4.447-4.576S414.038,313.918,416.95,316.752Z" transform="translate(-416.001 -311.289)" fill="#edfd27"/>
        </g>
      </g>
      <g id="Group_4168" data-name="Group 4168" transform="translate(483.592 367.525)">
        <g id="Group_4167" data-name="Group 4167">
          <path id="Path_10010" data-name="Path 10010" d="M426.1,308.778a2.431,2.431,0,1,0-3.633-.359A2.594,2.594,0,0,0,426.1,308.778Z" transform="translate(-422.064 -304.295)" fill="#edfd27"/>
        </g>
      </g>
      <g id="Group_4170" data-name="Group 4170" transform="translate(499.329 347.96)">
        <g id="Group_4169" data-name="Group 4169">
          <path id="Path_10011" data-name="Path 10011" d="M428.091,298.539a2.469,2.469,0,1,0,3.444.56A2.47,2.47,0,0,0,428.091,298.539Z" transform="translate(-427.067 -298.074)" fill="#edfd27"/>
        </g>
      </g>
      <g id="Group_4172" data-name="Group 4172" transform="translate(487.021 295.144)">
        <g id="Group_4171" data-name="Group 4171">
          <path id="Path_10012" data-name="Path 10012" d="M426.994,284.173c1.265-.821,1.733-1.963,1.051-2.548s-2.268-.4-3.526.418-1.733,1.966-1.051,2.554S425.729,285,426.994,284.173Z" transform="translate(-423.154 -281.282)" fill="#edfd27"/>
        </g>
      </g>
      <g id="Group_4174" data-name="Group 4174" transform="translate(470.057 375.983)">
        <g id="Group_4173" data-name="Group 4173">
          <path id="Path_10013" data-name="Path 10013" d="M427.125,308.73c-5-5.724-12.745,3.972-7.753,9.7S432.12,314.458,427.125,308.73Z" transform="translate(-417.761 -306.984)" fill="#edfd27"/>
        </g>
      </g>
      <g id="Group_4176" data-name="Group 4176" transform="translate(507.405 480.433)">
        <g id="Group_4175" data-name="Group 4175">
          <path id="Path_10014" data-name="Path 10014" d="M432.981,341.5c-2.18,1.157-.447-1.673-1.431-1.271a2.953,2.953,0,0,0-1.755,1.777c-.635,1.824.679,4.02,2.934,4.9s4.589.113,5.221-1.711a3.485,3.485,0,0,0-.686-3.243C436.724,341.257,433.984,340.968,432.981,341.5Z" transform="translate(-429.635 -340.192)" fill="#edfd27"/>
        </g>
      </g>
      <g id="Group_4178" data-name="Group 4178" transform="translate(513.78 480.043)">
        <g id="Group_4177" data-name="Group 4177">
          <path id="Path_10015" data-name="Path 10015" d="M433.744,340.762a2.871,2.871,0,0,0-.987-.594,2.067,2.067,0,0,0-1.095-.05,2.629,2.629,0,0,1,.991.346,2.851,2.851,0,0,1,.827.689,3.335,3.335,0,0,1,.664,1.139,4.582,4.582,0,0,1,.289,1.425,5.713,5.713,0,0,1-.069,1.375,6.126,6.126,0,0,1-.349,1.368,4.742,4.742,0,0,0,.585-1.33,6.444,6.444,0,0,0,.2-1.5,5.011,5.011,0,0,0-.264-1.632A3.545,3.545,0,0,0,433.744,340.762Z" transform="translate(-431.662 -340.068)" fill="#edfd27"/>
        </g>
      </g>
      <g id="Group_4180" data-name="Group 4180" transform="translate(507.342 478.226)">
        <g id="Group_4179" data-name="Group 4179">
          <path id="Path_10016" data-name="Path 10016" d="M430.917,340.92a5.539,5.539,0,0,1,.811-.528,4.7,4.7,0,0,1,.843-.381,3.412,3.412,0,0,1,.761-.2,4.209,4.209,0,0,1,.761-.091,2.153,2.153,0,0,0-.73-.22,3.216,3.216,0,0,0-.811.044,4.4,4.4,0,0,0-.934.346,6.042,6.042,0,0,0-.865.642,5.909,5.909,0,0,0-.651.761,4.907,4.907,0,0,0-.487.89,7.941,7.941,0,0,1,.632-.676A5.23,5.23,0,0,1,430.917,340.92Z" transform="translate(-429.615 -339.491)" fill="#edfd27"/>
        </g>
      </g>
      <g id="Group_4182" data-name="Group 4182" transform="translate(557.867 431.856)">
        <g id="Group_4181" data-name="Group 4181">
          <path id="Path_10017" data-name="Path 10017" d="M449.8,324.94c-3.834-1.337-5.919,4.693-2.095,6.026S453.643,326.277,449.8,324.94Z" transform="translate(-445.679 -324.748)" fill="#edfd27"/>
        </g>
      </g>
      <g id="Group_4184" data-name="Group 4184" transform="translate(551.222 460.75)">
        <g id="Group_4183" data-name="Group 4183">
          <path id="Path_10018" data-name="Path 10018" d="M447.393,334.21a2.757,2.757,0,1,0,.768,3.567A2.586,2.586,0,0,0,447.393,334.21Z" transform="translate(-443.566 -333.934)" fill="#edfd27"/>
        </g>
      </g>
      <g id="Group_4186" data-name="Group 4186" transform="translate(552.663 441.02)">
        <g id="Group_4185" data-name="Group 4185">
          <path id="Path_10019" data-name="Path 10019" d="M450.927,328.16c-6.948-3.079-9.879,8.983-2.931,12.062S457.874,331.242,450.927,328.16Z" transform="translate(-444.025 -327.661)" fill="#edfd27"/>
        </g>
      </g>
      <g id="Group_4188" data-name="Group 4188" transform="translate(409.415 419.408)">
        <g id="Group_4187" data-name="Group 4187">
          <path id="Path_10020" data-name="Path 10020" d="M402.014,323.83c.091-1.623-.629-2.985-1.6-3.038s-1.837,1.217-1.928,2.837.626,2.982,1.595,3.035S401.92,325.45,402.014,323.83Z" transform="translate(-398.48 -320.79)" fill="#edfd27"/>
        </g>
      </g>
      <g id="Group_4190" data-name="Group 4190" transform="translate(454.267 308.613)">
        <g id="Group_4189" data-name="Group 4189">
          <path id="Path_10021" data-name="Path 10021" d="M422.115,285.7c-2.752-.648-6.784,1.154-7.8,4s-2.953,5.633-.053,5.407,6.061-1.211,7.634-3.856S423.185,285.948,422.115,285.7Z" transform="translate(-412.74 -285.564)" fill="#edfd27"/>
        </g>
      </g>
      <g id="Group_4192" data-name="Group 4192" transform="translate(439.395 322.499)">
        <g id="Group_4191" data-name="Group 4191">
          <path id="Path_10022" data-name="Path 10022" d="M410.978,290.07c-.852-.393-2.519.55-2.875,1.588s.4.761,1.107.906C410.745,292.885,411.833,290.463,410.978,290.07Z" transform="translate(-408.012 -289.979)" fill="#edfd27"/>
        </g>
      </g>
      <g id="Group_4194" data-name="Group 4194" transform="translate(465.46 314.184)">
        <g id="Group_4193" data-name="Group 4193">
          <path id="Path_10023" data-name="Path 10023" d="M429.4,298.871c4.655-2.8,7.077-11.055,13.779-8.819-4.705-5.24-4.774-1.85-8.41,1.4-1.475,1.315-3.583,3.447-5.186,4.322-2.689,1.459-4.133.991-5.275,3.372-.89,1.859-.862,4.375-1.038,6.548a24.054,24.054,0,0,1-4.2,11.833c-.616.969-2.4.726-2.718,1.532-.362.909,1.038,2.919,1.069,3.925.069,2.658-2.655,6.841,1.541,7.769.031.34-.1-8.882-.532-8.2.724-1.139,3.29,1.422,4.372-.909.34-.73-1.547-2.658-1.346-3.787.217-1.173,1.444-1.821,1.714-2.62a24.369,24.369,0,0,0,1.132-6.514c.038-2.176-.192-4.516.594-6.441C425.754,300.214,427.049,300.283,429.4,298.871Z" transform="translate(-416.299 -287.335)" fill="#edfd27"/>
        </g>
      </g>
      <g id="Group_4196" data-name="Group 4196" transform="translate(506.826 321.55)">
        <g id="Group_4195" data-name="Group 4195">
          <path id="Path_10024" data-name="Path 10024" d="M449.65,303.2c-.167-1.305-2.242-3.658-2.938-4.888-1.576-3.287-3.913-9.348-7.344-8.571.182-.62,7.6,10.087,6.951,9.367.2,1.547.063,4.991.359,6.463.311,1.494-.333,2.45-.3,3.441.091,1.821.195,5.24.173,7.976.022,2.62-.123,5.514-1.126,7.624-1.091,2.23-1.978,1.862-3.963,2.777-3.765,2.135-9.269,7.486-12.015,2.941.057,5.36,1.636,3.611,5.53,2.293,1.535-.484,3.815-1.73,5.187-2.123,2.3-.664,3.076.3,4.721-2.1,1.28-1.915,1.919-4.988,2.249-7.63.7-5.784,1.082-9.977,1.315-15.132C448.477,304.3,449.81,304.339,449.65,303.2Z" transform="translate(-429.451 -289.677)" fill="#edfd27"/>
        </g>
      </g>
      <g id="Group_4198" data-name="Group 4198" transform="translate(417.925 405.356)">
        <g id="Group_4197" data-name="Group 4197">
          <path id="Path_10025" data-name="Path 10025" d="M411.015,362.461c.491-1.865,2.148-.563,2.522-2.95.456-2.9-1.947-1.928-2.406-2.167-1.057-.55-1.629-.909-2.4-3.306-.161-.506.057-2.375.173-1.982-.371-1.214-1.906-4.941-2.692-6.8a38.769,38.769,0,0,1-2.658-8.5c-.934-4.608-1.145-3.966.33-7.061.78-1.639,1.78-1.466,2.507-4.46.491-2.007.2-3.233.786-5.076.818-2.541,1.8-2.68,2.941-3.554-1.884-.689-1.846-.06-3.579,1.038-.365.2-1.623,5.834-2.365,6.57s-2.7.05-2.985,3.07c-.006.076.937,7.14,1.1,8.134.849,5.014,3.23,8.662,3.906,13.635.05.381-.931.642-.355,3.054,1,4.2,2.7,2.211,3.7,4.963,1.868,5.12-2.063,1.245-2.447,3.633.088-.535,4.02,4.083,4.724,4.875,2.5,2.8,4.878,3.674,7.011-.79C417.862,365.119,411.4,361,411.015,362.461Z" transform="translate(-401.186 -316.323)" fill="#edfd27"/>
        </g>
      </g>
      <g id="Group_4200" data-name="Group 4200" transform="translate(600.967 462.897)">
        <g id="Group_4199" data-name="Group 4199">
          <path id="Path_10026" data-name="Path 10026" d="M462.885,334.7c-2.089.346-3.306,1.51-3.476,2.494a5.186,5.186,0,0,0,.576,2.491c-.17-2.089,2.551-4.583,5.161-4.523C465.147,335.167,464.974,334.355,462.885,334.7Z" transform="translate(-459.382 -334.617)" fill="#edfd27"/>
        </g>
      </g>
      <g id="Group_4202" data-name="Group 4202" transform="translate(606.153 467.97)">
        <g id="Group_4201" data-name="Group 4201">
          <path id="Path_10027" data-name="Path 10027" d="M463.472,337.888a1.209,1.209,0,0,0,0-1.657,22.6,22.6,0,0,1-2.441,3.309A8.43,8.43,0,0,0,463.472,337.888Z" transform="translate(-461.031 -336.23)" fill="#edfd27"/>
        </g>
      </g>
      <g id="Group_4204" data-name="Group 4204" transform="translate(662.205 438.144)">
        <g id="Group_4203" data-name="Group 4203">
          <path id="Path_10028" data-name="Path 10028" d="M479.2,326.983a.3.3,0,0,0-.349-.233,4.453,4.453,0,0,1,.227.962A1.9,1.9,0,0,0,479.2,326.983Z" transform="translate(-478.852 -326.747)" fill="#edfd27"/>
        </g>
      </g>
      <g id="Group_4206" data-name="Group 4206" transform="translate(632.146 445.758)">
        <g id="Group_4205" data-name="Group 4205">
          <path id="Path_10029" data-name="Path 10029" d="M470.2,330.561a4.943,4.943,0,0,1,.381-.425,1.589,1.589,0,0,1,.355-.355,1.164,1.164,0,0,1,.371-.245.7.7,0,0,1,.472-.116.916.916,0,0,0-.529-.252,1.575,1.575,0,0,0-.607.119,2.075,2.075,0,0,0-.56.412,4.764,4.764,0,0,0-.349.532c-.082.17-.16.33-.223.469a2.305,2.305,0,0,1-.214.481,2.335,2.335,0,0,0,.5-.248C469.915,330.826,470.05,330.7,470.2,330.561Z" transform="translate(-469.295 -329.168)" fill="#edfd27"/>
        </g>
      </g>
      <g id="Group_4208" data-name="Group 4208" transform="translate(634.446 427.742)">
        <g id="Group_4207" data-name="Group 4207">
          <path id="Path_10030" data-name="Path 10030" d="M470.44,326.239a2.986,2.986,0,0,1,.154-.572,7.826,7.826,0,0,1,.516-1.2,3.084,3.084,0,0,1,.308-.51,2.734,2.734,0,0,1,.349-.513,2.927,2.927,0,0,0-.607.242,3.368,3.368,0,0,0-.516.447,4.279,4.279,0,0,0-.424.664,4.677,4.677,0,0,0-.192.764,3.273,3.273,0,0,0,.044.682,2.758,2.758,0,0,0,.239.607A2.9,2.9,0,0,1,470.44,326.239Z" transform="translate(-470.027 -323.44)" fill="#edfd27"/>
        </g>
      </g>
      <g id="Group_4210" data-name="Group 4210" transform="translate(640.279 426.949)">
        <g id="Group_4209" data-name="Group 4209">
          <path id="Path_10031" data-name="Path 10031" d="M472.177,323.606a2.088,2.088,0,0,1,.252.4,2.98,2.98,0,0,1,.239.456,2.452,2.452,0,0,1,.207.469,2.1,2.1,0,0,1,.16.443,2.192,2.192,0,0,1,.148.487,2.135,2.135,0,0,0,.22-.494,2.623,2.623,0,0,0,.038-.566,3.443,3.443,0,0,0-.179-.629,3.189,3.189,0,0,0-.387-.525,2.711,2.711,0,0,0-.459-.327,2.287,2.287,0,0,0-.535-.129A2.042,2.042,0,0,1,472.177,323.606Z" transform="translate(-471.881 -323.188)" fill="#edfd27"/>
        </g>
      </g>
      <g id="Group_4212" data-name="Group 4212" transform="translate(639.014 462.341)">
        <g id="Group_4211" data-name="Group 4211">
          <path id="Path_10032" data-name="Path 10032" d="M471.6,335.726c.2.157.582.013.846-.324s.315-.736.116-.9-.582-.016-.846.321S471.4,335.565,471.6,335.726Z" transform="translate(-471.479 -334.44)" fill="#edfd27"/>
        </g>
      </g>
      <g id="Group_4214" data-name="Group 4214" transform="translate(635.06 487.798)">
        <g id="Group_4213" data-name="Group 4213">
          <path id="Path_10033" data-name="Path 10033" d="M471.289,343.59c.286-.368.343-.811.123-.984s-.642-.016-.928.352-.352.815-.123.988S471,343.961,471.289,343.59Z" transform="translate(-470.222 -342.534)" fill="#edfd27"/>
        </g>
      </g>
      <g id="Group_4216" data-name="Group 4216" transform="translate(639.437 414.163)">
        <g id="Group_4215" data-name="Group 4215">
          <path id="Path_10034" data-name="Path 10034" d="M471.876,319.548c-.292.371-.349.812-.129.984s.638.016.934-.352.346-.815.123-.988S472.166,319.177,471.876,319.548Z" transform="translate(-471.613 -319.123)" fill="#edfd27"/>
        </g>
      </g>
      <g id="Group_4218" data-name="Group 4218" transform="translate(624.423 505.329)">
        <g id="Group_4217" data-name="Group 4217">
          <path id="Path_10035" data-name="Path 10035" d="M466.944,349.429c.2.2.632.085.959-.255s.428-.774.227-.969-.632-.085-.959.258S466.743,349.234,466.944,349.429Z" transform="translate(-466.84 -348.108)" fill="#edfd27"/>
        </g>
      </g>
      <g id="Group_4220" data-name="Group 4220" transform="translate(605.437 494.825)">
        <g id="Group_4219" data-name="Group 4219">
          <path id="Path_10036" data-name="Path 10036" d="M461,345.274c-.252.4-.258.843-.019.991s.641-.053.887-.453.258-.843.016-.994S461.242,344.871,461,345.274Z" transform="translate(-460.803 -344.768)" fill="#edfd27"/>
        </g>
      </g>
      <g id="Group_4222" data-name="Group 4222" transform="translate(647.793 452.505)">
        <g id="Group_4221" data-name="Group 4221">
          <path id="Path_10037" data-name="Path 10037" d="M475.465,333.307c.082-.239.148-.481.2-.711.032-.236.057-.456.066-.642-.028-.387-.066-.642-.066-.642s-.11.233-.3.557c-.066.167-.154.359-.252.56-.072.208-.167.428-.264.639-.072.223-.154.447-.233.651s-.129.418-.192.588c-.079.365-.157.61-.157.61s.2-.16.478-.431a6.4,6.4,0,0,0,.387-.519C475.251,333.763,475.361,333.537,475.465,333.307Z" transform="translate(-474.27 -331.313)" fill="#edfd27"/>
        </g>
      </g>
      <g id="Group_4224" data-name="Group 4224" transform="translate(504.929 518.471)">
        <g id="Group_4223" data-name="Group 4223">
          <path id="Path_10038" data-name="Path 10038" d="M434.245,353.056c-1.84-1.047-3.52-.915-4.274-.261a5.184,5.184,0,0,0-1.123,2.3c1.18-1.73,4.869-1.944,6.854-.248C435.7,354.846,436.082,354.106,434.245,353.056Z" transform="translate(-428.848 -352.286)" fill="#edfd27"/>
        </g>
      </g>
      <g id="Group_4226" data-name="Group 4226" transform="translate(506.392 525.714)">
        <g id="Group_4225" data-name="Group 4225">
          <path id="Path_10039" data-name="Path 10039" d="M432.247,355.869a1.2,1.2,0,0,0,1.044-1.28,22.34,22.34,0,0,1-3.979,1.022A8.353,8.353,0,0,0,432.247,355.869Z" transform="translate(-429.313 -354.589)" fill="#edfd27"/>
        </g>
      </g>
      <g id="Group_4228" data-name="Group 4228" transform="translate(574.241 524.179)">
        <g id="Group_4227" data-name="Group 4227">
          <path id="Path_10040" data-name="Path 10040" d="M451.313,354.1a4.419,4.419,0,0,1-.428.893,1.881,1.881,0,0,0,.554-.494A.3.3,0,0,0,451.313,354.1Z" transform="translate(-450.885 -354.101)" fill="#edfd27"/>
        </g>
      </g>
      <g id="Group_4230" data-name="Group 4230" transform="translate(545.289 511.994)">
        <g id="Group_4229" data-name="Group 4229">
          <path id="Path_10041" data-name="Path 10041" d="M443.331,350.891a1.633,1.633,0,0,1,.5-.047,1.176,1.176,0,0,1,.443.041.724.724,0,0,1,.437.208.9.9,0,0,0-.249-.528,1.679,1.679,0,0,0-.544-.289,2.361,2.361,0,0,0-.7-.038,5.936,5.936,0,0,0-.6.192c-.173.082-.333.161-.475.223a2.053,2.053,0,0,1-.465.239,2.037,2.037,0,0,0,.547.126c.157-.009.343-.019.544-.035A5.185,5.185,0,0,1,443.331,350.891Z" transform="translate(-441.68 -350.227)" fill="#edfd27"/>
        </g>
      </g>
      <g id="Group_4232" data-name="Group 4232" transform="translate(551.948 502.346)">
        <g id="Group_4231" data-name="Group 4231">
          <path id="Path_10042" data-name="Path 10042" d="M447.071,347.749a3.419,3.419,0,0,0-.579-.371,4.281,4.281,0,0,0-.755-.214,3.785,3.785,0,0,0-.786.041,3.639,3.639,0,0,0-.645.227,2.809,2.809,0,0,0-.51.412,2.621,2.621,0,0,1,.62-.057,3.033,3.033,0,0,1,.591-.013,3.132,3.132,0,0,1,.657.05,3.572,3.572,0,0,1,.645.1,3.651,3.651,0,0,1,.575.148,2.775,2.775,0,0,1,.591.2A2.6,2.6,0,0,0,447.071,347.749Z" transform="translate(-443.797 -347.16)" fill="#edfd27"/>
        </g>
      </g>
      <g id="Group_4234" data-name="Group 4234" transform="translate(582.686 499.809)">
        <g id="Group_4233" data-name="Group 4233">
          <path id="Path_10043" data-name="Path 10043" d="M455.444,346.755a1.741,1.741,0,0,1-.308.355,2.49,2.49,0,0,1-.368.359,2.742,2.742,0,0,1-.387.336,2.123,2.123,0,0,1-.381.274,1.925,1.925,0,0,1-.431.28,2.127,2.127,0,0,0,.541.075,2.615,2.615,0,0,0,.554-.129,3.773,3.773,0,0,0,.554-.349,2.985,2.985,0,0,0,.393-.522,2.4,2.4,0,0,0,.176-.535,2.176,2.176,0,0,0-.028-.547A1.949,1.949,0,0,1,455.444,346.755Z" transform="translate(-453.57 -346.353)" fill="#edfd27"/>
        </g>
      </g>
      <g id="Group_4236" data-name="Group 4236" transform="translate(540.694 528.711)">
        <g id="Group_4235" data-name="Group 4235">
          <path id="Path_10044" data-name="Path 10044" d="M441.084,356.482c.418-.094.714-.371.651-.626s-.434-.378-.852-.283-.714.374-.657.626S440.666,356.576,441.084,356.482Z" transform="translate(-440.219 -355.542)" fill="#edfd27"/>
        </g>
      </g>
      <g id="Group_4238" data-name="Group 4238" transform="translate(589.794 530.73)">
        <g id="Group_4237" data-name="Group 4237">
          <path id="Path_10045" data-name="Path 10045" d="M456.784,357.219c.453-.107.78-.412.717-.689s-.484-.415-.943-.311-.78.409-.72.686S456.321,357.319,456.784,357.219Z" transform="translate(-455.83 -356.184)" fill="#edfd27"/>
        </g>
      </g>
      <g id="Group_4240" data-name="Group 4240" transform="translate(570.509 537.618)">
        <g id="Group_4239" data-name="Group 4239">
          <path id="Path_10046" data-name="Path 10046" d="M451.4,358.793c-.028-.28-.434-.466-.9-.409s-.824.324-.793.607.443.465.909.409S451.427,359.073,451.4,358.793Z" transform="translate(-449.698 -358.374)" fill="#edfd27"/>
        </g>
      </g>
      <g id="Group_4242" data-name="Group 4242" transform="translate(562.354 517.448)">
        <g id="Group_4241" data-name="Group 4241">
          <path id="Path_10047" data-name="Path 10047" d="M448.094,353c.45-.154.736-.494.645-.761s-.528-.362-.978-.211-.73.5-.638.761S447.651,353.156,448.094,353Z" transform="translate(-447.106 -351.961)" fill="#edfd27"/>
        </g>
      </g>
      <g id="Group_4244" data-name="Group 4244" transform="translate(552.155 527.098)">
        <g id="Group_4243" data-name="Group 4243">
          <path id="Path_10048" data-name="Path 10048" d="M446.093,355.545c-.195.11-.4.223-.613.327-.2.129-.4.249-.591.356-.182.126-.362.242-.522.336-.286.233-.5.374-.5.374s.252,0,.639-.031c.186-.038.4-.091.635-.157.214-.088.447-.189.676-.3.208-.138.409-.283.6-.425.173-.164.33-.321.453-.459.23-.314.359-.535.359-.535s-.233.107-.585.239C446.48,355.359,446.3,355.451,446.093,355.545Z" transform="translate(-443.863 -355.029)" fill="#edfd27"/>
        </g>
      </g>
    </g>
  </g>
</svg>
