<svg xmlns="http://www.w3.org/2000/svg" width="640" height="450" viewBox="0 0 640 450">
  <g id="Group_4739" data-name="Group 4739" transform="translate(-20691 4299)">
    <rect id="Rectangle_2550" data-name="Rectangle 2550" width="640" height="450" transform="translate(20691 -4299)" fill="#423fbf"/>
    <g id="Group_4979" data-name="Group 4979" transform="translate(20428.16 -4489.076)">
      <g id="Group_4926" data-name="Group 4926" transform="translate(594.736 441.847)">
        <g id="Group_4925" data-name="Group 4925">
          <path id="Path_10384" data-name="Path 10384" d="M419.08,407.154,437,431.248c10.326,0,18.031-5.432,21.2-14.327,1.664-4.664-1.416-9.767-5.793-9.767Z" transform="translate(-419.08 -407.154)" fill="#edfd27"/>
        </g>
      </g>
      <g id="Group_4928" data-name="Group 4928" transform="translate(269.627 377.636)">
        <g id="Group_4927" data-name="Group 4927">
          <path id="Path_10385" data-name="Path 10385" d="M746.389,377.636h-.009l-27.888.115a1.558,1.558,0,0,0-.672.159l-90.9,44.435H567.782a59.7,59.7,0,0,0-11.149,1.166c-4.1-1.26-6.269-3.6-8.786-6.332-3.1-3.365-6.606-7.172-14.194-9.983l4.092-9.145-4.483-.576L525,404.854a121.959,121.959,0,0,0-22.743-1.792c-2.889,0-6.652-.078-11.007-.172-3.794-.078-7.94-.167-12.284-.224l-.394-11.481-14.781,11.479c-8.047.117-16.141.476-23.411,1.29l-7.707-6.831-4.52.054,3.119,8.151a56.656,56.656,0,0,0-7.67,2.014,250.146,250.146,0,0,0-34.266,15H365.663l-65.743-44.331a1.543,1.543,0,0,0-.855-.263l-27.892-.115h0a1.54,1.54,0,0,0-1.079,2.641l56.243,54.964a1.55,1.55,0,0,0,1.079.437h0l15.891-.022a13.349,13.349,0,0,0-3.008,3.718,13.008,13.008,0,0,0,.45,13.426l3.574,5.6c-3.089,4.873-4.818,9.711-4.818,14.375a13.438,13.438,0,0,0,5.282,10.663c6.607,5.477,19.191,8.19,34.472,9.156l17.7,5.227,3.339-4.868c4.675-.1,9.441-.294,14.237-.568v.576c0,6.707,4.849,12.164,10.8,12.164h41.318c14.557,0,31.309-15.21,39.521-23.689h38.053c5.519,1.762,14.69,3.35,29.837,3.35.531,0,1.055-.013,1.577-.024.99.015,2,.024,3.045.024a74.815,74.815,0,0,0,8.451-.479c3.317.3,7.137.479,11.531.479,21.242,0,37.962-11.316,44.716-30.267a17.43,17.43,0,0,0-2.1-15.9,15.281,15.281,0,0,0-2.763-2.969l20.814.026h0a1.544,1.544,0,0,0,.82-.237l87.057-54.962a1.54,1.54,0,0,0-.82-2.843Zm-105.91,75.845c-6.4,17.933-21.636,28.221-41.816,28.221-26.082,0-30.378-6.376-30.4-6.422l-13.337-24.057a11.435,11.435,0,0,1,.15-11.292,8.363,8.363,0,0,1,5.684-4.187,9.118,9.118,0,0,0-.981,1.007,13.046,13.046,0,0,0-2.963,9.047,12.737,12.737,0,0,0,1.131,4.688l.526,1.083.522.94,1.059,1.869c2.854,4.971,5.654,9.97,8.56,14.914L570.773,473a3.6,3.6,0,0,0,.463.624,5.98,5.98,0,0,0,.459.455,11.1,11.1,0,0,0,.957.755c.326.22.657.418.994.618l1.02.518a33.6,33.6,0,0,0,8.492,2.4,82.411,82.411,0,0,0,17.261.637,104.427,104.427,0,0,1-16.972-2.121,32.511,32.511,0,0,1-7.875-2.721l-.866-.507-.807-.559a8.074,8.074,0,0,1-.7-.607,2.793,2.793,0,0,1-.468-.553l-2.006-3.8c-2.656-5.086-5.412-10.117-8.118-15.175l-1.025-1.893-.518-.942-.4-.857a9.679,9.679,0,0,1-.842-3.622,10.392,10.392,0,0,1,.507-3.7,10.109,10.109,0,0,1,1.788-3.209,7.144,7.144,0,0,1,2.834-2.095l.4-.172.426-.1a3.772,3.772,0,0,1,.853-.167c.3-.017.566-.057.9-.07l1.075,0,8.6-.05c5.734-.083,11.466-.115,17.2-.257q4.862-.1,9.728-.226h2.321l24.148.033a10.689,10.689,0,0,1,8.153,4.755A14.364,14.364,0,0,1,640.479,453.481Zm-221.57,44.511a8.653,8.653,0,0,0,6.419,2.978h41.318c8.184,0,8.5-6.872,6.156-14.779.294-.041.587-.085.881-.128a18.906,18.906,0,0,1,.929,4.609l21.57-4.923a40.477,40.477,0,0,0,4.5-4.1c.476-.087.844-.154,1.092-.2-8.447,8.325-22.961,20.594-35.125,20.594H425.328A7.5,7.5,0,0,1,418.909,497.992ZM343,440.853a10.007,10.007,0,0,1,4.805-4.411,13.492,13.492,0,0,0-2.167,2.932,13.009,13.009,0,0,0,.45,13.426l1.038,1.623c-.311.4-.616.809-.914,1.209l-2.867-4.492A9.966,9.966,0,0,1,343,440.853Zm-44.411-60.022,62.95,42.447-25.182,6.807c-3.056-2.234-11.255-8.334-19.293-15.227l24.847-.957h-25.96c-2.741-2.38-5.434-4.836-7.868-7.244a111.125,111.125,0,0,1-7.957-8.825l19.645-.794H299.483A125.178,125.178,0,0,1,288.822,381.5H277.458l51.773,50.509-1.4.381-52.867-51.66Zm50.946,70.689a11.005,11.005,0,0,1-1.7-3.289,9.007,9.007,0,0,1-.161-5.005,6.012,6.012,0,0,1,2.961-3.874,6.612,6.612,0,0,0-2.382,4.009,9.594,9.594,0,0,0,.318,4.64A11.531,11.531,0,0,0,350,450.995Zm29.593-23.389H357.95c-3.6.655-12.412,3.709-12.412,3.709h27.69c-.348.226-.7.457-1.046.685h-33.05l26.265-7.1h18.342C382.178,426.318,380.636,427.218,379.124,428.132Zm45.5-17.881c4.677-1.638,10.922-2.713,17.888-3.4q-3.971,1.344-7.886,2.826a154.311,154.311,0,0,0-18.556,8.419,153.189,153.189,0,0,1,18.962-7.255q4.836-1.517,9.739-2.813c1.636-.431,3.272-.846,4.91-1.236l2.465-.568.485-.1c2.328-.115,4.69-.2,7.057-.268l-11.621,9.028,2.108-.831c5.229-1.186,27.1-6.121,36.191-8.173,1.677.033,3.291.065,4.823.1,1.566.035,3.059.065,4.464.094-.67.215-1.347.418-2.017.637q-4.852,1.6-9.619,3.422a154.07,154.07,0,0,0-18.56,8.418,153.586,153.586,0,0,1,18.962-7.255q4.846-1.511,9.743-2.811,2.447-.649,4.912-1.238l2.458-.568,1.229-.265.607-.12.294-.059.059-.009.035-.009.013,0h0c0-.039,0,.048,0-.052,29.935.233,36.517,7.361,41.808,13.111,1.014,1.1,2.012,2.182,3.126,3.185l-84.446,26.2h0l80.648-22.073a123.37,123.37,0,0,0-15.3,6.106.543.543,0,0,0-.076.059,12.964,12.964,0,0,0-9.156,6.628,13.3,13.3,0,0,0-1.514,4.516l-.853.627-2.345-6.865v0l1.94,7.157c-5.26,3.853-10.413,7.716-15.66,11.429l-4.1-13.909h0l3.3,14.475c-.587.413-1.177.818-1.764,1.227-6.089,2.1-13.306,4.409-21.059,6.554L475.1,448.512v0l2.269,16.335c-14.892,4.074-31.653,7.468-46.145,7.468H366.344c-13.494,0-19.778-5.34-21.9-7.707C352.972,445.025,389.329,422.611,424.623,410.251Zm52.314-6.772c-.2.063-.446.141-.761.239l-.126-7.074-14.522,11.194c-.611.181-1.19.357-1.725.526l16.854-13.093Zm-22.225,8.784c.035-.015,2.665-1.04,7.672-2.539l-9.6,3.3Zm1.44,87.307c-2.408.024-5.221.052-8.234.078l-9.437.035c-3.213-.013-6.424-.024-9.432-.035-.757-.007-1.495-.015-2.221-.024a7.74,7.74,0,0,1-2.143-.357,8,8,0,0,1-3.339-2.064,9.922,9.922,0,0,1-2.621-5.164,9.721,9.721,0,0,1-.174-1.625c-.009-.374-.017-.574-.017-.574s.013.2.039.574a10.058,10.058,0,0,0,.228,1.61A9.81,9.81,0,0,0,421.547,497a7.7,7.7,0,0,0,3.246,1.921,14.111,14.111,0,0,0,4.257.283l9.432-.033c3.213.011,6.428.022,9.437.03,3.013.031,5.826.057,8.234.081l8.029.143Zm-89.808-26.23h64.877c21.112,0,46.974-7.146,64.988-13.154q-1.746,1.171-3.522,2.312c-17.8,5.821-42.343,12.382-62.495,12.382H365.315c-13.383,0-19.672-5.253-21.842-7.646.157-.516.333-1.033.535-1.555C346.525,468.36,353,473.34,366.344,473.34ZM538.776,475.2,523.418,451.14a9.956,9.956,0,0,1-.344-10.287,10.113,10.113,0,0,1,3.389-3.646A13.576,13.576,0,0,0,525,439.374a13,13,0,0,0,.446,13.426l15.184,23.776A6.611,6.611,0,0,1,538.776,475.2Zm9.565-25.334a14.2,14.2,0,0,0-1.318-4.951,14.4,14.4,0,0,0-2.969-4.224,12.98,12.98,0,0,0-4.329-2.9,13.428,13.428,0,0,1,7.827,6.861,12.239,12.239,0,0,1,.607,10.5,8.532,8.532,0,0,1-1.551,2.271,8.053,8.053,0,0,1-7.583,2.225,12.768,12.768,0,0,1-8.294-6.267,14.864,14.864,0,0,0,3.685,3.694,11.107,11.107,0,0,0,4.716,1.99,8.134,8.134,0,0,0,4.94-.659,7.75,7.75,0,0,0,2.006-1.492,7.919,7.919,0,0,0,1.386-2.088A10.183,10.183,0,0,0,548.341,449.863Zm-.79,21.209a10.285,10.285,0,0,0,2.021,3.685,9.783,9.783,0,0,0,3.391,2.591,8.063,8.063,0,0,1-3.757-2.26,10.126,10.126,0,0,1-2.273-3.824,8.276,8.276,0,0,1-.148-4.457,5.4,5.4,0,0,1,2.626-3.463,5.908,5.908,0,0,0-2.141,3.576A8.213,8.213,0,0,0,547.551,471.073Zm5.471,7.54a6.261,6.261,0,0,0,3.779-.518,5.611,5.611,0,0,0,2.578-2.737,7.81,7.81,0,0,0,.685-3.8,11.067,11.067,0,0,0-1-3.8,10.934,10.934,0,0,0-5.588-5.536,10.317,10.317,0,0,1,6.119,5.277,9.515,9.515,0,0,1,.483,8.186,6.556,6.556,0,0,1-1.214,1.777,6.307,6.307,0,0,1-5.939,1.732,9.824,9.824,0,0,1-6.409-4.914,11.576,11.576,0,0,0,2.874,2.824A8.569,8.569,0,0,0,553.022,478.612Zm-18.808-23.807a11.61,11.61,0,0,1-2.715-4.57,9.533,9.533,0,0,1-.178-5.323,6.428,6.428,0,0,1,3.135-4.135,7.065,7.065,0,0,0-2.562,4.27,10.181,10.181,0,0,0,.341,4.96,12.753,12.753,0,0,0,2.417,4.4A11.612,11.612,0,0,0,538.7,457.5,9.614,9.614,0,0,1,534.214,454.806Zm-13.859-1.821Zm-155.04,22.921h64.877c18.86,0,41.51-5.7,58.969-11.2-17.514,10.661-37.7,18.536-67.235,18.536-70.4,0-67.916-2.112-76.03-12.5C349.438,473.226,355.526,475.906,365.315,475.906Zm-22.173-7.49a18.373,18.373,0,0,0,2.149,1.884,16.858,16.858,0,0,0-.135,2c0,8.782,9.156,13.711,23.011,16.145-9.415-1.342-16.957-3.683-21.418-7.381a10.368,10.368,0,0,1-4.168-8.292A18.111,18.111,0,0,1,343.142,468.417Zm271.622-40.126H554.3c-3.594.657-12.41,3.709-12.41,3.709h65.29l-1.079.526H537.642c7.35-2.956,19.532-7.1,30.139-7.1H620.62Zm117.681-48.867-13.872.187-11.812,5.9-11.908,5.865q-4.731,2.333-9.463,4.655h33.646l-35.6.964q-6.209,3.044-12.432,6.049-10.034,4.875-20.094,9.706h38.875l-41.2,1.116c-.5.237-1,.481-1.5.718q-11.965,5.743-24,11.353,11.819-6.059,23.7-11.971c7.907-3.974,15.852-7.875,23.792-11.784q11.9-5.89,23.857-11.653l11.943-5.8,11.977-5.725.067-.033h.074l13.944.07,13.948.13Z" transform="translate(-269.627 -377.636)" fill="#edfd27"/>
        </g>
      </g>
      <g id="Group_4930" data-name="Group 4930" transform="translate(361.606 420.192)">
        <g id="Group_4929" data-name="Group 4929">
          <path id="Path_10386" data-name="Path 10386" d="M405.136,424.2l23.159-27H353.058c-16.565,7.827-31.4,17.342-41.148,27Zm-82.327-.674c8.416-10.194,27.57-21.236,35.7-25.654h4.02a234.08,234.08,0,0,0-25.092,25.654Zm20.05,0H340.8c7.416-10.631,17.492-20.7,22.719-25.654h2.567C359.389,406.955,347.281,416.394,342.858,423.529Zm37.846,0c9.084-10.194,24.958-21.236,31.59-25.654h2.412C404,407.712,394.5,417.973,389.5,423.529Z" transform="translate(-311.91 -397.199)" fill="#edfd27"/>
        </g>
      </g>
      <g id="Group_4932" data-name="Group 4932" transform="translate(457.912 420.192)">
        <g id="Group_4931" data-name="Group 4931">
          <path id="Path_10387" data-name="Path 10387" d="M394.879,413.457,379.341,397.2l-23.16,27Z" transform="translate(-356.182 -397.199)" fill="#edfd27"/>
        </g>
      </g>
      <g id="Group_4934" data-name="Group 4934" transform="translate(588.597 439.044)">
        <g id="Group_4933" data-name="Group 4933">
          <path id="Path_10388" data-name="Path 10388" d="M461.485,407.455a7.645,7.645,0,0,0-2.885-1.36c-.263-.054-.529-.126-.794-.159l-.8-.057c-.531-.028-.951,0-1.436-.009l-5.617.03c-3.744.057-7.485.076-11.229.172q-11.235.2-22.462.8,11.228.6,22.462.8c3.744.1,7.485.115,11.229.172l5.617.03c.455.009.968-.009,1.373.022l.6.044c.2.026.385.087.581.126a5.748,5.748,0,0,1,2.145,1.031,8.307,8.307,0,0,1,2.728,8.984,25.99,25.99,0,0,1-2.167,4.938,24.635,24.635,0,0,1-7.189,8.04,26.579,26.579,0,0,1-4.784,2.673,32.372,32.372,0,0,1-10.811,2.428,30.029,30.029,0,0,0,11.177-1.494,27.29,27.29,0,0,0,5.166-2.493,24.526,24.526,0,0,0,4.466-3.655,23.945,23.945,0,0,0,3.522-4.594,27.468,27.468,0,0,0,2.473-5.264A10.242,10.242,0,0,0,461.485,407.455Z" transform="translate(-416.258 -405.866)" fill="#edfd27"/>
        </g>
      </g>
      <g id="Group_4936" data-name="Group 4936" transform="translate(570.005 445.319)">
        <g id="Group_4935" data-name="Group 4935">
          <path id="Path_10389" data-name="Path 10389" d="M407.711,408.75c1.653,3.7,3.583,7.244,5.569,10.75,2.019,3.491,4.1,6.946,6.463,10.239-1.651-3.7-3.576-7.244-5.569-10.75C412.151,415.5,410.065,412.048,407.711,408.75Z" transform="translate(-407.711 -408.75)" fill="#edfd27"/>
        </g>
      </g>
      <g id="Group_4938" data-name="Group 4938" transform="translate(573.505 445.108)">
        <g id="Group_4937" data-name="Group 4937">
          <path id="Path_10390" data-name="Path 10390" d="M409.32,408.653c1.653,3.7,3.578,7.244,5.571,10.753,2.019,3.491,4.1,6.944,6.463,10.241-1.653-3.7-3.578-7.246-5.571-10.753C413.76,415.405,411.674,411.951,409.32,408.653Z" transform="translate(-409.32 -408.653)" fill="#edfd27"/>
        </g>
      </g>
      <g id="Group_4940" data-name="Group 4940" transform="translate(577.003 444.899)">
        <g id="Group_4939" data-name="Group 4939">
          <path id="Path_10391" data-name="Path 10391" d="M410.928,408.557c1.655,3.7,3.581,7.246,5.573,10.753,2.019,3.489,4.1,6.941,6.463,10.239-1.653-3.7-3.583-7.244-5.575-10.75C415.372,415.307,413.286,411.855,410.928,408.557Z" transform="translate(-410.928 -408.557)" fill="#edfd27"/>
        </g>
      </g>
      <g id="Group_4942" data-name="Group 4942" transform="translate(580.503 444.69)">
        <g id="Group_4941" data-name="Group 4941">
          <path id="Path_10392" data-name="Path 10392" d="M424.569,429.453c-1.651-3.7-3.576-7.246-5.569-10.753-2.019-3.489-4.1-6.944-6.463-10.239,1.658,3.7,3.583,7.244,5.571,10.751C420.125,422.7,422.211,426.157,424.569,429.453Z" transform="translate(-412.537 -408.461)" fill="#edfd27"/>
        </g>
      </g>
      <g id="Group_4944" data-name="Group 4944" transform="translate(584.003 444.479)">
        <g id="Group_4943" data-name="Group 4943">
          <path id="Path_10393" data-name="Path 10393" d="M414.146,408.364c1.658,3.7,3.583,7.246,5.571,10.753,2.019,3.491,4.1,6.944,6.463,10.241-1.653-3.7-3.578-7.248-5.571-10.753C418.588,415.116,416.5,411.664,414.146,408.364Z" transform="translate(-414.146 -408.364)" fill="#edfd27"/>
        </g>
      </g>
      <g id="Group_4948" data-name="Group 4948" transform="translate(361.939 451.086)">
        <g id="Group_4947" data-name="Group 4947">
          <path id="Path_10395" data-name="Path 10395" d="M382.045,411.625c-3.887-.041-8.421-.139-13.28-.154l-15.232-.07-15.227.07c-4.86.017-9.393.113-13.285.157s-7.126.146-9.4.189c-2.247.061-3.535.1-3.561.1h0l3.563.1c2.269.041,5.508.141,9.4.189s8.425.137,13.285.157,10.043.044,15.227.067c5.188-.024,10.372-.048,15.232-.067s9.393-.115,13.28-.157,7.131-.148,9.4-.189l3.563-.1h0c-.024,0-1.312-.039-3.559-.1C389.176,411.773,385.933,411.671,382.045,411.625Z" transform="translate(-312.063 -411.401)" fill="#edfd27"/>
        </g>
      </g>
      <g id="Group_4950" data-name="Group 4950" transform="translate(364.771 454.168)">
        <g id="Group_4949" data-name="Group 4949">
          <path id="Path_10396" data-name="Path 10396" d="M384.481,413.331h0l-3.052-.1c-1.945-.044-4.718-.146-8.055-.189s-7.222-.141-11.39-.157-8.612-.046-13.056-.067c-4.444.022-8.888.046-13.056.07s-8.055.113-11.39.157-6.11.146-8.055.187l-3.052.1h0s1.114.035,3.056.1c1.945.039,4.723.139,8.055.185s7.222.139,11.39.159,8.612.046,13.056.067l13.056-.065c4.168-.017,8.055-.115,11.39-.159s6.11-.146,8.055-.187C383.371,413.366,384.481,413.331,384.481,413.331Z" transform="translate(-313.365 -412.818)" fill="#edfd27"/>
        </g>
      </g>
      <g id="Group_4954" data-name="Group 4954" transform="translate(498.92 417.981)">
        <g id="Group_4953" data-name="Group 4953">
          <path id="Path_10398" data-name="Path 10398" d="M375.033,398.74l7.253,9.218,10.435-3.106-6.5-8.669Z" transform="translate(-375.033 -396.183)" fill="#edfd27"/>
        </g>
      </g>
      <g id="Group_4956" data-name="Group 4956" transform="translate(521.735 413.66)">
        <g id="Group_4955" data-name="Group 4955">
          <path id="Path_10399" data-name="Path 10399" d="M391.274,404.212l7.873-2.36L393.9,394.2l-8.383,1.931Z" transform="translate(-385.522 -394.196)" fill="#edfd27"/>
        </g>
      </g>
      <g id="Group_4958" data-name="Group 4958" transform="translate(485.184 409.411)">
        <g id="Group_4957" data-name="Group 4957">
          <path id="Path_10400" data-name="Path 10400" d="M374.6,400.226c1.76-.387,3.815-.794,6-1.312s4.516-1.059,6.848-1.607c2.323-.592,4.644-1.186,6.82-1.742s4.194-1.144,5.926-1.614,3.165-.929,4.172-1.216l1.577-.492v0c-.009,0-.594.107-1.623.294-1.029.209-2.506.468-4.261.851s-3.815.792-6,1.312l-6.848,1.61c-2.325.594-4.644,1.186-6.82,1.742s-4.194,1.144-5.928,1.614-3.165.927-4.172,1.218l-1.575.487,1.623-.294C371.371,400.868,372.848,400.609,374.6,400.226Z" transform="translate(-368.719 -392.243)" fill="#edfd27"/>
        </g>
      </g>
      <g id="Group_4960" data-name="Group 4960" transform="translate(371.739 459.47)">
        <g id="Group_4959" data-name="Group 4959">
          <path id="Path_10401" data-name="Path 10401" d="M363.292,415.7l-9.369-.313-10.74-.135c-3.659.046-7.313.094-10.742.135l-9.367.315-5.789.315-.263,1.216c-.287,1.577-.455,2.48-.455,2.48l.842-2.378.276-.8,2.086.122-.772,2.9h46.611l.77-2.874,1.1-.061,1.057-.08-.139.75c-.281,1.542-.444,2.425-.444,2.425s.315-.885.859-2.432l.4-1.264-3.133-.159Z" transform="translate(-316.568 -415.255)" fill="#edfd27"/>
        </g>
      </g>
      <g id="Group_4974" data-name="Group 4974" transform="translate(317.339 404.815)">
        <g id="Group_4973" data-name="Group 4973">
          <path id="Path_10408" data-name="Path 10408" d="M291.688,390.454c-.392.55.146,1.605,1.2,2.356s2.225.92,2.617.37-.144-1.6-1.2-2.354S292.08,389.906,291.688,390.454Z" transform="translate(-291.56 -390.13)" fill="#edfd27"/>
        </g>
      </g>
      <g id="Group_4976" data-name="Group 4976" transform="translate(448.339 451.599)">
        <g id="Group_4975" data-name="Group 4975">
          <path id="Path_10409" data-name="Path 10409" d="M357.567,414.176c-.348.77-.755,1.666-1.192,2.63s-.872,2-1.323,3.035c-.429,1.042-.857,2.084-1.257,3.061s-.744,1.9-1.053,2.691c-.592,1.581-.961,2.65-.961,2.65h0c0-.007.511-1.012,1.229-2.539.348-.768.759-1.666,1.2-2.628.422-.97.868-2,1.318-3.035.429-1.044.857-2.086,1.257-3.063s.744-1.9,1.053-2.691c.592-1.575.961-2.639.961-2.647v0S358.29,412.644,357.567,414.176Z" transform="translate(-351.781 -411.637)" fill="#edfd27"/>
        </g>
      </g>
      <g id="Group_4978" data-name="Group 4978" transform="translate(347.734 449.894)">
        <g id="Group_4977" data-name="Group 4977">
          <path id="Path_10410" data-name="Path 10410" d="M305.533,425.739h0s.709-.888,1.742-2.243c.5-.685,1.092-1.484,1.725-2.339.616-.868,1.275-1.79,1.934-2.713.642-.938,1.279-1.877,1.877-2.754l1.6-2.428c.914-1.436,1.505-2.41,1.505-2.41h0s-.714.892-1.742,2.245c-.507.683-1.1,1.481-1.725,2.338s-1.279,1.79-1.938,2.715c-.637.938-1.279,1.873-1.877,2.752s-1.131,1.719-1.6,2.428C306.12,424.764,305.533,425.737,305.533,425.739Z" transform="translate(-305.533 -410.853)" fill="#edfd27"/>
        </g>
      </g>
    </g>
  </g>
</svg>
